<svg width="32" height="32" viewBox="0 0 32 32" fill="none" xmlns="http://www.w3.org/2000/svg">
<path d="M32 21.4312H31.925L31.9688 20.6437L31.9813 20.5562C31.9125 20.3125 31.8687 20.0625 31.85 19.8125C31.85 19.8125 31.8875 19.9688 31.9188 19.9188V19.9125L31.8875 19.7375C31.8625 19.65 31.8563 19.6187 31.8875 19.6187H31.9125L31.8875 19.5C31.8625 19.45 31.8375 19.3937 31.825 19.3375L31.8 19.15L31.7375 18.7687C31.75 18.7312 31.7563 18.6875 31.7625 18.6437C31.775 18.5562 31.7188 18.55 31.7188 18.55L31.6938 18.7188L31.65 18.125L31.7062 18.025C31.7062 18.025 31.75 18.075 31.75 18.025C31.7563 17.9625 31.7375 17.8937 31.7062 17.8375H31.6875L31.6437 17.8188V17.3813L31.6875 17.3062L31.7125 17.1875L31.725 16.9937C31.7375 16.9562 31.7563 16.925 31.775 16.8937L31.7812 16.7188L31.7625 16.6125L31.775 16.5688L31.7875 16.4937C31.7938 16.4312 31.7687 16.4062 31.75 16.4H31.7375L31.7125 16.5625C31.6938 16.375 31.6063 16.2688 31.6 16.0688L31.6375 16L31.6562 15.9688C31.6562 15.9688 31.7 16.0188 31.7 15.9688C31.7063 15.9062 31.6938 15.8438 31.6625 15.7875H31.6313L31.6125 15.775L31.5875 15.7625C31.5875 15.6375 31.5375 15.5312 31.5375 15.4062V15.3438L31.4438 15.1812L31.475 15.0625L31.4562 15.0312L31.4688 14.975C31.5063 14.7063 31.5125 14.4312 31.5 14.1562L31.4562 14C31.4312 13.8875 31.4875 13.7688 31.5938 13.725L31.5375 13.6062L31.525 13.4875C31.525 13.4875 31.5812 13.5375 31.5812 13.475C31.5812 13.4125 31.5812 13.4125 31.5187 13.3375C31.4562 13.2625 31.4875 13.4125 31.45 13.3562C31.4125 13.2688 31.3875 13.175 31.375 13.0813C31.3563 13.0125 31.3312 12.95 31.3 12.8875C31.2562 12.8 31.25 12.7312 31.2062 12.65L31.1187 12.4875L31.075 12.3813L30.9625 12.0562C30.9375 11.9937 30.825 11.8188 30.8563 11.7875C30.8875 11.7563 30.8312 11.6313 30.75 11.5813L30.8062 11.5437L30.7 11.3813L30.625 11.2375L30.6187 11.2188L30.675 11.1812C30.6687 11.1562 30.6625 11.1375 30.65 11.1125L30.575 10.975L30.4875 10.9C30.4437 10.8062 30.4125 10.7125 30.3813 10.6125L30.4125 10.5375C30.2563 10.475 30.0875 10.4062 29.9312 10.325C29.875 10.2875 29.775 10.2313 29.675 10.1625L29.6063 10.1187C29.5625 10.0875 29.5125 10.0625 29.4625 10.0375L29.35 9.9875L29.25 9.875C29.25 9.875 29.2938 9.875 29.2938 9.85C29.2938 9.84375 29.2938 9.8375 29.2875 9.83125C29.275 9.8125 29.2562 9.8 29.2375 9.7875C29.2062 9.775 29.175 9.76875 29.15 9.7625C29.05 9.74375 29.175 9.84375 29.1063 9.81875C29.0063 9.75625 28.9188 9.69375 28.825 9.625C28.7563 9.575 28.675 9.5375 28.6 9.50625C28.4937 9.4625 28.4312 9.4125 28.3312 9.38125L28.1375 9.325L28.025 9.28125L27.7625 9.1625L27.7188 9.14375C27.6437 9.125 27.5688 9.09375 27.5063 9.05625L27.3813 9.06875C27.3188 9.06875 27.2062 9.06875 27.0812 9.05C27 9.0375 26.9125 9.0375 26.8312 9.0375L26.7 9.05L26.5938 9.01875C26.5938 9.01875 26.6625 8.98125 26.6 8.9625C26.5438 8.94375 26.5437 8.94375 26.4562 8.975C26.3687 9.00625 26.5125 9.03125 26.4438 9.04375H26.4188C26.3375 9.0375 26.2562 9.03125 26.175 9.0125C26.1125 9 26.05 9 25.9875 9.00625C25.9 9.00625 25.8438 8.9875 25.7625 8.99375L25.6 9.00625H25.5875H25.5625C25.4813 9.0125 25.4 9.01875 25.325 9.04375L25.2125 9.075L25.1063 9.0625C25.1063 9.0625 25.1562 9.01875 25.1063 9.00625C25.0563 8.99375 25.0563 8.99375 24.9813 9.0375C24.9062 9.08125 25.0375 9.0875 24.9813 9.10625C24.8938 9.11875 24.8062 9.11875 24.7188 9.1125C24.65 9.1125 24.5812 9.11875 24.5187 9.1375C24.4375 9.1375 24.35 9.15 24.2687 9.1625L24.0875 9.2125L23.975 9.23125C23.8563 9.2375 23.7375 9.25 23.625 9.26875C23.5625 9.28125 23.3375 9.35625 23.3125 9.31875C23.3062 9.30625 23.275 9.31875 23.25 9.31875C23.2375 9.19375 23.225 9.10625 23.225 9.10625L23.175 7.44375L23.125 7.04375H23.1938L23.2 7.0125L23.2188 6.7875V6.53125H23.2875C23.2437 6.4125 23.2625 6.25625 23.3062 6.24375C23.35 6.23125 23.35 5.9875 23.3563 5.91875C23.3625 5.85 23.3937 5.69375 23.4062 5.54375V5.41875L23.3875 5.21875C23.375 5.11875 23.3938 5.05 23.3875 4.94375C23.375 4.86875 23.375 4.79375 23.375 4.71875C23.3875 4.6125 23.3875 4.5125 23.375 4.40625C23.3563 4.33125 23.35 4.50625 23.3062 4.40625C23.2625 4.30625 23.2625 4.3125 23.2687 4.24375C23.2812 4.175 23.325 4.24375 23.325 4.24375L23.3375 4.10625L23.3 3.9625C23.2687 3.80625 23.25 3.65 23.2437 3.4875C23.2188 3.2625 23.1687 3.0375 23.0875 2.83125C23.0375 2.71875 22.9813 2.6125 22.9188 2.5125L22.8813 2.4125C22.6375 1.8875 22.1875 1.49375 21.6375 1.31875L21.6063 1.3875C21.3625 1.29375 21.1125 1.225 20.8563 1.175C20.675 1.1375 20.5063 1.10625 20.3188 1.08125L20.1938 1.0625C20.1 1.0875 19.95 1.09375 19.7 1.13125C19.4125 1.19375 19.1312 1.28125 18.8625 1.40625C18.8625 1.40625 19.1125 1.26875 19.025 1.275L19.0125 1.28125C18.9125 1.325 18.8188 1.375 18.725 1.425C18.5875 1.5125 18.55 1.54375 18.5375 1.51875L18.525 1.49375L18.35 1.6125C18.2625 1.71875 18.1625 1.8125 18.1625 1.8125C18.0813 1.875 18.0188 1.9375 17.95 2.00625C17.8188 2.1375 17.6937 2.275 17.5812 2.425C17.5375 2.45625 17.4875 2.49375 17.45 2.53125C17.3625 2.6125 17.4 2.65625 17.4 2.65625L17.5688 2.50625C17.4 2.70625 17.2438 2.9125 17.1063 3.11875L16.9813 3.18125C16.9813 3.18125 16.9813 3.1 16.9438 3.15625C16.8938 3.2125 16.8563 3.2875 16.8438 3.36875L16.8625 3.38125L16.8813 3.43125L16.5938 3.86875L16.5063 3.9125L16.4125 4.01875L16.3312 4.13125L16.2812 4.20625C16.25 4.2375 16.2125 4.2625 16.175 4.275L16.0688 4.4375L16.025 4.5375L15.9937 4.56875L15.9438 4.63125C15.9313 4.64375 15.925 4.6625 15.9187 4.68125L15.9062 4.69375L15.7125 4.975L15.675 5.01875C15.6875 5.175 15.4062 5.43125 15.4062 5.43125C15.4062 5.43125 15.4375 5.18125 15.2625 5.5C15.1625 5.6875 15.1 5.89375 15.075 6.1C14.9812 6.3375 14.8562 6.5625 14.7063 6.76875C14.575 6.925 14.4812 7.10625 14.4312 7.30625C14.3125 7.5625 14.1813 7.80625 14.0375 8.04375L13.9688 8.225L13.9125 8.18125L13.9 8.1875L13.8188 8.25625L13.7437 8.34375L13.6938 8.3C13.6938 8.3625 13.6313 8.40625 13.5938 8.38125C13.5562 8.35625 13.4875 8.43125 13.4563 8.45C13.425 8.46875 13.3562 8.49375 13.3 8.53125L13.2563 8.56875C13.2313 8.59375 13.2188 8.61875 13.2 8.64375C13.1812 8.66875 13.1375 8.6875 13.1062 8.73125C13.0875 8.7625 13.0625 8.7875 13.0312 8.8125C12.9937 8.8375 12.925 8.875 12.9125 8.9125C12.9 8.95 12.9688 8.9 12.9563 8.96875C12.9438 9.0375 12.9438 9.0375 12.9125 9.04375C12.875 9.05625 12.875 9 12.875 9L12.8062 9.03125L12.7688 9.10625C12.7375 9.15 12.7063 9.19375 12.6687 9.23125C12.625 9.28125 12.5813 9.33125 12.5375 9.3875L12.4812 9.49375L11.95 9.73125L11.9937 9.79375L11.5437 10.0188L11.4875 10.0375C11.3938 10.175 11.275 10.2937 11.15 10.3938C11.15 10.3938 11.2125 10.3063 11.175 10.3L11.0938 10.3813C11.0562 10.4313 11.0437 10.4438 11.025 10.425L11.0125 10.4062L10.9563 10.4625C10.9438 10.5 10.925 10.5375 10.9 10.5688L10.8062 10.65L10.625 10.825C10.6 10.8313 10.5687 10.8375 10.5437 10.8438C10.5188 10.85 10.5 10.875 10.5063 10.9C10.5063 10.9062 10.5125 10.9125 10.5125 10.9187L10.6187 10.8875C10.5187 10.9625 10.4187 11.0375 10.3062 11.1125L10.2188 11.0938C10.2188 11.0938 10.225 11.0375 10.1938 11.0562C10.1562 11.075 10.125 11.1062 10.1125 11.15L10.125 11.1687L10.1375 11.2125L9.8875 11.3562L9.81875 11.3375L9.7375 11.3562L9.61875 11.4062C9.5875 11.4062 9.5625 11.4062 9.53125 11.3938L9.425 11.4438L9.375 11.4937H9.34375L9.29375 11.5063C9.26875 11.5125 9.25625 11.5375 9.25625 11.5625V11.5688V11.575L9.3625 11.5437C9.2625 11.6187 9.25 11.7312 9.14375 11.8L9.0875 11.7875L9.05625 11.7812C9.05625 11.7812 9.0625 11.725 9.03125 11.7437C8.99375 11.7625 8.9625 11.7937 8.95 11.8375L8.9625 11.8562V11.875L8.96875 11.9C8.9 11.9437 8.8625 12.0187 8.79375 12.0562L8.75625 12.075L8.7125 12.2063L8.63125 12.225C8.6 12.2125 8.5625 12.2063 8.525 12.2063C8.38125 12.1938 8.23125 12.225 8.1 12.2937C7.91875 12.3125 7.7375 12.2937 7.5625 12.2375C7.41875 12.1875 7.25625 12.1813 7.10625 12.225L6.41875 12.2437L6.25 12.2875V12.2188L6.2375 12.2125L6.15625 12.2063H6.05V12.1375C6 12.175 5.93125 12.1562 5.93125 12.1125C5.93125 12.0625 5.825 12.0625 5.8 12.0562C5.775 12.05 5.70625 12.0125 5.64375 11.9937L5.59375 11.9875C5.56875 11.9875 5.5375 11.9875 5.5125 11.9937C5.46875 12 5.44375 11.9812 5.39375 11.9937C5.3625 12 5.33125 12 5.3 11.9937C5.25625 11.9812 5.2125 11.9812 5.1625 11.9937C5.13125 12.0125 5.20625 12.0188 5.1625 12.0625C5.11875 12.1062 5.11875 12.1062 5.0875 12.0938C5.05625 12.0813 5.0875 12.0375 5.0875 12.0375L5.025 12.025L4.95625 12.0562C4.9125 12.075 4.8625 12.0875 4.8125 12.0938C4.75 12.1062 4.6875 12.1188 4.625 12.1438L4.53125 12.2C4.375 12.1625 4.2125 12.1313 4.05 12.1125V12.1875L3.65625 12.15L3.6125 12.1438C3.50625 12.2125 3.3875 12.2563 3.2625 12.2812C3.2625 12.2812 3.3375 12.2375 3.3125 12.2125L3.23125 12.2437C3.19375 12.2687 3.175 12.275 3.175 12.2437V12.2188L3.11875 12.2437C3.1 12.2687 3.075 12.2875 3.04375 12.3062L2.95625 12.3313L2.78125 12.3938C2.7625 12.3813 2.74375 12.375 2.725 12.3687C2.675 12.3562 2.675 12.4187 2.675 12.4187L2.75625 12.4438C2.66875 12.4625 2.575 12.4812 2.4875 12.4875L2.44375 12.4187C2.44375 12.4187 2.4625 12.375 2.44375 12.375C2.40625 12.375 2.375 12.3875 2.35625 12.4187V12.4375L2.35 12.4812C2.28125 12.4812 2.2125 12.4875 2.15 12.4812L2.1125 12.4375L2.05625 12.4187L1.96875 12.4062C1.95 12.3938 1.93125 12.375 1.91875 12.35H1.8375L1.79375 12.3687L1.775 12.3562L1.7375 12.3438C1.70625 12.3375 1.7 12.3625 1.7 12.3813V12.3938L1.775 12.4187C1.69375 12.4375 1.65 12.525 1.5625 12.525L1.53125 12.4875L1.5125 12.4688C1.5125 12.4688 1.53125 12.425 1.5125 12.425C1.48125 12.425 1.45 12.4375 1.4375 12.4625V12.4812V12.5V12.525C1.38125 12.525 1.3375 12.575 1.2875 12.575H1.25625L1.19375 12.6625L1.14375 12.6313L1.06875 12.7375C1.05 12.725 1.0375 12.7062 1.025 12.6812C0.9875 12.675 0.9625 12.7688 0.9375 12.7625L0.8875 12.7563C0.86875 12.85 0.85 12.6875 0.84375 12.7812C0.84375 12.7812 0.80625 12.75 0.71875 12.8875C0.63125 13.025 0.63125 13.0562 0.63125 13.0562C0.6125 13.0875 0.6 13.1187 0.59375 13.15C0.56875 13.2312 0.6 13.3125 0.6625 13.3188C0.725 13.325 0.68125 13.4625 0.68125 13.4625C0.69375 13.5 0.73125 13.525 0.775 13.525C0.8 13.525 0.8 13.5375 0.79375 13.5562C0.73125 13.5625 0.68125 13.6063 0.66875 13.6625L0.625 13.825C0.58125 14.0562 0.55 14.2937 0.53125 14.525L0.55625 14.6562C0.58125 14.8188 0.375 14.8625 0.375 14.8625L0.4125 14.9625L0.4 15.0562C0.4 15.0562 0.35625 15.0062 0.34375 15.0562C0.33125 15.1062 0.33125 15.1062 0.375 15.1687C0.41875 15.2375 0.425 15.1187 0.44375 15.1687C0.45625 15.2375 0.45625 15.3125 0.44375 15.3813C0.4375 15.4313 0.44375 15.4875 0.45625 15.5375C0.46875 15.6125 0.45 15.6562 0.45625 15.725C0.4625 15.7688 0.46875 15.8125 0.475 15.8625V15.95C0.4625 16.05 0.425 16.1625 0.425 16.2062C0.41875 16.2437 0.41875 16.4187 0.36875 16.425C0.31875 16.4312 0.30625 16.5375 0.35 16.6187H0.3V16.7938L0.28125 16.95L0.26875 17H0.2L0.1625 17.1375L0.18125 17.1938C0.15 17.2563 0.1125 17.3188 0.06875 17.3813L0 17.4C0.075 17.525 0.1375 17.6562 0.1875 17.7938C0.2125 17.875 0.225 17.9625 0.2375 18.05L0.25 18.1187C0.25625 18.1687 0.26875 18.2125 0.28125 18.2563L0.31875 18.3563L0.30625 18.45C0.30625 18.45 0.275 18.4188 0.25625 18.4375C0.25 18.4375 0.24375 18.4375 0.24375 18.4438C0.2375 18.4625 0.2375 18.475 0.24375 18.4937C0.25625 18.5187 0.26875 18.5375 0.28125 18.5562C0.325 18.625 0.33125 18.5063 0.35 18.5562C0.3625 18.625 0.3625 18.7 0.35 18.7687C0.35 18.8187 0.35 18.875 0.3625 18.925C0.375 19 0.35625 19.0437 0.3625 19.1125C0.36875 19.1562 0.375 19.2062 0.38125 19.25V19.3375C0.36875 19.4125 0.35625 19.4812 0.3375 19.55L0.33125 19.5875C0.33125 19.6562 0.31875 19.725 0.3 19.7938L0.34375 19.9C0.36875 19.9812 0.38125 20.0688 0.39375 20.15C0.4 20.2188 0.4125 20.2938 0.4375 20.3563L0.475 20.4562L0.45 20.5625C0.45 20.5625 0.40625 20.5125 0.39375 20.5625C0.38125 20.6125 0.38125 20.6125 0.425 20.675C0.46875 20.7437 0.475 20.625 0.49375 20.675V20.6938C0.5 20.7563 0.5 20.825 0.49375 20.8875C0.4875 20.9375 0.49375 20.9938 0.50625 21.0438C0.5125 21.1188 0.5 21.1625 0.50625 21.2313C0.5125 21.275 0.51875 21.3188 0.525 21.3687V21.3813V21.4C0.53125 21.4688 0.54375 21.5375 0.56875 21.6063L0.60625 21.7062L0.59375 21.8C0.59375 21.8 0.55 21.7562 0.5375 21.8C0.525 21.8438 0.525 21.8438 0.56875 21.9125C0.6125 21.9813 0.61875 21.8625 0.6375 21.9125C0.65 21.9813 0.65 22.0562 0.6375 22.125C0.63125 22.175 0.6375 22.2313 0.65 22.2812C0.6625 22.3563 0.64375 22.4 0.65 22.4688C0.65625 22.5125 0.6625 22.5625 0.66875 22.6063V22.6938C0.65625 22.7938 0.61875 22.9062 0.61875 22.95C0.6125 22.9875 0.6125 23.1625 0.5625 23.175C0.5125 23.1875 0.5 23.2875 0.54375 23.3687H0.45625V23.5438L0.4375 23.7L0.43125 23.7188H0.35625L0.31875 23.8563L0.3375 23.9125C0.30625 23.975 0.26875 24.0312 0.23125 24.0938C0.24375 24.1625 0.275 24.125 0.31875 24.1938C0.375 24.2563 0.44375 24.3062 0.51875 24.3438C0.49375 24.425 0.4875 24.5125 0.49375 24.6C0.49375 24.7812 0.49375 24.6 0.54375 24.8125C0.59375 25.025 0.68125 24.9625 0.65 25.1437C0.64375 25.1812 0.6375 25.2125 0.6375 25.25C0.59375 25.275 0.5625 25.3125 0.5375 25.3563C0.44375 25.4938 0.45 25.5187 0.45 25.5187C0.43125 25.55 0.41875 25.5812 0.4125 25.6125C0.3875 25.6937 0.41875 25.775 0.48125 25.7812C0.54375 25.7875 0.5 25.925 0.5 25.925C0.5125 25.9562 0.55 25.9813 0.5875 25.975C0.6625 25.975 0.5625 26.0813 0.5 26.1313C0.4375 26.1812 0.48125 26.3438 0.475 26.3937C0.475 26.4375 0.38125 26.6875 0.46875 26.725C0.525 26.75 0.5875 26.7562 0.65 26.7375C0.65 26.7375 0.60625 26.925 0.725 26.9625L0.84375 27C1.00625 27.0438 1.175 27.075 1.34375 27.0875C1.375 27.0812 1.40625 27.0688 1.4375 27.0625C1.55 27.0375 1.5875 27.2437 1.5875 27.2437L1.6625 27.2062C1.70625 27.2125 1.73125 27.2188 1.73125 27.2188C1.73125 27.2188 1.7 27.2687 1.73125 27.275C1.7625 27.2875 1.76875 27.2875 1.8125 27.2437C1.8625 27.2 1.775 27.1937 1.8125 27.175C1.8625 27.1625 1.91875 27.1625 1.96875 27.175C2.00625 27.175 2.04375 27.1688 2.075 27.1562C2.125 27.1437 2.1625 27.1625 2.2125 27.1562L2.30625 27.1375H2.36875C2.44375 27.15 2.51875 27.1812 2.55 27.1875C2.58125 27.1938 2.7 27.1875 2.70625 27.2375C2.7125 27.2875 2.7875 27.3 2.84375 27.2563V27.325H2.96875L3.075 27.3438L3.0875 27.35V27.425L3.18125 27.4625L3.225 27.4438C3.275 27.475 3.31875 27.5125 3.35625 27.5562L3.375 27.625C3.4625 27.55 3.55 27.4875 3.65 27.4375C3.70625 27.4125 3.76875 27.3938 3.83125 27.3813L3.88125 27.3687C3.9125 27.3625 3.95 27.35 3.98125 27.3375L4.05625 27.3C4.08125 27.3 4.1 27.3062 4.125 27.3125C4.125 27.3125 4.10625 27.3438 4.1125 27.3625C4.1125 27.3687 4.11875 27.3687 4.125 27.375C4.14375 27.375 4.15 27.3813 4.1625 27.375C4.18125 27.3625 4.19375 27.35 4.20625 27.3375C4.25625 27.2937 4.16875 27.2875 4.20625 27.2687C4.25625 27.2562 4.3125 27.2562 4.3625 27.2687C4.4 27.275 4.4375 27.2688 4.46875 27.2563C4.51875 27.2437 4.55625 27.2625 4.60625 27.2563C4.6375 27.25 4.66875 27.2437 4.7 27.2375H4.7625C4.8125 27.25 4.86875 27.2625 4.91875 27.2812L4.94375 27.2875C4.96875 27.2875 5.05625 27.2875 5.0875 27.3188C5.1125 27.3062 5.1375 27.2875 5.1625 27.275C5.21875 27.25 5.28125 27.2313 5.34375 27.2188C5.39375 27.2125 5.44375 27.2 5.49375 27.175L5.56875 27.1375C5.59375 27.1375 5.6125 27.1437 5.6375 27.15C5.6375 27.15 5.60625 27.2 5.6375 27.2062C5.66875 27.2188 5.66875 27.2188 5.71875 27.175C5.76875 27.1312 5.68125 27.125 5.71875 27.1063H5.73125C5.775 27.1 5.825 27.1 5.86875 27.1063C5.90625 27.1125 5.94375 27.1063 5.975 27.0938C6.025 27.0812 6.0625 27.1 6.1125 27.0938L6.20625 27.075H6.2125H6.23125C6.28125 27.0688 6.3375 27.0562 6.38125 27.0375L6.45625 27C6.5 27.0063 6.525 27.0125 6.525 27.0125C6.525 27.0125 6.49375 27.0625 6.525 27.0688C6.55625 27.0813 6.55625 27.0813 6.60625 27.0375C6.65625 26.9937 6.56875 26.9875 6.60625 26.9688C6.65625 26.9562 6.7125 26.9562 6.7625 26.9688C6.8 26.975 6.8375 26.9688 6.86875 26.9562C6.91875 26.9437 6.95625 26.9625 7.00625 26.9562C7.0375 26.95 7.06875 26.9438 7.1 26.9375H7.1625C7.2375 26.95 7.3125 26.9875 7.34375 26.9875C7.375 26.9937 7.49375 26.9875 7.5 27.0375C7.50625 27.0875 7.58125 27.1 7.6375 27.0562V27.125H7.7625L7.86875 27.1437L7.88125 27.15V27.225L7.975 27.2625L8.01875 27.2437C8.0625 27.275 8.10625 27.3125 8.14375 27.35C8.19375 27.3375 8.16875 27.3063 8.2125 27.2625C8.2625 27.2 8.3 27.1375 8.31875 27.0625C8.375 27.0875 8.4375 27.0938 8.5 27.0875C8.63125 27.0875 8.5 27.0875 8.65 27.0375C8.8 26.9875 8.75625 26.9 8.8875 26.9312H8.9125C8.9125 26.9688 8.90625 26.9937 8.90625 26.9937H8.99375L9.05625 27.0375C9.05625 27.0375 9.00625 27.0625 9.03125 27.0875C9.05625 27.1125 9.05625 27.1125 9.125 27.0938C9.1875 27.075 9.1125 27.0312 9.15625 27.0312C9.2125 27.0438 9.2625 27.0688 9.30625 27.1C9.3375 27.1187 9.375 27.1375 9.4125 27.1437C9.46875 27.1625 9.4875 27.1937 9.5375 27.2062C9.56875 27.2125 9.60625 27.225 9.6375 27.2375L9.69375 27.275C9.75625 27.325 9.8125 27.3938 9.8375 27.4188C9.8625 27.4375 9.975 27.5062 9.95625 27.55C9.9375 27.5938 10 27.6437 10.075 27.6437L10.0375 27.7L10.15 27.7687L10.2437 27.85L10.25 27.8625L10.2125 27.9188L10.2812 28.0063L10.3313 28.0125C10.3562 28.0688 10.375 28.125 10.3938 28.1875L10.3687 28.2563C10.4875 28.2437 10.6063 28.25 10.725 28.2687C10.7938 28.2875 10.8562 28.3062 10.9187 28.3375L10.9688 28.3563C11.0063 28.3688 11.0375 28.3812 11.075 28.3937L11.1625 28.4125L11.2188 28.4625C11.2188 28.4625 11.1812 28.475 11.1812 28.4937V28.5125C11.1937 28.525 11.2 28.5375 11.2125 28.5375H11.275C11.3438 28.5312 11.275 28.475 11.3125 28.4813C11.3687 28.5 11.4187 28.5375 11.4625 28.5812C11.5062 28.6125 11.55 28.6375 11.6 28.6625C11.6688 28.7 11.7 28.7375 11.7625 28.7625L11.8938 28.8188L11.9688 28.8625L12.1375 29L12.1687 29.025C12.2312 29.0562 12.2875 29.0938 12.3375 29.1437H12.4438C12.5 29.15 12.5875 29.1688 12.6875 29.1875C12.75 29.2062 12.8188 29.2188 12.8813 29.2188H12.9812L13.0562 29.2625C13.0562 29.2625 13 29.2938 13.0375 29.3188C13.075 29.3438 13.075 29.3438 13.1438 29.3188C13.2188 29.2938 13.1187 29.2563 13.1687 29.2563H13.1875C13.2437 29.2688 13.3 29.2875 13.35 29.3125C13.3875 29.3312 13.4313 29.3438 13.475 29.3438C13.5375 29.3563 13.5688 29.3875 13.625 29.3937C13.6625 29.4 13.7 29.4062 13.7312 29.4125H13.7437H13.7625C13.8187 29.425 13.875 29.4312 13.9375 29.425L14.025 29.4188L14.0875 29.4562C14.0875 29.4562 14.0375 29.4875 14.0688 29.5125C14.1 29.5375 14.1 29.5375 14.1625 29.5125C14.225 29.4875 14.1438 29.45 14.1875 29.45C14.2437 29.4563 14.2937 29.475 14.3438 29.5063C14.3813 29.525 14.4187 29.5312 14.4563 29.5375C14.5125 29.55 14.5375 29.5812 14.5938 29.5875C14.6313 29.5938 14.6687 29.6 14.7 29.6125L14.7625 29.6437C14.8313 29.6875 14.9 29.75 14.9312 29.7687C14.9625 29.7875 15.0875 29.8438 15.075 29.8875C15.0625 29.9313 15.1375 29.9813 15.2125 29.9688L15.1875 30.0312L15.3188 30.0875L15.4312 30.1562L15.4438 30.1688L15.4125 30.2375L15.5063 30.3188H15.5625C15.6 30.3687 15.6313 30.425 15.6625 30.475C15.725 30.4813 15.7062 30.4437 15.775 30.425C15.85 30.3937 15.9187 30.35 15.9688 30.2875C16.025 30.3375 16.0938 30.375 16.1688 30.3937C16.325 30.45 16.1687 30.3938 16.3625 30.4125C16.5562 30.4312 16.5375 30.325 16.6875 30.4125C16.7625 30.4625 16.85 30.4875 16.9375 30.475C16.975 30.45 17.0187 30.4313 17.0625 30.4188C17.0875 30.4125 17.1063 30.4062 17.1313 30.3937C17.1438 30.425 17.15 30.4562 17.15 30.4562L17.2313 30.4188L17.3062 30.4312C17.3062 30.4312 17.2687 30.4812 17.3062 30.4875C17.3438 30.5 17.3438 30.5 17.3937 30.4562C17.4437 30.4125 17.3562 30.4062 17.3937 30.3875C17.45 30.375 17.5063 30.375 17.5625 30.3875C17.6 30.3938 17.6437 30.3875 17.6812 30.375C17.7375 30.3687 17.775 30.3875 17.8312 30.375C17.8687 30.3687 17.9 30.3625 17.9375 30.3563H18.0063C18.0875 30.3688 18.175 30.4062 18.2062 30.4125C18.2375 30.4188 18.375 30.4188 18.3813 30.4688C18.3875 30.5187 18.4688 30.5312 18.5312 30.4875V30.5562H18.6688L18.7875 30.575L18.8062 30.5812V30.6562L18.9125 30.6938L18.9562 30.675C19.0062 30.7125 19.0563 30.75 19.1063 30.7875L19.125 30.8563C19.2188 30.7812 19.3188 30.7188 19.4312 30.675C19.4937 30.65 19.5625 30.6375 19.6313 30.625L19.6875 30.6125C19.725 30.6062 19.7625 30.5938 19.7938 30.5812L19.875 30.5438L19.95 30.5562C19.95 30.5562 19.9312 30.5875 19.9375 30.6063C19.9375 30.6125 19.9438 30.6125 19.95 30.6187C19.9688 30.6187 19.975 30.625 19.9875 30.6187C20.0062 30.6062 20.025 30.5938 20.0375 30.5812C20.0875 30.5375 20 30.5312 20.0375 30.5125C20.0938 30.5 20.15 30.5 20.2062 30.5125C20.2437 30.5188 20.2875 30.5125 20.325 30.5C20.3813 30.4875 20.4188 30.5063 20.475 30.5C20.5125 30.4937 20.5437 30.4875 20.5812 30.4813H20.65C20.7062 30.4938 20.7625 30.5063 20.8188 30.525L20.85 30.5312C20.9062 30.5312 20.9563 30.5438 21.0125 30.5625L21.0938 30.5187C21.1562 30.4937 21.225 30.4813 21.2938 30.4688C21.35 30.4625 21.4062 30.45 21.4562 30.425L21.5375 30.3875L21.6125 30.4C21.6125 30.4 21.575 30.45 21.6125 30.4562C21.65 30.4688 21.65 30.4688 21.7 30.425C21.75 30.3812 21.6625 30.375 21.7 30.3563H21.7125C21.7625 30.35 21.8125 30.35 21.8687 30.3563C21.9125 30.3625 21.95 30.3563 21.9875 30.3438C22.0437 30.3375 22.0813 30.3563 22.1375 30.3438C22.175 30.3375 22.2062 30.3313 22.2437 30.325H22.2563H22.275C22.3312 30.3188 22.3875 30.3062 22.4375 30.2812L22.5187 30.2437L22.5938 30.2563C22.5938 30.2563 22.5562 30.3062 22.5938 30.3125C22.6313 30.325 22.6313 30.325 22.6812 30.2812C22.7312 30.2375 22.6437 30.2312 22.6812 30.2125C22.7375 30.2 22.7938 30.2 22.85 30.2125C22.8875 30.2188 22.9312 30.2125 22.9688 30.2C23.025 30.1938 23.0625 30.2063 23.1187 30.2L23.175 30.1938C23.2562 30.2063 23.3563 30.2188 23.4438 30.2313L23.4937 30.2437C23.5312 30.25 23.6625 30.25 23.6688 30.3C23.675 30.35 23.7563 30.3625 23.825 30.3188V30.3875H23.9625L24.0812 30.4062L24.1 30.4125V30.4875L24.2062 30.525L24.25 30.5063C24.3 30.5375 24.3438 30.575 24.3937 30.6125C24.45 30.6 24.4188 30.5688 24.4688 30.525C24.5187 30.4688 24.5625 30.4 24.5875 30.325C24.65 30.3438 24.7188 30.3563 24.7875 30.35C24.9125 30.35 24.8375 30.35 24.9062 30.3188H24.9562C25.1375 30.2563 25.325 30.2188 25.5125 30.2062L25.8937 30.1562C25.8937 30.1562 25.4688 30.3938 26.15 30.1688C26.425 30.0688 26.6875 29.9312 26.9312 29.7563C27.0187 29.6875 27.1 29.6188 27.1812 29.5438C27.1812 29.5438 27.7812 29.125 28.3062 28.8C28.6313 28.6 28.9187 28.3438 29.15 28.05C29.5562 27.6375 29.925 27.1875 30.2563 26.7062C30.3313 26.575 30.3937 26.4438 30.4562 26.3188L30.5125 26.3563L30.5375 26.3312L30.6875 26.1187C30.7375 26.0437 30.7875 25.9438 30.8375 25.8438L30.9 25.875C30.9312 25.725 31.0063 25.575 31.0625 25.5812C31.1187 25.5875 31.2125 25.3438 31.2437 25.2812C31.275 25.2188 31.3687 25.075 31.425 24.9438L31.475 24.825C31.5 24.75 31.5063 24.7 31.525 24.6313C31.55 24.5375 31.5875 24.475 31.6125 24.3687C31.625 24.2937 31.6438 24.225 31.6688 24.1562C31.7125 24.0625 31.7375 23.9625 31.7563 23.8563C31.7563 23.7812 31.7062 23.9438 31.6875 23.8375C31.6688 23.7312 31.6688 23.7313 31.7 23.6688C31.7313 23.6125 31.7563 23.6812 31.7563 23.6812L31.8062 23.55V23.4C31.8125 23.3 31.8188 23.1938 31.8375 23.0938C31.8562 22.9688 31.8625 22.8375 31.8687 22.7062L31.85 22.475C31.9125 22.2563 31.9562 22.025 31.9688 21.8C31.9688 21.7562 31.9813 21.5938 32 21.4312ZM2.575 25.0312V25.0187L2.6 25.0312H2.575ZM7.91875 22.7062C7.90625 22.8 7.86875 22.9062 7.8625 22.95C7.85625 22.9938 7.85625 23.1562 7.80625 23.1625C7.75625 23.175 7.74375 23.2688 7.7875 23.35H7.70625L7.7125 23.5312L7.7 23.6938L7.69375 23.7125H7.61875L7.5875 23.8563L7.60625 23.9188C7.575 23.9875 7.54375 24.05 7.50625 24.1125C7.525 24.1875 7.55 24.1437 7.6 24.2125C7.65625 24.275 7.725 24.325 7.80625 24.3563C7.7875 24.4438 7.78125 24.5312 7.79375 24.6187C7.8 24.7812 7.79375 24.675 7.8375 24.7812C7.74375 24.7938 7.65625 24.8187 7.575 24.8625C7.4 24.8812 7.21875 24.8687 7.05 24.8188C6.90625 24.7688 6.75 24.7688 6.60625 24.8188L5.9375 24.8687C5.88125 24.8875 5.83125 24.9062 5.775 24.9188V24.85L5.7625 24.8438L5.66875 24.825H5.56875V24.7563C5.51875 24.8 5.4625 24.7812 5.45625 24.7375C5.45 24.6875 5.35625 24.6938 5.325 24.6875C5.275 24.6688 5.225 24.65 5.175 24.6313H5.125C5.1 24.6375 5.06875 24.6375 5.04375 24.65C5.00625 24.6625 4.975 24.6437 4.9375 24.65C4.90625 24.6625 4.875 24.6625 4.85 24.6625C4.80625 24.65 4.7625 24.65 4.725 24.6625C4.7 24.6812 4.7625 24.6875 4.725 24.7313C4.6875 24.775 4.6875 24.775 4.65625 24.7625C4.63125 24.75 4.65625 24.7062 4.65625 24.7062C4.6375 24.7 4.61875 24.7 4.6 24.6938L4.54375 24.7313C4.50625 24.75 4.4625 24.7687 4.425 24.775C4.375 24.7875 4.325 24.8063 4.275 24.825C4.24375 24.8438 4.21875 24.8625 4.19375 24.8813C4.0625 24.8438 3.925 24.8125 3.78125 24.7875V24.8625L3.4375 24.8062H3.4C3.3 24.8687 3.19375 24.9062 3.075 24.9188C3.075 24.9188 3.14375 24.8813 3.125 24.8563L3.05 24.8813C3.0125 24.9062 3 24.9062 3 24.8813V24.8563L2.95 24.875C2.93125 24.9 2.90625 24.9187 2.88125 24.9312L2.8 24.95L2.63125 24.9937L2.59375 24.975L2.6375 24.8375L2.6875 24.5125L2.7 24.4562C2.61875 24.3312 2.7625 23.9937 2.7625 23.9937C2.7625 23.9937 2.84375 24.2188 2.8625 23.8813C2.875 23.6812 2.84375 23.4813 2.76875 23.2938C2.75 23.05 2.7625 22.8 2.8125 22.5625C2.8625 22.3625 2.8625 22.15 2.8125 21.9438L2.7625 21.0125L2.70625 20.7875H2.775L2.78125 20.7687L2.8 20.6437V20.5H2.875C2.83125 20.4375 2.85 20.3438 2.89375 20.3438C2.9375 20.3438 2.94375 20.2 2.95 20.1625C2.95625 20.125 2.9875 20.0375 3 19.9562V19.8875C2.99375 19.85 2.99375 19.8125 2.98125 19.7812C2.96875 19.725 2.9875 19.6875 2.98125 19.625C2.96875 19.5812 2.96875 19.5438 2.96875 19.5C2.98125 19.4438 2.98125 19.3813 2.96875 19.325C2.95 19.2812 2.94375 19.3813 2.9 19.325C2.85625 19.2688 2.85625 19.2688 2.86875 19.2313C2.88125 19.1938 2.925 19.2313 2.925 19.2313L2.9375 19.1562L2.9 19.075C2.88125 19.0188 2.8625 18.9625 2.85625 18.9062C2.84375 18.8375 2.825 18.7688 2.80625 18.7L2.75 18.5875C2.7875 18.4062 2.81875 18.2188 2.85 18.0125H2.775L2.83125 17.5375L2.84375 17.4875C2.7875 17.3438 2.75 17.1875 2.7375 17.0375C2.7375 17.0375 2.775 17.1313 2.8 17.1063L2.775 17C2.75 16.95 2.75 16.925 2.775 16.925H2.8L2.78125 16.85C2.75625 16.8188 2.7375 16.7875 2.725 16.75L2.70625 16.6313L2.6625 16.3937C2.675 16.3687 2.68125 16.3438 2.6875 16.3188C2.69375 16.2938 2.68125 16.2688 2.6625 16.2625C2.65625 16.2625 2.65625 16.2625 2.65 16.2625L2.61875 16.3625C2.60625 16.2437 2.6 16.125 2.6 16L2.6625 15.9375C2.6625 15.9375 2.70625 15.9688 2.70625 15.9375C2.7125 15.9 2.7 15.8562 2.675 15.825H2.65625L2.6125 15.8125L2.63125 15.5437L2.68125 15.5L2.7125 15.425L2.73125 15.3062C2.74375 15.2812 2.7625 15.2562 2.7875 15.2437L2.8 15.1375L2.7875 15.075L2.8 15.05L2.81875 15.0063C2.825 14.9875 2.81875 14.9625 2.79375 14.95C2.7875 14.95 2.7875 14.95 2.78125 14.95H2.775L2.74375 15.05C2.73125 14.9313 2.65 14.8625 2.65 14.7375L2.69375 14.7L2.7125 14.6812C2.7125 14.6812 2.75625 14.7125 2.75625 14.6812C2.75625 14.6562 2.75625 14.6375 2.74375 14.6125C2.81875 14.6188 2.9 14.6438 2.93125 14.6438C2.9625 14.6438 3.0875 14.6312 3.1 14.6812C3.1125 14.7312 3.1875 14.7375 3.24375 14.6875L3.25 14.7563L3.375 14.7437L3.4875 14.75L3.5 14.7563V14.825L3.6 14.8562L3.6375 14.8313C3.6875 14.8625 3.73125 14.9 3.775 14.9375L3.79375 15.0063C3.86875 14.9313 3.95625 14.8625 4.05 14.8062C4.10625 14.7812 4.1625 14.7625 4.21875 14.7437L4.2625 14.7312C4.29375 14.725 4.325 14.7125 4.35625 14.7L4.425 14.6625L4.4875 14.675C4.4875 14.675 4.46875 14.7063 4.48125 14.725C4.48125 14.7313 4.4875 14.7312 4.49375 14.7375C4.5125 14.7375 4.51875 14.7438 4.525 14.7375C4.54375 14.725 4.55625 14.7125 4.56875 14.7C4.6125 14.6562 4.5375 14.65 4.56875 14.6313C4.6125 14.6188 4.6625 14.6188 4.70625 14.6313C4.7375 14.6375 4.76875 14.6313 4.8 14.625C4.85 14.6187 4.88125 14.6375 4.93125 14.625C4.9625 14.6187 4.99375 14.6125 5.03125 14.6125L5.09375 14.6187C5.15 14.6312 5.2 14.65 5.25 14.6687L5.275 14.675C5.325 14.6813 5.38125 14.6937 5.425 14.7125L5.50625 14.675C5.56875 14.6562 5.63125 14.6438 5.7 14.6313C5.75625 14.625 5.80625 14.6125 5.85625 14.5938L5.93125 14.5625L6 14.5813C6 14.5813 5.9625 14.625 6 14.6375C6.0375 14.65 6.0375 14.65 6.0875 14.6062C6.1375 14.5625 6.05 14.5563 6.0875 14.5375H6.1C6.15 14.5312 6.2 14.5375 6.24375 14.55C6.28125 14.5563 6.325 14.5563 6.3625 14.55C6.41875 14.5437 6.45 14.5625 6.50625 14.5562C6.54375 14.55 6.575 14.5437 6.6125 14.5437H6.625H6.64375C6.69375 14.5375 6.75 14.525 6.8 14.5L6.875 14.4688L6.94375 14.4812C6.94375 14.4812 6.90625 14.525 6.94375 14.5375C6.98125 14.55 6.98125 14.55 7.03125 14.5063C7.08125 14.4625 6.99375 14.4563 7.03125 14.4375C7.0875 14.425 7.1375 14.425 7.19375 14.4375C7.23125 14.4438 7.275 14.4375 7.3125 14.4312C7.36875 14.425 7.40625 14.4437 7.45625 14.4312C7.49375 14.425 7.525 14.4187 7.5625 14.4187L7.625 14.425C7.7 14.4375 7.78125 14.475 7.81875 14.4812C7.85 14.4875 7.875 14.4812 7.90625 14.4937C7.88125 14.65 7.8625 14.8188 7.84375 14.975L7.86875 15.1C7.89375 15.2563 7.6875 15.2937 7.6875 15.2937L7.725 15.3875L7.7125 15.475C7.7125 15.475 7.66875 15.4313 7.65625 15.475C7.64375 15.5188 7.64375 15.5188 7.6875 15.5813C7.73125 15.6438 7.7375 15.5312 7.75625 15.5813C7.76875 15.65 7.76875 15.7188 7.75625 15.7875C7.75 15.8375 7.75625 15.8875 7.76875 15.9375C7.78125 16.0063 7.7625 16.05 7.76875 16.1187C7.775 16.1625 7.78125 16.2063 7.7875 16.25V16.3312C7.775 16.425 7.7375 16.5313 7.73125 16.575C7.725 16.6188 7.725 16.7812 7.675 16.7875C7.625 16.8 7.6125 16.8938 7.65625 16.975H7.58125V17.1375L7.5625 17.2875L7.55625 17.3062H7.48125L7.45 17.4438L7.46875 17.5C7.4375 17.5625 7.4 17.6187 7.35625 17.675L7.2875 17.6938C7.3625 17.8125 7.425 17.9375 7.46875 18.0688C7.49375 18.15 7.50625 18.2313 7.51875 18.3125L7.53125 18.3813C7.5375 18.425 7.55 18.4688 7.5625 18.5125L7.6 18.6063L7.5875 18.6938C7.5875 18.6938 7.55625 18.6687 7.5375 18.6812C7.53125 18.6875 7.53125 18.6875 7.525 18.6938C7.51875 18.7063 7.51875 18.725 7.525 18.7437C7.53125 18.7687 7.54375 18.7875 7.55625 18.8062C7.6 18.8687 7.60625 18.7563 7.625 18.8062C7.6375 18.875 7.6375 18.9438 7.625 19.0125C7.61875 19.0625 7.625 19.1125 7.6375 19.1625C7.64375 19.2313 7.625 19.275 7.6375 19.3438C7.64375 19.3875 7.65 19.4312 7.65625 19.475V19.5562C7.64375 19.625 7.63125 19.6938 7.6125 19.7625L7.60625 19.8C7.60625 19.8687 7.59375 19.9312 7.575 19.9937L7.61875 20.0938C7.64375 20.175 7.65625 20.2563 7.66875 20.3375C7.675 20.4062 7.6875 20.4688 7.7125 20.5375L7.75 20.6313L7.7375 20.7188C7.7375 20.7188 7.69375 20.675 7.68125 20.7188C7.66875 20.7625 7.66875 20.7625 7.7125 20.825C7.75625 20.8875 7.7625 20.775 7.78125 20.825V20.8438C7.7875 20.9062 7.7875 20.9688 7.78125 21.0312C7.775 21.0812 7.78125 21.1312 7.79375 21.175C7.8 21.2437 7.7875 21.2875 7.79375 21.3563C7.8 21.4 7.80625 21.4437 7.8125 21.4875V21.5V21.5187C7.81875 21.5875 7.83125 21.65 7.85625 21.7188L7.89375 21.8125L7.88125 21.9C7.88125 21.9 7.8375 21.8562 7.825 21.9C7.8125 21.9438 7.8125 21.9438 7.85625 22.0063C7.9 22.0688 7.90625 21.9563 7.925 22.0063C7.9375 22.075 7.9375 22.1437 7.925 22.2125C7.91875 22.2625 7.925 22.3125 7.9375 22.3563C7.94375 22.425 7.925 22.4688 7.9375 22.5375C7.94375 22.5813 7.95 22.625 7.95625 22.6688V22.7062H7.91875ZM8.6375 12.3313H8.63125L8.6375 12.325V12.3313ZM29.75 21.9562H29.6625H29.5625C29.375 21.9562 29.4875 21.9562 29.4562 21.9625C29.4562 21.9625 29.4375 22.0312 29.4375 22.0187C29.4375 22.0062 29.4125 21.9875 29.3937 22C29.3875 22 29.3813 22.0063 29.3813 22.0125C29.375 22.025 29.3687 22.0437 29.3687 22.0562C29.375 22.0875 29.3812 22.1125 29.3937 22.1375C29.425 22.225 29.45 22.0875 29.4625 22.15C29.4625 22.25 29.4438 22.3438 29.4062 22.4375C29.3875 22.5063 29.375 22.5812 29.3687 22.65C29.35 22.7563 29.3187 22.825 29.3 22.925C29.2875 23 29.2812 23.05 29.2625 23.1313L29.225 23.2563C29.1812 23.3625 29.125 23.4812 29.0875 23.5562L29.0625 23.6063C29.0312 23.7063 28.9875 23.8 28.9375 23.8875L28.9312 24.05C28.9125 24.175 28.8875 24.2938 28.85 24.4188C28.8188 24.5125 28.7937 24.6062 28.775 24.7062L28.75 24.8375C28.7313 24.8687 28.7125 24.9 28.6875 24.9312C28.6875 24.9312 28.6688 24.8625 28.6375 24.9062C28.6063 24.9438 28.6063 24.9438 28.6 25.0438C28.5938 25.1438 28.675 25.0125 28.6625 25.0812L28.65 25.1063C28.6125 25.1813 28.5625 25.2563 28.5063 25.3188C28.4625 25.375 28.425 25.4375 28.3937 25.5C28.3438 25.5875 28.2875 25.6313 28.2375 25.7125C28.2062 25.7687 28.1688 25.825 28.1313 25.875L28.1187 25.8875L28.1 25.9125C27.9688 26.1063 27.9312 26.1688 27.9312 26.1688L27.8563 26.3062L27.75 26.4C27.75 26.4 27.7625 26.3188 27.7062 26.3563C27.65 26.4 27.65 26.4 27.6125 26.5C27.575 26.6 27.7 26.4812 27.6625 26.55C27.5938 26.6312 27.5187 26.7062 27.4312 26.7687C27.375 26.8187 27.3187 26.875 27.2687 26.9312C27.1937 27.0125 27.125 27.0437 27.0562 27.1125C27.0063 27.1625 26.9688 27.2063 26.9125 27.2563L26.8062 27.3312C26.6812 27.4187 26.525 27.4813 26.475 27.5125C26.4188 27.5438 26.2125 27.6875 26.1812 27.65C26.1437 27.6125 26.0125 27.6875 25.9312 27.7812L25.8937 27.725L25.6875 27.8438C25.625 27.8687 25.5688 27.8938 25.5063 27.9188H25.4813L25.45 27.8563C25.3938 27.8688 25.3438 27.8813 25.2875 27.8875L25.2313 27.9312C25.1562 27.925 25.075 27.9187 25 27.9C24.925 27.9375 24.975 27.95 24.9125 28.0187C24.8563 28.0875 24.8125 28.1688 24.7812 28.2563C24.6875 28.2563 24.5875 28.2687 24.4937 28.2812C24.425 28.2625 24.3625 28.2375 24.3 28.2062C24.3 28.2062 24.475 28.125 24.2125 28.1063C24.05 28.0938 23.8937 28.125 23.75 28.2C23.5562 28.2188 23.3625 28.2062 23.1688 28.1562C23.0125 28.1063 22.8375 28.1063 22.6812 28.1562L21.9438 28.2L21.7687 28.25V28.1812L21.7563 28.175L21.6562 28.1562H21.55V28.0875C21.5 28.1313 21.4312 28.1125 21.425 28.0688C21.4187 28.0188 21.3125 28.0188 21.2812 28.0125C21.25 28.0063 21.1812 27.9688 21.1187 27.9562H21.0625C21.0312 27.9562 21 27.9625 20.975 27.975C20.9312 27.9875 20.9 27.9688 20.8563 27.975C20.825 27.9875 20.7875 27.9875 20.7563 27.9875C20.7125 27.975 20.6625 27.975 20.6187 27.9875C20.5875 28.0062 20.6625 28.0125 20.6187 28.0562C20.575 28.1 20.575 28.1 20.5438 28.0875C20.5125 28.075 20.5438 28.0312 20.5438 28.0312L20.4813 28.0187L20.4188 28.0562C20.375 28.075 20.3313 28.0875 20.2875 28.1C20.2313 28.1125 20.175 28.1313 20.125 28.15L20.0375 28.2062C19.8938 28.1687 19.7437 28.1313 19.5812 28.1063V28.1812L19.2 28.1187L19.1562 28.1063C19.0438 28.1625 18.925 28.2 18.8 28.2125C18.8 28.2125 18.875 28.175 18.85 28.15L18.7687 28.175C18.725 28.2 18.7125 28.2 18.7125 28.175V28.1562L18.6562 28.175C18.6313 28.2 18.6062 28.2188 18.5812 28.2313L18.4937 28.25L18.3125 28.2938C18.2938 28.2812 18.275 28.275 18.2563 28.2687C18.2125 28.25 18.2062 28.3125 18.2062 28.3125L18.2875 28.3438C18.1938 28.3563 18.1 28.3625 18 28.3625L17.95 28.3C17.95 28.3 17.975 28.2563 17.95 28.2563C17.9188 28.25 17.8812 28.2625 17.8625 28.2875V28.3125L17.85 28.3563L17.6375 28.3375L17.6 28.2875L17.5438 28.2563L17.45 28.2375C17.4313 28.2188 17.4125 28.2 17.4 28.1812L17.3125 28.1688L17.2625 28.175L17.2437 28.1625L17.2062 28.15C17.175 28.1375 17.1625 28.1687 17.1625 28.1812V28.1938L17.2437 28.225C17.15 28.2375 17.1 28.3188 17 28.3188L16.9688 28.275L16.95 28.2563C16.95 28.2563 16.975 28.2125 16.95 28.2125C16.9188 28.2062 16.8812 28.2188 16.8625 28.2437V28.2625V28.2812L16.8563 28.3062C16.8125 28.3062 16.7688 28.3187 16.7313 28.3312C16.6875 28.2937 16.65 28.2563 16.6125 28.2125C16.6125 28.2125 16.8062 28.2062 16.5688 28.0875C16.4188 28.0187 16.2563 27.9812 16.0938 27.9875C15.8938 27.925 15.7 27.825 15.5312 27.7062C15.3813 27.5938 15.1938 27.525 15.0063 27.5063L14.2375 27.2938L14.0562 27.2875L14.0813 27.2188L14.0688 27.2062L13.9812 27.1562L13.8813 27.1187L13.9062 27.05C13.8438 27.075 13.8 27.0375 13.8062 26.9875C13.8125 26.9437 13.7312 26.9062 13.7063 26.8937C13.6875 26.875 13.6438 26.825 13.6 26.7938L13.5562 26.7687C13.5312 26.7625 13.5063 26.7563 13.4875 26.7563C13.45 26.75 13.4375 26.725 13.4 26.7188C13.3625 26.7125 13.35 26.7125 13.325 26.6938C13.3 26.675 13.2625 26.6437 13.2312 26.6437C13.2 26.65 13.25 26.6812 13.2 26.7062C13.15 26.7312 13.15 26.7312 13.1375 26.7062C13.125 26.6812 13.1625 26.6562 13.1625 26.6562L13.1313 26.625L13.075 26.6313C13.0375 26.6313 13 26.625 12.9688 26.6125C12.9187 26.5938 12.875 26.5938 12.8313 26.5812L12.7188 26.575C12.6125 26.4563 12.4937 26.3375 12.3687 26.2188L12.325 26.2812L12.0125 26.0063L11.9812 25.9688C11.8438 25.95 11.7125 25.9125 11.5875 25.85C11.5875 25.85 11.675 25.8625 11.6687 25.825L11.575 25.8C11.525 25.8 11.5063 25.7875 11.5188 25.7687L11.5312 25.75L11.4688 25.7313C11.4312 25.7375 11.3938 25.7375 11.3625 25.7313L11.2688 25.6938L11.0625 25.625C11.05 25.6063 11.0375 25.5875 11.0188 25.5688C10.9875 25.5312 10.95 25.575 10.95 25.575L11.0125 25.6437C10.9187 25.6 10.8188 25.5562 10.7188 25.5L10.6938 25.4312C10.6938 25.4312 10.7375 25.4062 10.7125 25.3937C10.6812 25.3687 10.6438 25.3625 10.6062 25.375L10.5938 25.3937L10.5625 25.4312L10.35 25.3062L10.3375 25.2437L10.2937 25.1875L10.2063 25.1187C10.1938 25.0938 10.1812 25.0688 10.1812 25.0438L10.1 24.9875L10.0437 24.975L10.0375 24.95L10.0063 24.9188C9.99375 24.9062 9.96875 24.9062 9.95 24.9188L9.94375 24.925L9.9375 24.9312L10.0063 24.9937C9.98125 24.9875 9.95625 24.9875 9.93125 24.9875C9.93125 24.9312 9.93125 24.8687 9.93125 24.8062L9.95625 24.6688L10 24.3875L10.0125 24.3438C9.93125 24.2375 10.0625 23.9438 10.0625 23.9438C10.0625 23.9438 10.15 24.1313 10.1562 23.8438C10.1562 23.6688 10.1188 23.5 10.05 23.3375C10.0312 23.1062 10.0437 22.8687 10.0938 22.6437C10.1438 22.45 10.1438 22.25 10.0938 22.0562L10.05 21.1688L10 20.9562H10.0688L10.075 20.9438L10.0938 20.825V20.6875H10.1562C10.1125 20.625 10.1313 20.5438 10.175 20.5375C10.225 20.5312 10.225 20.4 10.2312 20.3625C10.2375 20.325 10.275 20.2437 10.2875 20.1625V20.0938C10.2812 20.0562 10.2812 20.0187 10.2688 19.9875C10.2625 19.9375 10.2812 19.9 10.2688 19.8438C10.2563 19.8062 10.2563 19.7625 10.2563 19.725C10.2688 19.6688 10.2688 19.6125 10.2563 19.5562C10.2375 19.5187 10.2312 19.6062 10.1875 19.5562C10.1438 19.5063 10.1438 19.5063 10.1562 19.4688C10.1687 19.4312 10.2125 19.4688 10.2125 19.4688L10.225 19.3937L10.1875 19.3125C10.1687 19.2625 10.1562 19.2062 10.1438 19.15C10.1313 19.0812 10.1125 19.0188 10.0938 18.95L10.0375 18.8438C10.075 18.6688 10.1125 18.4875 10.1375 18.3H10.0625L10.1187 17.8438L10.1313 17.7938C10.075 17.6562 10.0375 17.5125 10.025 17.3625C10.025 17.3625 10.0625 17.4562 10.0875 17.425L10.0625 17.325C10.0375 17.275 10.0375 17.2563 10.0625 17.2563H10.0875L10.0688 17.1875C10.0438 17.1562 10.025 17.125 10.0125 17.0938L9.99375 16.9875L9.95 16.7625C9.9625 16.7375 9.975 16.7188 9.98125 16.6938C10 16.6438 9.9375 16.6375 9.9375 16.6375L9.90625 16.7313C9.89375 16.6188 9.8875 16.5063 9.8875 16.3875L9.95 16.3312C9.95 16.3312 9.99375 16.3625 9.99375 16.3312C10 16.2937 9.9875 16.25 9.9625 16.225H9.94375L9.9 16.2125L9.91875 15.9563L9.96875 15.9125L10 15.8438L10.0188 15.7312C10.0312 15.7063 10.05 15.6875 10.075 15.675L10.0875 15.5688L10.075 15.5063L10.0875 15.4812L10.1062 15.4375C10.1125 15.4187 10.1062 15.3938 10.0813 15.3813C10.075 15.3813 10.075 15.3813 10.0688 15.3813H10.0625L10.0312 15.475C10.0188 15.3688 9.9375 15.3 9.9375 15.1812L9.98125 15.1438L10 15.125C10 15.125 10.0437 15.1562 10.0437 15.125C10.05 15.0875 10.0375 15.0437 10.0125 15.0188H9.99375L9.975 15.0125L9.95 15.0063C9.95 14.9313 9.90625 14.8687 9.9125 14.7937V14.7563L9.825 14.6625L9.85625 14.5938L9.75 14.4812C9.7625 14.4563 9.78125 14.4375 9.80625 14.425L9.88125 14.35C9.91875 14.325 9.94375 14.2938 9.96875 14.2563C10.0312 14.225 10.05 14.15 10.0188 14.0875C9.96875 13.9562 10.1438 14.0875 10.1062 14.0188C10.1125 13.9375 10.1 13.8625 10.075 13.7875L10.1812 13.7312L10.2875 13.6375C10.4188 13.5312 10.5625 13.6687 10.5625 13.6687L10.6313 13.5813L10.7188 13.5375C10.7188 13.5375 10.7 13.6062 10.75 13.5875C10.8 13.5687 10.8 13.5687 10.8313 13.4937C10.8688 13.4187 10.7562 13.4812 10.7937 13.4375C10.85 13.3875 10.9125 13.3438 10.9812 13.3125C11.0312 13.2875 11.075 13.25 11.1125 13.2125C11.175 13.1625 11.2188 13.15 11.275 13.1062C11.3312 13.0625 11.3438 13.0437 11.3813 13.0125L11.4625 12.9688C11.5562 12.9187 11.675 12.8875 11.7188 12.8687C11.7563 12.85 11.9125 12.75 11.9438 12.7875C11.975 12.825 12.0813 12.775 12.125 12.6938L12.1625 12.75L12.3188 12.65L12.4688 12.575H12.4875L12.525 12.6313L12.6625 12.5875L12.7063 12.5375C12.7812 12.5312 12.8562 12.525 12.9312 12.525L12.9875 12.575C13.0563 12.4375 13.1375 12.3125 13.2312 12.1938C13.2937 12.125 13.3625 12.0625 13.4312 12L13.4875 11.95C13.525 11.9187 13.5625 11.8813 13.5938 11.8438L13.6687 11.7563L13.7625 11.7063C13.7625 11.7063 13.75 11.75 13.775 11.7563C13.7812 11.7625 13.7875 11.7625 13.7937 11.7563C13.8125 11.75 13.8313 11.7437 13.8438 11.7312C13.8625 11.7063 13.875 11.6812 13.8875 11.65C13.925 11.5687 13.8125 11.6375 13.85 11.5938C13.9062 11.5375 13.975 11.4875 14.05 11.45C14.1 11.4187 14.1438 11.3813 14.1875 11.3438C14.25 11.2875 14.3063 11.2687 14.3625 11.2125C14.4187 11.1562 14.4312 11.1375 14.4812 11.1062L14.5625 11.0437L14.7875 10.9125L14.8313 10.8875C14.8938 10.8313 14.9625 10.7875 15.0375 10.7437L15.1 10.625L15.2875 10.3687C15.3438 10.3 15.3938 10.2312 15.4375 10.1562L15.4937 10.0375L15.5813 9.94375C15.5813 9.94375 15.5813 10.0188 15.625 9.98125C15.6687 9.94375 15.675 9.94375 15.6938 9.85C15.7125 9.75625 15.6125 9.86875 15.6375 9.80625L15.65 9.7875C15.6937 9.71875 15.7438 9.65625 15.8 9.6C15.8438 9.55 15.8813 9.5 15.9062 9.4375C15.95 9.35625 16 9.31875 16.0312 9.25L16.1063 9.10625L16.1125 9.09375L16.125 9.06875C16.1625 8.99375 16.1938 8.91875 16.2125 8.8375L16.2375 8.71875L16.3 8.63125C16.3 8.63125 16.3125 8.7 16.35 8.65625C16.3875 8.6125 16.3875 8.6125 16.3813 8.525C16.3813 8.4375 16.3125 8.55 16.3188 8.49375C16.3438 8.41875 16.3813 8.34375 16.4312 8.28125C16.4625 8.23125 16.4813 8.18125 16.5 8.125C16.525 8.05 16.5688 8.0125 16.5938 7.9375C16.6125 7.8875 16.6187 7.85 16.6437 7.79375L16.6875 7.7125C16.7437 7.61875 16.8313 7.53125 16.8563 7.49375C16.8813 7.45625 16.9563 7.29375 17.0063 7.30625C17.05 7.31875 17.1125 7.225 17.1125 7.13125L17.175 7.1625L17.2563 6.99375L17.3438 6.85625L17.3625 6.84375L17.4312 6.875L17.525 6.76875L17.5312 6.70625C17.5875 6.6625 17.65 6.61875 17.7062 6.5875C17.725 6.5125 17.6812 6.5375 17.675 6.45625C17.6687 6.4 17.6437 6.35 17.6125 6.3C17.6625 6.1625 17.8 6.075 17.95 6.075L18.0125 5.9L18.1063 5.75625C18.1063 5.75625 18.1063 5.85625 18.1562 5.7875C18.2062 5.73125 18.2313 5.6625 18.2313 5.59375C18.25 5.475 18.1438 5.64375 18.1688 5.5625C18.2125 5.45 18.275 5.34375 18.3438 5.24375C18.3875 5.16875 18.4312 5.09375 18.4625 5.01875C18.5187 4.9125 18.5688 4.85625 18.6187 4.7625L18.725 4.575L18.8062 4.46875C18.8875 4.375 18.9813 4.2875 19.075 4.20625C19.1188 4.15625 19.2687 3.99375 19.3125 4.01875C19.35 4.05 19.4562 3.9625 19.4937 3.88125L19.5375 3.9375C19.5875 3.89375 19.6312 3.86875 19.675 3.8375C19.7125 3.825 19.7563 3.80625 19.7875 3.8H19.8L19.825 3.8625C19.85 3.8625 19.875 3.8625 19.9 3.875L19.9188 3.84375C19.9375 3.8625 19.9562 3.88125 19.9625 3.9125L19.975 3.95625L19.9875 4.025C20.125 3.94375 20.275 3.89375 20.4312 3.88125C20.45 3.86875 20.475 3.85625 20.5063 3.85625H20.5312L20.5875 3.84375L20.6437 3.83125C20.65 3.84375 20.6562 3.85 20.6562 3.8625C20.6375 3.86875 20.625 3.88125 20.6125 3.89375L20.6063 3.90625V3.91875H20.6437H20.6562C20.675 3.91875 20.6937 3.90625 20.7062 3.8875C20.7062 3.8875 20.7125 3.88125 20.7188 3.88125C20.7437 3.8875 20.7375 3.9375 20.7375 3.96875C20.7312 3.99375 20.7375 4 20.75 4.03125C20.7625 4.04375 20.7437 4.1125 20.75 4.24375L20.7687 4.48125V4.63125C20.7562 4.76875 20.7375 4.91875 20.725 5.0125L20.7188 5.08125C20.7188 5.2 20.7062 5.31875 20.6875 5.4375L20.7313 5.61875C20.7438 5.7125 20.7688 5.875 20.7875 6.0625C20.7938 6.1875 20.8062 6.30625 20.8312 6.43125L20.8687 6.60625L20.8563 6.76875C20.8563 6.76875 20.8125 6.6875 20.8 6.76875C20.7875 6.85 20.7875 6.85 20.8312 6.96875C20.875 7.0875 20.8813 6.88125 20.9 6.96875V7.00625C20.9062 7.11875 20.9062 7.2375 20.9 7.35C20.9 7.44375 20.9 7.53125 20.9125 7.625V7.9375L20.9312 8.175V8.19375V8.23125C20.9375 8.35625 20.95 8.475 20.975 8.6L21.0125 8.775L21 8.9375C21 8.9375 20.95 8.85625 20.9438 8.9375C20.9375 9.01875 20.9312 9.01875 20.975 9.1375C21.0188 9.25625 21.025 9.05 21.0438 9.1375C21.0563 9.2625 21.0563 9.3875 21.0438 9.51875C21.0375 9.60625 21.0437 9.7 21.0562 9.7875V10.1187L21.075 10.3562V10.5063L21.025 10.9563C21.025 11.0375 21.025 11.3375 20.975 11.3438C20.925 11.3562 20.9125 11.5437 20.9562 11.6875H20.8937V11.9937C20.8812 12.125 20.8812 12.2563 20.8937 12.3938V12.45L20.8188 12.4625C20.825 12.5875 20.8313 12.7063 20.85 12.8313L20.9125 12.9812C20.9312 13.1562 20.9562 13.325 20.9937 13.4937C21.0938 13.6687 21.0687 13.5625 21.2062 13.7125C21.3187 13.8312 21.4625 13.9187 21.625 13.9563C21.6562 14.0063 21.6938 14.05 21.7313 14.0875C21.8563 14.2312 22 14.3562 22.1625 14.4625C22.625 14.7125 22.1625 14.4938 22.7188 14.675C23.275 14.7937 23.1313 14.6562 23.5625 14.75C23.75 14.7875 23.9375 14.7875 24.1187 14.75C24.1812 14.7125 24.25 14.6875 24.325 14.6625C24.3938 14.6438 24.4563 14.6188 24.5125 14.5813C24.5875 14.575 24.6375 14.5062 24.625 14.4312C24.625 14.4312 24.625 14.4313 24.625 14.425C24.6063 14.2875 24.8 14.4625 24.7687 14.3813C24.8875 14.2 24.8875 13.9625 24.7687 13.775C24.7125 13.6187 24.5812 13.6687 24.675 13.5C24.725 13.4125 24.7437 13.5688 24.8625 13.25C24.9 13.1562 24.9375 13.1812 24.7812 13.075C24.6812 13.05 24.5813 13.0188 24.4813 12.975C24.4375 12.9062 24.2812 12.9937 24.3062 12.9062L23.8875 12.8687C23.7938 12.8562 23.7 12.8375 23.6063 12.8125C23.5625 12.7875 23.5188 12.7625 23.475 12.725C23.4188 12.6938 23.3687 12.6562 23.3312 12.6L23.3188 12.5813C23.2125 12.6188 23.2375 12.3562 23.2437 12.3562C23.25 12.3562 23.3687 12.4438 23.3125 12.25L23.275 12.1C23.2687 12.0813 23.2625 12.0938 23.2625 12.0625L23.2875 12.0437C23.3375 11.9937 23.3937 11.9438 23.4562 11.8938L23.4875 11.875C23.475 11.75 23.7313 11.7062 23.7313 11.7125C23.7313 11.7188 23.6875 11.85 23.8438 11.75C23.9375 11.6812 24.0125 11.6 24.0688 11.5C24.1938 11.4187 24.35 11.3875 24.5 11.4125C24.6437 11.4375 24.7875 11.425 24.9188 11.375C25.2438 11.3625 25.5438 11.35 25.8125 11.3562L26.0125 11.325L26.0063 11.3938L26.0187 11.4062L26.125 11.4375L26.2437 11.4563L26.2313 11.525C26.2938 11.4937 26.3625 11.525 26.3625 11.5688C26.3562 11.6125 26.4688 11.6375 26.5063 11.6562C26.5438 11.675 26.6062 11.7188 26.6812 11.75L26.7437 11.7688C26.7812 11.775 26.8125 11.7812 26.85 11.7812C26.9062 11.7812 26.9375 11.8125 27 11.8188C27.0375 11.8188 27.075 11.825 27.1063 11.8375C27.1438 11.8562 27.1938 11.8813 27.225 11.875C27.2563 11.8625 27.2 11.8375 27.2437 11.8062C27.2937 11.775 27.2938 11.775 27.3125 11.7937C27.3312 11.8125 27.2938 11.85 27.2938 11.85L27.3312 11.875L27.3813 11.8562C27.4062 11.85 27.4375 11.85 27.4688 11.8562C27.5 11.8562 27.525 11.8563 27.5562 11.85C27.5812 11.8375 27.6125 11.8375 27.6375 11.8375L27.9688 12.2437L28.0187 12.1875C28.1187 12.3 28.2188 12.4187 28.3 12.5312L28.325 12.5688C28.3875 12.5813 28.45 12.6062 28.5063 12.6438C28.525 12.6562 28.5438 12.6625 28.5625 12.6625L28.575 12.6812C28.575 12.6812 28.5562 12.6625 28.55 12.6687C28.5312 12.675 28.5188 12.6813 28.5063 12.6938H28.5187C28.5312 12.6938 28.5563 12.7312 28.575 12.7437C28.625 12.7812 28.6437 12.7937 28.6187 12.8125L28.6 12.825L28.6562 12.875C28.6938 12.8875 28.7313 12.9062 28.7625 12.925L28.8375 13.0063L28.9875 13.1562C28.9875 13.1812 28.9937 13.2 28.9937 13.225C29 13.2688 29.05 13.2437 29.05 13.2437L29.0375 13.1562C29.0938 13.2312 29.1438 13.3125 29.1938 13.3938L29.1562 13.4625C29.1562 13.4625 29.1062 13.4625 29.1187 13.4812C29.125 13.5125 29.15 13.5375 29.1812 13.5437L29.2 13.5375L29.2437 13.5312C29.2687 13.5938 29.2875 13.6562 29.3 13.725L29.2625 13.7688L29.25 13.8313V13.925C29.2375 13.95 29.225 13.9688 29.2062 13.9812L29.2125 14.0625L29.2375 14.1125L29.2313 14.1375L29.225 14.175C29.225 14.2063 29.25 14.2125 29.2687 14.2125H29.2812L29.2938 14.125C29.325 14.2125 29.4125 14.2625 29.4312 14.3687L29.3937 14.4062L29.375 14.425C29.375 14.425 29.3312 14.4 29.3312 14.4312C29.3312 14.4688 29.3438 14.5062 29.375 14.525H29.3937H29.4125L29.4375 14.5312C29.4375 14.6 29.5 14.6562 29.4937 14.725V14.7625L29.5688 14.8375C29.5688 14.8625 29.5688 14.8938 29.5625 14.9187V14.925C29.5312 15.2375 29.5125 15.6187 29.5063 15.9688L29.5375 16.1812C29.5688 16.3187 29.5 16.4625 29.375 16.525L29.4188 16.6875L29.4125 16.8438C29.4125 16.8438 29.3625 16.7688 29.3563 16.8438C29.35 16.9187 29.35 16.9187 29.4 17.0312C29.45 17.1437 29.45 16.95 29.4688 17.0312C29.4875 17.15 29.4937 17.2625 29.4875 17.3813C29.4875 17.4688 29.4938 17.55 29.5125 17.6313C29.525 17.75 29.5125 17.825 29.5312 17.9375L29.5562 18.15V18.2875C29.5562 18.45 29.525 18.6313 29.525 18.7C29.525 18.7688 29.5375 19.0437 29.4875 19.0562C29.4437 19.0688 29.4313 19.2437 29.4813 19.3687H29.4125L29.425 19.65L29.4125 19.9L29.4062 19.9312H29.3125L29.2812 20.1437L29.3062 20.2375C29.275 20.3375 29.2375 20.4375 29.2 20.5375L29.1313 20.575C29.2125 20.775 29.2812 20.9875 29.3312 21.1938C29.35 21.2812 29.375 21.4312 29.3875 21.6L29.4 21.7062L29.4312 21.925L29.45 22.0063V22.025H29.75V21.9562Z" fill="#0041E6"/>
</svg>
