<svg width="32" height="32" viewBox="0 0 32 32" fill="none" xmlns="http://www.w3.org/2000/svg">
<path d="M31.9938 20.15C31.9875 19.975 31.9563 19.8 31.9125 19.6313C31.8813 19.5688 31.85 19.5063 31.8125 19.45L31.875 19.4313V19.4125L31.85 19.2938L31.8 19.1688L31.8625 19.1438C31.8 19.1 31.7813 19.025 31.8188 19C31.8563 18.975 31.7938 18.8563 31.7813 18.825C31.7688 18.7563 31.7438 18.6875 31.7188 18.625L31.6875 18.5688C31.6625 18.5375 31.6375 18.5125 31.6125 18.4875C31.5688 18.45 31.5625 18.4125 31.5125 18.3688C31.4813 18.3438 31.45 18.3125 31.425 18.2813C31.3938 18.2438 31.3375 18.1688 31.3 18.1563C31.2625 18.1438 31.3188 18.2063 31.2563 18.2063C31.1938 18.2 31.1938 18.2063 31.175 18.1688C31.1563 18.1313 31.2125 18.1313 31.2125 18.1313L31.1688 18.075L31.0938 18.05C31.0438 18.0313 30.9938 18.0125 30.95 17.9875C30.8938 17.9625 30.8375 17.9375 30.775 17.925C30.7375 17.925 30.7 17.925 30.6625 17.925C30.5438 17.8063 30.4063 17.7063 30.2563 17.625L30.2313 17.6875C30.1125 17.6188 29.9875 17.5625 29.8563 17.5125L29.8125 17.4938C29.6875 17.525 29.5563 17.5375 29.425 17.5375C29.425 17.5375 29.5063 17.5125 29.4875 17.4813L29.4 17.4938C29.3563 17.5125 29.3375 17.5125 29.3438 17.4938V17.4688L29.2813 17.4813C29.2563 17.5 29.2313 17.5188 29.2 17.5313L29.1125 17.5438L28.9375 17.5875C28.9188 17.575 28.9 17.5688 28.8813 17.5625C28.8438 17.55 28.8438 17.6063 28.8438 17.6063L28.9188 17.6313L28.6625 17.675L28.6125 17.625C28.6125 17.625 28.6313 17.5813 28.6063 17.5813C28.575 17.5813 28.55 17.6 28.5313 17.625V17.6438V17.6875L28.35 17.7063L28.3125 17.6688L28.2563 17.65H28.175C28.1563 17.6375 28.1375 17.625 28.125 17.6063L28.05 17.6125L28.0125 17.6375L27.9938 17.6313L27.9625 17.625C27.9375 17.625 27.9313 17.65 27.9375 17.6625V17.6688L28.0063 17.675C27.9375 17.7063 27.9188 17.7938 27.85 17.8188L27.8125 17.7875L27.7938 17.775C27.7938 17.775 27.8 17.7313 27.7813 17.7375C27.7563 17.7438 27.7313 17.7625 27.725 17.7875L27.7313 17.8063V17.825V17.85C27.6875 17.8625 27.6625 17.9188 27.6188 17.9313L27.5938 17.9375L27.5688 18.0375L27.5188 18.025L27.4938 18.1438C27.475 18.1375 27.4563 18.125 27.4438 18.1063C27.4125 18.1063 27.4188 18.1813 27.4063 18.1938C27.3063 18.2125 27.1938 18.2375 27.0875 18.2625L26.9313 18.275L26.6563 18.3375L26.6063 18.3438C26.5313 18.4563 26.2125 18.4438 26.2125 18.4438C26.2125 18.4438 26.3625 18.2938 26.0875 18.3938C25.9188 18.4563 25.7688 18.55 25.6438 18.675C25.4563 18.775 25.25 18.8438 25.0375 18.8875C24.8563 18.9125 24.6875 18.9875 24.5375 19.1L23.8125 19.4438L23.6563 19.5625L23.6313 19.5H23.6125L23.5063 19.525L23.3938 19.5688L23.3688 19.5063C23.3313 19.5625 23.2563 19.575 23.2375 19.5375C23.2188 19.5 23.1125 19.5375 23.0813 19.5438C23.05 19.55 22.9688 19.5438 22.9 19.5563L22.8438 19.575C22.8188 19.5875 22.7875 19.6063 22.7625 19.6188C22.725 19.6438 22.6875 19.6375 22.6438 19.6625C22.6125 19.6813 22.5813 19.7 22.55 19.7063C22.5 19.7125 22.4563 19.725 22.4188 19.75C22.3938 19.775 22.4688 19.7563 22.4375 19.8125C22.4063 19.8688 22.4063 19.8688 22.375 19.8688C22.3438 19.8688 22.3563 19.8188 22.3563 19.8188L22.2938 19.825L22.2438 19.875C22.2063 19.9063 22.1688 19.9313 22.125 19.9563C22.075 19.9813 22.025 20.0125 21.9813 20.05L21.9063 20.1313L21.4438 20.1625L21.4625 20.2313L21.0875 20.2625H21.0438C20.95 20.3375 20.8375 20.4 20.7188 20.4313C20.7188 20.4313 20.7875 20.3875 20.7563 20.3625L20.6813 20.4C20.6438 20.425 20.6313 20.4313 20.625 20.4063V20.3813L20.5688 20.4063C20.55 20.4313 20.525 20.4563 20.5 20.4688L20.4125 20.4938L20.2375 20.5563C20.2188 20.5438 20.2 20.5375 20.175 20.5375C20.1313 20.525 20.1313 20.5813 20.1313 20.5813L20.2125 20.6C20.1188 20.6188 20.025 20.6375 19.9313 20.6438L19.8813 20.5688C19.8813 20.5688 19.9063 20.5313 19.8813 20.525C19.85 20.525 19.8188 20.5375 19.7938 20.5625V20.5813L19.7875 20.625L19.5813 20.6188L19.5438 20.575L19.4875 20.5438L19.3938 20.525C19.375 20.5125 19.3563 20.4938 19.35 20.4688L19.275 20.4625L19.225 20.475L19.2063 20.4625L19.175 20.4438C19.1438 20.4313 19.1375 20.4563 19.1313 20.475V20.4813L19.2063 20.5125C19.1188 20.5188 19.0688 20.5938 18.975 20.5938L18.95 20.5563L18.9375 20.5375C18.9375 20.5375 18.9625 20.5 18.9375 20.4938C18.9063 20.4875 18.875 20.4938 18.85 20.5188V20.5375L18.8438 20.5563L18.8375 20.5813C18.7813 20.575 18.725 20.6125 18.6688 20.6L18.6375 20.5938L18.55 20.6688L18.5 20.6313L18.4 20.7188C18.3813 20.7 18.3688 20.6813 18.3625 20.6563C18.325 20.6438 18.275 20.7188 18.25 20.7125L18.1938 20.6938L18.1875 20.7L18.15 20.6688L17.9938 20.6L17.9688 20.5875C17.8938 20.6563 17.7438 20.4875 17.7438 20.4875C17.7438 20.4875 17.8688 20.4313 17.7 20.3875C17.5938 20.3625 17.4813 20.375 17.3813 20.4188C17.25 20.4125 17.1188 20.3688 17.0125 20.2938C16.9188 20.225 16.8 20.2 16.6875 20.2188L16.1813 20.125L16.0375 20.1375L16.0563 20.075L16.05 20.0688L15.9875 20.0313L15.9125 20.0063L15.9313 19.9438C15.8875 19.9688 15.8438 19.9438 15.85 19.9C15.8563 19.8563 15.7875 19.8375 15.7625 19.825C15.7313 19.7938 15.6938 19.7688 15.6625 19.7438L15.625 19.7313C15.6063 19.7313 15.5813 19.7313 15.5625 19.7313C15.5313 19.7313 15.5125 19.7063 15.475 19.7063C15.4625 19.7063 15.4563 19.7063 15.45 19.7063V19.7C15.4625 19.6438 15.4 19.6688 15.4188 19.6438L15.425 19.6375C15.4563 19.6125 15.4875 19.6 15.525 19.5875C15.55 19.575 15.575 19.5625 15.5938 19.5375C15.625 19.5125 15.6563 19.5125 15.6875 19.4875C15.7063 19.4688 15.725 19.45 15.75 19.4375H15.7563L15.7625 19.4313C15.7938 19.4063 15.825 19.375 15.8438 19.3438L15.875 19.2875L15.925 19.275C15.925 19.275 15.925 19.325 15.95 19.325C15.975 19.325 15.9813 19.325 15.9938 19.2688C16.0063 19.2125 15.9438 19.2375 15.9625 19.2125C15.975 19.1813 16.0375 19.1625 16.0625 19.1563C16.075 19.15 16.0875 19.1438 16.1 19.1313H16.1188C16.175 19.1688 16.1875 19.0625 16.225 19.1375C16.3563 19.0813 16.4813 19.025 16.6063 18.9563L16.6375 18.9438C16.6563 18.95 16.675 18.9438 16.6875 18.925L16.725 18.9125L16.75 18.95L16.8375 18.9L16.925 18.8688H16.9375L16.9688 18.9313L17.05 18.925L17.0688 18.8938C17.1125 18.9063 17.1625 18.9188 17.2063 18.9313C17.2313 18.9 17.2063 18.8875 17.2125 18.8313C17.2188 18.7625 17.2063 18.6938 17.1875 18.6313C17.2375 18.625 17.2813 18.6063 17.325 18.5813C17.4 18.5375 17.35 18.5625 17.3875 18.5063L17.45 18.4688C17.45 18.4688 17.3313 18.6875 17.6 18.4563C17.7625 18.3063 17.8875 18.125 17.9625 17.9188L18.4313 17.2313C18.5688 17.05 18.6563 16.8313 18.675 16.6C18.6813 16.575 18.6875 16.5375 18.6938 16.5125C18.7438 16.5563 18.775 16.6188 18.7813 16.6813L18.875 16.6625L18.9563 16.6875C18.9563 16.6875 18.9063 16.725 18.95 16.7438C18.9875 16.7625 18.9875 16.7625 19.0563 16.725C19.1188 16.6938 19.0188 16.675 19.0625 16.6625C19.125 16.6625 19.1938 16.6688 19.2563 16.6875C19.3 16.7 19.35 16.7 19.3938 16.6938C19.4563 16.6938 19.5 16.7125 19.5625 16.7063H19.6875L19.7625 16.7188C19.85 16.7375 19.95 16.7813 19.9875 16.7875C20.025 16.7938 20.1813 16.8063 20.1813 16.85C20.1875 16.8938 20.2813 16.9125 20.3563 16.875V16.9375H20.5125L20.65 16.9625L20.6688 16.9688V17.0375L20.7938 17.075L20.85 17.0563C20.9063 17.0875 20.9625 17.1188 21.0188 17.1563L21.0438 17.225C21.1563 17.15 21.275 17.0938 21.4 17.0438C21.45 17.025 21.5313 17.0063 21.6313 16.9875L21.6938 16.975C21.7375 16.9625 21.775 16.9563 21.8188 16.9375L21.9063 16.9L21.9938 16.9063C21.9938 16.9063 21.9688 16.9375 21.9813 16.95C21.9875 16.9563 21.9875 16.9563 21.9938 16.9563C22.0063 16.9625 22.025 16.9625 22.0375 16.9563C22.0563 16.9438 22.075 16.9313 22.0938 16.9188C22.15 16.875 22.0438 16.875 22.0875 16.8563C22.15 16.8375 22.2188 16.8375 22.2813 16.8375C22.325 16.8375 22.375 16.825 22.4188 16.8125C22.4813 16.7938 22.525 16.8125 22.5875 16.7875C22.625 16.775 22.6688 16.7688 22.7063 16.7625L22.7813 16.7563C22.85 16.7563 22.9188 16.7625 22.9813 16.775H23.0188C23.0813 16.7688 23.1438 16.7688 23.2063 16.775L23.2938 16.7188C23.3625 16.6813 23.4375 16.6563 23.5125 16.6313C23.575 16.6125 23.6313 16.5875 23.6875 16.5563L23.7688 16.5063L23.8563 16.5C23.8563 16.5 23.825 16.55 23.8688 16.55C23.9125 16.55 23.9125 16.55 23.9625 16.4938C24.0125 16.4375 23.9063 16.4563 23.95 16.4313L23.9688 16.425C24.025 16.4063 24.0813 16.3938 24.1375 16.3875C24.1813 16.3813 24.225 16.3688 24.2688 16.3438C24.3313 16.3188 24.375 16.325 24.4313 16.3C24.4688 16.2813 24.5063 16.2625 24.5438 16.25H24.5563L24.575 16.2438C24.6313 16.2188 24.6875 16.1875 24.7438 16.1563L24.8188 16.1L24.9 16.0875C24.9 16.0875 24.875 16.1438 24.9188 16.1375C24.9625 16.1375 24.9625 16.1375 25.0063 16.0813C25.05 16.025 24.95 16.05 24.9875 16.0188C25.0438 15.9875 25.1063 15.9625 25.1688 15.9563C25.2125 15.9438 25.2563 15.925 25.2938 15.9C25.35 15.8688 25.3938 15.875 25.45 15.8438C25.5063 15.8125 25.5125 15.8063 25.5563 15.7875L25.6313 15.7688C25.7188 15.7438 25.8188 15.7375 25.8563 15.7313C25.8938 15.7188 26.0375 15.6625 26.0563 15.7C26.075 15.7375 26.175 15.7125 26.225 15.65L26.25 15.7125L26.3938 15.65L26.4688 15.625C26.5 15.6313 26.5375 15.6375 26.5688 15.6375L26.5813 15.6688L26.7063 15.65L26.7313 15.625L26.7938 15.6125C26.8438 15.6125 26.8938 15.6188 26.9438 15.6313C26.9688 15.6125 26.9813 15.5875 26.975 15.5563C27.025 15.525 27.0375 15.5 27.1438 15.5375C27.225 15.5625 27.075 15.575 27.375 15.6375C27.4625 15.6563 27.4375 15.675 27.5438 15.5938C27.5688 15.5375 27.6 15.4813 27.6375 15.4313C27.7 15.4063 27.6188 15.3188 27.7063 15.3313L27.7875 14.8625L27.8375 14.7L27.8688 14.4563C27.875 14.4438 27.8813 14.425 27.875 14.4063V14.3875L27.8875 14.3375C27.875 14.3125 27.875 14.2875 27.875 14.2625C27.8813 14.2625 27.8875 14.2625 27.875 14.2438V14.2375C27.8813 14.1188 27.9125 14.0063 27.9563 13.8938C27.9563 13.8938 28.0313 14.1063 28.05 13.7813C28.0625 13.5875 28.0313 13.3938 27.9688 13.2125C27.95 12.975 27.9688 12.7375 28.0188 12.5063C28.0625 12.3125 28.0625 12.1063 28.0188 11.9125L27.9813 11.0125L27.9313 10.7938H27.9938L28 10.7813L28.0188 10.6563V10.5H28.0813C28.0438 10.4375 28.0563 10.35 28.1063 10.3438C28.15 10.3375 28.15 10.2063 28.1563 10.1688C28.1625 10.1313 28.1938 10.05 28.2063 9.96875V9.9C28.2063 9.8625 28.2 9.83125 28.1938 9.79375C28.1875 9.7375 28.2 9.70625 28.1938 9.64375C28.1813 9.60625 28.1813 9.5625 28.1875 9.525C28.2 9.46875 28.2 9.4125 28.1875 9.35625C28.1688 9.31875 28.1625 9.40625 28.125 9.35625C28.0813 9.30625 28.0875 9.3 28.0938 9.2625C28.1063 9.225 28.15 9.2625 28.15 9.2625L28.1688 9.2L28.1375 9.11875C28.1188 9.0625 28.1063 9.0125 28.1 8.95625C28.0875 8.8875 28.075 8.81875 28.05 8.75625L27.9938 8.64375C28.0313 8.46875 28.0625 8.2875 28.0938 8.09375H28.025L28.0813 7.6375L28.0938 7.5875C28.0375 7.45 28.0063 7.3 27.9938 7.15C27.9938 7.15 28.025 7.24375 28.0563 7.2125L28.0313 7.1125C28.0125 7.0625 28.0063 7.04375 28.0313 7.04375H28.0563L28.0375 6.975C28.0125 6.94375 28 6.9125 27.9875 6.875L27.9688 6.7625L27.9313 6.5375C27.9438 6.5125 27.95 6.49375 27.9563 6.46875C27.9625 6.44375 27.95 6.41875 27.925 6.4125C27.9188 6.4125 27.9188 6.4125 27.9125 6.4125L27.8813 6.5125C27.875 6.4 27.8688 6.28125 27.8688 6.1625L27.9313 6.10625C27.9313 6.10625 27.9688 6.1375 27.975 6.10625C27.9813 6.06875 27.9688 6.025 27.9438 5.99375H27.925L27.8875 5.96875L27.9063 5.70625L27.95 5.66875L27.9813 5.6L28 5.48125C28.0125 5.45625 28.0313 5.4375 28.0563 5.425L28.0688 5.325L28.0563 5.2625L28.0688 5.2375L28.0813 5.19375C28.0875 5.175 28.0813 5.15 28.0563 5.1375H28.05H28.0438L28.0125 5.2375C28.0063 5.125 27.925 5.05625 27.925 4.9375L27.9625 4.9L27.9813 4.88125C27.9813 4.88125 28.0188 4.9125 28.025 4.88125C28.0313 4.84375 28.0188 4.8 27.9938 4.76875H27.975L27.9563 4.75625L27.9313 4.75C27.9313 4.675 27.8938 4.60625 27.9 4.5375V4.5L27.8188 4.4L27.85 4.33125L27.75 4.2125C27.7625 4.1875 27.7813 4.16875 27.8063 4.15625C27.8125 4.10625 27.7313 4.05625 27.7313 4.025V3.9875C27.7813 3.975 27.8313 3.975 27.8 3.95C27.8 3.65625 27.65 3.58125 27.4875 3.475C27.3625 3.38125 27.275 3.4875 27.2688 3.30625C27.2688 3.20625 27.3625 3.325 27.3 3.01875C27.2813 2.925 27.325 2.93125 27.1438 2.91875C27.05 2.95 26.9563 2.96875 26.8563 2.9875C26.7875 2.95625 26.7063 3.10625 26.6875 3.01875L25.9563 3.33125L25.6875 3.4C25.525 3.4625 25.3625 3.51875 25.1938 3.5625L25.1125 3.5875C24.8938 3.70625 24.6438 3.775 24.3938 3.7875C24.3938 3.7875 24.7125 3.6 24.1938 3.75625C23.8875 3.8375 23.5875 3.94375 23.3 4.08125C22.9188 4.1875 22.5313 4.2375 22.1375 4.23125C21.8063 4.225 21.475 4.25 21.15 4.30625C20.65 4.33125 20.15 4.325 19.6563 4.2875C19.5313 4.2875 19.4125 4.3 19.2938 4.29375L19.3 4.23125L19.275 4.21875L19.075 4.16875L18.85 4.13125L18.8625 4.06875C18.75 4.0875 18.6188 4.0375 18.6188 4C18.6188 3.95625 18.4063 3.90625 18.35 3.8875C18.2938 3.86875 18.1688 3.80625 18.05 3.75625L17.9438 3.725C17.8813 3.70625 17.8375 3.70625 17.775 3.69375C17.6875 3.68125 17.6375 3.64375 17.5438 3.625C17.475 3.6125 17.4125 3.59375 17.35 3.56875C17.2625 3.525 17.175 3.49375 17.0813 3.46875C17.0125 3.4625 17.1563 3.51875 17.0563 3.53125C16.9563 3.5375 16.9563 3.5375 16.9 3.50625C16.8438 3.475 16.9188 3.45625 16.9188 3.45625L16.8 3.4L16.6563 3.38125C16.5563 3.3625 16.4625 3.34375 16.3688 3.3125C16.225 3.26875 16.0875 3.24375 16.0125 3.225L15.8 3.2C15.5125 3.05 15.1938 2.89375 14.8438 2.7375L14.8188 2.8C14.5438 2.68125 14.2563 2.56875 13.9563 2.4625L13.8563 2.425C13.5938 2.425 12.9563 2.325 12.9563 2.325C12.9563 2.325 13.15 2.325 13.1 2.29375H13.1125L12.9 2.275C12.7938 2.275 12.75 2.275 12.7563 2.25V2.225H12.6063C12.5375 2.2375 12.475 2.24375 12.4063 2.25L12.1813 2.2375L11.7188 2.23125C11.675 2.21875 11.625 2.20625 11.575 2.19375C11.475 2.16875 11.4563 2.225 11.4563 2.225L11.65 2.26875L10.9438 2.25625L10.8313 2.1875C10.8313 2.1875 10.8938 2.15 10.8313 2.14375C10.7563 2.13125 10.675 2.14375 10.6063 2.175V2.19375L10.575 2.2375L10.05 2.24375L9.96251 2.20625L9.81251 2.1875H9.57501C9.53126 2.18125 9.48751 2.16875 9.45001 2.15L9.23126 2.1625L9.10626 2.19375H9.05001H8.95001C8.86876 2.19375 8.85001 2.225 8.84376 2.24375V2.25625H9.04376C8.81251 2.3 8.69376 2.4 8.46251 2.45L8.37501 2.425L8.33126 2.4125C8.33126 2.4125 8.38751 2.3625 8.32501 2.375C8.25001 2.38125 8.17501 2.40625 8.11251 2.45625V2.475L8.10626 2.49375V2.525C7.95626 2.5625 7.83751 2.6375 7.69376 2.66875L7.61876 2.6875L7.45001 2.825L7.29376 2.8375L7.10626 3.00625C7.06251 3.0125 7.01876 3.00625 6.98126 2.99375C6.88126 3.01875 6.82501 3.13125 6.76876 3.15L6.63126 3.19375C6.60001 3.30625 6.50626 3.175 6.53126 3.2625C6.53126 3.2625 6.41876 3.2625 6.24376 3.49375C6.06876 3.725 6.09376 3.73125 6.09376 3.73125C6.08751 3.74375 6.08126 3.75625 6.07501 3.76875C6.06251 3.76875 6.05001 3.76875 6.03126 3.76875C5.99376 3.76875 5.76251 3.6375 5.72501 3.74375C5.70001 3.8125 5.69376 3.8875 5.70001 3.9625C5.70001 3.9625 5.53126 3.9 5.48126 4.0375L5.43751 4.18125C5.38751 4.3875 5.35001 4.59375 5.32501 4.8L5.34376 4.91875C5.36251 5.0625 5.16876 5.09375 5.16876 5.09375L5.20001 5.18125L5.18126 5.26875C5.18126 5.26875 5.13751 5.225 5.12501 5.26875C5.11251 5.3125 5.11251 5.3125 5.15001 5.36875C5.18751 5.43125 5.20001 5.325 5.21251 5.36875C5.21876 5.43125 5.21876 5.49375 5.20626 5.55625C5.20001 5.6 5.20001 5.65 5.20626 5.69375C5.21251 5.75625 5.19376 5.8 5.20626 5.8625C5.21251 5.9 5.21876 5.94375 5.21876 5.98125L5.21251 6.05625C5.20001 6.14375 5.16251 6.24375 5.15626 6.28125C5.15001 6.31875 5.14376 6.46875 5.10001 6.475C5.05626 6.48125 5.03751 6.575 5.07501 6.64375H5.01251V6.8L4.99376 6.9375L4.98751 6.95625H4.92501L4.87501 7.075L4.89376 7.125C4.86251 7.18125 4.82501 7.2375 4.78126 7.2875L4.71876 7.3125C4.78751 7.425 4.84376 7.5375 4.88751 7.6625C4.90626 7.7375 4.91876 7.8125 4.93126 7.8875L4.93751 7.95C4.94376 7.99375 4.95001 8.03125 4.96251 8.075L4.99376 8.1625L4.98126 8.24375C4.98126 8.24375 4.95626 8.21875 4.93751 8.23125C4.93126 8.23125 4.93126 8.2375 4.92501 8.24375C4.91876 8.25625 4.91876 8.275 4.92501 8.2875C4.93126 8.30625 4.94376 8.325 4.95626 8.34375C5.00001 8.40625 5.00626 8.3 5.01876 8.34375C5.03126 8.40625 5.03126 8.46875 5.01876 8.5375C5.01251 8.58125 5.01876 8.63125 5.02501 8.675C5.03126 8.7375 5.01876 8.78125 5.02501 8.84375C5.03126 8.88125 5.03751 8.925 5.03751 8.9625V9.0375C5.02501 9.1 5.01251 9.1625 4.99376 9.225L4.98751 9.25625C4.98751 9.31875 4.97501 9.375 4.95626 9.4375L4.99376 9.53125C5.01251 9.60625 5.03126 9.68125 5.04376 9.75625C5.04376 9.81875 5.05626 9.875 5.06876 9.9375L5.10001 10.025L5.08751 10.1063C5.08751 10.1063 5.04376 10.0625 5.03126 10.1063C5.01876 10.15 5.01876 10.15 5.06251 10.2063C5.10626 10.2688 5.11251 10.1625 5.12501 10.2063V10.225C5.13126 10.2813 5.13126 10.3375 5.12501 10.4C5.11876 10.4438 5.12501 10.4938 5.13751 10.5375C5.14376 10.6 5.13126 10.6438 5.13751 10.7C5.14376 10.7375 5.15001 10.7813 5.15626 10.8188V10.8313V10.85C5.16251 10.9125 5.17501 10.975 5.19376 11.0313L5.22501 11.1188L5.21251 11.2C5.21251 11.2 5.16876 11.1563 5.15626 11.2C5.14376 11.2438 5.14376 11.2438 5.18751 11.3C5.23126 11.3563 5.23751 11.2563 5.25001 11.3C5.26251 11.3625 5.26251 11.425 5.25001 11.4875C5.25001 11.5313 5.25001 11.5813 5.26251 11.625C5.27501 11.6875 5.25626 11.7313 5.26251 11.7938C5.26876 11.8563 5.27501 11.8688 5.28126 11.9125V11.9875C5.26876 12.075 5.23751 12.175 5.23126 12.2125C5.22501 12.25 5.23126 12.4 5.18751 12.4125C5.14376 12.425 5.13126 12.5125 5.16876 12.5875H5.10626V12.7438L5.08751 12.8813L5.08126 12.9H5.01251L4.98126 13.0188L5.00001 13.0688C4.96876 13.125 4.93751 13.175 4.90001 13.2313C4.91251 13.2938 4.94376 13.2563 4.98126 13.3188C5.03751 13.375 5.10001 13.4188 5.17501 13.45C5.15626 13.525 5.15001 13.6 5.15626 13.675C5.15626 13.8375 5.15626 13.675 5.21251 13.8625C5.26876 14.05 5.35001 13.9938 5.31876 14.1563C5.30001 14.2375 5.30626 14.325 5.33751 14.4063C5.36876 14.4375 5.40001 14.4688 5.42501 14.5063C5.44376 14.5438 5.47501 14.575 5.50626 14.6C5.50626 14.6 5.52501 14.6625 5.65001 14.65C5.77501 14.6375 5.61876 14.7375 5.69376 14.7188C5.88126 14.7688 6.08126 14.7625 6.26251 14.6938C6.28126 14.6875 6.29376 14.6813 6.30626 14.675C6.32501 14.7375 6.35001 14.7938 6.38126 14.85C6.39376 14.8875 6.41876 15.1375 6.50626 15.1313C6.56251 15.1313 6.62501 15.1063 6.66876 15.0688C6.66876 15.0688 6.70001 15.2438 6.81876 15.2313L6.93126 15.2188C7.08751 15.2 7.24376 15.1625 7.39376 15.1188L7.46876 15.0688C7.56251 15.0125 7.65001 15.1813 7.65001 15.1813L7.70001 15.1313L7.76251 15.1188C7.76251 15.1188 7.75001 15.1688 7.78126 15.1688C7.81251 15.1688 7.81251 15.1688 7.84376 15.1125C7.87501 15.0563 7.80001 15.075 7.82501 15.05C7.86876 15.025 7.91251 15.0125 7.95626 15.0125C7.99376 15.0063 8.02501 14.9938 8.05626 14.975C8.10001 14.95 8.13126 14.9625 8.17501 14.9375C8.20001 14.9188 8.22501 14.9063 8.25626 14.9L8.31251 14.8875C8.38126 14.8875 8.45626 14.9 8.48751 14.8938C8.51876 14.8938 8.62501 14.8625 8.63751 14.9063C8.65001 14.95 8.72501 14.95 8.76876 14.9L8.78126 14.9625L8.89376 14.9375H8.99376H9.00626L9.01876 15L9.10626 15.0188L9.13751 14.9938C9.18751 15.0188 9.23126 15.05 9.26876 15.0813L9.29376 15.1438C9.35626 15.0625 9.43126 14.9938 9.51251 14.9313C9.56251 14.9063 9.61251 14.8813 9.66876 14.8625L9.71251 14.85C9.74376 14.8375 9.76876 14.825 9.80001 14.8125L9.86251 14.775C9.88126 14.775 9.90626 14.775 9.92501 14.7813C9.92501 14.7813 9.90626 14.8125 9.91876 14.825C9.91876 14.8313 9.925 14.8313 9.93126 14.8313C9.94376 14.8313 9.95625 14.8375 9.96251 14.8313L10 14.7938C10.0375 14.75 9.96251 14.75 9.99376 14.7313C10.0375 14.7188 10.0875 14.7125 10.1313 14.725C10.1688 14.725 10.2 14.7188 10.2313 14.7063C10.2813 14.6938 10.3125 14.7063 10.3563 14.7C10.3875 14.6938 10.4125 14.6875 10.4438 14.6813H10.5C10.55 14.6938 10.5938 14.7063 10.6375 14.7188L10.6625 14.725C10.6875 14.725 10.7625 14.725 10.7938 14.7563L10.8625 14.7188C10.9188 14.7 10.9688 14.6813 11.025 14.675C11.075 14.6688 11.1188 14.6563 11.1625 14.6375L11.2313 14.6063L11.2938 14.625C11.2938 14.625 11.2688 14.6625 11.2938 14.675L11.2438 14.7125L10.6125 15.0125L10.475 15.1188L10.45 15.0563H10.4375L10.3438 15.075L10.2438 15.1188L10.2188 15.0563C10.1875 15.1125 10.1188 15.1188 10.1 15.0813C10.0813 15.0438 9.98126 15.0813 9.95626 15.0875C9.92501 15.0938 9.85626 15.0875 9.79376 15.1L9.74376 15.1188C9.71876 15.1313 9.69376 15.15 9.67501 15.1625C9.63751 15.1875 9.60626 15.1813 9.56876 15.2063C9.54376 15.225 9.51251 15.2438 9.48751 15.25C9.44376 15.2563 9.40001 15.275 9.36876 15.3C9.35001 15.325 9.41876 15.3063 9.39376 15.3625C9.36876 15.4188 9.37501 15.4188 9.34376 15.4188C9.31251 15.4188 9.32501 15.3688 9.32501 15.3688L9.26876 15.3813L9.22501 15.4375C9.19376 15.4688 9.16251 15.5 9.12501 15.5188C9.08126 15.55 9.03751 15.5813 9.00001 15.6188L8.94376 15.7C8.80626 15.7188 8.66251 15.7438 8.51251 15.775L8.54376 15.8375L8.19376 15.925L8.15001 15.9313C8.07501 16.025 7.98126 16.1 7.88126 16.1563C7.88126 16.1563 7.93751 16.1 7.90626 16.0813L7.84376 16.1313C7.81251 16.1625 7.80001 16.175 7.79376 16.15L7.78751 16.1313L7.74376 16.1688C7.73126 16.1938 7.71876 16.225 7.69376 16.2438L7.61876 16.2875L7.47501 16.3875C7.45626 16.3875 7.43126 16.3875 7.41251 16.3875C7.36876 16.3875 7.38751 16.4375 7.38751 16.4375H7.46876C7.39376 16.4813 7.31251 16.5188 7.22501 16.5563L7.16251 16.5188C7.16251 16.5188 7.16876 16.475 7.14376 16.4813C7.11251 16.4875 7.08751 16.5125 7.07501 16.5438L7.08126 16.5625L7.08751 16.6063L6.89376 16.6688L6.84376 16.6375L6.78126 16.6313L6.68751 16.65C6.66251 16.6438 6.64376 16.6313 6.62501 16.6188L6.54376 16.6375L6.50626 16.6688H6.48126H6.43751C6.40626 16.6688 6.40626 16.7 6.40626 16.7125V16.7188H6.48751C6.41251 16.7625 6.39376 16.85 6.30626 16.8875L6.26251 16.8625L6.23751 16.85C6.23751 16.85 6.24376 16.8063 6.21876 16.8125C6.18751 16.8188 6.16251 16.8438 6.15001 16.875L6.15626 16.8938V16.9125V16.9375C6.10626 16.9563 6.07501 17.0125 6.02501 17.0313C5.99376 17.0125 5.96876 16.9875 5.96876 16.9875C5.96876 16.9875 6.06876 16.9125 5.91876 16.8938C5.81876 16.8875 5.72501 16.9125 5.64376 16.975C5.52501 16.9875 5.40001 16.9688 5.29376 16.9188C5.20001 16.8688 5.08751 16.8625 4.99376 16.9063L4.52501 16.9188L4.40626 16.9625V16.9L4.40001 16.8938L4.33751 16.8688H4.26251V16.8063C4.22501 16.8438 4.18126 16.825 4.17501 16.7813C4.17501 16.7375 4.10001 16.7313 4.07501 16.725C4.03751 16.7 3.99376 16.6813 3.95001 16.6688L3.90001 16.6625C3.87501 16.6625 3.85001 16.6688 3.81876 16.675C3.78751 16.6813 3.76876 16.6688 3.73751 16.675C3.70626 16.6813 3.70001 16.6875 3.67501 16.6813C3.65001 16.675 3.60626 16.6625 3.58751 16.6813C3.56876 16.7 3.61876 16.7063 3.58751 16.7438C3.55626 16.7813 3.56251 16.7875 3.53751 16.775C3.51876 16.7625 3.53751 16.7188 3.53751 16.7188L3.50001 16.7063L3.45626 16.7375C3.43126 16.7563 3.40001 16.7688 3.36876 16.775C3.33126 16.7875 3.30001 16.8 3.26876 16.825L3.21251 16.8813C3.11876 16.8438 3.01876 16.8125 2.91876 16.7875V16.8563L2.67501 16.8L2.65001 16.7875C2.58126 16.8375 2.50626 16.875 2.41876 16.8875C2.41876 16.8875 2.46876 16.8563 2.45001 16.825L2.39376 16.85C2.36876 16.8688 2.35626 16.875 2.35626 16.85V16.825L2.31876 16.8438C2.30626 16.8625 2.28751 16.8813 2.26876 16.9L2.21251 16.9125L2.09376 16.9563C2.08126 16.9438 2.06876 16.9375 2.05626 16.9313C2.03751 16.925 2.03751 16.9813 2.03751 16.9813L2.08751 17.0125C2.02501 17.025 1.96251 17.0313 1.90626 17.0313L1.87501 16.975C1.87501 16.975 1.89376 16.9375 1.87501 16.9313C1.85001 16.925 1.83126 16.9375 1.81876 16.9625V16.9813L1.81251 17.025C1.76876 17.0188 1.71876 17.0188 1.67501 17.0063L1.65001 16.9625L1.61251 16.9313L1.55001 16.9125C1.53751 16.8938 1.52501 16.875 1.51876 16.8563L1.46251 16.8438L1.43126 16.8563L1.41876 16.8438L1.39376 16.8313C1.37501 16.8188 1.36876 16.8438 1.36251 16.8625V16.8688L1.41251 16.9C1.35001 16.9063 1.31876 16.9875 1.25626 16.9875L1.23751 16.95L1.22501 16.9313C1.22501 16.9313 1.24376 16.8938 1.22501 16.8875C1.20001 16.8813 1.17501 16.8938 1.16876 16.9188V16.9375V16.9563V16.9813C1.13126 16.9813 1.09376 17.025 1.05626 17.0188H1.03751L0.987506 17.1L0.950006 17.0688L0.887506 17.1688C0.875006 17.15 0.862506 17.1313 0.856256 17.1125C0.831256 17.1063 0.806256 17.1875 0.787506 17.1875L0.750006 17.1813C0.731256 17.275 0.718756 17.1188 0.718756 17.2063C0.718756 17.2063 0.687506 17.175 0.625006 17.3063C0.562506 17.4375 0.562506 17.4625 0.562506 17.4625C0.550006 17.4938 0.537506 17.5188 0.537506 17.5563C0.518756 17.6313 0.537506 17.7125 0.587506 17.7188C0.637506 17.725 0.600006 17.8563 0.600006 17.8563L0.606256 17.8688C0.587506 17.9938 0.568756 18.1313 0.556256 18.2563L0.575006 18.3438C0.568756 18.375 0.562506 18.4125 0.556256 18.4563C0.518756 18.4938 0.468756 18.525 0.412506 18.5375L0.443756 18.625L0.431256 18.6938C0.431256 18.6938 0.387506 18.6563 0.375006 18.6938C0.362506 18.7313 0.362506 18.7313 0.406256 18.7875C0.450006 18.8438 0.456256 18.7438 0.468756 18.7875C0.481256 18.8438 0.481256 18.9063 0.468756 18.9688C0.462506 19.0125 0.468756 19.0563 0.481256 19.1C0.487506 19.1625 0.475006 19.2 0.481256 19.2563C0.487506 19.2938 0.493756 19.3313 0.500006 19.3688V19.4438C0.487506 19.525 0.456256 19.6188 0.450006 19.6563C0.443756 19.6938 0.443756 19.8375 0.400006 19.8438C0.356256 19.85 0.343756 19.9375 0.381256 20.0063H0.281256V20.15L0.262506 20.2813L0.256256 20.3H0.187506L0.156256 20.4125L0.175006 20.4625C0.143756 20.5188 0.106256 20.5688 0.0687561 20.6188L0.0062561 20.6375C0.0750061 20.7375 0.137506 20.85 0.181256 20.9625C0.200006 21.0313 0.218756 21.1 0.231256 21.175L0.243756 21.2313C0.250006 21.2688 0.262506 21.3063 0.275006 21.3438L0.306256 21.4313L0.293756 21.5125C0.293756 21.5125 0.262506 21.4875 0.250006 21.5C0.243756 21.5063 0.243756 21.5063 0.237506 21.5125C0.231256 21.525 0.231256 21.5375 0.237506 21.5563C0.243756 21.575 0.256256 21.5938 0.275006 21.6125C0.318756 21.6688 0.325006 21.5688 0.337506 21.6125C0.350006 21.6688 0.350006 21.7313 0.337506 21.7938C0.331256 21.8375 0.337506 21.8813 0.350006 21.925C0.356256 21.9875 0.343756 22.025 0.350006 22.0813C0.356256 22.1188 0.362506 22.1563 0.368756 22.1938V22.2688C0.356256 22.3313 0.343756 22.3875 0.325006 22.45L0.318756 22.4813C0.318756 22.5375 0.306256 22.6 0.287506 22.65L0.325006 22.7375C0.343756 22.8063 0.362506 22.875 0.375006 22.95C0.381256 23.0063 0.393756 23.0688 0.412506 23.125L0.443756 23.2063L0.418756 23.2813C0.418756 23.2813 0.375006 23.2438 0.362506 23.2813C0.350006 23.3188 0.350006 23.3188 0.393756 23.375C0.437506 23.4313 0.443756 23.3313 0.456256 23.375V23.3938C0.462506 23.45 0.462506 23.5 0.456256 23.5563C0.450006 23.6 0.456256 23.6438 0.462506 23.6875C0.468756 23.75 0.456256 23.7875 0.462506 23.8438C0.468756 23.8813 0.475006 23.9188 0.481256 23.9563V23.9688V23.9875C0.487506 24.0438 0.500006 24.1063 0.518756 24.1625L0.550006 24.2438L0.543756 24.25C0.543756 24.25 0.500006 24.2125 0.487506 24.25C0.475006 24.2875 0.475006 24.2875 0.518756 24.3438C0.562506 24.4 0.568756 24.3 0.581256 24.3438C0.593756 24.4 0.593756 24.4625 0.581256 24.525C0.575006 24.5688 0.581256 24.6125 0.587506 24.6563C0.593756 24.7188 0.581256 24.7563 0.587506 24.8125C0.600006 24.85 0.606256 24.8875 0.612506 24.9313V25.0063C0.600006 25.0875 0.568756 25.1813 0.562506 25.2188C0.556256 25.2563 0.556256 25.4 0.512506 25.4063C0.468756 25.4125 0.456256 25.5063 0.493756 25.5688H0.425006V25.7125L0.406256 25.8438L0.400006 25.8625H0.331256L0.300006 25.975L0.318756 26.025C0.287506 26.075 0.256256 26.125 0.218756 26.175C0.231256 26.2313 0.262506 26.2 0.300006 26.2563C0.350006 26.3125 0.418756 26.3563 0.487506 26.3813C0.468756 26.45 0.456256 26.5188 0.462506 26.5938C0.462506 26.75 0.462506 26.5938 0.512506 26.7688C0.562506 26.9438 0.643756 26.8938 0.612506 27.0438C0.587506 27.1188 0.593756 27.2 0.625006 27.275C0.656256 27.3063 0.681256 27.3375 0.706256 27.3688C0.725006 27.4063 0.750006 27.4313 0.781256 27.4563C0.781256 27.4563 0.800006 27.5188 0.925006 27.5063C1.05001 27.4938 0.893756 27.5875 0.962506 27.575C1.10626 27.6188 1.26251 27.625 1.40626 27.5875L1.46251 27.6188C1.55626 27.6625 1.65001 27.6875 1.75001 27.7C1.76876 27.6938 1.78751 27.6813 1.80626 27.675C1.87501 27.65 1.89376 27.8438 1.89376 27.8438L1.93751 27.8125C1.95001 27.8125 1.96251 27.8188 1.97501 27.825C1.97501 27.825 1.95626 27.8688 1.97501 27.8813C1.99376 27.8938 1.99376 27.8938 2.01876 27.85C2.04376 27.8063 2.00001 27.8 2.01876 27.7875C2.03751 27.7688 2.08126 27.7813 2.10626 27.7875C2.13126 27.7938 2.13751 27.7875 2.16876 27.775C2.20001 27.7625 2.21876 27.7813 2.24376 27.775C2.26251 27.7688 2.28126 27.7625 2.30001 27.7563H2.33751C2.38126 27.7688 2.42501 27.8 2.43751 27.8063C2.45001 27.8125 2.52501 27.8063 2.53126 27.8563C2.53751 27.9063 2.58126 27.9125 2.61251 27.875V27.9375H2.68126L2.74376 27.9563L2.75001 27.9625V28.0313L2.80626 28.0625L2.83126 28.0438C2.86251 28.075 2.88751 28.1125 2.90626 28.15L2.91876 28.2188C2.96251 28.1563 3.01876 28.0938 3.08126 28.0438C3.11251 28.025 3.14376 28.0063 3.18126 27.9938L3.21251 27.9813C3.23126 27.975 3.25001 27.9625 3.26876 27.95L3.30626 27.9188C3.31876 27.9188 3.33126 27.925 3.34376 27.9313C3.33751 27.9438 3.33751 27.9625 3.33751 27.975L3.34376 27.9875C3.35626 27.9938 3.35626 27.9938 3.36251 27.9875C3.37501 27.975 3.38126 27.9625 3.38751 27.95C3.41251 27.9063 3.36876 27.9 3.38751 27.8875C3.40626 27.8688 3.45001 27.8813 3.47501 27.8875C3.50001 27.8938 3.50626 27.8875 3.53751 27.875C3.56876 27.8625 3.58751 27.8813 3.61251 27.875C3.63126 27.8688 3.65001 27.8625 3.66876 27.8563H3.70626C3.73751 27.8688 3.76876 27.8813 3.79376 27.9L3.81251 27.9063C3.83126 27.9063 3.87501 27.9063 3.89376 27.9375C3.90626 27.925 3.91876 27.9063 3.93751 27.8938C3.96876 27.875 4.00001 27.8563 4.03751 27.8438C4.06876 27.8375 4.09376 27.825 4.12501 27.8063L4.16876 27.775C4.18126 27.775 4.19376 27.7813 4.20626 27.7875C4.20626 27.7875 4.18751 27.8313 4.20626 27.8438C4.22501 27.8563 4.22501 27.8563 4.25001 27.8125C4.27501 27.7688 4.23126 27.7625 4.25001 27.75H4.25626C4.28126 27.7438 4.31251 27.7438 4.33751 27.75C4.36251 27.7563 4.36876 27.75 4.40001 27.7375C4.43126 27.725 4.45001 27.7438 4.47501 27.7375L4.53126 27.7188H4.53751C4.56876 27.7125 4.60001 27.7 4.62501 27.6813L4.66251 27.65C4.67501 27.65 4.68751 27.6563 4.70001 27.6625C4.70001 27.6625 4.68126 27.7063 4.70001 27.7188C4.71876 27.7313 4.71876 27.7313 4.74376 27.6875C4.76876 27.6438 4.72501 27.6375 4.74376 27.625C4.76251 27.6125 4.80626 27.6188 4.83126 27.625C4.85626 27.6313 4.86251 27.625 4.89376 27.6125C4.92501 27.6 4.94376 27.6188 4.96876 27.6125C4.98751 27.6063 5.00626 27.6 5.02501 27.5938H5.06251C5.10626 27.6063 5.15001 27.6375 5.16251 27.6438C5.17501 27.65 5.25001 27.6438 5.25626 27.6938C5.26251 27.7438 5.30626 27.75 5.33751 27.7125V27.775H5.42501L5.48751 27.7938L5.49376 27.8V27.8688L5.55001 27.9L5.57501 27.8813C5.60001 27.9125 5.62501 27.95 5.65001 27.9813C5.68126 27.9688 5.66251 27.9438 5.68751 27.9C5.71876 27.8375 5.73751 27.775 5.75001 27.7125C5.78126 27.7313 5.81251 27.7375 5.85001 27.7375C5.92501 27.7375 5.85001 27.7375 5.93751 27.6875C6.02501 27.6375 6.00001 27.5563 6.07501 27.5875C6.11251 27.6125 6.15626 27.6063 6.18751 27.575C6.20001 27.5438 6.21876 27.5188 6.23126 27.4938C6.25001 27.475 6.26251 27.45 6.26876 27.425L6.50626 27.525L6.65626 27.5563C6.76251 27.5813 6.83751 27.6813 6.83126 27.7938L6.95626 27.8L7.06251 27.85C7.06251 27.85 6.99376 27.875 7.04376 27.9C7.09376 27.9313 7.09376 27.9313 7.18751 27.9125C7.28126 27.9 7.14376 27.85 7.20626 27.85C7.29376 27.8688 7.38126 27.8938 7.46251 27.9313C7.52501 27.9563 7.58751 27.9688 7.65626 27.975C7.75001 27.9938 7.80001 28.025 7.88751 28.0375L8.06251 28.0688L8.16251 28.1L8.46251 28.225C8.52501 28.2438 8.71251 28.2938 8.71251 28.3375C8.70625 28.3813 8.82501 28.4313 8.92501 28.4125L8.91251 28.475L9.10626 28.525L9.27501 28.5875L9.29376 28.6L9.27501 28.6625L9.41251 28.7313H9.48126C9.54376 28.7813 9.60001 28.8313 9.65626 28.8875L9.66251 28.9563C9.81876 28.925 9.97501 28.9063 10.1375 28.9C10.2375 28.9063 10.3313 28.9125 10.4313 28.925L10.5125 28.9313C10.5625 28.9375 10.6188 28.9438 10.675 28.9438H10.7938L10.8938 28.9813C10.8938 28.9813 10.8563 29 10.8625 29.0188C10.8625 29.025 10.8688 29.0313 10.875 29.0313C10.8938 29.0438 10.9125 29.05 10.9313 29.05C10.9563 29.05 10.9875 29.0438 11.0125 29.0375C11.1 29.0188 10.975 28.975 11.0313 28.975C11.1125 28.9875 11.1875 29.0063 11.2563 29.05C11.3125 29.075 11.3625 29.0875 11.4188 29.1C11.5 29.1188 11.5438 29.1563 11.6188 29.175C11.6688 29.1875 11.725 29.2 11.775 29.2125L11.8688 29.25C11.9563 29.2938 12.0375 29.35 12.0938 29.3813L12.1375 29.4063C12.2188 29.4375 12.2938 29.475 12.3625 29.525L12.5 29.5313C12.5688 29.5375 12.6875 29.5625 12.825 29.5875C12.9125 29.6125 13.0063 29.625 13.0938 29.6313L13.2313 29.6375L13.35 29.6813C13.35 29.6813 13.275 29.7063 13.3375 29.7313C13.3938 29.7563 13.3938 29.7625 13.4938 29.7438C13.5938 29.725 13.4375 29.6813 13.5125 29.6813H13.5375C13.625 29.6938 13.7125 29.7188 13.7938 29.7438C13.8625 29.7625 13.9313 29.775 14.0063 29.775C14.1063 29.7813 14.1688 29.8125 14.2625 29.8188L14.45 29.825H14.4688H14.5C14.5938 29.8313 14.6938 29.825 14.7875 29.8125L14.925 29.7875L15.05 29.8063C15.05 29.8063 14.9875 29.8438 15.05 29.8625C15.1125 29.875 15.1125 29.8813 15.2063 29.8375C15.3 29.7938 15.1438 29.7875 15.2063 29.775C15.3 29.7625 15.4 29.7625 15.4938 29.775C15.5625 29.7813 15.6313 29.775 15.6938 29.7563C15.7938 29.7438 15.8563 29.7563 15.9438 29.7375L16.125 29.7063L16.2375 29.6938H16.5813C16.6438 29.6875 16.8688 29.65 16.8813 29.6875C16.9 29.725 17.0438 29.7125 17.1438 29.6438L17.1563 29.7063C17.225 29.6875 17.2938 29.675 17.3625 29.65C17.3938 29.6438 17.425 29.6313 17.4563 29.625L17.5938 29.5938H17.625L17.6438 29.6563C17.7063 29.65 17.7688 29.6438 17.8313 29.6313L17.9 29.5875C17.9938 29.5875 18.0875 29.5875 18.1688 29.5938C18.2563 29.5438 18.2 29.5375 18.2688 29.4625C18.2938 29.4375 18.3125 29.4063 18.325 29.375L18.7063 29.2188L18.7688 29.1938C18.8688 29.05 19.3 28.9625 19.3 28.9625C19.3 28.9625 19.1 29.1625 19.4688 28.975C19.6875 28.8625 19.8875 28.7125 20.0625 28.5375C20.3188 28.375 20.5875 28.2375 20.8688 28.125C21.1125 28.0375 21.3375 27.9125 21.5375 27.7438L22.5188 27.1375L22.7375 26.9563L22.7688 27.0125H22.7875L22.9313 26.95L23.0875 26.8625L23.1188 26.9188C23.1688 26.8438 23.275 26.8063 23.3 26.8375C23.3313 26.875 23.475 26.7875 23.5188 26.7688C23.5625 26.75 23.675 26.725 23.7688 26.6875L23.8438 26.65C23.8875 26.6188 23.9125 26.6 23.9563 26.5688C24 26.5375 24.0563 26.5188 24.1188 26.475C24.1563 26.4438 24.2 26.4125 24.25 26.3875C24.3188 26.3625 24.3813 26.325 24.4375 26.2813C24.475 26.2438 24.3688 26.2938 24.4063 26.225C24.4438 26.1563 24.4438 26.1563 24.4938 26.1438C24.5375 26.1313 24.5188 26.1938 24.5188 26.1938L24.6063 26.1563L24.6813 26.075C24.7313 26.025 24.7875 25.975 24.8438 25.9375C24.9125 25.8875 24.9813 25.8313 25.0438 25.7688L25.1438 25.65C25.3563 25.5688 25.575 25.4813 25.8063 25.3813L25.7688 25.3188L26.3125 25.075L26.375 25.05C26.5063 24.9125 26.65 24.7875 26.8125 24.6813C26.8125 24.6813 26.725 24.7688 26.7688 24.775L26.8688 24.6875C26.9188 24.6375 26.9375 24.625 26.95 24.6438L26.9625 24.6625L27.0313 24.6C27.0563 24.5625 27.0813 24.525 27.1125 24.4938L27.225 24.4125L27.4563 24.2313C27.4875 24.225 27.5188 24.2188 27.55 24.2125C27.6125 24.1938 27.5938 24.1438 27.5938 24.1438L27.4688 24.1813C27.5938 24.1 27.7188 24.0188 27.85 23.9438L27.9438 23.9563C27.9438 23.9563 27.925 24.0125 27.9625 23.9938C28.0125 23.9813 28.0563 23.9438 28.0813 23.9L28.0688 23.8813V23.8375L28.3688 23.6875L28.4375 23.7L28.5313 23.6813L28.6688 23.625C28.7 23.6188 28.7313 23.625 28.7625 23.6375L28.8875 23.5813L28.95 23.5313L28.9875 23.525L29.0438 23.5125C29.0938 23.5 29.0938 23.4688 29.0938 23.45V23.4438L28.9688 23.4813C29.0938 23.4 29.125 23.2875 29.2563 23.2125L29.3188 23.225H29.35C29.35 23.225 29.3313 23.2813 29.3688 23.2625C29.4125 23.2438 29.45 23.2125 29.475 23.1688L29.4625 23.15V23.1313V23.1063C29.55 23.0625 29.6 22.9813 29.6813 22.9375L29.725 22.9125L29.7938 22.7813L29.8875 22.7625L29.9688 22.6C30 22.5938 30.0313 22.6 30.0625 22.6125C30.125 22.5875 30.1313 22.4813 30.1625 22.4688L30.2438 22.4313C30.3188 22.4063 30.4 22.3813 30.4688 22.3438L30.5938 22.3125C30.6625 22.2813 30.7313 22.2438 30.7938 22.2063L30.8313 22.1875C30.85 22.075 31.1125 21.9938 31.1125 21.9938C31.1125 21.9938 31.0563 22.175 31.2375 21.9938C31.35 21.875 31.425 21.7313 31.45 21.5688L31.5438 21.4C31.6063 21.2875 31.6875 21.1438 31.7813 21.0063C31.8875 20.8438 31.9375 20.6438 31.9188 20.45C32 20.3688 32 20.2563 31.9938 20.15ZM5.06251 24.4L5.01251 24.5688C5.01251 24.6 5.01251 24.7188 4.96876 24.725C4.92501 24.7313 4.91251 24.8063 4.95626 24.8625H4.89376V24.9875L4.88126 25.1L4.87501 25.1125H4.80626L4.77501 25.2125L4.79376 25.2563C4.76251 25.3063 4.73126 25.35 4.70001 25.3938C4.71876 25.4438 4.74376 25.4125 4.78751 25.4625C4.82501 25.4938 4.86876 25.5188 4.91876 25.5313C4.86876 25.5313 4.82501 25.5438 4.78126 25.5688L4.40001 25.6125L4.30626 25.6625V25.6L4.30001 25.5938L4.25001 25.575H4.18751V25.5125C4.16251 25.55 4.12501 25.5375 4.12501 25.4938C4.12501 25.45 4.06251 25.45 4.05001 25.4438C4.02501 25.425 3.99376 25.4063 3.96251 25.3938H3.93126C3.91251 25.3938 3.90001 25.4 3.88751 25.4125C3.86251 25.4188 3.85001 25.4063 3.82501 25.4125C3.80001 25.4188 3.79376 25.425 3.77501 25.4188C3.75626 25.4125 3.71876 25.4 3.70001 25.4188C3.68126 25.4375 3.72501 25.4438 3.70001 25.4813C3.67501 25.5188 3.67501 25.525 3.66251 25.5125C3.64376 25.5 3.66251 25.4563 3.66251 25.4563C3.65001 25.45 3.64376 25.45 3.63126 25.4438L3.60001 25.475C3.58126 25.4938 3.55626 25.5063 3.53126 25.5125C3.50001 25.525 3.46876 25.5438 3.44376 25.5625C3.42501 25.5813 3.41251 25.6 3.40001 25.6188C3.32501 25.5813 3.24376 25.55 3.16251 25.525V25.5938L2.96251 25.5375L2.95001 25.525C2.90001 25.575 2.83751 25.6125 2.76251 25.6313C2.76251 25.6313 2.80001 25.6 2.78751 25.5688L2.74376 25.5938C2.71876 25.6125 2.71251 25.6188 2.71251 25.5938V25.5688L2.68126 25.5875C2.67501 25.5938 2.66876 25.6063 2.66251 25.6125C2.65001 25.5688 2.63751 25.525 2.61876 25.4813C2.60001 25.275 2.61251 25.0688 2.65626 24.8688C2.70001 24.7 2.70001 24.5188 2.65626 24.35L2.61251 23.575L2.55626 23.3875H2.61876L2.62501 23.375L2.64376 23.2688V23.15H2.70626C2.66876 23.0938 2.68126 23.025 2.72501 23.0188C2.76876 23.0125 2.76876 22.9 2.77501 22.8688C2.78126 22.8375 2.81251 22.7688 2.82501 22.6938V22.6313C2.82501 22.6 2.81876 22.5688 2.80626 22.5375C2.80001 22.4938 2.81251 22.4625 2.80626 22.4063C2.79376 22.375 2.79376 22.3375 2.79376 22.3063C2.80626 22.2563 2.80626 22.2063 2.79376 22.1625C2.77501 22.1313 2.76876 22.2063 2.73126 22.1625C2.68751 22.1188 2.68751 22.1188 2.70001 22.0875C2.71251 22.0563 2.75626 22.0875 2.75626 22.0875L2.76876 22.025L2.73751 21.9563C2.71876 21.9125 2.70626 21.8625 2.70001 21.8125C2.68751 21.7563 2.66876 21.6938 2.65001 21.6375L2.59376 21.5438C2.63126 21.3938 2.66251 21.2313 2.68751 21.0625H2.61876L2.67501 20.6625L2.68751 20.6188C2.63126 20.5 2.59376 20.3688 2.58126 20.2375C2.58126 20.2375 2.61251 20.3188 2.64376 20.2938L2.61876 20.2063C2.60001 20.1625 2.59376 20.1438 2.61876 20.1438H2.62501L2.60626 20.0813C2.58126 20.0563 2.56251 20.0313 2.55001 20L2.53751 19.9063L2.49376 19.7125C2.50626 19.6938 2.51251 19.675 2.51876 19.65C2.53126 19.6063 2.48126 19.6 2.48126 19.6L2.45001 19.6875C2.43751 19.5875 2.43126 19.4875 2.43126 19.3875L2.48751 19.3375C2.48751 19.3375 2.52501 19.3625 2.53126 19.3375C2.53126 19.325 2.53126 19.3063 2.52501 19.2938C2.54376 19.3125 2.56251 19.3375 2.58126 19.3563L2.59376 19.425C2.65001 19.3563 2.71876 19.3 2.79376 19.25C2.83126 19.225 2.87501 19.2125 2.91876 19.1938L2.95626 19.1813C2.98126 19.175 3.00626 19.1625 3.02501 19.15L3.07501 19.1188L3.12501 19.1313C3.12501 19.1313 3.11251 19.1563 3.11876 19.175L3.12501 19.1875C3.13751 19.1875 3.14376 19.1938 3.15001 19.1875C3.16251 19.175 3.17501 19.1625 3.18126 19.15C3.21251 19.1063 3.15626 19.1 3.18126 19.0875C3.20626 19.0688 3.26251 19.0813 3.28751 19.0875C3.31251 19.0938 3.34376 19.0875 3.36876 19.0813C3.40626 19.075 3.43126 19.0875 3.46251 19.0813C3.48751 19.075 3.50626 19.0688 3.53126 19.0625H3.57501C3.61251 19.075 3.65001 19.0875 3.68126 19.1063L3.70001 19.1125C3.71876 19.1125 3.78126 19.1188 3.80001 19.1438L3.83751 19.1063C3.86876 19.0813 3.90001 19.0688 3.93751 19.0625C3.97501 19.0563 4.00626 19.0438 4.03751 19.0313L4.08751 19L4.13126 19.0125C4.13126 19.0125 4.10626 19.0563 4.13126 19.0688C4.15626 19.0813 4.15626 19.0813 4.18751 19.0438C4.22501 19.0063 4.16251 18.9938 4.18751 18.9813H4.20001C4.23126 18.975 4.26876 18.9813 4.30001 18.9938C4.32501 19 4.35001 18.9938 4.37501 18.9875C4.41251 18.9813 4.43751 19 4.47501 18.9938C4.50001 18.9875 4.51876 18.9813 4.54376 18.9813H4.55001H4.56251C4.59376 18.975 4.63126 18.9688 4.66251 18.9563L4.71876 18.925L4.76876 18.9375C4.76876 18.9375 4.74376 18.9813 4.76876 18.9938C4.79376 19.0063 4.79376 19.0063 4.83126 18.9688C4.86876 18.9313 4.80626 18.9188 4.83126 18.9063C4.85626 18.8875 4.91251 18.9063 4.94376 18.9125C4.96876 18.9188 4.99376 18.9188 5.01876 18.9125C5.00626 18.975 5.00001 19.0438 4.98751 19.1063L5.00626 19.1938C5.02501 19.2938 4.83751 19.325 4.83751 19.325L4.86876 19.3875L4.85626 19.45C4.85626 19.45 4.81251 19.4188 4.80001 19.45C4.78751 19.4813 4.78751 19.4813 4.83126 19.525C4.87501 19.5688 4.88126 19.4938 4.89376 19.525C4.90626 19.5688 4.90626 19.6188 4.89376 19.6625C4.88751 19.6938 4.89376 19.7313 4.90001 19.7625C4.90626 19.8125 4.89376 19.8438 4.90001 19.8875C4.90626 19.9125 4.91251 19.9438 4.91876 19.9688V20.025C4.90626 20.0875 4.87501 20.1625 4.86876 20.1875C4.86251 20.2125 4.86251 20.325 4.81876 20.3313C4.77501 20.3375 4.75626 20.4063 4.80001 20.4563H4.75001V20.5688L4.73126 20.6688L4.72501 20.6813H4.65626L4.61876 20.7688L4.63751 20.8063C4.60626 20.85 4.56876 20.8875 4.53126 20.925L4.46251 20.9375C4.53126 21.0125 4.58751 21.1 4.63751 21.1938C4.65626 21.25 4.67501 21.3 4.68751 21.3563L4.70001 21.4C4.70626 21.4313 4.71876 21.4625 4.73126 21.4875L4.76251 21.55L4.75001 21.6125C4.75001 21.6125 4.71876 21.5938 4.70626 21.6C4.70001 21.6 4.70001 21.6063 4.69376 21.6125C4.69376 21.625 4.68751 21.6375 4.69376 21.6438C4.70626 21.6563 4.71251 21.675 4.73126 21.6875C4.77501 21.7313 4.78126 21.6563 4.79376 21.6875C4.80626 21.7313 4.80626 21.7813 4.79376 21.825C4.78751 21.8563 4.79376 21.8938 4.80001 21.925C4.80626 21.975 4.79376 22.0063 4.80001 22.05C4.80626 22.0813 4.81251 22.1063 4.81876 22.1375V22.1938C4.80626 22.2438 4.79376 22.2875 4.77501 22.3313L4.76876 22.3563C4.76876 22.3813 4.76251 22.4563 4.73751 22.4875L4.77501 22.5563C4.79376 22.6125 4.81251 22.6625 4.82501 22.7188C4.83126 22.7625 4.84376 22.8125 4.86251 22.8563L4.89376 22.9188L4.87501 22.975C4.87501 22.975 4.83126 22.9438 4.81876 22.975C4.80626 23.0063 4.80626 23.0063 4.85001 23.05C4.89376 23.0938 4.90001 23.0188 4.91251 23.05V23.0625C4.91876 23.1063 4.91876 23.15 4.91251 23.1875C4.90626 23.2188 4.91251 23.2563 4.91876 23.2875C4.92501 23.3375 4.91251 23.3688 4.91876 23.4125C4.92501 23.4438 4.93126 23.4688 4.93126 23.5V23.5063V23.5188C4.93751 23.5625 4.95001 23.6125 4.96876 23.6563L5.00001 23.7188L4.98751 23.7813C4.98751 23.7813 4.94376 23.75 4.93126 23.7813C4.91876 23.8125 4.91876 23.8125 4.96251 23.8563C5.00626 23.9 5.01251 23.825 5.02501 23.8563C5.03751 23.9 5.03751 23.95 5.02501 23.9938C5.01876 24.025 5.02501 24.0625 5.03126 24.0938C5.03751 24.1438 5.02501 24.175 5.03126 24.2188C5.03751 24.25 5.04376 24.275 5.04376 24.3063V24.4H5.06251ZM18.625 12.6063C18.7 12.5563 18.7063 12.4438 18.75 12.4125L18.85 12.3438C18.8375 12.2438 18.9625 12.3375 18.9188 12.2625C18.9188 12.2625 18.9875 12.2313 19.0438 12.0688C19.0875 12.05 19.125 12.0313 19.1688 12.0125C19.25 12.025 19.3 11.85 19.3438 11.9313C19.5688 11.7313 19.7688 11.5 19.9313 11.2375C19.9938 11.15 20.0625 11.0625 20.1188 10.9688C20.2125 10.7875 20.2938 10.5938 20.3563 10.4L20.3875 10.3C20.3938 10.1188 20.4188 9.9375 20.4625 9.7625L20.525 9.40625C20.525 9.40625 20.6188 9.85625 20.6063 9.175C20.5813 8.775 20.4563 8.3875 20.2375 8.05C20.0313 7.6125 19.7688 7.2 19.4688 6.825C19.3125 6.625 19.1188 6.45625 18.9 6.31875C18.975 6.3375 19.0625 6.35 19.125 6.36875C19.225 6.38125 19.3188 6.3875 19.4188 6.3875L19.775 6.425H20.0375H20.0625H20.1063C20.2375 6.425 20.3688 6.41875 20.5 6.40625L20.6938 6.375L20.8688 6.3875C20.8688 6.3875 20.7813 6.43125 20.8688 6.44375C20.9438 6.45625 21.0188 6.44375 21.0813 6.40625C21.2063 6.3625 20.9875 6.3625 21.0813 6.34375C21.175 6.325 21.3688 6.3375 21.4875 6.33125C21.5875 6.33125 21.6813 6.31875 21.775 6.30625C21.9125 6.2875 22 6.30625 22.1313 6.275L22.3875 6.23125L22.55 6.21875L23.0313 6.2C23.1188 6.19375 23.4375 6.1375 23.45 6.175C23.4688 6.21875 23.675 6.1875 23.8125 6.1125L23.825 6.175L24.15 6.1L24.4375 6.0375H24.475L24.4938 6.10625L24.75 6.06875L24.85 6.01875L25.2063 6.00625C25.3313 5.95 25.25 5.95 25.3625 5.8625C25.45 5.7875 25.525 5.69375 25.5688 5.59375C25.6625 5.56875 25.7563 5.5375 25.85 5.50625V5.5625C25.8438 5.6125 25.85 5.6625 25.8563 5.7125C25.8625 5.78125 25.85 5.83125 25.8563 5.89375C25.8625 5.94375 25.8688 5.975 25.8688 6.025V6.10625C25.8563 6.20625 25.825 6.30625 25.8188 6.35C25.8125 6.39375 25.8125 6.55625 25.7688 6.5625C25.725 6.56875 25.7063 6.675 25.7438 6.75H25.6813V6.91875L25.6625 7.06875L25.6563 7.0875H25.5875L25.55 7.21875L25.5688 7.275C25.5375 7.3375 25.5 7.39375 25.4625 7.45L25.3938 7.46875C25.4625 7.5875 25.5188 7.71875 25.5625 7.85C25.5813 7.93125 25.6 8.0125 25.6125 8.1L25.625 8.16875C25.6313 8.2125 25.6375 8.2625 25.65 8.30625L25.6813 8.40625L25.6688 8.5C25.6688 8.5 25.6375 8.46875 25.625 8.4875C25.6188 8.4875 25.6125 8.49375 25.6125 8.5C25.6063 8.5125 25.6063 8.53125 25.6063 8.55C25.6125 8.575 25.625 8.59375 25.6375 8.6125C25.6813 8.675 25.6875 8.5625 25.7 8.6125C25.7125 8.68125 25.7125 8.75 25.7 8.81875C25.6938 8.86875 25.7 8.91875 25.7063 8.96875C25.7125 9.0375 25.7 9.0875 25.7063 9.15C25.7125 9.19375 25.7188 9.2375 25.7188 9.28125V9.3625C25.7063 9.43125 25.6938 9.5 25.675 9.56875L25.6688 9.60625C25.6688 9.675 25.6563 9.74375 25.6375 9.80625L25.675 9.90625C25.6938 9.9875 25.7125 10.0688 25.725 10.15C25.7313 10.2188 25.7438 10.2875 25.7625 10.35L25.7938 10.45L25.7813 10.5438C25.7813 10.5438 25.7375 10.5 25.725 10.5438C25.7125 10.5875 25.7125 10.5875 25.7563 10.6563C25.8 10.7188 25.8063 10.6063 25.8188 10.6563V10.675C25.825 10.7375 25.825 10.8 25.8188 10.8625C25.8125 10.9125 25.8188 10.9625 25.825 11.0125C25.8313 11.0813 25.8188 11.1313 25.825 11.1938C25.825 11.2438 25.8375 11.275 25.8375 11.325V11.3375V11.3563C25.8438 11.425 25.8563 11.4938 25.875 11.5563L25.9063 11.6563L25.8938 11.75C25.8938 11.75 25.85 11.7063 25.8375 11.75C25.825 11.7938 25.825 11.7938 25.8688 11.8625C25.9125 11.925 25.9188 11.8125 25.9313 11.8625C25.9438 11.9313 25.9438 12 25.9313 12.0688C25.925 12.1188 25.9313 12.1688 25.9375 12.2188C25.9438 12.2875 25.9313 12.3375 25.9375 12.4C25.9438 12.4438 25.95 12.4875 25.95 12.5313V12.6125C25.9375 12.7125 25.9 12.8125 25.9 12.8563C25.8938 12.9 25.8938 13.0625 25.85 13.0688C25.8063 13.075 25.7875 13.1813 25.825 13.2563H25.7438V13.4188V13.4313C25.7188 13.4375 25.6938 13.4438 25.6688 13.45C25.5313 13.5063 25.4063 13.6 25.3 13.7125C25.1375 13.8 24.9625 13.8625 24.775 13.8813C24.6188 13.8875 24.4625 13.9438 24.3375 14.0375L23.675 14.275L23.5188 14.3625L23.5063 14.3H23.4938H23.3938L23.2938 14.325L23.2813 14.2625C23.2438 14.3125 23.175 14.3125 23.1625 14.2688C23.15 14.225 23.05 14.2438 23.0188 14.2438C22.9875 14.2438 22.9188 14.225 22.8563 14.225L22.8063 14.2313C22.7813 14.2375 22.75 14.25 22.725 14.2625C22.6875 14.275 22.6563 14.2625 22.6125 14.2813C22.5875 14.3 22.5563 14.3063 22.5188 14.3063C22.475 14.3 22.4313 14.3063 22.3875 14.325C22.3625 14.3438 22.4313 14.3438 22.3938 14.3875C22.3625 14.4313 22.3563 14.4313 22.3313 14.425C22.3063 14.4188 22.325 14.3688 22.325 14.3688H22.2688L22.2125 14.4063C22.175 14.4313 22.1313 14.45 22.0938 14.4625C22.0438 14.4813 21.9938 14.5063 21.9438 14.5313L21.8625 14.5938C21.725 14.5688 21.575 14.55 21.425 14.5313V14.6L21.0625 14.5563L21.025 14.5438C20.9188 14.6063 20.8063 14.6375 20.6875 14.65C20.6875 14.65 20.7563 14.6188 20.7375 14.5938L20.6563 14.6188C20.6188 14.6375 20.6 14.6438 20.6 14.6188V14.5938L20.5438 14.6125C20.5188 14.6313 20.4938 14.65 20.4688 14.6625L20.3813 14.675L20.2 14.7125C20.1813 14.7 20.1688 14.6875 20.1438 14.6813C20.1063 14.6625 20.0938 14.7188 20.0938 14.7188L20.1688 14.75C20.0813 14.75 19.9875 14.75 19.8938 14.7438L19.8563 14.6813C19.8563 14.6813 19.8875 14.6438 19.8563 14.6375C19.825 14.6313 19.7938 14.6375 19.7688 14.6625V14.6813L19.7563 14.725C19.6875 14.7188 19.6188 14.7063 19.5563 14.6875L19.5313 14.6375L19.4813 14.6L19.3938 14.5688C19.375 14.55 19.3625 14.5313 19.3563 14.5063L19.275 14.4813H19.25L19.2313 14.4688L19.2 14.45C19.175 14.4375 19.1563 14.4625 19.15 14.475V14.4813L19.2188 14.5188C19.1313 14.5188 19.0688 14.5875 18.975 14.5688L18.95 14.525L18.9375 14.5C18.9375 14.5 18.9688 14.4688 18.9438 14.4625C18.9125 14.45 18.8813 14.4563 18.8563 14.475V14.4938L18.85 14.5125L18.8375 14.5375C18.7875 14.5313 18.7438 14.5313 18.6938 14.5375C18.6625 14.475 18.6438 14.4125 18.6688 14.3938C18.7063 14.3625 18.5938 14.1625 18.5625 14.1063C18.5188 14 18.4625 13.9 18.4 13.8063L18.3188 13.7188L18.2563 13.6563L18.1125 13.5375C18.0438 13.4813 17.9688 13.425 17.8938 13.375C17.8375 13.35 17.7875 13.3188 17.7375 13.2875C17.725 13.275 17.7063 13.2625 17.6875 13.2563L17.6938 13.2313C17.825 13.175 17.95 13.1063 18.0688 13.0313L18.1375 13C18.1813 12.95 18.225 12.9 18.2625 12.8438L18.3875 12.8L18.5063 12.6063C18.5438 12.6063 18.5875 12.6 18.625 12.6063ZM16.4 7.95625C16.4438 7.90625 16.35 7.91875 16.3875 7.89375L16.4063 7.8875C16.4625 7.86875 16.5188 7.8625 16.575 7.8625C16.6313 7.8625 16.6438 7.85625 16.7125 7.84375C16.7688 7.8375 16.825 7.8375 16.875 7.84375C16.9125 7.8375 16.9563 7.8375 17 7.84375H17.0125H17.0313H17.225L17.325 7.8375L17.4 7.88125C17.4 7.88125 17.3438 7.90625 17.3813 7.93125C17.4188 7.95625 17.4188 7.95 17.4875 7.94375C17.5563 7.9375 17.4688 7.88125 17.5125 7.88125C17.575 7.9 17.6375 7.93125 17.6875 7.975C17.725 8 17.7688 8.025 17.8125 8.05C17.8688 8.0875 17.9 8.125 17.95 8.1625L18.05 8.2375C18.0688 8.25625 18.0875 8.28125 18.1 8.3C18.1438 8.36875 18.1813 8.44375 18.2063 8.51875C18.2313 8.55625 18.3063 8.69375 18.2688 8.71875C18.2313 8.75 18.2625 8.83125 18.325 8.88125L18.2625 8.90625C18.2813 8.95 18.3 9 18.3125 9.04375C18.3188 9.0875 18.325 9.13125 18.325 9.175V9.19375L18.2563 9.20625C18.2563 9.24375 18.25 9.28125 18.2375 9.31875L18.2625 9.3625C18.2375 9.4125 18.2063 9.4625 18.1688 9.50625C18.1813 9.55625 18.2125 9.53125 18.25 9.5875C18.3 9.64375 18.3625 9.69375 18.425 9.73125C18.3938 9.8 18.3688 9.86875 18.3563 9.94375C18.3125 10.1 18.3688 9.94375 18.3438 10.1375C18.3188 10.3313 18.4063 10.3188 18.2938 10.4563C18.2313 10.5188 18.1813 10.5938 18.15 10.675C18.1563 10.7188 18.15 10.7688 18.1375 10.8125C18.125 10.8563 18.1188 10.9 18.1188 10.9438C18.1125 10.9813 18.1188 11.0188 18.1375 11.05C18.1125 11.075 18.0875 11.1 18.0625 11.1313C18.0438 11.05 17.9625 11 17.8813 11.0188C17.8625 11.025 17.85 11.0313 17.8375 11.0375L17.6688 11.125C17.4563 11.2375 17.2375 11.325 17.0063 11.3875C16.975 11.4063 16.9375 11.425 16.9063 11.4438C16.7813 11.4875 16.725 11.3125 16.725 11.3063L16.6625 11.3375C16.6438 11.3375 16.625 11.3313 16.6 11.3313C16.6 11.3313 16.6313 11.2875 16.6 11.275C16.5688 11.2625 16.575 11.2563 16.5313 11.3C16.4875 11.3375 16.5563 11.35 16.525 11.3625C16.4938 11.375 16.425 11.35 16.3875 11.3375C16.3563 11.325 16.3188 11.3188 16.2875 11.3063C16.2313 11.3 16.2063 11.2625 16.1563 11.2438C16.1125 11.2375 16.075 11.225 16.0375 11.2L15.975 11.1563C15.9188 11.0938 15.8688 11.0313 15.8188 10.9625C15.7875 10.925 15.6688 10.8063 15.6938 10.7688C15.725 10.7313 15.6563 10.6438 15.575 10.6L15.625 10.5563C15.5875 10.5125 15.5375 10.4563 15.5125 10.4188L15.4563 10.3063V10.2875L15.5125 10.2563L15.5 10.1438L15.4625 10.1125C15.475 10.0563 15.4875 10.0063 15.5063 9.95L15.5688 9.9125C15.475 9.8625 15.3938 9.7875 15.3375 9.69375C15.3063 9.6375 15.2875 9.575 15.275 9.5125L15.2625 9.4625C15.2563 9.425 15.25 9.3875 15.2438 9.35625C15.2313 9.33125 15.225 9.3 15.2188 9.275L15.2438 9.20625C15.2438 9.20625 15.2688 9.23125 15.2875 9.225C15.2938 9.225 15.2938 9.21875 15.3 9.21875C15.3063 9.20625 15.3125 9.19375 15.3125 9.18125C15.3125 9.1625 15.3 9.14375 15.2938 9.125C15.2688 9.0625 15.2375 9.15 15.2313 9.10625C15.2313 9.05 15.25 8.9875 15.2875 8.94375C15.3063 8.90625 15.3188 8.86875 15.3313 8.825C15.35 8.78125 15.375 8.7375 15.4063 8.69375C15.4188 8.65625 15.4375 8.625 15.4563 8.59375L15.5 8.54375C15.5438 8.5 15.5938 8.46875 15.65 8.44375L15.675 8.425C15.7188 8.3875 15.7625 8.3625 15.8188 8.34375C15.8313 8.31875 15.8438 8.2875 15.8625 8.2625C15.9063 8.20625 15.9563 8.15625 16.0125 8.1125C16.1188 8.0375 16.15 8.00625 16.15 8.00625C16.1688 7.9875 16.1938 7.9625 16.2188 7.95L16.3 7.9375C16.3 7.9375 16.275 7.99375 16.3125 7.9875C16.3563 8.00625 16.3563 8.00625 16.4 7.95625ZM16.2375 5.7625L16.3125 5.79375C16.2813 5.8 16.25 5.80625 16.225 5.8125L16.2188 5.75L16.2375 5.7625ZM11.2563 12.3C11.2563 12.2563 11.1438 12.2563 11.1125 12.25C11.0813 12.2438 11.0125 12.2125 10.9438 12.1938H10.8875C10.8563 12.1938 10.825 12.2 10.7938 12.2063C10.75 12.2125 10.7188 12.1938 10.6688 12.2063C10.6375 12.2188 10.6 12.2188 10.5688 12.2188C10.5188 12.2063 10.4688 12.2063 10.425 12.2188C10.3938 12.2375 10.4688 12.2438 10.425 12.2813C10.3813 12.325 10.3813 12.325 10.35 12.3125C10.3188 12.3 10.35 12.2563 10.35 12.2563L10.2875 12.2438L10.2188 12.275C10.175 12.2938 10.1313 12.3125 10.0813 12.325C10.025 12.3438 9.96876 12.3625 9.91876 12.3875L9.83126 12.45C9.67501 12.425 9.51876 12.4063 9.36251 12.4063L9.36876 12.475C9.2375 12.475 9.10626 12.475 8.97501 12.475H8.93126C8.82501 12.55 8.71251 12.6063 8.58751 12.6375C8.58751 12.6375 8.65626 12.5875 8.63126 12.5688L8.55001 12.6063C8.51251 12.6375 8.49376 12.6438 8.49376 12.6188L8.48126 12.5875L8.42501 12.6188C8.40626 12.6438 8.38126 12.6688 8.35626 12.6875L8.26876 12.7188L8.09376 12.8C8.07501 12.7938 8.05001 12.7875 8.03126 12.7875C7.98751 12.7875 7.99376 12.8375 7.99376 12.8375L8.08126 12.8438C7.99376 12.875 7.90001 12.9063 7.80626 12.9313L7.74376 12.8875C7.74376 12.8875 7.76251 12.8438 7.73126 12.85C7.70001 12.85 7.66876 12.875 7.65001 12.9V12.9188V12.9625L7.43751 13.0063L7.39376 12.975L7.36876 12.9688C7.36876 12.7938 7.33751 12.625 7.26876 12.4625C7.24376 12.25 7.25626 12.0313 7.30001 11.825C7.34376 11.65 7.34376 11.4625 7.29376 11.2875L7.24376 10.475L7.19376 10.2813H7.26251L7.26876 10.2688L7.28751 10.1563V10.025H7.35001C7.31251 9.96875 7.32501 9.89375 7.36876 9.8875C7.41251 9.88125 7.41251 9.7625 7.41876 9.73125C7.42501 9.7 7.45626 9.61875 7.46876 9.55V9.4875C7.46876 9.45625 7.46251 9.41875 7.45626 9.3875C7.45001 9.3375 7.46251 9.30625 7.45626 9.25625C7.44376 9.21875 7.44376 9.18125 7.45001 9.14375C7.46251 9.09375 7.46251 9.04375 7.45001 8.9875C7.43126 8.95 7.42501 9.0375 7.38751 8.9875C7.34376 8.9375 7.34376 8.9375 7.35626 8.90625C7.36876 8.875 7.41251 8.90625 7.41251 8.90625L7.42501 8.8375L7.39376 8.775C7.37501 8.725 7.36251 8.675 7.35626 8.625C7.34376 8.5625 7.33126 8.5 7.30626 8.44375L7.25626 8.34375C7.29376 8.1875 7.32501 8.01875 7.35626 7.84375H7.28751L7.35001 7.425L7.36876 7.375C7.31251 7.25 7.28126 7.1125 7.26876 6.975C7.26876 6.975 7.30001 7.0625 7.32501 7.0375L7.30001 6.94375C7.28126 6.9 7.27501 6.88125 7.30001 6.88125H7.32501L7.30626 6.81875C7.28751 6.79375 7.26876 6.7625 7.25626 6.73125L7.24376 6.63125L7.20626 6.43125C7.21876 6.40625 7.23126 6.38125 7.23751 6.35625C7.25626 6.3125 7.20001 6.3 7.20001 6.3L7.16876 6.3875C7.16251 6.2875 7.15626 6.18125 7.16251 6.06875L7.22501 6.01875C7.22501 6.01875 7.26251 6.05 7.26876 6.01875C7.27501 5.98125 7.26876 5.94375 7.24376 5.91875H7.22501L7.18126 5.9125L7.20626 5.675L7.25001 5.6375L7.28126 5.575L7.30626 5.475C7.31876 5.45625 7.33751 5.4375 7.36251 5.425L7.38126 5.33125L7.37501 5.26875L7.38126 5.24375L7.40001 5.20625C7.40626 5.1875 7.40001 5.1625 7.38126 5.15625C7.38126 5.15625 7.38126 5.15625 7.37501 5.15625H7.36876L7.33751 5.24375C7.33126 5.14375 7.25626 5.08125 7.25626 4.96875L7.29376 4.9375L7.31251 4.91875C7.31251 4.91875 7.35001 4.95 7.35626 4.91875C7.36251 4.88125 7.35626 4.84375 7.33126 4.81875H7.31251H7.29376L7.27501 4.8C7.27501 4.75625 7.26876 4.7125 7.25626 4.66875L7.47501 4.61875C7.79376 4.54375 8.21251 4.44375 8.59376 4.375C8.65626 4.35 8.72501 4.33125 8.79376 4.30625C8.91876 4.25 9.06876 4.29375 9.15001 4.40625L9.30626 4.35L9.45626 4.3375C9.45626 4.3375 9.38751 4.39375 9.46251 4.39375C9.52501 4.4 9.58751 4.38125 9.63751 4.34375C9.73751 4.2875 9.55001 4.30625 9.63126 4.28125C9.74376 4.25625 9.85626 4.24375 9.97501 4.24375C10.0563 4.24375 10.1438 4.23125 10.225 4.21875C10.3438 4.2 10.4188 4.21875 10.525 4.20625L10.7438 4.18125L10.8813 4.1875C11.0188 4.2 11.15 4.225 11.2875 4.25C11.3625 4.2625 11.6313 4.275 11.6375 4.325C11.6438 4.375 11.8125 4.40625 11.9375 4.38125L11.9313 4.44375L12.2063 4.48125L12.4438 4.5375L12.475 4.55L12.4625 4.6125L12.6625 4.6875H12.7563C12.8438 4.7375 12.925 4.79375 13.0063 4.85625L13.025 4.93125C13.2375 4.90625 13.45 4.9125 13.6625 4.9375C13.8 4.9625 13.9313 4.9875 14.0688 5.025L14.1813 5.05625L14.4063 5.1125L14.5813 5.14375L14.725 5.2125C14.725 5.2125 14.6688 5.21875 14.6875 5.24375C14.6938 5.25 14.7 5.25625 14.7063 5.2625C14.7313 5.28125 14.7563 5.2875 14.7875 5.3C14.825 5.30625 14.8625 5.30625 14.9063 5.30625C15.0313 5.30625 14.8438 5.23125 14.9313 5.24375C15.05 5.28125 15.1688 5.325 15.2813 5.38125C15.3688 5.41875 15.4563 5.45 15.5438 5.475C15.675 5.5125 15.7438 5.5625 15.8625 5.6L16.1 5.675L16.2188 5.71875H16.1938C16.1063 5.71875 16.025 5.7375 15.9375 5.75C15.8438 5.76875 15.75 5.79375 15.6563 5.81875L15.6375 5.75625C15.5188 5.83125 15.35 5.875 15.3188 5.84375C15.2938 5.8125 15.0313 5.91875 14.9563 5.94375C14.8188 5.99375 14.6813 6.05 14.55 6.11875L14.425 6.2C14.3625 6.24375 14.3 6.29375 14.2438 6.35C14.1625 6.43125 14.0875 6.46875 14 6.55625C13.9125 6.64375 13.9 6.68125 13.8188 6.75C13.725 6.83125 13.6438 6.925 13.5813 7.03125C13.5438 7.10625 13.6688 6.95625 13.6313 7.06875C13.5938 7.1875 13.5938 7.18125 13.5375 7.2375C13.4813 7.29375 13.4938 7.20625 13.4938 7.20625L13.3938 7.33125L13.3313 7.49375L13.2 7.81875C13.15 7.95 13.1125 8.0875 13.0813 8.225C13.0688 8.30625 13.0625 8.38125 13.0625 8.4625C12.9188 8.81875 12.8375 9.2 12.825 9.5875H12.8938C12.8813 9.9125 12.9125 10.2313 12.9813 10.55L13 10.6563L13.275 11.1438L13.4625 11.4438C13.4625 11.4438 13.3438 11.2938 13.3438 11.3563L13.35 11.3625L13.475 11.5375C13.55 11.6125 13.575 11.6438 13.5563 11.6563L13.5375 11.6688L13.6375 11.7813L13.7875 11.8938L13.9188 12.0313L14.2188 12.3C14.2438 12.3375 14.2688 12.375 14.2938 12.4125C14.3563 12.4875 14.3938 12.4563 14.3938 12.4563L14.2875 12.3125C14.4375 12.45 14.6063 12.5875 14.7938 12.7313L14.8563 12.8438C14.8563 12.8438 14.7813 12.8375 14.8313 12.875C14.8875 12.925 14.9563 12.9625 15.0313 12.975L15.0438 12.9563L15.0938 12.9313C15.1938 12.9938 15.3063 13.0438 15.4125 13.0938C15.35 13.0938 15.2875 13.0938 15.2313 13.1H15.1875C15.0625 13.1813 14.925 13.25 14.7813 13.3L14.775 13.2938C14.8 13.275 14.8375 13.2438 14.8063 13.2313H14.8L14.7375 13.2625L14.6875 13.225L14.4688 13.1L14.4313 13.075C14.3125 13.1125 14.1063 12.9 14.1063 12.9C14.1063 12.9 14.3125 12.8875 14.0625 12.7875C13.9125 12.725 13.75 12.7063 13.5938 12.7375C13.4 12.7063 13.2063 12.65 13.025 12.5625C12.875 12.4813 12.7 12.45 12.5313 12.475C12.2813 12.4438 12.025 12.4375 11.775 12.425L11.5938 12.4625V12.4L11.5813 12.3938L11.4813 12.3688L11.3625 12.3625V12.3C11.3313 12.3625 11.2563 12.3438 11.2563 12.3ZM11.3813 14.5688C11.4063 14.5688 11.425 14.5688 11.4438 14.575C11.4188 14.5875 11.3938 14.5938 11.3625 14.6063C11.3563 14.5813 11.3375 14.575 11.3625 14.5625H11.3813V14.5688ZM29.9375 20.2625C29.9313 20.275 29.9375 20.2813 29.9375 20.2938C29.9375 20.3125 29.9188 20.3188 29.925 20.3313C29.9313 20.3438 29.9313 20.35 29.925 20.3625L29.9125 20.3813C29.8938 20.3938 29.8688 20.4 29.8438 20.4063C29.8375 20.4063 29.8188 20.4438 29.775 20.425C29.7313 20.4063 29.7125 20.4188 29.7313 20.4563L29.675 20.4188L29.65 20.4563L29.6125 20.475L29.5563 20.4313H29.5063V20.4563C29.4688 20.45 29.4375 20.4375 29.4063 20.4188C29.4063 20.4438 29.4313 20.45 29.45 20.4938C29.4813 20.55 29.5125 20.6063 29.55 20.6563C29.5188 20.6563 29.4938 20.6688 29.475 20.6938C29.4313 20.7313 29.475 20.6938 29.4563 20.775C29.4375 20.8563 29.4938 20.9125 29.425 20.9188C29.3875 20.925 29.3688 20.9313 29.35 20.9813C29.3563 21 29.3563 21.025 29.3563 21.0438L29.3125 21.075C29.0813 21.1625 28.7813 21.3 28.5125 21.425L28.3813 21.525C28.2875 21.5938 28.1625 21.5813 28.0813 21.5L27.9875 21.5875L27.8813 21.6375C27.8813 21.6375 27.9125 21.5688 27.8563 21.5875C27.8 21.6063 27.8 21.6063 27.75 21.6875C27.7 21.7688 27.825 21.7 27.7813 21.7438C27.7125 21.8 27.6313 21.8438 27.55 21.875C27.4938 21.9 27.4375 21.9375 27.3875 21.975C27.3125 22.025 27.2563 22.0438 27.1875 22.0875C27.1375 22.125 27.1063 22.15 27.05 22.1875L26.9563 22.2375C26.8438 22.2875 26.7063 22.325 26.6563 22.35C26.6 22.3688 26.425 22.475 26.3938 22.4438C26.3625 22.4125 26.2438 22.4625 26.175 22.5438L26.1438 22.4875L25.9563 22.5938L25.7813 22.675L25.7563 22.6813L25.725 22.625L25.5625 22.675L25.5063 22.725C25.425 22.7375 25.3375 22.7438 25.2563 22.7438L25.2 22.7C25.1 22.8375 24.9875 22.9688 24.8688 23.0875C24.8188 23.1313 24.725 23.2063 24.6188 23.2875L24.55 23.3375C24.5063 23.3688 24.4563 23.4063 24.4188 23.4438L24.325 23.5313L24.2188 23.575C24.2188 23.575 24.2375 23.5313 24.2125 23.525C24.2063 23.525 24.2 23.525 24.1938 23.525C24.175 23.5313 24.1563 23.5375 24.1375 23.55C24.1188 23.5688 24.1 23.5938 24.0875 23.6188C24.0375 23.6938 24.1625 23.6313 24.1188 23.675C24.05 23.7313 23.9688 23.775 23.8875 23.8063C23.8313 23.8313 23.775 23.8688 23.725 23.9063C23.65 23.9563 23.5938 23.975 23.525 24.0188C23.475 24.0563 23.4438 24.0813 23.3875 24.1188L23.2938 24.1688C23.2063 24.2063 23.1063 24.2375 23.0438 24.2625L23 24.2813C22.925 24.325 22.85 24.3563 22.7688 24.3813L22.675 24.4813C22.625 24.525 22.5313 24.6 22.425 24.6813C22.3563 24.7313 22.2875 24.7813 22.225 24.8438L22.1313 24.9313L22.025 24.9813C22.025 24.9813 22.0563 24.9125 22 24.9313C21.9438 24.95 21.9438 24.95 21.8938 25.025C21.8438 25.1 21.9688 25.0375 21.925 25.0813L21.9063 25.0938C21.8375 25.1375 21.7688 25.1813 21.6938 25.2125C21.6375 25.2375 21.5813 25.275 21.5313 25.3125C21.4563 25.3625 21.4 25.3813 21.3313 25.425C21.2813 25.4625 21.25 25.4875 21.1938 25.525L21.1813 25.5313L21.1625 25.55C21.0938 25.6 21.025 25.65 20.9625 25.7125L20.8688 25.8L20.7625 25.85C20.7625 25.85 20.7938 25.7813 20.7375 25.8C20.6813 25.8188 20.6813 25.8188 20.6313 25.9C20.5813 25.9813 20.7063 25.9125 20.6625 25.9563C20.5938 26.0125 20.5125 26.0563 20.4313 26.0875C20.375 26.1125 20.3188 26.15 20.2688 26.1875C20.1938 26.2375 20.1375 26.25 20.0688 26.3C20.0188 26.3375 19.9875 26.3625 19.9313 26.4L19.8125 26.5C19.7 26.55 19.5625 26.5875 19.5125 26.6125C19.4625 26.6375 19.2813 26.7375 19.25 26.7063C19.2188 26.6688 19.1 26.725 19.0313 26.8063L19 26.75L18.8125 26.8563L18.6375 26.9375L18.6125 26.9438L18.5813 26.8813L18.4188 26.9313L18.3625 26.9438C18.2813 26.9563 18.2 26.9625 18.125 26.9625C18.0563 27.0188 18.1125 27.0188 18.0563 27.0938C18.0313 27.1313 18.0188 27.1688 18.0125 27.2125C17.9375 27.2438 17.8563 27.275 17.775 27.3L17.725 27.3125C17.65 27.4375 17.2938 27.4375 17.2938 27.4375C17.2938 27.4375 17.4688 27.2938 17.1625 27.3875C16.975 27.4438 16.8 27.525 16.6375 27.6313C16.4063 27.7063 16.1688 27.7375 15.925 27.7125C15.725 27.6875 15.5188 27.7 15.3188 27.7438C15.0188 27.7563 14.7188 27.7438 14.425 27.7063L14.2 27.7125L14.2125 27.65L14.2 27.6375L14.0813 27.5875L13.9438 27.55L13.9625 27.4875C13.8875 27.5063 13.8063 27.4688 13.8125 27.425C13.8188 27.3813 13.6813 27.3375 13.65 27.325C13.6125 27.3125 13.5375 27.25 13.4563 27.2063L13.3875 27.175C13.35 27.1625 13.3063 27.1563 13.2625 27.15C13.2 27.1375 13.1625 27.1063 13.1 27.0875C13.05 27.0813 13.0063 27.0688 12.9625 27.05C12.9 27.0125 12.8375 26.9875 12.7688 26.975C12.7188 26.975 12.825 27.0188 12.7438 27.0375C12.6688 27.0563 12.6688 27.05 12.625 27.025C12.5875 27 12.6438 26.975 12.6438 26.975L12.5625 26.9313H12.4563C12.3813 26.925 12.3125 26.9125 12.2438 26.8938C12.1563 26.875 12.0688 26.8625 11.975 26.85C11.925 26.85 11.8688 26.85 11.8188 26.8563C11.6125 26.7625 11.3938 26.675 11.1563 26.5875L11.1375 26.6563L10.575 26.4563L10.5125 26.4313C10.3188 26.4375 10.125 26.425 9.93751 26.3938C9.93751 26.3938 10.0625 26.3938 10.0375 26.3563H10.0313L9.89376 26.3438C9.82501 26.3438 9.8 26.3438 9.80626 26.3188L9.81251 26.2938L9.71876 26.2875C9.67501 26.3 9.63126 26.3063 9.58751 26.3063L9.45001 26.2875L9.15626 26.2563C9.13126 26.2375 9.10626 26.225 9.07501 26.2063C9.05001 26.1938 9.02501 26.1938 9.00626 26.2188C9.00626 26.2188 9.00001 26.225 9.00001 26.2313L9.10001 26.2875C8.96876 26.2625 8.83751 26.2438 8.70626 26.2125L8.65626 26.1375C8.65626 26.1375 8.70001 26.1063 8.66876 26.1C8.62501 26.0813 8.58126 26.0813 8.53751 26.1L8.53126 26.1188L8.50626 26.1438C8.41251 26.1125 8.31251 26.0813 8.22501 26.0438L8.19376 25.9875L8.12501 25.9375L8.00626 25.8813C7.98751 25.8625 7.96876 25.8375 7.95626 25.8063L7.84376 25.7563L7.76876 25.7438L7.74376 25.725L7.70001 25.6938C7.68126 25.675 7.64376 25.675 7.62501 25.7V25.7063L7.72501 25.7688C7.59376 25.7375 7.49376 25.7813 7.35001 25.7375L7.31876 25.6813L7.30001 25.6563C7.30001 25.6563 7.35001 25.6313 7.31251 25.6188C7.26876 25.5938 7.21876 25.5875 7.16876 25.6L7.16251 25.6188L7.15001 25.6313L7.13126 25.65C7.08751 25.6375 7.03751 25.625 6.98751 25.625C6.98751 25.575 6.99376 25.5313 7.00626 25.4813L7.01251 25.45C6.93751 25.3813 7.06876 25.1813 7.06876 25.1813C7.06876 25.1813 7.15001 25.3 7.16251 25.1125C7.16876 24.9938 7.13126 24.875 7.06251 24.7813C7.03126 24.6375 7.04376 24.4813 7.09376 24.3438C7.13751 24.2125 7.13751 24.0688 7.09376 23.9375L7.05001 23.3313L7.00001 23.1875H7.06876L7.07501 23.175L7.09376 23.0938V23H7.15626C7.11876 22.9563 7.13126 22.9 7.17501 22.9C7.21876 22.9 7.21876 22.8063 7.22501 22.7813C7.23126 22.7563 7.26251 22.7 7.27501 22.6438V22.6C7.27501 22.575 7.26876 22.55 7.26251 22.525C7.25626 22.4875 7.26876 22.4625 7.26251 22.425C7.25001 22.4 7.25001 22.3688 7.25626 22.3438C7.25626 22.3125 7.27501 22.2563 7.25626 22.2313C7.23751 22.2063 7.23126 22.2688 7.19376 22.2313C7.15001 22.1938 7.15001 22.1938 7.16251 22.1688C7.17501 22.1438 7.21876 22.1688 7.21876 22.1688L7.23126 22.1188L7.20001 22.0625C7.18126 22.025 7.16876 21.9875 7.16251 21.95C7.15001 21.9063 7.13751 21.8563 7.11251 21.8125L7.05626 21.7375C7.09376 21.6125 7.12501 21.4875 7.15001 21.3625H7.08126L7.13751 21.05L7.15001 21.0188C7.09376 20.9313 7.06251 20.825 7.05001 20.725C7.05001 20.725 7.08126 20.7875 7.11251 20.7688L7.08126 20.6938C7.06251 20.6563 7.05626 20.6438 7.08126 20.6438H7.10626L7.08751 20.5938C7.06876 20.575 7.05001 20.55 7.03126 20.5313L7.01876 20.4563L6.97501 20.3063C6.98751 20.2938 6.99376 20.275 7.00001 20.2563C7.01251 20.2188 6.96251 20.2188 6.96251 20.2188L6.93126 20.2813C6.91876 20.2 6.91876 20.125 6.91251 20.0438L6.97501 20.0063C6.97501 20.0063 7.01251 20.0313 7.01876 20.0063C7.02501 19.975 7.01251 19.95 6.98751 19.9313H6.96876L6.92501 19.9188L6.94376 19.7438L6.98751 19.7125L7.01876 19.6625L7.03751 19.5875C7.05001 19.5688 7.06876 19.5563 7.09376 19.55L7.10626 19.4813L7.09376 19.4375L7.10626 19.4188L7.11876 19.3875C7.13126 19.3625 7.10626 19.35 7.08751 19.35H7.08126L7.05001 19.4125C7.04376 19.3375 6.96251 19.2938 6.96251 19.2125L7.00001 19.1875L7.01876 19.175C7.01876 19.175 7.05626 19.1938 7.06251 19.175C7.06876 19.1438 7.05626 19.1188 7.03126 19.1H7.01251H6.99376L6.96876 19.0938C6.96876 19.0438 6.92501 19 6.93126 18.95V18.925L6.85001 18.8625L6.88126 18.8125L6.86251 18.7938C6.88751 18.775 6.90626 18.75 6.91876 18.7188L6.96876 18.7063L7.05001 18.65C7.15001 18.5875 7.25001 18.75 7.25001 18.75L7.30626 18.6938L7.37501 18.675C7.37501 18.675 7.36251 18.7313 7.40001 18.725C7.43751 18.725 7.43751 18.725 7.46251 18.6625C7.49376 18.6 7.40626 18.6313 7.43751 18.6C7.48126 18.5688 7.53126 18.55 7.58126 18.5375C7.61876 18.525 7.65001 18.5063 7.68126 18.4875C7.72501 18.4563 7.76876 18.4625 7.81251 18.4375C7.83751 18.4188 7.86876 18.4 7.90001 18.3875L7.96876 18.3625C8.04376 18.3438 8.13126 18.3438 8.16251 18.3375C8.19376 18.3313 8.31251 18.2813 8.33126 18.3188C8.35626 18.3563 8.43126 18.3438 8.47501 18.2813L8.50001 18.3438L8.61876 18.2938L8.73126 18.2688H8.75001L8.77501 18.3313H8.87501L8.90626 18.3C8.96251 18.3125 9.01876 18.325 9.07501 18.3438L9.11876 18.4C9.175 18.3 9.24376 18.2125 9.31876 18.1313C9.36876 18.0875 9.41876 18.05 9.47501 18.0125L9.51876 17.9813C9.55001 17.9625 9.57501 17.9375 9.60001 17.9188L9.65626 17.8625L9.72501 17.85C9.72501 17.85 9.71876 17.8813 9.73126 17.8938H9.74376C9.76251 17.8938 9.76876 17.8938 9.78126 17.8813C9.79376 17.8688 9.80626 17.85 9.81251 17.8313C9.84376 17.775 9.76251 17.8 9.78751 17.7688C9.83126 17.7375 9.88126 17.7188 9.93126 17.7063C9.96876 17.6938 10 17.675 10.0313 17.6563C10.0813 17.625 10.1188 17.6313 10.1625 17.6C10.1875 17.5813 10.2188 17.5625 10.25 17.55L10.3125 17.5313C10.3688 17.5188 10.4188 17.5125 10.475 17.5125H10.5063C10.5563 17.4938 10.6063 17.4813 10.6563 17.4813L10.7125 17.4125C10.7625 17.3688 10.8125 17.3313 10.8688 17.2938C10.9188 17.2688 10.9625 17.2375 11 17.2L11.0563 17.1438L11.125 17.125C11.125 17.125 11.1125 17.1813 11.1438 17.175C11.175 17.1688 11.1813 17.175 11.2125 17.1125C11.2438 17.05 11.1625 17.0813 11.1875 17.05L11.2 17.0438C11.2438 17.0188 11.2875 17 11.3375 16.9938C11.375 16.9813 11.4063 16.9625 11.4375 16.9438C11.4875 16.9125 11.525 16.9188 11.5625 16.8938C11.5938 16.875 11.6188 16.8563 11.65 16.8375H11.6563L11.6688 16.8313C11.7125 16.8063 11.7563 16.775 11.7938 16.7375L11.85 16.6813L11.9188 16.6688C11.9188 16.6688 11.9063 16.725 11.9375 16.7188C11.975 16.7125 11.975 16.7188 12 16.6563C12.0313 16.5938 11.95 16.625 11.975 16.5938C12.0188 16.5625 12.0688 16.5438 12.1188 16.5313C12.1563 16.5188 12.1875 16.5 12.2188 16.4813C12.2688 16.45 12.3063 16.4563 12.35 16.4313C12.375 16.4125 12.4063 16.3938 12.4375 16.375L12.5 16.3563C12.575 16.3375 12.6625 16.3375 12.6938 16.3313C12.725 16.325 12.8438 16.275 12.8625 16.3125C12.8813 16.35 12.9625 16.3375 13.0063 16.275L13.0313 16.3375L13.15 16.2875L13.2625 16.2625H13.2813L13.3063 16.325H13.4063L13.4375 16.2938C13.4938 16.3063 13.5438 16.3188 13.6 16.3375C13.6438 16.3063 13.6063 16.2938 13.6375 16.2375C13.6625 16.1688 13.675 16.0938 13.6688 16.0188C13.725 16.0125 13.775 16 13.8313 15.9813C13.8438 16 13.8625 16.0125 13.875 16.0313L13.9375 15.9688L14.0125 15.95C14.0125 15.95 13.9938 16.0063 14.0313 16C14.0688 15.9938 14.0688 16 14.1 15.9375C14.1313 15.875 14.0438 15.9063 14.075 15.875C14.125 15.8438 14.175 15.8188 14.2313 15.8125C14.2688 15.8 14.3063 15.7813 14.3375 15.7563C14.3875 15.725 14.4313 15.7313 14.475 15.7C14.5063 15.6813 14.5375 15.6625 14.5688 15.6438L14.6313 15.625C14.7063 15.6063 14.8 15.6063 14.8313 15.6C14.8625 15.5938 14.9875 15.55 15.0063 15.5875C15.025 15.6313 15.1063 15.6125 15.15 15.5563L15.1688 15.6188L15.2875 15.5813L15.3875 15.5688H15.4L15.4188 15.6313L15.4813 15.65L15.5125 15.625C15.5625 15.6438 15.6063 15.675 15.6438 15.7L15.6688 15.7625C15.7188 15.6813 15.7875 15.6125 15.8625 15.55C15.9063 15.525 15.95 15.5 16 15.4813L16.0375 15.4688C16.0625 15.4625 16.0875 15.45 16.1125 15.4375L16.1688 15.4L16.2188 15.4125C16.2188 15.4125 16.2063 15.4438 16.2125 15.4563C16.2125 15.4625 16.2188 15.4625 16.2188 15.4625C16.2313 15.4688 16.2375 15.4688 16.2438 15.4625C16.2563 15.45 16.2688 15.4438 16.275 15.4313C16.3125 15.3938 16.25 15.3813 16.275 15.3688C16.2938 15.3563 16.3188 15.3563 16.3375 15.3688C16.35 15.375 16.35 15.3688 16.3688 15.3625C16.3813 15.3563 16.3875 15.375 16.4063 15.3688H16.4375L16.45 15.3813V15.4L16.4375 15.4375H16.45L16.4688 15.4313V15.45L16.475 15.4625C16.5313 15.425 16.4438 15.5625 16.55 15.4375H16.5688H16.6063L16.6 15.4563C16.5813 15.4625 16.5625 15.4688 16.55 15.475C16.5438 15.4813 16.5375 15.4813 16.5813 15.4813C16.625 15.4813 16.625 15.4625 16.6438 15.4625H16.65C16.6625 15.4688 16.6563 15.4938 16.65 15.5063C16.6438 15.5188 16.65 15.525 16.6625 15.55C16.675 15.575 16.6563 15.5875 16.6625 15.6125C16.6688 15.6313 16.675 15.65 16.675 15.6688V15.675V15.6875C16.6813 15.7188 16.6875 15.7563 16.6938 15.7875L16.7125 15.85L16.6875 15.9C16.6875 15.9 16.65 15.8625 16.6375 15.8875C16.6188 15.9125 16.6188 15.9125 16.65 15.9625C16.6813 16.0125 16.7063 15.95 16.7125 15.9813C16.7125 16.025 16.6938 16.075 16.6688 16.1125C16.6563 16.1438 16.6438 16.1813 16.6438 16.2125C16.6375 16.2563 16.6125 16.275 16.6 16.3125C16.5938 16.3375 16.5875 16.3625 16.5813 16.3875L16.5563 16.4313C16.5188 16.4688 16.4813 16.5 16.4438 16.5313C16.425 16.55 16.375 16.6313 16.3313 16.6063C16.2938 16.5813 16.25 16.625 16.25 16.6813L16.2 16.6438L16.1375 16.7188L16.0625 16.775H16.05L16 16.7313L15.9188 16.7625L15.9063 16.8C15.8563 16.8063 15.8063 16.8063 15.7625 16.8C15.7438 16.8375 15.775 16.8438 15.775 16.9V16.9188C15.7125 16.9688 15.6625 17.025 15.6313 17.0938C15.525 17.175 15.4 17.2313 15.2688 17.25C15.1563 17.2625 15.05 17.3188 14.9813 17.4125L14.5625 17.6875L14.4813 17.7875L14.45 17.7313H14.4375L14.3688 17.75L14.325 17.7813L14.2938 17.725C14.2813 17.775 14.2313 17.7875 14.2063 17.75C14.1813 17.7125 14.1188 17.75 14.1 17.75C14.0813 17.75 14.025 17.75 13.975 17.7563L13.9375 17.7688C13.9188 17.7813 13.9063 17.7938 13.8938 17.8125C13.8688 17.8313 13.8438 17.8313 13.8188 17.85C13.7938 17.875 13.7875 17.8813 13.7625 17.8875C13.7375 17.8938 13.6875 17.9063 13.6813 17.9313C13.6688 17.9563 13.7188 17.9375 13.7125 17.9875C13.7063 18.0375 13.7063 18.0375 13.6813 18.0375C13.6563 18.0375 13.6563 17.9875 13.6563 17.9875L13.6125 17.9938L13.5875 18.0438C13.5688 18.075 13.55 18.1 13.525 18.1188C13.4938 18.15 13.4688 18.1813 13.45 18.2125L13.4188 18.2875C13.3125 18.3 13.2063 18.3188 13.1 18.3438L13.1313 18.4063L12.875 18.4688H12.8438C12.8063 18.55 12.7438 18.6188 12.6688 18.6688C12.6688 18.6688 12.7 18.6188 12.675 18.6L12.6313 18.6438C12.6125 18.675 12.6063 18.6813 12.5938 18.6625L12.5813 18.6438L12.55 18.675C12.5438 18.7 12.5375 18.725 12.525 18.7438L12.475 18.7813L12.3813 18.875C12.3688 18.8688 12.35 18.8688 12.3313 18.8688C12.3 18.8688 12.3188 18.9188 12.3188 18.9188H12.3813C12.325 18.9563 12.2688 18.9875 12.2125 19.0125L12.1563 18.975C12.1563 18.975 12.1563 18.9313 12.1375 18.9375C12.1125 18.9438 12.1 18.9625 12.0938 18.9875L12.1 19.0063L12.1125 19.05C12.0688 19.0688 12.0188 19.0813 11.975 19.0938L11.9375 19.0625L11.8875 19.05L11.8188 19.0563C11.8 19.05 11.7813 19.0375 11.7688 19.0188L11.7063 19.0313L11.6813 19.0563H11.6625H11.6313C11.6063 19.0563 11.6125 19.0813 11.6125 19.0938V19.1H11.675C11.6188 19.1313 11.6188 19.2188 11.5563 19.25L11.5188 19.225L11.5 19.2125C11.5 19.2125 11.5 19.1688 11.4813 19.175C11.4563 19.1813 11.4375 19.2 11.4375 19.225L11.4438 19.2438V19.2625L11.45 19.2875C11.4125 19.3 11.3938 19.3563 11.3563 19.3688L11.3375 19.375L11.3188 19.475L11.2688 19.4625L11.25 19.5813C11.2313 19.575 11.2125 19.5625 11.2 19.5438C11.1688 19.5438 11.1813 19.6375 11.1625 19.6438L11.1188 19.65C11.1375 19.7438 11.0688 19.6063 11.0938 19.6875C11.0938 19.6875 11.0563 19.6688 11.0375 19.8188C11.025 19.875 11.025 19.9313 11.0375 19.9875C11.0375 20.0188 11.0375 20.05 11.0438 20.0813C11.0563 20.1625 11.1063 20.2188 11.1563 20.2125C11.2 20.2 11.2188 20.3313 11.2188 20.3313C11.2375 20.3563 11.275 20.3688 11.3063 20.3563C11.3563 20.3313 11.325 20.4563 11.3 20.5188C11.275 20.5813 11.3625 20.7188 11.375 20.75C11.3875 20.7813 11.4125 21.0313 11.4875 21.0375C11.5375 21.0438 11.5813 21.025 11.6188 20.9938C11.6188 20.9938 11.6563 21.1688 11.75 21.1688H11.8C11.8875 21.2063 11.9813 21.2438 12.075 21.2688L12.1438 21.2563C12.2313 21.25 12.225 21.4375 12.225 21.4375L12.2813 21.4125L12.3313 21.4313C12.3313 21.4313 12.3 21.4688 12.325 21.4875C12.35 21.5 12.35 21.5 12.3875 21.4688C12.4313 21.4313 12.3688 21.4188 12.4 21.4063C12.4313 21.3938 12.4813 21.4125 12.5125 21.425C12.5375 21.4313 12.5688 21.4375 12.5938 21.4313C12.6313 21.4313 12.6563 21.45 12.6938 21.45H12.7688L12.8125 21.4625C12.8563 21.4875 12.8938 21.5125 12.9375 21.5375C12.9625 21.55 13.05 21.5688 13.0375 21.6125C13.025 21.6563 13.0813 21.6813 13.1375 21.6563L13.125 21.7188L13.2188 21.7375L13.2938 21.775L13.3 21.7875L13.2875 21.85L13.35 21.9L13.3875 21.8875C13.4125 21.925 13.4375 21.9688 13.4563 22.0188V22.0875C13.5313 22.0375 13.6188 22 13.7063 21.975C13.7563 21.9688 13.8063 21.9625 13.8563 21.9625H13.8938C13.925 21.9625 13.95 21.9625 13.9813 21.9563L14.0438 21.9375L14.0938 21.9625C14.0938 21.9625 14.0688 21.9875 14.075 22V22.0125C14.0875 22.0188 14.0938 22.025 14.1 22.025C14.1188 22.0188 14.1313 22.0125 14.1438 22C14.1938 21.9688 14.1313 21.9438 14.1625 21.9375C14.2063 21.9375 14.2438 21.95 14.2813 21.9688C14.3063 21.9813 14.3375 21.9875 14.3688 21.9813C14.4125 21.9813 14.4313 22.0063 14.4688 22.0125C14.4938 22.0125 14.5188 22.0125 14.55 22.0188L14.5938 22.0375C14.6313 22.0625 14.6688 22.0875 14.7 22.1125L14.7188 22.125C14.7375 22.1375 14.8063 22.1563 14.8188 22.1875L14.8875 22.1688C14.9375 22.1625 14.9938 22.1563 15.0438 22.1625C15.0875 22.1688 15.1313 22.1688 15.1688 22.1625L15.2313 22.15L15.2813 22.175C15.2813 22.175 15.2438 22.2063 15.2688 22.225C15.2938 22.2438 15.2938 22.2438 15.3438 22.2125C15.3938 22.1813 15.325 22.1563 15.3625 22.15H15.375C15.4125 22.1563 15.45 22.1625 15.4875 22.1813C15.5188 22.1938 15.5438 22.2 15.575 22.1938C15.6188 22.1938 15.6438 22.2188 15.6813 22.225C15.7063 22.225 15.7375 22.225 15.7625 22.2313H15.7688H15.7813C15.825 22.2375 15.8688 22.2313 15.9125 22.225L15.975 22.2063L16.025 22.2313C16.025 22.2313 15.9875 22.2688 16.0125 22.2875C16.0375 22.3063 16.0375 22.3063 16.0875 22.275C16.1375 22.2438 16.0688 22.2188 16.1063 22.2125C16.15 22.2125 16.1938 22.225 16.2313 22.2438C16.2625 22.2563 16.2938 22.2563 16.325 22.2563C16.3688 22.2563 16.3938 22.2813 16.4375 22.2813H16.5188L16.5688 22.3C16.625 22.325 16.6813 22.375 16.7063 22.3813C16.7313 22.3938 16.8313 22.4125 16.8313 22.4563C16.825 22.5 16.8875 22.5313 16.9438 22.5L16.9313 22.5625L17.0375 22.5875L17.1313 22.625L17.1438 22.6375L17.1313 22.7063L17.2063 22.7563L17.2438 22.7438C17.275 22.7813 17.3063 22.8188 17.3375 22.8625C17.3813 22.8625 17.3625 22.825 17.4125 22.7938C17.4625 22.7438 17.5063 22.6875 17.5375 22.625C17.5875 22.65 17.6375 22.6688 17.6938 22.6688C17.8063 22.6813 17.6938 22.6688 17.8313 22.6375C17.9688 22.6063 17.9375 22.5188 18.05 22.5688C18.1063 22.5938 18.1688 22.5938 18.225 22.5688L18.3 22.4938C18.4188 22.525 18.5375 22.55 18.6563 22.5625L18.7875 22.55C18.9438 22.5375 18.9813 22.725 18.9813 22.725L19.0813 22.6938L19.175 22.7063C19.175 22.7063 19.125 22.75 19.175 22.7625C19.225 22.775 19.2188 22.775 19.2875 22.7313C19.3563 22.6875 19.2375 22.6813 19.2875 22.6688C19.3563 22.6563 19.425 22.6563 19.4938 22.6688C19.5438 22.675 19.5938 22.6688 19.6438 22.6563C19.7125 22.6438 19.7625 22.6563 19.825 22.65L19.9563 22.625H20.0375L20.2875 22.6563C20.3313 22.6563 20.4875 22.6438 20.5063 22.6813C20.525 22.7188 20.625 22.725 20.6938 22.6813L20.7 22.7438L20.8688 22.7188H21.0188H21.0375L21.05 22.7813L21.1875 22.7938L21.2375 22.7625C21.3063 22.7813 21.375 22.8063 21.4375 22.8313L21.4688 22.8938C21.575 22.8 21.6875 22.7188 21.8063 22.6438C21.8563 22.6188 21.9375 22.575 22.0313 22.5438L22.0938 22.5188C22.1375 22.5 22.175 22.4813 22.2125 22.4563L22.2938 22.4L22.3813 22.3875C22.3813 22.3875 22.3625 22.4188 22.3813 22.4313C22.3875 22.4375 22.3938 22.4375 22.4 22.4375C22.4188 22.4375 22.4313 22.4375 22.4438 22.425C22.4625 22.4125 22.4813 22.3938 22.4938 22.375C22.5438 22.3188 22.4375 22.3438 22.475 22.3125C22.5375 22.2813 22.6 22.2625 22.6688 22.2563C22.7188 22.2438 22.7625 22.225 22.8063 22.2063C22.8688 22.175 22.9125 22.1813 22.975 22.15C23.0313 22.125 23.0438 22.1125 23.0875 22.0938L23.1625 22.0688C23.2313 22.0563 23.3125 22.05 23.3625 22.0438H23.4C23.4625 22.025 23.525 22.0125 23.5875 22.0125L23.6625 21.9438C23.7063 21.9125 23.775 21.8625 23.8625 21.8188C23.9188 21.7938 23.975 21.7563 24.025 21.7188L24.1 21.6563L24.1813 21.6375C24.1813 21.6375 24.1563 21.6938 24.2 21.6875C24.2438 21.6813 24.2438 21.6875 24.2875 21.6188C24.325 21.55 24.225 21.5938 24.2625 21.5563L24.275 21.55C24.325 21.5188 24.3813 21.5 24.4375 21.4875C24.4813 21.475 24.525 21.4563 24.5625 21.425C24.6188 21.3938 24.6625 21.3938 24.7188 21.3625C24.75 21.3375 24.7875 21.3188 24.825 21.3H24.8375L24.8563 21.2875C24.9125 21.2563 24.9625 21.2188 25.0125 21.1813L25.0813 21.1L25.1625 21.0813C25.1625 21.0813 25.1438 21.1375 25.1813 21.1313C25.225 21.125 25.225 21.125 25.2625 21.0625C25.3 21 25.2063 21.0375 25.2375 21C25.2875 20.9625 25.35 20.9375 25.4125 20.925C25.4563 20.9125 25.4938 20.8875 25.5313 20.8625C25.5875 20.8313 25.6313 20.8313 25.6813 20.8C25.7125 20.775 25.75 20.7563 25.7813 20.7375L25.85 20.7125C25.9375 20.6875 26.0375 20.6813 26.075 20.675C26.1125 20.6688 26.25 20.6063 26.275 20.6438C26.3 20.6813 26.3875 20.6563 26.4375 20.5938L26.4625 20.6563L26.6 20.5938L26.7313 20.5563H26.75L26.775 20.6188L26.8938 20.6063L26.9313 20.5688C26.9938 20.575 27.0563 20.5875 27.1125 20.6C27.1625 20.5625 27.125 20.55 27.1625 20.4875C27.1938 20.4188 27.2125 20.3438 27.2125 20.2625C27.2875 20.2563 27.3563 20.2313 27.425 20.2C27.575 20.1375 27.425 20.2 27.575 20.0875C27.725 19.975 27.6438 19.9188 27.8063 19.8875C27.8875 19.8813 27.9688 19.8438 28.025 19.7875C28.0313 19.7625 28.0438 19.7438 28.0563 19.725C28.15 19.725 28.2438 19.7125 28.3313 19.7L28.375 19.6625C28.4313 19.6188 28.5063 19.8 28.5063 19.8L28.5313 19.7563H28.5688C28.5688 19.7563 28.5625 19.8 28.5813 19.8063C28.6 19.8125 28.6 19.8125 28.6125 19.7625C28.625 19.7125 28.5813 19.725 28.5938 19.7C28.6063 19.675 28.65 19.6813 28.6688 19.6813C28.6938 19.6813 28.6938 19.675 28.7188 19.6625C28.7438 19.65 28.7625 19.6625 28.7813 19.65C28.7938 19.6375 28.8063 19.6313 28.825 19.625H28.8563C28.8875 19.6375 28.9125 19.65 28.9375 19.6625C28.95 19.6688 29 19.6625 29.0063 19.7063C29.0125 19.75 29.0375 19.7688 29.0563 19.725V19.7875H29.0875L29.1188 19.8063V19.8125L29.1125 19.875L29.1313 19.9125L29.1438 19.8938C29.15 19.9313 29.15 19.9688 29.15 20.0063L29.1375 20.0688C29.1563 20.0125 29.1875 19.9563 29.225 19.9125C29.2375 19.9 29.2563 19.8875 29.275 19.8813L29.2875 19.875C29.3 19.8688 29.3063 19.8688 29.3188 19.8563L29.35 19.8313C29.3563 19.8375 29.3563 19.8438 29.3563 19.85C29.35 19.8625 29.3375 19.875 29.3313 19.8875V19.9V19.9063L29.3563 19.8813C29.3875 19.85 29.375 19.8375 29.3875 19.825C29.4063 19.8125 29.4188 19.8313 29.4188 19.8438C29.425 19.8563 29.4313 19.85 29.45 19.85C29.4688 19.85 29.4625 19.8688 29.475 19.8688H29.5063L29.5125 19.8813C29.5125 19.9 29.5063 19.9125 29.5 19.925V19.9313C29.5 19.9375 29.5063 19.95 29.4875 19.9625L29.525 19.95C29.5438 19.9438 29.5625 19.9438 29.5813 19.95H29.6313H29.6813V19.9688C29.6625 19.975 29.6438 19.9813 29.6313 19.9875C29.625 19.9938 29.625 19.9938 29.6625 19.9875C29.7 19.9813 29.7063 19.9625 29.725 19.9625C29.7375 19.9625 29.7375 19.9813 29.7313 19.9938C29.725 20.0063 29.7313 20.0063 29.7438 20.0188C29.7563 20.0313 29.7375 20.0375 29.7438 20.05C29.75 20.0563 29.7625 20.0625 29.7625 20.0688C29.775 20.0813 29.7875 20.0938 29.8063 20.1063L29.8375 20.125L29.825 20.1438C29.825 20.1438 29.7813 20.1313 29.7688 20.1438C29.7563 20.1563 29.7563 20.15 29.8 20.1688C29.8375 20.1813 29.85 20.1688 29.8625 20.175C29.9625 20.225 29.9438 20.25 29.9375 20.2625Z" fill="#0041E6"/>
</svg>
