<svg width="32" height="32" viewBox="0 0 32 32" fill="none" xmlns="http://www.w3.org/2000/svg">
<g clip-path="url(#clip0_7664_50220)">
<path d="M31.4937 17.3062C31.4812 17.1625 31.4625 17.0625 31.45 16.9875C31.4625 16.8375 31.4812 16.6938 31.4875 16.5375C31.4937 16.1313 31.5 15.6562 31.5062 15.1562C31.4875 14.6625 31.4125 14.1438 31.3625 13.6625L31.2562 13.1313C31.075 12.4938 31.2437 12.2688 31.2437 12.2688L31.1062 11.8687L31.025 11.4875C31.025 11.4875 31.1187 11.6625 31.0875 11.4688C31.0625 11.3062 31 11.1562 30.9 11.025C30.7562 10.775 30.9187 11.2375 30.8312 11.05C30.7375 10.8625 30.6 10.45 30.525 10.2125C30.4625 10.0062 30.375 9.8125 30.2812 9.61875L29.9375 8.91875L29.6687 8.41875C29.6187 8.3125 29.5625 8.20625 29.5062 8.1L28.9812 7.18125C28.8937 7 28.4875 6.43125 28.4937 6.39375C28.375 6.14375 28.2062 5.925 28 5.74375L28.0562 5.69375C27.9062 5.5 27.75 5.3125 27.575 5.1375L27.1312 4.65625L27.075 4.59375L27.125 4.54375L26.75 4.1125C26.6875 4.05625 26.625 4.00625 26.55 3.9625L26.0187 3.3625L25.9937 3.25C25.5812 2.9875 25.0875 2.725 24.5187 2.4375C24.3125 2.33125 23.9875 2.10625 23.5687 1.93125L23.3 1.80625L22.7625 1.56875C22.6312 1.51875 22.5 1.45625 22.3687 1.4125L22.0062 1.25625C22.0062 1.25625 22.1312 1.26875 22.0875 1.23125C22.0687 1.21875 22.0562 1.20625 22.0312 1.2C21.9687 1.16875 21.9 1.1375 21.8375 1.11875C21.7812 1.1 21.7062 1.0875 21.5687 1.05625C21.2875 0.99375 21.7437 1.18125 21.5437 1.125C21.3437 1.06875 20.9437 0.88125 20.6937 0.8125C20.4437 0.75 20.3687 0.725 20.0625 0.65L19.3 0.44375L18.725 0.3625L18.3687 0.3C18.0437 0.24375 17.7 0.1375 17.475 0.125L17.3125 0.08125C17.15 0.0625 16.6437 0.0375 16.4562 0L16.0187 0.01875L14.9562 0.125C14.6625 0.13125 14.375 0.16875 14.0937 0.2375L13.6812 0.3375L13.2937 0.38125C13.2937 0.38125 13.4812 0.3 13.2812 0.31875C13.1187 0.325 12.9625 0.3625 12.8125 0.425C12.55 0.53125 13.025 0.4375 12.825 0.5L12.75 0.53125C12.5375 0.6 12.175 0.68125 11.9625 0.73125C11.7187 0.7875 11.6375 0.81875 11.3437 0.9L10.6062 1.16875L10.0812 1.38125L10.0312 1.4L9.94999 1.4375C9.68749 1.5625 9.43124 1.69375 9.18749 1.84375L8.83124 2.05625C8.59999 2.15625 8.47499 2.21875 8.47499 2.21875C8.47499 2.21875 8.61874 2.075 8.44374 2.1625C8.29999 2.23125 8.16874 2.325 8.05624 2.4375C7.84374 2.625 8.26249 2.375 8.09374 2.5C7.92499 2.625 7.55624 2.8375 7.33749 2.9625C7.16249 3.08125 6.98749 3.2125 6.83124 3.35L6.19999 3.8125C6.03749 3.9375 5.94999 4.04375 5.78749 4.19375L5.51874 4.43125C5.24374 4.65 4.97499 4.875 4.72499 5.11875C4.52499 5.35 4.29999 5.5625 4.06249 5.75625C3.99999 5.7375 3.69374 6.06875 3.53749 6.36875L3.48124 6.33125L3.04374 6.9125C2.90624 7.08125 2.78124 7.25625 2.66874 7.4375L2.61874 7.50625L2.54999 7.4625L2.21874 7.91875L2.10624 8.1375C1.92499 8.34375 1.79374 8.5625 1.65624 8.74375C1.54374 9.0125 1.63749 8.8875 1.55624 9.16875C1.49374 9.38125 1.46874 9.60625 1.47499 9.825C1.47499 9.825 1.34374 10.0875 1.08124 10.8062C0.837489 11.5312 1.04374 10.8 0.868739 11.6625C0.818739 12.125 0.749989 12.5813 0.649989 13.0312C0.562489 13.4062 0.512489 13.7875 0.487489 14.1687C0.487489 14.1687 0.518739 14.5562 0.537489 14.65C0.549989 14.8 0.568739 14.95 0.599989 15.0938C0.599989 15.0938 0.599989 15.1312 0.606239 15.1687C0.531239 15.2937 0.493739 15.4312 0.493739 15.575C0.462489 15.7937 0.443739 16.0125 0.449989 16.2313V17.5938C0.468739 18.0875 0.562489 18.5938 0.612489 19.075L0.718739 19.6C0.912489 20.2313 0.749989 20.4562 0.749989 20.4562L0.893739 20.85L0.981239 21.2313C0.981239 21.2313 0.881239 21.0562 0.924989 21.25C0.956239 21.4062 1.02499 21.5562 1.11874 21.6875C1.26249 21.9312 1.09374 21.475 1.18749 21.6625C1.28124 21.85 1.42499 22.2562 1.51249 22.4875C1.58124 22.6875 1.66874 22.8875 1.77499 23.0688L2.13749 23.7563L2.41874 24.2437C2.46874 24.35 2.53124 24.45 2.59999 24.55L3.14374 25.45C3.23124 25.6313 3.68124 26.1625 3.66874 26.2125C3.79374 26.4562 3.96874 26.675 4.18124 26.8438L4.12499 26.8937C4.28124 27.0812 4.44999 27.2563 4.63749 27.4188L5.09999 27.8813L5.15624 27.9438L5.10624 28C5.23749 28.1375 5.35624 28.2812 5.49999 28.4062L5.71249 28.5375L6.26249 29.1063L6.29374 29.2188C6.71249 29.4688 7.24374 29.6625 7.79999 29.9438C8.11249 30.1063 8.43749 30.2563 8.76874 30.3813L9.03749 30.4937L9.57499 30.7062C9.70624 30.7562 9.84374 30.7812 9.98124 30.8188L10.3437 30.9625C10.3437 30.9625 10.2187 30.95 10.2687 30.9875C10.2875 31 10.3062 31.0125 10.325 31.0187C10.3875 31.05 10.4562 31.075 10.5187 31.0938C10.575 31.1063 10.6437 31.1187 10.7875 31.1437C11.0687 31.1937 10.6062 31.0312 10.8125 31.075C11.0125 31.1188 11.425 31.2688 11.6687 31.325C11.9125 31.3813 11.9937 31.4062 12.2937 31.4688C12.5437 31.5375 12.8 31.5938 13.0562 31.625L13.6187 31.6875L13.9687 31.7437C14.2625 31.8062 14.5562 31.85 14.85 31.875L15.0062 31.8937C15.1687 31.9062 15.6625 31.9312 15.85 31.9688C15.9937 31.9625 16.1375 31.9438 16.2812 31.9188L17.3312 31.8125C17.5562 31.7938 17.7875 31.7625 18.0062 31.7125L18.1812 31.675L18.5875 31.575L18.975 31.5312C18.975 31.5312 18.7937 31.6125 18.9875 31.5938C19.15 31.5875 19.3062 31.5437 19.45 31.4625C19.7062 31.35 19.2375 31.4625 19.4312 31.3875L19.5062 31.3625C19.7187 31.2937 20.0687 31.2188 20.2875 31.1688C20.4937 31.125 20.7 31.0625 20.8937 30.9813L21.625 30.7125L22.1437 30.5L22.1937 30.4813L22.275 30.4375C22.8625 30.1313 23.0312 30.025 23.0312 30.025L23.3875 29.8125C23.5062 29.7625 23.625 29.7 23.7312 29.6375C23.7312 29.6375 23.5937 29.7812 23.7625 29.6938C23.9062 29.625 24.0375 29.5312 24.1437 29.4188C24.3562 29.2375 23.9437 29.475 24.1062 29.3563C24.2687 29.2313 24.6437 29.0312 24.85 28.8937C25.0562 28.7625 25.1125 28.6938 25.35 28.5063L25.9625 28.0438L26.3625 27.6562L26.625 27.425C26.9 27.2125 27.1625 26.9812 27.4062 26.7375C27.6062 26.5062 27.825 26.2938 28.0562 26.1063C28.125 26.125 28.4 25.7812 28.5687 25.4875L28.6312 25.5312L29.0625 24.9562C29.1937 24.7875 29.3125 24.6125 29.425 24.4312L29.475 24.3687L29.5437 24.4125L29.8687 23.95L29.975 23.7313C30.15 23.525 30.275 23.3062 30.4125 23.125C30.525 22.8563 30.4312 22.9812 30.5125 22.7062C30.575 22.4937 30.5937 22.275 30.5812 22.0562C30.5812 22.0562 30.7125 21.7937 30.9687 21.0812C31.2312 20.3687 31 21.0875 31.175 20.2313C31.3312 19.375 31.2062 19.6 31.3875 18.875C31.475 18.5063 31.525 18.125 31.55 17.75C31.55 17.7812 31.5125 17.3937 31.4937 17.3062ZM29.5687 17.5375C29.4875 17.975 29.3937 18.4062 29.2937 18.8687L29.0875 19.4375C28.9875 19.8 28.8625 20.1562 28.7 20.5L28.625 20.6688C28.4687 21.1875 28.2312 21.6812 27.9125 22.125C27.9125 22.125 28.1812 21.3875 27.6375 22.425L26.575 24.1938C26.4187 24.425 26.2437 24.6437 26.05 24.8438L25.4875 25.4438L24.8 26.0187C24.35 26.4 23.8812 26.675 23.5875 26.9375C23.275 27.175 23.0687 27.3062 23.0687 27.3062C22.1562 27.9 21.175 28.375 20.15 28.7313C19.9 28.8438 19.65 28.9062 19.4125 28.9937L19.3937 28.925L19.3375 28.9312L18.9062 29.0187C18.7437 29.0625 18.5812 29.0938 18.4187 29.1125L18.4062 29.0375C18.1875 29.1125 17.8812 29.1437 17.8562 29.0938C17.8437 29.0688 17.7437 29.075 17.625 29.0938C17.6125 29.0688 17.5937 29.05 17.575 29.0312L17.5125 28.9937C17.5562 28.9312 17.5937 28.8687 17.6187 28.8H17.5375L17.6 28.6375L17.6125 28.6187C17.5562 28.5812 17.5187 28.5312 17.5 28.4688C17.5 28.4688 17.5375 28.5 17.5687 28.4937L17.5437 28.4562C17.5187 28.4375 17.5187 28.4312 17.5437 28.4312H17.5687L17.55 28.4062C17.525 28.4 17.5062 28.3875 17.4875 28.3687L17.4687 28.3312L17.4187 28.25C17.4312 28.2437 17.4437 28.2375 17.45 28.225C17.4687 28.2063 17.4062 28.2062 17.4062 28.2062L17.375 28.2375C17.3625 28.2 17.3562 28.1562 17.3562 28.1187L17.425 28.1C17.425 28.1 17.4687 28.1125 17.475 28.1C17.4812 28.0875 17.4437 28.0625 17.4437 28.0625H17.4187H17.375C17.3812 28.0312 17.3875 28 17.3937 27.9688L17.4437 27.9562L17.4812 27.9312L17.5062 27.8875C17.525 27.875 17.5437 27.8687 17.5687 27.8687L17.5812 27.8312L17.5687 27.8125L17.5812 27.8062L17.6 27.7875C17.6125 27.775 17.5812 27.7687 17.5687 27.7687H17.5625L17.5312 27.8062C17.5187 27.7687 17.4312 27.7437 17.4312 27.7062L17.475 27.6938L17.5 27.6875C17.5 27.6875 17.5437 27.7 17.55 27.6875C17.5562 27.6625 17.5187 27.65 17.5187 27.65H17.475H17.45C17.45 27.625 17.4 27.6 17.4125 27.575V27.5625L17.3125 27.5L17.35 27.475L17.2375 27.4375C17.2562 27.425 17.2812 27.4188 17.3 27.4125C17.3062 27.3938 17.2125 27.3813 17.2187 27.3687L17.2312 27.3438C17.125 27.3375 17.3062 27.325 17.2062 27.325C17.2062 27.325 17.2437 27.3063 17.0937 27.2625C17.0375 27.2438 16.9812 27.2313 16.9187 27.225C16.8875 27.2188 16.85 27.2125 16.8125 27.2125C16.725 27.2062 16.6375 27.2188 16.6312 27.25C16.625 27.275 16.475 27.2625 16.475 27.2625C16.475 27.2625 16.4062 27.2687 16.4062 27.3062C16.4062 27.3438 16.2937 27.3 16.2375 27.2687C16.1437 27.2562 16.05 27.2562 15.9562 27.2687C15.9125 27.2687 15.6437 27.2312 15.6062 27.2687C15.5687 27.3062 15.5937 27.35 15.5937 27.35C15.5937 27.35 15.4 27.3313 15.35 27.3875L15.3062 27.4438C15.2562 27.5125 15.225 27.5938 15.2062 27.675L15.2312 27.7188C15.2562 27.7687 15.0375 27.7875 15.0375 27.7875L15.075 27.8188L15.0625 27.85C15.0625 27.85 15.0125 27.8375 15 27.85C14.9875 27.8625 14.9875 27.8688 15.0375 27.8875C15.0875 27.9062 15.0937 27.8688 15.1125 27.8875C15.1312 27.9062 15.1187 27.9375 15.1125 27.9562C15.1062 27.975 15.1125 27.9813 15.125 28.0063C15.1375 28.0312 15.1125 28.0438 15.125 28.0688C15.1312 28.0813 15.1375 28.1 15.1437 28.1125V28.1375C15.125 28.1688 15.1062 28.1938 15.0875 28.2188C15.0812 28.2375 15.0812 28.2875 15.0312 28.2938C14.9812 28.3 14.9625 28.3313 15.0062 28.3563H14.9312V28.4125L14.9125 28.4625L14.9062 28.4688H14.825L14.7812 28.5125L14.8 28.5312C14.7625 28.5562 14.7187 28.575 14.675 28.5938L14.6 28.6C14.6687 28.6313 14.7375 28.675 14.7937 28.725C14.8187 28.75 14.8375 28.775 14.85 28.8062L14.8625 28.825C14.8687 28.8438 14.8812 28.8562 14.8937 28.8687L14.9312 28.9L14.9125 28.925C14.8937 28.925 14.8812 28.925 14.8625 28.925H14.85C14.85 28.9312 14.8437 28.9375 14.85 28.9438C14.8625 28.95 14.875 28.9562 14.8875 28.9625C14.9375 28.9812 14.9437 28.95 14.9625 28.9625C14.9812 28.975 14.9625 29.0125 14.9625 29.0312C14.9625 29.05 14.9625 29.0562 14.975 29.0812V29.0875H14.9437C14.775 29.0875 14.4812 29.025 14.3375 29.025C14.1937 29.025 14.525 29.0813 14.3312 29.1C14.225 29.125 14.1125 29.1187 14.0062 29.0875C13.875 29.0562 14.0125 29.025 14.0125 29.025L13.75 28.975H13.4625C13.2625 28.9625 13.0687 28.9375 12.875 28.8875C12.5812 28.8313 12.3125 28.7875 12.1562 28.775C12.0187 28.7625 11.8875 28.7437 11.75 28.7125C11.125 28.4688 10.5187 28.1875 9.93749 27.8625L9.89999 27.9312C9.41249 27.6687 8.93749 27.3813 8.48124 27.0625C8.43124 27.0312 8.38124 26.9937 8.33124 26.9562C7.86874 26.7062 7.43124 26.4125 7.01874 26.0812C7.01874 26.0812 7.28749 26.2812 7.23749 26.1875L7.22499 26.175L6.93749 25.9438C6.78749 25.8375 6.73124 25.7875 6.74999 25.7687L6.76874 25.75L6.56874 25.5938C6.46249 25.5375 6.36249 25.4688 6.26874 25.4C6.17499 25.3062 6.08749 25.2062 5.99374 25.1125L5.41874 24.525L5.28124 24.3062C5.18749 24.1437 5.13124 24.1562 5.13124 24.1562C5.18749 24.2625 5.24374 24.3625 5.31249 24.4625C5.05624 24.1375 4.82499 23.7875 4.57499 23.425L4.51249 23.2125C4.51249 23.2125 4.61249 23.2875 4.54999 23.1875C4.49999 23.0625 4.42499 22.95 4.33749 22.85L4.31874 22.8625L4.25624 22.8438L3.82499 22L3.81874 21.8375L3.75624 21.5688L3.62499 21.1688C3.60624 21.1 3.59999 21.025 3.60624 20.95L3.48124 20.5875C3.44999 20.5187 3.43124 20.4438 3.40624 20.375L3.39374 20.2812L3.36874 20.1187C3.34374 19.9812 3.30624 19.9438 3.28124 19.9312H3.26874L3.33124 20.275C3.21874 19.8813 3.06874 19.675 2.94999 19.25C2.94999 19.2 2.94999 19.1562 2.96249 19.1L2.97499 19.025C2.97499 19.025 3.03749 19.1312 3.01874 19.0187C3.00624 18.8875 2.97499 18.75 2.92499 18.625H2.89999L2.87499 18.6063L2.84374 18.5812C2.80624 18.3062 2.71874 18.075 2.68124 17.8125L2.66874 17.7188V17.7125L2.73124 17.825L2.74374 17.9C2.76249 17.8312 2.79374 17.7625 2.83124 17.6938C2.84999 17.6688 2.86874 17.65 2.89374 17.6313L2.91249 17.6187C2.92499 17.6062 2.93749 17.6 2.94999 17.5812L2.97499 17.5438L2.99999 17.5562V17.6063V17.6187C3.00624 17.6187 3.01249 17.625 3.01249 17.6187C3.01874 17.6062 3.02499 17.5938 3.02499 17.575C3.03749 17.525 3.00624 17.525 3.02499 17.5C3.04374 17.4813 3.06874 17.4875 3.08124 17.5C3.09999 17.5125 3.10624 17.5 3.12499 17.4875C3.14374 17.475 3.15624 17.4937 3.17499 17.4875C3.18749 17.4812 3.19999 17.4688 3.21249 17.4688H3.23749C3.26249 17.4813 3.28124 17.5 3.29999 17.5125L3.31249 17.5187C3.32499 17.5187 3.35624 17.5187 3.36874 17.55L3.39374 17.5C3.41249 17.475 3.43749 17.4563 3.45624 17.4438C3.47499 17.4312 3.49374 17.4187 3.51249 17.4L3.53749 17.3625L3.56249 17.375C3.56249 17.375 3.54999 17.425 3.56249 17.4375C3.57499 17.45 3.57499 17.45 3.59374 17.4C3.61249 17.35 3.57499 17.35 3.59374 17.325C3.60624 17.3125 3.63124 17.325 3.64374 17.325C3.65624 17.325 3.66249 17.325 3.68749 17.3125C3.71249 17.3 3.71874 17.3188 3.73749 17.3125C3.74999 17.3062 3.76249 17.3 3.77499 17.2938C3.79374 17.2812 3.81249 17.2687 3.83124 17.25L3.85624 17.2125L3.88124 17.225C3.88124 17.225 3.86874 17.275 3.88124 17.2875C3.89374 17.3 3.89374 17.3 3.91249 17.25C3.93124 17.2 3.89999 17.1937 3.91249 17.175C3.92499 17.1562 3.95624 17.1687 3.96874 17.175C3.98749 17.1812 3.98749 17.175 4.01249 17.1625C4.03749 17.15 4.04374 17.1688 4.06249 17.1625C4.07499 17.1562 4.08749 17.15 4.09999 17.1437H4.12499C4.14999 17.1625 4.17499 17.1813 4.19374 17.2C4.20624 17.2 4.24999 17.2 4.25624 17.2563C4.25624 17.3125 4.28749 17.325 4.30624 17.2812V17.3563H4.35624L4.39999 17.375V17.3813V17.4625L4.43749 17.5L4.45624 17.475L4.50624 17.5875C4.52499 17.575 4.51249 17.5437 4.53124 17.4937C4.54999 17.425 4.56249 17.35 4.56874 17.2812C4.58749 17.3 4.61249 17.3125 4.63749 17.3125C4.68749 17.3125 4.63749 17.3125 4.69374 17.2625C4.74999 17.2125 4.73749 17.1125 4.78749 17.1562C4.81249 17.175 4.82499 17.1875 4.86249 17.1437L4.89374 17.05C4.90624 17.0187 4.91874 16.9937 4.92499 16.9625C4.92499 16.9625 4.94374 16.9437 4.94374 16.8C4.94374 16.6562 4.96874 16.8375 4.96874 16.7563C4.99374 16.5438 4.99374 16.325 4.98124 16.1125C4.96249 16.0125 4.96249 15.9188 4.97499 15.8188C4.98749 15.725 4.98124 15.8937 5.01249 15.5562C5.02499 15.4937 5.01874 15.425 5.00624 15.3687C4.98749 15.3375 4.96874 15.3 4.95624 15.2625C4.95624 15.1875 4.91874 15.2812 4.93124 15.1875C4.88749 15.1562 4.83749 15.125 4.78749 15.0938L4.73749 15.0312L4.64374 14.975L4.63124 14.9625C4.59374 15.0437 4.49374 14.8938 4.49374 14.8938C4.49374 14.8938 4.56249 14.8063 4.45624 14.7875C4.35624 14.7688 4.27499 14.8875 4.27499 14.8875C4.19999 14.9125 4.11874 14.8938 4.05624 14.8438C4.00624 14.7937 3.91874 14.7937 3.86874 14.8438L3.58749 14.9L3.52499 14.9563V14.8813V14.875L3.48749 14.8562H3.44374V14.7812C3.42499 14.825 3.39999 14.8125 3.39374 14.7625C3.38749 14.7125 3.34999 14.7125 3.33749 14.7063C3.31874 14.6875 3.29374 14.6687 3.27499 14.65H3.25624C3.24374 14.65 3.23749 14.6625 3.22499 14.6687C3.21249 14.675 3.19374 14.6625 3.17499 14.6687C3.15624 14.675 3.15624 14.6875 3.13749 14.6812C3.12499 14.675 3.09374 14.6625 3.08124 14.6812C3.06874 14.7 3.09999 14.7063 3.08124 14.7563C3.06249 14.8063 3.06874 14.8062 3.05624 14.7937C3.04374 14.7812 3.05624 14.7312 3.05624 14.7312L3.03124 14.7188L3.00624 14.7563C2.99374 14.775 2.97499 14.7937 2.95624 14.8062C2.93124 14.825 2.91249 14.8438 2.89374 14.8687L2.86249 14.9312C2.80624 14.8937 2.74374 14.8625 2.68124 14.8375V14.9187L2.53124 14.8687L2.51249 14.8562C2.48749 14.9125 2.44374 14.9563 2.38749 14.9875C2.39999 14.9688 2.40624 14.9437 2.39999 14.9187L2.37499 14.9375C2.37499 14.8375 2.37499 14.75 2.43124 14.7875C2.51249 14.2313 2.63749 13.6687 2.77499 13.0813L2.98124 12.5063C3.08124 12.1375 3.21249 11.7812 3.37499 11.4312L3.44999 11.2563C3.52499 10.9313 3.64999 10.625 3.83749 10.3438L4.18124 9.7875C4.18749 9.7875 3.89999 10.5312 4.46249 9.4875L5.54374 7.70625C5.70624 7.475 5.88749 7.25625 6.08749 7.05625C6.47499 6.61875 6.90624 6.23125 7.38124 5.8875C7.84999 5.525 8.31249 5.23125 8.61249 4.975L9.14374 4.6125C10.075 4.025 11.0687 3.55625 12.1125 3.20625L12.8687 2.95625L12.8875 3.025L12.9437 3.01875L13.3812 2.925L13.8812 2.85L13.8937 2.925C14.1187 2.84375 14.425 2.81875 14.45 2.8625C14.6187 2.88125 14.7812 2.88125 14.95 2.8625C14.9687 2.88125 14.9812 2.90625 14.9937 2.93125L15.0062 2.95C15.0125 2.9625 15.0187 2.98125 15.0312 2.9875L15.0687 3.01875L15.0562 3.04375C15.0375 3.0375 15.025 3.0375 15.0062 3.0375H14.9375C14.9312 3.0375 14.925 3.04375 14.9312 3.05C14.9437 3.05625 14.9562 3.0625 14.9687 3.06875C15.0125 3.0875 15.025 3.05625 15.0437 3.06875C15.0625 3.08125 15.0437 3.1125 15.0437 3.13125C15.0437 3.15 15.0437 3.15625 15.05 3.175C15.0562 3.19375 15.0375 3.2125 15.05 3.23125C15.0562 3.24375 15.0625 3.25625 15.0625 3.26875L15.0562 3.29375C15.0437 3.3125 15.025 3.3375 15 3.35V3.375C14.9937 3.3875 14.9875 3.41875 14.9625 3.43125L15.0062 3.4625C15.025 3.4875 15.0437 3.5125 15.0562 3.5375C15.0625 3.5625 15.075 3.58125 15.0937 3.6L15.1312 3.63125L15.1187 3.65625C15.1187 3.65625 15.0687 3.6375 15.0562 3.65625C15.0437 3.675 15.0437 3.66875 15.0875 3.69375C15.1312 3.71875 15.1437 3.6875 15.1625 3.7C15.175 3.71875 15.1625 3.74375 15.1562 3.75625C15.15 3.76875 15.1562 3.78125 15.1625 3.8C15.1687 3.825 15.15 3.83125 15.1625 3.85625C15.1687 3.86875 15.175 3.88125 15.175 3.9C15.1812 3.925 15.1937 3.94375 15.2125 3.9625L15.25 3.99375L15.2312 4.01875C15.2312 4.01875 15.1812 4 15.1687 4.01875C15.1562 4.0375 15.1562 4.03125 15.2 4.05625C15.2437 4.08125 15.2562 4.05 15.275 4.0625C15.2937 4.08125 15.275 4.10625 15.275 4.125C15.275 4.14375 15.275 4.15 15.2812 4.16875C15.2875 4.19375 15.2687 4.20625 15.2812 4.225C15.2875 4.2375 15.2937 4.25 15.2937 4.2625L15.2875 4.2875C15.2687 4.3125 15.25 4.33125 15.225 4.35625C15.2187 4.36875 15.2125 4.41875 15.1625 4.4125C15.1125 4.40625 15.0937 4.4375 15.1375 4.46875L15.0625 4.4625V4.5125L15.0375 4.55625H15.0312L14.9562 4.55L14.9125 4.58125L14.9312 4.6L14.8187 4.6375C14.8312 4.65625 14.8625 4.65 14.9125 4.675C14.9812 4.70625 15.05 4.725 15.1187 4.74375C15.0937 4.7625 15.0812 4.7875 15.0812 4.8125C15.0812 4.8625 15.0812 4.8125 15.1312 4.88125C15.1812 4.95 15.275 4.94375 15.2312 4.99375C15.2062 5.01875 15.2 5.03125 15.2312 5.075L15.325 5.11875C15.35 5.1375 15.3812 5.15 15.4125 5.1625C15.4125 5.1625 15.4312 5.1875 15.5687 5.20625C15.7062 5.225 15.5312 5.23125 15.6125 5.2375C15.825 5.2875 16.0375 5.31875 16.25 5.325C16.35 5.31875 16.4437 5.325 16.5437 5.35C16.6375 5.375 16.4687 5.35 16.8062 5.41875C16.8687 5.4375 16.9312 5.44375 16.9937 5.43125C17.025 5.41875 17.0562 5.4125 17.0875 5.40625C17.1625 5.40625 17.0687 5.36875 17.1687 5.3875C17.2062 5.34375 17.2375 5.3 17.2687 5.25L17.3312 5.20625L17.3937 5.1125L17.4062 5.1C17.325 5.05 17.4875 4.9625 17.4875 4.9625C17.4875 4.9625 17.5687 5.04375 17.5937 4.9375C17.6187 4.83125 17.5125 4.74375 17.5125 4.74375C17.4937 4.6625 17.5187 4.575 17.575 4.5125C17.6312 4.4625 17.6375 4.375 17.5875 4.31875L17.5625 4.01875L17.5125 3.94375H17.5875H17.5937L17.6187 3.90625V3.8625L17.6937 3.86875C17.65 3.84375 17.6687 3.81875 17.7187 3.81875C17.7687 3.81875 17.775 3.775 17.7812 3.76875C17.8062 3.75 17.825 3.73125 17.8437 3.70625L17.8562 3.6875C17.8562 3.675 17.85 3.6625 17.8437 3.65C17.8375 3.63125 17.8562 3.61875 17.8437 3.6C17.8312 3.58125 17.825 3.575 17.8375 3.5625C17.8437 3.55 17.8625 3.51875 17.8375 3.50625C17.8125 3.49375 17.8062 3.525 17.7625 3.50625C17.7187 3.4875 17.7187 3.4875 17.7312 3.475C17.7437 3.4625 17.7937 3.475 17.7937 3.475L17.8062 3.45L17.7687 3.425C17.75 3.40625 17.7375 3.3875 17.7312 3.36875C17.7187 3.34375 17.7 3.31875 17.6812 3.3L17.6312 3.2625C17.675 3.20625 17.7187 3.15 17.75 3.0875H17.6687L17.7062 3C17.7875 3.01875 17.875 3.025 17.9562 3.03125C18.1 3.03125 17.775 2.975 17.9687 2.95625C18.075 2.9375 18.1875 2.94375 18.2937 2.975C18.425 3.00625 18.2812 3.0375 18.2812 3.0375L18.5437 3.09375C18.6375 3.09375 18.7375 3.1 18.8312 3.11875C18.8312 3.11875 18.9625 3.1375 19.4125 3.23125C19.7062 3.3 19.975 3.33125 20.125 3.38125L20.525 3.475C20.8125 3.61875 21.1187 3.7375 21.4125 3.9L22.3062 4.41875L22.3437 4.35C22.825 4.64375 23.275 4.9875 23.725 5.3125L23.8625 5.44375C24.1375 5.6125 24.4062 5.79375 24.6687 5.98125C24.8375 6.10625 24.9937 6.25 25.1437 6.4C25.1437 6.4 24.8812 6.1875 24.9312 6.2875L24.9437 6.3L25.2312 6.55C25.3812 6.6625 25.4312 6.71875 25.4125 6.73125L25.3937 6.75L25.5937 6.91875C25.7 6.98125 25.7937 7.05625 25.8812 7.1375L26.1437 7.44375L26.7062 8.0625C26.7062 8.0625 26.7437 8.125 26.825 8.29375C26.9062 8.4625 26.975 8.45 26.975 8.45L26.8062 8.125C27.0375 8.475 27.275 8.8375 27.5187 9.20625C27.5437 9.275 27.5562 9.35 27.5687 9.425C27.5687 9.425 27.475 9.34375 27.525 9.45C27.575 9.575 27.6437 9.69375 27.7312 9.79375L27.75 9.78125L27.8125 9.80625C27.95 10.1 28.1 10.3937 28.225 10.6812V10.85L28.2812 11.1062L28.4062 11.5188C28.4187 11.5938 28.425 11.6625 28.4187 11.7375L28.5437 12.1062L28.6125 12.325L28.625 12.4187L28.65 12.5813C28.6687 12.7188 28.7125 12.7625 28.7312 12.775H28.7437L28.6875 12.4187C28.8 12.825 28.9437 13.0375 29.05 13.4688C29.05 13.5188 29.05 13.5687 29.0375 13.6187L29.0312 13.7C29.0312 13.7 28.9687 13.5938 28.9812 13.7063C28.9875 13.8438 29.0187 13.975 29.0687 14.1H29.0937L29.1125 14.1187L29.1437 14.1438C29.175 14.4187 29.2562 14.6562 29.2937 14.925L29.3062 15.0375L29.0875 15.075L29.0125 15.1313V15.0562L29.0062 15.05L28.9687 15.0312H28.925V14.9563C28.9 15 28.875 14.9812 28.875 14.9312C28.875 14.8812 28.8312 14.8813 28.8187 14.875C28.8062 14.8687 28.7812 14.8313 28.75 14.8188C28.7375 14.825 28.725 14.8312 28.7125 14.8375C28.6937 14.8438 28.6812 14.825 28.6625 14.8375C28.6437 14.85 28.6375 14.8563 28.6187 14.85C28.6 14.8438 28.575 14.8313 28.5625 14.85C28.55 14.8688 28.5812 14.875 28.5625 14.925C28.5437 14.975 28.5437 14.975 28.5312 14.9625C28.5187 14.95 28.5312 14.9 28.5312 14.9L28.5062 14.8875L28.4812 14.925C28.4687 14.9438 28.45 14.9563 28.425 14.9688C28.4 14.9812 28.375 15 28.3562 15.025L28.3187 15.0813C28.2625 15.0375 28.2 15.0063 28.1375 14.975V15.0562L27.9812 14.9937L27.9625 14.9812C27.9312 15.0375 27.875 15.075 27.8187 15.0938C27.8187 15.0938 27.85 15.0562 27.8437 15.025L27.8062 15.05C27.7875 15.075 27.7812 15.075 27.7812 15.05V15.025L27.7562 15.0437C27.75 15.0625 27.7375 15.0875 27.725 15.1062L27.6875 15.125L27.6125 15.175C27.6062 15.1625 27.6 15.15 27.5875 15.1438C27.5687 15.125 27.5687 15.1875 27.5687 15.1875L27.6 15.2188C27.5625 15.2312 27.525 15.2375 27.4875 15.2375L27.4687 15.1687C27.4687 15.1687 27.4812 15.125 27.4687 15.1187C27.4562 15.1187 27.4312 15.15 27.4312 15.15V15.175V15.225C27.4 15.225 27.375 15.2188 27.3437 15.2063L27.3312 15.1562L27.3062 15.1187L27.2687 15.0938C27.2625 15.075 27.2562 15.0562 27.25 15.0312L27.2125 15.0188L27.1937 15.0312L27.1875 15.0188L27.175 15C27.1625 14.9875 27.1562 15.0188 27.1562 15.0375V15.05L27.1875 15.0813C27.15 15.0938 27.125 15.1812 27.0875 15.1812L27.075 15.1375V15.1125C27.075 15.1125 27.0875 15.0688 27.075 15.0625C27.0625 15.0625 27.0375 15.0938 27.0375 15.0938V15.1187V15.1375V15.1687C27.0125 15.1687 26.9875 15.2188 26.9687 15.2063H26.9562L26.925 15.3L26.9 15.2625L26.8625 15.375C26.8562 15.3562 26.85 15.3313 26.8437 15.3125C26.825 15.3062 26.8125 15.4 26.8 15.3938L26.775 15.3813C26.7625 15.4875 26.7562 15.3062 26.7562 15.4062C26.7562 15.4062 26.7375 15.3688 26.6937 15.5188C26.675 15.575 26.6625 15.6375 26.6562 15.6938C26.65 15.725 26.6437 15.7625 26.6375 15.7937C26.625 15.8812 26.6375 15.9688 26.6687 15.975C26.7 15.9813 26.675 16.1313 26.675 16.1313C26.675 16.1313 26.675 16.1938 26.7125 16.1938C26.75 16.1938 26.7 16.3062 26.675 16.3625C26.6562 16.4562 26.6562 16.55 26.6625 16.6437C26.6625 16.6875 26.6187 16.9562 26.6625 16.9937C26.6812 17.0187 26.7187 17.025 26.7437 17.0063C26.7437 17.0063 26.725 17.2 26.775 17.25L26.825 17.2938C26.8937 17.3375 26.975 17.375 27.0562 17.3937L27.1 17.3687C27.15 17.3438 27.1625 17.5625 27.1625 17.5625L27.1937 17.525L27.225 17.5375C27.225 17.5375 27.2125 17.5875 27.225 17.6C27.2375 17.6125 27.2375 17.6125 27.2625 17.5625C27.2812 17.5125 27.2437 17.5062 27.2625 17.4875C27.2812 17.4688 27.3125 17.4812 27.3312 17.4875C27.35 17.4937 27.3562 17.4875 27.3812 17.475C27.4062 17.4625 27.4187 17.4875 27.4437 17.475C27.4562 17.4688 27.475 17.4625 27.4875 17.4562H27.5125C27.5437 17.475 27.5687 17.4938 27.5937 17.5125C27.6062 17.5188 27.6625 17.5188 27.6625 17.5688C27.6625 17.6187 27.7 17.6375 27.725 17.5938V17.6688H27.7812L27.8312 17.6875L27.8375 17.6938V17.775L27.8812 17.8125L27.9 17.7938C27.925 17.8313 27.9437 17.875 27.9625 17.9188L27.9687 17.9937C28 17.925 28.0437 17.8562 28.0937 17.8C28.1187 17.775 28.1437 17.7563 28.175 17.7437L28.1937 17.7313C28.2125 17.725 28.225 17.7125 28.2375 17.7L28.2687 17.6625L28.3 17.675C28.2937 17.6937 28.2937 17.7063 28.3 17.725V17.7375C28.3062 17.7375 28.3125 17.7437 28.3187 17.7375C28.3187 17.725 28.3187 17.7125 28.3187 17.7C28.3375 17.65 28.3 17.6437 28.3187 17.625C28.3375 17.6063 28.3687 17.6187 28.3875 17.625C28.4062 17.6313 28.4125 17.625 28.4375 17.6125C28.4625 17.6 28.475 17.6187 28.5 17.6125C28.5125 17.6062 28.5312 17.6 28.5437 17.5938H28.5687C28.5937 17.6063 28.6187 17.625 28.6375 17.6437L28.65 17.65C28.6625 17.65 28.7 17.6562 28.7125 17.6875L28.7437 17.6437C28.7687 17.6187 28.7937 17.6062 28.825 17.5875C28.85 17.575 28.875 17.5625 28.8937 17.5438L28.925 17.5063L28.9562 17.5187C28.9562 17.5187 28.9437 17.5687 28.9562 17.5812C28.9687 17.5938 28.975 17.5938 28.9937 17.5438C29.0125 17.4938 28.975 17.4875 28.9937 17.4688H29C29.0187 17.4562 29.0437 17.4688 29.0625 17.4688C29.0812 17.4688 29.0875 17.4688 29.1125 17.4562C29.1375 17.4437 29.15 17.4625 29.175 17.4562C29.1875 17.45 29.2062 17.4438 29.2187 17.4375H29.225C29.25 17.425 29.275 17.4125 29.2937 17.3937L29.325 17.3563L29.3562 17.3687C29.3562 17.3687 29.3437 17.4187 29.3562 17.4312C29.3687 17.4438 29.3687 17.4437 29.3937 17.3937C29.4187 17.3438 29.375 17.3375 29.3937 17.3188C29.4125 17.3 29.4437 17.3125 29.4625 17.3188C29.4812 17.325 29.4875 17.3188 29.5125 17.3062C29.5375 17.2937 29.55 17.3125 29.575 17.3062C29.5625 17.4 29.5625 17.4688 29.5687 17.5375Z" fill="#0041E6"/>
<path d="M23.5937 8.76874C23.6 8.73749 23.6 8.70624 23.5937 8.67499C23.6312 8.51249 23.6187 8.48124 23.6187 8.48124C23.625 8.44374 23.625 8.40624 23.6187 8.36874C23.6125 8.29999 23.55 8.24374 23.4812 8.24999C23.4687 8.24999 23.4562 8.24999 23.45 8.25624C23.3687 8.28749 23.3562 8.13124 23.3562 8.13124C23.3125 8.09999 23.2562 8.09999 23.2187 8.13124C23.125 8.18124 23.2 8.01874 23.25 7.92499C23.3 7.83749 23.1687 7.70624 23.15 7.66249C23.1312 7.62499 23.1187 7.33124 22.9937 7.34999C22.9125 7.36249 22.8312 7.39374 22.7625 7.44999C22.7625 7.44999 22.725 7.24999 22.5625 7.28124L22.4 7.31874C22.175 7.37499 21.9562 7.44999 21.7375 7.54374L21.6312 7.62499C21.5 7.71874 21.3625 7.54374 21.3625 7.54374L21.2937 7.61874L21.2062 7.64999C21.2062 7.64999 21.225 7.58749 21.175 7.59374C21.125 7.60624 21.125 7.60624 21.0937 7.67499C21.0562 7.74374 21.1625 7.69999 21.1312 7.73749C21.075 7.78124 21.0125 7.81249 20.9437 7.83124C20.8937 7.84999 20.85 7.87499 20.8125 7.91249C20.75 7.95624 20.7 7.95624 20.65 7.99374C20.6125 8.02499 20.575 8.04999 20.5375 8.06874L20.4625 8.09999C20.3687 8.13124 20.2562 8.14999 20.2125 8.16249C20.1687 8.17499 20.0187 8.24999 19.9937 8.21249C19.9625 8.16874 19.8625 8.20624 19.8125 8.27499L19.775 8.21249L19.625 8.28749L19.4812 8.33749H19.4375L19.4 8.27499L19.2625 8.29999L19.2187 8.34374C19.1437 8.33749 19.075 8.33124 19 8.31874L18.9437 8.26249C18.875 8.38749 18.7875 8.49999 18.6937 8.60624C18.6312 8.66249 18.5687 8.71874 18.5 8.76874L18.4437 8.81249C18.4062 8.83749 18.3687 8.86874 18.3375 8.89999L18.2687 8.97499L18.1875 8.99999C18.1875 8.99999 18.1937 8.95624 18.175 8.94999C18.1687 8.94999 18.1625 8.94999 18.1562 8.94999C18.1375 8.94999 18.125 8.95624 18.1125 8.96874C18.1 8.98749 18.0812 9.00624 18.075 9.03124C18.0375 9.09999 18.1437 9.05624 18.1125 9.09374C18.0562 9.13749 17.9937 9.16874 17.925 9.18749C17.875 9.20624 17.8312 9.23124 17.7937 9.26874C17.7312 9.30624 17.6812 9.31249 17.6312 9.34999C17.5937 9.37499 17.5562 9.39999 17.5187 9.42499L17.4375 9.46249C17.3687 9.48124 17.3 9.49999 17.225 9.51249L17.1875 9.51874C17.125 9.54999 17.0625 9.56874 16.9937 9.57499L16.925 9.66249C16.8625 9.71874 16.8 9.77499 16.7312 9.82499C16.675 9.86249 16.6187 9.90624 16.5687 9.95624L16.5 10.0312L16.4125 10.0625C16.4125 10.0625 16.4312 9.99999 16.3875 10.0062C16.3375 10.0187 16.3437 10.0125 16.3062 10.0875C16.2687 10.1625 16.375 10.1125 16.3375 10.1562L16.325 10.1687C16.2687 10.2062 16.2125 10.2312 16.15 10.25C16.1 10.2687 16.0562 10.2937 16.0187 10.325C15.9562 10.3687 15.9125 10.3687 15.8562 10.4062C15.8187 10.4312 15.7812 10.4562 15.7437 10.4812H15.7312L15.7125 10.4937C15.6562 10.5312 15.6 10.575 15.55 10.625L15.4812 10.7062L15.3937 10.7375C15.3937 10.7375 15.4125 10.675 15.3687 10.6812C15.3187 10.6937 15.325 10.6875 15.2875 10.7625C15.25 10.8375 15.3562 10.7875 15.3187 10.8312C15.2625 10.875 15.2 10.9062 15.1312 10.925C15.0812 10.9437 15.0375 10.9687 15 11.0062C14.9375 11.05 14.8875 11.05 14.8375 11.0875C14.8 11.1125 14.7625 11.1437 14.725 11.1625L14.6437 11.1937C14.55 11.225 14.4375 11.2437 14.3937 11.2562C14.3562 11.2687 14.2 11.3437 14.175 11.3C14.15 11.2562 14.0437 11.2875 13.9937 11.3625L13.9625 11.2937L13.8187 11.375L13.675 11.425H13.6562L13.6187 11.3562L13.4875 11.375L13.4437 11.4187C13.375 11.4125 13.3062 11.4062 13.2375 11.3937C13.1812 11.4375 13.2312 11.45 13.1875 11.5187C13.1562 11.6 13.1437 11.6875 13.15 11.7812C13.0687 11.7937 12.9937 11.825 12.9187 11.8687C12.7562 11.95 12.9187 11.8687 12.7562 12.0125C12.5937 12.1562 12.6875 12.2125 12.5125 12.2625C12.4187 12.2812 12.3375 12.325 12.275 12.4C12.2562 12.45 12.2375 12.4937 12.2125 12.5375C12.1875 12.575 12.1687 12.6187 12.1562 12.6625C12.1562 12.6625 12.1 12.7125 12.1687 12.8375C12.175 12.85 12.175 12.8562 12.175 12.8687L12.1375 12.8812L12.125 12.8937C12.1125 12.8937 12.1125 12.8937 12.1125 12.9062C12.075 12.95 12.0312 12.9875 11.9812 13.0125C11.9 13.0125 11.9687 13.125 11.8812 13.0812C11.8 13.2187 11.725 13.3562 11.65 13.5062L11.5437 13.65L11.3937 13.9312L11.3687 13.975C11.4125 14.1187 11.1625 14.3875 11.1625 14.3875C11.1625 14.3875 11.1437 14.1562 11.025 14.4625C10.9562 14.6437 10.925 14.8437 10.9437 15.0375C10.8875 15.275 10.8 15.5 10.6812 15.7062C10.5687 15.8812 10.5062 16.075 10.5 16.2812L10.25 17.1875L10.2375 17.4187L10.1687 17.4L10.1562 17.4125L10.1 17.525L10.0562 17.6562L9.98749 17.6375C10.0062 17.7125 9.96874 17.7875 9.91874 17.7812C9.86874 17.7687 9.82499 17.8937 9.81249 17.9312C9.79374 17.9687 9.73124 18.0375 9.69999 18.1062L9.67499 18.1687C9.66874 18.2062 9.66249 18.2437 9.65624 18.2812C9.64999 18.3375 9.61874 18.3625 9.61249 18.425C9.61249 18.4687 9.59999 18.5062 9.58749 18.5437C9.55624 18.5937 9.53749 18.65 9.53749 18.7062C9.54374 18.75 9.58124 18.6625 9.60624 18.725C9.63749 18.7875 9.63749 18.7937 9.61249 18.825C9.58749 18.8562 9.54999 18.8062 9.54999 18.8062L9.51249 18.875L9.52499 18.9625C9.53124 19.0187 9.52499 19.0812 9.51874 19.1375C9.51249 19.2062 9.50624 19.275 9.51249 19.35L9.53749 19.475C9.44374 19.6312 9.35624 19.8 9.26249 19.975L9.33749 20L9.13124 20.425L9.10624 20.4687C9.12499 20.625 9.11874 20.775 9.08749 20.9312C9.08749 20.9312 9.08124 20.8312 9.04374 20.8437L9.03749 20.95C9.04374 21.0062 9.03749 21.025 9.01874 21.0187L8.99374 21.0125V21.0875C9.01249 21.125 9.01874 21.1625 9.02499 21.2L9.00624 21.3125L8.98124 21.5437C8.96249 21.5625 8.94374 21.5812 8.93124 21.6062C8.89999 21.65 8.95624 21.675 8.95624 21.675L9.01874 21.5937C8.99374 21.7062 8.96249 21.825 8.92499 21.9375L8.84374 21.975C8.84374 21.975 8.81249 21.9312 8.79999 21.9625C8.78124 22 8.78124 22.0437 8.79999 22.075L8.82499 22.0812L8.86249 22.1125L8.76249 22.3625L8.69999 22.3875L8.64374 22.4437L8.58749 22.55C8.56249 22.5687 8.53749 22.5812 8.51249 22.5875L8.46874 22.6875L8.46249 22.75L8.44374 22.7687L8.41249 22.8062C8.39999 22.825 8.39999 22.85 8.41874 22.8687L8.42499 22.875H8.43124L8.49374 22.7937C8.46874 22.9062 8.53124 23 8.49374 23.1187L8.43749 23.1437L8.41249 23.1562C8.41249 23.1562 8.38124 23.1125 8.36874 23.1375C8.34999 23.175 8.34999 23.2187 8.36874 23.25L8.39374 23.2562L8.41249 23.2687L8.43749 23.2875C8.41249 23.3625 8.43749 23.4375 8.41249 23.5062L8.39999 23.5437L8.45624 23.6687L8.39999 23.725L8.46874 23.875C8.44374 23.8937 8.41874 23.9062 8.39374 23.9125C8.36874 23.9625 8.44999 24.0312 8.43749 24.0625L8.40624 24.125C8.49374 24.1937 8.31874 24.15 8.41249 24.1937C8.41249 24.1937 8.36249 24.2312 8.46249 24.4C8.56249 24.5687 8.59374 24.575 8.59374 24.575C8.59374 24.575 8.59999 24.6 8.67499 24.6562C8.71874 24.7062 8.79999 24.7125 8.84999 24.6625C8.86249 24.65 8.86874 24.6437 8.87499 24.6312C8.90624 24.5562 9.02499 24.6625 9.02499 24.6625C9.02499 24.6625 9.09374 24.6625 9.12499 24.5687C9.15624 24.475 9.21874 24.6437 9.24999 24.7437C9.28124 24.8437 9.46249 24.85 9.49999 24.8687C9.53749 24.8875 9.75624 25.1 9.83124 25C9.88124 24.9312 9.91249 24.85 9.91874 24.7687C9.96249 24.8 10.0187 24.8187 10.075 24.8187C10.1062 24.8375 10.1437 24.85 10.1812 24.8375L10.3312 24.8C10.5375 24.7312 10.7375 24.65 10.9312 24.5562C10.9562 24.5312 10.9875 24.5 11.025 24.475C11.1375 24.3812 11.2812 24.5437 11.2812 24.5437L11.3437 24.4625C11.3937 24.4375 11.425 24.4312 11.425 24.4312C11.425 24.4312 11.4125 24.4937 11.4562 24.4875C11.5 24.475 11.5 24.475 11.525 24.4062C11.55 24.3312 11.4562 24.3812 11.4875 24.3437C11.5375 24.3 11.5937 24.2625 11.6562 24.2437C11.7 24.225 11.7375 24.1937 11.7687 24.1625C11.8187 24.1187 11.8687 24.1125 11.9187 24.075C11.95 24.0437 11.9812 24.0187 12.0187 23.9937C12.0437 23.9812 12.0625 23.9687 12.0875 23.9562C12.175 23.9187 12.2812 23.9 12.3187 23.8875C12.3562 23.875 12.4875 23.7937 12.5187 23.8312C12.55 23.8687 12.6437 23.8312 12.6812 23.7625L12.7187 23.825L12.8562 23.7437L12.9875 23.6875H13.0062L13.0437 23.75L13.1687 23.725L13.2062 23.6812C13.275 23.6812 13.3437 23.6875 13.4125 23.7L13.4687 23.7562C13.5437 23.55 13.675 23.375 13.8437 23.2375L13.8937 23.1937L13.9875 23.1L14.05 23.0187C14.1 22.9937 14.1312 22.9875 14.1312 22.9875C14.1312 22.9875 14.1312 23.0312 14.1437 23.0375H14.1625C14.175 23.0375 14.1937 23.0312 14.2062 23.0187C14.2187 23 14.2312 22.975 14.2375 22.9562C14.2687 22.8812 14.1687 22.9312 14.2 22.8937C14.25 22.85 14.3062 22.8125 14.3687 22.7937C14.4125 22.775 14.45 22.7437 14.4812 22.7125C14.5312 22.6687 14.5812 22.6625 14.6312 22.625C14.6625 22.5937 14.6937 22.5687 14.7312 22.5437C14.7562 22.5312 14.775 22.5187 14.8 22.5062C14.8625 22.4812 14.925 22.4625 14.9937 22.45L15.0312 22.4375C15.0875 22.4062 15.1437 22.3812 15.2125 22.375C15.2312 22.3437 15.25 22.3187 15.2687 22.2875C15.3187 22.225 15.3812 22.175 15.4375 22.1187C15.4875 22.0812 15.5375 22.0312 15.575 21.9812L15.6375 21.9C15.6875 21.875 15.7187 21.8687 15.7187 21.8687C15.7187 21.8687 15.7062 21.9312 15.75 21.9187C15.7937 21.9062 15.7937 21.9062 15.8187 21.8375C15.8437 21.7625 15.75 21.8125 15.7812 21.775L15.7937 21.7625C15.8375 21.725 15.8937 21.6937 15.95 21.675C15.9937 21.6562 16.0312 21.625 16.0625 21.5937C16.1125 21.55 16.1625 21.5437 16.2125 21.5062C16.2437 21.475 16.275 21.45 16.3125 21.425H16.325L16.3375 21.4125C16.3875 21.375 16.4375 21.325 16.475 21.275L16.5375 21.1937C16.5625 21.1812 16.5875 21.1687 16.6187 21.1625C16.6187 21.1625 16.6062 21.225 16.65 21.2125C16.6937 21.2 16.6937 21.2 16.7187 21.1312C16.75 21.0562 16.65 21.1062 16.6812 21.0687C16.7312 21.025 16.7875 20.9875 16.85 20.9687C16.8937 20.95 16.9312 20.9187 16.9625 20.8875C17.0125 20.8437 17.0625 20.8375 17.1125 20.8C17.1437 20.7687 17.175 20.7437 17.2062 20.7187C17.2312 20.7062 17.2562 20.6937 17.275 20.6812C17.3625 20.6437 17.4687 20.625 17.5062 20.6125C17.5437 20.6 17.675 20.5187 17.7125 20.5562C17.7437 20.5937 17.8375 20.5562 17.875 20.4875L17.9125 20.55L18.05 20.4687L18.1812 20.4125H18.2L18.2375 20.4812L18.3625 20.4562L18.4 20.4125C18.4687 20.4125 18.5312 20.4187 18.6 20.4312C18.6437 20.3875 18.6 20.375 18.6312 20.3062C18.65 20.225 18.6562 20.1375 18.6375 20.05C18.7125 20.0312 18.7875 20 18.85 19.9562C18.9937 19.8687 18.85 19.9562 18.9875 19.8125C19.125 19.6687 19.0312 19.6125 19.1937 19.5625C19.2812 19.5437 19.3562 19.4937 19.4062 19.425C19.4187 19.3812 19.4312 19.3312 19.45 19.2875C19.4687 19.25 19.4812 19.2062 19.4875 19.1625C19.4875 19.1625 19.5312 19.1125 19.4562 19C19.4875 18.9687 19.5312 18.9437 19.5687 18.925C19.6437 18.925 19.5875 18.8187 19.675 18.8687C19.7562 18.7562 19.8437 18.625 19.9187 18.4875L20.0312 18.3687L20.1937 18.1187L20.225 18.0812C20.1875 17.9437 20.45 17.7125 20.45 17.7125C20.45 17.7125 20.4562 17.9437 20.5875 17.6562C20.6687 17.4875 20.7062 17.3062 20.6937 17.1187C20.7562 16.9 20.8562 16.7 20.9875 16.5125C21.1062 16.3625 21.175 16.175 21.1937 15.9875L21.4625 15.1812C21.475 15.1062 21.4812 15.0375 21.4875 14.9687L21.5562 14.9937L21.5687 14.9812L21.6312 14.8812L21.6812 14.7625L21.75 14.7875C21.7312 14.7125 21.775 14.6437 21.825 14.6625C21.875 14.675 21.9187 14.5562 21.9375 14.5312C21.9562 14.5 22.0187 14.4375 22.0625 14.375C22.075 14.3562 22.0812 14.3375 22.0937 14.3187C22.1062 14.2875 22.1125 14.25 22.1125 14.2187C22.1187 14.1687 22.15 14.1437 22.1625 14.0875C22.1687 14.05 22.175 14.0062 22.1937 13.975C22.225 13.9312 22.2437 13.8812 22.25 13.825C22.25 13.7812 22.2062 13.8625 22.1812 13.8C22.1562 13.7375 22.1562 13.7375 22.1812 13.7062C22.2062 13.675 22.2375 13.7312 22.2375 13.7312C22.25 13.7125 22.2625 13.6937 22.275 13.6687L22.2625 13.5812C22.2625 13.525 22.2687 13.475 22.2812 13.4187C22.2937 13.3562 22.3 13.2875 22.3 13.2187C22.3 13.175 22.2875 13.1375 22.2812 13.1C22.3812 12.9625 22.4812 12.8125 22.575 12.65L22.5 12.6187L22.7187 12.2375L22.75 12.2C22.7375 12.0562 22.7562 11.9125 22.7937 11.7687C22.7937 11.7687 22.7937 11.8625 22.8375 11.85L22.85 11.75C22.85 11.6937 22.85 11.675 22.875 11.6875L22.9 11.7V11.625C22.8875 11.5875 22.8812 11.5562 22.8812 11.5187L22.9 11.4125L22.9375 11.1937C22.9562 11.1812 22.975 11.1625 22.9875 11.1437C23.0187 11.1062 22.9687 11.075 22.9687 11.075L22.9062 11.15C22.9375 11.0437 22.9687 10.9437 23.0125 10.8375L23.0937 10.8125C23.0937 10.8125 23.125 10.8562 23.1375 10.8312C23.1562 10.8 23.1625 10.7562 23.1437 10.725L23.125 10.7187L23.0875 10.6875C23.125 10.6125 23.1562 10.5375 23.1937 10.4625L23.2562 10.4437L23.3125 10.3937L23.375 10.3C23.4 10.2875 23.425 10.275 23.4562 10.275C23.4812 10.2375 23.4937 10.2125 23.5062 10.1875L23.5125 10.1312L23.5375 10.1125C23.5437 10.1062 23.5562 10.0937 23.5687 10.0812C23.5812 10.0625 23.5812 10.0437 23.5687 10.025C23.5687 10.025 23.5625 10.0187 23.5562 10.0187H23.5L23.4375 10.0937C23.4687 9.98749 23.4062 9.89999 23.45 9.79374L23.5062 9.77499L23.5312 9.76874C23.5312 9.76874 23.5625 9.81249 23.575 9.78749C23.5937 9.75624 23.6 9.71249 23.5812 9.68124L23.5625 9.67499L23.5437 9.66249L23.5187 9.64374C23.55 9.58124 23.5187 9.49999 23.5562 9.43749L23.575 9.40624L23.525 9.28749L23.5812 9.23749L23.5187 9.09374C23.5437 9.08124 23.5687 9.06874 23.6 9.06874C23.625 9.02499 23.55 8.95624 23.5625 8.92499L23.6 8.86249C23.5125 8.76249 23.6875 8.81249 23.5937 8.76874ZM15.9625 18.7625C15.775 18.8125 15.6062 18.9125 15.475 19.0562L14.7687 19.5375C14.7187 19.5875 14.6687 19.6375 14.6187 19.6875L14.5812 19.625H14.5625L14.45 19.6625L14.3375 19.7312L14.3 19.6687C14.2687 19.7375 14.1937 19.7625 14.1625 19.725C14.1312 19.6875 14.025 19.75 13.9937 19.7625C13.9625 19.775 13.875 19.7812 13.8 19.8125C13.7812 19.8187 13.7625 19.8312 13.7437 19.8437C13.7187 19.8625 13.6875 19.8875 13.6625 19.9125C13.625 19.95 13.5812 19.95 13.55 19.9875C13.525 20.0187 13.4937 20.0375 13.4562 20.0562C13.4062 20.0687 13.3562 20.1 13.3187 20.1375C13.3 20.175 13.375 20.1375 13.3562 20.2C13.3375 20.2625 13.3375 20.2625 13.3 20.275C13.2625 20.2812 13.2687 20.2187 13.2687 20.2187C13.2687 20.2187 13.2437 20.225 13.2 20.2437L13.1562 20.3125C13.125 20.3562 13.0875 20.3937 13.0437 20.425C12.9937 20.4687 12.95 20.5187 12.9062 20.5687C12.8812 20.6062 12.8687 20.6437 12.85 20.675C12.6875 20.725 12.5187 20.7812 12.3437 20.85L12.3812 20.9187L11.975 21.0875L11.925 21.1C11.9187 21.1125 11.9062 21.1312 11.8937 21.1437C11.8937 21.1187 11.8875 21.1 11.8812 21.075C11.8812 20.9875 11.8937 20.9062 11.9062 20.8187L11.9125 20.75C11.9187 20.7062 11.925 20.6562 11.925 20.6125V20.5062L11.9625 20.425C11.9625 20.425 11.9875 20.4625 12.0062 20.4562C12.0125 20.4562 12.0187 20.45 12.025 20.4437C12.0375 20.4312 12.0437 20.4125 12.0437 20.4C12.0437 20.375 12.0375 20.35 12.025 20.325C12 20.2437 11.9625 20.3562 11.9562 20.3C11.9625 20.2312 11.9875 20.1625 12.0187 20.1C12.0375 20.05 12.05 20 12.0562 19.95C12.0687 19.875 12.1 19.8375 12.1125 19.7687C12.1187 19.725 12.125 19.6812 12.1375 19.6375L12.1687 19.5562C12.2062 19.4937 12.2437 19.425 12.2812 19.3687L12.3 19.3312C12.325 19.2687 12.3562 19.2062 12.3937 19.15L12.3812 19.0375C12.3812 18.95 12.3937 18.8687 12.4062 18.7812C12.4187 18.7125 12.425 18.6437 12.425 18.575V18.4687L12.4687 18.3875C12.4687 18.3875 12.5 18.4437 12.5312 18.4062C12.5562 18.3687 12.5562 18.3625 12.5312 18.2937C12.5062 18.2187 12.4625 18.325 12.4625 18.275V18.2562C12.475 18.1937 12.4937 18.1312 12.525 18.075C12.5437 18.025 12.5562 17.975 12.5625 17.925C12.575 17.85 12.6062 17.8125 12.6187 17.7437C12.625 17.7 12.6312 17.6562 12.6437 17.6125V17.6V17.5812C12.6562 17.5125 12.6625 17.4437 12.6625 17.375V17.2687L12.7 17.1812C12.7 17.1812 12.7375 17.2375 12.7625 17.2C12.7875 17.1625 12.7875 17.1562 12.7625 17.0875C12.7375 17.0125 12.6937 17.1187 12.6937 17.0625C12.7 16.9937 12.725 16.925 12.7562 16.8625C12.775 16.8125 12.7875 16.7625 12.7937 16.7125C12.8062 16.6375 12.8375 16.6 12.85 16.5312C12.8562 16.4875 12.8625 16.4437 12.875 16.4L12.9062 16.3187C12.95 16.225 13.0187 16.1375 13.0375 16.0937C13.0562 16.0562 13.1062 15.8937 13.1562 15.9C13.2062 15.9062 13.2562 15.8125 13.2375 15.725L13.3062 15.7437L13.3562 15.5812L13.3937 15.5C13.4187 15.5312 13.45 15.5687 13.425 15.5937C13.4 15.625 13.425 15.6875 13.4937 15.6875L13.4437 15.7437L13.5187 15.8125L13.5687 15.8875V15.9L13.5187 15.9562L13.5437 16.0375L13.5812 16.0437C13.5812 16.1 13.5812 16.15 13.575 16.2062L13.5312 16.2687C13.6312 16.2562 13.7312 16.2625 13.825 16.2812C13.875 16.2937 13.9187 16.3187 13.9687 16.3437L14.0062 16.3625C14.0312 16.375 14.0562 16.3875 14.0875 16.3937L14.1562 16.4062L14.1812 16.4562C14.1812 16.4562 14.1437 16.4687 14.1375 16.4875V16.5C14.1375 16.5125 14.1437 16.5187 14.1562 16.525H14.2125C14.275 16.525 14.2312 16.4687 14.2625 16.475C14.3 16.4812 14.3312 16.5312 14.35 16.5625C14.3687 16.5937 14.3812 16.5937 14.4187 16.6187C14.4562 16.6437 14.4625 16.675 14.4937 16.7C14.5187 16.7125 14.5375 16.725 14.5625 16.7437L14.5937 16.7812C14.6125 16.8187 14.6312 16.8625 14.6437 16.9062L14.65 16.9312C14.6625 16.95 14.7062 17 14.7 17.0375L14.775 17.05C14.825 17.0687 14.8687 17.0937 14.9125 17.1187C14.95 17.1437 14.9875 17.1625 15.025 17.1812L15.0937 17.2L15.1187 17.25C15.1187 17.25 15.0625 17.2625 15.075 17.2937C15.0812 17.325 15.0812 17.3187 15.1437 17.3187C15.2062 17.3187 15.1625 17.2625 15.2 17.2687H15.2125C15.2437 17.2937 15.2687 17.325 15.2812 17.3562C15.3 17.3875 15.3125 17.3937 15.3437 17.4187C15.3812 17.4437 15.3812 17.4812 15.4125 17.5C15.4375 17.5125 15.4562 17.5312 15.475 17.55V17.5562L15.4875 17.5625C15.525 17.5875 15.5625 17.6125 15.6 17.625L15.6625 17.6437L15.6875 17.6937C15.6875 17.6937 15.6312 17.7062 15.6375 17.7312C15.6437 17.7625 15.6437 17.7625 15.7062 17.7625C15.7687 17.7625 15.7312 17.7062 15.7625 17.7125C15.7937 17.7187 15.825 17.775 15.8437 17.8062C15.8625 17.8375 15.875 17.8437 15.9062 17.8687C15.9437 17.9 15.9437 17.9312 15.975 17.9562C16 17.975 16.0187 17.9937 16.0375 18.0125L16.0687 18.0562C16.0937 18.1125 16.1062 18.1937 16.125 18.2187C16.1375 18.2437 16.2062 18.3312 16.1687 18.3687C16.1312 18.4 16.1687 18.4687 16.2312 18.4812L16.175 18.5312L16.25 18.625L16.2687 18.6625C16.1687 18.6875 16.0687 18.7312 15.9625 18.7625ZM19.925 11.6437C19.925 11.6687 19.9187 11.6875 19.9125 11.7062C19.9062 11.75 19.9 11.7937 19.8937 11.8375V11.9375C19.8687 11.9875 19.85 12.0125 19.85 12.0125C19.85 12.0125 19.8312 11.975 19.8062 11.9812C19.8 11.9812 19.7937 11.9812 19.7937 11.9875C19.7812 12.0062 19.775 12.0125 19.775 12.025C19.775 12.05 19.7812 12.0687 19.7875 12.0937C19.8062 12.1687 19.8562 12.075 19.8562 12.1187C19.8437 12.1812 19.8187 12.2437 19.7812 12.3C19.7625 12.3437 19.7437 12.3875 19.7375 12.4375C19.7187 12.5062 19.6875 12.5375 19.675 12.6C19.6687 12.6437 19.6562 12.6812 19.6437 12.725C19.6312 12.75 19.625 12.775 19.6125 12.7937C19.575 12.85 19.5375 12.9062 19.5 12.9562L19.4812 12.9875C19.4625 13.0187 19.4187 13.1187 19.3812 13.15C19.3812 13.1875 19.3875 13.2187 19.3875 13.2562C19.3812 13.3375 19.3687 13.4125 19.3562 13.4937C19.3375 13.5562 19.3312 13.6187 19.325 13.6875V13.7875C19.3 13.8375 19.2812 13.8625 19.2812 13.8625C19.2812 13.8625 19.25 13.8062 19.225 13.8375C19.2 13.875 19.2 13.875 19.2187 13.95C19.2375 14.0312 19.2875 13.9312 19.2875 13.975V13.9937C19.275 14.05 19.25 14.1062 19.2187 14.1562C19.2 14.2 19.1812 14.2437 19.175 14.2937C19.1625 14.3625 19.125 14.3937 19.1125 14.4562C19.1062 14.5 19.0937 14.5375 19.0812 14.575V14.5875V14.6062C19.0625 14.6687 19.0562 14.7312 19.05 14.8V14.9C19.025 14.95 19.0062 14.975 19.0062 14.975C19.0062 14.975 18.975 14.9187 18.95 14.95C18.925 14.9812 18.925 14.9875 18.95 15.0625C18.975 15.1437 19.0187 15.0375 19.0187 15.0875C19.0062 15.15 18.9812 15.2125 18.9437 15.2687C18.9187 15.3125 18.9062 15.3562 18.9 15.4062C18.8812 15.475 18.85 15.5062 18.8375 15.5687C18.8312 15.6125 18.8187 15.65 18.8062 15.6937C18.7937 15.7187 18.7875 15.7437 18.775 15.7625C18.725 15.8437 18.6625 15.925 18.6375 15.9562C18.6125 15.9937 18.5562 16.1375 18.5125 16.125C18.4625 16.1125 18.4125 16.2 18.425 16.2812L18.3562 16.2562L18.3 16.4062L18.225 16.5312L18.2125 16.5437L18.1375 16.5125L18.0562 16.6125V16.6687C18.0125 16.7 17.975 16.725 17.9312 16.75C17.8937 16.7 17.8625 16.6437 17.8437 16.5812C17.8062 16.45 17.7187 16.3437 17.6 16.275L17.1625 15.8312L17.025 15.7562L17.0812 15.7062V15.6875L17.0437 15.6125L16.9812 15.5437L17.0375 15.4937C16.975 15.4937 16.95 15.4375 16.9875 15.4C17.025 15.3625 16.9625 15.2937 16.95 15.275C16.9375 15.25 16.9312 15.1875 16.9 15.1375L16.875 15.1C16.8562 15.0812 16.8312 15.0687 16.8125 15.0562C16.7812 15.0375 16.7812 15.0062 16.7437 14.9812C16.7062 14.9625 16.7 14.9562 16.6812 14.925C16.6625 14.8937 16.6375 14.8437 16.6 14.8437C16.5687 14.8375 16.6 14.8875 16.5437 14.8937C16.4875 14.9 16.4875 14.9 16.475 14.875C16.4687 14.85 16.5187 14.8312 16.5187 14.8312L16.4937 14.7875L16.4312 14.775C16.3937 14.7625 16.3562 14.75 16.325 14.725C16.2812 14.7 16.2375 14.6812 16.1937 14.6687L16.1 14.6625C16.0437 14.5437 15.9812 14.4312 15.9125 14.325L15.8562 14.3812L15.6812 14.1187L15.6625 14.0875C15.5562 14.075 15.4562 14.0312 15.3687 13.975C15.3687 13.975 15.4375 13.9875 15.45 13.9562L15.3812 13.9312C15.3375 13.9312 15.3312 13.9187 15.3437 13.9L15.3625 13.8812L15.3125 13.8625C15.2812 13.8687 15.25 13.8687 15.225 13.8625L15.1625 13.825L15.0187 13.7562C15.0125 13.7375 15.0062 13.7187 14.9937 13.7C14.9812 13.6625 14.9375 13.7062 14.9375 13.7062L14.9625 13.775C14.925 13.75 14.8937 13.725 14.8625 13.7C14.9312 13.65 14.9937 13.5875 15.05 13.525C15.2562 13.3937 15.4812 13.3 15.7187 13.2437C15.925 13.2 16.1125 13.1062 16.2687 12.9625L17.075 12.5L17.25 12.35L17.2812 12.4125H17.3L17.425 12.375L17.55 12.3125L17.5812 12.3812C17.6187 12.3125 17.7062 12.2875 17.7312 12.3312C17.7562 12.375 17.8812 12.3125 17.9187 12.3C17.9562 12.2875 18.05 12.2812 18.1312 12.2562L18.1937 12.2312C18.225 12.2125 18.2562 12.1875 18.2875 12.1625C18.3312 12.1312 18.375 12.1312 18.425 12.0937C18.4562 12.0625 18.4937 12.0437 18.5312 12.0312C18.5875 12.0187 18.6437 11.9875 18.6875 11.95C18.7125 11.9125 18.625 11.95 18.65 11.8812C18.675 11.8125 18.675 11.8125 18.7187 11.8062C18.7562 11.8 18.7437 11.8625 18.7437 11.8625L18.8187 11.8375L18.875 11.7687C18.9125 11.725 18.9562 11.6875 19.0062 11.6562C19.0625 11.6125 19.1187 11.5625 19.1625 11.5125L19.2375 11.4C19.4187 11.3562 19.6062 11.3 19.7937 11.2375L19.7562 11.1687L19.9 11.1187C19.9187 11.2187 19.9312 11.3125 19.9375 11.4125C19.9562 11.4812 19.9437 11.5625 19.925 11.6437Z" fill="#0041E6"/>
</g>
<defs>
<clipPath id="clip0_7664_50220">
<rect width="32" height="32" fill="white"/>
</clipPath>
</defs>
</svg>
