<svg width="32" height="32" viewBox="0 0 32 32" fill="none" xmlns="http://www.w3.org/2000/svg">
<g clip-path="url(#clip0_7664_50172)">
<path d="M10.4375 21.6188C10.4125 21.55 10.3188 21.6375 10.3375 21.55L9.84377 21.4688L9.66877 21.4125L9.33752 21.3625L9.28753 21.35C9.15627 21.425 8.81252 21.2813 8.81252 21.2813C8.81252 21.2813 9.04377 21.2063 8.70002 21.1875C8.49377 21.175 8.28753 21.2063 8.09377 21.275C7.84377 21.2938 7.58752 21.275 7.34377 21.225C7.13752 21.175 6.91877 21.175 6.70627 21.225L5.74377 21.2625L5.51252 21.3125V21.25L5.50002 21.2438L5.37502 21.225H5.23752V21.15C5.17502 21.1875 5.08752 21.1688 5.08752 21.125C5.08752 21.0813 4.95627 21.075 4.91877 21.0688C4.88127 21.0625 4.80627 21.025 4.73127 21.0063L4.66877 21C4.63127 21 4.60002 21 4.56877 21.0063C4.51877 21.0063 4.48752 20.9938 4.43752 20.9938C4.40627 21 4.36877 21 4.33752 20.9938C4.29377 20.975 4.24377 20.9688 4.19377 20.975C4.15627 20.9875 4.23127 21.0063 4.18127 21.0375C4.13127 21.0688 4.13127 21.075 4.10627 21.0563C4.08127 21.0438 4.11252 21 4.11252 21L4.05627 20.975L3.98752 20.9938C3.94377 21.0063 3.90002 21.0063 3.85002 21.0063C3.79377 21.0063 3.74377 21.0063 3.68752 21.0188L3.59377 21.0438C3.48127 20.9688 3.37502 20.8938 3.26877 20.8125L3.23752 20.875C3.13752 20.7938 3.14377 20.7813 3.13752 20.75V20.7375C3.09377 20.7688 3.03127 20.7625 3.00002 20.725C3.00002 20.725 3.04377 20.7313 3.06252 20.7125C3.05002 20.7125 3.03752 20.7 3.02502 20.6938C3.00002 20.6875 2.98752 20.6813 3.01252 20.6688L3.03127 20.6563C3.01877 20.65 3.01252 20.6438 3.00002 20.6375C2.97502 20.6313 2.95627 20.625 2.93127 20.6063L2.89377 20.5563L2.81877 20.4188C2.82502 20.4 2.83127 20.3813 2.83752 20.3563C2.84377 20.3125 2.78752 20.3188 2.78752 20.3188L2.77502 20.4C2.74377 20.3063 2.72502 20.2125 2.70627 20.1188L2.75627 20.0625C2.75627 20.0625 2.80002 20.0813 2.80002 20.0625C2.80002 20.025 2.78127 19.9938 2.75627 19.9688H2.73752L2.69377 19.9563L2.68752 19.7125L2.73127 19.6688L2.75627 19.6L2.76877 19.4875C2.78127 19.4625 2.80002 19.4438 2.81877 19.4313L2.82502 19.3313L2.81252 19.2688L2.82502 19.2438L2.83752 19.2C2.84377 19.175 2.83127 19.1563 2.81252 19.1438H2.80627H2.79377L2.76877 19.2375C2.75627 19.125 2.67502 19.0625 2.66877 18.9375L2.70627 18.9L2.72502 18.8813C2.72502 18.8813 2.76252 18.9125 2.76877 18.8813C2.77502 18.8438 2.76877 18.8 2.74377 18.7688H2.72502H2.70627L2.68127 18.7625C2.68127 18.6813 2.63752 18.6188 2.64377 18.5438C2.65002 18.4688 2.68752 18.425 2.68752 18.425C2.68752 18.425 2.76877 18.6063 2.78127 18.3313C2.78752 18.1625 2.75002 17.9938 2.68127 17.8438C2.65627 17.6438 2.66877 17.4375 2.71252 17.2375C2.75627 17.0688 2.75002 16.8875 2.70002 16.725L2.64377 15.95L2.59377 15.7625H2.66252L2.66877 15.75L2.68752 15.65V15.5313H2.75002C2.71252 15.475 2.72502 15.4063 2.76877 15.4C2.81252 15.3938 2.81252 15.2813 2.81877 15.25C2.82502 15.2188 2.85627 15.15 2.86877 15.075V15.0188C2.86877 14.9875 2.86252 14.9563 2.85002 14.925C2.84377 14.8813 2.85627 14.85 2.85002 14.8C2.83752 14.7688 2.83752 14.7313 2.83752 14.7C2.85002 14.65 2.85002 14.6 2.83752 14.5563C2.81877 14.525 2.81252 14.6 2.76877 14.5563C2.72502 14.5125 2.72502 14.5125 2.73752 14.4813C2.75002 14.45 2.79377 14.4813 2.79377 14.4813L2.80627 14.4188L2.77502 14.35C2.75627 14.3063 2.74377 14.2563 2.73752 14.2063C2.72502 14.15 2.70627 14.0875 2.68752 14.0313L2.63127 13.9375C2.66877 13.7875 2.70002 13.6313 2.73127 13.4625H2.66252L2.72502 13.0688L2.73752 13.025C2.68127 12.9063 2.64377 12.7813 2.63752 12.65C2.63752 12.65 2.66877 12.7313 2.70002 12.7063L2.67502 12.6188C2.65627 12.575 2.65002 12.5563 2.67502 12.5563H2.70002L2.68127 12.4938C2.66252 12.4688 2.64377 12.4375 2.63127 12.4063L2.61877 12.3L2.58127 12.1063C2.59377 12.0875 2.60002 12.0688 2.61252 12.0438C2.62502 12 2.57502 11.9938 2.57502 11.9938L2.54377 12.075C2.53752 11.975 2.53127 11.875 2.53752 11.775L2.60002 11.725C2.60002 11.725 2.63752 11.75 2.64377 11.725C2.65002 11.6875 2.64377 11.6563 2.61877 11.6313H2.60627L2.56252 11.6188L2.58752 11.3938L2.63752 11.3563L2.66877 11.2938L2.69377 11.1938C2.70627 11.175 2.73127 11.1563 2.75002 11.1438L2.76252 11.0563L2.75002 11L2.76252 10.975L2.78127 10.9375C2.79377 10.9063 2.76877 10.8938 2.75002 10.8875H2.74377L2.71252 10.9688C2.70627 10.8688 2.62502 10.8125 2.63127 10.7063L2.67502 10.675L2.69377 10.6563C2.69377 10.6563 2.73127 10.6875 2.73752 10.6563C2.74377 10.6188 2.73752 10.5875 2.71252 10.5625H2.68752L2.66877 10.5563L2.64377 10.55C2.64377 10.4875 2.60627 10.425 2.61252 10.3688V10.3375L2.59377 10.3188L2.80002 10.1063L2.82502 10.0438C2.86252 9.96876 3.01252 10.0938 3.01252 10.0938L3.02502 10.0375L3.06252 10.0188C3.06252 10.0188 3.07502 10.0625 3.10002 10.0625C3.12502 10.0563 3.12502 10.0625 3.11877 10.0063C3.11252 9.95001 3.06877 9.98126 3.07502 9.95626C3.08127 9.92501 3.13127 9.90626 3.16252 9.89376C3.19377 9.88126 3.19377 9.86876 3.22502 9.84376C3.25002 9.81876 3.28127 9.81876 3.30627 9.80001C3.32502 9.78126 3.33752 9.76876 3.36252 9.75626L3.41252 9.74376C3.46252 9.73751 3.51252 9.73751 3.56877 9.74376C3.59377 9.74376 3.69377 9.71251 3.70627 9.75626C3.72502 9.80001 3.78752 9.80001 3.82502 9.75001L3.83752 9.81251L3.93752 9.79376H4.03752L4.05002 9.80001L4.05627 9.86251L4.14377 9.88751L4.18127 9.86251C4.23127 9.89376 4.27502 9.92501 4.31252 9.96251L4.33127 10.0313C4.41252 9.95626 4.50002 9.88751 4.60002 9.84376C4.66252 9.81876 4.72502 9.80001 4.79377 9.78751L4.85002 9.77501C4.88752 9.76876 4.92502 9.75626 4.96252 9.74376L5.04377 9.71251L5.12502 9.72501C5.12502 9.72501 5.10002 9.75626 5.11252 9.76876C5.11252 9.77501 5.11877 9.77501 5.12502 9.78126C5.13752 9.78751 5.15627 9.78751 5.16877 9.78126C5.18752 9.76876 5.20627 9.76251 5.22502 9.74376C5.28127 9.70001 5.18127 9.69376 5.22502 9.67501C5.28752 9.66251 5.35002 9.66251 5.40627 9.67501C5.45002 9.68126 5.49377 9.67501 5.53752 9.66876C5.60002 9.66251 5.63752 9.67501 5.70002 9.66876C5.73752 9.66251 5.77502 9.65626 5.81877 9.65626H5.89377C5.95627 9.66876 6.01877 9.68126 6.07502 9.70001L6.10627 9.70626C6.16877 9.70626 6.22502 9.71876 6.28127 9.73751L6.36877 9.70001C6.43752 9.68126 6.51252 9.66251 6.58752 9.65001C6.65002 9.64376 6.70627 9.63126 6.76252 9.61251L6.85002 9.58126L6.93127 9.59376C6.93127 9.59376 6.89377 9.63751 6.93127 9.65001C6.96877 9.66251 6.96877 9.66251 7.03127 9.61876C7.09377 9.57501 6.98752 9.56876 7.03127 9.55001H7.05002C7.10627 9.54376 7.16252 9.54376 7.21877 9.55001C7.26252 9.55626 7.30627 9.55001 7.35002 9.54376C7.41252 9.53751 7.45002 9.55001 7.51252 9.54376C7.55002 9.53751 7.58752 9.53126 7.63127 9.53126H7.64377H7.66252C7.72502 9.52501 7.78127 9.51251 7.83752 9.49376L7.92502 9.46251L8.00627 9.47501C8.00627 9.47501 7.96877 9.51876 8.00627 9.53126C8.04377 9.54376 8.04377 9.54376 8.10627 9.50001C8.16877 9.45626 8.06252 9.45001 8.10627 9.43126C8.16877 9.41876 8.23128 9.41876 8.28753 9.43126C8.33127 9.43751 8.37502 9.43126 8.41877 9.42501C8.48127 9.41876 8.51877 9.43126 8.58127 9.42501C8.61878 9.41876 8.65627 9.41251 8.70002 9.41251H8.77502C8.86252 9.42501 8.95627 9.46251 8.99377 9.46251C9.03127 9.46876 9.17502 9.46876 9.18127 9.51251C9.18752 9.55626 9.27503 9.57501 9.35003 9.53751V9.60626H9.50002L9.63128 9.62501L9.65002 9.63126V9.70001L9.76252 9.73751L9.81252 9.71876C9.86252 9.75001 9.91252 9.78126 9.96252 9.81876C10.025 9.80626 9.99378 9.77501 10.05 9.73751C10.1063 9.68126 10.15 9.61876 10.1813 9.55001C10.25 9.57501 10.325 9.58126 10.4 9.57501C10.5563 9.57501 10.4 9.57501 10.5813 9.52501C10.7625 9.47501 10.7125 9.39376 10.8688 9.43126C10.95 9.45626 11.0313 9.45001 11.1063 9.42501C11.1375 9.39376 11.175 9.36876 11.2063 9.34376C11.2438 9.32501 11.275 9.30001 11.3 9.26251C11.3 9.26251 11.3625 9.24376 11.3563 9.11876C11.35 8.99376 11.4375 9.15626 11.425 9.08126C11.4813 8.89376 11.4813 8.69376 11.425 8.50001C11.4 8.35001 11.3375 8.40001 11.3813 8.23751C11.4063 8.15001 11.4125 8.30626 11.475 8.00001C11.4938 7.90626 11.5125 7.93751 11.4375 7.83126C11.3875 7.80626 11.3375 7.77501 11.2938 7.73751C11.275 7.67501 11.1938 7.75626 11.2125 7.66876C11.0813 7.63751 10.9438 7.61251 10.8 7.58751L10.625 7.56251L10.35 7.51251L10.3063 7.50001C10.1938 7.57501 9.91253 7.43126 9.91253 7.43126C9.91253 7.43126 10.1063 7.35626 9.81878 7.33751C9.64377 7.32501 9.46877 7.35626 9.31252 7.42501C9.10003 7.44376 8.89377 7.42501 8.68752 7.37501C8.51252 7.32501 8.33127 7.32501 8.15627 7.37501L7.35627 7.41251L7.16877 7.45626V7.39376L7.15627 7.38751L7.05002 7.36876H6.93127V7.30001C6.87502 7.33751 6.80002 7.32501 6.79377 7.27501C6.78752 7.23126 6.67502 7.23126 6.63752 7.22501C6.60627 7.21876 6.53752 7.18751 6.46252 7.16876H6.40002C6.36877 7.16876 6.33752 7.17501 6.30627 7.18126C6.26252 7.18751 6.22502 7.17501 6.17502 7.18126C6.13752 7.19376 6.10627 7.19376 6.06877 7.18751C6.01877 7.17501 5.96877 7.17501 5.91877 7.18751C5.88127 7.20626 5.96252 7.21251 5.91877 7.25626C5.87502 7.30001 5.86877 7.30001 5.83752 7.28751C5.80627 7.27501 5.83752 7.23126 5.83752 7.23126L5.76877 7.21876L5.69377 7.24376C5.64377 7.26251 5.60002 7.27501 5.55002 7.28126C5.48752 7.29376 5.43127 7.30626 5.37502 7.33126L5.27502 7.38751C5.10627 7.34376 4.93127 7.31251 4.76252 7.28751V7.35626L4.30002 7.31251L4.24377 7.30626C4.10002 7.37501 3.94377 7.42501 3.78127 7.45626C3.78127 7.45626 3.87502 7.41251 3.84377 7.38751L3.73127 7.42501C3.67502 7.45626 3.65627 7.46251 3.65002 7.43751V7.41251L3.57502 7.44376C3.54377 7.47501 3.50627 7.49376 3.47502 7.51876L3.35627 7.55626L3.10627 7.65626C3.07502 7.65626 3.04377 7.65626 3.01877 7.65626C2.95627 7.65626 2.96252 7.71251 2.96252 7.71251L3.08127 7.70626L2.68752 7.85626L2.60002 7.82501C2.60002 7.82501 2.61877 7.77501 2.58127 7.78751C2.53127 7.80001 2.48752 7.83126 2.46252 7.87501L2.46877 7.89376V7.93751C2.36877 7.98126 2.26252 8.03751 2.16252 8.08126L2.09377 8.06251L2.00002 8.08751L1.86252 8.16251C1.83127 8.16876 1.80002 8.16876 1.76877 8.16251L1.64377 8.24376L1.58752 8.30626L1.55627 8.31876L1.50002 8.35001C1.45002 8.38126 1.45627 8.41251 1.46252 8.42501V8.43126L1.58127 8.36251C1.46877 8.47501 1.46877 8.59376 1.35627 8.71251L1.29377 8.72501L1.26252 8.73126C1.26252 8.73126 1.26252 8.66876 1.23127 8.70626C1.18752 8.74376 1.16252 8.79376 1.15627 8.85001L1.17502 8.86251L1.18127 8.88126L1.19377 8.90626C1.13127 8.99376 1.11252 9.09376 1.05627 9.17501L1.02502 9.21876L1.03127 9.38126L0.956274 9.46251L0.987524 9.65626C0.968774 9.66876 0.962524 9.67501 0.950024 9.68751C0.887524 9.67501 0.818774 9.71251 0.800024 9.77501L0.756274 9.91251C0.706274 10.1063 0.668774 10.3 0.643774 10.5L0.662524 10.6125C0.681274 10.75 0.487524 10.7813 0.487524 10.7813L0.518774 10.8688L0.506274 10.95C0.506274 10.95 0.462524 10.9063 0.450024 10.95C0.437524 10.9938 0.437524 10.9875 0.475024 11.05C0.512524 11.1125 0.525024 11.0063 0.543774 11.05C0.556274 11.1125 0.556274 11.1688 0.543774 11.2313C0.537524 11.275 0.543774 11.3188 0.550024 11.3625C0.556274 11.425 0.537524 11.4625 0.550024 11.5188C0.556274 11.5563 0.562524 11.5938 0.562524 11.6313L0.556274 11.7063C0.543774 11.7938 0.506274 11.8813 0.500024 11.9188C0.493774 11.9563 0.487524 12.1 0.443774 12.1063C0.400024 12.1125 0.381274 12.2 0.418774 12.2688H0.318774V12.4188L0.300024 12.55L0.293774 12.5688H0.218774L0.181274 12.6813L0.200024 12.7313C0.168774 12.7875 0.131274 12.8375 0.0875244 12.8875L0.0250244 12.9C0.0937744 13.0063 0.150024 13.1188 0.200024 13.2313C0.218774 13.3 0.237524 13.375 0.250024 13.4438L0.262524 13.5C0.268774 13.5375 0.275024 13.5813 0.287524 13.6188L0.318774 13.7063L0.306274 13.7875C0.306274 13.7875 0.275024 13.7625 0.262524 13.775C0.256274 13.775 0.256274 13.7813 0.250024 13.7875C0.243774 13.8 0.243774 13.8188 0.250024 13.8313C0.256274 13.85 0.268774 13.8688 0.287524 13.8875C0.331274 13.9438 0.337524 13.8438 0.356274 13.8875C0.368774 13.95 0.368774 14.0063 0.356274 14.0688C0.350024 14.1125 0.356274 14.1563 0.362524 14.2C0.368774 14.2625 0.356274 14.3 0.362524 14.3563C0.368774 14.3938 0.375024 14.4313 0.375024 14.4688V14.5438C0.362524 14.6063 0.350024 14.6625 0.331274 14.725L0.318774 14.75C0.318774 14.8063 0.306274 14.8688 0.287524 14.925L0.331274 15.0125C0.350024 15.0813 0.368774 15.1563 0.381274 15.225C0.387524 15.2875 0.400024 15.3438 0.418774 15.4L0.450024 15.4875L0.443774 15.5625C0.443774 15.5625 0.400024 15.525 0.387524 15.5625C0.375024 15.6 0.375024 15.6 0.418774 15.6563C0.462524 15.7125 0.468774 15.6125 0.487524 15.6563V15.675C0.493774 15.7313 0.493774 15.7875 0.487524 15.8375C0.481274 15.8813 0.487524 15.925 0.500024 15.9688C0.506274 16.0313 0.493774 16.0688 0.500024 16.125L0.518774 16.2375V16.25V16.2688C0.525024 16.3313 0.537524 16.3875 0.562524 16.4438L0.593774 16.5313L0.581274 16.6125C0.581274 16.6125 0.537524 16.575 0.525024 16.6125C0.512524 16.65 0.512524 16.65 0.556274 16.7063C0.600024 16.7625 0.606274 16.6625 0.625024 16.7063C0.637524 16.7688 0.637524 16.825 0.625024 16.8875C0.625024 16.9313 0.625024 16.975 0.637524 17.0188C0.643774 17.0813 0.631274 17.1188 0.637524 17.175L0.656274 17.2875V17.3625C0.643774 17.45 0.612524 17.5375 0.612524 17.575C0.606274 17.6125 0.612524 17.7563 0.568774 17.7625C0.525024 17.7688 0.512524 17.8625 0.550024 17.925H0.475024V18.0688L0.462524 18.2L0.456274 18.2188H0.381274L0.350024 18.3313L0.368774 18.3813C0.337524 18.4375 0.306274 18.4875 0.268774 18.5313C0.281274 18.5875 0.312524 18.5563 0.356274 18.6125C0.412524 18.6688 0.481274 18.7063 0.550024 18.7313C0.531274 18.8 0.525024 18.875 0.531274 18.9438C0.531274 19.1 0.531274 18.9438 0.587524 19.1188C0.587524 19.125 0.593774 19.1313 0.593774 19.1375C0.575024 19.15 0.556274 19.1625 0.531274 19.175L0.568774 19.2813L0.562524 19.4C0.562524 19.4 0.518774 19.35 0.506274 19.4C0.500024 19.45 0.500024 19.45 0.543774 19.525C0.587524 19.6 0.587524 19.4688 0.612524 19.525C0.631274 19.6 0.631274 19.6813 0.625024 19.7625C0.625024 19.8188 0.631274 19.8813 0.643774 19.9375C0.662524 20.0188 0.643774 20.075 0.662524 20.15L0.693774 20.3063L0.706274 20.4063C0.706274 20.525 0.700024 20.6688 0.706274 20.725C0.712524 20.7813 0.756274 20.9938 0.718774 21.0188C0.681274 21.0438 0.700024 21.1875 0.775024 21.2875L0.712524 21.3063L0.806274 21.5563C0.831274 21.6313 0.862524 21.7125 0.893774 21.7938L0.900024 21.825L0.843774 21.8563C0.868774 21.9313 0.893774 22.0063 0.931274 22.0813L1.00627 22.1625C1.04377 22.2813 1.09377 22.4 1.13752 22.5063L1.11877 22.5875C1.33752 22.725 1.57502 22.8438 1.81877 22.9375C1.91877 22.9875 2.04377 23.025 2.18127 23.0813L2.27502 23.1125C2.33752 23.1313 2.40002 23.15 2.46252 23.1625L2.60002 23.1813L2.71252 23.2375C2.71252 23.2375 2.66877 23.25 2.68127 23.275C2.68752 23.2813 2.68752 23.2875 2.69377 23.2938C2.71252 23.3063 2.73127 23.3125 2.75627 23.3125C2.78752 23.3188 2.81877 23.3188 2.85002 23.3125C2.94377 23.3 2.80002 23.2438 2.86877 23.25C2.96252 23.2688 3.05002 23.2938 3.13752 23.325C3.20002 23.3438 3.26252 23.3563 3.33127 23.3625C3.42502 23.375 3.47502 23.4 3.56252 23.4125C3.62502 23.4125 3.66252 23.4125 3.73127 23.425L3.83127 23.4438C3.92502 23.4625 4.01877 23.5 4.08127 23.5188L4.12502 23.5313C4.20627 23.5375 4.28752 23.5563 4.36252 23.5875L4.48752 23.5563C4.55002 23.55 4.65627 23.5313 4.77502 23.525C4.85002 23.5188 4.93127 23.5125 5.00627 23.4938L5.11252 23.4625L5.21252 23.475C5.21252 23.475 5.16252 23.5188 5.21252 23.5313C5.26252 23.5438 5.26252 23.5438 5.33752 23.5C5.41252 23.4563 5.28752 23.45 5.33752 23.4313H5.35627C5.42502 23.425 5.49377 23.4313 5.56252 23.4375C5.61877 23.4438 5.66877 23.4375 5.72502 23.4313C5.80002 23.425 5.85002 23.4438 5.91877 23.4313C5.96877 23.425 6.00627 23.4188 6.06252 23.4188H6.08127C6.15627 23.4125 6.22502 23.4 6.29377 23.3813L6.39377 23.3375L6.48752 23.35C6.48752 23.35 6.43752 23.3938 6.48752 23.4063C6.53752 23.4188 6.53752 23.4188 6.60627 23.375C6.67502 23.3313 6.55627 23.325 6.60627 23.3063C6.68127 23.2938 6.75627 23.2938 6.82502 23.3063C6.87502 23.3125 6.93127 23.3063 6.98127 23.3C7.05627 23.2938 7.10627 23.3063 7.17502 23.3C7.21877 23.2938 7.26877 23.2875 7.31252 23.2875H7.40002C7.50002 23.3 7.61877 23.3375 7.66252 23.3375C7.70627 23.3438 7.88127 23.3438 7.89377 23.3875C7.90002 23.4313 8.01253 23.45 8.10003 23.4125V23.4813H8.28127L8.44378 23.5L8.46252 23.5063V23.575L8.60003 23.6125L8.66253 23.5938C8.72503 23.625 8.78753 23.6563 8.84377 23.6938C8.91253 23.6813 8.87502 23.65 8.94378 23.6125C9.01253 23.5625 9.06252 23.4938 9.10003 23.425C9.18752 23.45 9.27503 23.4563 9.36252 23.45C9.55002 23.45 9.36252 23.45 9.58127 23.4C9.80002 23.35 9.73752 23.2688 9.92502 23.3063C10.0188 23.3313 10.1188 23.3313 10.2063 23.3063C10.2438 23.275 10.2813 23.2438 10.325 23.225C10.3688 23.2063 10.4063 23.1813 10.4375 23.1438C10.4375 23.1438 10.5125 23.125 10.5063 23C10.4938 22.875 10.6063 23.0375 10.5875 22.9625C10.6563 22.775 10.6563 22.5688 10.5875 22.3813C10.5563 22.2313 10.475 22.2813 10.5313 22.1188C10.5625 22.0313 10.5688 22.1875 10.6438 21.8813C10.6625 21.7875 10.6875 21.8188 10.5938 21.7125C10.55 21.6938 10.4875 21.6563 10.4375 21.6188Z" fill="#0041E6"/>
<path d="M32.0125 15.1063C32.0063 15.05 32.0188 15.0125 32.0125 14.9438C32 14.9 32 14.8563 32 14.8125C32.0125 14.75 32.0125 14.6875 32 14.6313C31.9813 14.5875 31.975 14.6875 31.9313 14.6313C31.8875 14.575 31.8875 14.575 31.9 14.5375C31.9125 14.5 31.9563 14.5375 31.9563 14.5375L31.9688 14.4563L31.9375 14.3688C31.9188 14.3125 31.9063 14.25 31.8938 14.1938C31.8813 14.1188 31.8625 14.05 31.8438 13.9813L31.7875 13.8625C31.825 13.6625 31.8563 13.4938 31.875 13.2375L31.8063 13.2438C31.825 12.9625 31.8125 12.675 31.7563 12.4L31.7375 12.3C31.6063 12.0688 31.4563 11.85 31.2875 11.6438C31.2875 11.6438 31.4125 11.7563 31.4063 11.7L31.4 11.6938L31.2688 11.5563C31.1938 11.5 31.1688 11.475 31.1813 11.4625L31.2 11.4438L31.1063 11.3688H31.1C31.0375 11.35 30.9813 11.325 30.925 11.3C30.8688 11.2625 30.8125 11.225 30.7563 11.2C30.6313 11.1438 30.5063 11.1 30.375 11.0625C30.3438 11.0375 30.3063 11.0125 30.275 10.9938C30.1938 10.9563 30.1563 11 30.1563 11L30.3063 11.075C30.1063 11.0188 29.9063 10.975 29.7 10.95L29.6063 10.875C29.6063 10.875 29.6688 10.8438 29.6125 10.8313C29.5438 10.8125 29.475 10.8188 29.4063 10.8438V10.8625L29.375 10.9063L29.025 10.875L28.975 10.825L28.8875 10.7938L28.7438 10.775C28.7188 10.7625 28.6938 10.7438 28.6688 10.725L28.5375 10.7188L28.4625 10.7375L28.4313 10.7313L28.375 10.7188C28.35 10.7125 28.3188 10.725 28.3125 10.75V10.7563V10.7625L28.4313 10.7813C28.375 10.7875 28.3188 10.8125 28.2688 10.8438C28.2563 10.8688 28.225 10.8875 28.1938 10.8875L28.1625 10.85L28.15 10.8313C28.15 10.8313 28.175 10.7938 28.15 10.7875C28.1188 10.7813 28.0875 10.7938 28.0625 10.8188V10.8375V10.8563L28.0563 10.8813C27.9938 10.8813 27.9313 10.9188 27.8625 10.9125C27.8563 10.9063 27.8438 10.8938 27.8375 10.8938V10.9125H27.825L27.8125 10.925L27.775 10.5L27.825 10.3938C27.825 10.3938 27.8688 10.45 27.8688 10.3938C27.8688 10.3188 27.85 10.25 27.8188 10.1875H27.8L27.7563 10.1688C27.7375 9.96876 27.7 9.77501 27.6438 9.58126L27.65 9.46251L27.6063 9.27501C27.5688 9.17501 27.525 9.08126 27.475 8.98751C27.4563 8.93126 27.4438 8.88126 27.4313 8.82501C27.375 8.74376 27.3188 8.66251 27.2563 8.58126L27.125 8.46876L27.0813 8.40626C27.0563 8.37501 27.025 8.34376 26.9938 8.31251C26.9125 8.23751 26.8688 8.23751 26.85 8.23751H26.8375C26.9063 8.30001 26.9688 8.36251 27.0313 8.43126C26.8063 8.27501 26.5625 8.15626 26.3063 8.06876L26.225 7.98751L26.1875 7.95001C26.1875 7.95001 26.2813 7.94376 26.2 7.91251C26.1563 7.89376 26.1063 7.88751 26.0563 7.87501C26.0438 7.80626 25.9938 7.89376 26.0063 7.80626C25.9188 7.77501 25.8313 7.75001 25.7438 7.72501L25.65 7.66876L25.475 7.61876L25.4438 7.60626C25.375 7.68126 25.1875 7.53751 25.1875 7.53751C25.1875 7.53751 25.3125 7.46251 25.125 7.44376C25.0125 7.43751 24.8938 7.46251 24.8 7.53126C24.6625 7.55001 24.525 7.53126 24.4 7.48751C24.2938 7.43751 24.1688 7.43751 24.0625 7.48751L23.55 7.52501C23.5063 7.53751 23.4688 7.55626 23.425 7.57501V7.50001L23.4188 7.49376L23.35 7.47501H23.2688V7.40626C23.2313 7.44376 23.1813 7.43126 23.1813 7.38751C23.1813 7.34376 23.1063 7.34376 23.0813 7.33751C23.0563 7.33126 23.0125 7.30001 22.9688 7.28751H22.9313C22.9125 7.28751 22.8875 7.29376 22.8688 7.30001C22.8375 7.30626 22.8188 7.29376 22.7875 7.30001C22.7563 7.30626 22.7438 7.31251 22.7188 7.30626C22.6938 7.30001 22.6438 7.28751 22.625 7.30626C22.6063 7.32501 22.6563 7.33126 22.625 7.37501C22.5938 7.41876 22.5938 7.41876 22.575 7.40626C22.5563 7.39376 22.575 7.35001 22.575 7.35001C22.5625 7.34376 22.55 7.34376 22.5313 7.33751L22.4875 7.36876C22.4563 7.38751 22.425 7.40001 22.3938 7.40626C22.3563 7.41876 22.3188 7.43751 22.2813 7.45626C22.2625 7.47501 22.2375 7.49376 22.2188 7.51251C22.1188 7.47501 22.0125 7.43751 21.9125 7.41251V7.48126L21.65 7.42501L21.6188 7.41251C21.5438 7.46876 21.4625 7.50001 21.3688 7.51251C21.3688 7.51251 21.4188 7.48126 21.4063 7.45001L21.35 7.47501C21.3188 7.49376 21.3063 7.50001 21.3063 7.47501V7.45626L21.2625 7.47501C21.25 7.49376 21.2313 7.51251 21.2063 7.53126L21.1375 7.54376L21.0063 7.58751C20.9938 7.57501 20.9813 7.56876 20.9688 7.56251C20.9375 7.55001 20.9375 7.60001 20.9375 7.60001L20.9938 7.63126C20.925 7.64376 20.8625 7.64376 20.7938 7.64376L20.7625 7.58126C20.7625 7.58126 20.7813 7.54376 20.7625 7.53751C20.7375 7.53126 20.7125 7.54376 20.7 7.56876V7.58751L20.6938 7.63126C20.6438 7.62501 20.5938 7.62501 20.5438 7.61251L20.525 7.56251L20.4875 7.53126L20.425 7.51251C20.4125 7.49376 20.4 7.47501 20.3938 7.45626C20.3688 7.45001 20.35 7.44376 20.3313 7.44376L20.2938 7.45626L20.2813 7.44376L20.2563 7.43126C20.2375 7.41876 20.225 7.44376 20.225 7.46251V7.46876L20.2813 7.50001C20.2188 7.50626 20.1813 7.58751 20.1125 7.58751L20.0938 7.54376L20.0813 7.52501C20.0813 7.52501 20.1 7.48751 20.0813 7.48126C20.0563 7.47501 20.0313 7.48751 20.0188 7.51251V7.53126V7.55001L20.0125 7.57501C19.9688 7.57501 19.9313 7.61876 19.8938 7.61251H19.875L19.8188 7.69376L19.7813 7.66251L19.7125 7.76251C19.7 7.74376 19.6875 7.72501 19.6813 7.70626C19.65 7.70001 19.625 7.78751 19.6063 7.78126L19.5625 7.76876C19.5438 7.86251 19.5313 7.70001 19.525 7.79376C19.525 7.79376 19.4938 7.76251 19.425 7.89376C19.35 8.03126 19.3563 8.05001 19.3563 8.05001C19.3438 8.08126 19.3313 8.11251 19.325 8.14376C19.3063 8.22501 19.325 8.30001 19.375 8.30626C19.425 8.31251 19.3875 8.44376 19.3875 8.44376C19.3938 8.47501 19.4188 8.50001 19.4563 8.50626C19.5125 8.50626 19.4313 8.60626 19.3875 8.65626C19.3375 8.70626 19.3688 8.86251 19.3688 8.90626C19.3688 8.95001 19.2938 9.18751 19.3625 9.21876C19.4063 9.24376 19.4563 9.25001 19.5 9.23126C19.5 9.23126 19.4625 9.40626 19.55 9.45001C19.5813 9.46251 19.6063 9.47501 19.6375 9.48751C19.7625 9.53126 19.8938 9.56251 20.0188 9.58126C20.0438 9.57501 20.0688 9.56251 20.0938 9.56251C20.1813 9.54376 20.2063 9.73751 20.2063 9.73751L20.2625 9.70626C20.2813 9.70626 20.3 9.71251 20.3125 9.71876C20.3125 9.71876 20.2875 9.76251 20.3125 9.77501C20.3375 9.78751 20.3375 9.78751 20.375 9.74376C20.4125 9.70001 20.35 9.69376 20.375 9.67501C20.4125 9.66251 20.4563 9.66251 20.4938 9.67501C20.525 9.68126 20.55 9.67501 20.5813 9.66876C20.625 9.66251 20.65 9.67501 20.6813 9.66876C20.7063 9.66251 20.7313 9.65626 20.7563 9.65626H20.8063C20.8625 9.66876 20.9188 9.70626 20.9438 9.70626C20.9688 9.71251 21.0625 9.71251 21.0625 9.75626C21.0625 9.80001 21.125 9.81876 21.1625 9.77501V9.84376H21.2563L21.3438 9.86251L21.3563 9.86876V9.93751L21.4313 9.97501L21.4625 9.95626C21.5 9.98751 21.5313 10.025 21.5625 10.0625L21.575 10.1313C21.6375 10.0625 21.7125 10.0063 21.7875 9.95626C21.8313 9.93751 21.8813 9.91876 21.925 9.90626L21.9625 9.90001C21.9875 9.89376 22.0125 9.88126 22.0375 9.86876L22.0938 9.83751C22.1125 9.83751 22.1313 9.84376 22.1438 9.85001C22.1438 9.85001 22.125 9.88126 22.1375 9.89376C22.1375 9.90001 22.1438 9.90001 22.1438 9.90626C22.1563 9.91251 22.1625 9.91251 22.1688 9.90626C22.1813 9.89376 22.1938 9.88751 22.2063 9.86876C22.2438 9.82501 22.1813 9.81876 22.2063 9.80001C22.2313 9.78126 22.2938 9.79376 22.325 9.80001C22.3563 9.80626 22.3813 9.80001 22.4125 9.79376C22.45 9.78751 22.4813 9.80001 22.5125 9.79376C22.5375 9.78751 22.5625 9.78126 22.5875 9.78126H22.6313C22.675 9.79376 22.7125 9.80626 22.75 9.82501L22.7688 9.83126C22.7875 9.83751 22.8563 9.83751 22.8813 9.86251C22.9 9.85001 22.9188 9.83126 22.9375 9.81876C22.9813 9.80001 23.0313 9.78126 23.075 9.76876C23.1125 9.76251 23.1563 9.75001 23.1875 9.73126L23.2438 9.70001C23.2625 9.70001 23.2813 9.70626 23.2938 9.71251C23.2938 9.71251 23.2688 9.75626 23.2938 9.76876C23.3188 9.78126 23.3188 9.78126 23.3563 9.73751C23.3938 9.69376 23.3313 9.68751 23.3563 9.66876H23.3688C23.4 9.66251 23.4375 9.66251 23.4688 9.66876C23.5 9.67501 23.525 9.66876 23.5563 9.66251C23.5938 9.65626 23.625 9.66876 23.6563 9.66251C23.6813 9.65626 23.7063 9.65001 23.7313 9.65001H23.7375H23.75C23.7875 9.64376 23.8313 9.63126 23.8625 9.61251L23.9188 9.58751C23.9375 9.58751 23.9563 9.59376 23.9688 9.60001C23.9688 9.60001 23.9438 9.64376 23.9688 9.65626C23.9938 9.66876 23.9938 9.66876 24.0313 9.62501C24.0688 9.58126 24.0063 9.57501 24.0313 9.55626C24.0563 9.53751 24.1188 9.55001 24.15 9.55626C24.1813 9.56251 24.2063 9.55626 24.2375 9.55001C24.2563 9.54376 24.275 9.54376 24.2938 9.55001C24.3063 9.59376 24.3438 9.63751 24.4375 9.65001L24.6438 9.68126C24.7 9.68751 24.7625 9.70001 24.825 9.71251V9.73751H24.9188L25.0063 9.75626L25.0188 9.76251V9.83126L25.0938 9.86876L25.125 9.85001C25.1563 9.88126 25.1938 9.91876 25.2188 9.95001C25.2563 9.93751 25.2375 9.90626 25.275 9.86876C25.2875 9.85001 25.2938 9.83126 25.3 9.81251C25.3188 9.81876 25.35 9.82501 25.3688 9.83126C25.3875 9.83751 25.4375 9.83126 25.4625 9.84376C25.5625 9.86251 25.4625 10.0375 25.4625 10.0375H25.5188C25.525 10.05 25.5313 10.0625 25.5375 10.075C25.5375 10.075 25.4938 10.0938 25.5 10.1125C25.5063 10.1313 25.5 10.1313 25.55 10.125C25.6 10.1188 25.575 10.0813 25.6063 10.0813C25.6313 10.0875 25.65 10.1375 25.6563 10.1688C25.6625 10.1938 25.6688 10.2 25.6875 10.2313C25.7 10.2813 25.7125 10.325 25.7188 10.375C25.7313 10.4188 25.7438 10.4688 25.75 10.5188V10.6188C25.75 10.7438 25.7188 10.9063 25.7188 10.9688C25.7188 11.0313 25.725 11.275 25.6813 11.2875C25.6375 11.3 25.6313 11.45 25.675 11.5625H25.6063L25.6188 11.8125L25.6125 12.0313L25.6063 12.0563H25.5375L25.5063 12.25L25.5313 12.3313C25.5 12.425 25.4688 12.5125 25.4313 12.6L25.3625 12.6313C25.4438 12.8125 25.5063 12.9938 25.55 13.1813C25.5625 13.2563 25.5875 13.3875 25.6063 13.5438L25.6188 13.6438L25.65 13.8438L25.6875 13.9875L25.675 14.1188C25.675 14.1188 25.6438 14.0813 25.6313 14.1C25.625 14.1063 25.625 14.1125 25.625 14.1188C25.6188 14.1438 25.6188 14.1688 25.625 14.1938C25.6313 14.225 25.6438 14.2563 25.6625 14.2813C25.7063 14.375 25.7125 14.2125 25.7313 14.2813C25.7438 14.3813 25.7438 14.4875 25.7313 14.5875C25.7313 14.6625 25.7313 14.7375 25.7438 14.8063C25.7563 14.9063 25.7375 14.9813 25.7438 15.075L25.7625 15.2688V15.3938C25.7563 15.5063 25.7313 15.625 25.7188 15.7L25.7125 15.7563C25.7125 15.8563 25.7 15.95 25.6813 16.05L25.7188 16.2C25.7313 16.2813 25.7563 16.4125 25.7688 16.5625C25.775 16.6625 25.7875 16.7625 25.8063 16.8625L25.8375 17.0063L25.825 17.1438C25.825 17.1438 25.7813 17.075 25.7688 17.1438C25.7563 17.2125 25.7563 17.2125 25.8 17.3063C25.8438 17.4 25.85 17.2375 25.8688 17.3063V17.3313C25.875 17.425 25.875 17.5188 25.8625 17.6125C25.8563 17.6875 25.8625 17.7625 25.8688 17.8375C25.875 17.9375 25.8563 18.0125 25.8688 18.1063L25.8813 18.3V18.3188V18.35C25.8875 18.45 25.9 18.55 25.9125 18.65L25.9438 18.7938L25.9313 18.9313C25.9313 18.9313 25.8875 18.8625 25.875 18.9313C25.8625 19 25.8625 19 25.9 19.1C25.9375 19.2 25.95 19.0313 25.9688 19.1C25.9813 19.2 25.975 19.3063 25.9625 19.4063C25.9563 19.4813 25.9625 19.5563 25.9688 19.6313C25.975 19.7313 25.9563 19.8063 25.9688 19.9L25.9813 20.1L25.975 20.2188C25.9563 20.325 25.9375 20.425 25.9063 20.525C25.9 20.5813 25.875 20.7688 25.825 20.7625C25.775 20.7563 25.7375 20.8875 25.7688 20.925L25.7063 20.9063L25.6813 20.975C25.6688 20.9938 25.65 21.0063 25.6375 21.025H25.625L25.5688 20.9813C25.55 20.9875 25.5313 20.9875 25.5188 20.9875V21.0063L25.4688 20.9938C25.45 20.9875 25.4375 20.975 25.4188 20.9688V20.9875L25.3375 20.9688L25.3063 20.9625C25.2313 21.0375 25.0125 20.9063 25.0125 20.9063C25.0125 20.9063 25.15 20.825 24.9375 20.8125C24.8063 20.8063 24.6813 20.8438 24.5688 20.9125C24.4125 20.9375 24.2563 20.925 24.1063 20.8875C23.9813 20.8438 23.8375 20.85 23.7188 20.9L23.1313 20.9625L22.9938 21.0188V20.95L22.9813 20.9438L22.9 20.925H22.8125V20.8563C22.775 20.9 22.7188 20.8813 22.7125 20.8375C22.7063 20.7938 22.6188 20.7938 22.5938 20.7875C22.5688 20.7813 22.5125 20.75 22.4625 20.7438H22.375C22.35 20.75 22.325 20.7563 22.3063 20.7625C22.275 20.7688 22.25 20.7563 22.2125 20.7625C22.1875 20.775 22.1625 20.775 22.1313 20.775C22.1 20.775 22.0438 20.7625 22.0188 20.775C21.9938 20.7875 22.0563 20.8 22.0188 20.8438C21.9813 20.8875 21.9875 20.8875 21.9625 20.875C21.9375 20.8688 21.9625 20.8188 21.9625 20.8188L21.9125 20.8063L21.8625 20.8438C21.8313 20.8625 21.7938 20.875 21.7625 20.8875C21.7188 20.9 21.675 20.9188 21.6313 20.9438L21.5625 21C21.4438 20.9688 21.3188 20.9375 21.2 20.9188V20.9875L20.8938 20.9438L20.8625 20.9313C20.7813 20.9938 20.6813 21.0313 20.5813 21.05C20.5813 21.05 20.6438 21.0125 20.6188 20.9875L20.55 21.0125C20.5188 21.0375 20.5063 21.0375 20.5 21.0125V20.9875L20.4563 21.0063C20.4375 21.0313 20.4188 21.05 20.3938 21.0625L20.325 21.0813L20.1813 21.1313C20.1688 21.1188 20.15 21.1125 20.1313 21.1063C20.0938 21.0938 20.0938 21.15 20.0938 21.15L20.1563 21.175C20.0813 21.1875 20.0063 21.2 19.925 21.2L19.8875 21.1375C19.8875 21.1375 19.9063 21.1 19.8875 21.0938C19.8625 21.0875 19.8313 21.1 19.8188 21.125V21.1438L19.8125 21.1875H19.6375L19.6063 21.1438L19.5563 21.1125L19.4813 21.0938C19.4625 21.0813 19.45 21.0625 19.4438 21.0375L19.375 21.0313L19.3375 21.0438L19.3188 21.0313L19.2875 21.0188C19.2625 21.0063 19.2563 21.0375 19.25 21.05V21.0563L19.3125 21.0813C19.2375 21.0938 19.2 21.175 19.1188 21.175L19.0938 21.1375L19.0813 21.1188C19.0813 21.1188 19.1 21.0813 19.0813 21.075C19.0563 21.0688 19.025 21.0813 19.0125 21.1063V21.125V21.1438V21.1688C18.9625 21.1688 18.925 21.2125 18.875 21.2125H18.85L18.7875 21.3L18.7375 21.2688L18.6625 21.3688C18.6438 21.3563 18.6313 21.3375 18.625 21.3125C18.5938 21.3063 18.5625 21.3938 18.5438 21.3938L18.4938 21.3875C18.475 21.4813 18.4563 21.325 18.4563 21.4125C18.4563 21.4125 18.4188 21.3813 18.3438 21.5125C18.2625 21.6438 18.2688 21.675 18.2688 21.675C18.2563 21.7063 18.2438 21.7375 18.2375 21.7688C18.2188 21.85 18.2438 21.925 18.3 21.9313C18.3563 21.9375 18.3188 22.0688 18.3188 22.0688C18.325 22.1063 18.3625 22.125 18.4 22.125C18.4688 22.125 18.3813 22.225 18.325 22.2813C18.2688 22.3313 18.3125 22.4875 18.3063 22.5313C18.3063 22.575 18.225 22.8125 18.3063 22.8438C18.3563 22.8625 18.4125 22.8688 18.4688 22.85C18.4688 22.85 18.4313 23.025 18.5375 23.0625L18.6375 23.1C18.7813 23.1375 18.9313 23.1625 19.0875 23.175L19.1688 23.15C19.2688 23.125 19.3 23.3188 19.3 23.3188L19.3625 23.2813L19.425 23.2938C19.425 23.2938 19.3938 23.3375 19.425 23.35C19.4563 23.3563 19.4563 23.3625 19.5 23.3188C19.5438 23.275 19.4688 23.2688 19.5 23.25C19.5438 23.2375 19.5938 23.2375 19.6375 23.25C19.675 23.25 19.7063 23.25 19.7375 23.2375C19.7813 23.225 19.8125 23.2438 19.8563 23.2375C19.8813 23.2313 19.9125 23.2188 19.9438 23.2188H20C20.0625 23.2313 20.1375 23.2625 20.1625 23.2625C20.1875 23.2688 20.3 23.2625 20.3063 23.3063C20.3125 23.35 20.3813 23.3625 20.4313 23.325V23.3938H20.5438L20.6438 23.4063L20.6563 23.4125V23.4813L20.7438 23.5125L20.7813 23.4938C20.825 23.525 20.8625 23.5625 20.9 23.5938L20.9188 23.6625C20.9938 23.5938 21.075 23.5313 21.1625 23.475C21.2125 23.45 21.2688 23.4313 21.3188 23.4188L21.3625 23.4063C21.3938 23.4 21.4188 23.3875 21.45 23.375L21.5125 23.3375L21.575 23.3438C21.575 23.3438 21.5563 23.375 21.5688 23.3875C21.5688 23.3938 21.575 23.3938 21.575 23.3938C21.5875 23.4 21.6 23.4 21.6063 23.3938C21.6188 23.3813 21.6375 23.3688 21.6438 23.3563C21.6875 23.3125 21.6125 23.3063 21.6438 23.2875C21.6875 23.275 21.7375 23.2688 21.7813 23.2813C21.8125 23.2813 21.85 23.2813 21.8813 23.2688C21.925 23.2563 21.9563 23.275 22 23.2688C22.0313 23.2625 22.0563 23.25 22.0875 23.25H22.1438C22.1938 23.2563 22.2375 23.275 22.2813 23.2875L22.3063 23.2938C22.3313 23.2938 22.4063 23.2938 22.4375 23.3188L22.5 23.275C22.55 23.25 22.6063 23.2313 22.6563 23.2188C22.7 23.2125 22.7438 23.1938 22.7875 23.175L22.85 23.1375L22.9125 23.15C22.9125 23.15 22.8875 23.1938 22.9125 23.2063C22.9375 23.2188 22.9438 23.2125 22.9813 23.175C23.0188 23.1375 22.95 23.125 22.9813 23.1063H22.9938C23.0375 23.1 23.075 23.1 23.1188 23.1063C23.15 23.1063 23.1875 23.1063 23.2188 23.0938C23.2625 23.0813 23.2938 23.1 23.3375 23.0938C23.3688 23.0875 23.3938 23.0813 23.425 23.075H23.4313H23.4438C23.4875 23.0688 23.5313 23.05 23.575 23.0313L23.6375 22.9938L23.7 23.0063C23.7 23.0063 23.675 23.05 23.7 23.0625C23.725 23.075 23.7313 23.0688 23.7688 23.0313C23.8313 23.0438 23.8875 23.0688 23.9375 23.1C23.975 23.1625 24.1063 23.075 24.0813 23.1625L24.7875 23.2313L25.0375 23.2813L25.1375 23.2875L25.1563 23.3063C25.1688 23.3063 25.1625 23.3 25.1688 23.2938C25.3188 23.3125 25.4625 23.3125 25.6125 23.3125H25.75C25.9063 23.2563 26.1938 23.2188 26.4375 23.1313C26.5875 23.0813 26.7313 23.0188 26.875 22.95C26.8313 22.9813 26.4813 23.3438 27.1688 22.8313C27.5563 22.4563 27.8 21.9563 27.85 21.425C27.875 21.4063 27.975 20.6125 28.0375 20.1C28.0875 19.7938 28.0875 19.4813 28.0438 19.175V19.0625L28.325 19.1L28.3813 19.1125C28.5125 19.0375 28.8813 19.1625 28.8813 19.1625C28.8813 19.1625 28.6375 19.2563 29.0125 19.25C29.2625 19.2313 29.5063 19.1688 29.7313 19.0688C30.1625 18.9813 30.575 18.8375 30.9688 18.6375C31.2 18.5063 31.3875 18.3125 31.5125 18.0813C31.5688 17.9813 31.6063 17.8813 31.6375 17.775C31.8 17.3125 31.8563 16.8188 31.8125 16.325L31.7625 16.0938H31.8313L31.8375 16.075L31.8563 15.9438V15.8H31.925C31.8875 15.7313 31.9 15.6375 31.9438 15.6313C31.9875 15.625 31.9875 15.4813 31.9938 15.4438C32 15.4063 32.0313 15.3125 32.0438 15.225V15.15C32.0188 15.1813 32.0188 15.1438 32.0125 15.1063ZM29.7 16.9125C29.6813 16.9313 29.6875 16.9438 29.675 16.975C29.6625 17.0063 29.6375 17.0063 29.625 17.0313C29.6188 17.05 29.6063 17.0625 29.5875 17.075L29.55 17.0875C29.5063 17.0875 29.4688 17.0875 29.425 17.075C29.4063 17.075 29.3438 17.0875 29.325 17.05C29.3063 17.0125 29.275 17 29.2563 17.0438L29.2438 16.975L29.1188 16.9938H28.9875H28.9688L28.9625 16.925L28.8438 16.9L28.7938 16.925C28.7375 16.9 28.6813 16.8688 28.625 16.8313C28.5625 16.85 28.6 16.875 28.5375 16.9188C28.4813 16.975 28.4375 17.0375 28.4063 17.1125C28.3313 17.0938 28.25 17.0813 28.1688 17.0875H28.0938C28.0813 17.0063 28.0938 16.9313 28.125 16.925C28.1563 16.9188 28.175 16.7188 28.1813 16.6625C28.1875 16.6063 28.2188 16.4813 28.2375 16.3625L28.2438 16.2625C28.2438 16.2 28.2375 16.1625 28.2313 16.1C28.225 16.0188 28.2375 15.9625 28.2313 15.875C28.2188 15.8125 28.2188 15.75 28.225 15.6875C28.2375 15.6 28.2375 15.5125 28.225 15.4313C28.2063 15.3688 28.2 15.5125 28.1563 15.4313C28.1125 15.35 28.1125 15.35 28.125 15.2938C28.1375 15.2375 28.1813 15.2938 28.1813 15.2938L28.1938 15.1813L28.1625 15.0625C28.1438 14.9813 28.1313 14.9 28.125 14.8125C28.1125 14.6875 28.0875 14.575 28.075 14.5063L28.0188 14.3375C28.05 14.0688 28.0813 13.7938 28.1 13.4938H28.0313L28.0625 12.9063L28.175 12.8938C28.2938 12.8813 28.4125 12.9438 28.4625 13.0563L28.5438 13.0188L28.625 13.025C28.625 13.025 28.5875 13.075 28.625 13.0813C28.6625 13.0875 28.6625 13.0875 28.7188 13.0438C28.775 13 28.675 13 28.7188 12.975C28.775 12.9625 28.8375 12.9563 28.9 12.9688C28.9438 12.9688 28.9875 12.9688 29.025 12.9625C29.0813 12.9563 29.125 12.975 29.1688 12.9625C29.1813 12.9563 29.2 12.95 29.2188 12.95L29.2438 12.9563C29.275 12.975 29.3 13.0125 29.3063 13.0188C29.3188 13.025 29.3688 13.0375 29.3438 13.0813C29.3188 13.125 29.3313 13.1438 29.375 13.1188L29.3313 13.175L29.3625 13.1938L29.3688 13.225V13.2313L29.3125 13.2813L29.2875 13.3188H29.3063C29.275 13.35 29.2438 13.375 29.2125 13.3938L29.15 13.425C29.2063 13.3938 29.2625 13.3813 29.325 13.3875C29.3375 13.3875 29.3625 13.3938 29.375 13.4688L29.3875 13.525C29.3938 13.5688 29.4063 13.6125 29.4188 13.6563L29.45 13.75L29.4375 13.8375C29.4375 13.8375 29.4063 13.8125 29.3938 13.825C29.3875 13.8313 29.3875 13.8313 29.3813 13.8375C29.375 13.8563 29.375 13.8688 29.3813 13.8875C29.3875 13.9063 29.4 13.9313 29.4188 13.95C29.4625 14.0125 29.4688 13.9 29.4875 13.95C29.5 14.0188 29.5 14.0875 29.4875 14.1563C29.4875 14.2063 29.4875 14.2563 29.5 14.3063C29.5063 14.375 29.4938 14.4188 29.5 14.4875C29.5063 14.5313 29.5125 14.575 29.5188 14.6188V14.7C29.5125 14.775 29.4875 14.8563 29.475 14.9063L29.4688 14.9438C29.4688 15.0125 29.4563 15.075 29.4375 15.1375L29.4813 15.2375C29.5063 15.3188 29.5188 15.4 29.5313 15.4813C29.5375 15.55 29.55 15.6188 29.575 15.6813L29.6063 15.775L29.5938 15.8625C29.5938 15.8625 29.55 15.8188 29.5375 15.8625C29.525 15.9063 29.525 15.9063 29.5688 15.975C29.6125 16.0438 29.6188 15.9313 29.6375 15.975V15.9938C29.6438 16.0563 29.6438 16.1188 29.6375 16.1813C29.6313 16.2313 29.6375 16.2813 29.65 16.3313C29.6625 16.4 29.6438 16.4438 29.65 16.5125L29.6688 16.6125V16.6188C29.675 16.6438 29.6875 16.675 29.7 16.7L29.725 16.75C29.7188 16.7625 29.7125 16.7688 29.7063 16.7813C29.7063 16.7813 29.6688 16.75 29.65 16.7625C29.6375 16.775 29.6375 16.7688 29.6688 16.8125C29.7063 16.8563 29.7188 16.8125 29.7313 16.8438C29.7438 16.8563 29.7125 16.8938 29.7 16.9125Z" fill="#0041E6"/>
<path d="M18.3188 20.575C18.35 20.475 18.45 20.3688 18.4938 20.3938C18.5375 20.4187 18.6688 20.25 18.7125 20.2063C18.7563 20.1625 18.8688 20.0813 18.9563 19.9875L19.0313 19.9C19.075 19.8438 19.0938 19.8063 19.125 19.7438C19.175 19.6688 19.225 19.6313 19.275 19.5438C19.3063 19.4813 19.35 19.425 19.3938 19.375C19.4625 19.3063 19.5188 19.2313 19.5688 19.15C19.5938 19.0875 19.4938 19.2063 19.5188 19.1125C19.5375 19.0188 19.5375 19.0188 19.5875 18.975C19.6313 18.9313 19.6313 19.0063 19.6313 19.0063L19.7188 18.9125L19.775 18.7875C19.8125 18.7063 19.8563 18.625 19.9125 18.5438C19.9875 18.425 20.0438 18.3125 20.075 18.25L20.1438 18.0688C20.4188 17.7938 20.6813 17.5 20.9313 17.1938L20.8625 17.1625C21.1563 16.8375 21.3938 16.4688 21.5688 16.0688L21.625 15.9438C21.6563 15.6188 21.65 15.2938 21.6 14.975C21.6188 15.0313 21.65 15.1188 21.6688 15.0625C21.65 14.9813 21.6313 14.9063 21.6063 14.825C21.5563 14.7125 21.5375 14.6688 21.5625 14.6563L21.5875 14.65L21.5063 14.4938L21.35 14.3063C21.3 14.2313 21.2438 14.1625 21.1875 14.1C21.0688 13.975 20.9313 13.875 20.775 13.8C20.7438 13.7688 20.7125 13.7375 20.675 13.7125C20.6375 13.675 20.5813 13.6688 20.5375 13.6938L20.6875 13.7938C20.5625 13.7375 20.4375 13.6875 20.3 13.65C20.1813 13.6188 20.0625 13.5938 19.9438 13.575L19.825 13.5C19.825 13.5 19.9313 13.4688 19.85 13.4563C19.7375 13.4438 19.6313 13.45 19.5188 13.475L19.5125 13.4938L19.4563 13.5375L18.725 13.525L18.6125 13.4813L18.4063 13.45L18.2 13.4313C18.1625 13.4188 18.1313 13.4 18.1063 13.375L17.9313 13.3625L17.8313 13.375L17.7875 13.3625L17.7125 13.35C17.65 13.3375 17.6313 13.3688 17.625 13.3813V13.3875L17.7813 13.4125C17.6 13.425 17.4938 13.5063 17.3 13.5063L17.2375 13.4688L17.2063 13.45C17.2063 13.45 17.2563 13.4125 17.2063 13.4063C17.1438 13.4 17.0813 13.4125 17.0313 13.4375V13.4563L17.025 13.475L17.0125 13.5C16.9563 13.5 16.9063 13.5063 16.85 13.5188L16.8438 13.5125V13.5C16.7813 13.575 16.8 13.4375 16.8063 13.4375C16.8125 13.4375 16.875 13.3563 16.8625 13.3438C16.85 13.3313 16.725 13.4188 16.725 13.4188C16.725 13.4188 16.6625 13.3875 16.7625 13.3C16.85 13.2313 16.7688 13.2375 16.7688 13.2313C16.7625 13.2063 16.7563 13.175 16.7563 13.15C16.75 13.0813 16.7563 13.0125 16.7625 12.9438L16.7438 12.7625L16.8063 12.775L16.8125 12.7625L16.8438 12.6688L16.8625 12.5625L16.9313 12.575C16.9 12.5188 16.9313 12.45 16.975 12.4563C17.0188 12.4625 17.0375 12.3563 17.05 12.325C17.0625 12.3 17.1063 12.2375 17.125 12.175L17.1375 12.1188C17.1375 12.0875 17.1375 12.0625 17.1375 12.0313C17.1375 11.9875 17.1563 11.9625 17.1563 11.9125C17.15 11.875 17.1563 11.8438 17.1625 11.8125C17.1813 11.7688 17.1875 11.725 17.1875 11.675C17.175 11.6375 17.1563 11.7125 17.1188 11.6625C17.0813 11.6125 17.0875 11.6125 17.1 11.5813C17.1125 11.55 17.1563 11.5938 17.1563 11.5938L17.1813 11.5375L17.1625 11.4688C17.15 11.425 17.1438 11.375 17.15 11.3313C17.15 11.275 17.1438 11.2188 17.1313 11.1625L17.0938 11.0625C17.1563 10.9313 17.2125 10.7875 17.2688 10.6375L17.2 10.625L17.325 10.2625L17.3438 10.225C17.3063 10.1063 17.2938 9.975 17.3063 9.85C17.3063 9.85 17.325 9.93125 17.3563 9.9125L17.35 9.825C17.3375 9.78125 17.3375 9.7625 17.3625 9.76875H17.3875L17.3813 9.70625C17.3625 9.68125 17.35 9.65 17.3438 9.61875V9.525L17.3375 9.3375C17.35 9.31875 17.3625 9.30625 17.375 9.2875C17.4 9.25 17.3438 9.23125 17.3438 9.23125L17.3 9.30625C17.3063 9.2125 17.3188 9.1125 17.3375 9.01875L17.4063 8.98125C17.4063 8.98125 17.4375 9.0125 17.45 8.9875C17.4625 8.95625 17.4563 8.91875 17.4375 8.89375H17.4188L17.3813 8.875L17.4375 8.66875L17.4938 8.64375L17.5313 8.59375L17.5688 8.5C17.5875 8.48125 17.6063 8.46875 17.6313 8.4625L17.6563 8.375V8.325L17.6688 8.30625L17.6875 8.275C17.7063 8.24375 17.6813 8.23125 17.6688 8.225H17.625L17.5813 8.3C17.5875 8.20625 17.5188 8.1375 17.5375 8.0375L17.5813 8.0125L17.6063 8C17.6063 8 17.6375 8.03125 17.65 8.00625C17.6625 7.975 17.6563 7.9375 17.6375 7.9125H17.6188L17.6 7.90625L17.575 7.89375C17.5875 7.83125 17.5563 7.76875 17.5688 7.7125L17.575 7.68125L17.5063 7.5875L17.55 7.53125L17.4625 7.41875C17.4813 7.4 17.5 7.3875 17.525 7.38125C17.5375 7.3375 17.4625 7.2875 17.4688 7.2625L17.4875 7.20625C17.4 7.1625 17.5563 7.175 17.475 7.15C17.475 7.15 17.5125 7.1125 17.4 6.9875L17.3875 6.975C17.3938 6.975 17.3938 6.9625 17.375 6.94375C17.375 6.94375 17.45 6.89375 17.4563 6.65625C17.4625 6.41875 17.4375 6.40625 17.4375 6.40625C17.4375 6.3625 17.4313 6.325 17.4063 6.2875C17.3688 6.2 17.2688 6.20625 17.1875 6.3125C17.1063 6.41875 17.0563 6.2625 17.0563 6.2625C17.0563 6.2625 16.9875 6.25625 16.9 6.3875C16.8125 6.51875 16.8563 6.2875 16.8875 6.1375C16.925 5.99375 16.7438 5.975 16.7125 5.95C16.6813 5.925 16.6063 5.61875 16.4688 5.75C16.375 5.84375 16.2938 5.94375 16.2313 6.05625C16.2313 6.05625 16.1438 5.875 15.9688 6.05625L15.7938 6.24375C15.5813 6.46875 15.325 6.8 15.1 7.09375L15 7.275C14.9438 7.4 14.8125 7.46875 14.6813 7.44375L14.6188 7.59375L14.525 7.70625C14.525 7.70625 14.525 7.61875 14.4813 7.675C14.4375 7.73125 14.4313 7.73125 14.4063 7.8375C14.3813 7.95 14.4938 7.8 14.4625 7.875C14.4125 7.975 14.35 8.06875 14.275 8.15C14.225 8.2125 14.1875 8.28125 14.15 8.35625C14.0938 8.45625 14.0375 8.50625 13.9875 8.6L13.8875 8.7875L13.8063 8.9L13.5438 9.2C13.5 9.25625 13.3563 9.475 13.3125 9.4625C13.2688 9.45 13.1625 9.575 13.1313 9.70625L13.075 9.66875L12.925 9.89375L12.775 10.0875L12.75 10.1063L12.6938 10.075L12.55 10.2313L12.5188 10.3188C12.4375 10.3813 12.3563 10.4438 12.2688 10.5L12.1938 10.4938C12.15 10.7 12.0875 10.9063 12.0125 11.1063C11.9813 11.1875 11.9188 11.3188 11.8375 11.4688L11.7875 11.5688L11.7 11.7688L11.6438 11.9188L11.5563 12.0375C11.5563 12.0375 11.5563 11.9875 11.5313 11.9938C11.525 11.9938 11.5125 12 11.5125 12.0063C11.4938 12.025 11.4813 12.0438 11.4688 12.0688C11.4563 12.1 11.45 12.1375 11.4438 12.1688C11.425 12.2813 11.525 12.125 11.5 12.2063C11.45 12.3063 11.3938 12.4 11.325 12.4938C11.2813 12.5625 11.2375 12.6313 11.2063 12.7063C11.15 12.8063 11.1063 12.8625 11.05 12.9563L10.9563 13.1438L10.8813 13.2563C10.8063 13.3563 10.7188 13.4563 10.6688 13.5188L10.6313 13.5688C10.575 13.6625 10.5125 13.75 10.4375 13.825L10.3875 13.9875C10.3563 14.0688 10.3 14.2063 10.225 14.3563C10.175 14.4563 10.1313 14.5625 10.0938 14.6625L10.0438 14.8188L9.95628 14.9438C9.95628 14.9438 9.95628 14.8563 9.90628 14.9188C9.85628 14.975 9.86253 14.975 9.84378 15.0875C9.82503 15.2 9.92503 15.0438 9.90003 15.1188L9.88753 15.15C9.84378 15.2438 9.78753 15.3375 9.72503 15.425C9.65628 15.5375 9.59378 15.6563 9.53753 15.7813C9.45628 15.9188 9.38753 16.0625 9.33128 16.2063L9.21253 16.5125L9.20003 16.5375L9.18128 16.5875L9.05003 16.95C9.04378 16.9813 9.03753 17.0125 9.03753 17.0375C9.03753 17.1063 9.03128 17.1688 9.03753 17.2313L9.00628 17.4188C9.00628 17.4188 8.96253 17.3375 8.95003 17.4375C8.93128 17.5125 8.94378 17.5875 8.98753 17.6563C9.03753 17.775 9.02503 17.5375 9.05003 17.6313C9.06878 17.775 9.10628 17.9125 9.14378 18.0563C9.17503 18.1438 9.23128 18.225 9.29378 18.3L9.32503 18.325C9.41253 18.4 9.50628 18.4688 9.60628 18.5313C9.68753 18.5688 9.76878 18.6 9.85628 18.625L10.0188 18.6813C10.1875 18.7438 10.3563 18.7937 10.5313 18.8313C10.6313 18.85 11.0563 18.8625 11.0625 18.9125C11.0688 18.9625 11.3438 18.9813 11.5563 18.95L11.55 19.0188L11.9188 19.0313L12.1688 19.0563L12.2 19.0625V19.1313L12.4125 19.1688L12.5063 19.15C12.6063 19.1813 12.7063 19.2188 12.7875 19.25H12.8125L12.7563 19.3188V19.3625C12.7063 19.3938 12.6625 19.425 12.6063 19.45L12.5375 19.4438C12.575 19.55 12.5938 19.6625 12.6063 19.775C12.6063 19.8375 12.6 19.9063 12.5875 19.9688L12.5813 20.0188C12.575 20.05 12.575 20.0875 12.575 20.1188L12.5813 20.2L12.5438 20.2625C12.5438 20.2625 12.525 20.2312 12.5063 20.2375C12.5 20.2375 12.4938 20.2438 12.4938 20.2438C12.4813 20.2563 12.475 20.2625 12.475 20.275C12.4813 20.2938 12.4875 20.3125 12.4938 20.3313C12.5188 20.3938 12.55 20.3125 12.5563 20.3563C12.55 20.4063 12.5313 20.4625 12.5 20.5063C12.4813 20.5438 12.475 20.575 12.4688 20.6188C12.4563 20.675 12.4313 20.7 12.4188 20.75C12.4125 20.7875 12.4063 20.8188 12.4 20.85L12.375 20.9063C12.3438 20.9563 12.3125 21 12.2813 21.0375L12.2625 21.0625C12.25 21.0875 12.2188 21.1625 12.1813 21.1938L12.1938 21.2813C12.1938 21.3438 12.1875 21.4125 12.175 21.475C12.1625 21.525 12.1563 21.5813 12.1625 21.6313L12.1688 21.7125L12.1313 21.775C12.1313 21.775 12.1 21.725 12.0813 21.7563C12.0563 21.7875 12.0625 21.7875 12.0813 21.8438C12.1 21.9062 12.1375 21.825 12.1438 21.8687V21.8813C12.1313 21.9312 12.1125 21.975 12.0938 22.0125C12.075 22.0438 12.0688 22.0812 12.0625 22.1187C12.05 22.175 12.025 22.2 12.0188 22.25C12.0125 22.2875 12.0063 22.3188 12 22.35V22.3563V22.375C11.9875 22.425 11.9813 22.4813 11.9875 22.5312L11.9938 22.6125L11.9563 22.675C11.9563 22.675 11.925 22.625 11.9063 22.6562C11.8813 22.6875 11.8875 22.6875 11.9063 22.7437C11.925 22.8062 11.9625 22.725 11.9688 22.7625C11.9625 22.8125 11.9438 22.8687 11.9125 22.9125C11.8938 22.95 11.8875 22.9875 11.8813 23.025C11.8688 23.0812 11.8438 23.1063 11.8375 23.1562C11.8313 23.1938 11.825 23.225 11.8188 23.2563L11.7813 23.2875C11.7438 23.35 11.6875 23.4188 11.6688 23.4438C11.6563 23.4688 11.6063 23.5875 11.5688 23.5812C11.5313 23.575 11.4813 23.6375 11.5 23.7062L11.4375 23.6875L11.3938 23.8062L11.3375 23.9062L11.325 23.9188L11.2563 23.8937L11.1875 23.975V24.0187C11.1438 24.05 11.0938 24.0813 11.0438 24.1063C11.0375 24.1562 11.075 24.1438 11.1 24.2C11.1375 24.2625 11.1875 24.3188 11.2438 24.3687C11.2063 24.4187 11.175 24.475 11.1563 24.5375C11.1125 24.6625 11.1563 24.5375 11.15 24.7C11.1438 24.8625 11.2375 24.85 11.1563 24.9625C11.1125 25.0187 11.0875 25.0875 11.0938 25.1562C11.1125 25.1875 11.1313 25.225 11.1438 25.2563C11.15 25.2938 11.1688 25.3313 11.1938 25.3563C11.1938 25.3563 11.1938 25.4125 11.3125 25.45C11.4313 25.4813 11.2563 25.5062 11.3313 25.5187C11.45 25.6 11.5875 25.65 11.725 25.675C11.7938 25.8562 11.9563 25.9937 12.1438 26.0312C12.2875 26.0938 12.3313 25.975 12.3938 26.1437C12.4313 26.2375 12.3063 26.1437 12.4625 26.4312C12.5125 26.5187 12.4688 26.5187 12.6375 26.4875C12.7125 26.4375 12.7938 26.3875 12.8813 26.35C12.9563 26.3625 12.9813 26.2 13.0313 26.275L13.575 25.75L13.7875 25.5812L14.1438 25.2313L14.2063 25.175C14.2813 24.9688 14.7188 24.6625 14.7188 24.6625C14.7188 24.6625 14.55 24.9812 14.9063 24.5875C15.1125 24.3562 15.2938 24.1 15.4375 23.8188C15.6688 23.5125 15.925 23.2313 16.2063 22.9688C16.45 22.75 16.6563 22.5 16.8313 22.225L17.7313 21.0875L17.9125 20.7875L17.9625 20.8313L17.9813 20.8188L18.1188 20.675L18.2625 20.5L18.3188 20.575ZM12.8813 19.25L12.8688 19.2625L12.8188 19.2438C12.8625 19.2313 12.85 19.2063 12.9188 19.175L12.8813 19.25ZM18.0813 16.95C18.0313 17.0063 17.9875 17.075 17.95 17.1375C17.8875 17.2313 17.8313 17.275 17.7813 17.3625L17.6688 17.5375L17.5875 17.6375C17.5063 17.725 17.4125 17.8125 17.3563 17.8688L17.3125 17.9125C17.25 17.9938 17.1813 18.0688 17.1063 18.1375L17.0438 18.2875C16.9813 18.4063 16.9125 18.5125 16.8375 18.625C16.775 18.7125 16.7188 18.8063 16.6625 18.9L16.5875 19.0438L16.4875 19.1438C16.4875 19.1438 16.5 19.0563 16.4438 19.1063C16.3875 19.1563 16.3875 19.1563 16.3563 19.2625C16.325 19.3688 16.4438 19.2313 16.4063 19.3063L16.3875 19.3313C16.3313 19.4125 16.2625 19.4938 16.1938 19.5625C16.1375 19.6188 16.0938 19.6875 16.05 19.75C15.9813 19.8438 15.925 19.8875 15.8625 19.9688L15.7375 20.1438L15.725 20.1563L15.7063 20.1813C15.6438 20.2688 15.5813 20.3563 15.5313 20.45L15.4563 20.5875L15.3563 20.6875C15.3563 20.6875 15.3688 20.6063 15.3125 20.65C15.2563 20.7 15.2563 20.7 15.225 20.8063C15.1938 20.9125 15.3125 20.7813 15.275 20.85C15.2125 20.9438 15.1438 21.025 15.0625 21.1063C15.0063 21.1625 14.9625 21.2313 14.9188 21.2938C14.85 21.3875 14.7938 21.4313 14.7313 21.5188L14.7188 21.5375C14.7125 21.4938 14.7188 21.4563 14.725 21.4125C14.7313 21.3625 14.7313 21.3063 14.725 21.25L14.7 21.15C14.7813 21.0375 14.8563 20.9188 14.9313 20.7938L14.8625 20.7688L15.0375 20.4625L15.0625 20.4313C15.0438 20.3125 15.05 20.2 15.075 20.0813C15.075 20.0813 15.0813 20.1563 15.1125 20.15V20.0688C15.1063 20.025 15.1125 20.0125 15.1313 20.0188L15.1563 20.025V19.9688C15.1438 19.9438 15.1313 19.9125 15.1313 19.8813L15.1438 19.8L15.1625 19.625C15.1813 19.6125 15.1938 19.6 15.2063 19.5813C15.2313 19.55 15.1813 19.525 15.1813 19.525L15.1313 19.5875C15.15 19.5 15.175 19.4187 15.2063 19.3313L15.2813 19.3125C15.2813 19.3125 15.3125 19.35 15.3188 19.325C15.3375 19.3 15.3375 19.2625 15.3188 19.2375L15.3 19.2313L15.2625 19.2063L15.3438 19.025L15.4 19.0125L15.45 18.975L15.5 18.9C15.5188 18.8875 15.5438 18.8813 15.5688 18.8813L15.6063 18.8125L15.6125 18.7625L15.6313 18.75L15.6563 18.725C15.675 18.7 15.6563 18.6813 15.6438 18.675H15.6375L15.5875 18.7313C15.6063 18.65 15.55 18.575 15.5813 18.4875L15.6313 18.475L15.6563 18.4688C15.6563 18.4688 15.6875 18.5063 15.6938 18.4813C15.7125 18.4563 15.7125 18.4187 15.6938 18.3938L15.6813 18.3813L15.6688 18.3688L15.65 18.3563C15.675 18.3063 15.65 18.2438 15.6688 18.1938L15.6813 18.1688L15.6313 18.0688L15.675 18.0313L15.6125 17.9125C15.6313 17.9 15.6563 17.8938 15.6813 17.8938C15.7 17.8625 15.6313 17.8 15.6438 17.775L15.6688 17.725C15.5938 17.6688 15.7438 17.7125 15.6625 17.675C15.6625 17.675 15.7063 17.65 15.6125 17.5125C15.525 17.375 15.5 17.3688 15.5 17.3688C15.4813 17.3438 15.4625 17.325 15.4375 17.3063L15.4438 17.2875C15.4688 17.1938 15.5 17.2188 15.3563 17.125C15.2688 17.1125 15.1813 17.0875 15.0938 17.0563C15.05 16.9938 14.925 17.0875 14.9375 17L14.55 16.9813C14.4938 16.9438 14.4313 16.925 14.4 16.9563C14.3938 16.9625 14.3938 16.9688 14.3875 16.975L14.2063 16.9688L13.95 16.9313L13.4688 16.9L13.3875 16.8938C13.1563 16.925 12.9188 16.9063 12.6938 16.8375C12.6938 16.8375 13.0313 16.7563 12.525 16.7438C12.3125 16.7375 12.1063 16.7438 11.8938 16.7688C11.7625 16.7875 11.8188 16.8188 11.7938 16.8188C11.8063 16.8188 11.6563 16.85 11.6438 16.7688C11.6438 16.7375 11.6438 16.725 11.625 16.7188C11.6063 16.7063 11.5875 16.6938 11.5625 16.6938C11.5625 16.625 11.575 16.5625 11.6 16.5C11.6 16.4625 11.5688 16.5 11.625 16.3563L11.6813 16.3875L11.7 16.3688L11.8125 16.2125L11.9188 16.025L11.975 16.0563C11.9938 15.9563 12.0688 15.8438 12.1125 15.8563C12.1563 15.8688 12.2625 15.6938 12.2938 15.6438C12.325 15.5938 12.425 15.5 12.5 15.4L12.5563 15.3125C12.5875 15.2563 12.6063 15.2125 12.6313 15.1563C12.6688 15.0813 12.7125 15.0375 12.75 14.95C12.775 14.8875 12.8063 14.8313 12.8438 14.7813C12.9 14.7125 12.9438 14.6313 12.9813 14.55C13 14.4875 12.9188 14.6063 12.925 14.5125C12.9313 14.4188 12.9313 14.4188 12.975 14.375C13.0188 14.3313 13.025 14.4063 13.025 14.4063L13.1 14.3125L13.1375 14.1875C13.1625 14.1063 13.2 14.025 13.2375 13.9438C13.2938 13.825 13.3375 13.7125 13.3625 13.65L13.4063 13.4688L13.9563 12.775L13.8938 12.7375L14.3375 12.15L14.3938 12.0875C14.4375 11.9438 14.4938 11.8 14.5688 11.6688L14.5813 11.7063C14.5938 11.775 14.5938 11.8438 14.5938 11.9125C14.5938 11.9688 14.5938 12.025 14.6063 12.0875L14.625 12.175L14.6 12.25C14.6 12.25 14.5625 12.2063 14.5438 12.2438C14.525 12.2813 14.525 12.2813 14.5625 12.3375C14.6 12.3938 14.6188 12.3063 14.625 12.35V12.3688C14.625 12.4188 14.6125 12.475 14.6 12.525C14.5875 12.5688 14.5875 12.6063 14.5875 12.65C14.5875 12.7125 14.5625 12.7375 14.5625 12.8063C14.5625 12.8813 14.5625 12.9063 14.5563 12.975V12.9875V13.0125C14.55 13.0938 14.55 13.1813 14.5563 13.2625L14.575 13.3813L14.55 13.4938C14.55 13.4938 14.5125 13.4438 14.4938 13.5C14.475 13.5563 14.475 13.5625 14.5125 13.6375C14.55 13.7125 14.5688 13.5688 14.5813 13.625C14.5875 13.7125 14.575 13.8 14.5563 13.8875C14.5438 13.95 14.5438 14.0125 14.55 14.075C14.5375 14.1438 14.5375 14.2188 14.55 14.2875C14.5625 14.3313 14.575 14.375 14.5875 14.4188L14.5938 14.5125C14.5938 14.6188 14.5813 14.7625 14.5875 14.8C14.5938 14.8438 14.6688 15.0063 14.6438 15.0375C14.6188 15.0688 14.675 15.1875 14.775 15.2188L14.725 15.2625C14.775 15.3063 14.825 15.3438 14.8813 15.3813C14.925 15.4125 14.9688 15.4438 15.0125 15.475L15.025 15.4875L14.975 15.5438L15.0813 15.6313L15.1563 15.6375L15.2938 15.7938C15.3875 15.8 15.3563 15.7688 15.4688 15.7438C15.575 15.7125 15.675 15.6563 15.7625 15.5813C15.8625 15.6188 15.975 15.6313 16.0813 15.6188C16.325 15.6188 16.0813 15.6188 16.375 15.5688C16.4563 15.5563 16.5375 15.5313 16.6063 15.4938C16.7563 15.5 16.9063 15.5125 17.05 15.5188L17.2563 15.4938C17.3875 15.4688 17.5188 15.5375 17.575 15.6625L17.7313 15.6375L17.875 15.65C17.875 15.65 17.8 15.6938 17.875 15.7063C17.95 15.7188 17.95 15.7188 18.05 15.675C18.15 15.6313 17.9688 15.625 18.05 15.6063C18.15 15.5938 18.2563 15.5938 18.3563 15.6063C18.3813 15.6125 18.4125 15.6063 18.4375 15.5938C18.475 15.5875 18.4938 15.6 18.5313 15.5938C18.5563 15.5875 18.5813 15.5813 18.6063 15.575H18.65C18.675 15.5813 18.6938 15.5938 18.7063 15.6125L18.7375 15.625C18.7563 15.625 18.8313 15.6375 18.7813 15.6875C18.7313 15.7375 18.75 15.7563 18.8188 15.75L18.7313 15.8063C18.7438 15.8188 18.75 15.8375 18.7563 15.8563C18.75 15.875 18.7438 15.8938 18.7375 15.9125L18.725 15.9188L18.6313 15.9563C18.6125 15.975 18.5938 15.9875 18.575 16H18.6C18.55 16.025 18.4938 16.0375 18.4438 16.05L18.3563 16.0563C18.425 16.0438 18.4938 16.0563 18.5438 16.1C18.5563 16.1063 18.5625 16.1375 18.5438 16.1813L18.5375 16.2063L18.525 16.25L18.5063 16.2938L18.4438 16.4313L18.35 16.5313C18.35 16.5313 18.35 16.4812 18.325 16.4875C18.3188 16.4875 18.3063 16.4938 18.3063 16.5C18.2875 16.5188 18.2688 16.5375 18.2563 16.5563C18.2438 16.5875 18.2313 16.6188 18.225 16.6563C18.2 16.7563 18.3125 16.625 18.2813 16.6938C18.225 16.7813 18.1563 16.8688 18.0813 16.95Z" fill="#0041E6"/>
</g>
<defs>
<clipPath id="clip0_7664_50172">
<rect width="32" height="32" fill="white"/>
</clipPath>
</defs>
</svg>
