<svg width="32" height="32" viewBox="0 0 32 32" fill="none" xmlns="http://www.w3.org/2000/svg">
<g clip-path="url(#clip0_7664_50223)">
<path d="M31.9625 12.6125C31.9375 12.3875 31.8938 12.175 31.8625 11.9688L31.9313 11.9625V11.9125L31.9125 11.5438L31.8563 11.1313L31.925 11.1188C31.85 10.9375 31.825 10.675 31.8688 10.65C31.9125 10.625 31.8313 10.225 31.8188 10.1125C31.8063 10 31.7688 9.7375 31.725 9.49376L31.6688 9.28751L31.5563 8.96876C31.4938 8.81251 31.475 8.70001 31.4063 8.53126C31.3375 8.36251 31.3125 8.31876 31.2625 8.17501C31.2125 8.00001 31.1375 7.83751 31.05 7.68126C30.9813 7.57501 31.1 7.84376 30.9813 7.71251C30.9125 7.64376 30.8563 7.56251 30.8313 7.46876C30.7938 7.35626 30.8875 7.44376 30.8875 7.44376C30.8625 7.36876 30.8313 7.29376 30.7938 7.22501L30.6438 7.01876L30.3438 6.58126C30.225 6.40001 30.0875 6.23126 29.9438 6.06876C29.8625 5.98126 29.775 5.89376 29.6813 5.81251C29.3438 5.30626 28.9563 4.84376 28.5125 4.43126L28.4625 4.49376C28.1 4.16251 27.7125 3.85626 27.3 3.58126L27.1688 3.48751L26.4 3.16876C26.1313 3.05001 25.9125 2.96251 25.9125 2.96251C25.9125 2.96251 26.1875 3.04376 26.125 2.98126H26.1125L25.8125 2.88126C25.6563 2.83751 25.6063 2.81876 25.6125 2.79376L25.625 2.76876L25.4188 2.70001L25.125 2.65001L24.8188 2.55626C24.6 2.49376 24.3813 2.43126 24.1625 2.38751L23.9688 2.30001C23.825 2.23751 23.7938 2.29376 23.7938 2.29376L24.0625 2.40626C23.7375 2.31876 23.4063 2.23126 23.0688 2.15626L22.9438 2.06876C22.9563 2.05001 22.9625 2.05001 22.9813 2.02501C23.05 1.93126 23.0938 1.96876 22.9 1.82501C22.875 1.80626 22.6625 1.75001 22.5 1.66251C22.4438 1.58126 22.2125 1.65001 22.2625 1.55626C21.8813 1.47501 21.4875 1.41251 21.0688 1.35626L20.65 1.27501L19.8563 1.18751L19.725 1.17501C19.3438 1.20001 18.9563 1.17501 18.575 1.10626C18.575 1.10626 19.1375 1.01251 18.2938 1.00626C17.8 1.00626 17.3125 1.05626 16.8375 1.16251C16.8375 1.16251 15.875 1.25626 15.0438 1.25626C14.5313 1.25001 14.025 1.31251 13.5313 1.42501C12.7688 1.53751 12.0063 1.68126 11.2438 1.85626L10.7063 2.03126L10.6875 1.96251H10.6438L10.325 2.02501L9.97503 2.11251L9.95627 2.04376C9.80628 2.13126 9.58127 2.18126 9.55627 2.13751C9.53127 2.09376 9.18752 2.18751 9.09377 2.21876L8.56252 2.33751L8.38752 2.40001L8.11877 2.51876C7.98752 2.58126 7.88127 2.59376 7.73752 2.66876C7.63752 2.72501 7.53752 2.76876 7.43752 2.81251C7.28752 2.86251 7.14377 2.92501 7.01252 3.00626C6.92502 3.06876 7.15627 2.96876 7.04377 3.06876C6.93127 3.16876 6.93127 3.17501 6.83752 3.20626C6.74377 3.23751 6.81252 3.15001 6.81252 3.15001L6.62502 3.23126L6.45002 3.36251C6.45002 3.36251 6.36877 3.43126 6.07502 3.61876C5.91877 3.71876 5.76877 3.83126 5.62502 3.95626L5.40002 4.17501C4.95002 4.43126 4.51877 4.71251 4.10627 5.03126L4.15627 5.08751C3.81877 5.36251 3.49377 5.65001 3.19377 5.95626L3.08752 6.05626C2.96252 6.27501 2.83127 6.48126 2.68127 6.68751L2.41877 7.09376C2.41877 7.09376 2.54377 6.86876 2.47502 6.90626L2.46877 6.91876L2.31877 7.16876C2.25627 7.30001 2.23127 7.35001 2.20627 7.33126L2.18127 7.31876L2.08752 7.49376C2.06252 7.58126 2.03127 7.66876 1.99377 7.75001C1.94377 7.83751 1.90002 7.93126 1.85627 8.01876C1.76877 8.21251 1.66877 8.39376 1.59377 8.59376L1.48127 8.75626C1.40627 8.88126 1.45002 8.91876 1.45002 8.91876L1.56252 8.68751C1.43127 8.96876 1.30627 9.26251 1.18127 9.56876L1.05627 9.69376C1.05627 9.69376 1.05002 9.59376 1.01252 9.67501C0.968774 9.76876 0.943774 9.86876 0.943774 9.97501L0.962524 9.98126L0.993774 10.0313C0.906274 10.2563 0.831274 10.4875 0.762524 10.7125L0.681274 10.8125L0.600024 11L0.506274 11.3125C0.481274 11.3688 0.450024 11.4188 0.412524 11.4625C0.381274 11.5813 0.356274 11.675 0.343774 11.7563L0.331274 11.9313L0.306274 12L0.268774 12.125C0.243774 12.2313 0.268774 12.2688 0.281274 12.2875L0.287524 12.2938L0.362524 12.025C0.318774 12.3438 0.393774 12.5375 0.362524 12.8688L0.312524 12.9625L0.287524 13.0125C0.287524 13.0125 0.250024 12.9188 0.243774 13.0125C0.231274 13.1188 0.237524 13.225 0.268774 13.325H0.293774L0.312524 13.3438L0.337524 13.3688C0.331274 13.5813 0.368774 13.7625 0.375024 13.9625V14.0688L0.481274 14.3375L0.462524 14.5375L0.600024 14.8438C0.593774 14.9 0.581274 14.9563 0.562524 15.0125C0.575024 15.1 0.606274 15.1813 0.650024 15.25H0.606274L0.456274 16.025L0.343774 16.5L0.312524 16.625L0.268774 16.8813L0.256274 17.075L0.200024 17.2438C0.200024 17.2438 0.181274 17.1813 0.156274 17.2063C0.150024 17.2125 0.143774 17.225 0.137524 17.2313C0.125024 17.2625 0.112524 17.2875 0.112524 17.3188C0.112524 17.3625 0.118774 17.4 0.125024 17.4438C0.143774 17.575 0.193774 17.3625 0.193774 17.4563C0.181274 17.5875 0.156274 17.7188 0.125024 17.85C0.106274 17.9438 0.0937744 18.0375 0.100024 18.1313C0.100024 18.2688 0.0625244 18.3563 0.0687744 18.475V18.725L0.0625244 18.8813L0.0125244 19.275L0.00627441 19.3438C0.00627441 19.4688 2.44142e-05 19.5938 -0.00622559 19.7188L0.0562744 19.9063L0.168774 20.3625C0.193774 20.4875 0.231274 20.6125 0.281274 20.7313L0.356274 20.9L0.387524 21.0688C0.387524 21.0688 0.318774 21 0.331274 21.0813C0.343774 21.1688 0.337524 21.1688 0.418774 21.275C0.493774 21.3813 0.443774 21.175 0.487524 21.2563L0.500024 21.2875C0.537524 21.4 0.575024 21.5125 0.600024 21.625C0.625024 21.7125 0.662524 21.8 0.700024 21.8875C0.756274 22.0063 0.768774 22.0938 0.825024 22.2L0.937524 22.4375L0.943774 22.4563L0.962524 22.4875C1.01877 22.6 1.08752 22.7063 1.16877 22.8063L1.28127 22.95L1.35002 23.1C1.35002 23.1 1.26877 23.05 1.30002 23.1313C1.33127 23.2125 1.33127 23.2125 1.43752 23.2938C1.54377 23.375 1.43752 23.1875 1.50002 23.2563C1.57502 23.3563 1.65002 23.4688 1.71252 23.5813C1.76252 23.6625 1.81877 23.7375 1.88127 23.8063C1.96877 23.9063 2.00002 23.9875 2.08752 24.075L2.25627 24.25L2.35627 24.3688L2.63752 24.7375C2.69377 24.8063 2.92502 25.0063 2.90002 25.05C2.87502 25.1 3.02502 25.2375 3.16877 25.2938L3.12502 25.35L3.39377 25.5438L3.62502 25.7188L3.65002 25.7438L3.61252 25.8063L3.81252 25.9688L3.91877 26.0063L4.16252 26.2625C4.28752 26.3063 4.23752 26.25 4.36877 26.2625C4.48752 26.2688 4.60002 26.2375 4.70627 26.1875C4.83127 26.2688 4.96877 26.3375 5.11252 26.3813C5.41252 26.4938 5.11252 26.3813 5.47502 26.4563C5.76877 26.5063 5.78752 26.4438 5.92502 26.4813V26.4875C5.93752 26.5063 5.92502 26.525 5.92502 26.5438C5.93752 26.5563 5.94377 26.5688 5.94377 26.5813V26.6063C5.93127 26.6313 5.91252 26.6625 5.89377 26.6875C5.89377 26.7 5.89377 26.75 5.84377 26.7563C5.79377 26.7625 5.78127 26.7938 5.82502 26.8188H5.75002V26.8688L5.73127 26.9125H5.72502H5.66877L5.63127 26.95L5.65002 26.9688C5.61252 26.9875 5.56877 27.0063 5.53127 27.0188L5.45627 27.025C5.52502 27.0563 5.58752 27.0938 5.64377 27.1375C5.66252 27.1625 5.68127 27.1875 5.69377 27.2125L5.70627 27.2313C5.71252 27.25 5.72502 27.2625 5.73752 27.275L5.77502 27.3063L5.76252 27.3313C5.74377 27.325 5.73127 27.325 5.71252 27.325H5.68752C5.68127 27.3313 5.67502 27.3375 5.68752 27.3375C5.70002 27.3438 5.71252 27.3563 5.72502 27.3563C5.76877 27.3813 5.78127 27.3438 5.80002 27.3563C5.81877 27.3688 5.80002 27.4 5.80002 27.4188C5.80002 27.4375 5.80002 27.4438 5.80627 27.4688C5.81252 27.4938 5.79377 27.5063 5.80627 27.525C5.81252 27.5375 5.81877 27.55 5.81877 27.5688L5.81252 27.5938C5.79377 27.6125 5.77502 27.6375 5.75627 27.65L5.75002 27.6625C5.74377 27.675 5.73752 27.7063 5.70627 27.7188L5.74377 27.7563C5.76252 27.7813 5.77502 27.8125 5.78752 27.8375C5.79377 27.8625 5.80627 27.8875 5.81877 27.9063L5.85002 27.9438L5.83127 27.9688C5.83127 27.9688 5.78752 27.95 5.76877 27.9563C5.75627 27.9688 5.75627 27.9688 5.79377 27.9938C5.83752 28.0188 5.85002 27.9875 5.86252 28.0063V28.0125C5.86877 28.0313 5.86252 28.0563 5.85002 28.0688C5.83752 28.0813 5.85002 28.0938 5.85002 28.1188C5.85002 28.1438 5.83127 28.1563 5.83752 28.175C5.84377 28.1875 5.84377 28.2063 5.84377 28.2188V28.225C5.85002 28.25 5.85627 28.275 5.86877 28.2938L5.89377 28.3313L5.87502 28.3563C5.87502 28.3563 5.83127 28.3313 5.81252 28.3438C5.80002 28.3563 5.80002 28.3563 5.83752 28.3875C5.87502 28.4188 5.89377 28.3875 5.90627 28.4063C5.91877 28.425 5.90627 28.4563 5.88752 28.4688C5.86877 28.4875 5.88752 28.4938 5.88752 28.5188C5.88752 28.5438 5.86877 28.5563 5.86877 28.575C5.87502 28.5875 5.87502 28.6063 5.87502 28.6188L5.86252 28.6438C5.83752 28.6688 5.80627 28.6938 5.78127 28.7188C5.76877 28.7313 5.75627 28.7813 5.70627 28.7688C5.65627 28.7563 5.63127 28.7813 5.66877 28.8188L5.62502 28.8125L5.60627 28.8625L5.57502 28.8938H5.56877L5.49377 28.8688L5.44377 28.8875L5.45627 28.9063C5.41877 28.9063 5.37502 28.9063 5.33752 28.9C5.34377 28.9188 5.37502 28.925 5.41252 28.95C5.45002 28.975 5.59377 29.0625 5.59377 29.0625C5.57502 29.0625 5.55627 29.075 5.55002 29.0875C5.53752 29.1125 5.55002 29.0875 5.58127 29.1375C5.61252 29.1875 5.69377 29.2313 5.65002 29.2313C5.62502 29.2313 5.61877 29.2313 5.64377 29.2625L5.70627 29.3313L5.76252 29.4C5.79377 29.4438 5.83127 29.4813 5.87502 29.5125C5.98127 29.6125 5.83752 29.5 5.89377 29.55C5.96877 29.6375 6.03127 29.7 6.08752 29.7625V29.8125C6.10627 29.975 6.15002 29.925 6.11252 30.1C6.09377 30.1938 6.09377 30.025 6.03752 30.3563C6.01877 30.4563 6.00627 30.425 6.06252 30.5438C6.10627 30.575 6.14377 30.6063 6.17502 30.65C6.19377 30.7188 6.25627 30.6313 6.24377 30.725C6.35627 30.7563 6.46877 30.7813 6.58127 30.8L6.70627 30.85L6.93752 30.8813L6.97502 30.8875C7.05627 30.8 7.31252 30.9125 7.31252 30.9125C7.31252 30.9125 7.16252 31.025 7.41252 31C7.56252 30.9813 7.70002 30.9188 7.81252 30.8188C7.98127 30.7563 8.15627 30.725 8.33127 30.725C8.48752 30.7313 8.63753 30.6813 8.75628 30.575C8.96253 30.4813 9.16252 30.375 9.35627 30.2625L9.47503 30.1438L9.50628 30.2063H9.51877L9.60627 30.1813L9.70002 30.1313L9.73752 30.1938C9.75628 30.1313 9.82503 30.1188 9.85003 30.1563C9.87502 30.1938 9.96252 30.15 9.99377 30.1375C10.05 30.1313 10.1 30.1188 10.1563 30.1L10.2063 30.075C10.2313 30.0563 10.25 30.0375 10.2688 30.0125C10.3 29.9813 10.3313 29.9813 10.3625 29.95C10.3938 29.9188 10.4 29.9 10.4313 29.8875C10.4625 29.8688 10.525 29.8438 10.5438 29.8125C10.5625 29.7813 10.4938 29.8125 10.5 29.7563C10.5063 29.7 10.5063 29.6938 10.5375 29.6875C10.5688 29.6813 10.575 29.7375 10.575 29.7375L10.6313 29.7125L10.6563 29.6438C10.675 29.6 10.7 29.5625 10.725 29.5313C10.7563 29.4875 10.7875 29.4438 10.8125 29.3938L10.8375 29.2938C10.9688 29.2375 11.1 29.1688 11.2188 29.0875L11.1625 29.0313L11.4563 28.825L11.4938 28.8063C11.5188 28.6875 11.5625 28.575 11.6313 28.4688C11.6313 28.4688 11.6125 28.55 11.65 28.55L11.6813 28.4688C11.6875 28.425 11.6938 28.4063 11.7188 28.425L11.7375 28.4438L11.7563 28.3875C11.75 28.3563 11.75 28.325 11.7563 28.2938L11.7938 28.2125L11.8563 28.0375C11.875 28.0313 11.8938 28.0188 11.9125 28.0063C11.95 27.9813 11.9 27.9438 11.9 27.9438L11.8313 27.9875L11.9625 27.7438H12.0438C12.0438 27.7438 12.0688 27.7875 12.0813 27.7688C12.1063 27.7438 12.1063 27.7063 12.1 27.675L12.0813 27.6625L12.0438 27.6313L12.1563 27.4563L12.2188 27.45L12.275 27.4125L12.3375 27.3313C12.3625 27.3188 12.3875 27.3125 12.4125 27.3125C12.4313 27.2875 12.4438 27.2625 12.4625 27.2313L12.4688 27.175L12.4875 27.1563L12.5188 27.1188C12.5438 27.0938 12.5188 27.0688 12.5063 27.0625H12.5L12.4375 27.1313C12.4625 27.0375 12.4 26.95 12.4375 26.8563L12.4875 26.8375L12.5188 26.825C12.5188 26.825 12.55 26.8625 12.5625 26.8375C12.5813 26.8063 12.5813 26.7688 12.5625 26.7313L12.5438 26.725L12.5188 26.7063L12.4938 26.6938C12.4938 26.6938 12.4938 26.6813 12.4938 26.675C13.0188 26.6313 13.5438 26.5438 14.0563 26.4188L14.3813 26.3C14.775 26.15 14.95 26.3 14.95 26.3L15.1875 26.1688L15.425 26.0813C15.425 26.0813 15.325 26.175 15.45 26.1375C15.5563 26.1125 15.65 26.0563 15.7188 25.9813C15.8625 25.8625 15.575 25.9938 15.6875 25.9125C15.8 25.8375 16.0625 25.725 16.2063 25.65C16.2438 25.6313 16.2688 25.6125 16.3 25.6C16.3688 25.625 16.4438 25.65 16.5125 25.6688L16.7 25.6813C16.8313 25.6938 16.9313 25.7875 16.95 25.9188L17.1 25.9063L17.2313 25.9375C17.2313 25.9375 17.1563 25.975 17.225 26C17.2938 26.025 17.2875 26.0188 17.3938 25.9875C17.4938 25.95 17.3313 25.925 17.4 25.9188C17.5 25.9188 17.6063 25.925 17.7 25.9438C17.775 25.95 17.85 25.95 17.925 25.9438C18.0375 25.9438 17.9938 25.9563 18.0375 25.9438C18.0563 25.9375 18.075 25.9313 18.1 25.9313L18.1313 25.9375C18.1688 25.9563 18.1938 26.0125 18.2 26.025C18.2125 26.0375 18.2625 26.0813 18.225 26.1188C18.1938 26.1625 18.2 26.1938 18.25 26.1813L18.1938 26.2313L18.2125 26.2688C18.2188 26.2938 18.2 26.2688 18.2438 26.3688L18.25 26.4L18.1875 26.4375L18.2563 26.6313L18.3188 26.6938L18.375 27L18.3313 27.0688C18.4875 27.175 18.6625 27.3063 18.8563 27.45L19.1625 27.7188L19.25 27.7875C19.3063 27.8375 19.3688 27.8813 19.4313 27.9188L19.575 28L19.6813 28.1125C19.6813 28.1125 19.625 28.1063 19.6313 28.1313C19.6313 28.1375 19.6375 28.15 19.6438 28.1563C19.6563 28.1813 19.6813 28.2 19.7 28.2125C19.7313 28.225 19.7688 28.2375 19.8063 28.2438C19.9188 28.275 19.7813 28.1563 19.85 28.1875C19.9438 28.25 20.0313 28.3125 20.1125 28.3938C20.175 28.4438 20.2438 28.4875 20.3125 28.5188C20.4125 28.575 20.4625 28.625 20.5563 28.6688L20.7375 28.7563L20.85 28.825L21.1063 29.0125L21.15 29.0438C21.2375 29.0875 21.3188 29.1375 21.3938 29.2L21.5438 29.2188L21.8813 29.3063C21.9688 29.3375 22.0563 29.3563 22.15 29.3688L22.2875 29.3875L22.4125 29.45C22.4125 29.45 22.3313 29.4688 22.3875 29.5063C22.45 29.5438 22.45 29.5438 22.5563 29.5313C22.6625 29.525 22.5063 29.4563 22.5813 29.4625L22.6063 29.4688C22.7 29.4938 22.7875 29.525 22.875 29.5625C22.9438 29.5875 23.0188 29.6063 23.0875 29.6188C23.1938 29.6375 23.25 29.6688 23.3438 29.6875L23.5375 29.7188H23.5563H23.5875C23.6875 29.7313 23.7813 29.7375 23.8813 29.7375L24.025 29.725L24.15 29.7563C24.15 29.7563 24.0813 29.7938 24.1438 29.8188C24.2063 29.8375 24.2063 29.8375 24.3063 29.8063C24.4063 29.775 24.2438 29.7438 24.3188 29.7375C24.4188 29.7375 24.5188 29.75 24.6125 29.775C24.6813 29.7875 24.7563 29.7875 24.825 29.7875C24.925 29.7875 24.9875 29.8063 25.0813 29.8063C25.15 29.8063 25.1938 29.7938 25.2688 29.8L25.3875 29.8063C25.525 29.8188 25.675 29.8563 25.7313 29.8688C25.7938 29.875 26.025 29.8688 26.0375 29.9188C26.05 29.9688 26.2 29.9813 26.3063 29.9313V30L26.55 29.9813H26.7688H26.7938L26.8 30.0563L26.9938 30.075L27.075 30.0438L27.3375 30.125C27.4313 30.0938 27.375 30.075 27.4625 30.0125C27.5375 29.95 27.6 29.8625 27.6313 29.7688C27.75 29.775 27.8688 29.7563 27.9813 29.725C28.2313 29.6688 27.9813 29.725 28.2563 29.6125C28.5313 29.5 28.4188 29.4188 28.6688 29.3875C28.8 29.375 28.9188 29.325 29.025 29.2563C29.0625 29.2063 29.1 29.1625 29.1375 29.1188C29.1813 29.0813 29.2188 29.0375 29.2438 28.9875C29.2438 28.9875 29.3313 28.9313 29.2688 28.8063C29.2063 28.6813 29.4 28.7938 29.35 28.725C29.3563 28.5625 29.3063 28.3938 29.2063 28.2688C29.2063 28.2125 29.2063 28.1563 29.2063 28.1C29.2063 27.9375 29.1625 27.9813 29.2063 27.8125C29.2313 27.7188 29.2188 27.8875 29.2875 27.5625C29.3125 27.5 29.3125 27.4375 29.2875 27.375C29.2625 27.3375 29.2438 27.3 29.225 27.2625C29.225 27.1938 29.175 27.275 29.1938 27.1813L29.0188 27.0563L28.9688 26.9875L28.8625 26.9L28.8438 26.8813C28.7688 26.9438 28.7 26.7563 28.7 26.7563C28.7 26.7563 28.8063 26.7063 28.7 26.6438C28.625 26.6063 28.5375 26.6063 28.4625 26.6375C28.3688 26.6125 28.2938 26.5438 28.2563 26.4563C28.2313 26.375 28.1563 26.325 28.075 26.3188C27.975 26.2563 27.8813 26.1938 27.7938 26.1188L27.7 26.0938L27.7563 26.05V26.0375L27.7438 25.9875L27.7125 25.9438L27.7688 25.9C27.7188 25.9063 27.7125 25.8688 27.75 25.8375C27.7875 25.8063 27.7563 25.7688 27.75 25.75C27.75 25.7188 27.75 25.6813 27.75 25.65L27.7375 25.625C27.725 25.6125 27.7125 25.6063 27.7 25.6C27.6813 25.5875 27.6875 25.5625 27.6688 25.5438C27.65 25.525 27.6375 25.525 27.6313 25.5063C27.625 25.4813 27.6188 25.4438 27.5938 25.4438C27.5688 25.4375 27.5813 25.475 27.5313 25.4813C27.4813 25.4875 27.4813 25.4813 27.4813 25.4625C27.4813 25.4438 27.5313 25.4313 27.5313 25.4313V25.3938L27.4813 25.3813C27.45 25.3688 27.425 25.3563 27.4063 25.3313C27.375 25.3063 27.3438 25.2875 27.3125 25.2688L27.2313 25.2438C27.225 25.1375 27.2125 25.0375 27.1938 24.9313L27.125 24.9625L27.0688 24.7V24.6688C26.9875 24.6313 26.9125 24.5688 26.8625 24.5C26.8625 24.5 26.9188 24.5313 26.9375 24.5L26.8875 24.4625C26.8563 24.45 26.85 24.4375 26.8688 24.4313L26.8938 24.4188L26.8625 24.3938C26.8375 24.3938 26.8125 24.3813 26.7875 24.375L26.75 24.3313L26.6625 24.25C26.6688 24.2375 26.675 24.225 26.675 24.2063C26.675 24.175 26.625 24.1938 26.625 24.1938L26.6125 24.25C26.5813 24.2063 26.5563 24.1563 26.5375 24.1063L26.5938 24.0625C26.5938 24.0625 26.6375 24.0625 26.6375 24.0438C26.6313 24.0125 26.5875 24.0125 26.5875 24.0125L26.5688 24.0188L26.5188 24.025C26.5125 23.9875 26.5063 23.95 26.5 23.9125L26.5438 23.8813L26.5688 23.8438L26.5813 23.8C26.6 23.7875 26.6125 23.775 26.6375 23.7688V23.7313L26.6188 23.7125L26.6313 23.7L26.6438 23.6813C26.6563 23.6688 26.625 23.6688 26.6063 23.675H26.6L26.575 23.7063C26.5563 23.675 26.4625 23.6688 26.4625 23.6375L26.5063 23.6188L26.525 23.6125H26.5688L26.5313 23.5875H26.4625C26.8 23.4 27.125 23.1938 27.4375 22.9688L27.8563 22.6875C28.1063 22.4938 28.35 22.2875 28.5813 22.0688L28.7 21.9563C28.8625 21.7313 29.0438 21.5188 29.2438 21.3188L29.625 20.9188C29.625 20.9188 29.3063 21.525 29.9063 20.6938C30.2438 20.2063 30.5125 19.675 30.6938 19.1063C30.6938 19.1063 31.15 18.0375 31.4938 17.1C31.7125 16.5313 31.8375 15.925 31.875 15.3188C32.0063 14.4188 32.025 13.5188 31.9625 12.6125ZM17.775 19.5938C17.7188 19.8938 17.6313 20.1875 17.5188 20.4688L17.4813 20.5625C17.4438 20.8563 17.3625 21.1375 17.2438 21.4063C17.2438 21.4063 17.2938 21.225 17.2438 21.2625V21.2688L17.175 21.4625C17.15 21.5625 17.125 21.6 17.1063 21.5875L17.0813 21.575L17.025 21.7063C17.0188 21.775 17 21.8375 16.9688 21.9L16.8563 22.0938C16.775 22.2188 16.7 22.3563 16.6063 22.475C16.5688 22.5 16.5313 22.5313 16.4938 22.5625C16.4125 22.625 16.4438 22.675 16.4438 22.675C16.5 22.6375 16.55 22.5938 16.6 22.55C16.45 22.7313 16.2875 22.9 16.1125 23.0563L15.975 23.0813C15.975 23.0813 16 23.0063 15.9438 23.0438C15.8813 23.0813 15.825 23.1375 15.7938 23.2063L15.8063 23.225V23.2813C15.6563 23.3813 15.5063 23.475 15.35 23.5625H15.25L15.1063 23.6063L14.875 23.7125C14.8313 23.7188 14.7813 23.7188 14.7375 23.7125L14.5313 23.7938L14.4188 23.8563L14.3625 23.8625L14.2688 23.8813C14.1875 23.9 14.175 23.9375 14.1688 23.9563V23.9688C14.2375 23.9563 14.3063 23.9438 14.375 23.925C14.1938 24.0438 14 24.15 13.8063 24.2375L13.7125 24.2188L13.6625 24.2063C13.6625 24.2063 13.7125 24.1438 13.65 24.1625C13.5688 24.175 13.4938 24.2125 13.425 24.2625V24.2813L13.4188 24.3063L13.4063 24.3375C13.25 24.3813 13.1125 24.4625 12.9563 24.4938L12.875 24.5L12.675 24.6313H12.5063L12.2688 24.7875C12.2188 24.7813 12.1688 24.7688 12.125 24.75C12.0063 24.7563 11.9188 24.8688 11.8438 24.875L11.675 24.8875C11.6125 25 11.5438 24.8313 11.5375 24.9313C11.5375 24.9313 11.4125 24.9125 11.1313 25.0813C10.85 25.25 10.8625 25.275 10.8625 25.275C10.8188 25.3 10.7813 25.3438 10.75 25.3875C10.6813 25.4813 10.7875 25.5563 10.9875 25.55C11.1125 25.5438 11.1 25.6063 11.0813 25.65C10.9938 25.6375 10.8938 25.6313 10.875 25.6625C10.85 25.6938 10.8438 25.7375 10.8563 25.775C10.8563 25.775 10.6688 25.7375 10.6188 25.7938L10.5688 25.85C10.5125 25.925 10.4625 26.0063 10.4125 26.0938C10.4188 26.1125 10.4188 26.1313 10.4188 26.15C10.4188 26.2188 10.2188 26.1625 10.2188 26.1625L10.2375 26.2125L10.2125 26.2375C10.2125 26.2375 10.175 26.2 10.1563 26.2125C10.1375 26.225 10.1375 26.225 10.1688 26.2625C10.2 26.3063 10.225 26.2625 10.2375 26.2938C10.2438 26.325 10.2188 26.3563 10.2 26.375C10.1813 26.3938 10.1875 26.4063 10.1813 26.4375C10.175 26.4688 10.15 26.475 10.1438 26.5063C10.1438 26.525 10.1375 26.5438 10.1313 26.5625L10.1125 26.5938C10.075 26.6188 10.0375 26.6375 10 26.6563C9.98752 26.6688 9.94377 26.7313 9.90002 26.7063C9.85627 26.6813 9.81878 26.7063 9.83127 26.7625L9.77502 26.7188L9.73127 26.7813L9.67502 26.8188H9.66253L9.60627 26.775L9.54377 26.7938V26.8188C9.50002 26.8188 9.45002 26.8063 9.40627 26.8L9.34377 26.7563C9.36877 26.8375 9.37502 26.925 9.36877 27.0063C9.35627 27.05 9.34377 27.0875 9.32502 27.125L9.31252 27.1563C9.30002 27.175 9.29378 27.2 9.28753 27.2188L9.27502 27.275L9.23752 27.2938C9.23752 27.2938 9.22502 27.2625 9.21252 27.25H9.18752C9.17502 27.25 9.16877 27.25 9.16877 27.2625V27.3125C9.17502 27.3688 9.21877 27.3375 9.21877 27.3688C9.21252 27.4 9.16877 27.4188 9.14377 27.4313C9.11878 27.4438 9.11252 27.4563 9.09377 27.4813C9.07502 27.5125 9.04377 27.5063 9.02502 27.5375C9.01252 27.5563 9.00002 27.575 8.98752 27.5875L8.95002 27.6063C8.91252 27.6188 8.87502 27.625 8.83752 27.625H8.81878C8.80002 27.625 8.75628 27.6625 8.72503 27.65L8.70627 27.7125C8.68752 27.75 8.66252 27.7875 8.63752 27.825C8.61252 27.85 8.59377 27.8813 8.57502 27.9125L8.55002 27.9688L8.50628 27.9813C8.50628 27.9688 8.50002 27.9563 8.49377 27.9438C8.49377 27.9313 8.50627 27.9125 8.49377 27.9C8.48127 27.8875 8.46877 27.9188 8.42502 27.8938C8.38128 27.8688 8.38128 27.8688 8.39377 27.85C8.40627 27.8375 8.45627 27.85 8.45627 27.85L8.47503 27.8188L8.44378 27.7813C8.43128 27.7625 8.42502 27.7375 8.41877 27.7125C8.40627 27.6813 8.39377 27.65 8.36877 27.6188L8.31252 27.5625C8.35627 27.4875 8.40002 27.4063 8.43127 27.325H8.35627L8.42502 27.125L8.43752 27.1C8.38128 27.05 8.34377 26.9813 8.32502 26.9063C8.32502 26.9063 8.36252 26.9438 8.39377 26.9313L8.36877 26.8875C8.34377 26.8625 8.34377 26.8563 8.36877 26.8563H8.39377L8.36877 26.8125C8.34377 26.8 8.32502 26.7875 8.30627 26.7688L8.28753 26.7188L8.23752 26.6188C8.25002 26.6125 8.25627 26.6 8.26252 26.5875C8.28127 26.5625 8.21877 26.5625 8.21877 26.5625L8.18752 26.6063C8.17502 26.5563 8.16253 26.5063 8.16253 26.4563L8.22503 26.425C8.22503 26.425 8.26877 26.4375 8.26877 26.425C8.26877 26.3875 8.23127 26.3813 8.23127 26.3813H8.20627H8.15627C8.15627 26.3438 8.16253 26.3063 8.16253 26.2688L8.21252 26.2438L8.24377 26.2063L8.26252 26.1563C8.28127 26.1438 8.30002 26.1313 8.31878 26.125L8.32502 26.075L8.31252 26.0625L8.32502 26.05L8.33752 26.0313C8.35002 26.0125 8.31878 26.0125 8.30002 26.0125H8.29377L8.26877 26.0563C8.25002 26.0063 8.15627 25.9875 8.15627 25.9375L8.20002 25.9125L8.21877 25.9C8.21877 25.9 8.26252 25.9063 8.26252 25.9C8.26252 25.8625 8.22503 25.8563 8.22503 25.8563H8.20002H8.15002C8.15002 25.825 8.09377 25.8 8.10003 25.7688V25.75L8.00628 25.725L8.03753 25.6875L7.92502 25.6563L7.98127 25.6188C7.98127 25.5938 7.88752 25.5938 7.88752 25.5813V25.55C7.78752 25.55 7.95627 25.5125 7.85627 25.5313C7.85627 25.5313 7.88752 25.5 7.73752 25.475C7.68127 25.4625 7.61877 25.4563 7.56252 25.4563C7.53127 25.45 7.49377 25.45 7.46252 25.4563C7.37502 25.4563 7.29377 25.4938 7.29377 25.525H7.28127C7.28752 25.5063 7.30002 25.4938 7.30627 25.4813C7.36877 25.4 7.35002 25.5688 7.53127 25.2688C7.58752 25.1813 7.60627 25.2125 7.50627 25.075C7.42502 25.0313 7.35002 24.975 7.28127 24.9125C7.26252 24.8313 7.10627 24.8938 7.15627 24.8L6.48752 24.5375L6.27502 24.4125C6.13752 24.35 6.00627 24.2813 5.87502 24.2125L5.81252 24.175C5.61252 24.1938 5.28752 23.8625 5.28752 23.8625C5.28752 23.8625 5.57502 23.9188 5.21252 23.7063C5.00627 23.5813 4.78752 23.475 4.55627 23.3938C4.30627 23.225 4.10002 23.0063 3.94377 22.75C3.81877 22.525 3.66252 22.3125 3.48127 22.125C3.25627 21.8 3.06252 21.4438 2.91252 21.075L2.76877 20.8188L2.83752 20.7938V20.775L2.81252 20.6125L2.76877 20.4375L2.83752 20.4188C2.77502 20.35 2.76877 20.2375 2.81877 20.2188C2.86252 20.2 2.83127 20.0375 2.83127 19.9875L2.85002 19.725L2.84377 19.6375L2.81877 19.5C2.80627 19.4313 2.81877 19.3875 2.80627 19.3125C2.79377 19.2625 2.78752 19.2063 2.79377 19.1563C2.80627 19.0813 2.80627 19.0125 2.79377 18.9375C2.77502 18.8875 2.76877 19.0063 2.72502 18.9375C2.68127 18.8688 2.68127 18.8688 2.69377 18.8188C2.70627 18.7688 2.75627 18.8188 2.75627 18.8188L2.77502 18.725L2.74377 18.6125C2.73127 18.5438 2.72502 18.4688 2.72502 18.3938C2.72502 18.3063 2.71877 18.2125 2.70627 18.125L2.67502 17.975C2.75627 17.75 2.85002 17.5313 2.96252 17.3063L2.88752 17.2813C2.96877 17.1 3.06252 16.925 3.16252 16.7625L3.20002 16.7125C3.21877 16.5313 3.27502 16.3625 3.36252 16.2C3.36252 16.2 3.33752 16.3063 3.38127 16.2938L3.41877 16.1813C3.43752 16.1188 3.45002 16.1 3.46877 16.1188L3.48752 16.1375L3.51877 16.0625C3.51877 16.0188 3.53127 15.975 3.55002 15.9375L3.62502 15.825L3.80002 15.5875C3.83127 15.575 3.86252 15.5625 3.88752 15.5438C3.91877 15.5313 3.93127 15.5 3.91877 15.475C3.91877 15.4688 3.91252 15.4688 3.91252 15.4625L3.80002 15.525C3.90627 15.4063 4.01877 15.3 4.14377 15.2063H4.25002C4.25002 15.2063 4.24377 15.2688 4.27502 15.2438C4.31877 15.2188 4.35627 15.1813 4.37502 15.1313L4.36252 15.1125L4.34377 15.0625C4.44377 14.9938 4.54377 14.9313 4.65002 14.875L4.72502 14.8875L4.82502 14.8688L4.97502 14.8063C5.00627 14.8 5.04377 14.8063 5.07502 14.8188L5.21252 14.7625L5.28127 14.7125L5.31877 14.7063L5.38127 14.6938C5.43127 14.6813 5.43752 14.65 5.43752 14.6313V14.6188L5.30627 14.65C5.43752 14.5688 5.48752 14.4563 5.64377 14.3813L5.71252 14.4L5.74377 14.4125C5.74377 14.4125 5.71877 14.4688 5.76252 14.4563C5.81252 14.4438 5.86252 14.4125 5.89377 14.3688L5.88752 14.35V14.3C5.97502 14.25 6.06252 14.2 6.15627 14.1563L6.20627 14.1438L6.31252 14.0125H6.42502L6.53127 13.8875L6.60002 13.875C6.61877 13.8813 6.63127 13.8875 6.65002 13.8938C6.66877 13.8938 6.68127 13.875 6.69377 13.8625C6.83127 13.8438 6.96252 13.8188 7.10627 13.8L7.49377 13.7875L8.21252 13.7313H8.33127C8.67502 13.6625 9.03127 13.65 9.38128 13.6938C9.38128 13.6938 8.87502 13.8188 9.64377 13.775C10.0875 13.7563 10.5375 13.7 10.975 13.6188C11.5063 13.5938 12.0438 13.6313 12.5625 13.7313C13.2625 13.8938 13.8188 13.9625 13.8188 13.9625C14.4063 14.1 14.975 14.325 15.4938 14.6375C15.625 14.7063 15.75 14.7688 15.8688 14.8438L15.825 14.9L15.8438 14.925C15.9063 14.9813 15.9563 15.0375 16.0125 15.0938C16.075 15.15 16.15 15.2063 16.2125 15.275L16.1625 15.325C16.2813 15.3813 16.3875 15.5125 16.3563 15.5563C16.325 15.6 16.5 15.7813 16.5313 15.85L16.7125 16.1875L16.7813 16.3C16.825 16.3688 16.8563 16.4125 16.9063 16.4688C16.9688 16.55 16.9813 16.625 17.0438 16.7188C17.0938 16.7813 17.1313 16.85 17.1563 16.925C17.1938 17.025 17.2313 17.125 17.2813 17.225C17.325 17.2875 17.2688 17.1188 17.35 17.2C17.4313 17.275 17.4313 17.2813 17.4438 17.35C17.4563 17.4188 17.3875 17.3688 17.3875 17.3688L17.4188 17.5063L17.5 17.6375C17.55 17.7313 17.5875 17.8313 17.6188 17.9313L17.7375 18.3L17.825 18.5063C17.8125 18.8688 17.7688 19.225 17.6938 19.5813L17.775 19.5938ZM29.5875 14.8813C29.6125 15.05 29.6563 14.7688 29.6563 14.8875C29.65 15.0625 29.6188 15.2375 29.575 15.4063L29.5125 15.7813C29.4875 15.9625 29.4438 16.0688 29.4063 16.2313C29.3875 16.3438 29.3625 16.45 29.3375 16.5563L29.275 16.7563C29.1938 16.9875 29.0625 17.225 29.025 17.325C28.9875 17.425 28.825 17.8063 28.775 17.8C28.7188 17.7938 28.6063 18.025 28.5625 18.2188L28.5 18.1875L28.3125 18.5563L28.1125 18.8688L28.0813 18.9063L28.0188 18.8688L27.8188 19.1125L27.7625 19.2375C27.65 19.3375 27.5375 19.4313 27.4375 19.5063C27.3563 19.6438 27.4313 19.5938 27.3688 19.7438C27.325 19.875 27.3063 20.0125 27.3125 20.1438C27.3125 20.1438 27.1938 20.2563 26.8938 20.5688C26.5938 20.8813 26.8938 20.5688 26.5688 20.9563C26.2438 21.3438 26.3938 21.3063 26.0188 21.5563C25.825 21.675 25.6375 21.8125 25.475 21.9625C25.4188 22.0438 25.3563 22.1188 25.2875 22.1938C25.2188 22.2563 25.1563 22.3313 25.1063 22.4063C25.1063 22.4063 24.9563 22.5188 25.0438 22.6313C25.1375 22.7438 24.8125 22.725 24.8875 22.775V22.8375C24.8625 22.825 24.8313 22.8313 24.8125 22.85C24.7688 22.9 24.7438 22.9688 24.7438 23.0375C24.7438 23.0375 24.5688 22.9375 24.4938 23.0688C24.4688 23.1125 24.4438 23.1563 24.425 23.2063C24.35 23.4 24.3125 23.6 24.3125 23.8063L24.35 23.9125C24.3875 24.0375 24.1875 24.1063 24.1875 24.1063L24.2375 24.1813V24.2563C24.2375 24.2563 24.1813 24.2313 24.1813 24.2688C24.175 24.3063 24.1813 24.3063 24.2313 24.35C24.2813 24.3938 24.275 24.3 24.3 24.3313C24.325 24.3813 24.3375 24.4313 24.3375 24.4875C24.3438 24.525 24.3563 24.5625 24.3813 24.5938C24.4063 24.6438 24.4 24.6813 24.425 24.725C24.4438 24.75 24.4563 24.7813 24.475 24.8063L24.4938 24.8625C24.5063 24.9313 24.4938 25.0125 24.5063 25.0438C24.5188 25.075 24.5563 25.1813 24.5063 25.2C24.4563 25.225 24.475 25.2938 24.5375 25.325L24.4688 25.3563L24.5188 25.4625L24.5375 25.5625V25.575L24.4688 25.6063V25.7L24.5063 25.725C24.4938 25.775 24.4688 25.825 24.4438 25.875L24.3813 25.9188C24.475 25.95 24.5688 25.9875 24.6563 26.0438C24.7 26.075 24.7375 26.1125 24.7688 26.1563L24.8 26.1875C24.8188 26.2125 24.8438 26.2313 24.8688 26.25L24.9313 26.2875L24.9438 26.3438C24.9438 26.3438 24.9063 26.3438 24.8938 26.3563V26.3688C24.8938 26.3875 24.8938 26.3938 24.9063 26.4C24.925 26.4063 24.9438 26.4125 24.9563 26.4188C25.0188 26.4375 24.9875 26.3688 25.0188 26.3875C25.05 26.4063 25.0688 26.4688 25.0813 26.5063C25.0938 26.5375 25.1125 26.5688 25.1375 26.5875C25.1688 26.625 25.1688 26.6625 25.2 26.7C25.225 26.7188 25.2438 26.7438 25.2625 26.7688L25.2875 26.8188C25.3 26.8688 25.3125 26.9188 25.3188 26.9688L25.325 26.9938C25.3313 27.0188 25.375 27.0875 25.3688 27.1313L25.4438 27.1688C25.4938 27.2 25.5438 27.2375 25.5938 27.2813C25.6313 27.3188 25.6688 27.35 25.7125 27.375L25.7875 27.4125L25.8188 27.475C25.8188 27.475 25.7563 27.475 25.7688 27.5125C25.7813 27.55 25.7813 27.55 25.8438 27.5563C25.9125 27.5625 25.8625 27.4938 25.9 27.5125L25.9125 27.5188C25.9438 27.5438 25.9625 27.5688 25.9813 27.6063C25.7625 27.625 25.5438 27.6063 25.3375 27.55C25.125 27.4875 24.9 27.475 24.6813 27.4938C24.3563 27.4688 24.0375 27.4188 23.725 27.35L23.4938 27.3313L23.5188 27.2625L23.5063 27.25L23.3938 27.1875L23.2625 27.1375L23.2875 27.0688C23.2188 27.0875 23.1188 27.0313 23.1313 26.9813C23.1438 26.9313 22.9938 26.8688 22.9563 26.85L22.7625 26.7063L22.6938 26.6688C22.6563 26.6563 22.6125 26.6438 22.575 26.6375C22.5188 26.6188 22.4938 26.5875 22.4313 26.5688C22.3875 26.5625 22.35 26.5438 22.3125 26.5188C22.2688 26.4813 22.2125 26.4563 22.1563 26.4375C22.1125 26.4375 22.1875 26.4875 22.1188 26.5C22.05 26.5125 22.05 26.5125 22.025 26.4875C22 26.4625 22.0563 26.4375 22.0563 26.4375L22 26.3875L21.9188 26.3813C21.8625 26.375 21.8125 26.3563 21.7625 26.3313C21.7 26.3063 21.6438 26.2813 21.5813 26.2688L21.4625 26.25C21.3563 26.1188 21.2625 25.975 21.1625 25.825L21.1063 25.875C21.025 25.7563 20.95 25.625 20.8813 25.4938L20.8625 25.4438C20.725 25.4 20.525 25.1375 20.525 25.1375C20.525 25.1375 20.6063 25.2 20.6188 25.1625L20.5438 25.0813C20.5063 25.0563 20.4688 24.9938 20.4938 24.9875L20.5188 24.975L20.4188 24.8375C20.3375 24.7625 20.25 24.675 20.25 24.675C20.2 24.6063 20.1438 24.5438 20.0875 24.4813C19.9688 24.3563 19.8375 24.2438 19.6938 24.1438C19.6625 24.1 19.625 24.0625 19.5813 24.025C19.4938 23.9438 19.45 23.9875 19.45 23.9875C19.5063 24.0375 19.5625 24.0813 19.6125 24.1375C19.4 23.9938 19.1625 23.8813 18.9188 23.8063L18.8125 23.7125C18.8125 23.7125 18.8938 23.6875 18.825 23.6688C18.8 23.6625 18.7688 23.6625 18.7438 23.6625C18.7938 23.5938 18.8438 23.5188 18.8813 23.4375L18.9375 23.4813L19.2125 23.0688L19.45 22.7L19.4813 22.6563L19.5438 22.6875L19.7563 22.3625L19.8063 22.2L20.1188 21.75L20.2125 21.7125C20.2625 21.375 20.3063 20.9938 20.3438 20.5625C20.3563 20.4063 20.3938 20.1375 20.4063 19.8313L20.4188 19.6313L20.4125 19.2313C20.4125 19.1375 20.3938 19.0375 20.3813 18.9375L20.3938 18.6688C20.3938 18.6688 20.425 18.75 20.4438 18.7125C20.45 18.7 20.4563 18.6813 20.45 18.6688C20.4563 18.6188 20.4563 18.575 20.45 18.525C20.4375 18.4625 20.4188 18.4063 20.3938 18.35C20.3313 18.1625 20.35 18.5 20.3188 18.35C20.2875 18.2 20.2625 17.9125 20.25 17.7375C20.225 17.5938 20.1938 17.45 20.1563 17.3063C20.0938 17.1063 20.0813 16.9688 20.0188 16.7875L19.8813 16.425L19.8 16.2L19.6 15.625L19.5625 15.525C19.5125 15.425 19.3625 15.125 19.3125 15L19.1188 14.775C19.0188 14.6625 18.8563 14.45 18.6563 14.225C18.5375 14.075 18.4 13.9313 18.25 13.8063C18.1813 13.7438 18.1063 13.6875 18.025 13.625L17.85 13.4313C17.85 13.4313 17.975 13.4875 17.8938 13.3875C17.825 13.3 17.7313 13.2375 17.6313 13.2C17.4625 13.1063 17.7 13.3313 17.5813 13.2563L17.5375 13.225L17.1188 12.8813C17.0063 12.7938 16.8813 12.7125 16.7563 12.6438C16.575 12.5375 16.475 12.4563 16.3063 12.3688L15.9688 12.2125L15.9375 12.1938L15.8813 12.1688C15.7063 12.0938 15.525 12.0313 15.3438 11.9813L15.075 11.9188L14.8375 11.825C14.8375 11.825 14.975 11.8188 14.8563 11.7688C14.7625 11.725 14.6563 11.7 14.55 11.7125C14.3625 11.7125 14.6625 11.7938 14.5313 11.7813C14.4 11.7688 14.1375 11.675 13.9813 11.6438C13.85 11.6063 13.7188 11.5875 13.5813 11.575C13.3875 11.55 13.2688 11.5063 13.1 11.5L12.75 11.475L12.525 11.45L11.8813 11.35C11.6938 11.35 11.5063 11.325 11.3188 11.2813C11.3 11.2313 11.025 11.2125 10.825 11.2625V11.1938L10.3875 11.2063H10H9.95002V11.1313L9.61252 11.1125L9.46877 11.1438L9.01877 11.0625C8.85003 11.0938 8.94377 11.1125 8.77502 11.175C8.63752 11.2313 8.51877 11.3125 8.41877 11.4188C8.20627 11.4188 7.99377 11.4313 7.78752 11.4688C7.33127 11.5313 7.78752 11.4688 7.26877 11.6C6.75002 11.7313 6.91877 11.8063 6.45627 11.8563C6.21877 11.8813 5.98752 11.9375 5.76877 12.025C5.74377 12.0438 5.71877 12.0625 5.69377 12.075C5.46252 12.125 5.23127 12.1938 5.00002 12.275L4.79377 12.3875C4.66877 12.4688 4.50627 12.4625 4.38752 12.3688L4.24377 12.4813L4.08752 12.55C4.08752 12.55 4.13752 12.4688 4.06252 12.4938C3.98127 12.525 3.98127 12.525 3.90002 12.6188C3.81877 12.7125 4.00627 12.6188 3.93752 12.6813C3.83127 12.7563 3.72502 12.8188 3.60627 12.875C3.52502 12.9188 3.45002 12.9688 3.38127 13.0313C3.27502 13.1125 3.19377 13.1438 3.10002 13.2188L2.91252 13.375L2.78752 13.4688C2.68752 13.5375 2.58127 13.6 2.50002 13.6563C2.50002 13.55 2.50002 13.4438 2.51252 13.3438C2.50002 13.25 2.50002 13.1563 2.50002 13.0625C2.50627 12.7125 2.72502 12.65 2.72502 12.65V12.4375L2.76877 12.2438C2.76877 12.2438 2.80002 12.35 2.83127 12.2563C2.85627 12.175 2.86252 12.0938 2.83752 12.0125C2.82502 11.8625 2.76252 12.1063 2.76877 12C2.78752 11.85 2.81877 11.7 2.86877 11.55C2.90002 11.4438 2.93127 11.3375 2.95002 11.2313C2.98127 11.1 3.02502 10.975 3.06877 10.85L3.15002 10.5688C3.16877 10.5125 3.19377 10.4563 3.21877 10.4C3.31877 10.2063 3.43127 10 3.48752 9.92501C3.53752 9.85001 3.69377 9.51875 3.74377 9.52501C3.79377 9.53751 3.91877 9.35001 3.96877 9.18126L4.03127 9.21876C4.08752 9.10626 4.15627 9.01251 4.22502 8.90626L4.41877 8.64376L4.45002 8.61876L4.51252 8.66251L4.70627 8.46251L4.76252 8.35001C4.86877 8.26876 4.98127 8.19376 5.10002 8.12501L5.18752 8.13751C5.29377 7.88126 5.42502 7.64376 5.58127 7.41876C5.65002 7.33126 5.77502 7.18126 5.92502 7.02501L6.02502 6.92501L6.22502 6.71876C6.26877 6.66251 6.32502 6.61251 6.37502 6.56251L6.54377 6.45626C6.54377 6.45626 6.51252 6.51876 6.54377 6.51251C6.55627 6.51251 6.56877 6.51251 6.57502 6.50626C6.60627 6.49376 6.63752 6.46876 6.66252 6.45001C6.69377 6.41251 6.72502 6.37501 6.75002 6.33751C6.84377 6.22501 6.63752 6.35001 6.71252 6.27501C6.83752 6.18751 6.96877 6.10626 7.10627 6.03751L7.38127 5.85626L7.73127 5.66251L7.98752 5.51876L8.16253 5.43751C8.31252 5.38126 8.46253 5.33126 8.61252 5.29376L8.69378 5.26876C8.83127 5.21251 8.97502 5.16876 9.11877 5.13751L9.31878 5.01251C9.42502 4.95001 9.61252 4.86876 9.83127 4.78126L10.2625 4.60626L10.4688 4.50626C10.5375 4.48751 10.6063 4.47501 10.675 4.46251C10.675 4.46251 10.5875 4.53126 10.6938 4.51876C10.7813 4.51251 10.8688 4.47501 10.9313 4.42501C11.0688 4.34376 10.8125 4.40001 10.9125 4.35626L10.9563 4.34376C11.1 4.30001 11.2438 4.26876 11.3875 4.24376C11.5 4.22501 11.6125 4.19376 11.725 4.15626C11.8875 4.11251 11.9938 4.11251 12.1438 4.07501L12.4438 4.00001H12.475L12.525 3.98751C12.6813 3.95626 12.8375 3.91251 12.9875 3.86876L13.2125 3.80001L13.4313 3.78126C13.4313 3.78126 13.3313 3.84376 13.4375 3.84376C13.5313 3.84376 13.6188 3.81876 13.6938 3.77501C13.8438 3.70626 13.575 3.73751 13.6875 3.70626C13.85 3.67501 14.0188 3.65001 14.1813 3.64376C14.3188 3.63126 14.3688 3.61876 14.5375 3.59376L14.975 3.54376L15.2875 3.49376L15.4875 3.48126C15.725 3.47501 15.9813 3.48751 16.0813 3.48126C16.1813 3.47501 16.5813 3.45001 16.6 3.50001C16.6188 3.55001 16.8688 3.55001 17.05 3.50001V3.56251L17.45 3.54376H17.8063L17.85 3.55001V3.62501L18.1625 3.65626L18.2938 3.63126C18.4438 3.66251 18.5813 3.70001 18.7 3.73751C18.85 3.71876 18.7875 3.69376 18.9125 3.65626H18.9375L19.275 3.66251C19.6875 3.67501 19.775 3.90001 19.775 3.90001H20.0313L20.2688 3.94376C20.2688 3.94376 20.1438 3.97501 20.2625 4.00626C20.3563 4.03126 20.4563 4.03126 20.5563 4.00626C20.7313 3.98751 20.4438 3.93126 20.5688 3.93751C20.75 3.95001 20.9313 3.98126 21.1063 4.02501C21.2563 4.05626 21.3063 4.05626 21.4938 4.08126L21.9563 4.17501C22.0688 4.18751 22.1813 4.20626 22.2938 4.23126L22.5 4.28751C22.7438 4.35626 23 4.46251 23.1 4.50001C23.2 4.53751 23.6063 4.65626 23.6063 4.70626C23.6063 4.75626 23.8438 4.86251 24.0438 4.88751L24.0188 4.95626C24.15 5.00626 24.2875 5.04376 24.4125 5.10626L24.7438 5.26876L24.7813 5.29376L24.75 5.36251C24.8438 5.41876 24.9375 5.46876 25.0188 5.52501L25.15 5.56876C25.2688 5.67501 25.3813 5.77501 25.475 5.86876L25.4813 5.95626C25.7688 6.03126 26.0438 6.13126 26.3063 6.26876C26.4688 6.35626 26.6313 6.45626 26.775 6.56876L26.8938 6.66251L27.1375 6.84376C27.2 6.88126 27.25 6.93126 27.3125 6.98126L27.4375 7.14376C27.4375 7.14376 27.375 7.11876 27.375 7.15001C27.375 7.16251 27.3813 7.17501 27.3875 7.18126C27.4063 7.21251 27.425 7.24376 27.45 7.26876C27.4875 7.30001 27.525 7.33126 27.5625 7.35626C27.6938 7.44376 27.5375 7.23751 27.6188 7.31251C27.7313 7.43126 27.825 7.55626 27.9 7.70001L28.0938 7.98751C28.1938 8.12501 28.225 8.23126 28.3063 8.36251C28.3625 8.45001 28.4188 8.54376 28.4625 8.63751L28.5438 8.81876C28.6125 8.98751 28.6563 9.18126 28.6938 9.30001L28.7188 9.38751C28.7688 9.53751 28.8125 9.69376 28.8438 9.85001L28.9563 10.075C29.0375 10.2625 29.1063 10.45 29.1625 10.6438C29.2688 11.0188 29.3063 11.125 29.3063 11.125L29.3813 11.3625L29.4063 11.5875C29.4063 11.5875 29.3625 11.4938 29.3625 11.6063C29.3625 11.7 29.3813 11.7938 29.4313 11.875C29.4938 12.0313 29.4688 11.75 29.5 11.8688L29.5125 11.9125C29.5375 12.0688 29.5563 12.225 29.5563 12.3875C29.5563 12.5375 29.575 12.5813 29.5938 12.7625C29.6125 12.9438 29.6 13.0563 29.6063 13.2188L29.625 13.5563V13.6375L29.6438 14.1438L29.6625 14.3938C29.6438 14.5375 29.6313 14.6188 29.6313 14.6188C29.6313 14.6188 29.5938 14.5 29.5688 14.6125C29.5625 14.6938 29.5625 14.7875 29.5875 14.8813Z" fill="#0041E6"/>
</g>
<defs>
<clipPath id="clip0_7664_50223">
<rect width="32" height="32" fill="white"/>
</clipPath>
</defs>
</svg>
