<svg width="32" height="32" viewBox="0 0 32 32" fill="none" xmlns="http://www.w3.org/2000/svg">
<g clip-path="url(#clip0_7664_50132)">
<path d="M31.9937 12.8375C31.9812 12.75 32 12.6937 31.9937 12.6C31.9812 12.5375 31.9813 12.4687 31.9813 12.4062C31.9938 12.3187 31.9938 12.225 31.9813 12.1312C31.9625 12.0687 31.9563 12.2187 31.9125 12.1312C31.8687 12.0437 31.8687 12.0437 31.8813 11.9875C31.8938 11.9312 31.9375 11.9875 31.9375 11.9875L31.95 11.8687L31.9188 11.7437C31.9 11.6562 31.8875 11.5687 31.875 11.4812C31.8625 11.35 31.8375 11.2312 31.825 11.1625L31.7687 10.9875C31.8062 10.7062 31.8375 10.4125 31.8625 10.1H31.7875L31.8438 9.35L31.8563 9.2625C31.7938 9.01875 31.75 8.76875 31.725 8.51875C31.725 8.51875 31.7688 8.675 31.7938 8.625L31.7625 8.44375C31.7375 8.35625 31.7313 8.31875 31.7563 8.31875H31.7812L31.7563 8.19375C31.725 8.1375 31.7062 8.08125 31.6875 8.025L31.6562 7.83125L31.5625 7.425C31.5688 7.38125 31.575 7.3375 31.5688 7.29375C31.5688 7.19375 31.5125 7.1875 31.5125 7.1875V7.375L31.3687 6.73125L31.4 6.60625C31.4 6.60625 31.4563 6.65625 31.4438 6.59375C31.4312 6.51875 31.4 6.45 31.3563 6.39375L31.3375 6.4L31.2812 6.3875C31.2313 6.21875 31.175 6.05 31.1125 5.8875L31.125 5.7875L31.0875 5.6375C31.0562 5.55625 31.025 5.48125 30.9875 5.4C30.975 5.35625 30.9688 5.30625 30.9688 5.2625C30.9312 5.1875 30.8938 5.11875 30.85 5.05L30.7563 4.94375L30.7313 4.8875L30.675 4.7875C30.625 4.70625 30.5812 4.7 30.5625 4.7H30.5562L30.6812 4.9C30.5063 4.73125 30.325 4.58125 30.1313 4.44375L30.0875 4.35L30.0625 4.30625C30.0625 4.30625 30.15 4.325 30.0875 4.275C30.025 4.2125 29.9438 4.1625 29.85 4.1375L29.8375 4.15625L29.8125 4.1625L29.7812 4.175C29.6313 4.0875 29.475 4.01875 29.3125 3.95L29.2313 3.90625C29.15 3.9 29.0625 3.9 28.9813 3.9C28.9313 3.86875 28.8812 3.84375 28.8312 3.81875C28.7312 3.825 28.6375 3.8375 28.5438 3.85625C28.5 3.8375 28.4563 3.8125 28.4188 3.775C28.3 3.75 28.1875 3.825 28.1187 3.825C27.8312 3.775 27.5375 3.725 27.225 3.6875L26.8625 3.60625L26.175 3.5125L26.0625 3.49375C25.7313 3.5 25.4 3.4625 25.075 3.36875C25.075 3.36875 25.5625 3.31875 24.8375 3.25625C24.4125 3.225 23.9875 3.23125 23.5625 3.2875C23.0375 3.2875 22.5125 3.25 21.9937 3.18125C21.5562 3.1125 21.1063 3.1 20.6625 3.1375H18.6562L18.175 3.18125V3.10625L18.1375 3.1L17.8687 3.075L17.5625 3.06875V3C17.4188 3.0375 17.2313 3.025 17.2188 2.975C17.2062 2.925 16.9125 2.925 16.825 2.91875L16.3813 2.8625H16.2313L15.9937 2.875H15.6625C15.575 2.88125 15.4812 2.8875 15.3875 2.8875C15.2625 2.875 15.1375 2.875 15.0063 2.8875C14.9188 2.90625 15.125 2.9125 15.0063 2.95625C14.9438 2.99375 14.875 3.00625 14.8062 2.9875C14.725 2.975 14.8062 2.93125 14.8062 2.93125L14.6438 2.91875L14.4688 2.95625C14.35 2.975 14.225 2.99375 14.1 3C13.9125 3.01875 13.75 3.0375 13.6562 3.05625L13.4062 3.11875L12.1687 3.05V3.125L11.1375 3.1L11.025 3.09375C10.7062 3.16875 10.375 3.21875 10.05 3.24375C10.05 3.24375 10.2625 3.2 10.1938 3.175H10.1812L9.95 3.2125C9.8375 3.2375 9.79375 3.24375 9.79375 3.21875V3.1875L9.6375 3.2125C9.56875 3.24375 9.49375 3.2625 9.425 3.28125L9.18125 3.3125L8.675 3.3875C8.61875 3.38125 8.56875 3.375 8.5125 3.36875C8.39375 3.3625 8.3875 3.41875 8.3875 3.41875L8.60625 3.43125L7.8125 3.5L7.68125 3.45C7.68125 3.45 7.75 3.4 7.68125 3.40625C7.6 3.40625 7.5125 3.425 7.4375 3.4625V3.48125L7.40625 3.525L6.81875 3.5625L6.71875 3.525L6.55625 3.50625H6.29375C6.24375 3.5 6.2 3.4875 6.15625 3.4625L5.9125 3.48125L5.775 3.5125H5.7125H5.60625C5.51875 3.5125 5.49375 3.54375 5.48125 3.5625V3.575H5.70625C5.45 3.61875 5.3125 3.71875 5.04375 3.75L4.95 3.71875L4.90625 3.70625C4.90625 3.70625 4.975 3.65625 4.9 3.6625C4.8125 3.6625 4.73125 3.6875 4.65625 3.725V3.74375L4.64375 3.7625L4.625 3.79375C4.45625 3.8125 4.3125 3.89375 4.14375 3.9125L4.0625 3.925L3.85 4.05H3.6875L3.44375 4.2C3.39375 4.2 3.34375 4.1875 3.3 4.16875C3.18125 4.18125 3.1 4.2875 3.025 4.3L2.85625 4.33125C2.8 4.44375 2.71875 4.3 2.71875 4.39375C2.63125 4.40625 2.55 4.44375 2.48125 4.5C2.11875 4.6125 1.7875 4.8125 1.51875 5.08125C1.46875 5.15 1.425 5.21875 1.36875 5.29375C1.3 5.43125 1.1625 5.525 1.00625 5.525L0.94375 5.70625L0.85625 5.85625C0.85625 5.85625 0.85 5.75625 0.80625 5.83125C0.7625 5.89375 0.74375 5.96875 0.75625 6.04375C0.75625 6.16875 0.83125 5.98125 0.81875 6.06875C0.7875 6.1875 0.75 6.30625 0.7 6.41875C0.675 6.5 0.65625 6.58125 0.64375 6.66875C0.625 6.7875 0.59375 6.85625 0.58125 6.9625L0.5625 7.175L0.54375 7.30625L0.45 7.68125C0.4375 7.75 0.425 7.99375 0.375 8C0.33125 8.00625 0.30625 8.1625 0.34375 8.28125H0.29375L0.2875 8.53125L0.26875 8.75L0.2625 8.76875H0.19375L0.15625 8.9375L0.18125 9.0125C0.15 9.09375 0.1125 9.18125 0.06875 9.25625L0 9.29375C0.075 9.4625 0.1375 9.6375 0.18125 9.81875C0.19375 9.89375 0.21875 10.0125 0.23125 10.1562L0.24375 10.25C0.25 10.3125 0.2625 10.375 0.275 10.4312L0.3125 10.5625L0.3 10.6875C0.3 10.6875 0.26875 10.65 0.25625 10.6687C0.25 10.675 0.24375 10.6812 0.24375 10.6875C0.2375 10.7062 0.2375 10.7312 0.24375 10.7562C0.25625 10.7875 0.26875 10.8125 0.28125 10.8437C0.325 10.9312 0.33125 10.775 0.35 10.8437C0.3625 10.9375 0.3625 11.0375 0.35 11.1312C0.34375 11.2 0.35 11.2687 0.3625 11.3437C0.375 11.4437 0.35625 11.5062 0.3625 11.5937C0.36875 11.6625 0.375 11.7062 0.38125 11.775V11.8875C0.36875 11.9937 0.35 12.1 0.3375 12.175L0.33125 12.225C0.33125 12.3187 0.31875 12.4062 0.3 12.4937L0.34375 12.6312C0.35625 12.7062 0.38125 12.825 0.39375 12.9687C0.4 13.0625 0.4125 13.1562 0.4375 13.2437L0.46875 13.375L0.45625 13.5C0.45625 13.5 0.4125 13.4375 0.4 13.5C0.3875 13.5625 0.3875 13.5625 0.43125 13.65C0.475 13.7375 0.48125 13.5812 0.5 13.65V13.675C0.50625 13.7625 0.50625 13.85 0.5 13.9375C0.49375 14.0062 0.5 14.075 0.5125 14.15C0.525 14.25 0.50625 14.3125 0.5125 14.4C0.51875 14.4687 0.525 14.5125 0.53125 14.5812V14.6V14.6312C0.5375 14.725 0.55 14.8187 0.575 14.9062L0.60625 15.0375L0.59375 15.1625C0.59375 15.1625 0.55 15.1 0.5375 15.1625C0.525 15.225 0.525 15.225 0.56875 15.3125C0.6125 15.4 0.61875 15.2437 0.6375 15.3125C0.65 15.4062 0.65 15.5 0.6375 15.6C0.63125 15.6687 0.6375 15.7375 0.65 15.8125C0.6625 15.9125 0.64375 15.975 0.65 16.0625C0.65625 16.1312 0.6625 16.175 0.66875 16.2437V16.3562C0.65625 16.4875 0.625 16.6375 0.61875 16.6937C0.6125 16.75 0.61875 16.9812 0.56875 16.9875C0.51875 17 0.50625 17.1375 0.55 17.2437H0.45625V17.475L0.4375 17.6875L0.43125 17.7125H0.3625L0.325 17.8875L0.34375 17.9625C0.3125 18.0437 0.275 18.1187 0.2375 18.2C0.25 18.2937 0.28125 18.2437 0.325 18.3312C0.375 18.4125 0.44375 18.4812 0.51875 18.5312C0.5 18.6437 0.4875 18.7562 0.49375 18.8687V18.975L0.45 19.2687L0.4375 19.325C0.5125 19.4563 0.375 19.7875 0.375 19.7875C0.375 19.7875 0.29375 19.5562 0.28125 19.9C0.275 20.0938 0.3125 20.2875 0.38125 20.475C0.4 20.7188 0.3875 20.9688 0.3375 21.2062C0.2875 21.4125 0.2875 21.625 0.3375 21.8312L0.3875 22.775L0.4375 22.9875H0.38125L0.375 22.9813L0.35625 23.1V23.2375H0.2875C0.325 23.3 0.30625 23.3875 0.2625 23.3937C0.21875 23.4 0.2125 23.5375 0.20625 23.575C0.2 23.6125 0.1625 23.7062 0.15 23.8V23.8813C0.15 23.925 0.15625 23.9625 0.16875 24.0063C0.18125 24.0688 0.1625 24.1125 0.16875 24.1875C0.18125 24.2375 0.1875 24.2875 0.18125 24.3375C0.175 24.4125 0.175 24.4812 0.19375 24.5562C0.2125 24.6062 0.2125 24.4875 0.2625 24.5562C0.3125 24.625 0.3125 24.6188 0.30625 24.6688C0.3 24.7188 0.25 24.6688 0.25 24.6688V24.7687L0.3 24.875C0.33125 24.9438 0.35 25.0187 0.36875 25.0938C0.4 25.1812 0.43125 25.2688 0.475 25.35L0.5625 25.4813C0.5875 25.7375 0.6375 25.9937 0.7125 26.2375L0.78125 26.2062C0.85 26.425 0.9375 26.6313 1.0375 26.8375L1.06875 26.9062C1.225 27.025 1.5625 27.3687 1.5625 27.3687C1.5625 27.3687 1.4375 27.2875 1.45 27.3375L1.58125 27.4438C1.65 27.4875 1.675 27.5063 1.6625 27.525L1.64375 27.5438L1.7375 27.6063C1.7875 27.6188 1.8375 27.6375 1.8875 27.6625L2.025 27.7563L2.26875 27.8875C2.2 27.975 2.1375 28.0875 2.3125 28.1125C2.4875 28.1375 2.66875 28.1438 2.84375 28.1313V28.1375C2.83125 28.1562 2.73125 28.3125 3.0625 28.35L3.4125 28.3937H3.425L3.44375 28.425L3.525 28.4813L3.66875 28.5375C3.69375 28.5562 3.71875 28.5813 3.73125 28.6063L3.86875 28.6437H3.95L3.98125 28.6625L4.0375 28.6875C4.0625 28.7062 4.1 28.6938 4.1125 28.6688V28.6625L3.99375 28.6125C4.1375 28.625 4.23125 28.5562 4.375 28.5688L4.41875 28.6125L4.44375 28.6375C4.44375 28.6375 4.4 28.675 4.44375 28.6812C4.4875 28.6938 4.5375 28.6875 4.58125 28.6625V28.6437L4.59375 28.6313L4.60625 28.6063C4.69375 28.6188 4.775 28.575 4.8625 28.5875H4.90625L5.0125 28.5125L5.09375 28.5438L5.16875 28.4875H5.1875C5.2125 28.4875 5.24375 28.4937 5.26875 28.4937L5.275 28.5L5.2875 28.4937C5.425 28.4937 5.55 28.5562 5.63125 28.6625L5.85 28.6313L6.05 28.6437C6.05 28.6437 5.94375 28.6875 6.05 28.7C6.13125 28.7125 6.21875 28.7063 6.29375 28.6688C6.4375 28.625 6.1875 28.6187 6.29375 28.6C6.45 28.5875 6.6 28.5938 6.75625 28.6063C6.86875 28.6125 6.975 28.6125 7.0875 28.6063L7.49375 28.6125L7.7875 28.6L7.975 28.6063L8.51875 28.6688C8.625 28.675 8.98125 28.6813 8.99375 28.7313C9.00625 28.775 9.2375 28.8 9.4125 28.7625V28.8312L9.7875 28.8375L10.1187 28.8625L10.1625 28.8687V28.9375L10.45 28.9813L10.575 28.9625C10.7188 29 10.8563 29.0375 10.975 29.0812L11.025 29.15C11.3062 29.0812 11.5875 29.025 11.875 28.9813C11.9937 28.9688 12.1875 28.95 12.425 28.9375L12.575 28.925L12.875 28.9L13.0938 28.8687L13.3 28.8813C13.3 28.8813 13.2375 28.9125 13.2688 28.925C13.275 28.9312 13.2875 28.9375 13.3 28.9375C13.3375 28.9438 13.3687 28.9438 13.4062 28.9375C13.4563 28.9312 13.5 28.9187 13.5437 28.9C13.6875 28.8562 13.4375 28.85 13.5437 28.8312C13.7 28.8187 13.8563 28.8187 14.0063 28.8312C14.1188 28.8375 14.2312 28.8313 14.3375 28.825H14.7437L15.0375 28.8125L15.225 28.8188L15.6938 28.8625L15.775 28.8687C15.925 28.8687 16.0688 28.8813 16.2125 28.9L16.4375 28.8563L16.9875 28.8062C17.3375 28.7812 17.4375 28.7625 17.4375 28.7625L17.6562 28.725L17.8625 28.7375C17.8625 28.7375 17.7562 28.7812 17.8625 28.7938C17.9437 28.8063 18.0312 28.7938 18.1125 28.7625C18.2562 28.7188 18.0062 28.7125 18.1125 28.6938H18.1562C18.2938 28.6875 18.4375 28.6875 18.575 28.6938C18.6875 28.7 18.8 28.6938 18.9062 28.6812H19.3125L19.6063 28.6625H19.6375H19.6812C20.0312 28.6375 20.1313 28.6187 20.1313 28.6187L20.35 28.5812L20.5562 28.5938C20.5562 28.5938 20.45 28.6437 20.5562 28.65C20.6375 28.6625 20.725 28.65 20.8062 28.6125C20.95 28.5687 20.7 28.5625 20.8062 28.5438C20.9625 28.525 21.1187 28.525 21.2687 28.5312C21.3812 28.5312 21.4937 28.525 21.6 28.5125L22.0063 28.5L22.3 28.475H22.4875L23.0375 28.5063C23.1438 28.5063 23.5062 28.4938 23.5187 28.5438C23.5375 28.5875 23.7687 28.5938 23.9375 28.55V28.6187L24.3125 28.6H24.65L24.6938 28.6063V28.675L24.9875 28.7L25.1125 28.675C25.25 28.7 25.3875 28.7313 25.5063 28.7625C25.6562 28.7438 25.575 28.7188 25.7188 28.6688C25.8375 28.625 25.9438 28.55 26.0312 28.4562C26.2125 28.4688 26.4 28.4625 26.5812 28.4438C26.9812 28.4188 26.5813 28.4437 27.0375 28.3625C27.1 28.35 27.125 28.3438 27.1688 28.3312C27.2875 28.3438 27.4062 28.3563 27.525 28.3563L27.6437 28.325C27.7937 28.2938 27.8563 28.4813 27.8563 28.4813L27.95 28.4375H28.0438C28.0438 28.4375 28.0062 28.4875 28.05 28.4937C28.0938 28.5 28.1 28.5 28.1562 28.45C28.2125 28.3938 28.1 28.4062 28.1437 28.3813C28.2125 28.3563 28.2812 28.35 28.3563 28.35C28.4062 28.3438 28.4625 28.3312 28.5063 28.3125C28.575 28.2875 28.625 28.3 28.6938 28.2687C28.7437 28.25 28.775 28.2313 28.825 28.2188L28.9125 28.2L29.1875 28.1688C29.2375 28.1562 29.4125 28.0875 29.4375 28.125C29.4625 28.1625 29.5812 28.125 29.65 28.05L29.6812 28.1125C29.7437 28.0812 29.8062 28.05 29.8625 28.0125L30.0312 27.9375L30.0562 27.9312L30.0938 27.9875L30.25 27.925L30.3 27.8687L30.5562 27.8062L30.625 27.8438L30.8687 27.3563L31.0312 27.0812L31.075 27.0063C31.1 26.9563 31.125 26.9062 31.1437 26.85L31.1812 26.7313L31.25 26.6437C31.25 26.6437 31.2625 26.6875 31.2812 26.6812C31.2875 26.6812 31.2937 26.675 31.3 26.6688C31.3125 26.6562 31.325 26.6375 31.3312 26.6187C31.3375 26.5938 31.3375 26.5625 31.3312 26.5375C31.3312 26.45 31.2625 26.5625 31.2687 26.5063C31.2937 26.4312 31.3312 26.3563 31.375 26.2875C31.4 26.2375 31.425 26.1812 31.4375 26.125C31.4625 26.0438 31.4938 26.0063 31.5125 25.9312L31.5438 25.7875L31.575 25.7L31.6812 25.4875L31.7 25.45C31.7188 25.375 31.7437 25.3062 31.7812 25.2375L31.7625 25.1187L31.7563 24.85C31.7625 24.7812 31.7563 24.7125 31.7437 24.6375L31.7188 24.5312L31.7375 24.4438C31.7375 24.4438 31.7812 24.4937 31.7938 24.4438C31.8063 24.3938 31.8062 24.4 31.7687 24.3312C31.7312 24.2625 31.7188 24.375 31.7 24.3312V24.3125C31.6938 24.25 31.7 24.1875 31.7125 24.125C31.7188 24.075 31.7125 24.025 31.7062 23.9813C31.7 23.9125 31.7188 23.8687 31.7062 23.8062C31.7 23.7625 31.6938 23.725 31.6875 23.6812V23.6688V23.65C31.6812 23.5875 31.6687 23.525 31.6437 23.4625L31.6063 23.375L31.6187 23.2938C31.6187 23.2938 31.6625 23.3313 31.675 23.2938C31.6875 23.2563 31.6875 23.25 31.6375 23.1938C31.5938 23.1375 31.5875 23.2375 31.5688 23.1938C31.5562 23.1313 31.55 23.0688 31.5625 23.0125C31.5625 22.9688 31.5563 22.925 31.5438 22.8813C31.5312 22.8188 31.5438 22.775 31.5375 22.725C31.525 22.6875 31.5187 22.65 31.5187 22.6125V22.5438C31.525 22.4563 31.5562 22.3687 31.5625 22.3312C31.5688 22.3 31.5625 22.15 31.6063 22.1437C31.65 22.1375 31.6625 22.0438 31.6187 21.9813H31.6875L31.6812 21.8375L31.6938 21.7062L31.7 21.6875H31.7687L31.8 21.575L31.775 21.525C31.8062 21.475 31.8375 21.4188 31.875 21.375C31.8563 21.3188 31.8313 21.35 31.7875 21.2938C31.7313 21.2438 31.6625 21.2 31.5875 21.175C31.6062 21.1062 31.6125 21.0375 31.6063 20.9625C31.6063 20.8562 31.6062 20.8937 31.5875 20.875L31.6313 20.6625L31.6812 20.1688L31.6938 20.0875C31.6688 19.85 31.6875 19.6063 31.7563 19.375C31.7563 19.375 31.8375 19.725 31.8563 19.2C31.8688 18.8938 31.8375 18.5875 31.7625 18.2875C31.7438 17.9125 31.7563 17.5312 31.8062 17.1562C31.8562 16.8375 31.8562 16.5125 31.8062 16.2L31.7625 14.7562L31.7125 14.4125H31.7812L31.7875 14.3875L31.8062 14.1937V13.975H31.875C31.8312 13.8687 31.85 13.7375 31.8937 13.7312C31.9375 13.725 31.9375 13.5125 31.9438 13.45C31.95 13.3875 31.9812 13.2562 31.9937 13.1312V13.025C32.0062 12.9437 32 12.9 31.9937 12.8375ZM23.9562 7.96875L24.0187 8H24.0312L24.0625 7.95625L24.0875 7.90625L24.15 7.9375C24.125 7.89375 24.15 7.875 24.1938 7.89375C24.2375 7.9125 24.2625 7.86875 24.2687 7.85625C24.3 7.84375 24.325 7.83125 24.35 7.8125L24.3687 7.79375C24.375 7.78125 24.375 7.7625 24.375 7.75C24.375 7.725 24.4 7.725 24.4 7.7C24.4 7.675 24.4 7.66875 24.4125 7.65C24.425 7.6375 24.45 7.6125 24.4438 7.59375C24.4375 7.575 24.4125 7.6 24.3813 7.5625C24.35 7.525 24.35 7.525 24.3687 7.51875C24.3875 7.5125 24.4188 7.54375 24.4188 7.54375L24.4438 7.525L24.425 7.48125C24.4187 7.45625 24.4125 7.43125 24.4188 7.40625C24.4188 7.375 24.4188 7.34375 24.4062 7.3125L24.375 7.25C24.4375 7.20625 24.5 7.15625 24.5625 7.10625L24.5 7.075L24.6313 6.94375L24.65 6.93125C24.625 6.86875 24.6187 6.8 24.6313 6.73125C24.6313 6.73125 24.6437 6.78125 24.675 6.78125V6.73125C24.6625 6.70625 24.6625 6.69375 24.6875 6.70625L24.7125 6.71875V6.6875C24.7 6.66875 24.6875 6.65 24.6812 6.63125L24.6875 6.5875V6.4875C24.7 6.4875 24.7125 6.48125 24.725 6.475C24.75 6.4625 24.7 6.4375 24.7 6.4375L24.6562 6.45625C24.6688 6.4125 24.6812 6.36875 24.7062 6.33125L24.7687 6.3375C24.7687 6.3375 24.8 6.36875 24.8062 6.35625C24.8125 6.34375 24.8 6.30625 24.8 6.30625L24.7812 6.29375L24.7437 6.26875C24.7625 6.2375 24.7812 6.2125 24.8062 6.1875L24.8563 6.19375L24.8937 6.18125L24.9312 6.15C24.95 6.15 24.9688 6.15 24.9937 6.15625L25.025 6.125V6.1H25.0438L25.0688 6.09375C25.0875 6.0875 25.0687 6.06875 25.05 6.0625H25.0438L25.0063 6.075C25.0188 6.03125 24.9563 5.96875 24.9813 5.93125H25.025H25.05C25.05 5.93125 25.0812 5.9625 25.0875 5.95C25.0938 5.9375 25.0812 5.9 25.0812 5.9L25.0625 5.8875L25.05 5.875L25.025 5.8625C25.0312 5.85 25.0312 5.83125 25.025 5.8125L25.0625 5.825C25.2125 5.81875 25.1375 5.7875 25.2812 5.75625C25.4 5.725 25.5125 5.6625 25.6125 5.58125C25.7875 5.6125 25.9688 5.63125 26.1437 5.6375C26.5312 5.6625 26.1437 5.6375 26.5938 5.61875C27.0438 5.6 26.9187 5.50625 27.3062 5.56875C27.5 5.60625 27.6937 5.61875 27.8937 5.6C27.9562 5.58125 28.0125 5.5625 28.075 5.55C28.0875 5.55625 28.1 5.55625 28.1125 5.5625C28.3187 5.63125 28.5062 5.7375 28.675 5.875C28.7125 5.89375 28.75 5.9125 28.7875 5.9375C28.925 6.025 28.8 6.19375 28.8 6.19375L28.8813 6.2375C28.9 6.2625 28.9125 6.2875 28.925 6.31875C28.925 6.31875 28.8625 6.30625 28.8813 6.35C28.9 6.39375 28.9 6.39375 28.9688 6.425C29.0438 6.45625 28.9875 6.35625 29.025 6.3875C29.075 6.44375 29.1063 6.51875 29.1313 6.5875C29.1562 6.6375 29.1812 6.69375 29.2125 6.74375C29.2437 6.8125 29.2688 6.88125 29.2875 6.95625C29.3125 7.00625 29.3375 7.05625 29.35 7.1125L29.375 7.21875C29.3875 7.33125 29.3937 7.4375 29.3937 7.55C29.4 7.60625 29.4313 7.83125 29.3875 7.84375C29.3438 7.85625 29.3438 8 29.4 8.10625L29.3312 8.1125L29.3375 8.1875L28.375 8.13125L27.9875 8.08125L27.2563 8.04375L27.1313 8.0375C26.775 8.06875 26.4188 8.05625 26.075 7.9875C26.075 7.9875 26.5875 7.9 25.8125 7.89375C25.3563 7.8875 24.9062 7.925 24.4562 8.00625C24.4562 8.00625 24.2563 8.01875 23.975 8.025V7.96875H23.9562ZM17.1187 7.9125L17.1812 7.94375C17.1562 7.9 17.1813 7.88125 17.2313 7.9C17.2812 7.91875 17.2937 7.875 17.3062 7.8625C17.3375 7.85 17.3625 7.83125 17.3875 7.81875L17.4062 7.8C17.4062 7.7875 17.4062 7.76875 17.4062 7.75625C17.4062 7.73125 17.4312 7.73125 17.4312 7.70625C17.4312 7.68125 17.4312 7.675 17.4438 7.65625C17.4563 7.64375 17.4813 7.61875 17.475 7.6C17.4688 7.58125 17.4438 7.60625 17.4125 7.56875C17.3813 7.53125 17.3813 7.53125 17.4 7.525C17.4187 7.51875 17.45 7.55 17.45 7.55L17.475 7.53125L17.4625 7.4875C17.4562 7.4625 17.45 7.4375 17.4562 7.4125C17.4562 7.38125 17.4563 7.35 17.4438 7.31875L17.4125 7.25625C17.475 7.2125 17.5375 7.1625 17.6 7.1125L17.5375 7.08125L17.6688 6.95L17.6875 6.9375C17.6625 6.875 17.6562 6.80625 17.6688 6.7375C17.6688 6.7375 17.6812 6.7875 17.7125 6.7875V6.7375C17.7 6.7125 17.7063 6.7 17.725 6.7125L17.75 6.725V6.6875C17.7375 6.66875 17.725 6.65 17.7188 6.63125L17.725 6.5875V6.4875C17.7375 6.4875 17.75 6.48125 17.7625 6.475C17.7875 6.4625 17.7375 6.4375 17.7375 6.4375L17.6938 6.45625C17.7063 6.4125 17.7188 6.36875 17.7437 6.33125L17.8062 6.3375C17.8062 6.3375 17.8375 6.36875 17.8438 6.35625C17.85 6.34375 17.8375 6.30625 17.8375 6.30625L17.8188 6.29375L17.7812 6.26875C17.8 6.2375 17.8188 6.2125 17.8438 6.1875L17.8937 6.19375L17.9312 6.175L17.9688 6.14375C17.9875 6.14375 18.0063 6.14375 18.0312 6.15L18.0625 6.11875V6.09375H18.075L18.1 6.0875C18.1187 6.08125 18.1 6.0625 18.0812 6.05625H18.075L18.0312 6.075C18.0438 6.03125 17.9813 5.96875 18.0063 5.93125H18.05H18.075C18.075 5.93125 18.1062 5.9625 18.1125 5.95C18.1187 5.9375 18.1063 5.9 18.1063 5.9L18.0875 5.8875L18.0625 5.875L18.0438 5.8625C18.0625 5.8375 18.0312 5.79375 18.0438 5.76875L18.0562 5.75625L18 5.68125L18.0438 5.66875L17.975 5.58125C17.9937 5.58125 18.0125 5.58125 18.0375 5.5875C18.0562 5.575 17.9812 5.51875 17.9937 5.50625L18.0125 5.4875C17.9375 5.43125 18.0812 5.5 18 5.45625C18 5.45625 18.0375 5.45625 17.9438 5.34375C17.9375 5.33125 17.9375 5.33125 17.925 5.31875C18.0375 5.3125 18.2 5.325 18.3125 5.33125C18.4188 5.3375 18.5312 5.3375 18.6375 5.33125H19.0375L19.325 5.31875H19.35H19.3937C19.7375 5.30625 19.8375 5.2875 19.8375 5.2875L20.05 5.2625L20.25 5.28125C20.25 5.28125 20.1437 5.325 20.25 5.3375C20.3312 5.35625 20.4187 5.34375 20.4937 5.3125C20.6375 5.275 20.3875 5.2625 20.4937 5.24375C20.6437 5.2375 20.8 5.2375 20.95 5.25625C21.0563 5.2625 21.1687 5.2625 21.275 5.25625L21.675 5.26875L21.9625 5.2625L22.1437 5.275L22.6812 5.35C22.7188 5.35 22.8 5.3625 22.8813 5.36875C22.8563 5.3875 22.8313 5.4 22.8188 5.4125C22.8062 5.425 22.775 5.48125 22.7313 5.4625C22.6875 5.44375 22.6562 5.475 22.675 5.51875L22.6125 5.4875L22.5812 5.54375L22.5375 5.5875H22.525L22.4688 5.55625L22.4125 5.5875L22.4188 5.61875C22.375 5.625 22.3313 5.63125 22.2875 5.63125L22.225 5.60625C22.2625 5.675 22.2938 5.75 22.3125 5.825C22.3188 5.8625 22.3188 5.9 22.3125 5.9375V5.96875V6.03125L22.325 6.08125L22.3 6.10625C22.2875 6.09375 22.275 6.0875 22.2625 6.08125H22.25C22.2375 6.08125 22.2375 6.0875 22.2375 6.09375C22.2437 6.10625 22.25 6.11875 22.2563 6.13125C22.2812 6.175 22.3062 6.13125 22.3188 6.1625C22.325 6.19375 22.3 6.21875 22.2812 6.2375C22.2625 6.25625 22.2688 6.26875 22.2625 6.29375C22.2563 6.325 22.2313 6.33125 22.2313 6.35625C22.2313 6.375 22.225 6.39375 22.2188 6.4125L22.2 6.4375C22.175 6.45625 22.15 6.475 22.1187 6.4875L22.1063 6.5C22.0938 6.5125 22.075 6.55 22.0438 6.55625L22.0625 6.6125C22.0688 6.65 22.0688 6.68125 22.0625 6.71875C22.0562 6.75 22.0562 6.78125 22.0625 6.80625L22.075 6.85625L22.05 6.88125C22.05 6.88125 22.0187 6.84375 22 6.85625C21.9813 6.86875 21.9813 6.86875 22.0063 6.9125C22.0312 6.95625 22.0562 6.9125 22.0688 6.94375V6.95C22.0625 6.975 22.05 7 22.0312 7.0125C22.0125 7.03125 22.0188 7.0375 22.0125 7.06875C22.0063 7.1 21.9813 7.10625 21.9813 7.13125C21.9813 7.15 21.975 7.16875 21.9688 7.1875V7.19375C21.9625 7.225 21.9625 7.25625 21.9688 7.28125L21.975 7.3375L21.95 7.3625C21.95 7.3625 21.9187 7.325 21.9 7.3375C21.8813 7.35 21.8813 7.35 21.9062 7.39375C21.9312 7.4375 21.9562 7.39375 21.9688 7.425C21.975 7.45625 21.95 7.48125 21.9312 7.5C21.9125 7.51875 21.9188 7.53125 21.9125 7.55625C21.9062 7.5875 21.8813 7.59375 21.8813 7.61875C21.8813 7.6375 21.875 7.65625 21.8687 7.675L21.85 7.70625C21.8188 7.73125 21.7875 7.75 21.7563 7.76875C21.7437 7.78125 21.7125 7.8375 21.6688 7.81875C21.625 7.8 21.5938 7.83125 21.6125 7.875L21.55 7.84375L21.5187 7.90625L21.475 7.95H21.4625L21.4 7.91875L21.3438 7.95L21.35 7.98125C21.3062 7.9875 21.2688 7.99375 21.225 7.99375C21.225 8.01875 21.2438 8.025 21.2625 8.04375L19.2062 8.125L18.6938 8.1875V8.11875L18.6562 8.1125L18.3625 8.1H18.0375V8.04375C17.8875 8.0875 17.6875 8.075 17.675 8.025C17.6625 7.98125 17.3438 7.9875 17.2563 7.98125L17.1125 7.96875L17.1187 7.9125ZM10.025 8.0625V7.96875L10.0875 8H10.1L10.1375 7.9625L10.1625 7.9125L10.225 7.94375C10.2 7.9 10.2312 7.88125 10.275 7.9C10.3187 7.91875 10.3375 7.875 10.35 7.8625C10.3813 7.85 10.4062 7.83125 10.4312 7.81875L10.45 7.8C10.45 7.7875 10.45 7.76875 10.45 7.75625C10.45 7.73125 10.475 7.73125 10.475 7.70625C10.4813 7.68125 10.475 7.675 10.4875 7.65625C10.5 7.64375 10.525 7.61875 10.5188 7.6C10.5063 7.58125 10.4875 7.60625 10.4563 7.56875C10.425 7.53125 10.425 7.53125 10.4438 7.525C10.4625 7.51875 10.4937 7.55 10.4937 7.55L10.5188 7.53125L10.5 7.4875C10.4937 7.4625 10.4875 7.4375 10.4937 7.4125C10.4937 7.38125 10.4938 7.35 10.4875 7.31875L10.4563 7.25625C10.5188 7.2125 10.5813 7.1625 10.6438 7.1125L10.5813 7.08125L10.7125 6.95L10.7312 6.9375C10.7063 6.875 10.7 6.80625 10.7125 6.7375C10.7125 6.7375 10.725 6.7875 10.7563 6.7875V6.7375C10.7438 6.7125 10.7438 6.7 10.7688 6.7125L10.7875 6.725V6.69375C10.775 6.675 10.7625 6.65625 10.7563 6.6375L10.7625 6.59375V6.49375C10.775 6.49375 10.7875 6.4875 10.8 6.48125C10.825 6.46875 10.775 6.44375 10.775 6.44375L10.7312 6.4625C10.7437 6.41875 10.7563 6.375 10.7812 6.3375L10.8438 6.34375C10.8438 6.34375 10.875 6.375 10.8813 6.3625C10.8875 6.35 10.875 6.3125 10.875 6.3125L10.8562 6.3L10.8188 6.275C10.8375 6.24375 10.8563 6.21875 10.8813 6.19375L10.9312 6.2L10.975 6.1875L11.0125 6.15625C11.0312 6.15625 11.05 6.15625 11.075 6.1625L11.1062 6.13125V6.10625H11.1187L11.1438 6.1C11.1625 6.09375 11.1438 6.075 11.125 6.06875H11.1187L11.075 6.0875C11.0875 6.04375 11.025 5.98125 11.05 5.94375H11.0938H11.1125C11.1125 5.94375 11.1437 5.975 11.15 5.9625C11.1562 5.95 11.1438 5.9125 11.1438 5.9125L11.125 5.9L11.1125 5.8875L11.0938 5.875C11.0938 5.86875 11.0938 5.85625 11.0938 5.85C11.3188 5.775 11.55 5.71875 11.7875 5.66875V5.675C11.9 5.65625 12.0938 5.63125 12.3188 5.6125L12.4625 5.6L12.75 5.5625L12.9625 5.525L13.1625 5.53125C13.1625 5.53125 13.1063 5.5625 13.1313 5.58125C13.1375 5.5875 13.15 5.59375 13.1625 5.59375C13.2 5.6 13.2312 5.6 13.2688 5.59375L13.4 5.55625C13.5375 5.50625 13.2937 5.50625 13.4 5.4875C13.55 5.46875 13.7 5.46875 13.8562 5.48125C13.9625 5.4875 14.075 5.48125 14.1812 5.46875H14.575L14.8625 5.45H15.0437L15.5 5.49375L15.5813 5.5L15.7188 5.50625C15.7125 5.51875 15.7125 5.53125 15.7188 5.54375L15.6562 5.5125L15.625 5.56875L15.5813 5.6125H15.5625L15.5 5.58125L15.4438 5.6125L15.45 5.64375C15.4062 5.65 15.3625 5.65625 15.3188 5.65625L15.25 5.63125C15.2875 5.7 15.3187 5.775 15.3375 5.85C15.3438 5.8875 15.3438 5.925 15.3375 5.9625V5.99375C15.3312 6.0125 15.3312 6.0375 15.3375 6.05625L15.35 6.10625L15.325 6.13125C15.3125 6.11875 15.3 6.1125 15.2875 6.10625H15.275C15.2625 6.10625 15.2625 6.1125 15.2625 6.11875C15.2688 6.13125 15.275 6.14375 15.2812 6.15625C15.3062 6.2 15.3375 6.15625 15.3438 6.1875C15.35 6.21875 15.3187 6.24375 15.3062 6.2625C15.2875 6.28125 15.2938 6.29375 15.2875 6.31875C15.2812 6.35 15.2563 6.35625 15.2563 6.38125C15.2563 6.4 15.25 6.41875 15.2437 6.4375L15.225 6.4625C15.2 6.48125 15.175 6.5 15.15 6.5125L15.1375 6.525C15.125 6.5375 15.1062 6.575 15.075 6.58125L15.0938 6.6375C15.1 6.675 15.1 6.70625 15.0938 6.74375C15.0875 6.775 15.0875 6.80625 15.0938 6.83125L15.1062 6.88125L15.0813 6.90625C15.0813 6.90625 15.05 6.86875 15.0312 6.88125C15.0125 6.89375 15.0125 6.89375 15.0375 6.9375C15.0625 6.98125 15.0875 6.9375 15.1 6.96875V6.975C15.0938 7 15.0812 7.025 15.0562 7.04375C15.0375 7.0625 15.0438 7.06875 15.0375 7.1C15.0312 7.13125 15.0063 7.1375 15.0063 7.1625C15.0063 7.18125 15 7.2 14.9937 7.21875V7.225C14.9875 7.25625 14.9875 7.2875 14.9937 7.3125L15.0063 7.3625L14.9812 7.3875C14.9812 7.3875 14.95 7.35 14.9312 7.3625C14.9125 7.375 14.9125 7.375 14.9375 7.41875C14.9625 7.4625 14.9875 7.41875 15 7.45C15.0125 7.48125 14.9812 7.50625 14.9625 7.525C14.9437 7.54375 14.95 7.55625 14.9438 7.58125C14.9375 7.6125 14.9125 7.61875 14.9125 7.64375C14.9125 7.6625 14.9062 7.68125 14.9 7.7L14.8813 7.73125C14.85 7.75625 14.8188 7.775 14.7875 7.79375C14.775 7.80625 14.7437 7.8625 14.7 7.84375C14.6562 7.825 14.625 7.85625 14.6438 7.9L14.5813 7.86875L14.55 7.93125L14.5063 7.975H14.5L14.4375 7.94375L14.3813 7.975L14.3875 8.00625C14.3438 8.0125 14.3062 8.01875 14.2625 8.01875C14.2625 8.05 14.2938 8.05 14.3188 8.09375C14.325 8.10625 14.3438 8.11875 14.35 8.125C14.15 8.14375 13.975 8.16875 13.875 8.18125L13.6125 8.24375L12.2937 8.16875V8.25L11.1938 8.2125L11.0688 8.2C10.725 8.26875 10.3813 8.30625 10.0312 8.325C10.0312 8.325 10.25 8.2875 10.1812 8.2625H10.1687L9.95 8.2875L10.025 8.0625ZM8.625 5.5625L8.59375 5.59375H8.58125L8.525 5.5625H8.625ZM2.59375 7.5625L2.6625 7.50625C2.6625 7.50625 2.7 7.55 2.70625 7.5125C2.71875 7.46875 2.7125 7.425 2.69375 7.3875H2.675L2.63125 7.3625C2.65 7.275 2.675 7.18125 2.70625 7.09375L2.7625 7.0625L2.8125 7.00625L2.8625 6.9125C2.88125 6.9 2.90625 6.8875 2.93125 6.8875L2.975 6.8125L2.98125 6.76875L3 6.75625L3.03125 6.7375C3.05625 6.71875 3.03125 6.7 3.01875 6.69375L3.0125 6.68125L2.95625 6.725C2.98125 6.65 2.93125 6.56875 2.98125 6.5125L3.025 6.51875H3.05C3.05 6.51875 3.06875 6.55625 3.08125 6.54375C3.1 6.53125 3.10625 6.5 3.0875 6.48125L3.075 6.46875L3.0625 6.45625L3.04375 6.4375C3.06875 6.41875 3.05625 6.3625 3.0875 6.35L3.1 6.34375L3.0875 6.25L3.125 6.26875C3.125 6.23125 3.125 6.19375 3.13125 6.15625C3.15 6.16875 3.1625 6.18125 3.175 6.2C3.2 6.2 3.2 6.1125 3.21875 6.1125C3.23125 6.1125 3.24375 6.1125 3.25625 6.11875C3.26875 6.01875 3.2875 6.18125 3.2875 6.09375C3.2875 6.09375 3.30625 6.11875 3.39375 6.00625L3.425 5.96875L3.5625 5.95C3.975 5.925 4.5125 5.84375 5 5.79375L5.26875 5.7375C5.6 5.675 5.7125 5.85625 5.7125 5.85625L5.9125 5.79375L6.10625 5.78125C6.10625 5.78125 6.0125 5.8375 6.1125 5.8375C6.19375 5.84375 6.275 5.81875 6.34375 5.775C6.475 5.71875 6.2375 5.7375 6.3375 5.70625C6.4875 5.68125 6.63125 5.66875 6.78125 5.6625C6.8875 5.65625 6.99375 5.64375 7.1 5.625L7.49375 5.5875L7.775 5.54375L7.95625 5.53125C8.16875 5.53125 8.4 5.55 8.49375 5.55H8.51875L8.46875 5.575L8.475 5.60625C8.43125 5.6125 8.3875 5.61875 8.34375 5.61875L8.28125 5.5875C8.31875 5.65625 8.35 5.73125 8.36875 5.80625C8.375 5.84375 8.375 5.88125 8.36875 5.91875V5.95V6.0125L8.38125 6.0625L8.35625 6.0875C8.34375 6.075 8.33125 6.06875 8.3125 6.0625H8.3C8.2875 6.0625 8.2875 6.06875 8.2875 6.075C8.29375 6.0875 8.3 6.1 8.30625 6.1125C8.33125 6.15625 8.35625 6.1125 8.36875 6.14375C8.375 6.175 8.34375 6.2 8.33125 6.21875C8.3125 6.2375 8.31875 6.25 8.3125 6.275C8.30625 6.30625 8.28125 6.3125 8.28125 6.3375C8.28125 6.35625 8.275 6.375 8.26875 6.39375L8.25 6.41875C8.225 6.4375 8.2 6.45625 8.175 6.46875L8.1625 6.475C8.15 6.4875 8.13125 6.525 8.1 6.53125L8.11875 6.5875C8.125 6.625 8.125 6.65625 8.11875 6.69375C8.1125 6.725 8.1125 6.75625 8.11875 6.78125L8.13125 6.83125L8.1 6.85625C8.1 6.85625 8.06875 6.81875 8.05 6.83125C8.03125 6.84375 8.03125 6.84375 8.05625 6.8875C8.08125 6.93125 8.1125 6.8875 8.11875 6.91875V6.925C8.11875 6.95 8.09375 6.975 8.08125 6.9875C8.06875 7 8.06875 7.0125 8.0625 7.04375C8.05625 7.075 8.03125 7.0875 8.03125 7.1125C8.03125 7.13125 8.025 7.15 8.01875 7.16875V7.175C8.0125 7.20625 8.0125 7.2375 8.01875 7.2625L8.03125 7.3125L8 7.3375C8 7.3375 7.96875 7.3 7.95 7.3125C7.93125 7.325 7.93125 7.325 7.95625 7.36875C7.98125 7.4125 8.0125 7.36875 8.01875 7.4C8.025 7.43125 7.99375 7.45625 7.98125 7.475C7.9625 7.49375 7.96875 7.50625 7.9625 7.53125C7.95625 7.5625 7.93125 7.56875 7.93125 7.59375C7.93125 7.6125 7.925 7.63125 7.91875 7.65L7.9 7.68125C7.86875 7.70625 7.84375 7.725 7.80625 7.74375C7.79375 7.75625 7.7625 7.8125 7.71875 7.79375C7.675 7.775 7.64375 7.80625 7.6625 7.85L7.6 7.81875L7.56875 7.88125L7.525 7.925H7.5125L7.45 7.89375L7.3875 7.925L7.39375 7.95625C7.35 7.9625 7.3125 7.96875 7.26875 7.96875C7.26875 8 7.3 8 7.325 8.04375C7.36875 8.09375 7.41875 8.14375 7.46875 8.18125C7.4375 8.2 7.4125 8.225 7.4 8.25625C7.36875 8.31875 7.4 8.25625 7.40625 8.35C7.35 8.35625 7.2875 8.3625 7.23125 8.38125V8.4L7.2 8.45L6.58125 8.44375L6.475 8.4L6.3125 8.36875L6.0375 8.35C5.9875 8.3375 5.94375 8.325 5.9 8.29375L5.64375 8.2875L5.49375 8.3L5.43125 8.2875L5.325 8.275C5.23125 8.2625 5.2 8.29375 5.19375 8.30625V8.31875L5.425 8.34375C5.15625 8.35625 5.00625 8.45 4.71875 8.45L4.625 8.4125L4.56875 8.39375C4.56875 8.39375 4.64375 8.35 4.56875 8.35C4.48125 8.34375 4.39375 8.35625 4.30625 8.3875V8.40625L4.29375 8.425L4.275 8.45C4.09375 8.45 3.94375 8.5 3.76875 8.49375H3.675L3.44375 8.58125L3.275 8.55L3.00625 8.65625C2.95625 8.64375 2.9125 8.63125 2.86875 8.60625C2.80625 8.60625 2.75 8.61875 2.69375 8.65L2.66875 8.5625C2.64375 8.525 2.625 8.48125 2.6125 8.4375L2.6 8.3L2.56875 8.01875C2.58125 7.99375 2.59375 7.9625 2.6 7.9375C2.6125 7.9125 2.6 7.88125 2.575 7.86875C2.56875 7.86875 2.56875 7.86875 2.5625 7.8625L2.525 7.975C2.56875 7.8375 2.575 7.69375 2.59375 7.5625ZM2.70625 8.65625L2.69375 8.6625V8.65625H2.70625ZM8.31875 24.2188C8.34375 24.2625 8.36875 24.225 8.38125 24.25C8.3875 24.275 8.35625 24.3063 8.34375 24.325C8.325 24.3438 8.33125 24.3563 8.325 24.3813C8.31875 24.4125 8.29375 24.4188 8.29375 24.4438C8.29375 24.4625 8.2875 24.4813 8.28125 24.5L8.2625 24.525C8.2375 24.5437 8.2125 24.5625 8.1875 24.575L8.175 24.5875C8.1625 24.6 8.14375 24.6375 8.1125 24.6437L8.13125 24.7C8.1375 24.7375 8.1375 24.775 8.13125 24.8125C8.125 24.8438 8.125 24.875 8.13125 24.9L8.14375 24.95L8.1125 24.975C8.1125 24.975 8.08125 24.9375 8.0625 24.95C8.04375 24.9625 8.04375 24.9625 8.06875 25.0063C8.09375 25.05 8.125 25.0125 8.13125 25.0375V25.0438C8.13125 25.0688 8.10625 25.0938 8.09375 25.1063C8.08125 25.125 8.08125 25.1375 8.075 25.1625C8.06875 25.1938 8.04375 25.2 8.04375 25.225C8.04375 25.2437 8.0375 25.2625 8.03125 25.2812V25.2875C8.025 25.3188 8.025 25.35 8.03125 25.375L8.04375 25.425L8.0125 25.45C8.0125 25.45 7.98125 25.4125 7.9625 25.425C7.94375 25.4375 7.94375 25.4375 7.96875 25.475C7.99375 25.5188 8.025 25.4813 8.03125 25.5063C8.0375 25.5312 8.00625 25.5625 7.99375 25.5812C7.975 25.6 7.98125 25.6125 7.975 25.6375C7.96875 25.6688 7.94375 25.675 7.94375 25.7C7.94375 25.7188 7.9375 25.7375 7.93125 25.7563L7.9125 25.7812C7.88125 25.8062 7.85625 25.825 7.81875 25.8438C7.80625 25.8563 7.775 25.9125 7.73125 25.8937C7.6875 25.875 7.65625 25.9062 7.675 25.95L7.6125 25.925L7.58125 25.9875L7.5375 26.0312H7.525L7.4625 26L7.40625 26.0312L7.4125 26.0625C7.36875 26.0688 7.33125 26.075 7.2875 26.075C7.2875 26.1063 7.31875 26.1062 7.34375 26.15C7.3875 26.2 7.4375 26.25 7.4875 26.2875C7.4875 26.2875 7.45 26.3 7.41875 26.3625C7.3875 26.425 7.41875 26.3625 7.425 26.4562C7.43125 26.4812 7.4375 26.5063 7.45625 26.525L7.01875 26.5063L6.925 26.4562L6.76875 26.4188L6.50625 26.3937C6.4625 26.3812 6.4125 26.3625 6.375 26.3375L6.1375 26.325L6 26.3375L5.94375 26.325L5.8375 26.3062C5.75 26.2937 5.725 26.3188 5.7125 26.3375V26.35L5.93125 26.3813C5.675 26.3875 5.53125 26.4688 5.2625 26.4625L5.175 26.4188L5.13125 26.4C5.13125 26.4 5.20625 26.3625 5.13125 26.3563C5.05 26.3438 4.9625 26.3563 4.8875 26.3813V26.4L4.875 26.4188L4.85625 26.4438C4.725 26.4438 4.6 26.4625 4.475 26.4688C4.4625 26.4375 4.45625 26.4 4.45 26.3625L4.375 26.375L4.3 26.35C4.3 26.35 4.34375 26.3125 4.3125 26.2938C4.28125 26.275 4.28125 26.275 4.21875 26.3062C4.1625 26.3375 4.25 26.3625 4.20625 26.375C4.15 26.375 4.09375 26.3625 4.05 26.3375C4.0125 26.325 3.975 26.3188 3.9375 26.3188C3.8875 26.3125 3.85625 26.2875 3.8125 26.275C3.7625 26.2687 3.75625 26.2688 3.71875 26.2563C3.7 26.25 3.68125 26.2375 3.66875 26.2313C3.625 26.1938 3.58125 26.1562 3.55 26.1125C3.525 26.0938 3.44375 26.0438 3.4625 26C3.48125 25.9562 3.44375 25.9188 3.3875 25.9188L3.43125 25.8625L3.3625 25.8062L3.31875 25.7375V25.725L3.36875 25.675L3.35625 25.6L3.325 25.5938C3.33125 25.5438 3.34375 25.5 3.3625 25.4562L3.4125 25.4062C3.31875 25.4 3.23125 25.375 3.15625 25.325C3.1125 25.2938 3.08125 25.25 3.05 25.2062L3.0125 25.1688C2.99375 25.1438 2.975 25.1187 2.95625 25.0938L2.9125 25.0375L2.90625 24.9688C2.90625 24.9688 2.9375 24.9813 2.95625 24.9688C2.9625 24.9625 2.9625 24.9625 2.9625 24.9562C2.9625 24.9375 2.9625 24.9312 2.9625 24.925C2.95 24.9125 2.93125 24.9 2.91875 24.8937C2.8625 24.8562 2.88125 24.9375 2.85 24.9125C2.825 24.8687 2.8125 24.8125 2.8125 24.7625C2.80625 24.725 2.8 24.6938 2.78125 24.6562C2.7625 24.6063 2.78125 24.5687 2.7625 24.5187C2.75 24.4875 2.74375 24.45 2.7375 24.4125V24.3438C2.74375 24.2875 2.75625 24.225 2.775 24.1688L2.78125 24.1375C2.78125 24.0813 2.7875 24.0187 2.8125 23.9625V23.95H2.85C3.30625 23.9875 3.9125 24 4.45625 24.0125L4.75 24C5.11875 23.975 5.21875 24.1688 5.21875 24.1688L5.45 24.1313L5.6625 24.1375C5.6625 24.1375 5.55625 24.1875 5.6625 24.1938C5.75 24.2063 5.84375 24.1938 5.925 24.1562C6.075 24.1125 5.8125 24.1062 5.925 24.0875C6.0875 24.075 6.25 24.0688 6.41875 24.075C6.5375 24.075 6.65625 24.0688 6.76875 24.0562L7.2 24.05L7.5125 24.025H7.7125L8.29375 24.0688H8.4V24.1063L8.4125 24.1562L8.3625 24.1812C8.35 24.1687 8.3375 24.1625 8.325 24.1562H8.3125C8.3 24.1625 8.3 24.1625 8.3 24.175C8.3 24.1937 8.30625 24.2062 8.31875 24.2188ZM15.2812 24.2188C15.3062 24.2625 15.3375 24.225 15.3438 24.25C15.35 24.275 15.3187 24.3063 15.3062 24.325C15.2875 24.3438 15.2938 24.3563 15.2875 24.3813C15.2812 24.4125 15.2563 24.4188 15.2563 24.4438C15.2563 24.4625 15.25 24.4813 15.2437 24.5L15.225 24.525C15.2 24.5437 15.175 24.5625 15.15 24.575L15.1375 24.5875C15.125 24.6 15.1062 24.6375 15.075 24.6437L15.0938 24.7C15.1 24.7375 15.1 24.775 15.0938 24.8125C15.0875 24.8438 15.0875 24.875 15.0938 24.9L15.1062 24.95L15.0813 24.975C15.0813 24.975 15.05 24.9375 15.0312 24.95C15.0125 24.9625 15.0125 24.9625 15.0375 25.0063C15.0625 25.05 15.0875 25.0125 15.1 25.0375V25.0438C15.0938 25.0688 15.0813 25.0938 15.0625 25.1063C15.0437 25.125 15.05 25.1375 15.0437 25.1625C15.0375 25.1938 15.0125 25.2 15.0125 25.225C15.0125 25.2437 15.0063 25.2625 15 25.2812V25.2875C14.9937 25.3188 14.9937 25.35 15 25.375L15.0125 25.425L14.9875 25.45C14.9875 25.45 14.9563 25.4125 14.9375 25.425C14.9187 25.4375 14.9188 25.4375 14.9438 25.475C14.9688 25.5188 14.9938 25.4813 15.0063 25.5063C15.0125 25.5312 14.9875 25.5625 14.9688 25.5812C14.95 25.6 14.9563 25.6125 14.95 25.6375C14.9437 25.6625 14.9187 25.675 14.9187 25.7C14.9187 25.7188 14.9125 25.7375 14.9062 25.7563L14.8875 25.7812C14.8562 25.8062 14.825 25.825 14.7937 25.8438C14.7812 25.8563 14.75 25.9125 14.7063 25.8937C14.6625 25.875 14.6312 25.9062 14.65 25.95L14.5875 25.9188L14.5562 25.9813L14.5125 26.025H14.5L14.4375 25.9937L14.3813 26.025L14.3875 26.0562C14.3438 26.0625 14.3062 26.0688 14.2625 26.0688C14.2625 26.1 14.2938 26.1 14.3188 26.1437C14.3625 26.1937 14.4125 26.2437 14.4688 26.2812C14.4375 26.2938 14.4125 26.325 14.4 26.3563C14.3937 26.3688 14.4 26.3687 14.3938 26.3687L14.3125 26.3875C14.125 26.4 13.9625 26.4188 13.8687 26.4375L13.6187 26.4937L12.3875 26.3813V26.4562L11.3562 26.3875L11.2437 26.375C10.9187 26.4312 10.5938 26.4625 10.2625 26.4688C10.2625 26.4688 10.475 26.4375 10.4062 26.4062H10.3938L10.1625 26.425C10.0438 26.4437 10.0063 26.45 10.0063 26.425V26.4062L9.94375 26.4125L10.0312 26.1812L10.025 26.0812L10.0875 26.1125H10.1L10.1375 26.0812L10.1625 26.0312L10.225 26.0625C10.2 26.0187 10.2312 26 10.275 26.0187C10.3187 26.0375 10.3375 25.9938 10.35 25.9813C10.3813 25.9688 10.4062 25.95 10.4312 25.9375L10.45 25.9188C10.45 25.9062 10.45 25.8875 10.45 25.875C10.45 25.85 10.475 25.85 10.475 25.825C10.4813 25.8 10.475 25.7938 10.4875 25.7812C10.5 25.7687 10.525 25.7437 10.5188 25.725C10.5063 25.7 10.4875 25.7313 10.4563 25.6938C10.425 25.6562 10.425 25.6562 10.4438 25.65C10.4625 25.6437 10.4937 25.675 10.4937 25.675L10.5188 25.6562L10.5 25.6125C10.4937 25.5875 10.4875 25.5625 10.4937 25.5375C10.4937 25.5063 10.4938 25.475 10.4875 25.4438L10.4563 25.3813C10.5188 25.3375 10.5813 25.2875 10.6438 25.2375L10.5813 25.2062L10.7125 25.075L10.7312 25.0625C10.7063 25 10.7 24.9312 10.7125 24.8625C10.7125 24.8625 10.725 24.9125 10.7563 24.9125V24.8625C10.7438 24.8312 10.7438 24.825 10.7688 24.8375L10.7875 24.85V24.8188C10.775 24.8 10.7625 24.7812 10.7563 24.7563L10.7625 24.7125V24.6125C10.775 24.6125 10.7875 24.6063 10.8 24.6C10.825 24.5875 10.775 24.5625 10.775 24.5625L10.7312 24.5812C10.7437 24.5375 10.7563 24.4937 10.7812 24.4562L10.8438 24.4625C10.8438 24.4625 10.875 24.4938 10.8813 24.4813C10.8875 24.4688 10.875 24.4312 10.875 24.4312L10.8687 24.4188L10.8938 24.425L10.9438 24.4937C11.2375 24.4125 11.5312 24.35 11.8313 24.3C11.9563 24.2812 12.1688 24.2562 12.4125 24.2375L12.575 24.225L12.8875 24.1875L13.1187 24.15L13.3313 24.1562C13.3313 24.1562 13.2688 24.1875 13.3 24.2C13.3125 24.2063 13.325 24.2125 13.3375 24.2125C13.375 24.2188 13.4125 24.2188 13.45 24.2125C13.5 24.2 13.55 24.1875 13.5938 24.175C13.7437 24.1312 13.4812 24.125 13.5938 24.1063C13.7563 24.0938 13.9187 24.0875 14.0875 24.1C14.2062 24.1 14.325 24.0938 14.4375 24.0812L14.8687 24.075L15.1812 24.05H15.35V24.075C15.3438 24.0938 15.3438 24.1188 15.35 24.1375L15.3625 24.1875L15.3313 24.2125C15.3188 24.2 15.3062 24.1938 15.2937 24.1875H15.2812C15.2688 24.1938 15.2688 24.1937 15.2688 24.2062C15.2688 24.1937 15.275 24.2062 15.2812 24.2188ZM22.5375 23.7062H22.525L22.4688 23.675L22.4125 23.7062L22.4188 23.7375C22.375 23.7437 22.3313 23.75 22.2875 23.75L22.225 23.725C22.2625 23.7938 22.2938 23.8687 22.3125 23.9438C22.3188 23.9813 22.3188 24.0125 22.3125 24.05V24.0812V24.1437L22.325 24.1938L22.2938 24.2062C22.2812 24.1937 22.2688 24.1875 22.2563 24.1812H22.2437C22.2312 24.1875 22.2313 24.1875 22.2313 24.2C22.2375 24.2125 22.2437 24.225 22.25 24.2375C22.275 24.2812 22.3 24.2437 22.3125 24.2687C22.3188 24.2937 22.2937 24.325 22.275 24.3438C22.2563 24.3625 22.2625 24.375 22.2563 24.4C22.25 24.4312 22.225 24.4375 22.225 24.4625C22.225 24.4812 22.2188 24.5 22.2125 24.5187L22.1938 24.5438C22.1688 24.5625 22.1437 24.5812 22.1125 24.5938L22.1 24.6063C22.0875 24.6188 22.0688 24.6562 22.0375 24.6625L22.0562 24.7188C22.0625 24.7563 22.0625 24.7937 22.0562 24.8312C22.05 24.8625 22.05 24.8938 22.0562 24.9188L22.0688 24.9688L22.0438 24.9937C22.0438 24.9937 22.0125 24.9562 21.9937 24.9688C21.975 24.9813 21.975 24.9812 22 25.025C22.025 25.0688 22.05 25.0312 22.0625 25.0562V25.0625C22.0562 25.0875 22.0437 25.1125 22.025 25.125C22.0063 25.1437 22.0125 25.1562 22.0063 25.1812C22 25.2125 21.975 25.2188 21.975 25.2437C21.975 25.2625 21.9688 25.2812 21.9625 25.3V25.3062C21.9562 25.3375 21.9562 25.3687 21.9625 25.3937L21.975 25.4438L21.95 25.4688C21.95 25.4688 21.9187 25.4312 21.9 25.4438C21.8813 25.4563 21.8813 25.4562 21.9062 25.4937C21.9312 25.5375 21.9562 25.5 21.9688 25.525C21.975 25.55 21.95 25.5813 21.9312 25.6C21.9125 25.6187 21.9188 25.6313 21.9125 25.6562C21.9062 25.6875 21.8813 25.6938 21.8813 25.7188C21.8813 25.7375 21.875 25.7563 21.8687 25.775L21.85 25.8C21.8188 25.825 21.7875 25.8438 21.7563 25.8625C21.7437 25.875 21.7125 25.9312 21.6688 25.9125C21.625 25.8938 21.5938 25.925 21.6125 25.9688L21.5438 25.9438L21.5125 26.0063L21.4688 26.05H21.4562L21.3937 26.0187L21.3375 26.05L21.3438 26.0812C21.3 26.0875 21.2625 26.0938 21.2188 26.0938C21.2188 26.125 21.25 26.125 21.275 26.1688C21.3188 26.2188 21.3687 26.2687 21.425 26.3062C21.3937 26.3188 21.3688 26.35 21.3563 26.3813C21.35 26.3938 21.3563 26.3937 21.3563 26.4C21.0625 26.4187 20.8625 26.4438 20.8625 26.4438L18.8625 26.5187L18.3813 26.575V26.5063L18.3438 26.5L18.0688 26.4813H17.7625V26.4125C17.6188 26.45 17.4313 26.4375 17.4188 26.3937C17.4062 26.35 17.1125 26.35 17.0312 26.3438L16.9375 26.3312L16.9875 26.1875L16.9813 26.0875L17.0438 26.1187H17.0562L17.0938 26.0875L17.1187 26.0375L17.1812 26.0688C17.1562 26.025 17.1813 26.0063 17.2313 26.025C17.2812 26.0437 17.2937 26 17.3062 25.9875C17.3375 25.975 17.3625 25.9563 17.3875 25.9438L17.4062 25.925C17.4062 25.9125 17.4062 25.8938 17.4062 25.8813C17.4062 25.8563 17.4312 25.8562 17.4312 25.8312C17.4312 25.8062 17.4312 25.8 17.4438 25.7875C17.4563 25.775 17.4813 25.75 17.475 25.7313C17.4625 25.7063 17.4438 25.7375 17.4125 25.7C17.3813 25.6625 17.3813 25.6625 17.4 25.6562C17.4187 25.65 17.45 25.6812 17.45 25.6812L17.475 25.6625L17.4562 25.6187C17.45 25.5938 17.4438 25.5688 17.45 25.5438C17.45 25.5125 17.45 25.4813 17.4375 25.45L17.4062 25.3875C17.4688 25.3438 17.5312 25.2937 17.5938 25.2437L17.5312 25.2125L17.6625 25.0812L17.6812 25.0688C17.6562 25.0063 17.65 24.9375 17.6625 24.8687C17.6625 24.8687 17.675 24.9188 17.7062 24.9188V24.8687C17.6937 24.8375 17.7 24.8312 17.7188 24.8438L17.7437 24.8563V24.825C17.7312 24.8063 17.7188 24.7875 17.7125 24.7625L17.7188 24.7188V24.6187C17.7313 24.6187 17.7437 24.6125 17.7563 24.6063C17.7812 24.5938 17.7313 24.5688 17.7313 24.5688L17.6875 24.5875C17.7 24.5437 17.7125 24.5 17.7375 24.4625L17.8 24.4688C17.8 24.4688 17.8312 24.5 17.8375 24.4875C17.8438 24.475 17.8312 24.4375 17.8312 24.4375L17.8125 24.425L17.775 24.4C17.7937 24.3687 17.8125 24.3438 17.8375 24.3188L17.8875 24.325L17.925 24.3125L17.9625 24.2812C17.9812 24.2812 18 24.2812 18.025 24.2875L18.0562 24.2563V24.2188H18.0688L18.0875 24.2062C18.1062 24.2 18.0875 24.1813 18.0688 24.1688H18.0625L18.0187 24.1875C18.0312 24.1437 17.9688 24.0813 17.9937 24.0438L18.0375 24.05H18.0625C18.0625 24.05 18.0938 24.0813 18.1 24.0688C18.1063 24.0562 18.0938 24.0187 18.0938 24.0187L18.075 24.0063L18.0625 23.9937L18.0438 23.975C18.05 23.9563 18.05 23.9437 18.0438 23.925H18.15C18.15 23.925 18.0437 23.975 18.15 23.9813C18.2375 23.9938 18.3313 23.9813 18.4125 23.9438C18.5625 23.9 18.3 23.8937 18.4125 23.875H18.4562C18.6062 23.8687 18.7563 23.8687 18.9062 23.875C19.025 23.875 19.1438 23.8688 19.2563 23.8563L19.6875 23.85L20 23.825H20.0312H20.0812C20.45 23.7938 20.5562 23.775 20.5562 23.775L20.7875 23.7375L21 23.7437C21 23.7437 20.8937 23.7937 21 23.8C21.0875 23.8125 21.1813 23.8 21.2625 23.7625C21.4125 23.7188 21.15 23.7125 21.2625 23.6938C21.425 23.6812 21.5875 23.675 21.75 23.6875C21.8687 23.6875 21.9875 23.6813 22.1 23.6688L22.5312 23.6625H22.5875L22.5375 23.7062ZM29.5063 24.1125L29.5 24.125L29.475 24.2125L29.4688 24.3062L29.4062 24.2938C29.4438 24.3438 29.425 24.4 29.375 24.4C29.325 24.4 29.3188 24.4813 29.3125 24.5063C29.3 24.525 29.2625 24.575 29.2437 24.6187L29.2313 24.6562C29.2313 24.675 29.2312 24.7 29.2375 24.7188C29.2375 24.75 29.2188 24.7687 29.2188 24.8C29.2188 24.8312 29.2188 24.8438 29.2125 24.8687C29.2062 24.8937 29.175 24.9312 29.1875 24.9562C29.2 24.9812 29.2188 24.9375 29.25 24.975C29.2812 25.0125 29.2812 25.0187 29.2625 25.0312C29.2438 25.05 29.2062 25.0125 29.2062 25.0125L29.1812 25.05L29.2 25.1C29.2063 25.1313 29.2125 25.1625 29.2062 25.1938C29.2 25.2313 29.2 25.2687 29.2062 25.3125L29.2313 25.3875C29.1625 25.45 29.0875 25.5063 29.0063 25.5562L29.0625 25.6C29.0125 25.6438 28.95 25.675 28.8937 25.7062H28.8687C28.8875 25.7937 28.7875 25.9062 28.7875 25.9062C28.7875 25.9062 28.8 25.8562 28.775 25.8375L28.75 25.8875C28.7375 25.9188 28.7313 25.925 28.7188 25.9062L28.7062 25.8875L28.6875 25.9188C28.6875 25.9438 28.6875 25.9688 28.675 25.9937L28.6313 26.0312C28.6063 26.0625 28.575 26.0938 28.5375 26.1187C28.525 26.1125 28.5063 26.1063 28.4937 26.1063C28.4625 26.1063 28.475 26.1562 28.475 26.1562L28.5375 26.1625C28.4813 26.2 28.4188 26.225 28.35 26.2437L28.3 26.1938C28.3 26.1938 28.3062 26.15 28.2875 26.15C28.2625 26.15 28.2375 26.1688 28.2313 26.1938V26.2125V26.2563C28.175 26.2688 28.1187 26.275 28.0625 26.275L28.025 26.2313L27.975 26.2062L27.8937 26.1938C27.875 26.1812 27.8625 26.1625 27.85 26.1437H27.7812L27.7375 26.1625L27.7188 26.15L27.6875 26.1375C27.6625 26.1313 27.6562 26.1562 27.65 26.175V26.1875L27.7188 26.2125C27.6437 26.2312 27.6 26.3188 27.5125 26.325L27.4875 26.2875L27.4688 26.2687C27.4688 26.2687 27.4875 26.225 27.4688 26.225C27.4375 26.225 27.4062 26.2375 27.3875 26.2625V26.2812V26.3V26.325C27.3563 26.325 27.325 26.3375 27.3 26.35L27.0312 26.325H26.3438H26.25C25.925 26.375 25.5875 26.3687 25.2625 26.3188C25.2625 26.3188 25.7375 26.2125 25.0187 26.2313C24.6437 26.2438 24.2687 26.2812 23.9 26.35L23.9688 26.1688L23.9625 26.0688L24.025 26.1H24.0375L24.075 26.0688L24.1 26.0187L24.1625 26.05C24.1375 26.0062 24.1625 25.9875 24.2062 26.0063C24.25 26.025 24.275 25.9813 24.2812 25.9688C24.3125 25.9562 24.3375 25.9437 24.3625 25.925L24.3813 25.9062C24.3875 25.8937 24.3875 25.875 24.3875 25.8625C24.3875 25.8375 24.4125 25.8375 24.4125 25.8125C24.4125 25.7875 24.4125 25.7812 24.425 25.7687C24.4375 25.7562 24.4625 25.7312 24.4562 25.7125C24.45 25.6875 24.425 25.7188 24.3937 25.6812C24.3625 25.6437 24.3625 25.6438 24.3813 25.6375C24.4 25.6313 24.4312 25.6625 24.4312 25.6625L24.4562 25.6437L24.4375 25.6C24.4312 25.575 24.425 25.55 24.4312 25.525C24.4312 25.4937 24.4313 25.4625 24.4188 25.4312L24.3875 25.3687C24.4563 25.325 24.5188 25.275 24.575 25.225L24.5125 25.1938L24.6437 25.0625L24.6625 25.05C24.6375 24.9875 24.6312 24.9188 24.6437 24.85C24.6437 24.85 24.6562 24.9 24.6875 24.9V24.85C24.675 24.8188 24.675 24.8125 24.7 24.825L24.725 24.8375V24.8062C24.7125 24.7875 24.7 24.7687 24.6938 24.7437L24.7 24.7V24.6C24.7125 24.6 24.725 24.5938 24.7375 24.5875C24.7625 24.575 24.7125 24.55 24.7125 24.55L24.6688 24.5688C24.6813 24.525 24.6938 24.4813 24.7188 24.4438L24.7812 24.45C24.7812 24.45 24.8125 24.4813 24.8188 24.4688C24.825 24.4562 24.8125 24.4188 24.8125 24.4188L24.7938 24.4062L24.7563 24.3813C24.775 24.35 24.7938 24.325 24.8188 24.3L24.8687 24.3062L24.9062 24.2938L24.9438 24.2625C24.9625 24.2625 24.9813 24.2625 25.0063 24.2687L25.0375 24.2375V24.1938H25.0562L25.0625 24.1812C25.0812 24.175 25.0625 24.1562 25.0438 24.1437H25.0375L24.9937 24.1625C25.0063 24.1187 24.9438 24.0562 24.9688 24.0187L25.0125 24.025H25.0375C25.0375 24.025 25.0688 24.0563 25.075 24.0438C25.0813 24.0312 25.0688 23.9937 25.0688 23.9937L25.05 23.9813L25.0375 23.9688L25.0125 23.95C25.0312 23.925 25 23.8813 25.0187 23.8563L25.0312 23.8438L24.975 23.775L25.3188 23.7875L25.3625 23.7938V23.8625L25.6688 23.8937L25.8 23.8687C25.9437 23.9 26.0812 23.9312 26.2062 23.9688C26.3625 23.95 26.2812 23.925 26.4375 23.8813C26.5625 23.8375 26.6812 23.7687 26.7812 23.6812C26.975 23.7 27.1687 23.7063 27.3625 23.7C27.7812 23.6938 27.3625 23.7 27.8438 23.6437C28.325 23.5875 28.1875 23.5 28.6063 23.5312C28.8188 23.55 29.0312 23.5438 29.2437 23.5063C29.325 23.475 29.4 23.4438 29.4875 23.4188C29.5062 23.5938 29.5187 23.7687 29.5312 23.9312L29.575 24.0938L29.5063 24.1125ZM29.725 17.3125C29.7125 17.4687 29.6812 17.6375 29.675 17.7062C29.6687 17.775 29.675 18.0375 29.625 18.05C29.575 18.0625 29.5625 18.225 29.6063 18.35H29.5375V18.6187L29.5187 18.8562L29.5125 18.8875H29.4375L29.4 19.1L29.4188 19.1875C29.3875 19.2812 29.3563 19.3687 29.3125 19.4625C29.325 19.5688 29.3562 19.5125 29.4 19.6187C29.4438 19.7125 29.5125 19.7875 29.5938 19.85C29.5688 19.9813 29.5625 20.1125 29.5688 20.2437C29.5688 20.5063 29.5687 20.3 29.6125 20.5312C29.6062 20.5875 29.5938 20.6375 29.5875 20.6938L29.5375 20.8375L29.5 21.1063L29.4875 21.15C29.5687 21.2563 29.4438 21.5375 29.4438 21.5375C29.4438 21.5375 29.3563 21.3563 29.35 21.6375C29.35 21.6688 29.35 21.6938 29.3563 21.725L28.3625 21.6688L27.975 21.6187L27.2437 21.5812L27.1187 21.575C26.7625 21.6063 26.4062 21.5938 26.0625 21.525C26.0625 21.525 26.5688 21.45 25.7938 21.4438C25.3375 21.4375 24.8875 21.475 24.4375 21.5562C23.8813 21.5875 23.3188 21.5813 22.7625 21.5438C22.2875 21.5063 21.8125 21.5125 21.3438 21.5688L19.2062 21.65L18.6938 21.7125V21.6437L18.6562 21.6375L18.3625 21.625L18.0375 21.6313V21.5625C17.8875 21.6063 17.6875 21.5938 17.675 21.5438C17.6625 21.5 17.3438 21.5063 17.2563 21.5L16.7812 21.4562H16.6187L16.3625 21.475L16.0125 21.4813C15.9188 21.4938 15.8188 21.5 15.725 21.4937C15.5938 21.4812 15.4563 21.4875 15.3188 21.5C15.225 21.5187 15.4438 21.525 15.3188 21.5688C15.2563 21.6063 15.1812 21.6188 15.1062 21.6063C15.0188 21.5938 15.1062 21.55 15.1062 21.55L14.9312 21.5375L14.7437 21.575C14.6125 21.6 14.4875 21.6125 14.3562 21.625C14.1562 21.6437 13.9813 21.6687 13.8813 21.6812L13.6187 21.7437L12.3 21.6688V21.7437L11.2 21.7062L11.075 21.6938C10.7312 21.7625 10.3875 21.8 10.0375 21.8188C10.0375 21.8188 10.2563 21.7812 10.1875 21.7563H10.175L9.93125 21.7875C9.80625 21.8125 9.7625 21.8188 9.7625 21.7875V21.7625L9.59375 21.7812C9.51875 21.8062 9.44375 21.825 9.3625 21.8438L9.1 21.8625L8.5625 21.9125L8.39375 21.8875C8.26875 21.875 8.25625 21.9312 8.25625 21.9312L8.4875 21.9562L7.65625 21.9875L7.51875 21.9312C7.51875 21.9312 7.59375 21.8875 7.51875 21.8875C7.43125 21.8813 7.34375 21.8937 7.25625 21.925V21.9438L7.21875 21.9937L6.6 21.9875L6.5 21.9375L6.33125 21.9062L6.05625 21.8875C6.00625 21.8813 5.9625 21.8625 5.91875 21.8312L5.6625 21.825L5.5125 21.8375L5.45 21.825L5.34375 21.8125C5.25 21.8 5.21875 21.8312 5.2125 21.8438V21.8563L5.44375 21.8813C5.175 21.8938 5.025 21.9812 4.7375 21.9875L4.64375 21.95L4.6 21.9312C4.6 21.9312 4.675 21.8875 4.6 21.8875C4.5125 21.8813 4.425 21.8937 4.3375 21.925V21.9438L4.325 21.9625L4.3 21.9875C4.11875 21.9875 3.96875 22.0375 3.79375 22.0312H3.7L3.46875 22.1187L3.3 22.0875L3.03125 22.1938C2.98125 22.1812 2.93125 22.1625 2.89375 22.1375C2.76875 22.1313 2.66875 22.225 2.59375 22.2188H2.54375L2.53125 22.1875L2.49375 22.0812L2.50625 21.9875C2.50625 21.9875 2.55 22.0375 2.5625 21.9875C2.575 21.9375 2.575 21.9438 2.53125 21.875C2.4875 21.8062 2.48125 21.925 2.4625 21.875C2.45 21.8062 2.45 21.7375 2.4625 21.6625C2.4625 21.6125 2.4625 21.5625 2.45 21.5125C2.4375 21.4375 2.45625 21.3938 2.45 21.325C2.44375 21.2812 2.4375 21.2375 2.43125 21.1938V21.125C2.44375 21.025 2.475 20.9125 2.48125 20.875C2.4875 20.8375 2.48125 20.6625 2.53125 20.6562C2.58125 20.65 2.59375 20.5438 2.55 20.4688H2.61875V20.3L2.6375 20.15L2.64375 20.1313H2.7125L2.75 20.0063L2.73125 19.95C2.7625 19.8938 2.8 19.8312 2.8375 19.7812C2.825 19.7125 2.79375 19.75 2.75 19.675C2.7 19.6125 2.63125 19.5562 2.55625 19.5187C2.575 19.4375 2.5875 19.3562 2.58125 19.2687C2.58125 19.2125 2.58125 19.1938 2.58125 19.1875L2.625 18.7625L2.6375 18.6937C2.60625 18.4875 2.63125 18.275 2.7 18.0812C2.7 18.0812 2.78125 18.3812 2.79375 17.9312C2.8 17.6687 2.76875 17.4 2.7 17.1437C2.68125 16.8187 2.69375 16.4937 2.74375 16.175C2.79375 15.9062 2.79375 15.625 2.74375 15.3562L2.6875 14.125L2.6375 13.825H2.70625L2.7125 13.8062L2.73125 13.6375V13.45H2.8C2.75625 13.3625 2.775 13.2437 2.81875 13.2375C2.8625 13.2312 2.8625 13.05 2.86875 12.9937C2.875 12.9437 2.90625 12.825 2.91875 12.7187V12.625C2.91875 12.5687 2.90625 12.5312 2.9 12.475C2.8875 12.4 2.90625 12.35 2.9 12.2687C2.8875 12.2125 2.8875 12.1562 2.8875 12.1C2.9 12.025 2.9 11.9437 2.8875 11.8687C2.86875 11.8125 2.8625 11.9437 2.81875 11.8687C2.775 11.7937 2.775 11.7937 2.7875 11.7437C2.8 11.6937 2.84375 11.7437 2.84375 11.7437L2.85625 11.6375L2.81875 11.5312C2.8 11.4562 2.7875 11.3812 2.775 11.3062C2.7625 11.2125 2.74375 11.1187 2.725 11.0312L2.66875 10.8812C2.6875 10.7375 2.70625 10.5812 2.725 10.4312L2.80625 10.4375C3.2625 10.475 3.86875 10.4875 4.4125 10.5L4.7125 10.4687C5.08125 10.4437 5.18125 10.6375 5.18125 10.6375L5.4125 10.6L5.625 10.6062C5.625 10.6062 5.51875 10.6562 5.625 10.6625C5.7125 10.675 5.80625 10.6625 5.8875 10.625C6.0375 10.5812 5.775 10.575 5.8875 10.5562C6.05 10.5437 6.2125 10.5375 6.38125 10.5437C6.5 10.5437 6.61875 10.5375 6.73125 10.525L7.1625 10.5187L7.475 10.4937H7.675L8.25625 10.5375C8.3625 10.5375 8.75 10.5375 8.7625 10.5812C8.78125 10.625 9.025 10.6375 9.20625 10.5937V10.6625L9.60625 10.6562L9.9625 10.6687L10.0063 10.675V10.75L10.3125 10.7812L10.4438 10.7562C10.5938 10.7875 10.7438 10.825 10.8625 10.8625L10.9125 10.9312C11.2063 10.85 11.5 10.7875 11.8 10.7375C11.925 10.7187 12.1375 10.6937 12.3813 10.675L12.5437 10.6625L12.8562 10.625L13.0875 10.5875L13.3 10.5937C13.3 10.5937 13.2375 10.625 13.2688 10.6375C13.2812 10.6437 13.2937 10.65 13.3062 10.65C13.3438 10.6562 13.3812 10.6562 13.4187 10.65C13.4688 10.6375 13.5188 10.625 13.5625 10.6125C13.7125 10.5687 13.45 10.5625 13.5625 10.5437C13.725 10.5312 13.8875 10.525 14.0562 10.5375C14.175 10.5375 14.2937 10.5312 14.4062 10.5187L14.8375 10.5125L15.15 10.4875H15.35L15.8438 10.525L15.9312 10.5312C16.0875 10.5312 16.2437 10.5375 16.3937 10.5562L16.6313 10.5125C16.7563 10.4937 16.9688 10.4687 17.2125 10.45C17.5812 10.4187 17.6875 10.4 17.6875 10.4L17.9188 10.3625L18.1375 10.375C18.1375 10.375 18.0312 10.425 18.1375 10.4312C18.225 10.4437 18.3188 10.4312 18.4 10.3937C18.55 10.35 18.2875 10.3437 18.4 10.325H18.4438C18.5938 10.3187 18.7437 10.3187 18.8937 10.325C19.0125 10.325 19.1313 10.3187 19.2437 10.3062L19.675 10.3L19.9875 10.275H20.0187H20.0688C20.4375 10.2437 20.5438 10.225 20.5438 10.225L20.775 10.1875L20.9875 10.1937C20.9875 10.1937 20.8812 10.2437 20.9875 10.25C21.075 10.2625 21.1688 10.25 21.25 10.2125C21.4 10.1687 21.1375 10.1625 21.25 10.1437C21.4125 10.1312 21.575 10.125 21.7375 10.1375C21.8562 10.1375 21.975 10.1312 22.0875 10.1187L22.5187 10.1125L22.8312 10.0875H23.0312L23.6125 10.1312C23.7188 10.1312 24.1 10.1312 24.1187 10.175C24.1375 10.2187 24.3813 10.2312 24.5625 10.1875V10.2437L24.9625 10.2375L25.3188 10.25L25.3625 10.2562V10.325L25.6688 10.3562L25.8 10.3312C25.9437 10.3625 26.0812 10.3937 26.2062 10.4312C26.3625 10.4125 26.2812 10.3875 26.4375 10.3437C26.5625 10.3 26.6812 10.2312 26.7812 10.1375C26.975 10.1562 27.1687 10.1625 27.3625 10.1562C27.7812 10.15 27.3625 10.1562 27.8438 10.1C28.325 10.0437 28.1875 9.95625 28.6063 9.9875C28.8188 10.0062 29.0312 10 29.2437 9.9625C29.2625 9.95625 29.275 9.95 29.2938 9.94375C29.3 10 29.3125 10.0625 29.3125 10.1312L29.325 10.2375L29.3563 10.45L29.3937 10.6062L29.3813 10.75C29.3813 10.75 29.35 10.7062 29.3375 10.725C29.3312 10.7312 29.325 10.7375 29.325 10.75C29.3188 10.775 29.3188 10.8 29.325 10.825C29.3313 10.8562 29.3438 10.8937 29.3625 10.925C29.4062 11.0312 29.4125 10.85 29.4312 10.925C29.4438 11.0375 29.4438 11.1437 29.4312 11.2562C29.425 11.3375 29.4312 11.4125 29.4438 11.4937C29.4563 11.6062 29.4375 11.6812 29.4438 11.7812L29.4625 11.9937V12.125C29.45 12.2437 29.4313 12.375 29.4188 12.4562L29.4125 12.5187C29.4125 12.625 29.4 12.7312 29.3813 12.8312L29.425 12.9937C29.4375 13.075 29.4625 13.2187 29.475 13.3875C29.4813 13.4937 29.4937 13.6 29.5187 13.7062L29.5562 13.8625L29.5438 14.0062C29.5438 14.0062 29.5 13.9312 29.4875 14.0062C29.475 14.0812 29.475 14.0812 29.5187 14.1812C29.5625 14.2875 29.5688 14.1062 29.5875 14.1812V14.2125C29.5938 14.3125 29.5938 14.4125 29.5875 14.5125C29.5812 14.5937 29.5875 14.675 29.6 14.75C29.6125 14.8625 29.5938 14.9375 29.6 15.0375L29.6187 15.25V15.2687V15.3C29.625 15.4062 29.6375 15.5125 29.6625 15.6187L29.7 15.775L29.6875 15.9187C29.6875 15.9187 29.6438 15.8437 29.6313 15.9187C29.6187 15.9937 29.6187 15.9937 29.6625 16.0937C29.7063 16.1937 29.7125 16.0187 29.7313 16.0937C29.7438 16.2062 29.7438 16.3125 29.7313 16.425C29.725 16.5062 29.7312 16.5875 29.7437 16.6625C29.75 16.775 29.7375 16.85 29.7437 16.95L29.7625 17.1625V17.3125H29.725Z" fill="#0041E6"/>
<path d="M21.7375 15.0875C21.7063 15.0437 21.7313 15.15 21.6688 15.1C21.6063 15.05 21.6 15.05 21.6 15.0062C21.5938 14.9625 21.6625 14.9937 21.6625 14.9937C21.6563 14.9625 21.65 14.9312 21.6313 14.9L21.5438 14.8125C21.4813 14.7375 21.4 14.675 21.3125 14.625C21.175 14.5312 21.0375 14.45 20.9625 14.4062L20.7375 14.3062C20.6625 14.1875 20.4438 14.0937 20.2625 14L19.6563 13.6937L19.6063 13.75L19.1125 13.5062L18.8563 13.3812L18.7063 13.3L18.65 13.2625C18.4625 13.2437 18.275 13.2062 18.1 13.1437C18.1 13.1437 18.2188 13.1562 18.2 13.1187L18.0688 13.0875C18 13.0875 17.975 13.075 17.9875 13.05L18 13.025L17.9125 13.0062C17.8688 13.0125 17.825 13.0125 17.775 13.0062L17.6438 12.9625L17.3625 12.8875C17.3375 12.8625 17.3188 12.8437 17.2875 12.825C17.2688 12.8062 17.2313 12.8062 17.2125 12.825L17.2063 12.8312L17.3125 12.9062C17.175 12.8562 17.0375 12.8062 16.8938 12.75L16.85 12.6625C16.85 12.6625 16.9063 12.6437 16.8688 12.625C16.825 12.6 16.775 12.5875 16.7313 12.6L16.725 12.6187L16.6875 12.65L16.3875 12.5062L16.3563 12.4437L16.2875 12.3812L16.1625 12.3062C16.1438 12.2812 16.125 12.2562 16.1188 12.2312L16 12.1687L15.925 12.15L15.9 12.125L15.8563 12.0875C15.8375 12.0687 15.8 12.0687 15.775 12.0875L15.7688 12.0937L15.875 12.1687C15.7375 12.1187 15.6313 12.1625 15.4875 12.1062L15.4375 12.0625L15.425 12.0312C15.425 12.0312 15.4813 12.0125 15.4438 11.9937C15.4 11.9687 15.35 11.9562 15.3 11.9687L15.2938 11.9875L15.2813 12L15.2625 12.0187C15.175 11.9812 15.0813 11.9875 15 11.9437L14.9563 11.9187L14.8063 11.95L14.7375 11.8875L14.5625 11.925C14.5438 11.9 14.525 11.875 14.5188 11.8437C14.4625 11.8125 14.375 11.8687 14.3375 11.85L14.2563 11.8062C14.175 11.875 14.2188 11.7187 14.175 11.8C14.175 11.8 14.125 11.7437 13.925 11.8C13.7188 11.8562 13.7125 11.8812 13.7125 11.8812C13.675 11.8937 13.6438 11.9125 13.6188 11.9375C13.5438 11.9187 13.3625 11.85 13.325 11.925C13.3 11.975 13.2938 12.0375 13.3063 12.0937C13.3063 12.0937 13.1313 12.0437 13.0813 12.15L13.0375 12.2625C12.9875 12.4187 12.9563 12.575 12.9313 12.7375L12.95 12.8312C12.9688 12.9437 12.7688 12.9625 12.7688 12.9625L12.8 13.0312L12.7875 13.0937C12.7875 13.0937 12.7438 13.0625 12.7313 13.0937C12.7188 13.125 12.7188 13.125 12.7625 13.175C12.8063 13.225 12.8125 13.1437 12.8313 13.175C12.8438 13.225 12.8438 13.275 12.8313 13.3187C12.825 13.3562 12.8313 13.3875 12.8375 13.425C12.8438 13.475 12.825 13.5062 12.8375 13.55C12.8438 13.5812 12.85 13.6125 12.85 13.6437L12.825 13.7062C12.8125 13.775 12.775 13.85 12.7688 13.8812C12.7625 13.9125 12.7563 14.025 12.7125 14.0312C12.6688 14.0375 12.65 14.1062 12.6875 14.1625H12.6188V14.2812L12.6 14.3875L12.5938 14.4H12.5188L12.4813 14.4937L12.5 14.5312C12.4688 14.575 12.4313 14.6187 12.3875 14.6562L12.3188 14.6687C12.3875 14.75 12.45 14.8437 12.4938 14.9375C12.5125 14.9937 12.5313 15.05 12.5438 15.1125L12.5563 15.1625C12.5625 15.1937 12.5688 15.225 12.5875 15.2562L12.6188 15.325L12.6063 15.3875C12.6063 15.3875 12.575 15.3687 12.5625 15.375C12.5563 15.375 12.5563 15.3812 12.55 15.3875C12.5438 15.4062 12.5438 15.4125 12.55 15.425C12.5625 15.4437 12.575 15.4562 12.5875 15.4687C12.6313 15.5125 12.6375 15.4312 12.6563 15.4687C12.6688 15.5187 12.6688 15.5687 12.6563 15.6187C12.65 15.6562 12.6563 15.6875 12.6688 15.725C12.675 15.775 12.6563 15.8062 12.6688 15.8562C12.675 15.8875 12.6813 15.9187 12.6875 15.95V16.0062C12.675 16.0563 12.6625 16.1062 12.6438 16.1562L12.6375 16.1812C12.6313 16.2062 12.6313 16.2875 12.6063 16.3187L12.65 16.3875C12.6688 16.4438 12.6875 16.5 12.7 16.5625C12.7063 16.6125 12.7188 16.6562 12.7375 16.7062L12.775 16.775L12.7625 16.8375C12.7625 16.8375 12.7188 16.8062 12.7063 16.8375C12.6938 16.8687 12.6938 16.8688 12.7375 16.9188C12.7813 16.9625 12.7875 16.8813 12.8063 16.9188V16.9312C12.8125 16.975 12.8125 17.0187 12.8063 17.0625C12.8 17.1 12.8063 17.1313 12.8188 17.1688C12.8313 17.2188 12.8125 17.25 12.8188 17.3L12.8375 17.3937V17.4V17.4125C12.8438 17.4625 12.8625 17.5062 12.8813 17.5562L12.9188 17.625L12.9063 17.6875C12.9063 17.6875 12.8625 17.6562 12.85 17.6875C12.8375 17.7187 12.8375 17.7188 12.8813 17.7625C12.925 17.8063 12.9313 17.725 12.95 17.7625C12.9625 17.8125 12.9625 17.8625 12.95 17.9062C12.95 17.9437 12.95 17.975 12.9625 18.0125C12.975 18.0625 12.9563 18.0938 12.9625 18.1375C12.9688 18.1688 12.975 18.2 12.9813 18.2313V18.2875C12.9688 18.3562 12.9375 18.4312 12.9313 18.4625C12.925 18.4937 12.9313 18.6062 12.8813 18.6125C12.8313 18.6187 12.8188 18.6937 12.8625 18.7437H12.7938V18.8625L12.775 18.9687L12.7688 18.9813H12.6938L12.6625 19.075L12.6813 19.1125C12.65 19.1562 12.6125 19.2 12.575 19.2375C12.5938 19.2812 12.6188 19.2562 12.6625 19.3C12.7188 19.3437 12.7875 19.375 12.8625 19.3937C12.8438 19.45 12.8375 19.5125 12.8438 19.5687C12.8438 19.6937 12.8438 19.5687 12.9 19.7125C12.9563 19.8562 13.0375 19.8125 13.0063 19.9375C12.9875 20 12.9938 20.0687 13.025 20.125C13.0563 20.1437 13.0875 20.1687 13.1125 20.2C13.1375 20.225 13.1625 20.25 13.1938 20.2687C13.1938 20.2687 13.2125 20.3187 13.3438 20.3062C13.475 20.2937 13.3125 20.375 13.3875 20.3625C13.5813 20.4 13.7813 20.3875 13.975 20.3312C14.0938 20.3062 14.0938 20.275 14.1563 20.275C14.1563 20.2937 14.1563 20.3 14.1625 20.3187C14.1813 20.4125 14.1438 20.4 14.2875 20.45C14.3688 20.4437 14.4438 20.4437 14.525 20.45C14.5813 20.4937 14.65 20.3687 14.6688 20.4562C14.8563 20.3937 15.0563 20.3312 15.2625 20.2562L15.4813 20.2062L15.8688 20.0625L15.9375 20.0375C16.0438 19.8937 16.4875 19.8125 16.4875 19.8125C16.4875 19.8125 16.2688 20.025 16.6625 19.825C16.8938 19.7125 17.1 19.5562 17.2813 19.3687C17.5438 19.1937 17.825 19.0438 18.1188 18.9188C18.3688 18.8188 18.5938 18.6688 18.7875 18.4813L20.0875 17.5125L20.4375 17.1812L20.5063 17.2125L20.5438 17.1937C20.625 17.1437 20.7063 17.0875 20.7813 17.025L20.9938 16.8125L21.0688 16.8375C21.125 16.725 21.2688 16.6063 21.3313 16.6063C21.4313 16.6063 21.5063 16.4062 21.55 16.35C21.5938 16.2937 21.6938 16.1687 21.7688 16.05L21.8063 15.9437C21.8188 15.8875 21.8188 15.8375 21.825 15.7812C21.8375 15.7 21.8438 15.6187 21.85 15.5375L21.8313 15.3125C21.7938 15.2625 21.775 15.175 21.7375 15.0875ZM14.9688 14.2562L15 14.275L14.9813 14.2875L14.9688 14.275V14.2562ZM18.3063 15.85L18.2875 15.8625C18.2688 15.8875 18.2375 15.9062 18.2063 15.9062L18.2563 15.925C18.275 15.9375 18.2813 15.9562 18.275 15.975C18.2688 15.9938 18.2688 16.0062 18.275 16.025L18.2875 16.0562L18.2438 16.075C18.225 16.0625 18.2 16.0562 18.175 16.0562C18.15 16.0562 18.15 16.0562 18.1813 16.0937C18.2125 16.1312 18.25 16.1062 18.2563 16.125V16.1312C18.2563 16.15 18.2125 16.1687 18.1875 16.175C18.1625 16.1875 18.1625 16.1937 18.1438 16.2187C18.125 16.2437 18.0938 16.2438 18.0813 16.2625C18.075 16.2813 18.0625 16.2937 18.0438 16.3062L18.0375 16.3125L17.8938 16.4625L17.8125 16.5562L17.7063 16.6125C17.7063 16.6125 17.725 16.5437 17.675 16.5687C17.625 16.5938 17.6188 16.5937 17.5813 16.675C17.5438 16.7562 17.6563 16.6813 17.6188 16.7313C17.5563 16.7875 17.4813 16.8375 17.4 16.875C17.3438 16.9062 17.2938 16.9375 17.25 16.9813C17.1813 17.0375 17.125 17.05 17.0625 17.1063C17.0188 17.1438 16.975 17.1812 16.9313 17.2125L16.8438 17.2625C16.7313 17.3188 16.6063 17.3562 16.5563 17.3812C16.5063 17.4062 16.3313 17.5125 16.3 17.475C16.2688 17.4375 16.15 17.4937 16.0875 17.5812L16.05 17.525L15.8688 17.6312L15.7 17.7062H15.675L15.6375 17.6437L15.4813 17.6937L15.4313 17.7437C15.35 17.75 15.275 17.7562 15.1938 17.7562C15.1313 17.8063 15.1813 17.8125 15.1313 17.8875C15.0875 17.9688 15.0688 18.0562 15.0688 18.1437L15.0625 18.125C15.0875 18.0062 15.0813 17.8875 15.0438 17.7687L14.9938 17.1375L14.9438 16.9875H15.0125L15.0188 16.975L15.0375 16.8875V16.7938H15.1063C15.0625 16.75 15.0813 16.6875 15.125 16.6875C15.1688 16.6875 15.1688 16.5937 15.175 16.5625C15.1938 16.5187 15.2125 16.4687 15.225 16.425V16.375C15.2188 16.35 15.2188 16.325 15.2063 16.3C15.1938 16.2625 15.2125 16.2375 15.2063 16.1937C15.1938 16.1687 15.1938 16.1375 15.1938 16.1125C15.2063 16.075 15.2063 16.0312 15.1938 15.9937C15.175 15.9687 15.1688 16.0312 15.125 15.9937C15.0813 15.9562 15.0813 15.9562 15.0938 15.9312C15.1063 15.9062 15.15 15.9312 15.15 15.9312L15.1625 15.8812L15.1313 15.825C15.1125 15.7875 15.1 15.75 15.0938 15.7125C15.0813 15.6625 15.0625 15.6187 15.0438 15.575L14.9875 15.5C15.0313 15.375 15.0625 15.2437 15.0938 15.1187H15.0188L15.0813 14.8L15.0938 14.7625C15.0375 14.6687 15 14.5625 14.9875 14.4562C14.9875 14.4562 15.0188 14.5187 15.05 14.5L15.025 14.4312C15.0063 14.3937 15 14.3812 15.025 14.3812H15.05L15.0375 14.3437C15.0688 14.35 15.1 14.35 15.1313 14.3437C15.225 14.3375 15.0938 14.275 15.1563 14.2812C15.2438 14.3062 15.325 14.3375 15.4 14.3875C15.4563 14.4187 15.5188 14.4375 15.5813 14.4562C15.6688 14.4875 15.7188 14.525 15.8 14.55C15.8625 14.5687 15.9063 14.5812 15.9625 14.6L16.0625 14.6437C16.175 14.7062 16.2875 14.7875 16.3313 14.8187C16.375 14.85 16.575 14.9312 16.5688 14.975C16.5563 15.0187 16.675 15.0875 16.7875 15.0875L16.7625 15.15L16.9625 15.2375L17.1313 15.3312L17.15 15.35L17.125 15.4125L17.2625 15.5187L17.3375 15.5312C17.4 15.5937 17.4563 15.6562 17.5063 15.725V15.8062C17.6563 15.8 17.8813 15.825 17.8625 15.7625C17.8813 15.75 17.9063 15.7375 17.9313 15.7375H17.95L18 15.725L18.05 15.7125C18.0563 15.7187 18.0563 15.725 18.0563 15.7312C18.0375 15.7375 18.0188 15.75 18.0063 15.7625L18 15.7687V15.775L18.05 15.7562C18.1125 15.7375 18.0938 15.7187 18.125 15.7125C18.1438 15.7062 18.1688 15.7187 18.1813 15.7375C18.1875 15.75 18.2063 15.7437 18.2375 15.75C18.2688 15.7562 18.2563 15.7687 18.2875 15.775C18.3063 15.775 18.3313 15.7812 18.35 15.7875L18.3688 15.8C18.375 15.7937 18.3313 15.8375 18.3063 15.85Z" fill="#0041E6"/>
</g>
<defs>
<clipPath id="clip0_7664_50132">
<rect width="32" height="32" fill="white"/>
</clipPath>
</defs>
</svg>
