<svg width="32" height="32" viewBox="0 0 32 32" fill="none" xmlns="http://www.w3.org/2000/svg">
<path d="M31.975 12.575C31.9625 12.5188 31.975 12.475 31.9625 12.4125C31.95 12.3688 31.9438 12.325 31.9438 12.2813C31.9563 12.225 31.95 12.1625 31.9375 12.1063C31.9188 12.0688 31.9125 12.1625 31.8625 12.1063C31.8125 12.05 31.8188 12.0563 31.825 12.0188C31.8313 11.9813 31.8875 12.0188 31.8875 12.0188L31.9 11.9438L31.8625 11.8625C31.8375 11.8063 31.825 11.75 31.8125 11.6938C31.7938 11.625 31.775 11.5563 31.75 11.4875L31.6875 11.375C31.7188 11.1938 31.75 11 31.7687 10.8H31.6875L31.7313 10.3188L31.7437 10.2625C31.675 10.1188 31.6312 9.96875 31.6125 9.8125C31.6125 9.8125 31.65 9.90625 31.6812 9.88125L31.65 9.76875C31.625 9.7125 31.625 9.69375 31.65 9.69375H31.675L31.6562 9.61875C31.6313 9.5875 31.6125 9.55625 31.5938 9.51875L31.575 9.40625L31.525 9.16875C31.5375 9.14375 31.55 9.11875 31.5562 9.09375C31.5688 9.0375 31.5125 9.03125 31.5125 9.03125L31.4813 9.13125C31.4688 9.0125 31.4625 8.8875 31.4625 8.7625L31.5312 8.7C31.5312 8.7 31.575 8.73125 31.575 8.7C31.5813 8.6625 31.5688 8.61875 31.5438 8.5875H31.5187L31.475 8.575L31.4937 8.30625L31.5438 8.2625L31.5812 8.1875L31.6063 8.06875C31.6188 8.04375 31.6438 8.025 31.6688 8.0125L31.6812 7.9L31.6688 7.8375L31.6812 7.8125L31.7 7.76875C31.7063 7.74375 31.7 7.71875 31.675 7.7125H31.6688H31.6562L31.625 7.8125C31.6187 7.7 31.5312 7.625 31.5375 7.5L31.5812 7.4625L31.6063 7.44375C31.6063 7.44375 31.65 7.48125 31.65 7.44375C31.6562 7.4 31.65 7.35625 31.625 7.325H31.5938L31.575 7.31875L31.55 7.30625C31.5562 7.225 31.5125 7.15625 31.5187 7.08125V7.0375L31.4312 6.925L31.4688 6.85L31.375 6.71875C31.3937 6.69375 31.4125 6.675 31.4375 6.65625C31.45 6.6 31.3562 6.55 31.3625 6.51875L31.375 6.44375H31.3687L31.425 6.25625L31.4375 6.225C31.3563 6.15 31.5 5.95 31.5 5.95C31.5 5.95 31.5938 6.08125 31.6 5.875C31.6 5.75 31.5562 5.625 31.4688 5.53125C31.425 5.3875 31.4188 5.2375 31.4375 5.09375C31.4625 4.96875 31.425 4.8375 31.3438 4.7375C31.275 4.5625 31.2 4.39375 31.1125 4.23125L31 4.125L31.0625 4.0875V4.075L31.05 4L31.0125 3.91875L31.075 3.8875C31.0125 3.85625 30.9875 3.7875 31.0312 3.75625C31.075 3.725 31.0187 3.625 30.9937 3.59375C30.9688 3.5625 30.9625 3.48125 30.9312 3.41875L30.8937 3.36875C30.8687 3.34375 30.85 3.31875 30.8188 3.3C30.7812 3.26875 30.775 3.225 30.7375 3.1875C30.7 3.15 30.6812 3.14375 30.6625 3.10625C30.6438 3.06875 30.6063 2.99375 30.5688 2.98125C30.5312 2.96875 30.5812 3.0375 30.5187 3.03125C30.4562 3.025 30.4562 3.03125 30.4375 3C30.4188 2.96875 30.475 2.95625 30.475 2.95625L30.4312 2.90625L30.35 2.89375C30.3 2.88125 30.25 2.86875 30.2062 2.84375C30.15 2.81875 30.0938 2.8 30.0312 2.7875H29.9188C29.8688 2.725 29.8125 2.6625 29.75 2.61875L29.6313 2.50625L29.5938 2.575L29.3875 2.40625L29.3625 2.38125C29.2687 2.40625 29.175 2.40625 29.0812 2.3875C29.0812 2.3875 29.1437 2.375 29.1437 2.34375H29.075C29.0375 2.35625 29.025 2.35 29.0375 2.33125L29.0438 2.30625H29C28.975 2.325 28.95 2.3375 28.925 2.34375L28.8563 2.3375H28.7125C28.7062 2.325 28.6938 2.30625 28.6812 2.29375C28.6562 2.26875 28.6375 2.325 28.6375 2.325L28.6812 2.375C28.6125 2.3625 28.5438 2.35 28.475 2.33125L28.4562 2.25625C28.4562 2.25625 28.4875 2.21875 28.4688 2.2125C28.4438 2.2 28.4125 2.20625 28.3937 2.225V2.25L28.375 2.29375L28.2188 2.2375L28.2062 2.18125L28.1688 2.1375L28.1 2.1C28.0875 2.08125 28.075 2.05625 28.075 2.03125C28.05 2.01875 28.0312 2.0125 28.0063 2.00625L27.9625 2.0125L27.95 2L27.9125 1.975C27.8875 1.9625 27.875 1.9875 27.8687 2V2.0125L27.9312 2.05C27.8562 2.05 27.8 2.13125 27.7188 2.125L27.6938 2.0875L27.6812 2.0625C27.6812 2.0625 27.7062 2.01875 27.6812 2.01875C27.65 2.0125 27.6188 2.01875 27.6063 2.04375V2.0625V2.08125L27.6 2.10625C27.5438 2.10625 27.5 2.15 27.45 2.14375H27.425L27.3563 2.2375L27.3062 2.20625L27.2313 2.31875C27.2125 2.3 27.2 2.28125 27.1875 2.2625C27.15 2.2625 27.1313 2.35625 27.1063 2.35H27.0562C27.0437 2.45 27.0125 2.28125 27.0187 2.38125C27.0187 2.38125 26.975 2.35 26.9188 2.50625C26.9062 2.54375 26.8938 2.58125 26.8875 2.61875L26.4312 2.59375L26.0938 2.54375L25.4688 2.50625L25.3625 2.5C25.0625 2.5375 24.7562 2.51875 24.4562 2.45C24.4562 2.45 24.8938 2.35625 24.2313 2.35C23.8438 2.34375 23.4563 2.38125 23.075 2.4625C22.5938 2.4875 22.1188 2.475 21.6375 2.425C21.2375 2.375 20.825 2.38125 20.425 2.43125L18.6 2.48125L18.1625 2.5375V2.46875L18.1313 2.4625L17.8813 2.44375H17.6V2.36875C17.4688 2.4125 17.3 2.39375 17.2875 2.34375C17.275 2.29375 17.0063 2.29375 16.9312 2.2875L16.525 2.23125H16.3875L16.1625 2.24375C16.05 2.25 15.9812 2.23125 15.8625 2.24375C15.7812 2.25625 15.7 2.25625 15.6125 2.25C15.5 2.2375 15.3813 2.2375 15.2688 2.25C15.1875 2.26875 15.3813 2.275 15.2688 2.325C15.1562 2.375 15.1562 2.36875 15.0875 2.35625C15.0125 2.34375 15.0875 2.29375 15.0875 2.29375L14.9375 2.28125L14.775 2.31875C14.6625 2.3375 14.55 2.35 14.4375 2.35625C14.2688 2.36875 14.1187 2.39375 14.0312 2.40625L13.8062 2.4625L12.6812 2.35V2.425L11.7437 2.35625L11.6375 2.34375C11.3438 2.40625 11.0437 2.44375 10.7437 2.45625C10.7437 2.45625 10.9312 2.41875 10.875 2.3875H10.8687L10.6562 2.4125C10.55 2.4375 10.5125 2.4375 10.5125 2.4125V2.375L10.3687 2.39375C10.3062 2.41875 10.2375 2.4375 10.1687 2.45L9.94375 2.4625L9.48125 2.50625C9.43125 2.49375 9.3875 2.48125 9.3375 2.475C9.23125 2.45625 9.21875 2.51875 9.21875 2.51875L9.41875 2.55L8.70625 2.5625L8.59375 2.49375C8.59375 2.49375 8.65625 2.45 8.59375 2.45C8.51875 2.44375 8.44375 2.45 8.36875 2.48125V2.5L8.3375 2.54375L7.8 2.53125L7.7125 2.48125L7.56875 2.44375L7.33125 2.41875C7.2875 2.40625 7.25 2.3875 7.2125 2.35625L6.99375 2.34375L6.86875 2.35625L6.8125 2.34375L6.71875 2.325C6.64375 2.3125 6.6125 2.34375 6.60625 2.35625V2.36875L6.80625 2.4C6.575 2.40625 6.4375 2.49375 6.19375 2.49375L6.11875 2.45L6.08125 2.43125C6.08125 2.43125 6.15 2.3875 6.08125 2.3875C6.00625 2.38125 5.93125 2.3875 5.85625 2.41875V2.44375L5.84375 2.4625L5.825 2.4875C5.675 2.4875 5.5375 2.53125 5.3875 2.525H5.3125L5.10625 2.6125L4.95625 2.58125L4.7375 2.6875C4.69375 2.675 4.65 2.65625 4.6125 2.63125C4.5 2.625 4.40625 2.725 4.3375 2.71875H4.175C4.10625 2.825 4.05625 2.65625 4.0375 2.75625C3.975 2.75625 3.91875 2.76875 3.8625 2.79375C3.8625 2.74375 3.83125 2.7 3.7875 2.675L3.6875 2.6375C3.55 2.6125 3.4125 2.6125 3.275 2.6375L3.2125 2.68125C3.1375 2.73125 3.0375 2.54375 3.0375 2.54375L2.99375 2.6L2.9375 2.60625C2.9375 2.60625 2.94375 2.55 2.9125 2.55C2.88125 2.55 2.88125 2.55 2.8625 2.60625C2.84375 2.6625 2.9125 2.64375 2.89375 2.675C2.875 2.70625 2.81875 2.71875 2.78125 2.73125C2.74375 2.74375 2.7375 2.75 2.70625 2.78125C2.66875 2.80625 2.64375 2.80625 2.6125 2.83125C2.59375 2.85 2.575 2.86875 2.55625 2.8875L2.5125 2.9125C2.45625 2.93125 2.3875 2.9375 2.3625 2.94375C2.3375 2.95 2.25625 3.00625 2.225 2.96875C2.1875 2.9375 2.125 2.9625 2.11875 3.025L2.075 2.96875L1.99375 3.03125L1.9125 3.075H1.9L1.85625 3.01875L1.76875 3.04375L1.75 3.0875C1.69375 3.0875 1.64375 3.0875 1.5875 3.08125L1.525 3.0375C1.525 3.1375 1.51875 3.24375 1.5 3.34375C1.4875 3.39375 1.46875 3.44375 1.44375 3.49375L1.425 3.53125C1.4125 3.55625 1.40625 3.5875 1.4 3.6125L1.39375 3.68125L1.34375 3.70625C1.34375 3.70625 1.33125 3.675 1.30625 3.66875C1.3 3.66875 1.3 3.66875 1.29375 3.66875C1.28125 3.675 1.275 3.68125 1.275 3.6875C1.275 3.70625 1.28125 3.725 1.2875 3.74375C1.3 3.8 1.34375 3.75 1.34375 3.7875C1.34375 3.825 1.3 3.8625 1.275 3.8875C1.25625 3.9125 1.24375 3.9375 1.2375 3.96875C1.225 4.0125 1.19375 4.025 1.18125 4.0625C1.175 4.0875 1.16875 4.1125 1.15625 4.1375L1.13125 4.18125C1.1 4.2125 1.06875 4.24375 1.03125 4.26875L1.0125 4.28125C1 4.3 0.96875 4.35625 0.93125 4.36875L0.95 4.4375C0.95625 4.4875 0.95625 4.5375 0.95 4.5875C0.94375 4.625 0.94375 4.66875 0.95 4.70625L0.96875 4.76875L0.9375 4.8125C0.9375 4.8125 0.9 4.775 0.88125 4.79375C0.8625 4.8125 0.8625 4.8125 0.89375 4.8625C0.925 4.9125 0.95 4.85625 0.9625 4.8875V4.9C0.95625 4.93125 0.95 4.96875 0.93125 4.99375C0.91875 5.01875 0.91875 5.03125 0.91875 5.075C0.91875 5.1125 0.89375 5.13125 0.89375 5.16875V5.2375V5.25C0.89375 5.2875 0.9 5.325 0.9125 5.3625L0.9375 5.41875L0.91875 5.4625C0.91875 5.4625 0.875 5.43125 0.8625 5.45C0.85 5.46875 0.84375 5.46875 0.8875 5.5125C0.93125 5.55625 0.94375 5.5 0.95625 5.525C0.96875 5.55 0.95625 5.6 0.94375 5.625C0.93125 5.65 0.94375 5.6625 0.94375 5.7C0.94375 5.7375 0.93125 5.75625 0.93125 5.7875C0.9375 5.8125 0.9375 5.83125 0.94375 5.85625L0.9375 5.89375C0.91875 5.9375 0.88125 5.9875 0.875 6.00625C0.86875 6.01875 0.8625 6.10625 0.8125 6.10625C0.7625 6.10625 0.74375 6.15625 0.7875 6.2H0.7125V6.2875L0.6875 6.3625V6.375H0.6L0.5625 6.4375L0.58125 6.46875C0.54375 6.5 0.5125 6.53125 0.46875 6.55625C0.48125 6.5875 0.5125 6.56875 0.5625 6.6C0.6125 6.625 0.675 6.64375 0.73125 6.65625C0.7 6.7875 0.675 6.925 0.6625 7.05625L0.675 7.2C0.6875 7.375 0.48125 7.4125 0.48125 7.4125L0.5125 7.525L0.5 7.625C0.5 7.625 0.45625 7.575 0.4375 7.625C0.425 7.675 0.425 7.675 0.46875 7.75C0.5125 7.825 0.525 7.7 0.54375 7.75C0.55625 7.825 0.55625 7.9 0.54375 7.975C0.5375 8.03125 0.54375 8.08125 0.55 8.1375C0.55625 8.2125 0.5375 8.2625 0.55 8.33125C0.55625 8.375 0.5625 8.425 0.5625 8.46875V8.55625C0.55 8.6625 0.50625 8.76875 0.5 8.81875C0.49375 8.8625 0.4875 9.04375 0.44375 9.04375C0.39375 9.04375 0.375 9.15625 0.41875 9.24375H0.325V9.425L0.3 9.58125L0.29375 9.6H0.21875L0.175 9.7375L0.19375 9.8C0.15625 9.8625 0.11875 9.925 0.075 9.9875L0 10.0125C0.075 10.1375 0.1375 10.275 0.1875 10.4125C0.20625 10.5 0.225 10.5875 0.2375 10.675L0.25 10.7438C0.25625 10.7938 0.26875 10.8375 0.28125 10.8875L0.31875 10.9938L0.30625 11.0938C0.30625 11.0938 0.275 11.0625 0.25625 11.075C0.25 11.0813 0.25 11.0875 0.24375 11.0875C0.2375 11.1063 0.2375 11.1188 0.2375 11.1375C0.25 11.1625 0.2625 11.1813 0.275 11.2063C0.31875 11.275 0.33125 11.1563 0.34375 11.2063C0.35625 11.2813 0.35625 11.3563 0.34375 11.4313C0.3375 11.4813 0.34375 11.5375 0.35 11.5875C0.35625 11.6625 0.3375 11.7125 0.35 11.7813C0.35625 11.825 0.3625 11.875 0.3625 11.9188V12.0063C0.35 12.0875 0.325 12.1688 0.3125 12.2313L0.30625 12.2688C0.30625 12.3375 0.29375 12.4125 0.26875 12.475L0.3125 12.5875C0.3375 12.675 0.35 12.7625 0.3625 12.85C0.36875 12.925 0.38125 12.9938 0.4 13.0625L0.4375 13.1688L0.425 13.2625C0.425 13.2625 0.38125 13.2125 0.36875 13.2625C0.35625 13.3125 0.35625 13.3125 0.4 13.3813C0.44375 13.45 0.45625 13.3313 0.475 13.3813V13.4C0.48125 13.4688 0.48125 13.5313 0.46875 13.6C0.4625 13.65 0.46875 13.7063 0.475 13.7563C0.48125 13.8313 0.4625 13.8813 0.475 13.95C0.475 14 0.4875 14.0375 0.4875 14.0875V14.1V14.125C0.49375 14.2 0.50625 14.2688 0.525 14.3375L0.55625 14.4375L0.54375 14.5375C0.54375 14.5375 0.5 14.4875 0.48125 14.5375C0.46875 14.5875 0.46875 14.5875 0.5125 14.6563C0.55625 14.725 0.56875 14.6063 0.5875 14.6563C0.6 14.7313 0.6 14.8063 0.5875 14.8813C0.58125 14.9313 0.5875 14.9875 0.59375 15.0375C0.6 15.1125 0.58125 15.1625 0.59375 15.2313C0.6 15.275 0.60625 15.325 0.60625 15.3688V15.4563C0.59375 15.5563 0.55 15.6688 0.54375 15.7125C0.5375 15.7563 0.53125 15.9375 0.4875 15.9375C0.44375 15.9375 0.41875 16.05 0.4625 16.1375H0.35625V16.3188L0.33125 16.4813L0.325 16.5H0.25L0.20625 16.6375L0.225 16.7C0.19375 16.7625 0.15625 16.825 0.1125 16.8813C0.125 16.95 0.15625 16.9188 0.2 16.9875C0.25625 17.0563 0.325 17.1063 0.40625 17.1438C0.38125 17.225 0.375 17.3125 0.375 17.4C0.375 17.5875 0.375 17.4 0.425 17.625C0.46875 17.8188 0.54375 17.8 0.53125 17.925C0.5 17.9313 0.46875 17.9375 0.44375 17.9438L0.48125 18L0.4625 18.0375C0.4625 18.0375 0.4125 18.0125 0.4 18.0375C0.3875 18.0625 0.3875 18.0625 0.4375 18.1C0.4875 18.1375 0.4875 18.075 0.50625 18.1C0.525 18.125 0.5125 18.1813 0.50625 18.2188C0.5 18.25 0.50625 18.275 0.51875 18.3063C0.53125 18.3438 0.5125 18.375 0.51875 18.4125C0.525 18.4375 0.5375 18.4625 0.5375 18.4875V18.5375C0.525 18.5938 0.49375 18.6625 0.49375 18.6875C0.49375 18.7125 0.49375 18.8125 0.45 18.8188C0.40625 18.825 0.39375 18.8938 0.4375 18.9375H0.3625L0.38125 19.0375L0.375 19.1375V19.15L0.30625 19.1625L0.28125 19.25L0.30625 19.2813C0.275 19.3313 0.24375 19.375 0.2125 19.4188L0.14375 19.4438C0.23125 19.5063 0.3125 19.575 0.3875 19.6563C0.425 19.7 0.45625 19.75 0.48125 19.8063L0.50625 19.85C0.51875 19.8813 0.5375 19.9063 0.5625 19.9313L0.61875 19.9813L0.625 20.0438C0.625 20.0438 0.5875 20.0375 0.575 20.05C0.5625 20.0625 0.5625 20.0625 0.5625 20.0688C0.5625 20.0875 0.5625 20.0938 0.56875 20.1C0.58125 20.1125 0.6 20.1188 0.61875 20.125C0.675 20.15 0.65625 20.075 0.6875 20.1C0.7125 20.1375 0.73125 20.1875 0.7375 20.2313C0.74375 20.2625 0.7625 20.2938 0.7875 20.325C0.8125 20.3688 0.8125 20.4 0.8375 20.4375C0.85625 20.4625 0.875 20.4875 0.89375 20.5125L0.9125 20.5688C0.925 20.6188 0.93125 20.6688 0.9375 20.725V20.75C0.9625 20.7938 0.975 20.8438 0.98125 20.8938L1.05625 20.9313C1.10625 20.9688 1.15625 21.0125 1.2 21.05C1.23125 21.0875 1.275 21.1188 1.31875 21.1438L1.3875 21.1813L1.41875 21.2438C1.41875 21.2438 1.3625 21.2438 1.375 21.2813C1.3875 21.3188 1.3875 21.3188 1.45 21.325C1.51875 21.3313 1.46875 21.2625 1.50625 21.2813L1.51875 21.2875C1.55625 21.3188 1.5875 21.3563 1.6125 21.4C1.6375 21.4313 1.6625 21.4563 1.69375 21.475C1.7375 21.5063 1.75 21.5438 1.79375 21.5688C1.825 21.5875 1.85 21.6 1.875 21.625L1.8875 21.6313C1.93125 21.6563 1.975 21.675 2.025 21.6875L2.1 21.7L2.14375 21.75C2.14375 21.75 2.0875 21.7688 2.10625 21.8C2.125 21.8313 2.125 21.8313 2.19375 21.8188C2.25625 21.8063 2.19375 21.7563 2.2375 21.7625C2.28125 21.7813 2.31875 21.8125 2.35 21.85C2.375 21.875 2.40625 21.8875 2.44375 21.8938C2.4875 21.9125 2.5125 21.9438 2.55625 21.9563C2.5875 21.9625 2.6125 21.975 2.64375 21.9813L2.69375 22.0125C2.75 22.0563 2.8 22.1188 2.825 22.1375C2.85 22.1563 2.95625 22.1938 2.94375 22.25C2.93125 22.3063 2.99375 22.3438 3.0625 22.3188L3.04375 22.3875L3.1625 22.425L3.2625 22.475L3.275 22.4875L3.25625 22.5625L3.34375 22.625L3.3875 22.6125L3.5 22.75C3.55625 22.75 3.53125 22.7125 3.5875 22.675C3.64375 22.625 3.69375 22.5563 3.725 22.4875C3.775 22.5188 3.8375 22.5313 3.9 22.5375C4.03125 22.5438 3.9 22.5375 4.05 22.4938C4.2 22.45 4.15625 22.35 4.28125 22.3875C4.34375 22.4125 4.40625 22.4063 4.4625 22.3688C4.46875 22.3688 4.46875 22.375 4.48125 22.3813L4.6375 22.4188C4.85625 22.4625 5.06875 22.4938 5.29375 22.5063L5.4125 22.4813C5.5625 22.4563 5.60625 22.6625 5.60625 22.6625L5.7 22.625L5.7875 22.6375C5.7875 22.6375 5.74375 22.6875 5.7875 22.7C5.83125 22.7125 5.83125 22.7125 5.89375 22.6625C5.95625 22.6188 5.84375 22.6125 5.89375 22.5875C5.95625 22.575 6.025 22.575 6.09375 22.5875C6.14375 22.5938 6.1875 22.5875 6.2375 22.575C6.30625 22.5625 6.35 22.5813 6.4125 22.575C6.45625 22.5688 6.49375 22.5563 6.5375 22.5563H6.61875C6.7125 22.5688 6.8125 22.6 6.85625 22.6063C6.89375 22.6125 7.05625 22.6063 7.0625 22.6563C7.06875 22.7063 7.175 22.7188 7.24375 22.675V22.7438H7.40625L7.55 22.7625L7.56875 22.7688V22.8375L7.69375 22.875L7.75 22.8563C7.8125 22.8875 7.86875 22.925 7.925 22.9688L7.95 23.0438C8.0625 22.9625 8.18125 22.9 8.30625 22.8438C8.38125 22.8188 8.4625 22.8 8.5375 22.7875L8.6 22.775C8.64375 22.7688 8.6875 22.7563 8.725 22.7438L8.81875 22.7063L8.90625 22.7188C8.90625 22.7188 8.88125 22.75 8.89375 22.7688C8.89375 22.775 8.9 22.775 8.90625 22.7813C8.91875 22.7875 8.9375 22.7875 8.95 22.7813C8.96875 22.7688 8.9875 22.7563 9.00625 22.7438C9.06875 22.7 8.9625 22.6938 9.00625 22.6688C9.06875 22.6563 9.1375 22.6563 9.20625 22.6688C9.25625 22.675 9.3 22.6688 9.35 22.6563C9.41875 22.6438 9.4625 22.6625 9.525 22.6563C9.56875 22.65 9.60625 22.6438 9.65 22.6375H9.73125C9.8 22.65 9.8625 22.6625 9.93125 22.6813L9.96875 22.6875C10.0312 22.6875 10.0938 22.7 10.1562 22.7188L10.25 22.675C10.325 22.65 10.4062 22.6313 10.4812 22.6188C10.5437 22.6125 10.6125 22.5938 10.675 22.575L10.7688 22.5375L10.8562 22.55C10.8562 22.55 10.8125 22.6 10.8562 22.6125C10.9 22.625 10.9 22.625 10.9625 22.575C11.025 22.5313 10.9187 22.525 10.9625 22.5H10.9812C11.0437 22.4938 11.1 22.4938 11.1625 22.5C11.2125 22.5 11.2563 22.4938 11.3 22.4813C11.3688 22.4688 11.4125 22.4875 11.475 22.4813C11.5188 22.475 11.5563 22.4688 11.6 22.4625H11.6125H11.6313C11.6938 22.4563 11.7625 22.4375 11.825 22.4188L11.9187 22.3813L12.0063 22.3938C12.0063 22.3938 11.9625 22.4438 12.0063 22.4563C12.05 22.4688 12.05 22.4688 12.1125 22.4188C12.175 22.375 12.0688 22.3688 12.1125 22.3438C12.175 22.3313 12.2437 22.3313 12.3125 22.3438C12.3625 22.35 12.4062 22.3438 12.4563 22.3313C12.525 22.3188 12.5688 22.3375 12.6313 22.3313C12.675 22.325 12.7125 22.3125 12.7563 22.3125H12.8375C12.9312 22.325 13.0312 22.3563 13.0688 22.3625C13.1313 22.3625 13.1875 22.3813 13.2437 22.4L13.2563 22.4438L13.2312 22.5063C13.2312 22.5063 13.1938 22.4625 13.175 22.4938C13.1562 22.525 13.1562 22.525 13.1875 22.5813C13.2188 22.6375 13.25 22.5625 13.2563 22.6C13.2563 22.65 13.2437 22.7 13.2188 22.7438C13.2063 22.775 13.2 22.8125 13.2 22.85C13.2 22.9 13.1687 22.9313 13.1687 22.975C13.1687 23.0063 13.1688 23.0375 13.1625 23.0688L13.1438 23.125C13.1125 23.1813 13.0813 23.2313 13.0437 23.2813C13.0312 23.3125 13 23.425 12.9563 23.4188C12.9062 23.4125 12.875 23.4813 12.9 23.5438L12.8313 23.525L12.8 23.6438L12.7563 23.7313L12.7437 23.7438L12.675 23.725L12.6125 23.8063L12.625 23.85C12.5813 23.8875 12.5312 23.9188 12.4812 23.9438H12.375C12.425 24.0438 12.4688 24.1438 12.4937 24.25C12.5 24.3125 12.5063 24.3688 12.5063 24.4313V24.4813C12.5063 24.5125 12.5062 24.55 12.5125 24.5813L12.5312 24.6563L12.5 24.7188C12.5 24.7188 12.475 24.6938 12.4563 24.6938C12.45 24.6938 12.45 24.7 12.4438 24.7C12.4313 24.7125 12.4312 24.7188 12.4312 24.7313C12.4375 24.75 12.4438 24.7688 12.4563 24.7813C12.4875 24.8375 12.5125 24.7625 12.525 24.8C12.525 24.85 12.5125 24.9 12.4875 24.9438C12.475 24.975 12.4688 25.0125 12.475 25.05C12.475 25.1 12.4438 25.125 12.4438 25.175V25.2688L12.425 25.325C12.4 25.3688 12.375 25.4125 12.3438 25.4563L12.3313 25.4813C12.3188 25.5063 12.3 25.5875 12.2625 25.6125L12.2875 25.6938C12.2938 25.7563 12.3 25.8125 12.3 25.875C12.2937 25.925 12.2937 25.975 12.3062 26.025L12.325 26.1L12.3 26.1625C12.3 26.1625 12.2625 26.1188 12.2437 26.15C12.225 26.1813 12.225 26.175 12.2563 26.2375C12.2875 26.2938 12.3125 26.2188 12.325 26.2563V26.2688C12.3187 26.3125 12.3063 26.3563 12.2875 26.4C12.275 26.4313 12.2688 26.4688 12.2688 26.5063C12.2688 26.5563 12.2375 26.5813 12.2375 26.6313V26.725V26.7313V26.7438C12.2312 26.7938 12.2312 26.8438 12.2375 26.8938L12.2563 26.9688L12.225 27.025C12.225 27.025 12.1875 26.9813 12.1687 27.0125C12.15 27.0438 12.15 27.0438 12.1812 27.1C12.2125 27.1563 12.2375 27.0813 12.25 27.1188C12.25 27.1688 12.2375 27.2188 12.2125 27.2625C12.2 27.2938 12.1937 27.3313 12.2 27.3688C12.2 27.4188 12.1687 27.45 12.1687 27.4938C12.1687 27.525 12.1688 27.5563 12.1625 27.5875L12.1438 27.6438C12.1125 27.7125 12.0562 27.775 12.0437 27.8063C12.0312 27.8375 12 27.9563 11.95 27.95C11.9 27.9438 11.8688 28.0188 11.8938 28.0875L11.825 28.0688L11.7937 28.1938L11.75 28.3063L11.7375 28.3188L11.6625 28.3063L11.6062 28.4L11.6187 28.45C11.575 28.4875 11.5312 28.525 11.4812 28.5625C11.4812 28.6188 11.5187 28.5938 11.5562 28.6563C11.6062 28.7188 11.6687 28.7688 11.7437 28.8063C11.7125 28.8625 11.6875 28.9313 11.6875 29C11.6687 29.1438 11.6875 29 11.7188 29.1688C11.75 29.3375 11.85 29.3 11.8 29.4438C11.7688 29.5125 11.7688 29.5938 11.8 29.6688C11.8313 29.7 11.8625 29.7313 11.8875 29.7625C11.9062 29.7938 11.9375 29.825 11.9688 29.85C11.9688 29.85 11.9875 29.9063 12.125 29.9063C12.2625 29.9063 12.0875 29.9813 12.1687 29.9688C12.375 30.0188 12.5875 30.025 12.7937 29.975C12.9563 29.9563 12.9062 29.9063 13.0813 29.9438C13.175 29.9625 13.0062 29.9688 13.3375 30.0125C13.4375 30.025 13.4062 30.0375 13.5188 29.9875C13.5312 29.9813 13.5562 29.925 13.625 29.8875C13.6562 29.8875 13.6562 29.8688 13.6562 29.8563C13.9438 29.7688 14.2188 29.6375 14.4625 29.4563L14.575 29.3438C14.6625 29.2688 14.7875 29.2688 14.875 29.3438L14.9438 29.2438L15.0375 29.1875C15.0375 29.1875 15.025 29.2625 15.075 29.2375C15.125 29.2125 15.125 29.2125 15.1625 29.125C15.2 29.0375 15.0875 29.125 15.1187 29.0688C15.175 29.0063 15.2438 28.9563 15.3188 28.9188C15.3688 28.8875 15.4125 28.8438 15.4563 28.8C15.5188 28.7375 15.575 28.7188 15.6313 28.6688C15.6688 28.6313 15.7062 28.5938 15.7437 28.5563L15.825 28.5C15.925 28.4375 16.05 28.3875 16.0938 28.3625C16.1375 28.3375 16.2937 28.2125 16.3312 28.25C16.3687 28.2875 16.475 28.2188 16.525 28.1313L16.5688 28.1875L16.7313 28.0625L16.8875 27.9688L16.8937 27.9563L16.9375 28.0125L17.0875 27.9563L17.1313 27.9C17.2125 27.8813 17.2938 27.8688 17.375 27.8625L17.4438 27.9063C17.5125 27.7563 17.5938 27.6125 17.6875 27.475C17.75 27.4 17.8188 27.325 17.8875 27.25L17.9438 27.1938C17.9813 27.1563 18.0187 27.1125 18.0562 27.0688L18.125 26.9688L18.2188 26.9125C18.2188 26.9125 18.2125 26.9563 18.2375 26.9625H18.2563C18.275 26.9563 18.2937 26.9438 18.3062 26.9313C18.3188 26.9063 18.3312 26.8813 18.3438 26.8563C18.375 26.7688 18.2625 26.85 18.3 26.8C18.3562 26.7375 18.425 26.6875 18.5 26.65C18.55 26.6188 18.5938 26.575 18.6375 26.5313C18.7 26.4688 18.7563 26.4563 18.8125 26.4L18.925 26.2875L19.0063 26.2313C19.0875 26.1875 19.175 26.1438 19.2375 26.1188L19.2812 26.1C19.3438 26.05 19.4187 26.0125 19.4937 25.9813L19.5625 25.8688C19.625 25.7938 19.6938 25.7188 19.7625 25.6438C19.825 25.5875 19.8813 25.525 19.9312 25.4625L20 25.3625L20.0938 25.3063C20.0938 25.3063 20.0813 25.375 20.1313 25.3563C20.1812 25.3313 20.1812 25.3313 20.2188 25.2438C20.2563 25.1563 20.1437 25.2375 20.175 25.1875L20.1875 25.1688C20.2437 25.1188 20.3062 25.0688 20.3687 25.0313C20.4187 25 20.4625 24.9563 20.5063 24.9125C20.5688 24.85 20.625 24.8375 20.6812 24.7813L20.7938 24.6688L20.8062 24.6625L20.825 24.6438C20.8875 24.5875 20.9438 24.525 20.9937 24.4625L21.0625 24.3625L21.1562 24.3063C21.1562 24.3063 21.1438 24.375 21.1938 24.3563C21.2437 24.3313 21.2437 24.3313 21.2812 24.2438C21.3188 24.1563 21.2062 24.2375 21.2375 24.1875C21.2937 24.125 21.3625 24.075 21.4375 24.0375C21.4875 24.0063 21.5312 23.9625 21.575 23.9188C21.6375 23.8563 21.6938 23.8375 21.75 23.7875L21.8625 23.675L21.9438 23.6188C22.0438 23.5563 22.1687 23.5063 22.2125 23.4813C22.2563 23.4563 22.4125 23.3313 22.45 23.3688C22.4875 23.4063 22.5938 23.3375 22.6437 23.25L22.6875 23.3063L22.85 23.1813L23.0063 23.0875L23.0312 23.0813L23.075 23.1438L23.225 23.0813L23.2687 23.025C23.3438 23.0063 23.425 22.9938 23.5 22.9875C23.5562 22.925 23.5 22.9313 23.5375 22.8438C23.5625 22.7563 23.5687 22.6625 23.55 22.5688C23.6437 22.5313 23.725 22.475 23.8062 22.4125C23.975 22.2813 23.8062 22.4125 23.9688 22.2188C24.0063 22.1813 24.0312 22.1313 24.0562 22.0875C24.0562 22.1125 24.0688 22.275 24.1375 22.3L24.2062 22.3313C24.2937 22.3625 24.3875 22.3813 24.4813 22.3875L24.525 22.3563C24.5812 22.325 24.625 22.5313 24.625 22.5313L24.6562 22.4938L24.6938 22.5C24.6938 22.5 24.6813 22.55 24.7 22.5625C24.7188 22.575 24.7188 22.575 24.7375 22.525C24.7562 22.475 24.7125 22.475 24.7313 22.4563C24.75 22.4375 24.7875 22.4438 24.8125 22.45C24.8375 22.4563 24.8438 22.45 24.8687 22.4375C24.8937 22.425 24.9125 22.4375 24.9375 22.4313C24.9562 22.4188 24.9688 22.4125 24.9875 22.4063H25.0187C25.0562 22.4188 25.0875 22.4375 25.1187 22.4563C25.1375 22.4563 25.2 22.4563 25.2062 22.5063C25.2125 22.5563 25.2563 22.5688 25.2812 22.525V22.6H25.35L25.4125 22.6188L25.4188 22.625V22.6938L25.475 22.7313L25.4937 22.7125C25.5187 22.75 25.55 22.7875 25.5688 22.825L25.5812 22.9C25.6187 22.825 25.6688 22.7625 25.725 22.7063C25.7563 22.6813 25.7875 22.6625 25.825 22.65L25.85 22.6375C25.8687 22.6313 25.8875 22.6188 25.9062 22.6063L25.9438 22.5688L25.9813 22.5813C25.975 22.6 25.975 22.6125 25.9813 22.6313V22.6438C25.9938 22.6438 25.9937 22.65 26 22.6438C26.0125 22.6313 26.0187 22.6188 26.025 22.6063C26.05 22.5625 26.0063 22.5563 26.025 22.5375C26.0437 22.5188 26.0875 22.5313 26.1125 22.5375C26.1375 22.5438 26.1437 22.5375 26.175 22.525C26.2062 22.5125 26.225 22.5313 26.25 22.525L26.3062 22.5063H26.3438C26.375 22.5188 26.4062 22.5375 26.4312 22.5563L26.4438 22.5625C26.4563 22.5625 26.5063 22.5688 26.525 22.6L26.5688 22.5563C26.6 22.5375 26.6375 22.5188 26.675 22.5063C26.7062 22.5 26.7375 22.4813 26.7625 22.4625L26.8062 22.425L26.8438 22.4375C26.8438 22.4375 26.825 22.4875 26.8438 22.5C26.8625 22.5125 26.8625 22.5125 26.8937 22.4688C26.9187 22.425 26.875 22.4125 26.8937 22.3938H26.9C26.925 22.3875 26.9563 22.3875 26.9813 22.3938C27.0063 22.4 27.0125 22.3938 27.0438 22.3875C27.075 22.3813 27.0938 22.4 27.125 22.3875C27.1437 22.3813 27.1625 22.375 27.1812 22.3688H27.1875C27.2188 22.3625 27.25 22.35 27.275 22.325L27.3188 22.2875L27.3563 22.3C27.3563 22.3 27.3375 22.35 27.3563 22.3625C27.375 22.375 27.375 22.375 27.4062 22.3313C27.4375 22.2875 27.3875 22.275 27.4062 22.2563C27.425 22.2375 27.475 22.2563 27.5 22.2563C27.525 22.2563 27.5312 22.2563 27.5688 22.2438C27.6 22.2313 27.6187 22.2563 27.65 22.2438L27.7062 22.225H27.7437C27.7812 22.2438 27.8188 22.2625 27.8563 22.2813C27.875 22.2875 27.95 22.2875 27.9562 22.3375C27.9625 22.3875 28.0063 22.4063 28.0438 22.3625V22.4313H28.1187L28.1875 22.45L28.1938 22.4563V22.5313L28.2563 22.5688L28.2875 22.55L28.3813 22.6625C28.4188 22.65 28.3937 22.6188 28.4312 22.5688C28.4688 22.5 28.4875 22.4313 28.5 22.3563C28.5438 22.375 28.5938 22.3813 28.6437 22.375C28.7562 22.3625 28.6438 22.375 28.7625 22.3063C28.8438 22.2625 28.85 22.2063 28.875 22.1813L28.9 22.2188L28.9375 22.1688H28.9625H28.9875C28.9875 22.1688 28.9875 22.2188 29.0063 22.225C29.025 22.225 29.0312 22.225 29.05 22.175C29.05 22.175 29.05 22.175 29.05 22.1688C29.075 22.1563 29.1063 22.1438 29.125 22.125C29.125 22.125 29.1375 22.0875 29.1562 22.0563C29.1688 22.05 29.1812 22.0438 29.1938 22.0313C29.225 22.0063 29.2563 22.0188 29.2812 21.9938C29.3 21.975 29.3188 21.9625 29.3375 21.95L29.3813 21.9375C29.4375 21.925 29.5063 21.9375 29.525 21.9313C29.55 21.925 29.6375 21.8813 29.6562 21.925C29.6812 21.9688 29.7437 21.9563 29.7687 21.8938L29.8062 21.9563L29.8937 21.9063L29.9813 21.875H29.9937L30.0312 21.9375L30.125 21.925L30.1437 21.8875C30.2 21.8938 30.2563 21.9 30.3062 21.9125L30.3625 21.9625C30.3812 21.8563 30.4125 21.75 30.45 21.65C30.475 21.6 30.5063 21.55 30.5375 21.5L30.5625 21.4625C30.5812 21.4375 30.5938 21.4063 30.6063 21.375L30.625 21.3L30.675 21.2625C30.675 21.2625 30.6875 21.3 30.7062 21.3H30.7188C30.7313 21.2938 30.7437 21.2875 30.7437 21.2813C30.75 21.2625 30.75 21.2438 30.7437 21.225C30.7437 21.1625 30.6812 21.2125 30.6875 21.175C30.6938 21.1375 30.75 21.0938 30.7812 21.0625C30.8062 21.0375 30.825 21.0125 30.8375 20.975C30.8625 20.9313 30.8937 20.9188 30.9062 20.875C30.9188 20.85 30.9312 20.8188 30.9438 20.7938L30.975 20.75C31.0125 20.7188 31.05 20.6875 31.0875 20.6625L31.1063 20.6438C31.125 20.625 31.1625 20.5625 31.2 20.55L31.1875 20.4375C31.1875 20.3813 31.1937 20.3313 31.2062 20.275C31.2188 20.2313 31.225 20.1875 31.2188 20.1438L31.2062 20.075L31.2375 20.0313C31.2375 20.0313 31.275 20.075 31.2938 20.0563C31.3125 20.0375 31.3125 20.0375 31.2875 19.9813C31.2563 19.9313 31.2313 19.9875 31.2188 19.9563V19.9375C31.225 19.9 31.2375 19.8688 31.2563 19.8375C31.2688 19.8125 31.275 19.7813 31.275 19.75C31.275 19.7063 31.3062 19.6875 31.3062 19.65C31.3062 19.625 31.3062 19.6 31.3062 19.575V19.5625C31.3125 19.525 31.3063 19.4813 31.2938 19.4438L31.2687 19.3813L31.2938 19.3375C31.2938 19.3375 31.3375 19.375 31.35 19.35C31.3687 19.325 31.3687 19.325 31.3312 19.2813C31.2937 19.2375 31.275 19.2938 31.2625 19.2688C31.25 19.2375 31.2687 19.1875 31.2812 19.1563C31.2875 19.1313 31.2875 19.1 31.2812 19.075C31.2812 19.0375 31.3 19.0125 31.2938 18.9813C31.2875 18.9563 31.2875 18.9375 31.2875 18.9125L31.3 18.8688C31.3187 18.8188 31.3625 18.7688 31.3687 18.75C31.375 18.7313 31.3813 18.6438 31.4312 18.6438C31.4812 18.6438 31.5 18.5938 31.4625 18.55H31.5312V18.4625L31.5562 18.3875L31.5625 18.3813H31.6375L31.6812 18.3125L31.6625 18.2813C31.7 18.25 31.7375 18.225 31.775 18.1938C31.7625 18.1625 31.7313 18.1813 31.6875 18.1438C31.625 18.1125 31.5563 18.0875 31.4813 18.0688C31.5063 18.0313 31.5125 17.9938 31.5063 17.95C31.5063 17.8813 31.5063 17.9188 31.475 17.8875L31.5312 17.6938L31.55 17.6375C31.4875 17.4938 31.6812 17.1563 31.6812 17.1563C31.6812 17.1563 31.7375 17.4063 31.8 17.0438C31.8375 16.825 31.825 16.6063 31.7687 16.3938C31.7687 16.125 31.8062 15.85 31.8687 15.5875C31.9312 15.3563 31.9375 15.1188 31.8813 14.8875C31.8687 14.5438 31.8375 14.2063 31.7875 13.8688L31.7188 13.6313H31.7875L31.7938 13.6125L31.8062 13.475L31.7938 13.325H31.8687C31.8188 13.2563 31.8313 13.1625 31.8813 13.1563C31.9312 13.15 31.9562 13.025 31.9562 12.9875C31.9562 12.95 31.9875 12.85 31.9937 12.7625V12.6875C31.9937 12.6563 31.9875 12.6125 31.975 12.575ZM29.6938 15.6313C29.675 15.7313 29.6313 15.8313 29.625 15.875C29.6187 15.9188 29.6062 16.0875 29.5562 16.0875C29.5063 16.0938 29.4812 16.1938 29.5187 16.275L29.45 16.2688L29.4375 16.4375L29.4 16.5875L29.3875 16.6063L29.3125 16.6L29.2563 16.725L29.2687 16.7813C29.2312 16.8375 29.1875 16.8938 29.1375 16.9438C29.1438 17.0125 29.175 16.9813 29.2125 17.0563C29.2625 17.125 29.325 17.1875 29.4 17.2313C29.3687 17.3125 29.3438 17.3938 29.3375 17.4813C29.3125 17.6625 29.3375 17.4813 29.3625 17.7063C29.3625 17.7563 29.375 17.8 29.4 17.8438L29.3312 17.9L29.2812 18.0188L29.2687 18.0375C29.35 18.0875 29.2 18.2 29.2 18.2C29.2 18.2 29.1187 18.1188 29.0938 18.2375C29.0875 18.3125 29.1187 18.3875 29.1812 18.4375C29.2 18.5188 29.175 18.6063 29.1125 18.6625C29.0562 18.7 29.0437 18.775 29.0812 18.825C29.0812 18.825 29.0812 18.8313 29.0875 18.8313C29.0875 18.9125 29.0813 18.9938 29.075 19.075L29.1063 19.1438L29.0375 19.1188H29.0312L29 19.1375L28.9875 19.1688L28.9188 19.1438C28.95 19.1688 28.9313 19.1813 28.8875 19.1625C28.8688 19.15 28.8375 19.1563 28.8188 19.1688C28.8125 19.1688 28.7687 19.1688 28.75 19.175L28.7437 19.1813C28.7437 19.1875 28.7437 19.1938 28.75 19.2063C28.7563 19.2125 28.7375 19.2125 28.7375 19.225C28.7437 19.2375 28.7437 19.2438 28.7375 19.2438C28.7312 19.2438 28.7125 19.25 28.725 19.2688C28.7375 19.2813 28.75 19.275 28.7875 19.3063C28.8188 19.3375 28.8188 19.3375 28.8062 19.3375C28.7875 19.3313 28.7688 19.3188 28.7563 19.3H28.7375L28.7625 19.3313C28.775 19.3438 28.7812 19.3625 28.7812 19.375C28.7875 19.3938 28.7937 19.4125 28.8062 19.4313L28.8375 19.4813L28.7 19.475L28.75 19.5313L28.6437 19.5375H28.6313C28.65 19.5875 28.6437 19.6375 28.6187 19.6875C28.6187 19.6625 28.6125 19.6438 28.5938 19.625L28.5875 19.6625C28.5875 19.6875 28.5875 19.6938 28.575 19.6688L28.5625 19.6438V19.6688C28.5688 19.6875 28.5688 19.7125 28.5688 19.7313L28.5562 19.7625L28.525 19.8313C28.5125 19.825 28.5063 19.8188 28.4937 19.8125C28.475 19.8063 28.4937 19.8563 28.4937 19.8563L28.5312 19.8688C28.5063 19.8938 28.4813 19.9125 28.4438 19.9313L28.4 19.8813C28.4 19.8813 28.3875 19.8375 28.3813 19.8375C28.3687 19.8375 28.3625 19.8813 28.3625 19.8813L28.3687 19.9L28.3813 19.9438C28.3563 19.95 28.325 19.9563 28.3 19.9625L28.2687 19.9188L28.2375 19.8938H28.1938C28.1812 19.8813 28.1625 19.8625 28.1562 19.8438H28.125L28.1125 19.8625L28.1 19.8563L28.0812 19.8438C28.0687 19.8375 28.0687 19.8688 28.0812 19.8813V19.8875L28.125 19.9063C28.1125 19.9125 28.1125 19.9375 28.1063 19.9563C28.0813 19.9688 28.0562 19.9875 28.0375 20.0063L28.025 19.9875C28.025 19.9875 28.025 19.9438 28.0125 19.9438C28 19.9438 27.9875 19.9875 27.9875 19.9875L27.9937 20.0063V20.0188C27.9062 20.0375 27.8125 20.0188 27.7313 19.9688C27.6562 19.9188 27.5562 19.9188 27.475 19.9688L27.0812 20.0125L26.9875 20.0625V19.9938L26.9813 19.9875L26.925 19.9688H26.8625V19.8938C26.8312 19.9375 26.7938 19.9188 26.7938 19.8688C26.7938 19.8188 26.7313 19.8188 26.7188 19.8125C26.7062 19.8063 26.6625 19.7688 26.6313 19.7563H26.6C26.5813 19.7625 26.5687 19.7625 26.55 19.775C26.525 19.7875 26.5063 19.7688 26.4813 19.775C26.4563 19.7813 26.45 19.7938 26.425 19.7875C26.4062 19.7813 26.3625 19.7688 26.35 19.7875C26.3313 19.8063 26.375 19.8125 26.35 19.8563C26.325 19.9 26.325 19.9 26.3062 19.8938C26.2875 19.8875 26.3062 19.8313 26.3062 19.8313L26.275 19.8188L26.2375 19.8563C26.2188 19.875 26.1875 19.8938 26.1625 19.9C26.1313 19.9125 26.1 19.9313 26.0688 19.9563L26.0187 20.0188C25.9375 19.975 25.85 19.9438 25.7625 19.9188V19.9938L25.5375 19.9375L25.5125 19.925C25.4563 19.9875 25.3875 20.025 25.3125 20.05C25.3125 20.05 25.3562 20.0125 25.3375 19.9813L25.2875 20.0063C25.2625 20.0313 25.2563 20.0313 25.25 20.0063V19.9813L25.2188 20C25.2062 20.025 25.1937 20.0438 25.175 20.0625L25.125 20.0813L25.0187 20.1313C25.0062 20.1188 24.9938 20.1125 24.9813 20.1063C24.9563 20.0938 24.9562 20.15 24.9562 20.15L25.0063 20.175C24.95 20.1875 24.9 20.2 24.8438 20.2063L24.8125 20.1438C24.8125 20.1438 24.825 20.1 24.8125 20.1C24.7875 20.1 24.7688 20.1125 24.7625 20.1375V20.1625V20.2063C24.7188 20.2063 24.675 20.2063 24.6375 20.2063L24.6125 20.1563L24.575 20.125L24.5187 20.1063C24.5062 20.0875 24.4938 20.0688 24.4813 20.05L24.425 20.0438L24.3937 20.0563L24.3813 20.0438L24.3563 20.0313C24.3375 20.0188 24.3312 20.05 24.3312 20.0688V20.0813L24.3813 20.1063C24.325 20.125 24.3062 20.2188 24.2437 20.2188L24.2188 20.175L24.2 20.1375C24.2 20.1375 24.2125 20.0938 24.2 20.0938C24.175 20.0938 24.1562 20.1125 24.15 20.1313V20.1563V20.2C24.1125 20.2 24.0875 20.2563 24.05 20.2563H24.0312L24 20.3563L23.9625 20.3313C23.95 20.2625 23.9312 20.2 23.8937 20.1375C23.85 20.0438 23.8937 20.0563 23.7375 20.025C23.6625 20.0438 23.5875 20.0563 23.5125 20.0625C23.4438 20.025 23.4188 20.1625 23.375 20.075L22.875 20.35L22.6812 20.425L22.3438 20.6125L22.2875 20.6438C22.2188 20.8 21.8188 20.9188 21.8188 20.9188C21.8188 20.9188 21.975 20.6938 21.65 20.9188C21.4562 21.05 21.2938 21.2188 21.1625 21.4188C20.95 21.6125 20.7125 21.775 20.4562 21.9063C20.2375 22.0125 20.0375 22.1625 19.8813 22.35L19.0438 23.05L18.8687 23.25L18.825 23.1938H18.8062L18.675 23.2688L18.5438 23.3688L18.5 23.3125C18.4625 23.3938 18.375 23.4438 18.3375 23.4063C18.3 23.3688 18.175 23.4688 18.1375 23.4938C18.1 23.5188 17.9937 23.55 17.9125 23.6L17.8438 23.6438C17.8125 23.675 17.7812 23.7063 17.75 23.7375C17.7062 23.7813 17.6562 23.7938 17.6063 23.85C17.575 23.8875 17.5375 23.9188 17.4937 23.95C17.4312 23.9813 17.375 24.025 17.3312 24.075C17.3062 24.1188 17.4 24.0563 17.375 24.1313C17.35 24.2063 17.35 24.2063 17.3062 24.225C17.2625 24.2438 17.2687 24.175 17.2687 24.175L17.1875 24.2188L17.1313 24.3063C17.0938 24.3625 17.05 24.4125 17 24.4625C16.9438 24.525 16.8875 24.5875 16.8375 24.6563L16.7687 24.7875C16.575 24.8875 16.3812 24.9938 16.175 25.1125L16.2188 25.175L15.7375 25.4688L15.6812 25.4938C15.5812 25.65 15.4688 25.7875 15.3313 25.9125C15.3313 25.9125 15.4 25.8125 15.35 25.8125L15.2688 25.9125C15.2312 25.9688 15.2188 25.9875 15.2 25.9625L15.1875 25.9438L15.1313 26.0125C15.1188 26.0563 15.1 26.0938 15.075 26.1313L14.9812 26.225C14.9875 26.2125 14.9875 26.2 14.9937 26.1875C14.9875 26.1563 14.9938 26.125 15.0063 26.1C15.0188 26.0688 15.05 26.0125 15.0375 25.9813C15.025 25.95 15 26.0125 14.9688 25.9625C14.9312 25.9125 14.9312 25.9125 14.95 25.8938C14.9688 25.8688 15.0063 25.9063 15.0063 25.9063L15.0312 25.8563L15.0125 25.7938C15 25.75 15 25.7125 15 25.6688C15 25.6188 14.9937 25.5688 14.9812 25.5188L14.9438 25.425C15.0125 25.3125 15.0813 25.1938 15.1438 25.0625L15.075 25.0438L15.2188 24.7375L15.2375 24.7063C15.2 24.6 15.1875 24.4875 15.2 24.3688C15.2 24.3688 15.2188 24.4438 15.2563 24.4313L15.25 24.3563C15.2375 24.3125 15.2375 24.3 15.2625 24.3063H15.2875L15.2812 24.25C15.2625 24.225 15.25 24.2 15.2437 24.1688V24.0875L15.2375 23.9188C15.2563 23.9063 15.2688 23.8938 15.2812 23.875C15.3062 23.8438 15.25 23.825 15.25 23.825L15.2063 23.8875C15.2125 23.8063 15.2312 23.7188 15.25 23.6375L15.325 23.6125C15.325 23.6125 15.3625 23.6438 15.3687 23.625C15.3812 23.5938 15.375 23.5625 15.3562 23.5375L15.3313 23.5313L15.2875 23.5125L15.35 23.3375L15.4062 23.3188L15.45 23.275L15.4937 23.2C15.5125 23.1875 15.5375 23.175 15.5625 23.175L15.5938 23.1063V23.0625L15.6125 23.05L15.6375 23.025C15.6562 23 15.6313 22.9875 15.6125 22.9813H15.6062L15.5562 23.0438C15.5687 22.9625 15.4937 22.8938 15.5125 22.8125L15.5625 22.7938L15.5875 22.7875C15.5875 22.7875 15.625 22.8188 15.6313 22.8C15.6438 22.7688 15.6375 22.7375 15.6187 22.7125L15.6 22.7063L15.5813 22.7L15.5562 22.6875C15.575 22.6375 15.5375 22.575 15.5562 22.5313L15.5688 22.5063L15.5 22.4188L15.5437 22.375L15.4563 22.2625C15.475 22.25 15.5 22.2375 15.525 22.2375C15.5375 22.2125 15.5 22.1813 15.4812 22.15C15.5062 22.1313 15.5312 22.1125 15.55 22.0875C15.55 22.0875 15.6188 22.0688 15.6125 21.9313C15.6062 21.7938 15.7 21.9688 15.6875 21.8875C15.75 21.6813 15.75 21.4625 15.6875 21.2625C15.6562 21.1 15.5875 21.15 15.6375 20.975C15.6687 20.8813 15.675 21.05 15.7375 20.7188C15.7563 20.6188 15.775 20.65 15.7 20.5375C15.6438 20.5125 15.5938 20.475 15.5437 20.4375C15.5188 20.3688 15.4312 20.4625 15.45 20.3625C15.3062 20.3313 15.1562 20.3063 15.0063 20.2813L14.85 20.225L14.55 20.175L14.5 20.1625C14.3813 20.2438 14.0688 20.1 14.0688 20.1C14.0688 20.1 14.2812 20.0125 13.9625 20C13.7687 19.9938 13.5813 20.025 13.4062 20.1063C13.175 20.1313 12.9438 20.1188 12.7188 20.0688C12.525 20.0188 12.325 20.025 12.1375 20.0813L11.2625 20.1438L11.05 20.2V20.1313L11.0375 20.125L10.9187 20.1063H10.7875V20.0375C10.725 20.0813 10.6438 20.0625 10.6375 20.0188C10.6312 19.975 10.5063 19.975 10.4688 19.9688C10.4312 19.9625 10.35 19.925 10.275 19.9125H10.2063C10.1687 19.9188 10.1375 19.925 10.1 19.9313C10.05 19.9438 10.0125 19.925 9.95625 19.9313C9.91875 19.9438 9.875 19.9438 9.8375 19.9438C9.78125 19.9313 9.725 19.9313 9.675 19.9438C9.6375 19.9625 9.725 19.9688 9.675 20.0188C9.625 20.0625 9.625 20.0625 9.5875 20.0563C9.55 20.0438 9.5875 19.9938 9.5875 19.9938L9.5125 19.9813L9.4375 20.0188C9.3875 20.0438 9.33125 20.0563 9.275 20.0625C9.20625 20.075 9.14375 20.0938 9.08125 20.1188L8.96875 20.1813C8.8 20.1438 8.61875 20.1125 8.43125 20.0875V20.175L7.9875 20.1188L7.9375 20.1063C7.80625 20.1688 7.6625 20.2125 7.51875 20.225C7.51875 20.225 7.60625 20.1875 7.58125 20.1563L7.48125 20.1813C7.43125 20.2063 7.4125 20.2063 7.4125 20.1813V20.1563L7.34375 20.175C7.31875 20.2 7.2875 20.2188 7.25 20.2375L7.1375 20.2563L6.9125 20.3063C6.89375 20.2938 6.86875 20.2813 6.84375 20.275C6.79375 20.2625 6.7875 20.3188 6.7875 20.3188L6.88125 20.35C6.76875 20.3625 6.65625 20.3688 6.54375 20.375L6.4875 20.3063C6.4875 20.3063 6.51875 20.2625 6.4875 20.2625C6.45 20.2563 6.40625 20.2688 6.38125 20.3V20.325L6.36875 20.3688L6.1125 20.3563L6.06875 20.3063L6 20.275L5.8875 20.2563C5.8625 20.2438 5.84375 20.2188 5.83125 20.2L5.725 20.1875L5.66875 20.2L5.64375 20.1875L5.59375 20.175C5.55625 20.1625 5.54375 20.1938 5.5375 20.2125V20.2188L5.63125 20.25C5.51875 20.2625 5.4625 20.35 5.34375 20.35L5.30625 20.3063L5.2875 20.2875C5.2875 20.2875 5.31875 20.2438 5.2875 20.2438C5.25 20.2375 5.2125 20.25 5.18125 20.275V20.3V20.3188L5.175 20.3438C5.1 20.3438 5.0375 20.3938 4.96875 20.3875H4.93125L4.8375 20.4813L4.76875 20.45L4.65625 20.5625C4.63125 20.55 4.6125 20.525 4.6 20.5063C4.55 20.5 4.5125 20.5938 4.48125 20.5875L4.4125 20.575C4.4125 20.5875 4.40625 20.5875 4.4 20.5938C4.3875 20.5813 4.38125 20.5625 4.375 20.55C4.35625 20.4813 4.34375 20.575 4.3375 20.4813L4.2 20.4L4.15625 20.3438L4.08125 20.2875L4.0625 20.25C4.01875 20.325 3.9625 20.1625 3.9625 20.1625C3.9625 20.1625 4.025 20.0875 3.9625 20.0563C3.9 20.025 3.80625 20.1125 3.80625 20.1125C3.7375 20.1125 3.68125 20.0625 3.66875 20C3.6625 19.95 3.625 19.9188 3.575 19.925C3.56875 19.925 3.55625 19.925 3.55 19.9313C3.4875 19.9063 3.425 19.875 3.3625 19.8375H3.2875L3.34375 19.7875V19.7813V19.75L3.325 19.725L3.38125 19.6813C3.3375 19.6938 3.3375 19.6688 3.38125 19.6375C3.425 19.6063 3.4 19.5875 3.40625 19.575C3.4125 19.5625 3.425 19.5313 3.43125 19.5063V19.4938C3.425 19.4875 3.4125 19.4813 3.40625 19.4813C3.39375 19.4813 3.40625 19.4563 3.3875 19.45C3.36875 19.4438 3.3625 19.4438 3.3625 19.4313C3.3625 19.4188 3.3625 19.3938 3.34375 19.3938C3.325 19.3938 3.325 19.4188 3.28125 19.425C3.2375 19.4313 3.23125 19.4313 3.2375 19.4188C3.24375 19.4063 3.29375 19.3938 3.29375 19.3938V19.3688H3.25C3.23125 19.3625 3.20625 19.3563 3.19375 19.3438C3.16875 19.3313 3.15 19.3188 3.125 19.3063L3.05625 19.2938C3.075 19.225 3.0875 19.1625 3.1 19.0938L3.025 19.1125L3.05 18.9438L3.05625 18.925C2.99375 18.9 2.94375 18.85 2.91875 18.7938C2.91875 18.7938 2.9625 18.8188 2.9875 18.8063L2.95625 18.775C2.93125 18.7625 2.925 18.75 2.95625 18.75H2.98125L2.95625 18.725C2.93125 18.7188 2.9125 18.7063 2.89375 18.6938L2.875 18.65L2.81875 18.55C2.83125 18.5438 2.8375 18.5313 2.84375 18.5188C2.85625 18.5 2.8 18.5 2.8 18.5L2.775 18.5438C2.75625 18.5 2.75 18.45 2.75 18.4L2.8125 18.3688C2.8125 18.3688 2.85625 18.3813 2.85625 18.3688C2.85625 18.3375 2.81875 18.325 2.81875 18.325H2.79375H2.75C2.75 18.2875 2.75625 18.25 2.7625 18.2125L2.8125 18.1938L2.84375 18.1625L2.8625 18.1125C2.88125 18.1 2.9 18.0938 2.91875 18.0875L2.93125 18.0438L2.91875 18.0063L2.93125 17.9938L2.95 17.975C2.9625 17.9563 2.93125 17.95 2.91875 17.95H2.90625L2.875 17.9938C2.8625 17.9438 2.775 17.9125 2.775 17.8563L2.81875 17.8375L2.84375 17.8313C2.84375 17.8313 2.8875 17.8438 2.8875 17.8313C2.89375 17.7938 2.85625 17.7813 2.85625 17.7813H2.83125H2.8125H2.7875C2.7875 17.7438 2.74375 17.7125 2.75 17.6813V17.6625L2.6625 17.6125L2.7 17.5813L2.63125 17.5438L2.6375 17.5063L2.65625 17.5C2.65625 17.5 2.64375 17.4938 2.64375 17.4875L2.6625 17.3875L2.675 17.3313C2.59375 17.2 2.75 16.8563 2.75 16.8563C2.75 16.8563 2.83125 17.0875 2.85625 16.7438C2.86875 16.5375 2.84375 16.3313 2.76875 16.1375C2.75 15.8875 2.775 15.6313 2.825 15.3875C2.88125 15.1813 2.88125 14.9625 2.8375 14.75L2.80625 13.7875L2.75625 13.5563H2.8125L2.81875 13.5375L2.84375 13.4063V13.2625H2.9125C2.86875 13.1938 2.8875 13.1063 2.9375 13.1C2.9875 13.0938 2.9875 12.9563 2.99375 12.9125C3 12.875 3.0375 12.7813 3.05 12.7V12.625C3.05 12.5875 3.04375 12.55 3.0375 12.5125C3.03125 12.4563 3.05 12.4188 3.0375 12.3563C3.025 12.3125 3.025 12.2688 3.03125 12.225C3.04375 12.1625 3.04375 12.1063 3.03125 12.0438C3.0125 12 3.00625 12.1 2.95625 12.0438C2.9125 11.9875 2.9125 11.9875 2.925 11.95C2.9375 11.9125 2.9875 11.95 2.9875 11.95L3 11.8688L2.9625 11.7813C2.94375 11.725 2.93125 11.6625 2.925 11.6063C2.9125 11.5313 2.9 11.4625 2.875 11.3938L2.81875 11.275C2.8625 11.0875 2.9 10.8938 2.93125 10.6875H2.875L2.94375 10.1938L2.95625 10.1375C2.89375 9.9875 2.85625 9.83125 2.84375 9.66875C2.84375 9.66875 2.88125 9.76875 2.9125 9.7375L2.8875 9.625C2.86875 9.56875 2.8625 9.55 2.8875 9.55H2.9125L2.89375 9.475C2.86875 9.44375 2.85 9.40625 2.8375 9.36875L2.825 9.25L2.78125 9.00625C2.79375 8.98125 2.80625 8.95625 2.8125 8.93125C2.81875 8.90625 2.80625 8.88125 2.78125 8.86875C2.775 8.86875 2.775 8.86875 2.76875 8.86875L2.7375 8.975C2.73125 8.85625 2.725 8.73125 2.725 8.6L2.79375 8.5375C2.79375 8.5375 2.8375 8.575 2.8375 8.5375C2.84375 8.49375 2.8375 8.45 2.80625 8.41875H2.7875L2.74375 8.40625L2.76875 8.13125L2.81875 8.0875L2.85625 8.0125L2.88125 7.89375C2.9 7.86875 2.91875 7.85 2.94375 7.8375L2.9625 7.725L2.95 7.6625L2.9625 7.6375L2.98125 7.59375C2.99375 7.575 2.99375 7.55 2.975 7.5375C2.96875 7.53125 2.95625 7.525 2.95 7.525H2.94375L2.90625 7.61875C2.90625 7.50625 2.81875 7.4375 2.825 7.31875L2.86875 7.28125L2.89375 7.2625C2.89375 7.2625 2.9375 7.29375 2.9375 7.2625C2.95 7.225 2.9375 7.18125 2.9125 7.15H2.8875L2.86875 7.14375L2.84375 7.1375C2.85625 7.06875 2.80625 7 2.81875 6.93125V6.9375C2.83125 6.93125 2.84375 6.93125 2.85625 6.93125C2.88125 6.875 2.90625 6.825 2.925 6.76875L2.975 6.7125L3.01875 6.6125L3.03125 6.59375C2.94375 6.5625 3.09375 6.45625 3.09375 6.45625C3.09375 6.45625 3.18125 6.51875 3.19375 6.41875C3.20625 6.31875 3.1 6.25625 3.1 6.25625C3.08125 6.1875 3.10625 6.1125 3.1625 6.0625C3.2125 6.03125 3.225 5.96875 3.19375 5.925C3.19375 5.91875 3.1875 5.9125 3.18125 5.9125C3.18125 5.8375 3.18125 5.75625 3.18125 5.68125L3.14375 5.6125L3.2125 5.63125H3.225L3.25625 5.6125L3.26875 5.58125L3.3375 5.60625C3.3 5.58125 3.325 5.56875 3.36875 5.58125C3.39375 5.59375 3.41875 5.5875 3.4375 5.56875C3.44375 5.56875 3.4875 5.5625 3.50625 5.55625L3.5125 5.54375C3.5125 5.5375 3.5125 5.53125 3.50625 5.51875C3.5 5.5125 3.51875 5.50625 3.51875 5.49375C3.5125 5.48125 3.50625 5.475 3.51875 5.46875C3.53125 5.4625 3.54375 5.4625 3.53125 5.44375C3.51875 5.43125 3.50625 5.44375 3.46875 5.40625C3.43125 5.36875 3.43125 5.375 3.44375 5.375C3.4625 5.38125 3.48125 5.39375 3.5 5.40625H3.51875L3.49375 5.375C3.48125 5.3625 3.475 5.34375 3.475 5.33125C3.46875 5.3125 3.4625 5.2875 3.45 5.26875L3.4125 5.21875L3.5625 5.19375L3.50625 5.14375L3.6125 5.11875H3.625C3.6 5.075 3.59375 5.025 3.60625 4.98125C3.6125 5.00625 3.625 5.025 3.64375 5.0375V5.00625C3.6375 4.98125 3.6375 4.975 3.65625 5L3.675 5.01875V5C3.6625 4.98125 3.65625 4.9625 3.65 4.94375L3.65625 4.91875L3.6625 4.85625L3.69375 4.875C3.7125 4.88125 3.68125 4.83125 3.68125 4.83125L3.61875 4.8125C3.63125 4.79375 3.64375 4.775 3.6625 4.75625L3.70625 4.80625C3.70625 4.80625 3.725 4.84375 3.73125 4.84375C3.7375 4.84375 3.73125 4.80625 3.73125 4.80625L3.71875 4.7875L3.7 4.75C3.71875 4.74375 3.7375 4.7375 3.75 4.74375L3.78125 4.7875L3.80625 4.8125L3.83125 4.825L3.8625 4.875L3.88125 4.88125V4.86875L3.8875 4.88125L3.9 4.89375C3.9125 4.9 3.9 4.875 3.9 4.8625V4.85L3.875 4.825C3.8875 4.8125 3.8625 4.71875 3.88125 4.7125L3.9 4.75L3.90625 4.76875L3.9375 4.8125C3.95 4.8125 3.9375 4.775 3.9375 4.775L3.93125 4.7625V4.74375L3.91875 4.7125C3.93125 4.7125 3.925 4.6625 3.94375 4.66875H3.95V4.575L3.96875 4.60625V4.49375L3.9875 4.55C4 4.55625 3.9875 4.4625 4 4.4625L4.0125 4.46875C4.0125 4.36875 4.03125 4.5375 4.01875 4.44375C4.01875 4.44375 4.03125 4.475 4.04375 4.33125V4.3125H4.0625C4.0625 4.3125 3.9625 4.5125 4.25625 4.5375L4.55625 4.56875C4.91875 4.60625 5.4375 4.6375 5.90625 4.6625L6.1625 4.6375C6.325 4.60625 6.48125 4.68125 6.5625 4.825L6.7625 4.7875L6.94375 4.8C6.94375 4.8 6.85 4.84375 6.94375 4.85625C7.01875 4.875 7.1 4.8625 7.16875 4.825C7.3 4.78125 7.06875 4.775 7.16875 4.75625C7.30625 4.74375 7.45 4.74375 7.5875 4.75625C7.6875 4.7625 7.7875 4.75625 7.8875 4.75H8.25625L8.525 4.7375L8.69375 4.74375L9.1875 4.80625C9.28125 4.8125 9.60625 4.81875 9.61875 4.8625C9.63125 4.9125 9.84375 4.93125 10 4.8875V4.9625H10.3438L10.65 4.9875L10.6875 4.99375V5.0625L10.95 5.10625L11.0625 5.0875C11.1938 5.125 11.3188 5.1625 11.425 5.20625L11.4688 5.28125C11.7188 5.2 11.975 5.14375 12.2375 5.1C12.35 5.0875 12.525 5.0625 12.7375 5.05L12.875 5.0375L13.1438 5.00625L13.3438 4.96875L13.525 4.98125C13.525 4.98125 13.4688 5.0125 13.4937 5.03125C13.5 5.0375 13.5125 5.04375 13.525 5.04375C13.5562 5.05 13.5938 5.05 13.625 5.04375C13.6687 5.03125 13.7125 5.025 13.75 5.00625C13.8813 4.9625 13.65 4.95 13.75 4.93125C13.8875 4.91875 14.0312 4.91875 14.1687 4.93125C14.2688 4.9375 14.3688 4.93125 14.475 4.925H14.8438L15.1125 4.9125H15.2812L15.7063 4.9625L15.7812 4.96875C15.9125 4.96875 16.05 4.98125 16.1812 5.00625L16.3875 4.9625C16.4938 4.95 16.675 4.925 16.8875 4.9125C17.025 4.90625 17.1625 4.89375 17.3 4.86875L17.5 4.83125L17.6812 4.84375C17.6812 4.84375 17.5875 4.89375 17.6812 4.90625C17.7563 4.91875 17.8375 4.9125 17.9062 4.875C18.0375 4.83125 17.8062 4.81875 17.9062 4.8H17.9438C18.0688 4.79375 18.2 4.79375 18.325 4.8C18.425 4.80625 18.525 4.8 18.6313 4.7875H19L19.2687 4.76875H19.2938H19.3375C19.475 4.7625 19.6125 4.75 19.75 4.725L19.95 4.6875L20.1375 4.7C20.1375 4.7 20.0438 4.75 20.1375 4.7625C20.2125 4.775 20.2937 4.7625 20.3625 4.725C20.4937 4.68125 20.2625 4.675 20.3625 4.65625C20.5 4.64375 20.6437 4.64375 20.7812 4.65625C20.8813 4.6625 20.9812 4.65625 21.0875 4.64375H21.4562L21.725 4.625H21.8937L22.3937 4.675C22.4875 4.675 22.8187 4.675 22.8312 4.725C22.8438 4.775 23.0562 4.7875 23.2125 4.74375V4.81875H23.5562L23.8625 4.83125L23.9 4.8375V4.9125L24.1625 4.95L24.25 4.9375C24.375 4.96875 24.4937 5.00625 24.6 5.04375C24.7375 5.025 24.6625 5 24.7938 4.95C24.9062 4.9 25.0063 4.83125 25.0875 4.7375C25.2563 4.75625 25.4187 4.7625 25.5875 4.75625C25.95 4.75 25.5875 4.75625 26 4.69375C26.4125 4.63125 26.2938 4.54375 26.6562 4.56875C26.8375 4.5875 27.025 4.58125 27.2062 4.54375C27.275 4.50625 27.35 4.475 27.4312 4.44375C27.475 4.43125 27.5187 4.41875 27.5625 4.40625V4.45625L27.5938 4.425L27.6187 4.44375C27.6187 4.44375 27.6 4.4875 27.6125 4.5C27.625 4.5125 27.625 4.5125 27.65 4.46875C27.675 4.425 27.65 4.4125 27.6625 4.4C27.675 4.3875 27.7063 4.4 27.725 4.4125C27.7375 4.425 27.75 4.4125 27.7687 4.4125C27.7875 4.4125 27.8 4.43125 27.825 4.425H27.8687L27.8937 4.4375C27.9187 4.4625 27.9375 4.4875 27.9562 4.5125C27.9688 4.525 28.0188 4.5375 28.0063 4.5875C27.9937 4.63125 28.0187 4.6625 28.0562 4.63125L28.0312 4.7L28.0812 4.71875L28.125 4.75V4.7625L28.1 4.83125L28.125 4.875L28.15 4.8625C28.1562 4.90625 28.1562 4.95 28.1562 4.99375L28.1313 5.0625C28.1938 5.0125 28.2562 4.975 28.3312 4.94375C28.3687 4.9375 28.4 4.93125 28.4375 4.9375H28.4625H28.525C28.5375 4.9375 28.55 4.925 28.5625 4.9125V4.925L28.5375 4.96875V4.98125L28.5625 4.95C28.5938 4.9125 28.5875 4.9 28.6 4.8875C28.6125 4.875 28.6187 4.8875 28.6187 4.9C28.6187 4.9125 28.625 4.9 28.6375 4.9C28.65 4.9 28.6375 4.9125 28.6562 4.9125H28.6812V4.925C28.675 4.94375 28.6688 4.9625 28.6625 4.975V4.98125C28.6625 4.99375 28.6562 5.00625 28.6437 5.01875L28.6875 5C28.7062 4.99375 28.725 4.9875 28.7437 4.99375H28.7938H28.8312V5.0125C28.8312 5.0125 28.7875 5.025 28.775 5.0375C28.7687 5.05 28.775 5.05625 28.8188 5.05625C28.8625 5.05625 28.8563 5.01875 28.8813 5.025H28.8875C28.9 5.04375 28.9125 5.0625 28.9125 5.08125C28.9125 5.1 28.925 5.10625 28.9438 5.125C28.9625 5.14375 28.95 5.1625 28.9688 5.18125C28.9813 5.19375 28.9937 5.2 29 5.21875H29.0063C29.025 5.2375 29.0438 5.25625 29.0688 5.26875L29.1125 5.2875V5.31875C29.1125 5.31875 29.0625 5.31875 29.0562 5.3375C29.05 5.35625 29.05 5.35625 29.1 5.3625C29.15 5.36875 29.1438 5.33125 29.1688 5.34375C29.1938 5.35625 29.1875 5.39375 29.1875 5.4125C29.1875 5.43125 29.1938 5.4375 29.2125 5.4625C29.2312 5.4875 29.2125 5.50625 29.225 5.525C29.2375 5.5375 29.2437 5.55 29.25 5.56875V5.6C29.2375 5.63125 29.225 5.6625 29.2125 5.69375C29.2125 5.7125 29.2125 5.76875 29.1688 5.775C29.125 5.78125 29.1125 5.81875 29.1562 5.84375L29.0875 5.85625L29.0938 5.9125L29.075 5.9625L29.0688 5.96875L28.9937 5.975L28.9562 6.01875L28.9813 6.0375C28.9438 6.0625 28.9062 6.08125 28.8687 6.09375C28.8813 6.1125 28.9125 6.1 28.9625 6.11875C29.0312 6.1375 29.1 6.15 29.1688 6.1625C29.15 6.1875 29.1375 6.2125 29.1437 6.24375C29.1437 6.30625 29.1438 6.24375 29.1938 6.3125C29.2437 6.38125 29.3312 6.33125 29.3 6.55625C29.2812 6.68125 29.3125 6.8125 29.3875 6.91875L29.4125 6.94375C29.4 7.04375 29.3813 7.14375 29.3687 7.2375L29.3875 7.375C29.4062 7.54375 29.1938 7.58125 29.1938 7.58125L29.225 7.69375L29.2125 7.79375C29.2125 7.79375 29.1687 7.74375 29.15 7.79375C29.1375 7.84375 29.1375 7.84375 29.1812 7.91875C29.225 7.99375 29.2375 7.86875 29.25 7.91875C29.2625 7.99375 29.2625 8.075 29.25 8.15C29.2437 8.20625 29.25 8.2625 29.2563 8.3125C29.2625 8.39375 29.2437 8.44375 29.2563 8.5125C29.2625 8.5625 29.2687 8.60625 29.275 8.65625V8.74375C29.2625 8.85625 29.225 8.96875 29.2188 9.0125C29.2125 9.05625 29.2188 9.2375 29.1625 9.24375C29.1063 9.25 29.1 9.3625 29.1437 9.44375H29.075V9.625L29.0562 9.7875L29.05 9.80625H28.975L28.9438 9.95L28.9688 10.0125C28.9375 10.0813 28.9 10.15 28.8563 10.2125L28.7812 10.2375C28.8625 10.3688 28.9312 10.5063 28.9875 10.65C29.0125 10.7375 29.0375 10.825 29.05 10.9188L29.0625 10.9938C29.0688 11.0438 29.0813 11.0938 29.1 11.1375L29.1375 11.2438L29.125 11.3438C29.125 11.3438 29.0938 11.3125 29.075 11.3313C29.0688 11.3375 29.0688 11.3438 29.0625 11.3438C29.0562 11.3625 29.0562 11.3813 29.0625 11.4C29.075 11.425 29.0875 11.4438 29.1063 11.4688C29.1562 11.5375 29.1562 11.4125 29.1812 11.4688C29.1938 11.5438 29.2 11.6188 29.1875 11.6938C29.1875 11.75 29.1937 11.8063 29.2062 11.8563C29.2188 11.9313 29.2062 11.9875 29.2125 12.0563C29.225 12.1063 29.2312 12.15 29.2375 12.2V12.2938C29.2312 12.375 29.2125 12.4688 29.2 12.525V12.5625C29.2063 12.6313 29.2 12.7 29.1812 12.7688L29.2313 12.8688C29.2625 12.95 29.2875 13.0375 29.3062 13.1188C29.3188 13.1875 29.3375 13.2563 29.3625 13.325L29.4062 13.425L29.4 13.5188C29.4 13.5188 29.35 13.475 29.3375 13.5188C29.3312 13.5625 29.3313 13.5688 29.3813 13.6313C29.4312 13.6938 29.4312 13.5813 29.4562 13.6313V13.65C29.4688 13.7125 29.475 13.7813 29.4688 13.85C29.4688 13.9 29.475 13.9563 29.4937 14.0063C29.5063 14.0813 29.4937 14.125 29.5063 14.1938C29.5188 14.2375 29.525 14.2813 29.5312 14.3313V14.3563V14.375C29.5438 14.4438 29.5625 14.5125 29.5875 14.5813L29.625 14.675L29.6125 14.7625C29.6125 14.7625 29.5625 14.7188 29.55 14.7625C29.5375 14.8063 29.5375 14.8063 29.5875 14.875C29.6313 14.9438 29.6375 14.825 29.6562 14.875C29.6688 14.9438 29.6688 15.0125 29.6562 15.0813C29.65 15.1313 29.6562 15.1813 29.6625 15.2313C29.6688 15.3 29.65 15.35 29.6625 15.4125C29.6688 15.4563 29.675 15.5 29.675 15.5438L29.6938 15.6313Z" fill="#0041E6"/>
<path d="M26.6312 14.6875C26.6625 14.5875 26.6937 14.6188 26.55 14.5063C26.4562 14.4813 26.3625 14.45 26.2687 14.4063C26.225 14.3375 26.0812 14.4313 26.1062 14.3375L25.3125 14.2625L25.0312 14.2063L24.5062 14.1625L24.4187 14.15C24.1625 14.1813 23.9062 14.1625 23.6625 14.0938C23.6625 14.0938 24.0312 14.0063 23.475 13.9938C23.15 13.9875 22.825 14.025 22.5062 14.1063C22.1062 14.1313 21.7062 14.1188 21.3062 14.075C20.9687 14.0313 20.625 14.0313 20.2937 14.0875L18.7625 14.1563L18.3937 14.2125V14.1375L18.3687 14.1313L18.1625 14.1125H17.9312V14.0375C17.8187 14.0813 17.6812 14.0688 17.6687 14.0188C17.6562 13.9688 17.4375 13.975 17.3687 13.9688C17.3062 13.9625 17.1625 13.9313 17.025 13.9188H16.9125C16.8437 13.9188 16.8 13.9313 16.7312 13.9375C16.6437 13.95 16.5812 13.9313 16.4812 13.9375C16.4125 13.95 16.3437 13.9563 16.275 13.95C16.1812 13.9375 16.0812 13.9375 15.9875 13.95C15.9187 13.9688 16.075 13.975 15.9875 14.025C15.9 14.0688 15.9 14.0688 15.8375 14.0625C15.775 14.05 15.8375 14 15.8375 14L15.7125 13.9875L15.575 14.025C15.4812 14.05 15.3937 14.0625 15.3 14.0688C15.1875 14.0813 15.075 14.1 14.9625 14.125L14.775 14.1875C14.475 14.15 14.1625 14.1188 13.8312 14.0938V14.1688L13.05 14.1188L12.9625 14.1063C12.7187 14.175 12.4687 14.2125 12.2187 14.2313C12.2187 14.2313 12.375 14.1938 12.3312 14.1625H12.3062L12.1312 14.1938C12.0437 14.2188 12.0125 14.2188 12.0125 14.1938V14.175L11.8937 14.1938C11.8437 14.2188 11.7875 14.2438 11.7312 14.2563L11.5437 14.275L11.1562 14.325C11.1187 14.3125 11.075 14.3063 11.0375 14.3C10.95 14.2875 10.9375 14.3438 10.9375 14.3438L11.1 14.375L10.5062 14.4L10.4062 14.3375C10.4062 14.3375 10.4625 14.2938 10.4062 14.2938C10.3437 14.2875 10.275 14.3 10.2187 14.3313V14.3563L10.1937 14.4L9.74999 14.3875L9.68124 14.3375L9.56249 14.3063L9.36249 14.2875C9.32499 14.275 9.29374 14.2563 9.26249 14.2313L9.08124 14.2188L8.97499 14.2313L8.93124 14.2188L8.85624 14.2063C8.79374 14.1938 8.76874 14.225 8.76249 14.2438V14.25L8.92499 14.2813C8.73124 14.2938 8.61874 14.3813 8.41874 14.3875L8.34999 14.3438L8.31874 14.325C8.31874 14.325 8.37499 14.2813 8.31874 14.2813C8.25624 14.275 8.18749 14.2875 8.13124 14.3188V14.3438L8.11874 14.3625L8.10624 14.3875C7.97499 14.3875 7.86874 14.4375 7.74374 14.4313H7.68124L7.51249 14.525L7.39374 14.4938L7.19999 14.6063C7.16249 14.5938 7.13124 14.575 7.09999 14.55C7.01249 14.5438 6.93749 14.6375 6.88749 14.6375L6.76249 14.6313C6.70624 14.7313 6.67499 14.5625 6.65624 14.6563C6.65624 14.6563 6.56874 14.625 6.34999 14.7688C6.13749 14.9125 6.14374 14.9375 6.14374 14.9375C6.14374 14.9375 6.11249 14.95 6.05624 15.0375C5.99999 15.125 6.06874 15.2063 6.20624 15.2125C6.34374 15.2188 6.24374 15.3625 6.24374 15.3625C6.24374 15.3625 6.27499 15.425 6.44374 15.425C6.61249 15.425 6.37499 15.5375 6.23124 15.5938C6.08749 15.65 6.17499 15.825 6.16874 15.8688C6.16249 15.9125 5.94374 16.175 6.14374 16.2125C6.28124 16.2375 6.41874 16.2375 6.55624 16.2188C6.55624 16.2188 6.44374 16.4125 6.71874 16.45L6.98749 16.4875C7.31249 16.5313 7.74999 16.5563 8.14374 16.5688L8.36249 16.5438C8.49999 16.5188 8.64374 16.5938 8.69999 16.725L8.86249 16.6875L9.01874 16.7C9.01874 16.7 8.94374 16.75 9.01874 16.7625C9.09374 16.775 9.09374 16.775 9.20624 16.725C9.31874 16.675 9.12499 16.675 9.20624 16.6563C9.32499 16.6438 9.44374 16.6438 9.55624 16.6563C9.64374 16.6563 9.72499 16.6563 9.81249 16.6438C9.93124 16.6313 10.0125 16.65 10.1187 16.6438L10.3437 16.625H10.4875C10.6562 16.6375 10.8375 16.6688 10.9062 16.675C10.975 16.6813 11.2625 16.675 11.2687 16.725C11.2812 16.775 11.4562 16.7875 11.5875 16.7438V16.8188H11.875L12.1312 16.8375L12.1625 16.8438V16.9188L12.3875 16.9563L12.4812 16.9313C12.5875 16.9625 12.6875 17 12.7875 17.0438L12.825 17.1188C13.0312 17.0375 13.25 16.9688 13.4687 16.9188C13.5562 16.9063 13.7125 16.875 13.8875 16.8625L14 16.85L14.225 16.8188L14.3875 16.7813L14.5437 16.7938C14.5437 16.7938 14.5 16.825 14.5187 16.8438C14.525 16.85 14.5312 16.8563 14.5437 16.8563C14.5687 16.8625 14.6 16.8625 14.625 16.8625C14.6625 16.85 14.6937 16.8375 14.7312 16.825C14.8437 16.775 14.65 16.775 14.7312 16.75C14.85 16.7375 14.9687 16.7375 15.0812 16.75C15.1687 16.7563 15.25 16.75 15.3375 16.7375C15.4562 16.725 15.5375 16.7438 15.6437 16.7375L15.8687 16.7188H16.0125C16.1437 16.725 16.2812 16.75 16.3687 16.7625L16.4312 16.7688C16.5437 16.7688 16.6562 16.7813 16.7687 16.8L16.9375 16.7563C17.025 16.7438 17.1812 16.7125 17.35 16.7C17.4625 16.6938 17.5812 16.675 17.6937 16.6563L17.8562 16.6188L18.0125 16.6313C18.0125 16.6313 17.9375 16.6813 18.0125 16.6938C18.0875 16.7063 18.0875 16.7063 18.2 16.6563C18.3062 16.6125 18.1187 16.6063 18.2 16.5813H18.2312C18.3375 16.575 18.4437 16.575 18.55 16.5813C18.6375 16.5875 18.7187 16.5813 18.8062 16.5688C18.925 16.5563 19.0062 16.575 19.1125 16.5688L19.3375 16.55H19.3562H19.3937C19.5062 16.5438 19.6187 16.525 19.7312 16.5063L19.8937 16.4688L20.05 16.4813C20.05 16.4813 19.975 16.5313 20.05 16.5438C20.125 16.5563 20.125 16.5563 20.2375 16.5063C20.3437 16.4563 20.1562 16.4563 20.2375 16.4375C20.3562 16.425 20.475 16.425 20.5937 16.4375C20.6812 16.4375 20.7625 16.4375 20.85 16.425C20.9687 16.4125 21.05 16.4313 21.1562 16.425L21.3812 16.4063H21.525C21.6875 16.4188 21.875 16.45 21.9437 16.4563C22.0125 16.4625 22.2937 16.4563 22.3125 16.5063C22.325 16.5563 22.5 16.5688 22.6312 16.525V16.6H22.9187L23.175 16.6188L23.2062 16.625V16.7L23.4312 16.7375L23.525 16.7125C23.6312 16.75 23.7312 16.7813 23.8187 16.825C23.9312 16.8125 23.8687 16.7813 23.9812 16.7313C24.075 16.6813 24.1625 16.6125 24.225 16.5188C24.3625 16.5375 24.5062 16.55 24.6437 16.5438C24.9437 16.5438 24.6437 16.5438 24.9937 16.4875C25.3437 16.4313 25.2375 16.3375 25.5375 16.375C25.6875 16.4 25.8437 16.3938 25.9937 16.3563C26.0562 16.3188 26.1125 16.2875 26.1812 16.2625C26.2437 16.2438 26.3 16.2125 26.3562 16.175C26.425 16.1625 26.475 16.0938 26.4625 16.025V16.0188C26.4375 15.875 26.625 16.0563 26.5937 15.975C26.7 15.775 26.6875 15.5375 26.5687 15.35C26.525 15.15 26.4 15.2 26.4812 15.025C26.5125 14.85 26.5312 15.0188 26.6312 14.6875Z" fill="#0041E6"/>
<path d="M6.76247 9.39375C6.89372 9.4 6.79997 9.54375 6.79997 9.54375C6.79997 9.54375 6.83122 9.60625 6.99372 9.60625C7.15622 9.60625 6.93747 9.71875 6.79997 9.76875C6.66247 9.825 6.74997 10 6.74372 10.0375C6.73747 10.0813 6.53747 10.3438 6.72497 10.3813C6.84997 10.4063 6.98122 10.4125 7.11247 10.3938C7.11247 10.3938 7.01247 10.5875 7.26872 10.625L7.51872 10.6688C7.82497 10.7125 8.23747 10.7375 8.59997 10.7563L8.79997 10.7313C8.93747 10.7125 9.06872 10.7875 9.11247 10.9125L9.26872 10.875L9.41247 10.8875C9.41247 10.8875 9.34372 10.9375 9.41247 10.95C9.48122 10.9625 9.48747 10.9625 9.58747 10.9125C9.68747 10.8688 9.51247 10.8625 9.58747 10.8438C9.69997 10.8313 9.81247 10.8313 9.92497 10.8438C10.0062 10.85 10.0812 10.8438 10.1625 10.8313C10.275 10.8188 10.35 10.8375 10.45 10.8313L10.6625 10.8125H10.7937C10.95 10.825 11.1187 10.8625 11.1812 10.8688C11.25 10.875 11.5187 10.8688 11.525 10.925C11.5312 10.9813 11.7 10.9875 11.825 10.9438V11.0188H12.0937L12.3312 11.0375L12.3625 11.0438V11.1188L12.5687 11.1563L12.6562 11.1375C12.7562 11.1688 12.85 11.2063 12.9437 11.25L12.9812 11.325C13.175 11.2438 13.375 11.1813 13.5812 11.1313C13.6625 11.1188 13.8062 11.0938 13.9687 11.075L14.0812 11.0625L14.2937 11.0313L14.45 10.9938L14.5937 11.0063C14.5937 11.0063 14.55 11.0375 14.5687 11.0563C14.575 11.0625 14.5812 11.0688 14.5937 11.0688C14.6187 11.075 14.6437 11.075 14.6687 11.0688C14.7 11.0563 14.7375 11.0438 14.7687 11.0313C14.8687 10.9875 14.6937 10.9813 14.7687 10.9563C14.8812 10.9438 14.9937 10.9438 15.1062 10.9563C15.1875 10.9625 15.2625 10.9563 15.3437 10.9438C15.4562 10.9313 15.5312 10.95 15.6312 10.9438L15.8375 10.925H15.9687C16.0875 10.9375 16.2187 10.9563 16.3062 10.9688L16.3625 10.975C16.4687 10.975 16.575 10.9875 16.675 11.0063L16.8375 10.9625C16.9187 10.95 17.0625 10.925 17.225 10.9063C17.3312 10.9 17.4375 10.8813 17.5437 10.8625L17.7 10.825L17.8437 10.8375C17.8437 10.8375 17.775 10.8875 17.8437 10.9C17.9125 10.9125 17.9187 10.9125 18.0187 10.8625C18.1187 10.8125 17.9437 10.8125 18.0187 10.7938H18.05C18.15 10.7875 18.25 10.7875 18.35 10.7938C18.4312 10.8 18.5062 10.7938 18.5875 10.7813C18.7 10.7688 18.775 10.7875 18.875 10.7813L19.0875 10.7625H19.1062H19.1375C19.2437 10.7563 19.35 10.7375 19.4562 10.7188L19.6125 10.6813L19.7562 10.6938C19.7562 10.6938 19.6812 10.7438 19.7562 10.7563C19.8312 10.7688 19.8312 10.7688 19.9312 10.7188C20.0312 10.6688 19.8562 10.6688 19.9312 10.65C20.0437 10.6375 20.1562 10.6375 20.2687 10.65C20.35 10.6563 20.425 10.65 20.5062 10.6375C20.6187 10.625 20.6937 10.6438 20.7937 10.6375L21.0062 10.6188H21.1375C21.2937 10.6313 21.4625 10.6625 21.5312 10.6688C21.6 10.675 21.8687 10.6688 21.875 10.725C21.8812 10.7813 22.05 10.7875 22.175 10.7438V10.8125H22.4437L22.6812 10.8313L22.7125 10.8375V10.9063L22.9187 10.9438L23.0062 10.925C23.1062 10.9625 23.2 10.9938 23.2812 11.0375C23.3937 11.025 23.3312 10.9938 23.4375 10.9438C23.5312 10.8938 23.6062 10.825 23.6687 10.7375C23.8 10.7625 23.9312 10.7688 24.0625 10.7625C24.3437 10.7625 24.0625 10.7625 24.3875 10.7063C24.7125 10.65 24.6187 10.5625 24.9 10.5938C25.0437 10.6188 25.1875 10.6125 25.3312 10.5813C25.3875 10.5438 25.4437 10.5125 25.5062 10.4875C25.5687 10.4688 25.6187 10.4375 25.6687 10.4C25.7375 10.3875 25.7812 10.3188 25.7687 10.2438C25.7687 10.2438 25.7687 10.2438 25.7687 10.2375C25.75 10.0938 25.9187 10.275 25.8937 10.1938C25.9937 9.99375 25.9937 9.7625 25.8875 9.56875C25.8375 9.40625 25.7187 9.45625 25.8 9.2875C25.8437 9.19375 25.8625 9.3625 25.9625 9.03125C25.9937 8.93125 26.025 8.9625 25.8937 8.85C25.8062 8.825 25.7187 8.7875 25.6312 8.75C25.5937 8.68125 25.4562 8.775 25.4812 8.675L24.7375 8.59375L24.475 8.5375L23.9812 8.4875L23.9 8.475C23.6625 8.50625 23.4187 8.48125 23.1875 8.4125C23.1875 8.4125 23.5312 8.325 23.0125 8.3125C22.7062 8.3 22.4 8.3375 22.1 8.4125C21.725 8.4375 21.3437 8.425 20.975 8.375C20.6562 8.325 20.3375 8.33125 20.0187 8.38125L18.5812 8.4375L18.2375 8.49375V8.41875L18.2125 8.4125L18.0187 8.39375H17.7937V8.3125C17.6937 8.35625 17.5562 8.3375 17.55 8.29375C17.5437 8.25 17.325 8.24375 17.2687 8.2375C17.2125 8.23125 17.075 8.19375 16.95 8.18125H16.8375C16.7687 8.18125 16.725 8.19375 16.6687 8.2C16.5812 8.2125 16.525 8.19375 16.4312 8.2C16.3687 8.2125 16.3 8.2125 16.2375 8.2125C16.15 8.2 16.0562 8.2 15.9687 8.2125C15.9062 8.23125 16.0562 8.2375 15.9687 8.2875C15.8812 8.33125 15.8812 8.33125 15.825 8.325C15.7687 8.31875 15.825 8.26875 15.825 8.26875L15.7062 8.25625L15.5812 8.29375C15.4937 8.31875 15.4062 8.33125 15.3187 8.3375C15.2125 8.35 15.1062 8.36875 15 8.39375L14.825 8.45625C14.5437 8.41875 14.25 8.3875 13.9375 8.35625V8.43125L13.2 8.375L13.1187 8.3625C12.8937 8.425 12.6562 8.46875 12.4187 8.48125C12.4187 8.48125 12.5687 8.44375 12.525 8.4125H12.5187L12.3562 8.4375C12.275 8.4625 12.2437 8.4625 12.2437 8.4375V8.4125L12.1312 8.43125C12.0812 8.45625 12.0312 8.475 11.975 8.49375L11.8 8.5125L11.4187 8.5625C11.3812 8.55 11.3437 8.5375 11.3062 8.53125C11.225 8.51875 11.2125 8.575 11.2125 8.575L11.3687 8.60625C11.1875 8.61875 11 8.625 10.8125 8.63125L10.7187 8.5625C10.7187 8.5625 10.7687 8.51875 10.7187 8.51875C10.6562 8.5125 10.5937 8.525 10.5437 8.55625V8.58125L10.5187 8.625L10.1 8.6125L10.0312 8.5625L9.91872 8.53125L9.73747 8.5125C9.69997 8.5 9.66872 8.48125 9.64372 8.45625L9.47497 8.44375L9.36872 8.45L9.32497 8.4375L9.25622 8.425C9.19372 8.4125 9.17497 8.44375 9.16872 8.45625V8.4625L9.32497 8.49375C9.14372 8.50625 9.03747 8.59375 8.84997 8.59375L8.78122 8.55625L8.74997 8.5375C8.74997 8.5375 8.79997 8.49375 8.74997 8.49375C8.68747 8.4875 8.62497 8.5 8.57497 8.53125V8.55625L8.56247 8.56875L8.54997 8.59375C8.43122 8.59375 8.32497 8.64375 8.21247 8.6375H8.14997L7.99372 8.73125L7.88122 8.7L7.69997 8.8125C7.66247 8.8 7.63122 8.78125 7.60622 8.75625C7.52497 8.75 7.45622 8.84375 7.40622 8.8375L7.29372 8.83125C7.24372 8.93125 7.20622 8.7625 7.19372 8.85625C7.19372 8.85625 7.11247 8.81875 6.91247 8.96875C6.71247 9.11875 6.71872 9.1375 6.71872 9.1375C6.71872 9.1375 6.68747 9.15 6.63747 9.2375C6.57497 9.30625 6.63122 9.3875 6.76247 9.39375Z" fill="#0041E6"/>
</svg>
