<svg width="32" height="32" viewBox="0 0 32 32" fill="none" xmlns="http://www.w3.org/2000/svg">
<g clip-path="url(#clip0_7664_50196)">
<path d="M31.5937 24.1562H31.5687L31.55 24.1375L31.525 24.1125C31.55 23.9375 31.525 23.775 31.55 23.6063L31.5625 23.5187L31.475 23.2875L31.5187 23.125L31.4125 22.8563C31.425 22.8063 31.45 22.7625 31.4812 22.725C31.4937 22.6063 31.4 22.5063 31.4062 22.4375V22.275C31.2937 22.2062 31.4687 22.15 31.3687 22.1375C31.3687 22.05 31.3437 21.9563 31.3 21.8813C31.2875 21.6375 31.2812 21.4 31.25 21.1437L31.2125 20.7563C31.175 20.5125 31.125 20.275 31.05 20.0438L31.0187 19.925C30.8687 19.6062 30.75 19.2687 30.6562 18.925C30.6562 18.925 30.975 19.35 30.6312 18.6437C30.4187 18.2312 30.1312 17.8687 29.7875 17.5562C29.7875 17.5562 29.2062 16.8625 28.6625 16.3C28.3375 15.9437 27.9437 15.6562 27.5062 15.45C26.8812 15.0812 26.2187 14.7937 25.525 14.5875C25.35 14.55 25.175 14.5312 25.0125 14.5062L25.0312 14.4312L25 14.4L24.7187 14.3062C24.6125 14.275 24.5 14.2687 24.3937 14.25L24.4062 14.175C24.2437 14.1937 24.05 14.15 24.0375 14.0937C24.025 14.0375 23.7125 13.9937 23.6187 13.9875C23.525 13.9812 23.325 13.925 23.1312 13.9062L22.9625 13.8937C22.875 13.8937 22.7875 13.9 22.7 13.9125C22.5687 13.9312 22.4812 13.9125 22.3375 13.9312C22.2375 13.95 22.1375 13.9562 22.0375 13.9562C21.9 13.95 21.7625 13.9687 21.625 14.0062C21.5312 14.0375 21.7562 14.0125 21.6375 14.0812C21.5187 14.15 21.5187 14.15 21.425 14.15C21.3312 14.15 21.4125 14.0875 21.4125 14.0875L21.2312 14.1L21.05 14.1687L20.675 14.3062C20.4812 14.3687 20.325 14.4375 20.225 14.4812C20.1437 14.525 20.0687 14.575 19.9937 14.625C19.6062 14.7125 19.2312 14.8312 18.8625 14.975C18.8562 14.9625 18.8437 14.9437 18.825 14.9375C18.7375 14.8812 18.6375 14.8625 18.5375 14.8875C18.425 14.85 18.3312 14.7812 18.2687 14.6875C18.225 14.6 18.1312 14.5562 18.0375 14.5625L17.6875 14.4312L17.5875 14.4375L17.625 14.375V14.3625L17.6 14.3187L17.5562 14.2937L17.5937 14.2312C17.55 14.2562 17.5312 14.2312 17.5625 14.1812C17.5875 14.1312 17.55 14.1125 17.5437 14.1C17.5375 14.0687 17.5312 14.0437 17.525 14.0187L17.5187 14.0125C17.5062 14.0125 17.4937 14.0125 17.4812 14.0125C17.4625 14.0125 17.4625 13.9875 17.4437 13.9875C17.425 13.9875 17.4187 13.9875 17.4062 13.975C17.4 13.9625 17.3875 13.9375 17.3687 13.95C17.35 13.9562 17.3687 13.9812 17.325 14.0125C17.2812 14.0437 17.2812 14.0437 17.2812 14.025C17.2812 14.0062 17.3187 13.975 17.3187 13.975L17.3125 13.95L17.275 13.9687C17.2562 13.975 17.2375 13.9812 17.2125 13.975C17.1875 13.975 17.1625 13.975 17.1375 13.9812L17.075 14.0062C17.0687 13.95 17.0625 13.9 17.0625 13.8437L17 13.9V13.7937V13.7812C16.9562 13.8 16.9 13.8 16.8562 13.7812C16.8812 13.775 16.9 13.7687 16.9187 13.7562H16.8812C16.8562 13.7562 16.85 13.7562 16.875 13.7437L16.9 13.7312H16.875C16.8562 13.7375 16.8312 13.7437 16.8125 13.7437L16.7875 13.7312L16.725 13.7125L16.75 13.6875C16.7625 13.6687 16.7062 13.6937 16.7062 13.6937L16.6875 13.725C16.6687 13.7125 16.65 13.6937 16.6437 13.6687L16.7062 13.6375C16.7062 13.6375 16.75 13.625 16.75 13.6187C16.75 13.6125 16.7125 13.6187 16.7125 13.6187L16.6875 13.625L16.6437 13.6375C16.6375 13.625 16.6375 13.6062 16.6437 13.5875L16.6937 13.5687L16.725 13.55L16.7437 13.5312L16.8062 13.5125L16.8187 13.5L16.8375 13.4937C16.8312 13.4937 16.8125 13.4937 16.8 13.4937H16.7937L16.7625 13.5062H16.725L16.7625 13.4812H16.7687C16.9562 13.35 17.15 13.2062 17.35 13.0375C17.4875 12.9437 17.6187 12.8312 17.7562 12.7187C18.0125 12.4812 18.2375 12.225 18.4437 11.9437L18.5562 11.8C18.6312 11.5875 18.8375 11.2375 18.975 10.8875C19.0625 10.6812 19.1312 10.4687 19.1937 10.2562C19.1812 10.3187 19.175 11.0062 19.35 9.88125C19.3875 9.475 19.375 9.06875 19.325 8.66875L19.2625 8.21875C19.2312 7.5875 19.2375 6.9625 19.2812 6.33125C19.3125 5.90625 19.2937 5.475 19.2187 5.05C19.1875 4.85 19.1375 4.65625 19.075 4.46875C18.8125 3.4125 18.2125 2.4625 17.375 1.76875C17.175 1.61875 16.9687 1.4875 16.7562 1.36875L16.8 1.30625L16.7562 1.26875C16.6375 1.19375 16.5312 1.10625 16.4125 1.0375C16.275 0.962499 16.1375 0.887499 16 0.824999L16.0312 0.756249C15.8187 0.699999 15.5562 0.581249 15.5562 0.531249C15.5562 0.481249 15.1312 0.324999 15.0062 0.287499C14.7937 0.206249 14.5687 0.137499 14.35 0.0812492L14.1187 0.0374992L13.75 0.0124992C13.5687 0.00624924 13.4375 -0.0125008 13.2375 -0.0125008C13.0375 -0.0125008 12.9812 0.0124992 12.8187 0.00624924C12.625 -7.61822e-07 12.425 0.0187492 12.2375 0.0624992C12.1062 0.0999992 12.4187 0.0624992 12.2437 0.137499C12.1562 0.187499 12.0562 0.218749 11.95 0.218749C11.825 0.224999 11.9375 0.156249 11.9375 0.156249C11.9375 0.156249 11.8437 0.162499 11.6875 0.193749L11.4375 0.287499L10.9062 0.499999C10.7 0.581249 10.5 0.681249 10.3062 0.793749C10.1875 0.862499 10.1 0.937499 9.99999 1.00625C9.41874 1.25 8.8875 1.58125 8.41249 1.99375L8.46874 2.05C8.05624 2.41875 7.69999 2.85 7.41874 3.33125L7.32499 3.49375C7.25624 3.7125 7.13749 4.0875 7.06249 4.40625C6.98749 4.725 6.94374 4.9875 6.94374 4.9875C6.94374 4.9875 6.97499 4.66875 6.91874 4.75625V4.76875C6.89999 4.8875 6.88749 5 6.87499 5.11875C6.86874 5.29375 6.86874 5.35 6.83749 5.35H6.81249L6.80624 5.58125C6.83124 5.73125 6.84374 5.9 6.84374 5.9V6.25C6.84999 6.48125 6.87499 6.70625 6.89999 6.93125C6.88749 7 6.88124 7.06875 6.88124 7.1375C6.87499 7.2875 6.93749 7.3 6.93749 7.3L6.94999 7.01875C6.98124 7.3375 7.01249 7.6625 7.04374 8L6.99374 8.1625C6.99374 8.1625 6.93749 8.08125 6.94374 8.1625C6.94374 8.2625 6.96874 8.36875 7.01249 8.4625H7.03749L7.08749 8.49375L7.16874 9.23125L7.13749 9.3625V9.575L7.18749 9.925C7.18749 9.9875 7.18124 10.05 7.16874 10.1125L7.23749 10.4375L7.30624 10.625L7.31874 10.7062L7.34999 10.85C7.37499 10.975 7.41874 11 7.44374 11.0125H7.45624L7.38749 10.7062C7.51249 11.05 7.67499 11.2125 7.83749 11.5625L7.84999 11.7L7.85624 11.7687C7.85624 11.7687 7.76874 11.6937 7.81249 11.7875C7.86249 11.9062 7.93124 12.0125 8.02499 12.1L8.04374 12.0875L8.06874 12.0937L8.10624 12.1C8.24374 12.2937 8.38749 12.4812 8.54374 12.6625L8.61874 12.7625L8.89999 12.9437L9.03749 13.1375C9.15624 13.2 9.26874 13.2562 9.38749 13.3125C9.42499 13.3625 9.43749 13.3875 9.45624 13.4125C9.40624 13.4125 9.35624 13.4437 9.33124 13.4875L9.27499 13.5937C9.18749 13.7625 9.075 13.9187 8.94374 14.0625C8.93124 14.1 8.91249 14.1312 8.89374 14.1625C8.81249 14.2812 8.62499 14.1562 8.62499 14.1562L8.57499 14.25L8.49374 14.3C8.49374 14.3 8.49999 14.2312 8.45624 14.25C8.41249 14.2687 8.41249 14.2687 8.38124 14.35C8.35624 14.4312 8.45624 14.3625 8.42499 14.4125C8.36874 14.4687 8.29999 14.5125 8.22499 14.5437C8.16874 14.575 8.11874 14.6062 8.06874 14.65C7.99374 14.7062 7.93124 14.7187 7.85624 14.7687C7.80624 14.8062 7.75624 14.8375 7.69999 14.8687L7.58749 14.9187L7.23124 15.0375C7.16249 15.0687 6.93749 15.1875 6.90624 15.1562C6.86874 15.1187 6.71874 15.1812 6.63124 15.2812L6.60624 15.2125L6.37499 15.35L6.15624 15.4562L6.12499 15.4625L6.08749 15.4L5.88749 15.475L5.82499 15.5437C5.71249 15.5687 5.60624 15.5875 5.51249 15.6L5.43749 15.5562C5.31249 15.7375 5.18124 15.9125 5.03749 16.0812L4.74999 16.375L4.66874 16.45C4.61249 16.5 4.56249 16.5562 4.51874 16.6125L4.41874 16.7437L4.29374 16.8312C4.29374 16.8312 4.30624 16.775 4.28124 16.775C4.26874 16.775 4.26249 16.775 4.25624 16.7812C4.23124 16.7938 4.21249 16.8125 4.19374 16.8312C4.17499 16.8625 4.15624 16.8937 4.14374 16.9312C4.09374 17.0375 4.23749 16.9187 4.19374 16.9875C4.11874 17.075 4.03124 17.15 3.93749 17.2188C3.87499 17.275 3.81874 17.3375 3.76874 17.4C3.68749 17.4875 3.62499 17.5312 3.55624 17.6187L3.41874 17.7938L3.31874 17.8937C3.22499 17.9812 3.11874 18.0688 3.04999 18.125L2.99999 18.1688C2.93124 18.2563 2.84999 18.3375 2.76874 18.4125L2.69999 18.5812L2.50624 18.9562C2.44999 19.0562 2.39999 19.1625 2.35624 19.275L2.30624 19.4375L2.21874 19.5688C2.21874 19.5688 2.21874 19.475 2.16249 19.5375C2.10624 19.6 2.11249 19.6 2.09999 19.7188C2.08749 19.8375 2.18749 19.675 2.16874 19.7563L2.15624 19.7875C2.11249 19.8875 2.06249 19.9813 2.00624 20.075C1.96249 20.15 1.93124 20.225 1.91249 20.3062C1.86874 20.425 1.82499 20.4812 1.79374 20.5875L1.73124 20.7938L1.72499 20.8125L1.71874 20.8438C1.68749 20.95 1.66249 21.0563 1.64374 21.1688L1.63124 21.3312L1.57499 21.4625C1.57499 21.4625 1.54999 21.375 1.51249 21.4438C1.47499 21.5063 1.47499 21.5125 1.49374 21.625C1.50624 21.7375 1.56874 21.5688 1.56874 21.65C1.54999 21.7563 1.51874 21.8625 1.47499 21.9625C1.44999 22.0375 1.43124 22.1187 1.41874 22.1938C1.39999 22.3062 1.36249 22.3687 1.34374 22.4625L1.31249 22.6625L1.27499 22.7875L1.13749 23.1375C1.11874 23.2063 1.06874 23.4438 1.01874 23.4438C0.968744 23.4438 0.918744 23.5938 0.937494 23.7188L0.862494 23.7L0.812494 23.95L0.743744 24.1688L0.731244 24.1938L0.637494 24.1625L0.562494 24.375V24.4625C0.512494 24.5437 0.456244 24.6187 0.399994 24.6938C0.399994 24.8 0.437494 24.75 0.462494 24.8563C0.499994 24.9563 0.556244 25.0437 0.631244 25.1125C0.581244 25.2312 0.549994 25.35 0.531244 25.475C0.474994 25.7375 0.531244 25.475 0.524994 25.7938C0.518744 26.1125 0.631244 26.0375 0.537494 26.2938C0.481244 26.4188 0.462494 26.5562 0.468744 26.6938C0.493744 26.75 0.512494 26.8125 0.531244 26.875C0.537494 26.9312 0.562494 26.9938 0.587494 27.0438C0.587494 27.0438 0.587494 27.1625 0.731244 27.1625C0.874994 27.1625 0.662494 27.2938 0.749994 27.2875C0.793744 27.3188 0.843744 27.3438 0.899994 27.3625C1.09999 27.7188 1.36249 28.0375 1.67499 28.2938L1.87499 28.4125C2.01249 28.475 2.08749 28.625 2.06249 28.775L2.23124 28.8375L2.36874 28.9312C2.36874 28.9312 2.26874 28.9312 2.33749 28.9875C2.40624 29.0437 2.40624 29.0437 2.53124 29.0562C2.65624 29.0688 2.48124 28.9688 2.56874 28.9875C2.68749 29.0312 2.79999 29.0875 2.89999 29.1562C2.98124 29.1938 3.06249 29.225 3.14374 29.25C3.26249 29.2938 3.33124 29.3375 3.43749 29.3687L3.65624 29.4312L3.79374 29.4813L4.18124 29.6625C4.25624 29.6938 4.51874 29.7625 4.51874 29.8125C4.51874 29.8625 4.68749 29.9312 4.82499 29.9125L4.80624 29.9875L5.08749 30.05L5.33124 30.1187L5.36249 30.1313L5.34999 30.2062L5.55624 30.2812H5.64999C5.74999 30.3375 5.84374 30.3938 5.92499 30.45L5.94999 30.5312C6.16249 30.4813 6.37499 30.4375 6.58749 30.4125C6.67499 30.4125 6.81874 30.4 6.98124 30.4H7.08749C7.15624 30.4 7.23124 30.3938 7.29999 30.3875L7.45624 30.3625L7.59374 30.3875C7.59374 30.3875 7.54999 30.4188 7.56874 30.4375C7.57499 30.4438 7.58124 30.45 7.58749 30.45C7.61249 30.4563 7.63749 30.4625 7.66249 30.4625C7.69374 30.4562 7.73124 30.4438 7.76249 30.4312C7.86874 30.3937 7.69374 30.3688 7.76874 30.3563C7.87499 30.35 7.98124 30.3625 8.08749 30.3813C8.16249 30.3938 8.24374 30.3938 8.31874 30.3875C8.43124 30.3875 8.49999 30.4125 8.59999 30.4125H8.80624L8.93124 30.425C9.04999 30.4437 9.16249 30.4813 9.24999 30.5L9.30624 30.5125C9.40624 30.525 9.50624 30.5438 9.60624 30.575L9.76249 30.5375C9.84374 30.525 9.98749 30.5125 10.1437 30.5063C10.25 30.5063 10.3562 30.5 10.4562 30.4813L10.6062 30.4562L10.7437 30.4813C10.7437 30.4813 10.6687 30.525 10.7437 30.5438C10.8187 30.5625 10.8125 30.5625 10.9187 30.5187C11.025 30.475 10.85 30.4563 10.9187 30.4438H10.95C11.05 30.4438 11.1437 30.4438 11.2437 30.4625C11.3187 30.4688 11.4 30.4688 11.475 30.4625C11.5937 30.4625 11.6562 30.4813 11.7562 30.475C11.8312 30.475 11.8812 30.4625 11.9625 30.4625H11.9812H12.0125C12.1187 30.4625 12.225 30.45 12.325 30.4312L12.475 30.4L12.6187 30.4188C12.6187 30.4188 12.5437 30.4688 12.6187 30.4813C12.6937 30.4938 12.6875 30.4938 12.7937 30.45C12.9 30.4062 12.7187 30.3937 12.7937 30.375C12.9 30.3625 13.0125 30.3687 13.1187 30.3813C13.1937 30.3875 13.275 30.3813 13.35 30.375C13.4687 30.3687 13.5312 30.3875 13.6312 30.375L13.8375 30.3563H13.9687C14.1187 30.3688 14.2875 30.4062 14.3562 30.4125C14.4187 30.4188 14.6812 30.4125 14.6937 30.4625C14.7062 30.5125 14.8687 30.525 14.9875 30.475V30.55L15.25 30.5375L15.4812 30.5438L15.5125 30.55V30.6313L15.7187 30.6625L15.8062 30.6375L16.0875 30.7375C16.1937 30.7125 16.1312 30.6875 16.2312 30.6313C16.3187 30.575 16.3937 30.4937 16.4437 30.4C16.575 30.4187 16.7062 30.4125 16.8312 30.3937C17.1125 30.3625 16.8312 30.3937 17.15 30.3062C17.4687 30.2188 17.3687 30.1313 17.6375 30.1313C17.75 30.2125 17.8562 30.2938 17.95 30.35C18.1812 30.4813 18.3375 30.5438 18.3375 30.5438C18.975 30.9062 19.65 31.1875 20.3562 31.3813L20.875 31.4562L20.8562 31.5312L20.8937 31.55C20.9875 31.5812 21.0812 31.6125 21.1812 31.6375L21.5125 31.6875L21.5 31.7625C21.6625 31.7438 21.8625 31.7875 21.8687 31.8438C21.875 31.8937 22.2 31.9187 22.2937 31.9312C22.3875 31.9438 22.5937 31.9938 22.7875 32.0125C22.8437 32.0187 22.9 32.0187 22.9562 32.0125L23.225 31.9813C23.3562 31.9625 23.45 31.9812 23.5937 31.9625L23.8937 31.925C24.0375 31.9187 24.175 31.8937 24.3125 31.8625C24.4062 31.825 24.1812 31.8563 24.3 31.7875C24.4187 31.7188 24.4187 31.7188 24.5125 31.7188C24.6125 31.7188 24.525 31.7812 24.525 31.7812L24.7062 31.7625L24.8875 31.675C25.0125 31.6187 25.1375 31.5688 25.2687 31.5312C25.425 31.4813 25.575 31.4187 25.7187 31.3375L25.95 31.1875C26.3875 31.075 26.8187 30.925 27.225 30.7375L27.1875 30.6688C27.5125 30.4875 27.8562 30.3188 28.1687 30.1063L28.275 30.0375C28.4125 29.8687 28.5625 29.7125 28.725 29.5625L29.0062 29.25C29.0062 29.25 28.8687 29.4312 28.9375 29.4125L28.9437 29.4062L29.1062 29.2125C29.1812 29.1062 29.2125 29.0688 29.2312 29.0875L29.25 29.1063L29.3625 28.9688C29.3937 28.8937 29.4312 28.8188 29.4687 28.75L29.625 28.5375C29.725 28.3875 29.8375 28.2375 29.925 28.0812C29.9687 28.0437 30.0062 28 30.0437 27.9562C30.125 27.8625 30.0875 27.8125 30.0875 27.8125L29.9312 27.9875L30.3687 27.275L30.4937 27.1875C30.4937 27.1875 30.4937 27.275 30.5375 27.2125C30.5875 27.1375 30.6187 27.05 30.6312 26.9625L30.6125 26.95L30.5875 26.9C30.6812 26.7125 30.8 26.5312 30.8687 26.3438L30.9562 26.2687L31.05 26.125L31.1687 25.8687C31.2 25.825 31.2312 25.7875 31.275 25.75C31.3125 25.675 31.3437 25.5938 31.3687 25.5063L31.3937 25.3563L31.425 25.3L31.4687 25.2C31.5062 25.1125 31.4812 25.075 31.4687 25.0562L31.4625 25.05L31.375 25.2687C31.4312 25 31.3812 24.8312 31.45 24.5562L31.5062 24.475L31.5375 24.4312C31.5375 24.4312 31.5687 24.5125 31.5875 24.4375C31.6062 24.3312 31.6062 24.2437 31.5937 24.1562ZM15.9687 17.5312C15.9187 17.5625 15.875 17.6 15.8312 17.6437C15.7437 17.7312 15.7875 17.7812 15.7875 17.7812C15.8375 17.725 15.8937 17.6687 15.9562 17.6187C15.7937 17.8312 15.6562 18.075 15.4875 18.3062L15.35 18.3813C15.35 18.3813 15.35 18.2938 15.3062 18.3563C15.25 18.425 15.2125 18.5125 15.2062 18.6063L15.225 18.6187L15.25 18.675L14.9437 19.2188L14.85 19.2875L14.7562 19.4312L14.6312 19.6875C14.6 19.7313 14.5625 19.775 14.5187 19.8062L14.4125 20.0438C14.3937 20.0938 14.3875 20.1438 14.375 20.1938L14.3437 20.25L14.3 20.35C14.2625 20.4375 14.2875 20.475 14.3 20.4937L14.3062 20.5L14.3937 20.2812C14.3375 20.55 14.3875 20.725 14.3187 21.0063L14.25 21.0875L14.2187 21.1313C14.2187 21.1313 14.1937 21.05 14.175 21.125C14.1562 21.2125 14.1562 21.3062 14.175 21.3937H14.2L14.2187 21.4125L14.2437 21.4375C14.2187 21.6125 14.25 21.775 14.225 21.9438L14.2125 22.0312C14.2312 22.1125 14.2625 22.1875 14.2937 22.2625L14.2562 22.425L14.375 22.6938C14.3625 22.7437 14.3437 22.7875 14.3125 22.8312C14.3062 22.95 14.4 23.05 14.4 23.1187C14.3937 23.175 14.3937 23.2313 14.4 23.2812C14.5187 23.35 14.3375 23.4062 14.4437 23.4188C14.4437 23.4688 14.4562 23.525 14.475 23.5688C14.475 23.6438 14.5062 23.7375 14.4375 23.7188C14.4375 24.0875 14.4625 24.4563 14.5125 24.8188L14.55 25.2125C14.5875 25.4562 14.6437 25.7 14.7187 25.9375L14.75 26.0562C14.9 26.3813 15.025 26.7188 15.125 27.0688C15.125 27.0688 14.8 26.6375 15.1562 27.35C15.2687 27.5562 15.4 27.75 15.5437 27.9312C15.3 27.9438 15.0562 27.9812 14.8187 28.0562C14.475 28.0875 14.125 28.0812 13.7812 28.0312C13.4875 27.975 13.1937 27.975 12.9 28.025H11.5625L11.2375 28.0625V27.9875L11.2125 27.9813L11.0312 27.95L10.825 27.9375V27.8625C10.725 27.9 10.6 27.875 10.5937 27.825C10.5875 27.775 10.3937 27.7625 10.3375 27.75C10.2812 27.7375 10.1625 27.6938 10.0437 27.6688L9.94374 27.6562C9.8875 27.6562 9.83749 27.6562 9.78124 27.6625C9.69999 27.6625 9.64999 27.6437 9.55624 27.6437C9.49374 27.65 9.43124 27.65 9.37499 27.6437C9.29374 27.625 9.20624 27.6187 9.11874 27.625C9.05624 27.6437 9.19374 27.6562 9.11874 27.7C9.04374 27.7438 9.03749 27.7437 8.98124 27.725C8.92499 27.7063 8.98749 27.6625 8.98749 27.6625L8.86874 27.6375L8.74374 27.6625C8.66249 27.6812 8.57499 27.6875 8.49374 27.6875C8.39374 27.6938 8.28749 27.7 8.18749 27.7188L8.01249 27.7687L7.19999 27.5812L7.19374 27.6625L6.54374 27.5187L6.47499 27.4937C6.26874 27.5312 6.06249 27.5375 5.84999 27.5187C5.84999 27.5187 5.98124 27.5063 5.94999 27.4688H5.79999C5.72499 27.4813 5.69999 27.475 5.70624 27.45L5.71249 27.425H5.63124C5.58749 27.4437 5.53749 27.4562 5.48749 27.4562L5.33749 27.4438L5.03124 27.4188C5.00624 27.4 4.97499 27.3812 4.94999 27.3625C4.92499 27.3438 4.88749 27.35 4.86874 27.375C4.86874 27.3813 4.86249 27.3813 4.86249 27.3875L4.98124 27.4562C4.83124 27.425 4.68124 27.3875 4.53124 27.3375L4.48124 27.25C4.48124 27.25 4.53749 27.2188 4.49374 27.2062C4.44999 27.1812 4.39999 27.175 4.34999 27.1938L4.34374 27.2125L4.31249 27.25C4.20624 27.2125 4.10624 27.1625 4.01249 27.1063L3.98749 27.0375L3.91874 26.9688L3.79999 26.8875C3.78124 26.8625 3.76874 26.8312 3.76874 26.8L3.66874 26.725L3.59999 26.7L3.58124 26.675L3.54374 26.6437C3.52499 26.625 3.49374 26.6188 3.47499 26.6375C3.47499 26.6375 3.47499 26.6375 3.46874 26.6437L3.46249 26.65C3.48749 26.6812 3.51249 26.7062 3.54374 26.7375C3.41874 26.6812 3.31249 26.7125 3.19374 26.6375V26.5625V26.5312C3.19374 26.5312 3.24999 26.5187 3.21874 26.4937C3.18749 26.4625 3.14374 26.4438 3.09999 26.4438L3.08749 26.4625L3.06874 26.475L3.04374 26.4937C2.97499 26.4375 2.90624 26.4437 2.86249 26.3937L2.84374 26.3687H2.71874V26.3563L2.74374 26.3062L2.88749 25.875L2.91249 25.8062C2.86249 25.6125 3.10624 25.1875 3.10624 25.1875C3.10624 25.1875 3.13124 25.5125 3.24374 25.0562C3.31249 24.7812 3.33124 24.5 3.30624 24.225C3.34374 23.8875 3.43124 23.55 3.56874 23.2375C3.68749 22.9875 3.76249 22.7188 3.79374 22.4375C3.89374 22.0562 4.01249 21.6812 4.15624 21.3188L4.21874 21.05L4.28749 21.0812L4.30624 21.0688L4.39374 20.9438L4.47499 20.8L4.53749 20.8375C4.53749 20.75 4.59999 20.6688 4.65624 20.6875C4.71249 20.7062 4.78749 20.5688 4.81874 20.5438L5.00624 20.3813L5.05624 20.3188L5.11874 20.2C5.14999 20.1438 5.19374 20.1187 5.23749 20.0562C5.25624 20.0125 5.28749 19.9688 5.32499 19.9312C5.38124 19.8875 5.42499 19.8375 5.46249 19.775C5.48124 19.725 5.39999 19.8062 5.40624 19.725C5.41249 19.6438 5.41249 19.6437 5.45624 19.6187C5.49999 19.5938 5.49999 19.6625 5.49999 19.6625L5.57499 19.6063L5.61874 19.5063C5.64999 19.4438 5.68749 19.3813 5.73749 19.325C5.79999 19.2375 5.85624 19.1562 5.88124 19.1063L5.94374 18.9625L6.56874 18.5812L6.51874 18.5187C6.69374 18.4125 6.86874 18.3062 7.04999 18.2062L7.11249 18.1812C7.23124 18.0187 7.37499 17.875 7.53749 17.7563C7.53749 17.7563 7.44999 17.8562 7.49999 17.8625L7.60624 17.7687C7.65624 17.7125 7.67499 17.6938 7.68749 17.7188L7.69999 17.7437L7.77499 17.675C7.79374 17.6312 7.82499 17.5938 7.85624 17.5562L7.98124 17.4688L8.23124 17.275C8.26249 17.2687 8.29999 17.2625 8.33124 17.2563C8.36249 17.25 8.38749 17.225 8.38124 17.1938C8.38124 17.1875 8.38124 17.1875 8.38124 17.1812L8.24999 17.2188C8.38124 17.1313 8.52499 17.05 8.68749 16.9688L8.80624 16.9875C8.80624 16.9875 8.78124 17.05 8.83124 17.0312C8.88749 17.0125 8.93749 16.975 8.96874 16.9188L8.95624 16.9V16.8438L9.34374 16.65L9.43124 16.6562L9.56249 16.6187L9.73124 16.5187C9.77499 16.5062 9.81874 16.5 9.86249 16.5063L10.0437 16.3937L10.1375 16.3062L10.1875 16.2812L10.2687 16.2375C10.3375 16.1937 10.3437 16.1562 10.3375 16.1375V16.125L10.1625 16.2313C10.3375 16.0688 10.375 15.9187 10.5562 15.725L10.65 15.6875L10.7 15.6687C10.7 15.6687 10.6812 15.7562 10.7375 15.7C10.8 15.6375 10.85 15.5625 10.8687 15.4812L10.8437 15.4687L10.8375 15.4437L10.825 15.4125C10.9125 15.275 10.9875 15.1312 11.0562 14.9812L11.1 14.9062L11.1125 14.6625L11.2062 14.525C11.2 14.425 11.1937 14.3312 11.1812 14.2375C11.2062 14.1937 11.2375 14.1562 11.275 14.1187C11.275 14.1 11.275 14.075 11.275 14.0562C11.2812 14.0562 11.2875 14.05 11.2937 14.0437C11.3562 14.0437 11.4187 14.025 11.475 13.9937C11.5937 13.9375 11.5 13.8125 11.275 13.7312C11.2687 13.7312 11.2687 13.725 11.2562 13.7187L11.2687 13.6312C11.25 13.6187 11.2375 13.6 11.2375 13.575L11.2687 13.5625L11.25 13.5375C11.2687 13.5062 11.3 13.4875 11.2437 13.475C11.25 13.425 11.2437 13.375 11.225 13.325L11.3625 13.3375C11.5937 13.3625 11.5187 13.1437 11.5437 13.1062C11.5687 13.0687 11.9312 12.9 11.6875 12.7812C11.425 12.6437 11.1937 12.55 11.1937 12.55C11.1937 12.55 11.4 12.4375 11.1375 12.2312C11.05 12.1625 10.9687 12.0875 10.8937 12.0062C10.55 11.6812 10.2625 11.3 10.0437 10.8812C9.98749 10.8125 9.94374 10.7375 9.89374 10.6562C9.78749 10.5187 9.78749 10.325 9.90624 10.1875L9.79999 10.0062L9.75624 9.8125C9.75624 9.8125 9.83124 9.89375 9.81874 9.79375C9.81249 9.7125 9.77499 9.63125 9.71874 9.56875C9.63749 9.4375 9.69374 9.6875 9.64374 9.5875C9.59374 9.4375 9.55624 9.28125 9.54374 9.11875C9.52499 9 9.50624 8.8875 9.47499 8.76875C9.43749 8.6 9.44374 8.4875 9.41249 8.33125L9.34999 8.00625L9.33124 7.79375C9.31874 7.54375 9.33124 7.275 9.33124 7.175C9.33124 7.075 9.31249 6.675 9.36249 6.6625C9.41249 6.65 9.42499 6.40625 9.38749 6.2375H9.46249L9.48749 5.88125C9.49999 5.78125 9.52499 5.68125 9.54999 5.5875L9.56249 5.55L9.63749 5.5625H9.64374C9.66874 5.48125 9.69999 5.4125 9.73124 5.3375L9.73749 5.2375C9.79999 5.15 9.87499 5.06875 9.96249 5H10.0437C10.0437 4.7875 10.0937 4.58125 10.1812 4.3875C10.2562 4.2625 10.3375 4.14375 10.4375 4.0375L10.525 3.94375L10.7062 3.7625C10.75 3.7125 10.7937 3.66875 10.8437 3.625C10.8937 3.59375 10.95 3.5625 11.0062 3.5375C11.0062 3.5375 10.975 3.59375 11.0062 3.59375C11.0187 3.6 11.025 3.6 11.0375 3.59375C11.0687 3.5875 11.1 3.56875 11.125 3.55C11.1562 3.51875 11.1875 3.4875 11.2125 3.45625C11.3062 3.35625 11.0937 3.45625 11.175 3.3875C11.2937 3.3125 11.425 3.25 11.5625 3.2125C11.6812 3.16875 11.7125 3.15625 11.8437 3.09375C11.975 3.03125 12.075 3.03125 12.2062 2.99375C12.2937 2.9625 12.3812 2.9375 12.4687 2.91875L12.6375 2.89375C12.7812 2.8875 12.9187 2.89375 13.0625 2.9125L13.1375 2.91875C13.2687 2.91875 13.4 2.9375 13.525 2.96875L13.7312 2.94375C13.9 2.94375 14.0625 2.9625 14.225 2.9875L14.6312 3.06875C14.6937 3.08125 14.7687 3.0875 14.8312 3.10625L14.9937 3.19375C14.9937 3.19375 14.8875 3.2 14.9687 3.25C15.0312 3.3 15.1062 3.325 15.1812 3.325C15.325 3.34375 15.1187 3.23125 15.2187 3.2625L15.2562 3.275C15.3687 3.33125 15.475 3.40625 15.575 3.4875L15.8125 3.6625C15.9 3.7375 15.9875 3.81875 16.0687 3.90625C16.1312 3.9625 16.1875 4.01875 16.2437 4.0875L16.2562 4.10625L16.2812 4.1375L16.5125 4.425C16.5562 4.46875 16.5937 4.51875 16.6312 4.56875L16.6812 4.7375C16.6812 4.7375 16.6062 4.675 16.6187 4.75625C16.6375 4.84375 16.6375 4.8375 16.7125 4.95C16.7937 5.0625 16.7375 4.84375 16.7875 4.93125C16.8375 5.06875 16.8687 5.21875 16.875 5.3625C16.8875 5.49375 16.9 5.53125 16.925 5.69375C16.95 5.85625 16.9375 5.96875 16.9562 6.125C16.9687 6.24375 16.9812 6.325 16.9812 6.45V6.6625L16.9312 7.30625C16.9312 7.425 16.9312 7.85 16.8812 7.86875C16.8312 7.8875 16.8187 8.1625 16.8625 8.3625H16.7875L16.7937 8.80625L16.775 9.1875L16.7687 9.23125H16.6875L16.6437 9.5125L16.6562 9.63125C16.6187 9.73125 16.5687 9.825 16.5062 9.90625C16.5062 10 16.5437 9.9625 16.5687 10.0625C16.5937 10.1625 16.6375 10.2562 16.6937 10.3437L16.4562 10.7062C16.2437 10.9812 16.4687 10.7062 16.2437 11.0562C15.9812 11.4125 16.1312 11.3937 15.8062 11.6375C15.625 11.7562 15.4625 11.9 15.3125 12.0562C15.2625 12.1375 15.2062 12.2187 15.15 12.3C15.0875 12.3687 15.0312 12.45 14.9875 12.5312C14.9875 12.5312 14.85 12.6562 14.95 12.7562C14.9687 12.775 14.9562 12.7812 14.9562 12.8C14.95 12.8125 14.9375 12.825 14.9375 12.8375C14.8937 12.8625 14.8375 12.875 14.8125 12.8937C14.7562 12.875 14.6937 12.8875 14.6562 12.9312L14.5875 13.0312C14.5125 13.1812 14.4625 13.3375 14.4437 13.5062L14.4687 13.6C14.4937 13.7125 14.2875 13.7625 14.2875 13.7625L14.3312 13.8312V13.9C14.3312 13.9 14.275 13.875 14.2687 13.9062C14.2625 13.9437 14.2687 13.9437 14.3187 13.9812C14.3687 14.0187 14.3625 13.9375 14.3937 13.9687C14.4187 14.0125 14.425 14.0625 14.425 14.1125C14.4312 14.15 14.4437 14.1812 14.4625 14.2125C14.4875 14.2562 14.475 14.2937 14.5 14.3312C14.5187 14.3562 14.5312 14.3812 14.5437 14.4125L14.5562 14.4687C14.5687 14.5375 14.5562 14.6187 14.5625 14.6437C14.5687 14.675 14.6125 14.775 14.5687 14.8C14.525 14.825 14.5437 14.9 14.6062 14.925L14.5375 14.9625L14.5937 15.0625L14.6312 15.1625V15.1812L14.5687 15.2187L14.5812 15.3187L14.625 15.3437C14.6187 15.4062 14.6125 15.4625 14.6 15.5187L14.55 15.575C14.6625 15.6 14.7687 15.6312 14.875 15.6687C14.9312 15.7 14.9812 15.7312 15.0312 15.7625L15.075 15.7875C15.1 15.8062 15.1312 15.8187 15.1625 15.8312L15.2312 15.85L15.2625 15.9C15.2625 15.9 15.225 15.9125 15.2187 15.9312V15.9437C15.225 15.9562 15.225 15.9687 15.2375 15.9687H15.2937C15.3562 15.9625 15.3062 15.9062 15.3437 15.9125C15.3812 15.9187 15.4187 15.9688 15.4375 16C15.4625 16.0312 15.475 16.0312 15.5125 16.05C15.55 16.0687 15.5625 16.1062 15.6 16.1187C15.625 16.125 15.65 16.1375 15.675 16.15L15.7125 16.1812C15.7375 16.2188 15.7625 16.2562 15.7812 16.3L15.7937 16.3188C15.8062 16.3375 15.8625 16.375 15.8687 16.4125H15.9437C15.9937 16.4188 16.0437 16.425 16.0875 16.4375C16.125 16.45 16.1625 16.4625 16.2062 16.4562H16.2687L16.3 16.4937C16.3 16.4937 16.2562 16.525 16.2687 16.55C16.2812 16.575 16.2812 16.575 16.3375 16.55C16.3937 16.525 16.3437 16.4875 16.375 16.4875H16.3875C16.4187 16.5 16.45 16.5125 16.4687 16.5375C16.4937 16.5562 16.5062 16.5562 16.5375 16.5625C16.5687 16.5688 16.5812 16.6 16.6187 16.6063H16.6375L16.6 16.65C16.5625 16.7188 16.5187 16.7875 16.475 16.8563C16.4125 16.9188 16.3625 16.9875 16.3062 17.0625L15.9687 17.5312ZM29.4687 22.6125C29.4062 22.9625 29.375 23.4312 29.275 23.8375L29.2812 23.8312L29.275 24.0625C29.2687 24.2125 29.1562 24.3375 29.0062 24.3625V24.5375L28.9562 24.6875C28.9562 24.6875 28.925 24.5938 28.8937 24.6688C28.8625 24.7438 28.8687 24.7437 28.875 24.8625C28.8812 24.9812 28.9562 24.8 28.95 24.8875C28.9187 25.0063 28.875 25.1187 28.8187 25.225C28.7812 25.3062 28.7562 25.3875 28.7375 25.475C28.7 25.5938 28.6375 25.6562 28.5937 25.7563L28.5062 25.9688L28.4375 26.1C28.3437 26.2437 28.2062 26.3687 28.1562 26.425C28.1125 26.4812 27.9625 26.725 27.9 26.6938C27.8375 26.6625 27.725 26.7937 27.675 26.925L27.6187 26.875L27.4312 27.0875L27.2375 27.25L27.2062 27.2687L27.1562 27.2188L26.975 27.3375L26.925 27.4188C26.825 27.4563 26.725 27.4875 26.6187 27.5063L26.5437 27.4688C26.4437 27.6625 26.3187 27.8375 26.1562 27.9875C26.0562 28.0812 25.95 28.1688 25.8375 28.25L25.7437 28.3125C25.6812 28.35 25.6187 28.3938 25.5562 28.4438L25.425 28.55C25.3812 28.575 25.3312 28.5875 25.2812 28.6C25.2812 28.6 25.3125 28.5563 25.2812 28.5438C25.275 28.5438 25.2625 28.5438 25.2562 28.5438C25.2312 28.5438 25.2062 28.5562 25.1812 28.5688C25.15 28.5938 25.125 28.6125 25.1 28.6437C25.0125 28.725 25.1937 28.6687 25.125 28.7125C25.0187 28.7687 24.9062 28.8062 24.7937 28.8375C24.7125 28.8562 24.6312 28.8813 24.55 28.9125C24.4312 28.9563 24.3562 28.9562 24.25 28.9937C24.1812 29.025 24.1062 29.0437 24.0312 29.0562L23.8875 29.075L23.5312 29.0812H23.4687C23.3562 29.0875 23.2437 29.0812 23.1375 29.0625L22.9687 29.1187C22.8312 29.1437 22.6937 29.1625 22.55 29.1625L22.2 29.1875L22.0312 29.2L21.8812 29.1625C21.8812 29.1625 21.9687 29.125 21.8937 29.1C21.8187 29.075 21.8187 29.075 21.7 29.1063C21.5812 29.1375 21.7687 29.175 21.6875 29.1812H21.6562C21.55 29.1625 21.4437 29.1375 21.3375 29.1C21.2562 29.075 21.1687 29.0563 21.0812 29.0438C20.9812 29.0125 20.8812 28.9813 20.7812 28.9438L20.5562 28.8813L20.5375 28.875L20.5 28.8687L20.1625 28.7625L19.9875 28.7188L19.85 28.6375C19.85 28.6375 19.9437 28.625 19.8812 28.5812C19.8125 28.5375 19.8187 28.5312 19.7 28.5125C19.5812 28.4938 19.7437 28.6063 19.6625 28.575C19.55 28.525 19.4437 28.4563 19.3437 28.3813L19.1187 28.2375C19.0125 28.1687 18.9562 28.1063 18.8562 28.0438C18.7875 28.0063 18.7187 27.9625 18.6625 27.9062L18.5562 27.8C18.4562 27.6937 18.3625 27.5812 18.2812 27.4562C18.2312 27.3937 18.0375 27.175 18.0687 27.1375C18.1 27.0938 17.9875 26.9562 17.8812 26.8687L17.9437 26.825L17.7687 26.5938C17.7187 26.525 17.675 26.4438 17.6375 26.3687L17.6312 26.3375L17.7 26.2938L17.625 26.0812L17.5562 26.0125C17.5312 25.9125 17.5187 25.8062 17.525 25.7062C17.4625 25.6125 17.4625 25.6812 17.3687 25.6C17.275 25.5312 17.175 25.4875 17.0625 25.4625C17.0375 25.3188 17 25.1812 16.9437 25.05C16.8437 24.7562 16.9312 25.05 16.7812 24.725C16.6375 24.4 16.5625 24.5125 16.5375 24.2C16.5437 24.0375 16.5125 23.875 16.4562 23.725C16.4062 23.6688 16.3687 23.6063 16.3375 23.5375C16.3125 23.4688 16.2812 23.4125 16.2375 23.3563V23.3438C16.2937 23.3 16.325 23.2313 16.3187 23.1625C16.325 23.0688 16.3312 22.975 16.35 22.8813C16.3875 22.4875 16.4437 22.0875 16.525 21.7C16.5187 21.625 16.525 21.55 16.5312 21.4813C16.5437 21.3375 16.6562 21.2188 16.8 21.2V21.0312C16.8312 20.9375 16.85 20.8875 16.85 20.8875C16.85 20.8875 16.875 20.975 16.9125 20.9062C16.9437 20.8375 16.95 20.8438 16.9437 20.725C16.9375 20.6125 16.8625 20.7812 16.875 20.7C16.9062 20.5875 16.9437 20.475 17 20.375L17.0937 20.1437C17.1437 20.025 17.1937 19.975 17.2375 19.875L17.325 19.6688L17.4062 19.55L17.6875 19.2437C17.725 19.175 17.9187 18.975 17.9562 19C17.9937 19.025 18.125 18.9062 18.1812 18.7812L18.2375 18.8312C18.3 18.7625 18.3625 18.6938 18.4375 18.6375L18.6312 18.4875L18.6562 18.475L18.7062 18.5312C18.7625 18.4937 18.825 18.4562 18.8875 18.425L18.95 18.35C19.05 18.3188 19.15 18.2937 19.2562 18.275L19.3312 18.3188C19.4437 18.1375 19.5812 17.9688 19.7375 17.825C19.8375 17.7313 19.95 17.6562 20.0687 17.5938L20.1625 17.5375C20.3 17.45 20.35 17.4125 20.35 17.4125C20.3937 17.375 20.4375 17.3438 20.4875 17.3188L20.6375 17.2812C20.6375 17.2812 20.6062 17.325 20.6375 17.3375H20.6625C20.6875 17.3375 20.7187 17.325 20.7375 17.3125C20.7687 17.2938 20.7937 17.2687 20.8187 17.2375C20.9062 17.1562 20.725 17.2125 20.7937 17.1688C20.9 17.1125 21.0125 17.075 21.1312 17.0625C21.2125 17.0438 21.2937 17.025 21.375 16.9875C21.475 16.9562 21.575 16.9375 21.675 16.9188L21.8937 16.8687L22.0312 16.85C22.15 16.8375 22.2625 16.8438 22.3812 16.8625L22.4437 16.8687C22.55 16.8625 22.6625 16.8687 22.7687 16.8813C22.825 16.8625 22.8812 16.8438 22.9375 16.8312C23.025 16.8187 23.175 16.8063 23.35 16.7938C23.6125 16.775 23.6937 16.7938 23.6937 16.7875L23.8625 16.775L24.0125 16.8125C24.0125 16.8125 23.925 16.85 24 16.875C24.075 16.9 24.075 16.8937 24.1875 16.875C24.3 16.8563 24.1187 16.8 24.2062 16.8H24.2375C24.3437 16.8187 24.45 16.85 24.55 16.8875C24.6312 16.9125 24.7125 16.9312 24.8 16.9438C24.9187 16.975 24.9875 17.025 25.0937 17.05L25.3125 17.1125L25.3312 17.1187L25.3687 17.1313C25.475 17.175 25.5875 17.2188 25.7 17.25L25.8687 17.2875C25.9187 17.3125 25.9625 17.3375 26 17.375C26 17.375 25.9062 17.375 25.9687 17.4312C26.0312 17.4875 26.0312 17.4813 26.15 17.5C26.2687 17.5187 26.1062 17.4062 26.1875 17.4375C26.3 17.4875 26.4062 17.55 26.5 17.625C26.5687 17.6812 26.6375 17.7312 26.7125 17.775C26.8187 17.8438 26.875 17.9062 26.9687 17.9688C27.0312 18.0125 27.0937 18.0563 27.1562 18.1063L27.2625 18.2062C27.3625 18.3125 27.45 18.425 27.5312 18.55C27.5812 18.6125 27.7687 18.825 27.7375 18.8625C27.7062 18.9062 27.8062 19.05 27.9187 19.1313L27.8562 19.175L28.0312 19.4062C28.075 19.4813 28.1125 19.5562 28.15 19.6313L28.1625 19.6625L28.0937 19.7062L28.1687 19.9125L28.2375 19.9813C28.2562 20.0813 28.2687 20.1875 28.2625 20.2875C28.325 20.3813 28.325 20.3125 28.4187 20.3937C28.5125 20.4625 28.6125 20.5063 28.725 20.525C28.75 20.6625 28.7875 20.8 28.8437 20.9312C28.9437 21.2188 28.8625 20.925 29 21.25C29.1437 21.575 29.2187 21.4562 29.2375 21.775C29.2375 21.9312 29.2625 22.0938 29.3187 22.2437C29.3687 22.3 29.4062 22.3625 29.4375 22.4312C29.45 22.4625 29.4625 22.4937 29.4812 22.525C29.4812 22.5312 29.475 22.5687 29.4687 22.6125Z" fill="#0041E6"/>
<path d="M27.7687 22.8C27.75 22.6375 27.6937 22.6875 27.725 22.5063C27.7437 22.4063 27.7562 22.5812 27.7937 22.2375C27.8062 22.1312 27.8187 22.1625 27.75 22.05C27.7 22.025 27.6562 21.9875 27.6187 21.95C27.5937 21.875 27.5312 21.975 27.5437 21.875C27.425 21.85 27.3062 21.825 27.175 21.8062L27.0437 21.75L26.8 21.7062L26.7562 21.6938C26.6625 21.7813 26.4062 21.6313 26.4062 21.6313C26.4062 21.6313 26.5687 21.5375 26.3187 21.525C26.1625 21.5187 26.0125 21.5625 25.8812 21.6437C25.7 21.6687 25.5125 21.6563 25.3312 21.6063C25.1812 21.55 25.0187 21.55 24.8625 21.6063L24.1625 21.6625L23.9937 21.7188V21.6437L23.9813 21.6375L23.8875 21.6187H23.7812V21.5438C23.7312 21.5875 23.6625 21.5687 23.6625 21.5187C23.6625 21.4687 23.5562 21.4687 23.525 21.4625C23.475 21.4375 23.425 21.4188 23.3687 21.4062H23.3125C23.2812 21.4062 23.2563 21.4125 23.2313 21.425C23.1875 21.4312 23.1625 21.4125 23.1125 21.425C23.0812 21.4375 23.05 21.4375 23.0187 21.4375C22.975 21.425 22.9313 21.425 22.8875 21.4375C22.8563 21.4563 22.9313 21.4625 22.8875 21.5125C22.8438 21.5563 22.8438 21.5625 22.8187 21.55C22.7875 21.5375 22.8187 21.4875 22.8187 21.4875L22.7625 21.4688L22.7 21.5063C22.6563 21.525 22.6188 21.5437 22.5687 21.55C22.5125 21.5625 22.4625 21.5813 22.4125 21.6063L22.325 21.6688C22.1813 21.625 22.0375 21.5812 21.8937 21.55V21.6313L21.5312 21.5625L21.4875 21.55C21.3812 21.6125 21.2625 21.65 21.1375 21.6688C21.1375 21.6688 21.2125 21.6313 21.1875 21.6L21.1063 21.625C21.0625 21.65 21.05 21.65 21.05 21.625V21.6L20.9937 21.6187C20.9687 21.6437 20.9438 21.6625 20.9188 21.6812L20.8312 21.7L20.65 21.7437C20.6312 21.7312 20.6125 21.7187 20.5937 21.7125C20.55 21.6937 20.55 21.7563 20.55 21.7563L20.625 21.7875C20.5312 21.8 20.4375 21.8 20.35 21.8L20.3062 21.7313C20.3062 21.7313 20.3312 21.6875 20.3062 21.6812C20.275 21.675 20.2375 21.6875 20.2187 21.7125V21.7375L20.2062 21.7875L20 21.7625L19.9687 21.7062L19.9125 21.6688L19.8187 21.6437C19.8 21.625 19.7812 21.6062 19.775 21.5812L19.6875 21.5688L19.6375 21.5812L19.6187 21.5688L19.5812 21.55C19.55 21.5375 19.5375 21.5687 19.5375 21.5812V21.5938L19.6125 21.625C19.5187 21.6375 19.4687 21.725 19.375 21.725L19.3437 21.6812L19.3312 21.6562C19.3312 21.6562 19.3562 21.6125 19.3312 21.6063C19.3 21.6 19.2625 21.6125 19.2437 21.6375V21.6625V21.6812L19.2375 21.7062C19.175 21.7062 19.1187 21.7562 19.0687 21.7437H19.0375L18.9625 21.8375L18.9062 21.8L18.8125 21.9188C18.7937 21.9 18.775 21.8813 18.7687 21.8563C18.725 21.8438 18.6938 21.9438 18.6688 21.9375L18.6125 21.925C18.5875 22.0312 18.5687 21.85 18.5625 21.95C18.5625 21.95 18.5188 21.9125 18.4188 22.0688C18.3188 22.2188 18.325 22.2437 18.325 22.2437C18.3063 22.275 18.2937 22.3125 18.2875 22.35C18.2625 22.4375 18.2938 22.5313 18.3563 22.5375C18.4188 22.5438 18.375 22.6938 18.375 22.6938C18.3875 22.7375 18.425 22.7625 18.4687 22.7625C18.55 22.7625 18.4375 22.8812 18.375 22.9312C18.3125 22.9812 18.35 23.1625 18.3437 23.2125C18.3375 23.2625 18.2437 23.5313 18.3312 23.5688C18.3937 23.5938 18.4562 23.6 18.525 23.5812C18.525 23.5812 18.475 23.7813 18.6 23.825L18.725 23.8687C18.9 23.9187 19.075 23.9563 19.2562 23.975L19.3563 23.95C19.4813 23.925 19.5062 24.1437 19.5062 24.1437L19.5812 24.1063L19.65 24.1187C19.65 24.1187 19.6125 24.1687 19.65 24.1812C19.6875 24.1937 19.6875 24.1937 19.7375 24.1437C19.7875 24.0937 19.7 24.0875 19.7375 24.0688C19.7937 24.0563 19.8437 24.0563 19.9 24.0688C19.9375 24.075 19.9812 24.0687 20.0187 24.0625C20.075 24.0563 20.1125 24.075 20.1625 24.0625C20.2 24.0563 20.2312 24.05 20.2687 24.0438H20.3312C20.4062 24.0625 20.4937 24.1 20.525 24.1063C20.5562 24.1125 20.6875 24.1125 20.6937 24.1688C20.7 24.2188 20.7812 24.2375 20.8437 24.1938V24.2687H20.975L21.0937 24.2938L21.1063 24.3V24.3813L21.2062 24.425L21.25 24.4062C21.3 24.4437 21.3438 24.4875 21.3875 24.5312L21.4062 24.6063C21.5 24.5313 21.6 24.4625 21.7062 24.4125C21.7687 24.3875 21.8375 24.375 21.9 24.3625L21.9562 24.35C21.9937 24.3438 22.025 24.3313 22.0625 24.3188L22.1375 24.2812L22.2062 24.2938C22.2062 24.2938 22.1812 24.325 22.1937 24.3438C22.1937 24.35 22.2 24.35 22.2062 24.3563C22.2187 24.3625 22.2312 24.3625 22.2437 24.3563C22.2625 24.3438 22.2813 24.3313 22.2938 24.3188C22.3438 24.2688 22.2563 24.2625 22.2938 24.2437C22.35 24.2312 22.4062 24.2312 22.4562 24.2437C22.4937 24.25 22.5375 24.2437 22.575 24.2375C22.6313 24.2312 22.6687 24.25 22.7187 24.2375C22.7562 24.2312 22.7875 24.225 22.825 24.2188H22.8937C22.95 24.2313 23.0062 24.25 23.0562 24.2687L23.0875 24.275C23.1187 24.2812 23.2125 24.2812 23.2437 24.3125L23.325 24.2687C23.3875 24.2437 23.4562 24.225 23.5187 24.2125C23.575 24.2062 23.6312 24.1875 23.6812 24.1688L23.7562 24.1313L23.8312 24.1437C23.8312 24.1437 23.7937 24.1937 23.8312 24.2062C23.8687 24.2187 23.8688 24.2188 23.9188 24.1688C23.9688 24.1188 23.8813 24.1125 23.9188 24.0938H23.9312C23.9812 24.0875 24.0312 24.0875 24.0812 24.0938C24.1187 24.1 24.1625 24.0937 24.2 24.0812C24.2563 24.075 24.2937 24.0937 24.3437 24.0812C24.3812 24.075 24.4125 24.0687 24.45 24.0625H24.4562H24.475C24.5312 24.0563 24.5875 24.0375 24.6375 24.0187L24.7125 23.9813L24.7875 23.9937C24.7875 23.9937 24.75 24.0437 24.7875 24.0562C24.825 24.0687 24.825 24.0687 24.875 24.0187C24.925 23.9687 24.8375 23.9625 24.875 23.9438C24.9312 23.9313 24.9875 23.9313 25.0375 23.9438C25.075 23.95 25.1187 23.9437 25.1562 23.9312C25.2125 23.9187 25.25 23.9375 25.3 23.9312C25.3375 23.925 25.3687 23.9125 25.4062 23.9125H25.475C25.55 23.925 25.6375 23.9625 25.6688 23.9688C25.7 23.975 25.8312 23.9687 25.8437 24.025C25.85 24.0812 25.9312 24.0938 25.9937 24.0438V24.1187H26.1312L26.25 24.1375L26.2625 24.1437V24.225L26.3687 24.2625L26.4125 24.2375C26.4625 24.275 26.5125 24.3125 26.5562 24.3563C26.6062 24.3375 26.5812 24.3063 26.6312 24.2625C26.6812 24.1938 26.7187 24.125 26.7375 24.0438C26.8 24.0625 26.8687 24.075 26.9375 24.0625C27.0812 24.0625 26.9375 24.0625 27.1 24C27.2625 23.9375 27.2188 23.8438 27.3562 23.875C27.425 23.9 27.5062 23.8875 27.5687 23.85C27.5937 23.8125 27.6187 23.7812 27.65 23.75C27.6812 23.725 27.7062 23.6937 27.725 23.6562C27.725 23.6562 27.7812 23.6312 27.7687 23.4937C27.7562 23.35 27.8437 23.5313 27.8312 23.4438C27.85 23.2375 27.8312 23.0125 27.7687 22.8Z" fill="#0041E6"/>
</g>
<defs>
<clipPath id="clip0_7664_50196">
<rect width="32" height="32" fill="white"/>
</clipPath>
</defs>
</svg>
