<svg width="32" height="32" viewBox="0 0 32 32" fill="none" xmlns="http://www.w3.org/2000/svg">
<path d="M29.3688 3.03125C29.3625 2.65625 29.1563 2.625 28.9188 2.575C28.7375 2.51875 28.6188 2.7 28.6063 2.46875C28.6063 2.34375 28.7375 2.45 28.65 2.075C28.625 1.9625 28.6875 1.94375 28.4188 2.025C28.2813 2.1125 28.1375 2.2 27.9938 2.275C27.8875 2.275 27.775 2.5125 27.7375 2.4125L26.6688 3.275L26.275 3.55625L25.5688 4.125L25.4563 4.21875C25.1563 4.5375 24.8188 4.81875 24.45 5.05C24.45 5.05 24.8563 4.55625 24.1438 5.1875C23.725 5.55625 23.3375 5.95625 22.9813 6.3875C22.9813 6.3875 22.7188 6.64375 22.3563 6.975L22.2813 6.86875C22.2938 6.83125 22.3125 6.8 22.3375 6.775C22.3438 6.69375 22.2438 6.63125 22.25 6.58125L22.2563 6.46875C22.2375 6.4625 22.2375 6.45625 22.2375 6.45V6.40625C22.25 6.39375 22.2563 6.3875 22.2375 6.38125C22.2375 6.31875 22.2563 6.25625 22.2563 6.19375L22.2813 5.8875C22.2813 5.69375 22.2625 5.50625 22.2375 5.31875L22.225 5.225C22.1313 4.9625 22.075 4.68125 22.0563 4.40625C22.0563 4.40625 22.2875 4.76875 22.0813 4.175C21.9563 3.83125 21.7688 3.5125 21.5188 3.24375L20.7625 2.11875C20.5438 1.79375 20.25 1.525 19.9063 1.33125C19.4063 0.968747 18.85 0.693747 18.2563 0.518747C18.1125 0.487497 17.9625 0.468747 17.8125 0.456247L17.8313 0.381247L17.8 0.368747L17.5625 0.299997L17.2875 0.268747L17.2938 0.193747C17.1625 0.218747 17 0.193747 16.9938 0.143747C16.9875 0.0937469 16.7313 0.0812469 16.6625 0.068747C16.5938 0.0624969 16.4313 0.0187469 16.2875 0.0124969H16.1688C16.1063 0.0187469 16.0375 0.024997 15.975 0.037497C15.8813 0.0499969 15.8125 0.0374969 15.7125 0.0562469C15.6438 0.0749969 15.575 0.0812469 15.5063 0.0812469C15.4125 0.0749969 15.3188 0.087497 15.225 0.106247C15.1625 0.131247 15.3125 0.124997 15.2313 0.181247C15.15 0.237497 15.15 0.237497 15.0875 0.231247C15.025 0.224997 15.0813 0.168747 15.0813 0.168747H14.9688L14.85 0.218747C14.7688 0.249997 14.6813 0.274997 14.5875 0.293747C14.475 0.318747 14.3688 0.356247 14.2625 0.393747L14.0813 0.481247C13.7375 0.493747 13.3875 0.531247 13.05 0.606247L13.075 0.681247C12.7625 0.756247 12.4563 0.856247 12.1625 0.993747L12.0563 1.0375C11.9563 1.1375 11.7625 1.3 11.6063 1.4375L11.3313 1.70625C11.3313 1.70625 11.4563 1.54375 11.3938 1.5625L11.3875 1.56875L11.2375 1.74375C11.1688 1.8375 11.15 1.875 11.125 1.85625L11.1063 1.8375L11.0125 1.9625C10.9875 2.03125 10.9563 2.09375 10.925 2.15625L10.7938 2.35C10.7125 2.48125 10.6375 2.61875 10.5688 2.7625C10.5313 2.79375 10.5 2.83125 10.4688 2.86875C10.4063 2.95 10.45 2.99375 10.45 2.99375L10.575 2.84375C10.4688 3.04375 10.3688 3.25 10.275 3.4625L10.1688 3.5375C10.1688 3.5375 10.15 3.4625 10.125 3.51875C10.0875 3.58125 10.075 3.65625 10.0813 3.73125L10.1 3.7375L10.1375 3.78125L9.96875 4.25L9.9 4.3125L9.83125 4.4375L9.7625 4.65C9.74375 4.6875 9.7125 4.71875 9.68125 4.74375L9.63125 4.9375V5.05L9.6125 5.09375L9.5875 5.175C9.56875 5.24375 9.59375 5.26875 9.60625 5.28125H9.61875L9.675 5.10625C9.65625 5.3125 9.7375 5.44375 9.71875 5.65L9.66875 5.71875L9.625 5.75C9.625 5.75 9.5875 5.6875 9.575 5.75C9.5625 5.81875 9.56875 5.88125 9.6 5.94375H9.625L9.64375 5.95625L9.66875 5.975C9.6625 6.10625 9.70625 6.21875 9.7 6.34375V6.40625L9.79375 6.56875L9.7625 6.68125L9.875 6.86875C9.8625 6.90625 9.84375 6.9375 9.8125 6.9625C9.80625 7.05 9.90625 7.1125 9.90625 7.1625L9.9 7.275C9.9125 7.275 9.9125 7.2875 9.91875 7.29375V7.3V7.34375C9.9125 7.35 9.9125 7.35625 9.91875 7.3625C9.875 7.65 9.85 8.0125 9.83125 8.3375L9.85625 8.53125C9.875 8.6625 9.79375 8.79375 9.66875 8.83125L9.70625 8.98125L9.69375 9.11875C9.69375 9.11875 9.64375 9.05 9.63125 9.11875C9.61875 9.1875 9.61875 9.1875 9.66875 9.2875C9.71875 9.3875 9.725 9.2125 9.74375 9.2875C9.75625 9.39375 9.75625 9.5 9.74375 9.60625C9.7375 9.68125 9.74375 9.75625 9.75625 9.8375C9.76875 9.95 9.75 10.0187 9.75625 10.1125C9.7625 10.1875 9.775 10.2375 9.775 10.3125V10.4375C9.7625 10.5875 9.725 10.75 9.71875 10.8125C9.7125 10.875 9.71875 11.1312 9.6625 11.1437C9.60625 11.1562 9.6 11.3125 9.64375 11.4312H9.56875V11.6875L9.55 11.9187L9.54375 11.95H9.46875L9.43125 12.15L9.45 12.2375C9.41875 12.3312 9.38125 12.4187 9.3375 12.5125L9.2625 12.5437C9.325 12.6937 9.38125 12.85 9.425 13.0062H9.3875L9.275 13.0562V12.9875V12.9812L9.2125 12.9625H9.1375V12.8875C9.10625 12.9312 9.0625 12.9125 9.0625 12.8625C9.0625 12.8125 8.99375 12.8125 8.975 12.8062C8.94375 12.7812 8.9125 12.7625 8.875 12.7437H8.84375C8.825 12.75 8.80625 12.75 8.7875 12.7625C8.7625 12.7687 8.74375 12.75 8.7125 12.7625C8.68125 12.775 8.675 12.7812 8.65 12.775C8.625 12.7687 8.5875 12.7562 8.5625 12.775C8.54375 12.7937 8.5875 12.8 8.5625 12.85C8.5375 12.9 8.5375 12.9 8.51875 12.8812C8.5 12.8687 8.51875 12.8187 8.51875 12.8187L8.48125 12.8062L8.44375 12.8437C8.41875 12.8625 8.39375 12.875 8.3625 12.8875C8.325 12.9 8.29375 12.9187 8.2625 12.9437L8.20625 13.0062C8.11875 12.9625 8.025 12.925 7.93125 12.8937V12.975L7.69375 12.9125L7.6625 12.9C7.59375 12.9625 7.50625 13.0062 7.4125 13.025C7.4125 13.025 7.4625 12.9875 7.45 12.9562L7.39375 12.9812C7.3625 13.0062 7.35625 13.0062 7.35625 12.9812V12.9375L7.31875 12.9562C7.30625 12.9812 7.2875 13 7.26875 13.0187L7.20625 13.0375L7.08125 13.0875C7.06875 13.075 7.05625 13.0687 7.0375 13.0562C7.00625 13.0375 7.00625 13.1 7.00625 13.1L7.0625 13.1312C7 13.1437 6.93125 13.15 6.86875 13.1562L6.825 13.0812C6.825 13.0812 6.84375 13.0375 6.825 13.0312C6.8 13.025 6.775 13.0437 6.7625 13.0625V13.0875V13.1375H6.6L6.56875 13.0875L6.51875 13.0562L6.44375 13.0437C6.425 13.025 6.4125 13.0062 6.4 12.9875L6.33125 12.9812L6.29375 13L6.275 12.9875L6.24375 12.975C6.21875 12.9687 6.2125 12.9937 6.2125 13.0125V13.0187L6.275 13.0437C6.20625 13.0625 6.18125 13.1562 6.10625 13.1687L6.075 13.1312L6.05625 13.1125C6.05625 13.1125 6.06875 13.0625 6.05 13.0687C6.01875 13.0687 6 13.0875 5.9875 13.1125V13.1312V13.1875C5.94375 13.1875 5.9125 13.25 5.86875 13.2562H5.84375L5.80625 13.3625L5.75625 13.3375L5.7125 13.4625C5.69375 13.45 5.675 13.4312 5.6625 13.4125C5.63125 13.4125 5.63125 13.5125 5.6125 13.5125H5.56875C5.575 13.6187 5.51875 13.45 5.54375 13.55C5.54375 13.55 5.5 13.525 5.475 13.6875C5.44375 13.85 5.4625 13.875 5.4625 13.875V13.9C5.4625 13.9062 5.45 13.9062 5.45 13.9187C5.425 14.0625 5.41875 14.2062 5.4375 14.35C5.4375 14.35 5.24375 14.2375 5.2 14.5187L5.15625 14.8C5.1125 15.2062 5.0875 15.6187 5.08125 16.0312L5.1125 16.2625C5.14375 16.4125 5.075 16.5625 4.94375 16.6375L4.99375 16.8187V16.9875C4.99375 16.9875 4.9375 16.9062 4.93125 16.9875C4.925 17.0687 4.93125 17.075 4.98125 17.1937C5.03125 17.3125 5.025 17.1 5.05625 17.1875C5.08125 17.3125 5.09375 17.4437 5.09375 17.575C5.1 17.6687 5.1125 17.7625 5.1375 17.8562C5.1625 17.9875 5.15625 18.075 5.18125 18.2L5.2375 18.4437L5.2625 18.6L5.29375 19.075C5.30625 19.1625 5.375 19.4687 5.33125 19.4937C5.2875 19.5187 5.31875 19.725 5.4 19.8625L5.33125 19.8812L5.425 20.2062L5.5 20.4937V20.5312L5.43125 20.5562L5.48125 20.8187L5.54375 20.9187L5.56875 21.3L5.51875 21.3687C5.66875 21.5437 5.83125 21.7437 6.00625 21.9687L5.9375 22.025L5.8125 22.1562L5.75 22.2L5.64375 22.275C5.55 22.3437 5.54375 22.3875 5.54375 22.4125V22.425L5.775 22.2562C5.5375 22.4875 5.45625 22.6875 5.20625 22.925L5.09375 22.9687L5.0375 22.9937C5.0375 22.9937 5.075 22.8937 5.00625 22.9562C4.91875 23.025 4.85 23.1062 4.79375 23.2L4.80625 23.2187V23.2812C4.64375 23.4312 4.5375 23.5937 4.375 23.7375L4.2875 23.8125L4.1375 24.075L3.9625 24.1875L3.7875 24.5C3.7375 24.5312 3.68125 24.5562 3.61875 24.5687C3.50625 24.6625 3.46875 24.825 3.4 24.8812L3.2375 25.0187C3.2375 25.1625 3.075 25.0687 3.125 25.1625C2.9875 25.275 2.875 25.425 2.8125 25.6C2.6375 25.9562 2.66875 25.9687 2.66875 25.9687C2.64375 26.025 2.63125 26.0812 2.63125 26.1437C2.625 26.2687 2.76875 26.2562 2.95 26.1C3.13125 25.9437 3.1 26.1687 3.1 26.1687C3.1 26.1687 3.18125 26.1812 3.4 25.9812C3.61875 25.7812 3.39375 26.1375 3.24375 26.35C3.1 26.5625 3.33125 26.5875 3.35625 26.625C3.38125 26.6625 3.28125 27.1125 3.5625 26.9125C3.75625 26.7687 3.93125 26.6125 4.09375 26.4375C4.09375 26.4375 4.09375 26.7062 4.4625 26.425L4.83125 26.1437C5.275 25.8 5.85 25.3125 6.35625 24.875L6.6125 24.6062C6.93125 24.2812 7.1625 24.3562 7.1625 24.3562L7.34375 24.1375L7.55 23.9687C7.55 23.9687 7.4875 24.0937 7.59375 24.0125C7.625 23.9875 7.6375 23.975 7.65625 23.9625C7.68125 23.9937 7.70625 24.0187 7.7375 24.0437L7.95 24.225L8.08125 24.3375L8.3875 24.6562L8.44375 24.7125C8.50625 24.775 8.69375 24.9 8.75 24.975L8.94375 25.05L9.38125 25.2687C9.5 25.3312 9.625 25.3812 9.75625 25.425L9.94375 25.4875L10.1 25.5875C10.1 25.5875 10 25.5875 10.075 25.6437C10.15 25.7 10.15 25.6937 10.2938 25.7062C10.4313 25.7187 10.2313 25.6187 10.325 25.6375L10.3625 25.65C10.4813 25.6937 10.5938 25.7437 10.7063 25.8062C10.7938 25.85 10.8875 25.8875 10.9813 25.9125C11.1188 25.95 11.1938 26 11.325 26.025L11.575 26.0937L11.6 26.1L11.6375 26.1125C11.7688 26.1437 11.9 26.1687 12.0313 26.175L12.225 26.1875L12.3938 26.2437C12.3938 26.2437 12.2938 26.2687 12.3813 26.3062C12.4688 26.3375 12.4625 26.3437 12.6 26.3187C12.7375 26.2937 12.5188 26.25 12.6125 26.2437C12.7438 26.2562 12.8813 26.275 13.0063 26.3125C13.1 26.3312 13.1938 26.3437 13.2938 26.35C13.4313 26.3562 13.5125 26.3812 13.6375 26.3875L13.8938 26.3937L14.05 26.4125L14.5125 26.4937C14.6 26.5125 14.9063 26.5125 14.9188 26.5562C14.9313 26.6062 15.1125 26.6187 15.2625 26.5812C15.2625 26.6 15.2688 26.6187 15.2813 26.6312H15.2063V26.7125L15.1875 26.7875L15.1813 26.7937H15.1L15.0625 26.8562L15.0813 26.8875C15.0438 26.9187 15 26.95 14.9625 26.975L14.8875 26.9875C14.9625 27.0437 15.025 27.1062 15.0813 27.175C15.1063 27.2125 15.125 27.2562 15.1375 27.2937L15.15 27.325C15.1563 27.35 15.1688 27.3687 15.1813 27.3875L15.2188 27.4375L15.2063 27.4812C15.1875 27.475 15.175 27.4687 15.1563 27.475L15.1438 27.4812C15.1375 27.4937 15.1375 27.5 15.1438 27.5062C15.1563 27.5187 15.1688 27.525 15.1813 27.5375C15.2313 27.5687 15.2375 27.5125 15.2563 27.5375C15.275 27.5625 15.2625 27.6125 15.2563 27.6375C15.25 27.6687 15.2563 27.675 15.2688 27.7125C15.2813 27.75 15.2625 27.7687 15.2688 27.8C15.275 27.8187 15.2813 27.8437 15.2875 27.8625V27.9062C15.275 27.9437 15.2563 27.975 15.2375 28.0062L15.2313 28.025C15.225 28.0437 15.225 28.1 15.1938 28.125L15.2375 28.175C15.2625 28.2125 15.2813 28.25 15.2938 28.2937C15.3 28.3312 15.3188 28.3625 15.3375 28.3937L15.375 28.4437L15.3625 28.4875C15.3625 28.4875 15.3125 28.4687 15.3 28.4875C15.2875 28.5062 15.2875 28.5062 15.3375 28.5437C15.3875 28.575 15.3938 28.5187 15.4125 28.5437V28.55C15.4188 28.5812 15.4188 28.6125 15.4125 28.6437C15.4125 28.675 15.4125 28.6812 15.425 28.7187C15.4375 28.7562 15.4188 28.775 15.425 28.8062C15.4313 28.825 15.4375 28.85 15.4438 28.8687V28.8812C15.45 28.9187 15.4688 28.95 15.4875 28.9812L15.525 29.025L15.5188 29.05C15.3375 29.0125 15.15 28.9812 14.95 28.95V29.0312L14.4438 28.9687L14.3875 28.9562C14.2313 29.0187 14.0688 29.0562 13.9063 29.0687C13.9063 29.0687 14.0063 29.0312 13.9813 29L13.8688 29.025C13.8125 29.05 13.7875 29.05 13.7875 29.025V29.0312L13.7125 29.05C13.6813 29.075 13.6438 29.0937 13.6063 29.1125L13.4875 29.1312L13.2375 29.1812C13.2125 29.1687 13.1875 29.1562 13.1563 29.15C13.1313 29.1437 13.1063 29.1562 13.0938 29.1812V29.1937L13.2 29.225C13.075 29.2375 12.95 29.2437 12.8188 29.2437L12.7375 29.175C12.7375 29.175 12.7688 29.1312 12.7375 29.125C12.6938 29.1187 12.65 29.1312 12.6188 29.1562V29.1812L12.6 29.2312C12.5 29.2312 12.4063 29.225 12.3125 29.2125L12.2625 29.1625L12.1875 29.1312L12.0625 29.1062C12.0375 29.0937 12.0125 29.0687 12 29.0437C11.95 29.0375 11.9125 29.0312 11.8875 29.0312L11.8188 29.0437C11.8125 29.0375 11.8 29.0375 11.7875 29.0312C11.7688 29.025 11.7563 29.0187 11.7375 29.0125C11.7125 29 11.6875 29.0125 11.6813 29.0375V29.05V29.0625L11.7875 29.0937C11.6625 29.1062 11.5875 29.1937 11.4563 29.1937L11.4125 29.15L11.3938 29.125C11.3938 29.125 11.4313 29.0812 11.3938 29.075C11.35 29.0687 11.3063 29.0812 11.275 29.1062V29.1312L11.2688 29.15L11.2625 29.1812C11.1813 29.1812 11.1063 29.2312 11.025 29.225H10.9813L10.875 29.3187L10.7938 29.2875L10.6688 29.4C10.6438 29.3875 10.6188 29.3625 10.6063 29.3375C10.55 29.3312 10.5 29.425 10.4688 29.4187L10.3875 29.4062C10.35 29.5062 10.3313 29.3312 10.3188 29.4312C10.3188 29.4312 10.2625 29.3937 10.125 29.5437C9.9875 29.6937 9.99375 29.7187 9.99375 29.7187C9.99375 29.7187 9.975 29.7312 9.9375 29.8187C9.90625 29.8812 9.93125 29.9562 9.9875 29.9875C10 29.9937 10.0188 30 10.0375 30C10.125 30.0062 10.0625 30.1562 10.0625 30.1562C10.0625 30.1562 10.0813 30.225 10.1938 30.2187C10.3063 30.2187 10.15 30.3312 10.0563 30.3875C9.9625 30.4437 10.025 30.6187 10.0188 30.6625C10.0125 30.7125 9.875 30.975 10.0063 31.0125C10.0938 31.0375 10.1875 31.0437 10.275 31.025C10.275 31.025 10.2063 31.2187 10.3813 31.2625C10.4375 31.275 10.4938 31.2937 10.5563 31.3062C10.8 31.3562 11.05 31.3875 11.3 31.4062C11.3438 31.4 11.3875 31.3875 11.4375 31.3812C11.6063 31.3562 11.6563 31.575 11.6563 31.575L11.7625 31.5375C11.825 31.5437 11.8625 31.55 11.8625 31.55C11.8625 31.55 11.8125 31.6 11.8625 31.6125C11.9125 31.625 11.9125 31.625 11.9813 31.575C12.05 31.525 11.9313 31.5187 11.9813 31.5C12.0563 31.4875 12.1313 31.4875 12.2125 31.5C12.2688 31.5062 12.325 31.5 12.375 31.4875C12.4563 31.4812 12.5 31.5 12.575 31.4875C12.625 31.4812 12.6688 31.475 12.7188 31.4687H12.8125C12.9188 31.4812 13.0438 31.5187 13.0813 31.525C13.125 31.5312 13.3125 31.525 13.3188 31.5812C13.325 31.6375 13.4375 31.65 13.525 31.6062V31.6812H13.7125L13.875 31.7L13.8875 31.7062V31.7812L14.0313 31.8187L14.0938 31.8C14.1625 31.8375 14.225 31.875 14.2875 31.9187L14.3125 31.9937C14.4438 31.9125 14.5813 31.85 14.725 31.8C14.8125 31.775 14.9 31.7562 14.9938 31.7437L15.0688 31.7312C15.1188 31.725 15.1688 31.7125 15.2125 31.7L15.3188 31.6625L15.4188 31.675C15.4188 31.675 15.3875 31.7062 15.4 31.725C15.4063 31.7312 15.4125 31.7312 15.4188 31.7375C15.4375 31.7437 15.4563 31.7437 15.4688 31.7375C15.4938 31.725 15.5125 31.7125 15.5375 31.7C15.6125 31.65 15.4875 31.6437 15.5375 31.625C15.6125 31.6125 15.6875 31.6125 15.7688 31.625C15.825 31.6312 15.8813 31.625 15.9313 31.6125C16.0063 31.6 16.0563 31.6187 16.1313 31.6125C16.1813 31.6062 16.225 31.6 16.275 31.5937H16.3688C16.4438 31.6062 16.525 31.625 16.6 31.6437L16.6375 31.65C16.7125 31.65 16.7813 31.6625 16.8563 31.6875C16.8938 31.6687 16.9313 31.6562 16.9688 31.6437C17.0563 31.6187 17.1438 31.6 17.2375 31.5875C17.3125 31.5812 17.3875 31.5625 17.4563 31.5437L17.5625 31.5062C17.625 31.5062 17.6625 31.5187 17.6625 31.5187C17.6625 31.5187 17.6125 31.5687 17.6625 31.5812C17.7125 31.5937 17.7125 31.5937 17.7813 31.5437C17.85 31.4937 17.7313 31.4875 17.7813 31.4687H17.8C17.8688 31.4625 17.9375 31.4625 18.0063 31.4687C18.0625 31.475 18.1188 31.4687 18.1688 31.4562C18.25 31.4437 18.2938 31.4625 18.3688 31.4562C18.4188 31.45 18.4625 31.4437 18.5125 31.4375H18.525H18.55C18.625 31.4312 18.7 31.4125 18.7688 31.3937L18.875 31.3562C18.9375 31.3625 18.975 31.3687 18.975 31.3687C18.975 31.3687 18.925 31.4187 18.975 31.4312C19.025 31.4437 19.025 31.4437 19.0938 31.4C19.1625 31.35 19.0438 31.3437 19.0938 31.325C19.1688 31.3125 19.2438 31.3125 19.325 31.325C19.3813 31.3312 19.4375 31.325 19.4875 31.3125C19.5625 31.3062 19.6125 31.3187 19.6875 31.3125C19.7375 31.3062 19.7813 31.3 19.8313 31.2937H19.925C20.0313 31.3062 20.1563 31.3437 20.1938 31.35C20.2313 31.3562 20.425 31.3562 20.4313 31.4062C20.4375 31.4562 20.55 31.475 20.6375 31.4312V31.5062H20.825L20.9875 31.525L21.0063 31.5312V31.6125L21.15 31.65L21.2125 31.6312C21.275 31.6625 21.3438 31.7062 21.4 31.7437C21.475 31.7312 21.4313 31.7 21.5063 31.65C21.575 31.5937 21.6313 31.5187 21.6625 31.4375C21.75 31.4625 21.8438 31.4687 21.9313 31.4687C22.125 31.4687 21.9313 31.4687 22.1625 31.4125C22.3938 31.3562 22.3188 31.2625 22.5188 31.3C22.6188 31.325 22.7188 31.325 22.8125 31.2875C22.85 31.25 22.8938 31.2187 22.9313 31.1937C22.975 31.175 23.0125 31.1437 23.0438 31.1062C23.0438 31.1062 23.125 31.0875 23.1125 30.9437C23.1 30.8 23.2188 30.9812 23.2 30.9C23.275 30.6937 23.275 30.4687 23.2 30.2562C23.1688 30.0875 23.0875 30.1437 23.1438 29.9625C23.175 29.8687 23.1875 30.0375 23.2563 29.7C23.275 29.6 23.3 29.6312 23.2063 29.5125C23.1438 29.4875 23.0813 29.4562 23.025 29.425C23 29.35 22.9063 29.4437 22.9188 29.35C22.7563 29.3187 22.5813 29.2875 22.4063 29.2625L22.225 29.1937L21.8813 29.1375L21.825 29.125C21.6875 29.2062 21.3375 29.0562 21.3375 29.0562C21.3375 29.0562 21.575 28.9687 21.225 28.95C21.0125 28.9375 20.7938 28.975 20.5938 29.05C20.3313 29.0687 20.0688 29.0562 19.8188 29C19.6 28.95 19.375 28.95 19.1625 29L18.1688 29.05C18.0875 29.0687 18.0063 29.0875 17.9313 29.1062V29.0312L17.9125 29.025H17.875L17.8313 28.6625L17.775 28.5625H17.85L17.8563 28.5562L17.875 28.4937V28.4375H17.95C17.9063 28.4062 17.925 28.3687 17.975 28.3625C18.025 28.3562 18.025 28.2937 18.0313 28.2812C18.05 28.25 18.075 28.2187 18.0875 28.1875V28.1562C18.0813 28.1375 18.0813 28.1187 18.0688 28.1062C18.0563 28.0812 18.075 28.0625 18.0688 28.0375C18.0625 28.0125 18.05 28 18.0563 27.9812C18.0625 27.9625 18.075 27.9187 18.0563 27.9C18.0375 27.8812 18.0313 27.925 17.9813 27.9C17.9313 27.875 17.9375 27.875 17.95 27.8562C17.9625 27.8375 18.0125 27.8562 18.0125 27.8562L18.025 27.8187L17.9875 27.7812C17.9688 27.7562 17.95 27.7312 17.9438 27.7062C17.9313 27.675 17.9125 27.6375 17.8875 27.6125L17.825 27.5625C17.8688 27.475 17.9 27.3875 17.9313 27.3H17.8563L17.9188 27.0812L17.9313 27.0562C17.875 27 17.8313 26.925 17.8188 26.85C17.8188 26.85 17.8563 26.8937 17.8875 26.8812L17.8625 26.8312C17.8375 26.8062 17.8375 26.8 17.8625 26.8H17.8813L17.8625 26.7687C17.8375 26.7562 17.8188 26.7437 17.8 26.725L17.7813 26.675L17.7375 26.5687C18.1438 26.5187 18.5563 26.4875 18.9688 26.4875C19.3438 26.4875 19.7125 26.4312 20.0625 26.3062C20.6188 26.1875 21.1688 26.0312 21.7063 25.85C21.8375 25.7937 21.9625 25.7375 22.0875 25.6687L22.1125 25.7375H22.1438L22.375 25.675L22.6313 25.575L22.6625 25.6437C22.7625 25.55 22.925 25.4937 22.9563 25.5375C22.9875 25.5812 23.2375 25.4687 23.3063 25.4375C23.3813 25.4062 23.55 25.3562 23.7063 25.2812L23.8375 25.2125C23.9063 25.175 23.975 25.125 24.0313 25.075C24.1313 25 24.2125 24.9687 24.3188 24.8812C24.3875 24.8125 24.4563 24.7562 24.5375 24.7C24.65 24.6312 24.75 24.55 24.8375 24.45C24.8875 24.375 24.7313 24.5125 24.7875 24.3937C24.8438 24.2812 24.8438 24.2812 24.9125 24.2312C24.9813 24.1812 24.9563 24.275 24.9563 24.275L25.0813 24.1687L25.1813 24.0187L25.3875 23.7187C25.475 23.6 25.55 23.475 25.6188 23.35C25.65 23.2687 25.6813 23.2 25.7063 23.1187C25.9625 22.8312 26.1875 22.5187 26.3938 22.1937L26.325 22.1562C26.4875 21.8875 26.6313 21.6125 26.7688 21.3375L26.8188 21.25C26.8625 20.9625 26.9188 20.6812 26.9875 20.4062C26.9875 20.4062 26.9688 20.5875 27.0125 20.55V20.5312L27.05 20.3312C27.0563 20.2312 27.0625 20.1937 27.0875 20.2L27.1125 20.2062L27.1313 20.0687C27.125 20.0062 27.1188 19.9375 27.125 19.875L27.1563 19.6687L27.2125 19.2375C27.2375 19.2 27.2563 19.1562 27.275 19.1125C27.3125 19.0187 27.2563 19 27.2563 19L27.1875 19.175L27.2938 18.525L27.3813 18.425C27.3813 18.425 27.4125 18.4937 27.425 18.4312C27.4438 18.3625 27.4438 18.2875 27.425 18.225H27.4L27.3563 18.1937L27.4375 17.7125L27.5 17.6437L27.55 17.5187L27.5938 17.3062C27.6125 17.2687 27.6313 17.2312 27.6625 17.2062L27.6938 17.0125V16.9L27.7125 16.8562L27.7313 16.775C27.75 16.7062 27.7188 16.6812 27.7063 16.6687H27.7L27.6563 16.8437C27.6563 16.6375 27.575 16.5125 27.5875 16.2937L27.6375 16.225L27.6625 16.1937C27.6625 16.1937 27.7063 16.2562 27.7125 16.1937C27.725 16.125 27.7125 16.0562 27.6875 15.9937H27.6625L27.6313 15.975L27.6 15.9562C27.6063 15.8187 27.5625 15.7 27.5688 15.575V15.5062L27.4813 15.3312L27.5188 15.2062L27.4063 15C27.4188 14.9625 27.4438 14.925 27.4688 14.9C27.4813 14.8062 27.3813 14.7312 27.3875 14.6687L27.4 14.5437C27.3 14.4875 27.475 14.45 27.375 14.4375C27.375 14.4375 27.4125 14.3437 27.2625 14.1312C27.1125 13.9125 27.0875 13.925 27.0875 13.925C27.0875 13.925 27.075 13.8937 26.9875 13.8375C26.9 13.7812 26.8375 13.85 26.8188 13.9687H26.7875C26.7875 13.9687 26.875 13.7875 26.8 13.725L26.7188 13.6562C26.6063 13.575 26.4813 13.5125 26.35 13.4687L26.2688 13.4812C26.175 13.4875 26.1813 13.275 26.1813 13.275L26.1188 13.3L26.0688 13.2812C26.0688 13.2812 26.1 13.2375 26.075 13.2187C26.05 13.2 26.05 13.2 26 13.2437C25.9563 13.2875 26.0188 13.3 25.9875 13.3187C25.9563 13.3375 25.9 13.3187 25.8625 13.3062C25.8313 13.3 25.8 13.3 25.7688 13.3062C25.725 13.3125 25.7 13.2937 25.6563 13.3C25.6313 13.3062 25.6063 13.3125 25.5813 13.3187H25.5375C25.4938 13.3 25.45 13.2812 25.4063 13.2562C25.3813 13.25 25.2938 13.25 25.2938 13.1937C25.2938 13.1437 25.2313 13.125 25.1875 13.1687V13.0937H25.0938L25.0125 13.0687L25 13.0625V12.9875L24.925 12.9437L24.8938 12.9625C24.8563 12.925 24.825 12.8812 24.7938 12.8375L24.7813 12.7625C24.7188 12.8312 24.65 12.9 24.575 12.9562C24.5375 12.9812 24.4938 13 24.4563 13.0125L24.425 13.025C24.4 13.0312 24.3813 13.0437 24.3563 13.0562L24.3063 13.0937L24.2625 13.0812C24.2688 13.0625 24.275 13.05 24.2688 13.0312L24.2625 13.0187C24.25 13.0125 24.2438 13.0125 24.2375 13.0187C24.225 13.0312 24.2125 13.0437 24.2063 13.0562C24.175 13.1062 24.2313 13.1125 24.2063 13.1312C24.1813 13.15 24.1313 13.1375 24.1 13.1312C24.0688 13.125 24.0625 13.1312 24.025 13.1437C23.9875 13.1562 23.9688 13.1375 23.9313 13.1437C23.9125 13.15 23.8875 13.1562 23.8688 13.1625H23.825C23.7938 13.15 23.7688 13.1312 23.7438 13.1125L23.725 13.1062C23.7063 13.1062 23.65 13.1062 23.625 13.075L23.575 13.1187C23.5375 13.1437 23.4938 13.1625 23.45 13.175C23.4125 13.1812 23.3813 13.2 23.35 13.2187L23.3 13.2562L23.2563 13.2437C23.2563 13.2437 23.2813 13.1937 23.2563 13.1812C23.2313 13.1687 23.2313 13.1687 23.2 13.2187C23.1688 13.2687 23.225 13.275 23.2 13.2937H23.1875C23.1563 13.3 23.125 13.3 23.0938 13.2937C23.0625 13.2875 23.0563 13.2937 23.0188 13.3062C22.9813 13.3187 22.9625 13.3 22.9313 13.3062C22.9438 13.1875 22.9563 13.075 22.9625 12.95H22.8813L22.9188 12.2312L22.9313 12.15C22.8563 11.9312 22.8125 11.7062 22.7875 11.475C22.7875 11.475 22.8313 11.6187 22.8625 11.575V11.5687L22.8313 11.4062C22.8063 11.325 22.8 11.2937 22.8313 11.2937H22.8563L22.8313 11.1812C22.8063 11.1375 22.7813 11.0875 22.7625 11.0312L22.7438 10.8625L22.6813 10.5125C22.6938 10.475 22.7 10.4375 22.7063 10.4C22.7188 10.3187 22.6563 10.3125 22.6563 10.3125L22.6313 10.4625C22.6125 10.2875 22.6 10.1062 22.5938 9.91875L22.625 9.86875L22.6625 9.83125C22.675 9.84375 22.7 9.8625 22.7 9.825C22.7 9.8125 22.7 9.8125 22.7 9.8L22.825 9.6875L23.0938 9.4125L23.275 9.25L23.8438 8.80625C23.9438 8.71875 24.2938 8.4 24.3438 8.425C24.3938 8.45 24.625 8.25625 24.7625 8.06875L24.8125 8.125L25.175 7.7875L25.5188 7.50625L25.5688 7.475L25.625 7.53125L25.9313 7.3L26.0125 7.1875C26.1688 7.09375 26.3188 7.00625 26.4625 6.93125C26.5938 6.7875 26.5 6.8375 26.6063 6.66875C26.6938 6.53125 26.75 6.38125 26.775 6.225C26.9688 6.08125 27.15 5.925 27.325 5.7625C27.7063 5.4125 27.325 5.7625 27.7313 5.31875C28.1375 4.875 27.9438 4.925 28.35 4.6C28.5625 4.44375 28.75 4.2625 28.9188 4.05625C28.9188 4.05625 29.0563 3.81875 29.0938 3.76875C29.1563 3.6875 29.2125 3.59375 29.2563 3.5C29.2563 3.5 29.4 3.34375 29.2813 3.25625C29.1125 3.1375 29.4563 3.0625 29.3688 3.03125ZM20.25 16.7375C20.2813 16.8312 20.3125 16.6812 20.325 16.75V16.775C20.3188 16.8562 20.3 16.9375 20.275 17.0125C20.2563 17.075 20.2438 17.1375 20.2438 17.2C20.2313 17.2937 20.1938 17.3375 20.1813 17.4187C20.175 17.475 20.1625 17.525 20.15 17.5812V17.5937L20.1438 17.6187L20.0938 17.8625L20.0813 17.9875C20.0625 18.0187 20.0438 18.05 20.0188 18.075C20.0188 18.075 20 18.0062 19.9625 18.0437C19.925 18.0812 19.925 18.0812 19.9313 18.175C19.9375 18.2625 20.0063 18.15 19.9938 18.2125C19.9625 18.2875 19.9188 18.3625 19.8625 18.4187C19.825 18.4625 19.7938 18.5125 19.7625 18.5625C19.7188 18.6187 19.675 18.675 19.625 18.725C19.5938 18.7687 19.5625 18.8125 19.5313 18.8562L19.4563 18.9187C19.375 18.975 19.2875 19.025 19.1938 19.0687C19.15 19.1 18.9875 19.2125 18.95 19.175C18.9125 19.1375 18.8063 19.1937 18.7438 19.275L18.7063 19.2125L18.5313 19.3125L18.3563 19.375H18.3313L18.3 19.3062L18.1375 19.3312L18.0813 19.375C18.0063 19.3687 17.925 19.3625 17.85 19.3375C17.775 19.375 17.8313 19.3937 17.7688 19.4625C17.7125 19.5375 17.675 19.625 17.6563 19.7187C17.55 19.725 17.4438 19.7437 17.3438 19.7687C17.1125 19.8187 17.3438 19.7687 17.0938 19.875C16.8438 19.9812 16.9188 20.05 16.6813 20.0437C16.5938 20.0375 16.5063 20.0375 16.425 20.0562L15.8125 19.9125L15.5938 19.825L15.1813 19.7L15.1125 19.675C14.9313 19.725 14.5688 19.475 14.5688 19.475C14.5688 19.475 14.85 19.4625 14.4688 19.3312C14.2563 19.2562 14.0375 19.2062 13.8188 19.1875C13.6688 19.125 13.525 19.0375 13.4 18.9312L13.8688 18.4312L14.0063 18.2875L14.2688 18L14.4563 17.7812L14.6625 17.6125C14.6625 17.6125 14.625 17.6875 14.6625 17.6812C14.675 17.675 14.6875 17.6687 14.7 17.6625C14.7375 17.6375 14.775 17.6062 14.8063 17.5687C14.8438 17.5187 14.8813 17.4687 14.9125 17.4187C15.0188 17.2562 14.775 17.475 14.8625 17.3625C15 17.2187 15.15 17.0812 15.3125 16.95C15.425 16.8562 15.525 16.7562 15.625 16.65L16.0188 16.2875L16.2938 16.0125L16.475 15.85L16.9563 15.475L17.0438 15.4062C17.1875 15.275 17.3375 15.1562 17.4938 15.0437L17.6813 14.8125L18.1688 14.2875C18.4875 13.9625 18.5688 13.8562 18.5688 13.8562L18.7438 13.6437L18.95 13.475C18.95 13.475 18.8875 13.6 18.9938 13.5187C19.0813 13.4562 19.1563 13.375 19.2063 13.275C19.3125 13.1125 19.0625 13.3312 19.1563 13.2187L19.1938 13.1812C19.3 13.0687 19.4875 12.9062 19.6 12.8125C19.7125 12.7187 19.8125 12.6125 19.9125 12.5062L19.9938 12.4312C20.0188 12.5125 20.0563 12.575 20.0813 12.6625C20.1063 12.75 20.1313 12.8812 20.15 13.0375L20.1688 13.1437C20.175 13.2125 20.1938 13.2812 20.2063 13.35L20.25 13.5L20.2438 13.6437C20.2438 13.6437 20.2125 13.6 20.1938 13.625C20.1875 13.6312 20.1813 13.6375 20.1813 13.65C20.175 13.675 20.175 13.7 20.1813 13.725C20.1938 13.7562 20.2063 13.7875 20.225 13.8187C20.275 13.9187 20.275 13.7437 20.3 13.8187C20.3188 13.925 20.3188 14.0312 20.3125 14.1375C20.3125 14.2125 20.3188 14.2937 20.3313 14.3687C20.3438 14.475 20.3313 14.5437 20.3375 14.6437C20.3438 14.7187 20.3563 14.7562 20.3563 14.8375V14.9625C20.3438 15.0625 20.3313 15.1625 20.3063 15.2625L20.3 15.3187C20.3 15.4125 20.2875 15.5062 20.2563 15.5937L20.3 15.7375C20.3188 15.85 20.3313 15.9625 20.3375 16.0812C20.3375 16.175 20.3438 16.2625 20.3563 16.3562L20.375 16.4875C20.3688 16.525 20.3563 16.5625 20.3438 16.6C20.3438 16.6 20.3063 16.5375 20.2813 16.5937C20.225 16.65 20.2125 16.65 20.25 16.7375ZM11.7875 6.96875C11.8188 6.6875 11.8563 6.33125 11.8875 6.0125L11.875 5.8375C11.875 5.7125 11.9688 5.6125 12.0875 5.6L12.0688 5.475L12.1 5.3625C12.1 5.3625 12.1375 5.425 12.1625 5.375C12.1813 5.31875 12.1813 5.31875 12.15 5.23125C12.1188 5.14375 12.0875 5.28125 12.075 5.21875C12.075 5.13125 12.0938 5.05 12.125 4.96875C12.1438 4.9125 12.1563 4.85 12.1625 4.79375C12.1813 4.7125 12.2125 4.6625 12.2313 4.5875C12.2375 4.5375 12.25 4.4875 12.2688 4.4375L12.3125 4.35C12.3625 4.26875 12.4188 4.19375 12.4875 4.11875C12.5188 4.075 12.6063 3.925 12.6563 3.95C12.7 3.975 12.7688 3.89375 12.7875 3.80625L12.8438 3.85L12.9438 3.725L13.0563 3.64375H13.075L13.125 3.7C13.1563 3.68125 13.1938 3.66875 13.2313 3.6625L13.25 3.61875C13.3125 3.61875 13.3688 3.625 13.4313 3.6375L13.4875 3.69375C13.5188 3.575 13.5875 3.4625 13.6813 3.38125C13.75 3.325 13.825 3.28125 13.9 3.25L13.9688 3.21875L14.1125 3.15L14.2188 3.0875L14.3313 3.08125C14.3313 3.08125 14.3063 3.11875 14.325 3.13125C14.3313 3.1375 14.3375 3.1375 14.3438 3.1375C14.3625 3.1375 14.3875 3.1375 14.4063 3.13125C14.4313 3.11875 14.4563 3.1 14.475 3.08125C14.55 3.01875 14.4063 3.0375 14.4625 3.00625C14.55 2.975 14.6438 2.9625 14.7375 2.9625C14.8063 2.95625 14.875 2.94375 14.9438 2.925C15.0438 2.90625 15.1125 2.9125 15.2063 2.89375C15.275 2.88125 15.3188 2.8625 15.4 2.85625L15.5188 2.85C15.6188 2.85 15.7188 2.85625 15.8125 2.86875H15.8625C15.95 2.8625 16.0375 2.86875 16.125 2.8875L16.2563 2.8375C16.3563 2.8125 16.4625 2.7875 16.5688 2.78125C16.65 2.775 16.7313 2.7625 16.8188 2.75L16.9313 2.725L17.0313 2.75C17.0313 2.75 16.975 2.79375 17.025 2.8125C17.075 2.83125 17.075 2.83125 17.15 2.79375C17.2313 2.75625 17.1063 2.73125 17.1625 2.71875H17.1875C17.2563 2.725 17.325 2.7375 17.3938 2.76875C17.4438 2.7875 17.5 2.79375 17.55 2.8C17.625 2.8125 17.6625 2.85 17.7313 2.8625C17.7813 2.86875 17.825 2.8875 17.8688 2.9L17.8813 2.90625H17.9C18.0688 2.9625 18.1188 2.975 18.1188 2.975L18.2313 3L18.3125 3.06875C18.3125 3.06875 18.2438 3.08125 18.2813 3.11875C18.3188 3.15625 18.3188 3.15625 18.4063 3.1625C18.4938 3.16875 18.3938 3.0875 18.45 3.1C18.525 3.1375 18.5938 3.19375 18.65 3.25625C18.6938 3.3 18.7438 3.3375 18.7938 3.36875C18.8688 3.425 18.8938 3.475 18.9563 3.525C19 3.5625 19.0438 3.6 19.0813 3.6375L19.15 3.71875C19.2063 3.80625 19.25 3.9 19.2938 3.99375C19.3188 4.04375 19.4375 4.20625 19.4 4.24375C19.3563 4.28125 19.4188 4.39375 19.5 4.45625L19.4375 4.49375L19.5375 4.675L19.6 4.85V4.875L19.5313 4.90625C19.5438 4.95625 19.5438 5.0125 19.5563 5.0625L19.6 5.11875C19.5938 5.19375 19.5813 5.275 19.5625 5.35C19.6 5.41875 19.6188 5.36875 19.6875 5.425C19.7625 5.48125 19.85 5.5125 19.9375 5.53125C19.9375 5.63125 19.9563 5.73125 19.9813 5.83125C20.0188 6.04375 19.9813 5.83125 20.075 6.06875C20.1688 6.30625 20.25 6.23125 20.225 6.4625C20.2063 6.575 20.2125 6.69375 20.2438 6.80625C20.2813 6.85 20.3063 6.9 20.3313 6.95L20.3438 6.96875C20.3188 7.23125 20.3063 7.51875 20.3 7.79375L20.3313 7.9875C20.3563 8.11875 20.275 8.25 20.15 8.3L20.1938 8.45L20.1875 8.59375C20.1875 8.59375 20.1375 8.525 20.125 8.59375C20.1125 8.6625 20.1125 8.6625 20.1688 8.7625C20.2188 8.8625 20.2188 8.6875 20.2438 8.7625V8.825C20.1813 8.8875 20.15 8.925 20.15 8.925L18.2438 10.7437L17.8125 11.2125L17.7625 11.1562L17.725 11.1812L17.45 11.4125L17.15 11.6875L17.1 11.6312C16.9938 11.7875 16.8 11.9437 16.7563 11.9187C16.7125 11.8937 16.425 12.1562 16.3438 12.225L15.875 12.5812L15.725 12.7125L15.5063 12.9437L15.1875 13.2375C15.1063 13.325 15.025 13.4125 14.9313 13.4875C14.8 13.5875 14.6813 13.7 14.5625 13.825C14.4938 13.9187 14.6938 13.7375 14.6125 13.8812C14.5313 14.0187 14.5313 14.0187 14.4438 14.0875C14.3563 14.15 14.4 14.0437 14.4 14.0437L14.2313 14.1812L14.0875 14.3687C14.0875 14.3687 14.0188 14.4562 13.7625 14.725C13.5938 14.9062 13.45 15.0687 13.3688 15.1625L13.1688 15.4312L12.4688 15.9937V15.9812C12.4563 15.9062 12.4688 15.8562 12.4625 15.775C12.45 15.7187 12.4438 15.6625 12.4438 15.6C12.4563 15.5187 12.4563 15.4375 12.4438 15.3562C12.425 15.3 12.4188 15.4312 12.3688 15.3562C12.3188 15.2812 12.3188 15.2812 12.3313 15.225C12.3438 15.1687 12.3938 15.225 12.3938 15.225L12.4063 15.1125L12.3688 15C12.3438 14.9187 12.3313 14.8312 12.325 14.75C12.3125 14.65 12.2938 14.55 12.2688 14.45L12.2063 14.2812C12.2438 14.0125 12.2813 13.7312 12.3063 13.4312H12.2313L12.2875 12.725L12.3 12.6437C12.2313 12.425 12.1938 12.2 12.175 11.975C12.175 11.975 12.2125 12.1187 12.2438 12.075V12.0687L12.2125 11.9125C12.1875 11.8312 12.1875 11.8 12.2125 11.8H12.2375L12.2188 11.6875C12.1938 11.6437 12.175 11.5937 12.1563 11.5375L12.1375 11.3687L12.0875 11.025C12.1 10.9875 12.1125 10.95 12.1188 10.9125C12.1375 10.8312 12.075 10.825 12.075 10.825L12.0438 10.975C12.0313 10.8 12.025 10.625 12.0188 10.4375L12.0875 10.35C12.0875 10.35 12.1313 10.4 12.1375 10.35C12.1438 10.2937 12.1313 10.2312 12.1063 10.1812H12.0813L12.0313 10.1625L12.0438 9.7625L12.0938 9.7L12.125 9.5875L12.1438 9.40625C12.1563 9.375 12.175 9.34375 12.2063 9.31875L12.2188 9.15625L12.2063 9.0625L12.2188 9.025L12.2375 8.95625C12.25 8.9 12.2188 8.875 12.2063 8.86875H12.1938L12.1625 9.01875C12.15 8.84375 12.0625 8.74375 12.0625 8.5625L12.1063 8.5L12.1313 8.46875C12.1313 8.46875 12.175 8.51875 12.1813 8.46875C12.1875 8.4125 12.175 8.35 12.1438 8.3H12.1188L12.1 8.29375H12.0688C12.0688 8.18125 12.0188 8.08125 12.025 7.96875V7.9125L11.9313 7.7625L11.9625 7.65625L11.85 7.48125C11.8625 7.45 11.8813 7.41875 11.9125 7.39375C11.9188 7.3125 11.825 7.25 11.825 7.2L11.8375 7.0875C11.7125 7.0125 11.875 6.98125 11.7875 6.96875ZM9.33125 19L9.1 19.2312L8.64375 19.7125L8.46875 19.825C8.34375 19.9125 8.375 19.975 8.375 19.975L8.60625 19.8062L8.2375 20.1625C8.1375 20.0187 8.05625 19.8625 7.98125 19.7062C7.98125 19.7062 8.0625 19.825 8.08125 19.775L8.00625 19.6375C7.95625 19.5687 7.94375 19.5437 7.975 19.5375L8 19.5312L7.95 19.4375C7.9125 19.4 7.88125 19.3562 7.85 19.3125L7.7875 19.1562L7.65625 18.825C7.6625 18.7875 7.6625 18.75 7.65625 18.7125C7.65625 18.6312 7.59375 18.6312 7.59375 18.6312V18.7875C7.54375 18.6062 7.5 18.425 7.475 18.2437L7.525 18.1375C7.525 18.1375 7.575 18.1812 7.575 18.1312C7.575 18.0687 7.55 18.0125 7.5125 17.9625H7.4875L7.4375 17.9437C7.41875 17.8 7.40625 17.6562 7.4 17.5187L7.44375 17.4437L7.4625 17.325V17.1312C7.475 17.0937 7.4875 17.0625 7.5125 17.0312V16.8687L7.49375 16.7687L7.50625 16.725L7.51875 16.65C7.525 16.5875 7.49375 16.5625 7.48125 16.5625H7.46875L7.45 16.725C7.4 16.5625 7.35625 16.4 7.325 16.2312L7.36875 16.1625L7.3875 16.1312C7.3875 16.1312 7.4375 16.1812 7.4375 16.1312C7.44375 16.0687 7.43125 16 7.4 15.95H7.38125L7.35625 15.9312L7.325 15.9187C7.325 15.7937 7.26875 15.6812 7.275 15.5562C7.29375 15.5562 7.30625 15.55 7.31875 15.5375V15.6125H7.39375L7.45625 15.6312L7.4625 15.6375V15.7125L7.51875 15.75L7.54375 15.7312C7.575 15.7687 7.6 15.8125 7.61875 15.85L7.625 15.925C7.66875 15.8437 7.73125 15.775 7.80625 15.725C7.84375 15.7 7.8875 15.6875 7.93125 15.6687L7.9625 15.6562C7.9875 15.65 8.00625 15.6375 8.03125 15.625L8.08125 15.5875L8.125 15.6C8.11875 15.6187 8.1125 15.6312 8.11875 15.65L8.125 15.6625C8.1375 15.6625 8.14375 15.6687 8.15 15.6625C8.1625 15.65 8.175 15.6375 8.18125 15.625C8.2125 15.575 8.15625 15.5687 8.18125 15.55C8.20625 15.5312 8.25625 15.55 8.28125 15.55C8.3125 15.55 8.31875 15.55 8.35625 15.5437C8.39375 15.5375 8.4125 15.5562 8.44375 15.5437C8.4625 15.5375 8.4875 15.5312 8.5125 15.525H8.55625C8.59375 15.5375 8.625 15.5562 8.6625 15.575L8.68125 15.5812C8.7 15.5875 8.75625 15.5875 8.78125 15.6187L8.83125 15.575C8.86875 15.55 8.9125 15.5375 8.95625 15.5187C8.99375 15.5125 9.025 15.5 9.05625 15.475L9.10625 15.4375L9.15 15.45C9.15 15.45 9.125 15.5 9.15 15.5125C9.175 15.525 9.16875 15.525 9.20625 15.4812C9.2375 15.4375 9.18125 15.425 9.20625 15.4062H9.2125C9.24375 15.4 9.275 15.4 9.30625 15.4125C9.3375 15.4187 9.34375 15.4125 9.38125 15.4062C9.41875 15.4 9.4375 15.4187 9.46875 15.4062C9.4875 15.4 9.5125 15.3937 9.53125 15.3875H9.5375H9.55C9.5875 15.3812 9.61875 15.3625 9.65 15.3437L9.68125 15.325V15.4125L9.6375 15.7437L9.63125 15.8062C9.63125 15.9125 9.625 16.025 9.6125 16.1312L9.66875 16.2937L9.75625 16.7C9.775 16.8187 9.8 16.9312 9.8375 17.0437L9.89375 17.2062L9.90625 17.3625C9.90625 17.3625 9.84375 17.2937 9.84375 17.375C9.84375 17.4562 9.84375 17.4562 9.9125 17.5625C9.98125 17.6687 9.95 17.4687 9.9875 17.55L10 17.5812C10.0313 17.6875 10.05 17.8 10.0688 17.9125C10.0875 18 10.1125 18.0875 10.1438 18.175C10.15 18.1937 10.1563 18.2125 10.1625 18.2312L9.9625 18.4375C9.9625 18.4375 10.1375 18.225 10.0563 18.2562L10.05 18.2625L9.84375 18.4937C9.75 18.6062 9.70625 18.6562 9.69375 18.6375L9.675 18.6187L9.5375 18.775C9.45 18.8437 9.39375 18.925 9.33125 19ZM22.5625 17.7937C22.5813 17.6562 22.5938 17.5187 22.6 17.3812L22.6688 17.3937L22.6813 17.3687L22.7438 17.15L22.7813 16.9L22.8563 16.9125C22.825 16.7875 22.8563 16.6375 22.9125 16.6375C22.9688 16.6312 22.9875 16.3937 23 16.3312C23.0125 16.2687 23.0625 16.1187 23.0813 15.975L23.0938 15.8625C23.0938 15.8 23.0875 15.7375 23.0813 15.675C23.0813 15.6625 23.0813 15.6437 23.0813 15.6312L23.1 15.6187L23.1063 15.6875L23.1125 15.6937L23.175 15.7125H23.2438V15.7875C23.275 15.7437 23.3188 15.7625 23.3188 15.8125C23.325 15.8625 23.3875 15.8625 23.4063 15.8687C23.4375 15.8875 23.475 15.9062 23.5063 15.925H23.5375C23.5563 15.9187 23.575 15.9125 23.5938 15.9062C23.6188 15.8937 23.6375 15.9125 23.6688 15.9062C23.7 15.9 23.7063 15.8875 23.7313 15.8937C23.7563 15.9 23.8 15.9125 23.8188 15.8937C23.8375 15.875 23.7938 15.8687 23.8188 15.8187C23.8438 15.7687 23.8438 15.7687 23.8625 15.7812C23.8813 15.7937 23.8625 15.8437 23.8625 15.8437L23.9 15.8562L23.9375 15.8187C23.9625 15.8 23.9875 15.7812 24.0188 15.775C24.0563 15.7625 24.0875 15.7437 24.1188 15.7187L24.175 15.6562C24.2688 15.7 24.3625 15.7312 24.4563 15.7562V15.675C24.5313 15.6937 24.6188 15.7125 24.6875 15.7375L24.7063 15.75C24.7563 15.6937 24.825 15.65 24.9 15.6375C24.9 15.6375 24.8563 15.675 24.8688 15.7062L24.9125 15.6812C24.9375 15.6562 24.9438 15.6562 24.9438 15.6812V15.7125L24.975 15.6937C24.9875 15.6687 25 15.65 25.0188 15.6312L25.0688 15.6125L25.1688 15.5625C25.175 15.575 25.1875 15.5875 25.2 15.5937C25.2188 15.6125 25.225 15.55 25.225 15.55L25.1813 15.5187C25.2313 15.5062 25.2875 15.5 25.3375 15.5V15.5125C25.325 15.6437 25.3125 15.775 25.3 15.9L25.3188 16.1125C25.3313 16.2562 25.25 16.3875 25.1125 16.425L25.1375 16.5875L25.1125 16.7375C25.1125 16.7375 25.0688 16.6625 25.05 16.7375C25.0313 16.8125 25.0313 16.8125 25.0688 16.9187C25.1063 17.025 25.1313 16.8437 25.1438 16.925C25.15 17.0375 25.1375 17.15 25.1125 17.2562C25.1 17.3375 25.0938 17.4187 25.0938 17.4937C25.0938 17.6062 25.0625 17.6812 25.0563 17.7812L25.0625 18L25.0375 18.1312C25 18.2812 24.9313 18.4375 24.9125 18.5C24.8938 18.5625 24.8375 18.8125 24.7875 18.8125C24.7375 18.8125 24.6875 18.9625 24.6938 19.0937L24.6188 19.075L24.55 19.325L24.4625 19.5375L24.4438 19.5625L24.375 19.5437L24.275 19.7187L24.2688 19.8062C24.2063 19.8812 24.1375 19.95 24.0688 20.0125H23.9875C24 20.2062 23.9938 20.4 23.9563 20.5937C23.9313 20.7125 23.8938 20.825 23.85 20.9375L23.8125 21.025L23.75 21.2062L23.7125 21.3437C23.6875 21.3812 23.6625 21.4125 23.6313 21.4437C23.6313 21.4437 23.6313 21.3937 23.6 21.4C23.5938 21.4 23.5875 21.4062 23.5813 21.4125C23.5625 21.425 23.55 21.4437 23.5375 21.4625C23.5313 21.4937 23.525 21.525 23.525 21.5562C23.5125 21.6562 23.6063 21.5312 23.5875 21.6C23.5438 21.6875 23.4875 21.7625 23.4188 21.8312C23.375 21.8812 23.3313 21.9375 23.3 21.9937C23.25 22.0562 23.1938 22.1187 23.1375 22.175C23.1 22.225 23.0625 22.2687 23.025 22.3125L22.9438 22.3812C22.8688 22.4312 22.7938 22.475 22.7063 22.5125L22.6625 22.5312C22.5938 22.5812 22.5188 22.6187 22.4438 22.6375C22.4188 22.675 22.3875 22.7125 22.3563 22.7437C22.3 22.7937 22.2 22.875 22.0813 22.9562C21.8938 23.0687 21.8313 23.1187 21.8313 23.1187L21.7188 23.2125C21.6375 23.2437 21.5938 23.2562 21.5938 23.2562C21.5938 23.2562 21.6375 23.1875 21.5688 23.2C21.5 23.2125 21.5 23.2125 21.425 23.2875C21.35 23.3625 21.5125 23.3125 21.45 23.3562L21.425 23.3687C21.3375 23.4062 21.25 23.4437 21.1563 23.4687C21.0813 23.4875 21.0063 23.5187 20.9375 23.55C20.8313 23.5937 20.7625 23.5937 20.6688 23.6312C20.6063 23.6625 20.5375 23.6875 20.475 23.7062H20.4563L20.425 23.7187C20.325 23.75 20.225 23.7937 20.125 23.8375L19.9813 23.9125L19.8375 23.9312C19.8375 23.9312 19.9 23.8687 19.825 23.8687C19.75 23.8687 19.75 23.8687 19.6563 23.9375C19.5625 24.0062 19.7438 23.975 19.6688 24.0125C19.5625 24.05 19.45 24.0687 19.3375 24.075C19.2563 24.0812 19.175 24.1 19.1 24.125C18.9875 24.1562 18.9125 24.1437 18.8063 24.175H18.7813C18.7813 24.175 18.7813 24.175 18.7813 24.1687L17.9375 24.1812L17.6438 24.1625H17.5875C17.5813 24.1625 17.575 24.1625 17.5625 24.1625H17.3813V24.1187L17.1063 24.1375L16.8563 24.1312L16.825 24.125V24.05L16.6125 24.0187L16.5188 24.0437C16.425 24.0125 16.3313 23.9812 16.2375 23.9375C16.125 23.9562 16.1875 23.9875 16.0813 24.0312C16.0625 24.0437 16.0438 24.0562 16.025 24.075C15.7313 24.0875 15.4375 24.1312 15.1563 24.2062C14.7813 24.2312 14.4063 24.2 14.0438 24.1187C13.75 24.0437 13.4438 24 13.1375 23.9937C12.6875 23.925 12.25 23.8125 11.8188 23.675L11.5 23.5937L11.5313 23.525L11.5125 23.5062L11.3563 23.4125C11.2938 23.3875 11.2313 23.3562 11.175 23.325L11.2063 23.2562C11.1063 23.25 11 23.175 11.0188 23.125C11.0375 23.075 10.8625 22.9812 10.8188 22.95C10.775 22.9187 10.6938 22.8187 10.6 22.7437L10.5188 22.6812C10.4688 22.65 10.4313 22.6312 10.375 22.6062C10.3063 22.5687 10.2688 22.525 10.1938 22.4875C10.1438 22.4625 10.1 22.4312 10.0625 22.4C10.0125 22.3437 9.95625 22.2937 9.8875 22.2562C9.8375 22.2375 9.925 22.325 9.8375 22.3125C9.75625 22.3 9.75 22.3 9.725 22.2562C9.7 22.2125 9.76875 22.2125 9.76875 22.2125L9.70625 22.1312L9.60625 22.0812C9.60625 22.0812 9.5875 22.0687 9.55 22.05L9.91875 21.7562C10.0188 21.6687 10.3688 21.35 10.4188 21.375C10.4625 21.4 10.7 21.2062 10.8375 21.0187L10.8875 21.075L11.25 20.7375L11.5875 20.4562L11.6188 20.4312L11.7313 20.5187L11.8438 20.625C11.9813 20.75 12.125 20.9 12.1875 20.9437C12.25 20.9875 12.5188 21.1562 12.5063 21.2C12.4938 21.2437 12.6625 21.3625 12.8063 21.3812L12.775 21.45L13.0625 21.575L13.3125 21.6875L13.3438 21.7062L13.3188 21.7812L13.5313 21.8937L13.6375 21.9062L13.9 22.1C14.0188 22.1125 13.9688 22.0687 14.0938 22.05C14.2063 22.025 14.3063 21.975 14.3875 21.9C14.5188 21.9562 14.65 21.9937 14.7938 22.0125C15.0875 22.0625 14.7938 22.0125 15.1375 22.0125C15.4813 22.0125 15.3938 21.9 15.675 21.975C15.8125 22.0187 15.9625 22.025 16.1063 22.0062L16.125 22C16.1688 22 16.2063 21.9937 16.1938 22.0437C16.4688 22.075 16.75 22.0812 17.025 22.0687L17.325 22.0875C17.5125 22.075 17.7 22.0625 17.8875 22.0312L17.9813 22.025C18.2438 21.925 18.5188 21.8687 18.8 21.85C18.8 21.85 18.4375 22.0812 19.0313 21.875C19.3875 21.75 19.7125 21.55 19.9875 21.2937C19.9875 21.2937 20.6125 20.8812 21.1438 20.45C21.475 20.1875 21.7375 19.85 21.9125 19.4687C22.2188 18.95 22.4313 18.3875 22.5625 17.7937Z" fill="#0041E6"/>
</svg>
