<svg width="32" height="32" viewBox="0 0 32 32" fill="none" xmlns="http://www.w3.org/2000/svg">
<g clip-path="url(#clip0_7664_50154)">
<path d="M29.075 14.3313C29.125 14.2938 29.1625 14.25 29.2062 14.2C29.2625 14.1313 29.3187 14.1063 29.3687 14.0438C29.4062 14 29.4313 13.9625 29.475 13.9188L29.55 13.85C29.6437 13.775 29.7625 13.7125 29.8062 13.6813C29.85 13.65 29.9937 13.5063 30.0312 13.5375C30.0688 13.5625 30.1687 13.4875 30.2125 13.3938L30.2563 13.4438L30.4062 13.3L30.55 13.1875L30.575 13.175L30.625 13.225L30.7687 13.1375L30.8062 13.075C30.8812 13.05 30.9563 13.025 31.0312 13.0063C31.0813 12.9375 31.0312 12.95 31.0625 12.8625C31.0813 12.775 31.0813 12.6875 31.0625 12.6C31.15 12.55 31.2312 12.4813 31.3 12.4125C31.4562 12.2563 31.3 12.4063 31.4562 12.1938C31.6062 11.9813 31.4937 11.975 31.675 11.85C31.7687 11.7875 31.85 11.7063 31.9062 11.6125C31.9125 11.5625 31.9313 11.5063 31.95 11.4563C31.9688 11.4125 31.9812 11.3625 31.9875 11.3125C31.9875 11.3125 32.0375 11.2375 31.9438 11.1563C31.85 11.075 32.05 11.1 31.9875 11.0625C31.9187 10.875 31.775 10.7313 31.5875 10.6563C31.4562 10.575 31.425 10.6688 31.3625 10.5125C31.3312 10.425 31.4438 10.5313 31.2938 10.2563C31.25 10.175 31.2875 10.175 31.1375 10.175C31.0688 10.2063 31 10.2313 30.925 10.25C30.8562 10.225 30.8438 10.3563 30.7938 10.2813L30.325 10.625L30.1437 10.725L29.8375 10.95L29.7875 10.9875C29.7313 11.1438 29.35 11.3188 29.35 11.3188C29.35 11.3188 29.4875 11.0813 29.1875 11.3438C29.0063 11.5 28.8562 11.6813 28.7375 11.8875C28.5375 12.1 28.3188 12.2875 28.075 12.45C27.8688 12.5813 27.6813 12.75 27.5375 12.95L26.7563 13.7313L26.5938 13.9438L26.55 13.8938L26.5312 13.9L26.4062 13.9875L26.4 13.9938L26.2625 13.9438C26.1313 13.775 25.9875 13.6 25.8312 13.4188L25.7812 13.4688L25.4 13.05L25.3625 13C25.1937 12.925 25.0375 12.8375 24.8937 12.725C24.8937 12.725 24.9937 12.775 24.9937 12.7313H25L24.8875 12.6625C24.825 12.6375 24.8063 12.625 24.825 12.6063L24.8375 12.5875L24.7625 12.5438C24.7188 12.5375 24.675 12.525 24.6375 12.5063L24.525 12.4313L24.2938 12.2813C24.275 12.25 24.2563 12.225 24.2313 12.2C24.2188 12.175 24.1875 12.1625 24.1625 12.175C24.1563 12.175 24.1562 12.1813 24.15 12.1813L24.2188 12.2813C24.1063 12.2 24 12.1125 23.8875 12.0125L23.875 11.9188C23.875 11.9188 23.9312 11.9188 23.9 11.8875C23.8687 11.85 23.825 11.8313 23.7813 11.825L23.7687 11.8375L23.725 11.8563L23.5 11.6375L23.4937 11.5688L23.45 11.4875L23.3563 11.3813C23.3438 11.3563 23.3375 11.325 23.3375 11.2938L23.25 11.2L23.1875 11.1563L23.1688 11.125L23.1375 11.0813C23.1125 11.0438 23.0813 11.05 23.0688 11.0625L23.0625 11.0688L23.1313 11.1688C23.0188 11.0875 22.9188 11.1 22.8188 11.0063L22.8125 10.95V10.9188C22.8125 10.9188 22.8625 10.9125 22.8438 10.8875C22.8188 10.85 22.775 10.8313 22.7313 10.825L22.7188 10.8375L22.7 10.8438L22.675 10.8563C22.6187 10.8 22.5313 10.7813 22.4688 10.7188L22.4375 10.6875L22.3 10.675L22.2625 10.6L22.0938 10.5813C22.0813 10.5563 22.0812 10.525 22.0812 10.5C22.0437 10.4563 21.9437 10.4813 21.925 10.4563L21.875 10.3938C21.7813 10.4313 21.875 10.3063 21.8062 10.3625C21.8062 10.3625 21.7875 10.3 21.5875 10.2938C21.3875 10.2875 21.375 10.3063 21.375 10.3063C21.3375 10.3063 21.3 10.3125 21.2625 10.3313C21.2063 10.3438 21.1687 10.3938 21.1812 10.45C21.1875 10.475 21.2 10.5 21.2188 10.5125C21.2875 10.5813 21.1375 10.625 21.1375 10.625C21.1375 10.625 21.1125 10.6813 21.2 10.7625C21.2875 10.8438 21.1 10.8 20.9813 10.7625C20.8625 10.725 20.8 10.8813 20.7687 10.9C20.7375 10.925 20.45 10.9813 20.5313 11.1063C20.5875 11.1875 20.6625 11.2625 20.7437 11.3188C20.6687 11.3375 20.625 11.4188 20.6437 11.4938C20.65 11.5125 20.6625 11.5375 20.675 11.55L20.7938 11.7125C20.9375 11.9063 21.1625 12.1438 21.3625 12.3563L21.4937 12.45C21.5875 12.5188 21.6125 12.6438 21.5688 12.75L21.6812 12.8063L21.7563 12.8875C21.7563 12.8875 21.6875 12.8875 21.7188 12.9313C21.7563 12.975 21.75 12.975 21.8375 12.9938C21.925 13.0125 21.825 12.9188 21.8813 12.9438C21.95 12.9875 22.0125 13.0438 22.0688 13.1063C22.1125 13.15 22.1562 13.1813 22.2062 13.2125C22.275 13.2625 22.3062 13.3125 22.3687 13.3563C22.4125 13.3875 22.45 13.4063 22.4937 13.45L22.5688 13.5188C22.65 13.6063 22.7188 13.7125 22.7563 13.75C22.7875 13.7875 22.9375 13.9188 22.9125 13.9563C22.8875 13.9938 22.9688 14.0875 23.0688 14.1188L23.025 14.1688L23.175 14.3L23.2938 14.4313L23.3062 14.45L23.2625 14.5L23.35 14.6313L23.4125 14.6625C23.4438 14.7375 23.475 14.8063 23.5 14.8813L23.475 14.95C23.6313 14.9938 23.7812 15.05 23.925 15.1188C24.0125 15.1688 24.0937 15.2188 24.175 15.275L24.2437 15.3188C24.2875 15.35 24.3313 15.3813 24.3813 15.4063L24.4875 15.4625L24.5562 15.5438C24.5562 15.5438 24.5125 15.5438 24.5125 15.5625C24.5125 15.5688 24.5125 15.575 24.5187 15.5813C24.5312 15.6 24.5437 15.6125 24.5562 15.625C24.575 15.6313 24.5875 15.6375 24.6063 15.6375L24.5938 15.6688C24.4125 15.7875 24.2187 15.9125 24.025 16.0563L24.0688 16.1063L23.6063 16.4438L23.55 16.475C23.4562 16.6313 23.35 16.7813 23.2188 16.9125C23.2188 16.9125 23.2812 16.8125 23.2375 16.8125L23.1563 16.9125C23.125 16.9688 23.1063 16.9875 23.0938 16.9688L23.075 16.95L23.0187 17.0188C23.0062 17.0625 22.9875 17.1 22.9688 17.1375L22.875 17.2375L22.6938 17.45C22.6625 17.4625 22.6375 17.475 22.6125 17.4875C22.5562 17.5188 22.5812 17.5625 22.5812 17.5625L22.6875 17.5063C22.5875 17.6063 22.4813 17.7125 22.375 17.8H22.3125C22.3125 17.8 22.3125 17.7438 22.2875 17.7688C22.25 17.7938 22.2187 17.8375 22.2062 17.8813L22.2188 17.8938L22.2313 17.9375L21.9813 18.1438H21.9L21.8125 18.175L21.6938 18.2563C21.6625 18.2625 21.6313 18.2625 21.6063 18.2563L21.5 18.3313L21.4562 18.3938L21.425 18.4063L21.375 18.4313C21.3313 18.4563 21.3375 18.4813 21.3438 18.5V18.5063L21.45 18.45C21.35 18.55 21.3438 18.6625 21.2313 18.7563H21.1375C21.1375 18.7563 21.1375 18.7 21.1125 18.725C21.075 18.75 21.0438 18.7875 21.0313 18.8375L21.0438 18.8563L21.05 18.875L21.0562 18.9C20.9812 18.9563 20.9563 19.0438 20.8813 19.1063L20.8438 19.1375L20.8062 19.275L20.7188 19.3125L20.675 19.4813C20.6437 19.4875 20.6125 19.4875 20.5875 19.4813C20.5312 19.5188 20.55 19.6188 20.5187 19.6375L20.4438 19.6875C20.475 19.7875 20.35 19.6813 20.4 19.7563C20.4 19.7563 20.3312 19.775 20.3 19.975C20.2687 20.175 20.2875 20.1875 20.2875 20.1875C20.2813 20.225 20.2875 20.2625 20.3 20.3C20.3187 20.3875 20.4125 20.4125 20.4875 20.35C20.5687 20.2875 20.5938 20.4375 20.5938 20.4375C20.5938 20.4375 20.65 20.4688 20.7437 20.3875C20.8375 20.3063 20.7688 20.4875 20.725 20.6C20.6813 20.7125 20.825 20.7813 20.85 20.8125C20.875 20.8438 20.9063 21.125 21.0375 21.0625C21.125 21.0188 21.2062 20.95 21.275 20.875C21.2937 20.9563 21.375 21 21.45 20.9875C21.4688 20.9813 21.4875 20.975 21.5063 20.9625L21.6812 20.8625C21.9187 20.7125 22.15 20.5563 22.375 20.3813L22.475 20.2625C22.55 20.1813 22.675 20.1688 22.7687 20.2313L22.8375 20.1313L22.9312 20.0688C22.9312 20.0688 22.9188 20.1375 22.9688 20.1125C23.0188 20.0813 23.0187 20.0813 23.05 20C23.0812 19.9125 22.975 20 23.0063 19.95C23.0625 19.8875 23.1313 19.8313 23.2 19.7813C23.25 19.7438 23.2937 19.7 23.3312 19.6563C23.3937 19.5938 23.4438 19.5688 23.5 19.5063C23.5438 19.4625 23.5687 19.4313 23.6125 19.3875L23.6938 19.325C23.7938 19.2563 23.9125 19.1938 23.9562 19.1625C24 19.1313 24.15 19 24.1875 19.025C24.225 19.05 24.3313 18.9813 24.375 18.8875L24.4188 18.9375L24.575 18.8L24.725 18.6938L24.75 18.6813L24.7938 18.7313L24.9375 18.65L24.975 18.5875C25.05 18.5625 25.1312 18.5375 25.2125 18.5188L25.275 18.55C25.3375 18.3938 25.4188 18.25 25.5063 18.1063C25.5438 18.0563 25.6125 17.9625 25.7 17.8688L25.7563 17.8063C25.7938 17.7625 25.825 17.7188 25.8563 17.675L25.925 17.575L26.0187 17.5063C26.0187 17.5063 26.0125 17.55 26.0375 17.55C26.0438 17.5563 26.0563 17.5563 26.0688 17.55C26.0875 17.5438 26.1062 17.5313 26.1187 17.5125C26.1312 17.4875 26.1437 17.4625 26.15 17.4375C26.1812 17.35 26.075 17.4375 26.1063 17.3875C26.1625 17.3188 26.225 17.2625 26.2938 17.2125C26.3313 17.1813 26.3625 17.15 26.3937 17.1125C26.3875 17.1188 26.375 17.125 26.3937 17.1375C26.425 17.1813 26.425 17.1813 26.5125 17.2063C26.6 17.2313 26.5062 17.1313 26.5562 17.1563L26.575 17.1688C26.6313 17.2125 26.6875 17.2688 26.7375 17.325C26.7812 17.3688 26.825 17.4063 26.875 17.4438C26.9437 17.4938 26.9688 17.5438 27.0312 17.5938C27.075 17.6313 27.1125 17.65 27.1562 17.6938L27.1688 17.7063L27.1875 17.7188C27.25 17.7688 27.3187 17.8188 27.3937 17.8563L27.4937 17.9125L27.5625 18C27.5625 18 27.4937 17.9938 27.525 18.0375C27.5562 18.0813 27.5562 18.0813 27.6437 18.1063C27.725 18.1313 27.6375 18.0313 27.6875 18.0563C27.7562 18.1063 27.8125 18.1625 27.8625 18.2313C27.9 18.275 27.95 18.3125 27.9937 18.35C28.0625 18.4 28.0875 18.45 28.15 18.5C28.1937 18.5313 28.2312 18.5688 28.275 18.6L28.3438 18.675C28.4187 18.7625 28.4875 18.8813 28.5187 18.9188C28.55 18.9563 28.6938 19.0938 28.6625 19.1375C28.6375 19.175 28.7125 19.2688 28.8062 19.3125L28.7625 19.3563L28.9062 19.5L29.0187 19.6375L29.0312 19.6563L28.9813 19.7063L29.0625 19.8375L29.125 19.875C29.15 19.9438 29.175 20.0188 29.1938 20.0938C29.2563 20.1375 29.25 20.0938 29.3312 20.1188C29.4187 20.1375 29.5062 20.1313 29.5875 20.1063C29.6375 20.1875 29.7 20.2688 29.775 20.3313C29.925 20.4813 29.775 20.3313 29.9813 20.4688C30.1875 20.6063 30.1938 20.5 30.3188 20.675C30.375 20.7688 30.4562 20.8438 30.55 20.9C30.6 20.9063 30.65 20.9188 30.7 20.9375C30.7438 20.9563 30.7937 20.9688 30.8438 20.975C30.8438 20.975 30.9187 21.025 31 20.9313C31.0813 20.8375 31.0562 21.0313 31.0938 20.9688C31.2812 20.9 31.425 20.7563 31.5 20.5688C31.5813 20.4375 31.4875 20.4063 31.6437 20.3438C31.7312 20.3063 31.625 20.425 31.9 20.2688C31.9812 20.225 31.9812 20.2563 31.9875 20.1125C31.9562 20.05 31.9313 19.9813 31.9188 19.9063C31.9438 19.8375 31.8125 19.825 31.8875 19.775C31.7875 19.625 31.675 19.4688 31.55 19.3125L31.45 19.1375L31.225 18.8313L31.1875 18.7813C31.0312 18.725 30.85 18.35 30.85 18.35C30.85 18.35 31.0875 18.4813 30.825 18.1875C30.6688 18.0125 30.4812 17.8688 30.275 17.7625C30.0562 17.575 29.8625 17.3625 29.6938 17.1313C29.5563 16.9313 29.3812 16.7563 29.175 16.625L28.3625 15.9L28.1375 15.7563L28.1812 15.7063L28.175 15.6875L28.0812 15.5688L28 15.4938C28.0312 15.4688 28.0625 15.4438 28.0875 15.4188C28.1375 15.3813 28.1813 15.3375 28.2188 15.2875C28.2812 15.2188 28.3313 15.1938 28.3813 15.1375C28.4188 15.0938 28.4437 15.0563 28.4875 15.0125L28.5 15L28.5187 14.9813C28.575 14.9188 28.6312 14.8563 28.675 14.7813L28.7437 14.6813L28.8312 14.6125C28.8312 14.6125 28.8187 14.6813 28.8687 14.65C28.9187 14.6188 28.9188 14.6188 28.95 14.5375C28.9813 14.45 28.875 14.5375 28.9062 14.4875C28.9438 14.4438 29.0063 14.3813 29.075 14.3313ZM26.4188 17.1125L26.4312 17.1L26.4438 17.1125H26.4188Z" fill="#0041E6"/>
<path d="M17.3 16.1187C17.2875 16.05 17.2875 15.9812 17.2937 15.9125C17.3062 15.8187 17.3062 15.725 17.2937 15.6312C17.275 15.5687 17.2687 15.7187 17.2312 15.6312C17.1937 15.5437 17.1875 15.5437 17.2 15.4812C17.2125 15.4187 17.2562 15.4812 17.2562 15.4812L17.2687 15.3562L17.2312 15.2187C17.2125 15.125 17.2 15.0312 17.1875 14.9375C17.1687 14.7937 17.1437 14.6687 17.1312 14.6L17.075 14.4125C17.1 14.1125 17.125 13.8 17.1312 13.4687H17.0625L17.0687 12.6812V12.5937C16.9937 12.3562 16.9375 12.1125 16.9 11.8625C16.9 11.8625 16.9437 12.0187 16.9687 11.9625V11.9562L16.9312 11.7812C16.9 11.6937 16.8937 11.6625 16.9187 11.6625H16.9437L16.9125 11.5437C16.8812 11.4937 16.8562 11.4375 16.8375 11.3875L16.8 11.2062L16.7125 10.8312C16.7187 10.7875 16.725 10.75 16.725 10.7062C16.725 10.6187 16.675 10.6125 16.675 10.6125L16.6687 10.7812L16.5687 10.1937L16.6125 10.0875C16.6125 10.0875 16.6562 10.1375 16.6562 10.0812C16.6562 10.0187 16.6375 9.95625 16.6 9.9H16.5625L16.5187 9.88125L16.4562 9.44375L16.4875 9.3625L16.5062 9.24375L16.4875 9.0375C16.4937 9 16.5 8.9625 16.525 8.93125L16.5 8.75625L16.4687 8.65625V8.6125V8.53125C16.4687 8.4625 16.4312 8.44375 16.4187 8.44375H16.4125L16.4187 8.6125C16.3687 8.425 16.2687 8.33125 16.2187 8.13125L16.2437 8.05625L16.2562 8.01875C16.2562 8.01875 16.3062 8.0625 16.3 8.00625C16.2937 7.94375 16.2687 7.88125 16.225 7.83125H16.2062L16.1875 7.825L16.1625 7.81875C16.1312 7.69375 16.0625 7.59375 16.0375 7.46875L16.0187 7.40625L15.8937 7.2625V7.1375L15.7437 6.975C15.7437 6.9375 15.75 6.9 15.7687 6.8625C15.75 6.775 15.6437 6.725 15.6312 6.675L15.6 6.55625C15.5 6.53125 15.6375 6.45625 15.5437 6.4625C15.5437 6.4625 15.5437 6.3625 15.35 6.20625C15.1562 6.05 15.1375 6.0625 15.1375 6.0625C15.1062 6.0375 15.0625 6.01875 15.025 6.0125C15.0062 6.0125 15 6.025 14.9875 6.03125C14.975 5.975 14.9625 5.925 14.9437 5.875C14.9125 5.7875 14.9437 5.8 14.8125 5.7625C14.7437 5.775 14.675 5.78125 14.6062 5.78125C14.55 5.74375 14.5187 5.8625 14.4812 5.78125C14.3312 5.84375 14.175 5.9125 14.0125 5.99375L13.8375 6.05L13.5312 6.19375L13.4812 6.2125C13.4125 6.35 13.0437 6.43125 13.0437 6.43125C13.0437 6.43125 13.2 6.2375 12.8937 6.41875C12.7125 6.525 12.5562 6.66875 12.425 6.8375C12.225 6.99375 12 7.13125 11.7625 7.23125C11.5625 7.3125 11.375 7.4375 11.225 7.6L10.4437 8.19375L10.2812 8.36875L10.2437 8.31875H10.225L10.1062 8.38125L9.98125 8.46875L9.94375 8.4125C9.90625 8.48125 9.825 8.525 9.79375 8.49375C9.7625 8.4625 9.64375 8.54375 9.60625 8.5625C9.56874 8.58125 9.47499 8.60625 9.39999 8.64375L9.33749 8.68125C9.30624 8.70625 9.27499 8.73125 9.25 8.7625C9.20625 8.8 9.16249 8.8125 9.11874 8.85625C9.08749 8.8875 9.05625 8.91875 9.01875 8.94375C8.9625 8.96875 8.91249 9.00625 8.86874 9.05C8.84375 9.0875 8.93124 9.0375 8.90625 9.1C8.88125 9.16875 8.88125 9.16875 8.84375 9.18125C8.80624 9.19375 8.8125 9.1375 8.8125 9.1375L8.73125 9.175L8.68124 9.25C8.64374 9.3 8.60625 9.34375 8.55624 9.3875C8.5 9.4375 8.45 9.49375 8.40625 9.55625L8.33749 9.66875C8.16249 9.75 7.98124 9.84375 7.79374 9.94375L7.83749 10L7.39999 10.25L7.34999 10.275C7.26249 10.4125 7.14999 10.5312 7.02499 10.6375C7.02499 10.6375 7.08749 10.55 7.04374 10.55L6.96874 10.6375C6.93749 10.6875 6.91874 10.7 6.90624 10.6812L6.89374 10.6625L6.84374 10.725C6.83124 10.7625 6.81249 10.7937 6.78749 10.825L6.69999 10.9062L6.52499 11.0875C6.49999 11.0937 6.46874 11.1 6.44374 11.1125C6.41874 11.1187 6.40624 11.1437 6.41249 11.1687C6.41249 11.175 6.41249 11.175 6.41874 11.1812L6.51874 11.1375C6.42499 11.2187 6.32499 11.3 6.22499 11.375H6.14374C6.14374 11.375 6.14374 11.325 6.11874 11.3437C6.08124 11.3625 6.04999 11.4 6.03749 11.4375L6.04999 11.4562L6.06249 11.5L5.82499 11.6562L5.76249 11.6437L5.68124 11.6625L5.56874 11.725C5.54374 11.7312 5.5125 11.725 5.48749 11.7187L5.38749 11.7812L5.34374 11.8312L5.31249 11.8375L5.26249 11.8562C5.23749 11.8625 5.22499 11.8875 5.23124 11.9125V11.9187V11.925L5.33124 11.8812C5.23749 11.9625 5.23124 12.0687 5.12499 12.15L5.06874 12.1437H5.03749C5.03749 12.1437 5.03749 12.0937 5.01249 12.1125C4.97499 12.1312 4.94374 12.1687 4.93124 12.2062L4.94374 12.225V12.2437L4.94999 12.2687C4.88124 12.3125 4.85624 12.3937 4.78749 12.4375L4.74999 12.4625L4.71249 12.5937L4.63124 12.6187V12.625C4.55624 12.6187 4.48124 12.6062 4.40624 12.6L4.24999 12.6187C4.13749 12.625 4.03749 12.5562 4.01249 12.45L3.89374 12.4812L3.78124 12.4687C3.78124 12.4687 3.83749 12.425 3.78124 12.4125C3.72499 12.4 3.72499 12.4 3.64374 12.4437C3.56249 12.4875 3.70624 12.4875 3.64374 12.5062C3.55624 12.5187 3.47499 12.5187 3.38749 12.5125C3.32499 12.5125 3.26249 12.5125 3.19999 12.5312C3.11249 12.5437 3.05624 12.5312 2.96874 12.5437C2.90624 12.55 2.86874 12.5625 2.79999 12.5687L2.69999 12.575C2.56874 12.575 2.44374 12.55 2.36249 12.5562C2.28124 12.5562 1.95624 12.625 1.93124 12.5812C1.90624 12.5375 1.69999 12.5937 1.56874 12.675L1.54374 12.6187L1.21874 12.725C1.11874 12.7437 1.01874 12.7812 0.937495 12.8437L0.899995 12.8625L0.856245 12.8125C0.774995 12.8562 0.699995 12.9125 0.631245 12.9687L0.568745 13.0687C0.468745 13.15 0.368745 13.2312 0.274995 13.325H0.206245C0.143745 13.6125 0.0999948 13.9 0.0874948 14.1937C0.0812448 14.2875 0.0624948 14.5625 0.0624948 14.675V14.7625C0.0624948 14.8187 0.0624948 14.8812 0.0687448 14.9375L0.0874948 15.0625L0.0624948 15.1812C0.0624948 15.1812 0.0374948 15.1437 0.0187448 15.1562C0.0124948 15.1625 0.00624484 15.1687 0.00624484 15.175C-5.15906e-06 15.1937 -0.00625516 15.2187 -5.15929e-06 15.2375C0.00624484 15.2687 0.0187448 15.2937 0.0312448 15.3187C0.0687448 15.4062 0.0812448 15.2625 0.0937448 15.3187C0.0999948 15.4062 0.0937448 15.5 0.0749948 15.5875C0.0687448 15.65 0.0687448 15.7187 0.0749948 15.7812C0.0749948 15.875 0.0624948 15.9312 0.0687448 16.0187L0.0812448 16.1875V16.2937L0.0437448 16.5625L0.0374948 16.6125C0.0374948 16.7 0.0312448 16.7812 0.0187448 16.8687L0.0687448 16.9937L0.131245 17.3125C0.143745 17.4 0.162495 17.4812 0.193745 17.5687L0.237495 17.6875V17.8062C0.237495 17.8062 0.187495 17.7562 0.181245 17.8125C0.181245 17.8687 0.181245 17.875 0.231245 17.95C0.281245 18.025 0.268745 17.8812 0.293745 17.9437L0.299995 17.9687C0.318745 18.05 0.331245 18.1312 0.331245 18.2125C0.343745 18.3062 0.362495 18.4 0.393745 18.4937C0.424995 18.625 0.437495 18.7187 0.474995 18.8375C0.499995 18.9187 0.524995 18.9937 0.562495 19.0687L0.568745 19.0875L0.587495 19.125C0.637495 19.2375 0.712495 19.3375 0.806245 19.4187C0.849995 19.4562 0.899995 19.4937 0.949995 19.525L1.06874 19.6437C1.06874 19.6437 0.974995 19.625 1.03124 19.6875C1.08749 19.75 1.08749 19.75 1.21874 19.775C1.34999 19.8 1.17499 19.6937 1.25624 19.725L1.59374 19.8875C1.68124 19.925 1.76874 19.9437 1.85624 19.9562C1.96249 19.9875 2.07499 20.0062 2.18749 20.025L2.43749 20.0437L2.54999 20.0562L2.86874 20.125C2.93124 20.1312 3.13124 20.1375 3.13749 20.1812C3.14374 20.225 3.26874 20.2437 3.37499 20.2062V20.275H3.62499L3.81874 20.2875L3.84374 20.2937V20.3625L4.01249 20.3875L4.08124 20.3625C4.15624 20.3875 4.23125 20.4187 4.29999 20.45C4.38125 20.4312 4.33749 20.4062 4.41249 20.3562C4.48124 20.3 4.53749 20.2312 4.57499 20.15C4.67499 20.1625 4.76874 20.1625 4.86874 20.15C5.075 20.1312 4.86874 20.15 5.09999 20.0812C5.12499 20.075 5.14374 20.0625 5.16249 20.0562L5.20624 20.0937L5.32499 20.15C5.46874 20.225 5.39374 20.4062 5.39374 20.4062L5.49374 20.4375L5.56249 20.5C5.56249 20.5 5.49999 20.5125 5.53124 20.5437C5.56249 20.5812 5.56249 20.5812 5.64374 20.5812C5.725 20.5875 5.63124 20.5125 5.68124 20.525C5.74374 20.5562 5.80624 20.6 5.85624 20.65C5.89999 20.6812 5.94375 20.7062 5.98749 20.7312C6.04999 20.7687 6.08124 20.8062 6.14374 20.8312C6.18749 20.85 6.22499 20.8687 6.26249 20.8937L6.33124 20.9437C6.40624 21.0125 6.48124 21.1 6.51249 21.1312C6.54374 21.1625 6.68749 21.2562 6.66874 21.3C6.64999 21.3437 6.73124 21.4125 6.81874 21.425L6.78124 21.4812L6.92499 21.5812L7.04374 21.6812L7.05624 21.7L7.01874 21.7562L7.10624 21.8562L7.16249 21.875C7.19999 21.9375 7.23124 22 7.25624 22.0687L7.23749 22.1375C7.38125 22.15 7.51874 22.175 7.65624 22.2187C7.73749 22.25 7.81875 22.2812 7.89374 22.3187L7.95624 22.35C8 22.3687 8.04375 22.3875 8.08749 22.4062L8.1875 22.4375L8.25625 22.5C8.25625 22.5 8.21875 22.5062 8.21875 22.5312C8.21875 22.5375 8.225 22.5437 8.225 22.55C8.2375 22.5625 8.25 22.575 8.2625 22.5812C8.28749 22.5875 8.3125 22.5875 8.33749 22.5875C8.41875 22.5875 8.325 22.5187 8.375 22.5312C8.44375 22.5625 8.5 22.6 8.55 22.6562C8.5875 22.6875 8.6375 22.7187 8.68124 22.7375C8.74374 22.775 8.77499 22.8125 8.83749 22.8437C8.88124 22.8625 8.91875 22.8875 8.95625 22.9062L9.02499 22.9562C9.08124 23.0062 9.13124 23.0625 9.18124 23.1187L9.20625 23.1437C9.2625 23.1812 9.3125 23.2312 9.35625 23.2875L9.46249 23.3125C9.54375 23.3437 9.61874 23.375 9.7 23.4125C9.7625 23.45 9.825 23.475 9.89375 23.5L9.99374 23.5312L10.0625 23.5937C10.0625 23.5937 10 23.6062 10.0312 23.6375C10.0625 23.675 10.0625 23.675 10.1437 23.675C10.225 23.675 10.1312 23.6062 10.1812 23.6187L10.2 23.625C10.2562 23.6562 10.3125 23.6937 10.3562 23.7375C10.4 23.7687 10.4437 23.8 10.4875 23.8187C10.55 23.8562 10.5812 23.8937 10.6437 23.925C10.7062 23.9562 10.7187 23.9625 10.7625 23.9875L10.775 23.9937L10.7937 24C10.8562 24.0375 10.9187 24.0625 10.9875 24.0875L11.0875 24.1187L11.1562 24.1812C11.1562 24.1812 11.0937 24.1937 11.125 24.225C11.1562 24.2625 11.1562 24.2625 11.2375 24.2625C11.3187 24.2625 11.225 24.1937 11.275 24.2062C11.3375 24.2375 11.4 24.275 11.45 24.3312C11.4875 24.3625 11.5375 24.3875 11.5812 24.4125C11.65 24.45 11.675 24.4875 11.7375 24.5187C11.7812 24.5375 11.8187 24.5562 11.8562 24.5812L11.925 24.6312C12 24.7 12.075 24.7875 12.1062 24.8187C12.1375 24.85 12.2812 24.9437 12.2625 24.9875C12.2437 25.0312 12.325 25.1 12.4125 25.1187L12.375 25.175L12.5187 25.275L12.6375 25.375L12.65 25.3937L12.6125 25.45L12.7 25.5562L12.7562 25.575C12.7875 25.6375 12.8187 25.7 12.8437 25.7625C12.9062 25.7875 12.8937 25.7437 12.975 25.75C13.0562 25.7437 13.1312 25.7187 13.2 25.675C13.2562 25.7375 13.325 25.7937 13.3937 25.8437C13.5437 25.9437 13.3937 25.8437 13.6 25.925C13.8062 26.0062 13.7937 25.9 13.925 26.0312C13.9875 26.1 14.0687 26.1562 14.1625 26.1812C14.2062 26.175 14.2562 26.175 14.3 26.1812C14.3437 26.1875 14.3875 26.1875 14.4312 26.1812C14.4312 26.1812 14.5 26.2062 14.5625 26.1C14.625 25.9875 14.625 26.1812 14.65 26.1125C14.7562 26.0312 14.8437 25.925 14.8937 25.8C14.9 25.8312 14.925 25.8687 15.025 25.9625C15.0937 26.0312 15.0562 26.05 15.2062 25.9625C15.2687 25.8812 15.3312 25.8062 15.4 25.7312C15.475 25.7125 15.45 25.5437 15.525 25.6C15.6437 25.3625 15.7625 25.1125 15.8687 24.8437L16 24.5812L16.1875 24.075L16.2187 23.9875C16.2562 23.725 16.3312 23.475 16.45 23.2437C16.45 23.2437 16.45 23.6312 16.5812 23.075C16.6562 22.75 16.6875 22.4187 16.6687 22.0875C16.7125 21.6875 16.775 21.2875 16.8687 20.8875C16.95 20.5562 16.9812 20.2125 16.9625 19.8687C16.9875 19.3625 17 18.85 17.0062 18.3437L16.9687 17.9812H17.0312L17.0375 17.9562L17.0625 17.75L17.0687 17.5187H17.1312C17.0937 17.4125 17.1125 17.2687 17.1562 17.2625C17.2 17.2562 17.2062 17.0312 17.2125 16.9687C17.2187 16.9062 17.2562 16.7625 17.2687 16.6312V16.5187C17.2687 16.45 17.2625 16.4062 17.2562 16.3375C17.2937 16.275 17.3062 16.2125 17.3 16.1187ZM14.1437 23.7562L14.175 23.7625C14.1687 23.775 14.175 23.7687 14.1812 23.8062L14.1437 23.7562ZM14.9187 19.975C14.9062 20.0562 14.9062 20.1312 14.9062 20.2125C14.9062 20.325 14.8812 20.3937 14.8812 20.5V20.7125L14.8625 20.8437C14.8312 20.9937 14.7812 21.1625 14.7625 21.225C14.7437 21.2875 14.7125 21.55 14.6687 21.55C14.625 21.55 14.5875 21.7125 14.6062 21.8375L14.5437 21.825L14.5 22.0875L14.4437 22.3125L14.4312 22.3437L14.3625 22.3312L14.2875 22.5187V22.6062C14.2437 22.6875 14.1875 22.7687 14.1312 22.8437C14.125 22.9437 14.1625 22.9 14.1812 23.0062C14.2062 23.1 14.25 23.1937 14.3125 23.2687C14.2625 23.3875 14.225 23.5062 14.1937 23.6312L14.1812 23.6812C14.1562 23.65 14.125 23.625 14.0937 23.6C13.9375 23.475 13.7562 23.3875 13.5687 23.3375V23.3437C13.3562 23.2187 13.1625 23.0687 12.9937 22.8937C12.85 22.7375 12.6812 22.6187 12.4875 22.5437L11.7 22.05L11.4875 21.9625L11.525 21.9062L11.5187 21.8937L11.425 21.8062L11.3062 21.725L11.3437 21.6687C11.2687 21.6687 11.2062 21.6 11.225 21.5625C11.2437 21.5187 11.1312 21.4437 11.1062 21.4187C11.0812 21.3937 11.025 21.3187 10.9625 21.2562L10.9062 21.2125C10.875 21.1937 10.8375 21.175 10.8062 21.1625C10.7562 21.1375 10.7375 21.1 10.6812 21.075C10.6437 21.0625 10.6062 21.0375 10.575 21.0125C10.5312 20.9687 10.4875 20.9375 10.4312 20.9125C10.3875 20.9062 10.4625 20.9625 10.3937 20.9687C10.325 20.975 10.325 20.9687 10.3 20.9437C10.275 20.9187 10.3312 20.9 10.3312 20.9L10.275 20.85L10.1875 20.8312C10.1312 20.8187 10.075 20.7937 10.025 20.7687C9.96249 20.7375 9.89375 20.7125 9.825 20.6937L9.70625 20.6625C9.575 20.5312 9.4375 20.3937 9.2875 20.2562L9.25 20.3125L8.8875 19.9937L8.85 19.9562C8.7 19.9187 8.55624 19.8625 8.41875 19.7875C8.41875 19.7875 8.51875 19.8125 8.50625 19.775L8.40625 19.7312C8.35 19.7187 8.33125 19.7062 8.34375 19.6875L8.35625 19.6687L8.2875 19.6437C8.25 19.6437 8.2125 19.6437 8.175 19.6312L8.075 19.5812L7.86249 19.4812C7.85 19.4562 7.83124 19.4375 7.81874 19.4187C7.80624 19.4 7.77499 19.3937 7.75624 19.4125C7.74999 19.4125 7.74999 19.4187 7.74999 19.4187L7.81874 19.5C7.71874 19.4437 7.61249 19.3812 7.51249 19.3062L7.49999 19.2187C7.49999 19.2187 7.54999 19.2062 7.52499 19.1875C7.49374 19.1562 7.45624 19.1437 7.41249 19.1437L7.39999 19.1625L7.36249 19.1875L7.14999 19.0187L7.14374 18.9562L7.09999 18.8875L7.01249 18.8C6.99999 18.775 6.99374 18.75 6.99374 18.7187L6.91249 18.6437L6.85624 18.6187L6.83749 18.5937L6.80624 18.5562C6.79375 18.5375 6.76874 18.5312 6.74999 18.5437L6.74374 18.55L6.73749 18.5562L6.80624 18.6375C6.70624 18.5812 6.59999 18.6062 6.49999 18.5375L6.48749 18.4812V18.4562C6.48749 18.4562 6.53749 18.4437 6.51249 18.4187C6.48124 18.3875 6.44374 18.375 6.39999 18.3812L6.38749 18.4L6.37499 18.4125L6.35624 18.425C6.31874 18.4 6.27499 18.3812 6.23124 18.3625C6.21874 18.35 6.20624 18.3312 6.19374 18.3187C6.11249 18.3 6.03749 18.2687 5.96249 18.2375C5.92499 18.175 5.81874 18.2625 5.83749 18.175C5.75624 18.1687 5.67499 18.1625 5.59999 18.1562L5.56249 18.1187C5.48124 18.175 5.55624 18.0312 5.49374 18.1C5.49374 18.1 5.46874 18.0437 5.28749 18.075C5.23749 18.0812 5.19374 18.0937 5.14999 18.1062L5.04999 18.0875L4.67499 18.0687L4.61249 18.0625C4.475 18.15 4.09374 18.0375 4.09374 18.0375C4.09374 18.0375 4.33124 17.9437 3.96874 17.95C3.76874 17.95 3.57499 17.9875 3.38749 18.0562C3.15624 18.075 2.92499 18.05 2.69999 17.9812C2.67499 17.9 2.61874 17.9625 2.61249 17.9625C2.54999 17.9625 2.52499 17.9125 2.49999 17.8562C2.48124 17.8312 2.46874 17.8562 2.43749 17.7625L2.49999 17.7562V17.75V17.6187L2.48124 17.475L2.54999 17.4687C2.49999 17.4062 2.50624 17.3187 2.54999 17.3062C2.59374 17.2937 2.58124 17.1562 2.58124 17.1187L2.61874 16.9062V16.8375C2.61874 16.7937 2.60624 16.7687 2.59374 16.725C2.58749 16.6812 2.59374 16.6312 2.58749 16.575C2.57499 16.5312 2.57499 16.4937 2.57499 16.45C2.58749 16.3937 2.58749 16.3312 2.57499 16.275C2.55624 16.2312 2.54999 16.3312 2.50624 16.275C2.46249 16.2187 2.46249 16.2187 2.47499 16.1812C2.48749 16.1437 2.53124 16.1812 2.53124 16.1812L2.54374 16.1062L2.51249 16.025C2.49374 15.9687 2.48124 15.9125 2.48124 15.85C2.47499 15.7812 2.45624 15.7062 2.44374 15.6375L2.39999 15.5187L2.55624 14.95L2.48749 14.9437C2.51874 14.8562 2.53124 14.8875 2.55624 14.8625H2.56874C2.52499 14.8312 2.50624 14.7812 2.51874 14.7312C2.52499 14.75 2.53749 14.775 2.55624 14.7875V14.7562C2.54999 14.7312 2.55624 14.7312 2.56874 14.75L2.58749 14.7687V14.75C2.58124 14.7312 2.57499 14.7125 2.57499 14.7L2.59374 14.6812C2.60624 14.6625 2.61874 14.6437 2.63124 14.6312L2.65624 14.6562C2.66874 14.6687 2.66249 14.6187 2.66249 14.6187L2.63124 14.5937C2.71874 14.5687 2.80624 14.5562 2.89374 14.55L2.96249 14.6062C2.96249 14.6062 2.93124 14.65 2.96249 14.65C3.00624 14.6562 3.04374 14.6375 3.07499 14.6125V14.5937L3.08749 14.55H3.36874L3.41874 14.5937L3.49999 14.6187L3.63124 14.6375C3.65624 14.65 3.68124 14.6687 3.69999 14.6875L3.81874 14.7L3.88749 14.6875H3.87499L3.92499 14.7C3.94999 14.7125 3.97499 14.7 3.98749 14.675C3.98749 14.675 3.98749 14.675 3.98749 14.6687V14.6625L3.88124 14.6375C4.00624 14.625 4.08749 14.55 4.21874 14.55L4.26249 14.5875L4.28124 14.6062C4.28124 14.6062 4.24374 14.6437 4.28124 14.65C4.32499 14.6562 4.36874 14.65 4.40624 14.6187V14.6L4.41249 14.5812L4.41874 14.5562C4.50624 14.5562 4.58124 14.5187 4.66249 14.525H4.70624L4.81874 14.4437L4.89999 14.475L5.03749 14.375C5.06249 14.3875 5.08749 14.4062 5.10624 14.4312C5.16874 14.4375 5.21874 14.3562 5.25624 14.3625L5.34374 14.375C5.38749 14.2875 5.40624 14.4437 5.41874 14.35C5.41874 14.35 5.48124 14.3812 5.63124 14.2562C5.78124 14.1312 5.78124 14.1062 5.78124 14.1062C5.78124 14.1062 5.80624 14.0937 5.84374 14.0187C5.84374 14.0125 5.84374 14.0125 5.84374 14.0062C5.95624 13.9437 6.06875 13.8687 6.17499 13.8L6.26874 13.7C6.3875 13.5812 6.53749 13.7062 6.53749 13.7062L6.59999 13.6187L6.68749 13.5687C6.68749 13.5687 6.67499 13.6312 6.71874 13.6125C6.76249 13.5937 6.76249 13.5937 6.79374 13.5187C6.82499 13.4437 6.72499 13.5125 6.75624 13.4687C6.80624 13.4125 6.86874 13.3687 6.93124 13.3375C6.97499 13.3062 7.01874 13.275 7.05624 13.2375C7.11249 13.1875 7.15624 13.1687 7.21249 13.1187C7.26874 13.0687 7.27499 13.0562 7.31249 13.0187L7.38749 12.9687C7.48124 12.9187 7.59374 12.875 7.63124 12.8562C7.66874 12.8312 7.81249 12.7312 7.84374 12.7625C7.87499 12.7937 7.975 12.7375 8.01875 12.6625L8.0625 12.7312L8.20625 12.625L8.34375 12.5437L8.3625 12.5375L8.39999 12.5875L8.53125 12.5375L8.56875 12.4875C8.64375 12.475 8.7125 12.4687 8.7875 12.4625L8.84375 12.5062C8.90625 12.3687 8.98125 12.2437 9.06875 12.125C9.125 12.0562 9.1875 11.9937 9.25 11.9312L9.3 11.8812C9.3375 11.85 9.36874 11.8125 9.39999 11.775L9.46875 11.6875L9.55624 11.6437C9.55624 11.6437 9.55 11.6875 9.56875 11.6875H9.58749C9.60625 11.6812 9.61875 11.675 9.63125 11.6625C9.64375 11.6437 9.65625 11.6187 9.6625 11.5937C9.69375 11.5187 9.59375 11.5875 9.625 11.5375C9.675 11.4875 9.73749 11.4437 9.80624 11.4062C9.84999 11.375 9.89374 11.3437 9.93124 11.3062C9.98749 11.2562 10.0375 11.2437 10.0875 11.1937C10.1375 11.1437 10.15 11.1312 10.1875 11.1L10.2625 11.05C10.3375 11.0125 10.4187 10.9812 10.4687 10.9562L10.5062 10.9375C10.5625 10.9 10.6312 10.8625 10.6937 10.8437L10.7562 10.75C10.8125 10.6812 10.875 10.6187 10.9437 10.5562C11 10.5062 11.05 10.4562 11.1 10.4L11.1687 10.3125L11.2562 10.2687C11.2562 10.2687 11.2437 10.3312 11.2875 10.3125C11.3312 10.2937 11.3312 10.2937 11.3687 10.2187C11.4062 10.1437 11.3 10.2125 11.3312 10.1625L11.3437 10.15C11.3937 10.1062 11.45 10.0687 11.5125 10.0375C11.5562 10.0062 11.6 9.975 11.6375 9.9375C11.6937 9.8875 11.7437 9.875 11.8 9.825C11.8312 9.79375 11.8687 9.7625 11.9062 9.73125L11.9187 9.725L11.9375 9.70625C11.9937 9.6625 12.0437 9.60625 12.0937 9.55L12.1625 9.4625L12.25 9.41875C12.25 9.41875 12.2375 9.48125 12.2812 9.4625C12.325 9.44375 12.325 9.44375 12.3625 9.36875C12.3937 9.29375 12.2937 9.35625 12.325 9.3125C12.3812 9.2625 12.4437 9.21875 12.5062 9.1875C12.55 9.1625 12.5937 9.125 12.6312 9.0875C12.6875 9.0375 12.7375 9.025 12.7937 8.975C12.825 8.94375 12.8625 8.9125 12.9 8.88125L12.975 8.83125C13.0687 8.78125 13.1812 8.74375 13.2187 8.73125C13.2625 8.7125 13.4062 8.6125 13.4375 8.64375C13.4687 8.675 13.5687 8.625 13.6187 8.55L13.6562 8.60625L13.8062 8.50625L13.95 8.43125L13.9687 8.425L14.0062 8.48125L14.1437 8.4375L14.1812 8.3875H14.2312L14.2812 8.53125C14.3312 8.65625 14.2875 8.79375 14.1812 8.86875L14.2437 9.0125L14.2625 9.15625C14.2625 9.15625 14.2062 9.09375 14.2062 9.16875C14.2062 9.24375 14.2062 9.24375 14.2687 9.33125C14.3312 9.425 14.3 9.25 14.3312 9.31875C14.3625 9.425 14.3875 9.53125 14.3937 9.6375C14.4062 9.7125 14.4187 9.79375 14.4437 9.86875C14.475 9.98125 14.4687 10.05 14.4937 10.15C14.5125 10.225 14.525 10.275 14.5437 10.3562L14.5625 10.4875C14.575 10.6437 14.5625 10.8125 14.5687 10.8812C14.575 10.95 14.6062 11.2062 14.5625 11.225C14.5187 11.2375 14.525 11.4062 14.575 11.525L14.5125 11.5312L14.5437 11.7937L14.55 12.0312L14.5437 12.0625L14.4812 12.0687L14.4625 12.275L14.4875 12.3625C14.4687 12.4625 14.4375 12.5562 14.4062 12.65L14.3437 12.6875C14.4312 12.875 14.5062 13.0687 14.5625 13.2687C14.5812 13.35 14.6125 13.4937 14.6312 13.65L14.65 13.75L14.6875 13.9625L14.725 14.1125L14.7187 14.2562C14.7187 14.2562 14.6875 14.2125 14.675 14.2375C14.6687 14.2437 14.6687 14.25 14.6687 14.2625C14.6625 14.2875 14.6625 14.3125 14.6687 14.3375C14.6812 14.375 14.6937 14.4062 14.7062 14.4375C14.75 14.5375 14.75 14.3562 14.775 14.4375C14.7875 14.5437 14.7937 14.6562 14.7812 14.7687C14.7812 14.85 14.7812 14.925 14.7937 15.0062C14.8062 15.1187 14.7875 15.1937 14.7937 15.2937L14.8125 15.5V15.6375C14.8 15.7625 14.7812 15.8937 14.7687 15.975L14.7625 16.0375C14.7625 16.1437 14.75 16.25 14.7312 16.3562L14.7687 16.5187C14.7812 16.6 14.8 16.75 14.8125 16.9125C14.8187 17.0187 14.825 17.1312 14.8437 17.2375L14.875 17.3937L14.8625 17.5375C14.8625 17.5375 14.8187 17.4625 14.8062 17.5375C14.7937 17.6125 14.7937 17.6125 14.8312 17.7125C14.8687 17.8187 14.8812 17.6375 14.9 17.7125V17.7437C14.9062 17.8437 14.9 17.95 14.8875 18.05C14.8812 18.1312 14.8812 18.2125 14.8875 18.2875C14.8875 18.4 14.875 18.475 14.875 18.575L14.8812 18.7875V18.8437C14.8812 18.95 14.8875 19.0562 14.9 19.1687L14.925 19.325L14.9062 19.4687C14.9062 19.4687 14.8687 19.3937 14.85 19.4687C14.8375 19.5437 14.8375 19.5375 14.8687 19.6437C14.9 19.75 14.925 19.5687 14.9375 19.6437C14.95 19.7562 14.9437 19.8687 14.9187 19.975Z" fill="#0041E6"/>
</g>
<defs>
<clipPath id="clip0_7664_50154">
<rect width="32" height="32" fill="white"/>
</clipPath>
</defs>
</svg>
