<svg width="32" height="32" viewBox="0 0 32 32" fill="none" xmlns="http://www.w3.org/2000/svg">
<g clip-path="url(#clip0_7664_50193)">
<path d="M5.85626 16.3563C5.85626 16.3875 5.86876 16.4063 5.86876 16.4313C5.87501 16.4813 5.88751 16.5313 5.90626 16.5813L5.94376 16.6875C5.94376 16.7563 5.93126 16.7875 5.93126 16.7875C5.93126 16.7875 5.90001 16.7625 5.88126 16.775C5.87501 16.7813 5.87501 16.7875 5.86876 16.7938C5.86251 16.8125 5.86251 16.8313 5.86876 16.85C5.88126 16.875 5.89376 16.9 5.91251 16.9188C5.96251 16.9875 5.96876 16.8625 5.98751 16.9188C6.00001 16.9938 6.00001 17.075 5.98751 17.1563C5.98126 17.2125 5.98751 17.2688 6.00001 17.325C6.01251 17.4063 5.99376 17.4563 6.00001 17.5313C6.00626 17.5875 6.01876 17.6188 6.01876 17.675V17.7688C6.00626 17.85 5.99376 17.925 5.96876 18.0063C5.96876 18.025 5.96251 18.0375 5.96251 18.05C5.96251 18.125 5.95001 18.2 5.93126 18.2688C5.94376 18.3063 5.96251 18.3438 5.98126 18.3875C6.00626 18.475 6.02501 18.5688 6.04376 18.6625C6.05001 18.7375 6.06876 18.8125 6.09376 18.8875L6.13126 18.9938C6.13126 19.0625 6.11876 19.0938 6.11876 19.0938C6.11876 19.0938 6.06876 19.0438 6.05626 19.0938C6.04376 19.1438 6.04376 19.1438 6.09376 19.2188C6.14376 19.2875 6.15001 19.1625 6.16876 19.2188V19.2375C6.18126 19.3063 6.18126 19.3813 6.16876 19.45C6.16251 19.5063 6.16876 19.5625 6.18126 19.6188C6.19376 19.7 6.17501 19.75 6.18126 19.825C6.19376 19.875 6.20001 19.925 6.20001 19.975V19.9875V20.0125C6.20626 20.0875 6.22501 20.1625 6.25001 20.2375L6.28751 20.3438C6.28126 20.4125 6.27501 20.4438 6.27501 20.4438C6.27501 20.4438 6.22501 20.3938 6.21251 20.4438C6.20001 20.4938 6.20001 20.4938 6.25001 20.5688C6.30001 20.6438 6.30626 20.5125 6.32501 20.5688C6.33751 20.6438 6.33751 20.725 6.32501 20.8063C6.31876 20.8625 6.32501 20.9188 6.33751 20.975C6.35001 21.0563 6.33126 21.1063 6.33751 21.1813C6.35001 21.2313 6.35626 21.2813 6.35626 21.325V21.4188C6.34376 21.525 6.30626 21.6563 6.30001 21.6938C6.29376 21.7375 6.30001 21.9313 6.24376 21.9375C6.18751 21.9438 6.17501 22.0625 6.22501 22.15H6.16251V22.3375L6.14376 22.5063L6.13751 22.525H6.06251L6.02501 22.6688L6.05001 22.7313C6.01251 22.8 5.97501 22.8625 5.93126 22.925C5.95001 23 5.98126 22.9563 6.03126 23.0313C6.09376 23.1 6.16876 23.1563 6.25001 23.1938C6.22501 23.2813 6.21876 23.375 6.22501 23.4688C6.22501 23.6688 6.22501 23.4688 6.28126 23.7063C6.33751 23.9438 6.43751 23.8688 6.40001 24.0688C6.37501 24.1688 6.38126 24.275 6.41251 24.3688C6.45001 24.4063 6.48126 24.45 6.51251 24.4938C6.53751 24.5375 6.56876 24.575 6.60001 24.6125C6.61876 24.6313 6.64376 24.65 6.66876 24.6625V24.7875C6.66876 24.8313 6.60001 25.1063 6.65626 25.15C6.68751 25.175 6.73751 25.1813 6.77501 25.1625C6.77501 25.1625 6.74376 25.3625 6.81876 25.4063L6.89376 25.45C6.99376 25.4938 7.10001 25.525 7.21251 25.5438L7.27501 25.5188C7.35001 25.4938 7.36876 25.7125 7.36876 25.7125L7.41876 25.675L7.46251 25.6875C7.46251 25.6875 7.44376 25.7375 7.46251 25.75C7.48126 25.7625 7.48126 25.7625 7.51251 25.7125C7.54376 25.6625 7.48751 25.6563 7.51251 25.6375C7.53751 25.6188 7.58126 25.625 7.61251 25.6375C7.64376 25.65 7.65001 25.6375 7.68126 25.625C7.71251 25.6125 7.73751 25.6313 7.76876 25.625C7.78751 25.6125 7.81251 25.6063 7.83126 25.6063H7.86876C7.90626 25.625 7.95001 25.6438 7.98751 25.6625C8.00626 25.6688 8.08751 25.6625 8.08751 25.7188C8.09376 25.775 8.13751 25.7875 8.17501 25.7375V25.8125H8.25626L8.32501 25.8313L8.33126 25.8375V25.9188L8.39376 25.9563L8.41876 25.9313C8.45001 25.9688 8.48126 26.0063 8.50626 26.05L8.51876 26.125C8.56876 26.05 8.63126 25.9813 8.69376 25.9188C8.73126 25.8938 8.76876 25.875 8.81251 25.8563L8.84376 25.825C8.86876 25.8188 8.88751 25.8063 8.90626 25.7938L8.95001 25.7563L8.99376 25.7688C8.98751 25.7875 8.98751 25.8 8.98751 25.8188L8.99376 25.8313C9.00626 25.8313 9.01251 25.8375 9.01876 25.8313C9.03126 25.8188 9.03751 25.8063 9.05001 25.7875C9.08126 25.7375 9.02501 25.7313 9.05001 25.7125C9.07501 25.6938 9.11876 25.7063 9.15001 25.7125C9.18126 25.7188 9.18751 25.7125 9.21876 25.7C9.25001 25.6875 9.27501 25.7063 9.30626 25.7C9.32501 25.6938 9.35001 25.6813 9.36876 25.6813H9.40626C9.44376 25.6938 9.47501 25.7125 9.50626 25.7313L9.52501 25.7375C9.54376 25.7375 9.60001 25.7375 9.61876 25.7688L9.66876 25.7188C9.70626 25.6938 9.74376 25.675 9.78751 25.6563C9.81876 25.6438 9.85626 25.6313 9.88126 25.6063L9.92501 25.5688L9.96876 25.5813C9.96876 25.5813 9.95001 25.6313 9.96876 25.6438C9.98751 25.6563 9.99376 25.6563 10.0188 25.6063C10.05 25.5563 9.99376 25.55 10.0188 25.5313H10.025C10.0563 25.525 10.0875 25.525 10.1125 25.5313C10.1438 25.5313 10.15 25.5313 10.1813 25.5188C10.2125 25.5063 10.2375 25.525 10.2688 25.5188C10.2875 25.5063 10.3063 25.5 10.3313 25.5H10.3438C10.375 25.4875 10.4063 25.475 10.4375 25.45L10.4813 25.4125L10.525 25.425C10.525 25.425 10.5063 25.475 10.525 25.4875C10.5438 25.5 10.55 25.5 10.575 25.45C10.6063 25.4 10.55 25.3938 10.575 25.375C10.6 25.3563 10.6438 25.3625 10.675 25.375C10.7063 25.3875 10.7125 25.375 10.7438 25.3625C10.775 25.35 10.8 25.3688 10.8313 25.3625C10.85 25.35 10.8688 25.3438 10.8938 25.3438H10.9313C10.9688 25.3625 11.0125 25.3813 11.05 25.4C11.075 25.4 11.15 25.4 11.1563 25.4563C11.1625 25.5125 11.2125 25.525 11.2438 25.475V25.55H11.325L11.4 25.5688L11.4125 25.575V25.6563L11.475 25.6938L11.5 25.6688C11.5313 25.7063 11.5625 25.7438 11.5875 25.7875C11.6188 25.7688 11.6 25.7375 11.625 25.6938C11.65 25.625 11.6688 25.55 11.6813 25.475C11.7188 25.5 11.7563 25.5063 11.8 25.5C11.8813 25.5 11.8 25.5 11.8938 25.4438C11.9875 25.3875 11.95 25.2875 12.0375 25.325C12.075 25.35 12.1313 25.3438 12.1625 25.3125C12.175 25.2813 12.1875 25.2438 12.2063 25.2125C12.225 25.1813 12.2375 25.1563 12.25 25.1188C12.25 25.1188 12.2813 25.1 12.2688 24.9563C12.2563 24.8125 12.3188 24.9938 12.3 24.9125C12.3 24.8438 12.3 24.8 12.3 24.75C12.325 24.7375 12.35 24.7188 12.3688 24.7C12.4 24.6313 12.4313 24.5688 12.475 24.5125C12.55 24.4813 12.45 24.3875 12.55 24.4063C12.5813 24.2375 12.6125 24.0563 12.6375 23.875L12.6938 23.6875L12.75 23.3375L12.7625 23.2813C12.675 23.1438 12.8313 22.775 12.8313 22.775C12.8313 22.775 12.925 23.0188 12.9375 22.65C12.95 22.4313 12.9125 22.2063 12.8313 22C12.8063 21.7313 12.8188 21.4625 12.875 21.1938C12.9313 20.9688 12.9313 20.7375 12.875 20.5125L12.8125 19.4875C12.7938 19.4 12.775 19.3188 12.7563 19.2438H12.8313L12.8375 19.225L12.8563 19.0875V18.875H12.9313C12.8875 18.8 12.9 18.7063 12.9563 18.7C13.0063 18.6938 13.0063 18.5438 13.0125 18.5C13.0188 18.4563 13.0563 18.3625 13.0688 18.2625C13.0688 18.2375 13.0688 18.2125 13.0688 18.1813C13.0625 18.1438 13.0563 18.1 13.05 18.0625C13.0375 18 13.0563 17.9563 13.05 17.8938C13.0375 17.85 13.0313 17.8 13.0375 17.7563C13.05 17.6938 13.05 17.625 13.0375 17.5625C13.0188 17.5188 13.0125 17.625 12.9625 17.5625C12.9125 17.5 12.9125 17.5 12.925 17.4625C12.9375 17.425 12.9875 17.4625 12.9875 17.4625C12.9938 17.4313 13 17.4063 13 17.375L12.9625 17.2875C12.9375 17.225 12.925 17.1625 12.9125 17.1C12.9 17.025 12.8813 16.9438 12.8563 16.875C12.8375 16.8313 12.8125 16.7875 12.7938 16.75C12.8313 16.55 12.8688 16.3375 12.9 16.1188H12.8188L12.8813 15.5938L12.8938 15.5375C12.825 15.3813 12.7813 15.2125 12.7688 15.0375C12.7688 15.0375 12.8063 15.1438 12.8375 15.1125L12.8063 14.9938C12.7813 14.9375 12.775 14.9125 12.8063 14.9125H12.8375L12.8125 14.8313C12.7875 14.8 12.7625 14.7625 12.75 14.725L12.7313 14.6L12.6813 14.3438C12.6938 14.3188 12.7063 14.2938 12.7125 14.2625C12.7188 14.2375 12.7063 14.2063 12.6813 14.2C12.675 14.2 12.675 14.2 12.6688 14.2L12.6375 14.3188C12.625 14.1875 12.6125 14.0563 12.6125 13.9188L12.6813 13.85C12.6813 13.85 12.725 13.8875 12.7313 13.85C12.7375 13.8063 12.725 13.7563 12.6938 13.725H12.6688L12.6125 13.6938C12.6125 13.5938 12.6125 13.4938 12.625 13.3938L12.6813 13.3438L12.7125 13.2625L12.7375 13.1313C12.75 13.1063 12.775 13.0813 12.8 13.0625C12.8063 13.0125 12.8125 12.975 12.8125 12.9438L12.8 12.875C12.8063 12.8688 12.8125 12.8563 12.8125 12.8438C12.8188 12.825 12.825 12.8125 12.8313 12.7938C12.8438 12.7688 12.8313 12.7438 12.8063 12.7313H12.8H12.7875L12.7563 12.85C12.7438 12.7188 12.65 12.6438 12.65 12.5125L12.6938 12.4688L12.7188 12.4438C12.7188 12.4438 12.7625 12.4813 12.7688 12.4438C12.775 12.4 12.7625 12.3563 12.7313 12.3188H12.7063L12.6875 12.3125L12.6563 12.3063C12.6563 12.2188 12.6063 12.1438 12.6125 12.0625C12.6125 12.05 12.6125 12.0313 12.6125 12.0188L12.5188 11.9063L12.55 11.825L12.4313 11.6938C12.4438 11.6688 12.4688 11.6438 12.4938 11.625C12.5 11.5688 12.4 11.5188 12.4063 11.4813L12.4188 11.4C12.3125 11.3625 12.4938 11.3375 12.3875 11.3313C12.3875 11.3313 12.425 11.2688 12.2688 11.1313C12.2375 11.1063 12.2313 11.1 12.2125 11.0875C12.225 11.05 12.2313 11.1375 12.2563 10.8375C12.275 10.775 12.2688 10.7063 12.2375 10.6438C12.2063 10.6125 12.1813 10.575 12.1625 10.5375C12.15 10.4625 12.1125 10.5625 12.1188 10.4625C12.05 10.4313 11.975 10.4 11.9 10.375L11.825 10.3125L11.6813 10.2563L11.6563 10.2438C11.6 10.3313 11.45 10.1688 11.45 10.1688C11.45 10.1688 11.55 10.0813 11.4 10.0625C11.3 10.0563 11.2063 10.0938 11.1375 10.1625C11.025 10.1813 10.9063 10.1688 10.8063 10.1125C10.7188 10.0625 10.6125 10.0625 10.525 10.1125L10.1063 10.1625C10.0688 10.1813 10.0375 10.2 10.0063 10.2188V10.125L10 10.1125L9.94376 10.0938H9.88126V10.0188C9.85001 10.0625 9.81251 10.05 9.81251 9.99376C9.81251 9.94376 9.75001 9.94376 9.73126 9.93751C9.70001 9.91876 9.66876 9.89376 9.63751 9.88126H9.60626C9.58751 9.88751 9.56876 9.89376 9.55626 9.90001C9.53126 9.91251 9.51251 9.88751 9.48751 9.90001C9.45626 9.91251 9.45626 9.91876 9.43126 9.91251C9.40626 9.90626 9.36876 9.89376 9.35001 9.91251C9.33126 9.93126 9.37501 9.93751 9.35001 9.98751C9.32501 10.0375 9.32501 10.0375 9.30626 10.025C9.28751 10.0125 9.30626 9.96251 9.30626 9.96251C9.29376 9.95626 9.28126 9.95001 9.27501 9.95001L9.23751 9.98751C9.21876 10.0063 9.18751 10.025 9.16251 10.0313C9.13126 10.0438 9.10001 10.0625 9.06876 10.0875C9.05001 10.1063 9.03126 10.1313 9.01876 10.15C8.93751 10.1063 8.85001 10.0688 8.76251 10.0375V10.1188L8.55001 10.0563L8.52501 10.0438C8.46876 10.1 8.40001 10.1438 8.31876 10.1625C8.31876 10.1625 8.36251 10.125 8.35001 10.0938L8.30001 10.1188C8.27501 10.1438 8.26876 10.15 8.26876 10.1188V10.075L8.23751 10.0938C8.22501 10.1188 8.21251 10.1375 8.19376 10.1563L8.14376 10.175L8.03751 10.225C8.02501 10.2125 8.01876 10.2 8.00626 10.1938C7.98126 10.175 7.98126 10.2375 7.98126 10.2375L8.02501 10.2688C7.96876 10.2813 7.91876 10.2875 7.86251 10.2875L7.83751 10.2188C7.83751 10.2188 7.85001 10.175 7.83751 10.1688C7.80001 10.1625 7.78751 10.2063 7.78751 10.2063V10.2313V10.2813C7.75001 10.275 7.70626 10.2688 7.66876 10.2625L7.65001 10.2125L7.61876 10.175L7.56251 10.15C7.55001 10.1313 7.54376 10.1063 7.53751 10.0875C7.51876 10.0813 7.50626 10.075 7.48751 10.075L7.45626 10.0875L7.43126 10.0813L7.41251 10.0625C7.39376 10.05 7.38751 10.0813 7.38751 10.0938V10.1063L7.43126 10.1375C7.38126 10.15 7.35001 10.2375 7.29376 10.2375L7.27501 10.1938L7.26251 10.1688C7.26251 10.1688 7.27501 10.125 7.26251 10.1188C7.22501 10.1125 7.21251 10.1563 7.21251 10.1563V10.1813V10.2V10.2313C7.17501 10.2313 7.14376 10.2813 7.11251 10.275H7.09376L7.05001 10.3688L7.01876 10.3313L6.96876 10.45C6.95626 10.4313 6.95001 10.4125 6.94376 10.3875C6.91876 10.375 6.90001 10.475 6.88751 10.475L6.85626 10.4625C6.84376 10.5688 6.83126 10.3875 6.82501 10.4938C6.82501 10.4938 6.80001 10.4563 6.74376 10.6125C6.71876 10.6688 6.70001 10.7313 6.68751 10.7938C6.67501 10.825 6.66876 10.8625 6.66251 10.9C6.65001 10.9875 6.66251 11.0813 6.70626 11.0875C6.75001 11.0938 6.72501 11.1938 6.71876 11.225C6.66876 11.225 6.63126 11.2375 6.61876 11.275C6.59376 11.3625 6.58751 11.4563 6.60626 11.55C6.60626 11.55 6.40626 11.4813 6.36251 11.6625C6.35001 11.7188 6.33126 11.7813 6.31876 11.8438C6.27501 12.0938 6.24376 12.35 6.22501 12.6063C6.23751 12.6563 6.24376 12.7 6.25001 12.75C6.27501 12.925 6.05626 12.975 6.05626 12.975L6.09376 13.0813C6.09376 13.15 6.08126 13.1813 6.08126 13.1813C6.08126 13.1813 6.03126 13.1313 6.01876 13.1813C6.00626 13.2313 6.00626 13.2313 6.05626 13.3063C6.10626 13.3813 6.11251 13.25 6.13126 13.3063C6.14376 13.3813 6.14376 13.4625 6.13126 13.5438C6.12501 13.6 6.13126 13.6563 6.14376 13.7125C6.15626 13.7938 6.13751 13.8438 6.14376 13.9188C6.15626 13.9688 6.16251 14.0188 6.16251 14.0625V14.1563C6.15001 14.2625 6.11251 14.3875 6.10626 14.4313C6.10001 14.4813 6.10626 14.6688 6.05001 14.675C5.99376 14.6813 5.98126 14.8 6.03126 14.8875H5.95001V15.075L5.93751 15.2313L5.93126 15.2563H5.84376L5.80626 15.4L5.83126 15.4625C5.79376 15.5313 5.75626 15.6 5.71251 15.6625L5.63751 15.6875C5.71876 15.8188 5.79376 15.9625 5.84376 16.1063C5.82501 16.1688 5.84376 16.2625 5.85626 16.3563ZM8.57501 12.9938L8.56251 13.0438C8.56251 13.0375 8.55626 13.0313 8.55626 13.0188L8.57501 12.9938ZM8.49376 13.9063H8.46876L8.41876 13.8938C8.41876 13.7938 8.41876 13.6938 8.43126 13.6L8.48126 13.55L8.51251 13.4688L8.53751 13.3375C8.55626 13.3125 8.57501 13.2875 8.60001 13.2688C8.60626 13.2188 8.61251 13.1813 8.61251 13.15L8.60001 13.0813C8.60626 13.0688 8.61251 13.0625 8.61251 13.05C8.61251 13.0375 8.62501 13.0188 8.63126 13C8.63751 12.975 8.61876 12.9625 8.60626 12.9563L8.62501 12.9375C8.66251 12.9125 8.70001 12.8938 8.73751 12.875L8.76876 12.8625C8.78751 12.8563 8.81251 12.8438 8.82501 12.8313L8.86876 12.7938C8.88126 12.8 8.90001 12.8 8.91251 12.8063C8.90626 12.825 8.90626 12.8375 8.90626 12.8563L8.91251 12.8688C8.92501 12.8688 8.93126 12.875 8.93751 12.8688C8.95001 12.8563 8.95626 12.8438 8.96876 12.825C9.00001 12.775 8.94376 12.7688 8.96876 12.75C8.99376 12.7313 9.03751 12.7438 9.06251 12.75C9.08751 12.7563 9.10001 12.75 9.13126 12.7375C9.16251 12.725 9.18751 12.75 9.21251 12.7375C9.23126 12.7313 9.25626 12.725 9.27501 12.7188H9.31251C9.34376 12.7313 9.38126 12.75 9.40626 12.7688L9.42501 12.775C9.44376 12.7813 9.49376 12.7813 9.51876 12.8125C9.53751 12.8 9.55001 12.7813 9.56876 12.7625C9.60626 12.7375 9.64376 12.7188 9.68751 12.7063C9.71876 12.7 9.75001 12.6813 9.78126 12.6625L9.82501 12.625C9.83751 12.6313 9.85001 12.6313 9.86876 12.6375C9.86876 12.6375 9.85001 12.6875 9.86876 12.7C9.88751 12.7125 9.88751 12.7125 9.91876 12.6625C9.95001 12.6125 9.89376 12.6063 9.91876 12.5875H9.92501C9.95626 12.5813 9.98751 12.5813 10.0125 12.5875C10.0375 12.5938 10.05 12.5875 10.0813 12.575C10.1125 12.5625 10.1375 12.5875 10.1688 12.575C10.1875 12.5688 10.2063 12.5625 10.2313 12.5563H10.2438C10.2813 12.55 10.3125 12.5438 10.3438 12.525L10.3688 12.5063C10.3688 12.6625 10.1813 12.7063 10.1813 12.7063L10.2188 12.8188C10.2125 12.8875 10.2063 12.925 10.2063 12.925C10.2063 12.925 10.1563 12.875 10.1438 12.925C10.1313 12.975 10.1313 12.975 10.1813 13.05C10.2313 13.125 10.2375 12.9938 10.2563 13.05C10.2688 13.125 10.2688 13.2063 10.2563 13.2875C10.25 13.3438 10.2563 13.4 10.2688 13.4563C10.2813 13.5375 10.2563 13.5875 10.2688 13.6625C10.2813 13.7125 10.2875 13.7625 10.2875 13.8125V13.9063C10.275 14.0188 10.2375 14.1438 10.2313 14.1875C10.225 14.2313 10.2313 14.425 10.175 14.4313C10.1188 14.4438 10.1063 14.5563 10.15 14.6438H10.075V14.8375L10.0563 15.0063L10.05 15.025H9.96876L9.93126 15.175L9.95626 15.2375C9.92501 15.3063 9.88126 15.375 9.83751 15.4438L9.76251 15.4688C9.84376 15.6063 9.91251 15.75 9.96876 15.8938C9.99376 15.9875 10.0125 16.075 10.025 16.1688C10.025 16.2 10.0375 16.2188 10.0375 16.2438C10.0438 16.2938 10.0563 16.3438 10.0688 16.3938L10.1063 16.5063C10.1 16.575 10.0938 16.6125 10.0938 16.6125C10.0938 16.6125 10.0625 16.5813 10.0438 16.6C10.0375 16.6063 10.0313 16.6125 10.0313 16.6188C10.025 16.6375 10.025 16.6563 10.0313 16.675C10.0438 16.7 10.0563 16.725 10.075 16.7438C10.125 16.8188 10.1313 16.6875 10.15 16.7438C10.1625 16.8188 10.1625 16.9 10.15 16.9813C10.1438 17.0375 10.15 17.0938 10.1625 17.15C10.175 17.2313 10.15 17.2813 10.1625 17.3563C10.1688 17.4063 10.175 17.4563 10.1813 17.5063V17.6C10.1688 17.6813 10.1563 17.7563 10.1313 17.8375C10.1313 17.8563 10.125 17.8688 10.1188 17.8813C10.1188 17.9563 10.1063 18.0313 10.0875 18.1063C10.1063 18.1438 10.1188 18.1813 10.1375 18.225C10.1625 18.3188 10.1813 18.4063 10.2 18.5C10.2063 18.575 10.225 18.6563 10.25 18.7313L10.2875 18.8375C10.2813 18.9063 10.275 18.9438 10.275 18.9438C10.275 18.9438 10.225 18.8938 10.2125 18.9438C10.2 18.9938 10.2 18.9938 10.25 19.0688C10.3 19.1438 10.3063 19.0125 10.325 19.0688V19.0875C10.3313 19.1563 10.3313 19.2313 10.325 19.3C10.3188 19.3563 10.325 19.4125 10.3375 19.4688C10.35 19.55 10.3313 19.6 10.3375 19.675C10.35 19.725 10.3563 19.775 10.3563 19.825V19.8375V19.8625C10.3625 19.9375 10.3813 20.0188 10.4063 20.0875L10.4438 20.2C10.4375 20.2688 10.4313 20.3063 10.4313 20.3063C10.4313 20.3063 10.3813 20.2563 10.3688 20.3063C10.3563 20.3563 10.3563 20.3563 10.4063 20.4313C10.4563 20.5063 10.4625 20.375 10.4813 20.4313C10.4938 20.5063 10.4938 20.5875 10.4813 20.6688C10.475 20.725 10.4813 20.7813 10.4938 20.8375C10.5063 20.9188 10.4875 20.9688 10.4938 21.0438C10.5063 21.0938 10.5125 21.1438 10.5125 21.1938V21.2875C10.5 21.4 10.4625 21.525 10.4563 21.5688C10.45 21.6125 10.4563 21.8063 10.4 21.8125C10.3438 21.825 10.3313 21.9375 10.3813 22.025H10.3063V22.2188L10.2875 22.3875L10.2813 22.4125H10.2L10.1625 22.5625L10.1875 22.625C10.1563 22.6938 10.1125 22.7563 10.0688 22.8188C10.0875 22.8938 10.1188 22.8563 10.1625 22.925C10.1875 22.9563 10.2188 22.9875 10.2563 23.0063L10.0688 23.0375L9.97501 23.1V23.025L9.96876 23.0188L9.91251 23H9.85001V22.925C9.82501 22.9688 9.78126 22.9563 9.78126 22.9C9.77501 22.85 9.71876 22.85 9.70001 22.8438C9.66876 22.825 9.63751 22.8063 9.60626 22.7875H9.57501C9.55626 22.7938 9.54376 22.8 9.52501 22.8063C9.50001 22.8188 9.48126 22.8 9.45626 22.8063C9.43126 22.8125 9.42501 22.825 9.40001 22.8188C9.38126 22.8125 9.33751 22.8 9.32501 22.8188C9.30626 22.8375 9.35001 22.8438 9.32501 22.8938C9.30001 22.9438 9.30001 22.9438 9.28751 22.9313C9.26876 22.9188 9.28751 22.8688 9.28751 22.8688L9.25626 22.8563L9.21876 22.8938C9.20001 22.9125 9.17501 22.9313 9.14376 22.9438C9.11251 22.9563 9.08126 22.9813 9.05626 23.0063L9.00626 23.0688C8.92501 23.0313 8.83751 22.9938 8.75001 22.9688V23.05L8.63126 23.0188C8.65001 22.95 8.66876 22.8813 8.70001 22.8188C8.70001 22.8188 8.79376 23.0625 8.80626 22.6938C8.81251 22.475 8.77501 22.2563 8.70001 22.05C8.67501 21.7875 8.68751 21.5188 8.73751 21.2563C8.78751 21.0375 8.78751 20.8063 8.73126 20.5875L8.66876 19.575C8.65001 19.4875 8.63126 19.4125 8.60626 19.3313H8.68126L8.68751 19.3125L8.70626 19.175V19.0188H8.78126C8.73751 18.95 8.75001 18.85 8.80626 18.8438C8.85626 18.8375 8.85626 18.6875 8.86251 18.6438C8.86876 18.6 8.90626 18.5063 8.91876 18.4188C8.91876 18.3938 8.91876 18.3688 8.91876 18.3438C8.91251 18.3063 8.90626 18.2625 8.90001 18.225C8.88751 18.1688 8.90626 18.125 8.90001 18.0563C8.88751 18.0125 8.88126 17.9625 8.88751 17.9188C8.90001 17.8563 8.90001 17.7938 8.88751 17.7313C8.86876 17.6875 8.86251 17.7938 8.81251 17.7313C8.76251 17.6688 8.76251 17.6688 8.77501 17.6313C8.78751 17.5875 8.83751 17.6313 8.83751 17.6313C8.83751 17.6313 8.83751 17.6 8.85001 17.55L8.81251 17.4625C8.78751 17.4063 8.77501 17.3438 8.76251 17.275C8.75001 17.2 8.72501 17.125 8.70001 17.05C8.68126 17.0063 8.65626 16.9688 8.63126 16.925C8.66876 16.725 8.70626 16.5188 8.73126 16.3H8.65001L8.70626 15.7813L8.71876 15.725C8.65001 15.5688 8.60626 15.4063 8.59376 15.2313C8.59376 15.2313 8.63126 15.3375 8.66251 15.3063L8.63126 15.1875C8.60626 15.1313 8.60001 15.1063 8.63126 15.1063H8.66251L8.63751 15.0125C8.61251 14.9813 8.58751 14.9438 8.57501 14.9063L8.55626 14.7813L8.50626 14.525C8.51876 14.5 8.53126 14.475 8.53751 14.4438C8.55626 14.3875 8.49376 14.3813 8.49376 14.3813L8.46251 14.4938C8.45001 14.3688 8.43751 14.2375 8.43751 14.1L8.50626 14.0375C8.50626 14.0375 8.55001 14.075 8.55626 14.0375C8.53751 13.9813 8.52501 13.9375 8.49376 13.9063Z" fill="#0041E6"/>
<path d="M15.4813 13.5063C15.4813 13.55 15.4938 13.575 15.4938 13.6063C15.5 13.675 15.5125 13.7375 15.5313 13.8063L15.5688 13.95C15.5625 14.0375 15.5563 14.0875 15.5563 14.0875C15.5563 14.0875 15.525 14.0438 15.5063 14.0688C15.5 14.075 15.4938 14.0813 15.4938 14.0875C15.4875 14.1125 15.4875 14.1375 15.4938 14.1625C15.5063 14.1938 15.5188 14.225 15.5375 14.2563C15.5875 14.35 15.5938 14.1813 15.6125 14.2563C15.625 14.3625 15.625 14.4625 15.6125 14.5688C15.6063 14.6438 15.6125 14.7188 15.625 14.7938C15.6375 14.9 15.6188 14.9688 15.625 15.0625C15.6313 15.1375 15.6438 15.1813 15.6438 15.2625V15.3875C15.6313 15.5063 15.6125 15.625 15.5938 15.7C15.5938 15.7188 15.5875 15.7438 15.5875 15.7563C15.5875 15.8563 15.575 15.9563 15.5563 16.05C15.5688 16.1 15.5875 16.15 15.6063 16.2C15.625 16.2813 15.65 16.4125 15.6688 16.5688C15.675 16.6688 15.6938 16.7688 15.7188 16.8688L15.7563 17.0125C15.75 17.1 15.7438 17.15 15.7438 17.15C15.7438 17.15 15.6938 17.0813 15.6813 17.15C15.6688 17.2188 15.6688 17.2188 15.7188 17.3125C15.7688 17.4063 15.775 17.2438 15.7938 17.3125V17.3438C15.8 17.4375 15.8 17.5313 15.7938 17.625C15.7875 17.7 15.7938 17.775 15.8063 17.85C15.8188 17.9563 15.8 18.025 15.8063 18.1188C15.8125 18.1875 15.825 18.2375 15.825 18.3188V18.3375V18.3688C15.8313 18.4688 15.85 18.5688 15.875 18.6688L15.9125 18.8125C15.9125 18.9 15.9 18.95 15.9 18.95C15.9 18.95 15.85 18.8813 15.8375 18.95C15.825 19.0188 15.825 19.0188 15.875 19.1125C15.925 19.2063 15.9313 19.0375 15.95 19.1125C15.9625 19.2188 15.9625 19.3188 15.95 19.425C15.9438 19.5 15.95 19.575 15.9625 19.65C15.975 19.7563 15.9563 19.825 15.9625 19.925C15.9688 19.9938 15.9813 20.0438 15.9813 20.1188V20.2438C15.9688 20.3875 15.9313 20.55 15.925 20.6125C15.9188 20.675 15.925 20.925 15.8688 20.9313C15.8125 20.9438 15.8 21.0938 15.85 21.2125H15.775V21.4625L15.75 21.6875L15.7438 21.7188H15.6625L15.625 21.9125L15.65 22C15.6188 22.0875 15.575 22.175 15.5313 22.2563C15.55 22.3563 15.5813 22.3063 15.6313 22.4C15.6875 22.4875 15.7625 22.5625 15.85 22.6188C15.825 22.7375 15.8188 22.8625 15.825 22.9875C15.825 23.25 15.825 22.9875 15.8813 23.2938C15.9375 23.6 16.0375 23.5125 16 23.775C15.975 23.9063 15.9813 24.0438 16.0125 24.175C16.05 24.225 16.0813 24.2813 16.1125 24.3375C16.1313 24.3938 16.1625 24.4438 16.2063 24.4938C16.225 24.5188 16.2563 24.5438 16.2875 24.5625C16.2813 24.6375 16.2875 24.725 16.2875 24.7563C16.2875 24.7875 16.2188 25.075 16.275 25.1188C16.3063 25.1438 16.3563 25.15 16.3938 25.1313C16.3938 25.1313 16.3625 25.3313 16.4375 25.375L16.5125 25.4188C16.6125 25.4625 16.7188 25.4938 16.8313 25.5125L16.8938 25.4875C16.9688 25.4625 16.9875 25.6813 16.9875 25.6813L17.0313 25.6438L17.075 25.6563C17.075 25.6563 17.05 25.7063 17.075 25.7188C17.1 25.7313 17.1 25.7313 17.125 25.6813C17.15 25.6313 17.1 25.625 17.125 25.6063C17.15 25.5875 17.1938 25.5938 17.225 25.6063C17.2563 25.6188 17.2625 25.6063 17.2938 25.5938C17.325 25.5813 17.35 25.6 17.3813 25.5938C17.4 25.5875 17.425 25.575 17.4438 25.575H17.4813C17.5188 25.5938 17.5625 25.6125 17.6 25.6313C17.6188 25.6375 17.7 25.6313 17.7 25.6875C17.7 25.7438 17.75 25.7563 17.7875 25.7063V25.7813H17.8688L17.9375 25.8L17.95 25.8063V25.8875L18.0125 25.925L18.0375 25.9C18.0688 25.9375 18.1 25.975 18.125 26.0188L18.1375 26.0938C18.1875 26.0188 18.25 25.95 18.3125 25.8875C18.35 25.8625 18.3875 25.8438 18.4313 25.825L18.4625 25.8125C18.4875 25.8063 18.5063 25.7938 18.525 25.7813L18.5688 25.7438L18.6125 25.7563C18.6063 25.775 18.6063 25.7938 18.6125 25.8063L18.6188 25.8188C18.6313 25.8188 18.6375 25.825 18.6438 25.8188C18.6563 25.8063 18.6625 25.7938 18.675 25.775C18.7063 25.725 18.65 25.7188 18.675 25.7C18.7 25.6813 18.7438 25.6938 18.775 25.7C18.8 25.7063 18.8125 25.7 18.8438 25.6875C18.875 25.675 18.9 25.6938 18.9313 25.6875C18.95 25.6813 18.9688 25.6688 18.9938 25.6688H19.0313C19.0688 25.6813 19.1 25.7 19.1313 25.7188L19.15 25.725C19.1688 25.725 19.225 25.725 19.2438 25.7563L19.2938 25.7063C19.3313 25.6813 19.3688 25.6625 19.4125 25.6438C19.4438 25.6313 19.4813 25.6188 19.5063 25.5938L19.55 25.5563L19.5938 25.5688C19.5938 25.5688 19.575 25.6188 19.5938 25.6313C19.6125 25.6438 19.6188 25.6438 19.6438 25.5938C19.675 25.5438 19.6188 25.5375 19.6438 25.5188H19.65C19.6813 25.5125 19.7125 25.5125 19.7375 25.5188C19.7688 25.5188 19.775 25.5188 19.8063 25.5063C19.8375 25.4938 19.8625 25.5125 19.8938 25.5063C19.9125 25.4938 19.9375 25.4875 19.9563 25.4875H19.9688C20 25.475 20.0313 25.4625 20.0625 25.4375L20.1063 25.4L20.15 25.4125C20.15 25.4125 20.1313 25.4625 20.15 25.475C20.1688 25.4875 20.175 25.4875 20.2 25.4375C20.2313 25.3875 20.175 25.3813 20.2 25.3625C20.225 25.3438 20.2688 25.35 20.3 25.3625C20.3313 25.375 20.3375 25.3625 20.3688 25.35C20.4 25.3375 20.425 25.3563 20.4563 25.35C20.475 25.3375 20.4938 25.3313 20.5188 25.3313H20.5563C20.5938 25.35 20.6375 25.3688 20.675 25.3875C20.7 25.3875 20.775 25.3875 20.7813 25.4438C20.7875 25.5 20.8375 25.5125 20.8688 25.4625V25.5375H20.95L21.025 25.5563L21.0375 25.5625V25.6438L21.1 25.6813L21.125 25.6563C21.1563 25.6938 21.1875 25.7313 21.2125 25.775C21.2438 25.7563 21.225 25.725 21.25 25.6813C21.275 25.6125 21.2938 25.5375 21.3063 25.4625C21.3438 25.4875 21.3813 25.4938 21.425 25.4875C21.5063 25.4875 21.425 25.4875 21.5188 25.4313C21.6125 25.375 21.575 25.275 21.6625 25.3125C21.7 25.3375 21.7563 25.3313 21.7875 25.3C21.8 25.2688 21.8125 25.2313 21.8313 25.2C21.85 25.175 21.8625 25.1438 21.875 25.1063C21.875 25.1063 21.9063 25.0875 21.8938 24.9438C21.8813 24.8 21.9438 24.9813 21.925 24.9C21.925 24.8438 21.925 24.7813 21.925 24.725C21.95 24.7063 21.975 24.6875 21.9938 24.6625C22.0188 24.575 22.0563 24.4938 22.1 24.4125C22.175 24.375 22.075 24.2438 22.175 24.2688C22.2063 24.0438 22.2375 23.8063 22.2625 23.5625L22.3188 23.3125L22.3688 22.8438L22.3813 22.7688C22.2938 22.5813 22.45 22.0938 22.45 22.0938C22.45 22.0938 22.5438 22.425 22.5563 21.9313C22.5688 21.6375 22.5313 21.3438 22.45 21.0625C22.425 20.7063 22.4375 20.3438 22.4938 19.9875C22.5438 19.6875 22.5438 19.3813 22.4875 19.0813L22.425 17.7125C22.4063 17.5938 22.3875 17.4875 22.3688 17.3813H22.4438L22.45 17.3563L22.4688 17.1688V16.9625H22.5438C22.5 16.8688 22.5125 16.7375 22.5688 16.725C22.6188 16.7125 22.6188 16.5125 22.625 16.4563C22.6313 16.4 22.6688 16.2688 22.6813 16.15C22.6813 16.1188 22.6813 16.0813 22.6813 16.0438C22.6813 15.9813 22.6688 15.9375 22.6625 15.8813C22.65 15.8 22.6688 15.7438 22.6625 15.6563C22.65 15.5938 22.6438 15.5313 22.65 15.4688C22.6625 15.3813 22.6625 15.2938 22.65 15.2125C22.6313 15.1563 22.625 15.2938 22.575 15.2125C22.525 15.1313 22.525 15.1313 22.5375 15.075C22.55 15.0188 22.6 15.075 22.6 15.075C22.6 15.075 22.6063 15.0375 22.6125 14.9563L22.575 14.8375C22.55 14.7563 22.5375 14.675 22.5313 14.5875C22.5188 14.4875 22.4938 14.3813 22.4688 14.2875C22.45 14.225 22.425 14.1688 22.4063 14.1188C22.4438 13.85 22.4813 13.575 22.5125 13.275H22.4313L22.4875 12.5688L22.5 12.4875C22.4313 12.275 22.3875 12.05 22.375 11.825C22.375 11.825 22.4125 11.9688 22.4438 11.925V11.9063L22.4125 11.75C22.3875 11.6688 22.3813 11.6438 22.4125 11.6438H22.4375L22.4188 11.5375C22.3938 11.4938 22.3688 11.4438 22.3563 11.3938L22.3375 11.225L22.2875 10.8813C22.3 10.8438 22.3125 10.8125 22.3188 10.775C22.3375 10.6938 22.275 10.6875 22.275 10.6875L22.2438 10.8375C22.2313 10.6625 22.225 10.4875 22.2188 10.3063L22.2875 10.2188C22.2875 10.2188 22.3313 10.2688 22.3375 10.2188C22.3438 10.1625 22.3313 10.1 22.3 10.0563H22.275L22.225 10.0375C22.225 9.90626 22.2313 9.76876 22.2438 9.64376L22.2938 9.58126L22.325 9.47501L22.35 9.30001C22.3625 9.26876 22.3875 9.23751 22.4125 9.21251C22.4188 9.14376 22.425 9.09376 22.425 9.05001L22.4125 8.95626C22.4188 8.94376 22.425 8.93126 22.425 8.91876C22.425 8.90001 22.4375 8.88126 22.4438 8.85001C22.4563 8.79376 22.425 8.76876 22.4063 8.76251H22.3938L22.3625 8.91251C22.35 8.73751 22.2563 8.64376 22.2563 8.46251L22.3 8.40001L22.325 8.36876C22.325 8.36876 22.3688 8.41876 22.375 8.36876C22.3813 8.31251 22.3688 8.25001 22.3375 8.20001H22.3125L22.2938 8.19376L22.2625 8.18126C22.2625 8.06251 22.2125 7.96876 22.2188 7.85626C22.2188 7.83751 22.2188 7.81876 22.2188 7.80001L22.125 7.65001L22.1563 7.54376L22.0375 7.36876C22.05 7.33751 22.075 7.30626 22.1 7.28126C22.1125 7.20001 22.0063 7.13751 22.0125 7.08751L22.025 6.98126C21.9188 6.93126 22.1 6.90001 21.9938 6.88751C21.9938 6.88751 22.0313 6.80626 21.875 6.61876C21.85 6.58751 21.8313 6.56876 21.8125 6.54376V6.50001C21.825 6.40001 21.8313 6.57501 21.8625 6.23126C21.8813 6.16876 21.875 6.10001 21.8438 6.03751C21.8125 6.00626 21.7875 5.96876 21.7688 5.93126C21.7563 5.85626 21.7188 5.95626 21.725 5.85626C21.6563 5.82501 21.5813 5.79376 21.5063 5.76876L21.4313 5.70626L21.2938 5.65001L21.2688 5.63751C21.2125 5.72501 21.0625 5.56251 21.0625 5.56251C21.0625 5.56251 21.1625 5.47501 21.0125 5.45626C20.9125 5.45001 20.8188 5.48751 20.75 5.55626C20.6375 5.57501 20.5188 5.56251 20.4188 5.50626C20.3313 5.45626 20.225 5.45626 20.1375 5.50626L19.7188 5.55626C19.6875 5.57501 19.65 5.59376 19.6188 5.61251V5.53751L19.6125 5.52501L19.5563 5.50626H19.4938V5.43126C19.4625 5.47501 19.425 5.46251 19.425 5.40626C19.425 5.35626 19.3625 5.35626 19.3438 5.35001C19.3125 5.33126 19.2813 5.30626 19.25 5.29376H19.2188C19.2 5.30001 19.1875 5.30626 19.1688 5.31251C19.1438 5.32501 19.125 5.30001 19.1 5.31251C19.075 5.32501 19.0625 5.33126 19.0438 5.32501C19.0188 5.31876 18.9813 5.30626 18.9625 5.32501C18.9438 5.34376 18.9875 5.35001 18.9625 5.40001C18.9375 5.45001 18.9375 5.45001 18.9188 5.43751C18.9 5.42501 18.9188 5.37501 18.9188 5.37501C18.9063 5.36876 18.8938 5.36251 18.8875 5.36251L18.85 5.40001C18.8313 5.41876 18.8 5.43751 18.775 5.44376C18.7438 5.45626 18.7125 5.47501 18.6813 5.50001C18.6625 5.51876 18.6438 5.54376 18.6313 5.56251C18.55 5.51876 18.4625 5.48126 18.375 5.45001V5.53126L18.1625 5.46876L18.1375 5.45626C18.0813 5.51251 18.0125 5.55626 17.9313 5.57501C17.9313 5.57501 17.975 5.53751 17.9625 5.50626L17.9125 5.53751C17.8875 5.56251 17.8813 5.56251 17.8813 5.53751V5.50626L17.85 5.52501C17.8375 5.55001 17.825 5.56876 17.8063 5.58751L17.7563 5.60626L17.65 5.65626C17.6438 5.64376 17.6313 5.63126 17.6188 5.62501C17.5938 5.60626 17.5938 5.66876 17.5938 5.66876L17.6375 5.70001C17.5813 5.71251 17.5313 5.71876 17.475 5.71876L17.45 5.65001C17.45 5.65001 17.4625 5.60626 17.45 5.60001C17.4125 5.59376 17.4 5.63751 17.4 5.63751V5.66251L17.3938 5.71251C17.3563 5.70626 17.3125 5.70001 17.275 5.69376L17.2563 5.64376L17.225 5.60626L17.1688 5.58126C17.1563 5.56251 17.15 5.53751 17.1438 5.51876C17.125 5.51251 17.1063 5.51251 17.0875 5.50626L17.0563 5.51876L17.0438 5.50626L17.025 5.48751C17.0063 5.47501 17 5.50626 17 5.51876V5.53126L17.0438 5.56251C16.9938 5.57501 16.9625 5.66251 16.9063 5.66251L16.8875 5.61876L16.8813 5.59376C16.8813 5.59376 16.8938 5.55001 16.8813 5.54376C16.8438 5.54376 16.8313 5.58126 16.8313 5.58126V5.60626V5.62501V5.65626C16.7938 5.65626 16.7625 5.70626 16.7313 5.70001H16.7125L16.6688 5.79376L16.6375 5.75626L16.5813 5.87501C16.5688 5.85626 16.5625 5.83751 16.5563 5.81251C16.5313 5.80001 16.5125 5.90001 16.5 5.90001L16.4688 5.88751C16.4563 5.99376 16.4438 5.81251 16.4375 5.91876C16.4375 5.91876 16.4125 5.88126 16.3563 6.03751C16.3313 6.09376 16.3125 6.15626 16.3 6.21876C16.2875 6.25001 16.2813 6.28751 16.275 6.32501C16.2625 6.41251 16.275 6.50626 16.3188 6.51251C16.3625 6.51876 16.3375 6.62501 16.3313 6.65001C16.2875 6.64376 16.2375 6.66876 16.2313 6.71876C16.2063 6.83751 16.2 6.96251 16.2188 7.08126C16.1375 7.03751 16.0375 7.06876 15.9938 7.15626C15.9813 7.18126 15.975 7.20626 15.975 7.23126C15.9625 7.30626 15.9438 7.38751 15.9313 7.46876C15.8813 7.75626 15.8563 8.14376 15.8375 8.48751C15.85 8.54376 15.8563 8.60626 15.8688 8.67501C15.8875 8.80626 15.8 8.93126 15.675 8.97501L15.7125 9.11876C15.7063 9.20626 15.7 9.25626 15.7 9.25626C15.7 9.25626 15.65 9.18751 15.6375 9.25626C15.625 9.32501 15.625 9.32501 15.675 9.41876C15.725 9.51876 15.7313 9.34376 15.75 9.41876C15.7625 9.52501 15.7625 9.62501 15.75 9.73126C15.7438 9.80626 15.75 9.88126 15.7625 9.95626C15.775 10.0625 15.7563 10.1313 15.7625 10.225C15.7688 10.3 15.7813 10.3438 15.7813 10.425V10.55C15.7688 10.6938 15.7313 10.8563 15.725 10.9188C15.7188 10.9813 15.725 11.2313 15.6688 11.2375C15.6125 11.25 15.6 11.4 15.65 11.5188H15.575V11.7688L15.5563 11.9938L15.55 12.025H15.4688L15.4313 12.2188L15.4563 12.3063C15.425 12.4 15.3813 12.4875 15.3375 12.575L15.2625 12.6063C15.35 12.7875 15.4188 12.975 15.4688 13.1688C15.4375 13.2188 15.4625 13.3563 15.4813 13.5063ZM18.125 10.2563H18.1L18.05 10.2375C18.05 10.1063 18.0563 9.97501 18.0625 9.84376L18.1188 9.78126L18.15 9.67501L18.1688 9.50001C18.1813 9.46251 18.2 9.43126 18.225 9.40626C18.2313 9.33751 18.2375 9.28751 18.2375 9.24376L18.225 9.15001C18.225 9.15001 18.225 9.13751 18.2375 9.11251C18.25 9.08751 18.25 9.07501 18.2563 9.04376C18.2688 8.98751 18.2375 8.96876 18.2188 8.95626H18.2063L18.175 9.10001C18.1625 8.93126 18.0688 8.83126 18.0688 8.65001L18.1125 8.59376L18.1375 8.56251C18.1375 8.56251 18.1813 8.61251 18.1875 8.56251C18.1938 8.51876 18.1875 8.47501 18.175 8.43751C18.2 8.40626 18.225 8.37501 18.25 8.35001C18.2875 8.32501 18.325 8.30626 18.3688 8.28751L18.4 8.27501C18.425 8.26876 18.4438 8.25626 18.4625 8.24376L18.5063 8.20626C18.5188 8.21251 18.5313 8.21251 18.55 8.21876C18.5438 8.23751 18.5438 8.25001 18.5438 8.26876L18.55 8.28126C18.5625 8.28751 18.5688 8.29376 18.575 8.28126C18.5875 8.26876 18.5938 8.25626 18.6063 8.23751C18.6375 8.18751 18.5813 8.18126 18.6063 8.16251C18.6313 8.14376 18.675 8.15626 18.7 8.16251C18.725 8.16876 18.7375 8.16251 18.7688 8.15001C18.8 8.13751 18.825 8.16251 18.8563 8.15001C18.875 8.14376 18.8938 8.13751 18.9188 8.13126H18.9563C18.9875 8.14376 19.025 8.16251 19.05 8.18126L19.0688 8.18751C19.0875 8.18751 19.1375 8.19376 19.1563 8.22501C19.175 8.21251 19.1875 8.19376 19.2063 8.17501C19.2438 8.15001 19.2813 8.13126 19.325 8.11876C19.3563 8.11251 19.3813 8.10001 19.4125 8.08126L19.4563 8.04376C19.4688 8.05001 19.4875 8.05001 19.5 8.05626C19.5 8.05626 19.4813 8.10626 19.5 8.11876C19.5188 8.13126 19.5188 8.13126 19.55 8.08126C19.5813 8.03126 19.525 8.02501 19.55 8.00626H19.5625C19.5938 8.00001 19.6188 8.00001 19.65 8.00626C19.675 8.01251 19.6875 8.00626 19.7188 7.99376C19.75 7.98126 19.775 8.00626 19.8063 7.99376C19.825 7.98751 19.8438 7.98126 19.8688 7.97501H19.8813C19.9125 7.96876 19.95 7.95001 19.975 7.93126L19.9938 7.91251C19.9875 8.01251 19.9813 8.11251 19.975 8.20626C19.9875 8.26251 19.9938 8.32501 20 8.40001C20.0188 8.53126 19.9375 8.66251 19.8063 8.70001L19.8438 8.84376C19.8375 8.93126 19.8313 8.98126 19.8313 8.98126C19.8313 8.98126 19.7813 8.91251 19.7688 8.98126C19.7563 9.05001 19.7563 9.05001 19.8063 9.15001C19.8563 9.25001 19.8625 9.07501 19.8813 9.15001C19.8938 9.25626 19.8938 9.36251 19.8813 9.46251C19.875 9.53751 19.8813 9.61251 19.8938 9.68751C19.9063 9.79376 19.8875 9.86251 19.8938 9.96251C19.9 10.0375 19.9125 10.0813 19.9125 10.1625V10.2875C19.9 10.4313 19.8625 10.5938 19.8563 10.6563C19.85 10.7188 19.8563 10.9688 19.8 10.9813C19.7438 10.9938 19.7313 11.15 19.775 11.2688H19.6875V11.525L19.6688 11.75L19.6625 11.7813H19.5813L19.5438 11.975L19.5688 12.0625C19.5375 12.1563 19.4938 12.2438 19.45 12.3313L19.375 12.3625C19.4563 12.55 19.525 12.7375 19.5813 12.9313C19.6 13.0125 19.625 13.1438 19.6438 13.3C19.6438 13.3438 19.65 13.3688 19.6563 13.4C19.6625 13.4688 19.675 13.5375 19.6938 13.6L19.7313 13.7438C19.7313 13.8313 19.7188 13.8813 19.7188 13.8813C19.7188 13.8813 19.6875 13.8375 19.6688 13.8625C19.6625 13.8688 19.6563 13.875 19.6563 13.8813C19.65 13.9063 19.65 13.9313 19.6563 13.9563C19.6688 13.9875 19.6813 14.0188 19.7 14.05C19.75 14.15 19.7563 13.975 19.775 14.05C19.7875 14.1563 19.7875 14.2625 19.775 14.3625C19.7688 14.4375 19.775 14.5125 19.7875 14.5875C19.8 14.6938 19.7813 14.7625 19.7875 14.8625C19.7938 14.9375 19.8063 14.9813 19.8063 15.0625V15.1875C19.7938 15.3063 19.7688 15.425 19.7563 15.5063C19.7563 15.5313 19.75 15.55 19.75 15.5625C19.75 15.6625 19.7375 15.7625 19.7188 15.8625C19.7313 15.9125 19.75 15.9625 19.7688 16.0125C19.7875 16.0938 19.8125 16.225 19.8313 16.3813C19.8375 16.4813 19.8563 16.5875 19.8813 16.6813L19.9188 16.8313C19.9125 16.9188 19.9063 16.9688 19.9063 16.9688C19.9063 16.9688 19.8563 16.9 19.8438 16.9688C19.8313 17.0375 19.8313 17.0375 19.8813 17.1375C19.9313 17.2375 19.9375 17.0625 19.9563 17.1375V17.1688C19.9625 17.2625 19.9625 17.3563 19.9563 17.4563C19.95 17.5313 19.9563 17.6063 19.9688 17.6813C19.9813 17.7875 19.9563 17.8563 19.9688 17.9563C19.975 18.0313 19.9875 18.075 19.9875 18.1563V18.175V18.2063C19.9938 18.3063 20.0125 18.4125 20.0375 18.5125L20.075 18.6563C20.0688 18.7438 20.0625 18.7938 20.0625 18.7938C20.0625 18.7938 20.0125 18.725 20 18.7938C19.9875 18.8625 19.9875 18.8625 20.0375 18.9625C20.0875 19.0625 20.0938 18.8875 20.1125 18.9625C20.125 19.0688 20.125 19.175 20.1125 19.275C20.1063 19.35 20.1125 19.425 20.125 19.5C20.1375 19.6063 20.1125 19.675 20.125 19.775C20.1313 19.85 20.1438 19.8938 20.1438 19.975V20.1C20.1313 20.25 20.0938 20.4063 20.0875 20.4688C20.0813 20.5313 20.0875 20.7813 20.0313 20.7938C19.975 20.8063 19.9625 20.9625 20.0125 21.075H19.95V21.3313L19.9313 21.5563L19.925 21.5875H19.8125L19.775 21.7813L19.8 21.8688C19.7625 21.9625 19.725 22.05 19.6813 22.1313C19.6938 22.2313 19.7313 22.1813 19.775 22.275C19.8313 22.3625 19.9063 22.4375 19.9938 22.4938C19.9688 22.6188 19.9625 22.7375 19.9625 22.8625V22.9563L19.675 23L19.5813 23.0625V22.9875L19.575 22.9813L19.5188 22.9563H19.4563V22.8813C19.4313 22.925 19.3875 22.9125 19.3875 22.8563C19.3813 22.8063 19.325 22.8063 19.3063 22.8C19.275 22.7813 19.2438 22.7625 19.2125 22.7438H19.1813C19.1625 22.75 19.15 22.7563 19.1313 22.7625C19.1063 22.775 19.0875 22.7563 19.0625 22.7625C19.0375 22.7688 19.0313 22.7813 19.0063 22.775C18.9875 22.7688 18.9438 22.7563 18.9313 22.775C18.9125 22.7938 18.9563 22.8 18.9313 22.85C18.9063 22.9 18.9063 22.9 18.8938 22.8875C18.875 22.875 18.8938 22.825 18.8938 22.825L18.8625 22.8125L18.825 22.85C18.8063 22.8688 18.7813 22.8875 18.75 22.9C18.7188 22.9125 18.6875 22.9375 18.6625 22.9625L18.6125 23.025C18.5313 22.9875 18.4438 22.95 18.3563 22.925V23.0063L18.2125 22.9625L18.225 22.8563L18.2375 22.7813C18.15 22.6 18.3063 22.1125 18.3063 22.1125C18.3063 22.1125 18.4 22.4375 18.4125 21.95C18.425 21.6625 18.3875 21.3688 18.3063 21.0938C18.2813 20.7438 18.2938 20.3875 18.3438 20.0375C18.3938 19.7375 18.3938 19.4375 18.3313 19.1375L18.2688 17.7875C18.25 17.6688 18.2313 17.5688 18.2125 17.4625H18.2875L18.2938 17.4375L18.3125 17.25V17.0438H18.3875C18.3438 16.95 18.3563 16.8188 18.4125 16.8063C18.4688 16.7938 18.4625 16.6 18.4688 16.5438C18.475 16.4875 18.5125 16.3625 18.525 16.2438C18.525 16.2125 18.525 16.175 18.525 16.1438C18.5188 16.0875 18.5125 16.0375 18.5063 15.9813C18.4938 15.9 18.5125 15.8438 18.5063 15.7563C18.4938 15.6938 18.4875 15.6375 18.4938 15.575C18.5063 15.4875 18.5063 15.4063 18.4938 15.3188C18.475 15.2625 18.4688 15.4 18.4188 15.3188C18.3688 15.2375 18.3688 15.2375 18.3813 15.1813C18.3938 15.125 18.4438 15.1813 18.4438 15.1813C18.4438 15.1813 18.4438 15.1438 18.4563 15.0625L18.4188 14.9438C18.3938 14.8625 18.3813 14.7813 18.3688 14.7C18.3563 14.6 18.3313 14.5 18.3063 14.4C18.2875 14.3438 18.2625 14.2813 18.2438 14.2313C18.2813 13.9688 18.3188 13.6875 18.3438 13.4H18.2625L18.3188 12.7063L18.3313 12.6313C18.2625 12.4188 18.2188 12.2 18.2063 11.975C18.2063 11.975 18.2438 12.1125 18.275 12.0688V12.0625L18.25 11.9375C18.225 11.8625 18.2188 11.8313 18.25 11.8313H18.275L18.2563 11.725C18.2313 11.6813 18.2063 11.6313 18.1938 11.5813L18.175 11.4188L18.125 11.0813C18.1375 11.0438 18.15 11.0125 18.1563 10.975C18.175 10.9 18.1125 10.8875 18.1125 10.8875L18.0813 11.0313C18.0688 10.8625 18.0563 10.6875 18.0563 10.5063L18.1188 10.425C18.1188 10.425 18.1688 10.475 18.1688 10.425C18.1688 10.3625 18.1563 10.3063 18.125 10.2563Z" fill="#0041E6"/>
<path d="M24.775 10.575C24.775 10.625 24.7812 10.6625 24.7875 10.7C24.8062 10.8875 24.8187 10.95 24.8187 10.95L24.8562 11.1313C24.8562 11.2438 24.8437 11.3 24.8437 11.3C24.8437 11.3 24.8125 11.25 24.7937 11.275C24.7875 11.2813 24.7812 11.2938 24.7812 11.3C24.775 11.3313 24.775 11.3625 24.7812 11.3938C24.7937 11.4313 24.8062 11.475 24.825 11.5125C24.875 11.6313 24.8812 11.425 24.9 11.5125C24.9125 11.6438 24.9125 11.775 24.9 11.9063C24.8937 12 24.9 12.0938 24.9125 12.1875C24.925 12.325 24.9062 12.4063 24.9125 12.5313C24.9187 12.6188 24.9312 12.6813 24.9312 12.7813V12.9375C24.9187 13.0813 24.9 13.2313 24.8812 13.3313C24.8812 13.3563 24.8812 13.3813 24.875 13.4C24.875 13.525 24.8625 13.65 24.8437 13.7688C24.8625 13.8313 24.875 13.8875 24.8937 13.9563C24.9125 14.0563 24.9375 14.225 24.9562 14.4188C24.9625 14.5438 24.9812 14.675 25.0062 14.8L25.0437 14.9813C25.0437 15.0875 25.0312 15.15 25.0312 15.15C25.0312 15.15 24.9812 15.0625 24.9687 15.15C24.9562 15.2375 24.9562 15.2375 25.0062 15.3563C25.0562 15.4813 25.0625 15.2625 25.0812 15.3563V15.3938C25.0875 15.5125 25.0875 15.6313 25.0812 15.7438C25.075 15.8375 25.0812 15.9313 25.0937 16.025C25.1062 16.1563 25.0875 16.2438 25.0937 16.3688C25.1 16.4563 25.1125 16.5188 25.1125 16.6188V16.6438V16.6813C25.1187 16.8063 25.1375 16.9375 25.1625 17.0625L25.2 17.2438C25.2 17.3563 25.1875 17.4125 25.1875 17.4125C25.1875 17.4125 25.1375 17.325 25.125 17.4125C25.1125 17.5 25.1125 17.5 25.1625 17.6188C25.2125 17.7375 25.2187 17.5313 25.2375 17.6188C25.25 17.75 25.25 17.8813 25.2375 18.0125C25.2312 18.1063 25.2375 18.2 25.25 18.2938C25.2625 18.4313 25.2437 18.5125 25.25 18.6375C25.2562 18.725 25.2687 18.7875 25.2687 18.8875V19.0438C25.2562 19.2313 25.2187 19.4313 25.2125 19.5063C25.2062 19.5813 25.2125 19.9 25.1562 19.9125C25.1 19.925 25.0875 20.1188 25.1375 20.2625H25.075V20.5813L25.0562 20.8625L25.05 20.9H24.9687L24.9312 21.1438L24.9562 21.25C24.9187 21.3688 24.8812 21.475 24.8375 21.575C24.8562 21.7 24.8875 21.6313 24.9312 21.7563C24.9812 21.8625 25.0562 21.9563 25.15 22.0313C25.125 22.1813 25.1187 22.3375 25.125 22.4938C25.125 22.825 25.125 22.4938 25.1812 22.8813C25.2375 23.2688 25.3375 23.1563 25.3 23.4875C25.275 23.6563 25.2812 23.8313 25.3187 23.9938C25.3562 24.0625 25.3875 24.1313 25.4187 24.2C25.4375 24.2688 25.4687 24.3375 25.5125 24.3938C25.5312 24.4313 25.5687 24.4625 25.6062 24.4813C25.5875 24.5688 25.5812 24.65 25.5875 24.7375C25.5875 24.7813 25.5187 25.0563 25.575 25.1C25.6062 25.125 25.6562 25.1313 25.6937 25.1125C25.6937 25.1125 25.6625 25.3125 25.7375 25.3563L25.8125 25.4C25.9125 25.4438 26.0187 25.475 26.1312 25.4938L26.1937 25.4688C26.2687 25.4438 26.2875 25.6625 26.2875 25.6625L26.3312 25.625L26.375 25.6375C26.375 25.6375 26.35 25.6875 26.375 25.7C26.4 25.7125 26.3937 25.7125 26.425 25.6625C26.4562 25.6125 26.4 25.6063 26.425 25.5875C26.45 25.5688 26.4937 25.575 26.525 25.5875C26.5562 25.6 26.5625 25.5875 26.5937 25.575C26.625 25.5625 26.65 25.5813 26.6812 25.575C26.7 25.5625 26.725 25.5563 26.7437 25.5563H26.7812C26.8187 25.575 26.8625 25.5875 26.9 25.6125C26.925 25.6188 27 25.6125 27 25.6688C27.0062 25.725 27.05 25.7375 27.0875 25.6875V25.7625H27.1687L27.2375 25.7813L27.25 25.7875V25.8688L27.3125 25.9063L27.3375 25.8813C27.3687 25.9188 27.4 25.9563 27.425 26L27.4375 26.075C27.4875 26 27.5437 25.9313 27.6125 25.8688C27.65 25.8438 27.6875 25.825 27.7312 25.8063L27.7625 25.7938C27.7875 25.7875 27.8062 25.775 27.825 25.7625L27.8687 25.725L27.9125 25.7375C27.9062 25.7563 27.9062 25.775 27.9125 25.7875L27.9187 25.8C27.9312 25.8 27.9375 25.8063 27.9437 25.8C27.9562 25.7875 27.9625 25.775 27.975 25.7563C28.0062 25.7063 27.95 25.7 27.975 25.6813C28 25.6625 28.0437 25.675 28.075 25.6813C28.1062 25.6875 28.1125 25.6813 28.1437 25.6688C28.175 25.6563 28.2 25.675 28.2312 25.6688C28.25 25.6563 28.275 25.65 28.2937 25.65H28.3312C28.3687 25.6625 28.4 25.6813 28.4312 25.7L28.45 25.7063C28.4687 25.7063 28.525 25.7063 28.5437 25.7375L28.5875 25.6875C28.625 25.6625 28.6625 25.6438 28.7062 25.625C28.7375 25.6125 28.775 25.6 28.8 25.575L28.8437 25.5375L28.8875 25.55C28.8875 25.55 28.8687 25.6 28.8875 25.6125C28.9062 25.625 28.9125 25.625 28.9375 25.575C28.9687 25.525 28.9125 25.5188 28.9375 25.5H28.95C28.9812 25.4938 29.0125 25.4938 29.0375 25.5C29.0687 25.5 29.075 25.5 29.1062 25.4875C29.1375 25.475 29.1625 25.4938 29.1937 25.4875C29.2125 25.475 29.2312 25.4688 29.2562 25.4688H29.2687C29.3 25.4563 29.3312 25.4438 29.3625 25.4188L29.4062 25.3813L29.45 25.3938C29.45 25.3938 29.4312 25.4438 29.45 25.4563C29.4687 25.4688 29.475 25.4688 29.5 25.4188C29.5312 25.3688 29.475 25.3625 29.5 25.3438C29.525 25.325 29.5687 25.3313 29.6 25.3438C29.6312 25.3563 29.6375 25.3438 29.6687 25.3313C29.7 25.3188 29.725 25.3375 29.7562 25.3313C29.775 25.3188 29.7937 25.3125 29.8187 25.3125H29.8562C29.8937 25.3313 29.9375 25.35 29.975 25.3688C29.9937 25.3688 30.075 25.3688 30.0812 25.425C30.0875 25.4813 30.1375 25.4938 30.1687 25.4438V25.5188H30.25L30.3187 25.5375L30.3312 25.5438L30.3375 25.625L30.4 25.6625L30.425 25.6375C30.4562 25.675 30.4875 25.7125 30.5125 25.7563C30.5437 25.7375 30.525 25.7063 30.55 25.6625C30.5812 25.5938 30.5937 25.5188 30.6062 25.4438C30.6437 25.4688 30.6812 25.475 30.725 25.4688C30.8125 25.4688 30.725 25.4688 30.8187 25.4125C30.9125 25.3563 30.875 25.2563 30.9625 25.2938C31 25.3188 31.0562 25.3125 31.0875 25.2813C31.1 25.25 31.1125 25.2125 31.1312 25.1813C31.15 25.15 31.1625 25.125 31.175 25.0875C31.175 25.0875 31.2062 25.0688 31.1937 24.925C31.175 24.7813 31.2437 24.9625 31.225 24.8813C31.225 24.825 31.225 24.7625 31.225 24.7063C31.2375 24.6875 31.2625 24.6625 31.2937 24.6188C31.3187 24.5125 31.3562 24.4063 31.4 24.3063C31.475 24.2563 31.375 24.0938 31.475 24.125C31.5062 23.8375 31.5375 23.5438 31.5625 23.2375L31.6187 22.925L31.6687 22.3375L31.6812 22.2375C31.65 21.95 31.675 21.6625 31.75 21.3875C31.75 21.3875 31.8375 21.8 31.8562 21.1813C31.8687 20.8125 31.8312 20.45 31.75 20.0938C31.725 19.6438 31.7375 19.1938 31.7937 18.7438C31.8437 18.3625 31.8437 17.9813 31.7875 17.6063L31.7312 15.8875C31.7125 15.7438 31.6937 15.6063 31.675 15.475H31.75L31.7562 15.4438L31.775 15.2063V14.9438H31.85C31.8062 14.825 31.8187 14.6625 31.875 14.65C31.9312 14.6375 31.925 14.3875 31.9312 14.3188C31.9375 14.25 31.975 14.0813 31.9875 13.9375C31.9875 13.8938 31.9875 13.85 31.9875 13.8063C31.9875 13.725 31.975 13.675 31.9687 13.6C31.9562 13.5 31.9812 13.4313 31.9687 13.3188C31.9562 13.2438 31.95 13.1625 31.9562 13.0813C31.9687 12.975 31.9687 12.8625 31.9562 12.7563C31.9375 12.6813 31.9312 12.8563 31.8812 12.7563C31.8312 12.6563 31.8312 12.6563 31.8437 12.5875C31.8562 12.5188 31.9062 12.5875 31.9062 12.5875C31.9062 12.5875 31.9125 12.5375 31.9187 12.4438L31.8812 12.2938C31.8562 12.1875 31.8437 12.0875 31.8312 11.9813C31.8125 11.8188 31.7875 11.6813 31.775 11.6C31.7562 11.5188 31.7312 11.4563 31.7125 11.3875C31.75 11.05 31.7875 10.7 31.8187 10.3313H31.7375L31.8 9.45001L31.8125 9.35001C31.7437 9.07501 31.7 8.80001 31.6875 8.51876C31.6875 8.51876 31.725 8.69376 31.7562 8.64376V8.63751L31.725 8.43751C31.7 8.33751 31.6937 8.30001 31.725 8.30001H31.75L31.7312 8.16251C31.7062 8.10626 31.6812 8.04376 31.6687 7.97501L31.6375 7.75626L31.5875 7.32501C31.6 7.28126 31.6125 7.23751 31.6187 7.18751C31.6375 7.08751 31.575 7.06876 31.575 7.06876L31.5437 7.25626C31.5312 7.03751 31.525 6.81876 31.5187 6.58751L31.5875 6.47501C31.5875 6.47501 31.6312 6.53751 31.6375 6.47501C31.6437 6.40626 31.6312 6.33126 31.6 6.26876H31.575L31.525 6.24376C31.525 6.07501 31.5312 5.90626 31.5437 5.74376L31.5937 5.66251L31.6312 5.52501L31.65 5.30001C31.6625 5.25626 31.6812 5.21876 31.7125 5.18751C31.7187 5.10626 31.725 5.03751 31.725 4.98126L31.7125 4.86251C31.7125 4.86251 31.7125 4.84376 31.725 4.81251C31.7375 4.78126 31.7375 4.76251 31.7437 4.72501C31.7562 4.65001 31.725 4.62501 31.7062 4.61876H31.6937L31.6625 4.80626C31.65 4.58751 31.5562 4.46876 31.5562 4.23751L31.6 4.16251L31.625 4.12501C31.625 4.12501 31.6687 4.18751 31.675 4.12501C31.6812 4.05626 31.6687 3.98126 31.6375 3.91876H31.6125L31.5937 3.90626L31.5625 3.89376C31.5625 3.75001 31.5125 3.62501 31.5187 3.48751C31.5187 3.46251 31.5187 3.43751 31.5187 3.41251L31.4187 3.22501L31.4562 3.08751L31.3375 2.86876C31.35 2.82501 31.3687 2.78751 31.4 2.75626C31.4125 2.65626 31.3062 2.57501 31.3125 2.51251L31.325 2.37501C31.2187 2.31251 31.4 2.27501 31.2937 2.25626C31.2937 2.25626 31.3312 2.15626 31.175 1.91876C31.025 1.68126 30.9937 1.69376 30.9937 1.69376L30.9875 1.68126C31 1.61876 31.0062 1.55001 31.0125 1.48126C31.0312 1.41876 31.025 1.35001 30.9875 1.28751C30.9562 1.25626 30.9312 1.21876 30.9062 1.18126C30.8937 1.10626 30.85 1.20626 30.8562 1.10626C30.7812 1.06876 30.7 1.03751 30.6187 1.01251L30.5375 0.950006L30.3812 0.893756L30.3562 0.881256C30.2937 0.968756 30.1312 0.806256 30.1312 0.806256C30.1312 0.806256 30.2375 0.718756 30.075 0.700006C29.9687 0.693756 29.8687 0.731256 29.7937 0.800006C29.675 0.818756 29.55 0.806256 29.4437 0.750006C29.35 0.700006 29.2375 0.700006 29.1437 0.750006L28.6937 0.800006C28.6562 0.818756 28.6187 0.837506 28.5875 0.856256V0.812506L28.5812 0.806256L28.5187 0.781256H28.45V0.706256C28.4187 0.750006 28.375 0.731256 28.375 0.681256C28.3687 0.631256 28.3062 0.631256 28.2875 0.625006C28.2562 0.606256 28.225 0.581256 28.1875 0.568756H28.1562C28.1375 0.575006 28.1187 0.581256 28.1 0.587506C28.075 0.600006 28.0562 0.575006 28.025 0.587506C27.9937 0.600006 27.9875 0.606256 27.9625 0.600006C27.9375 0.593756 27.8937 0.581256 27.875 0.600006C27.8562 0.618756 27.9 0.625006 27.875 0.675006C27.85 0.725006 27.85 0.725006 27.8312 0.712506C27.8125 0.700006 27.8312 0.650006 27.8312 0.650006C27.8187 0.643756 27.8062 0.637506 27.7937 0.637506L27.7562 0.675006C27.7312 0.693756 27.7062 0.712506 27.675 0.718756C27.6375 0.731256 27.6062 0.750006 27.575 0.775006C27.5562 0.793756 27.5375 0.818756 27.5187 0.837506C27.4312 0.793756 27.3375 0.756256 27.2437 0.725006V0.806256L27.0062 0.743756L26.9812 0.731256C26.925 0.793756 26.8437 0.831256 26.7625 0.850006C26.7625 0.850006 26.8062 0.812506 26.7937 0.781256L26.7437 0.812506C26.7187 0.837506 26.7062 0.837506 26.7062 0.812506V0.781256L26.6812 0.800006C26.6687 0.825006 26.65 0.843756 26.6312 0.862506L26.575 0.881256L26.4562 0.931256C26.4437 0.918756 26.4312 0.906256 26.4187 0.900006C26.3937 0.881256 26.3875 0.943756 26.3875 0.943756L26.4375 0.981256C26.3812 0.993756 26.325 1.00001 26.2625 1.00001L26.2312 0.931256C26.2312 0.931256 26.2437 0.887506 26.2312 0.881256C26.1937 0.875006 26.175 0.918756 26.175 0.918756V0.943756L26.1687 0.993756C26.125 0.987506 26.0812 0.981256 26.0375 0.975006L26.0187 0.925006L25.9812 0.887506L25.925 0.862506C25.9125 0.843756 25.9 0.818756 25.8937 0.800006C25.875 0.793756 25.8562 0.787506 25.8375 0.787506L25.8062 0.800006L25.7937 0.787506L25.7687 0.768756C25.75 0.756256 25.7437 0.787506 25.7375 0.800006V0.812506L25.7875 0.843756C25.7312 0.856256 25.7 0.943756 25.6375 0.943756L25.6187 0.900006L25.6062 0.875006C25.6062 0.875006 25.625 0.831256 25.6062 0.825006C25.5812 0.825006 25.5625 0.837506 25.55 0.856256V0.875006V0.893756V0.925006C25.5125 0.925006 25.4812 0.975006 25.4437 0.968756H25.425L25.375 1.06251L25.3375 1.02501L25.2812 1.14376C25.2625 1.12501 25.25 1.10001 25.2375 1.07501C25.2125 1.06251 25.1875 1.16251 25.175 1.16251L25.1375 1.15001C25.1187 1.25626 25.1125 1.07501 25.1062 1.18126C25.1062 1.18126 25.0812 1.14376 25.0187 1.30001C24.9875 1.35626 24.9687 1.41876 24.9562 1.48126C24.9437 1.51251 24.9375 1.55001 24.9312 1.58751C24.9187 1.67501 24.9312 1.76876 24.975 1.77501C25.0187 1.78126 24.9875 1.93126 24.9875 1.93126C24.9875 1.93126 25 2.00001 25.0437 2.00001C25.0875 2.00001 25.025 2.11876 24.9812 2.17501C24.9375 2.23126 24.9625 2.41251 24.9625 2.46251C24.9625 2.51251 24.9 2.78126 24.9562 2.82501C24.9875 2.85001 25.0375 2.85626 25.075 2.83751C25.075 2.83751 25.05 3.01876 25.1187 3.07501C25.0812 3.41876 25.0562 3.84376 25.0375 4.23751C25.05 4.31251 25.0562 4.38751 25.0625 4.47501C25.0937 4.63126 25.0125 4.78126 24.8687 4.85001L24.9062 5.03126C24.9062 5.13751 24.8937 5.20001 24.8937 5.20001C24.8937 5.20001 24.8437 5.11251 24.8312 5.20001C24.8187 5.28751 24.8187 5.28751 24.8687 5.40626C24.9187 5.53126 24.925 5.31251 24.9437 5.40626C24.9562 5.53751 24.9562 5.66876 24.9437 5.80001C24.9375 5.89376 24.9437 5.98751 24.9562 6.08126C24.9687 6.21251 24.95 6.30001 24.9562 6.42501C24.9625 6.51251 24.975 6.57501 24.975 6.67501V6.83126C24.9625 7.01251 24.925 7.21251 24.9187 7.29376C24.9125 7.37501 24.9187 7.68751 24.8625 7.70001C24.8062 7.71251 24.7937 7.90626 24.8437 8.05001H24.7687V8.36876L24.75 8.65001L24.7437 8.68751H24.6625L24.625 8.93126L24.65 9.03751C24.6187 9.15001 24.575 9.26251 24.5312 9.37501L24.4562 9.41876C24.5437 9.65001 24.6125 9.88751 24.6625 10.1313C24.7312 10.2125 24.7562 10.3813 24.775 10.575ZM27.3 3.57501C27.325 3.56251 27.35 3.55001 27.3687 3.53126L27.4187 3.49376C27.4312 3.50001 27.45 3.50001 27.4625 3.50626C27.4562 3.52501 27.45 3.53751 27.4562 3.55626L27.4625 3.56876C27.475 3.56876 27.4812 3.58126 27.4875 3.56876C27.5 3.55626 27.5125 3.54376 27.5187 3.52501C27.55 3.47501 27.4937 3.46876 27.5187 3.45001C27.5437 3.43126 27.5937 3.44376 27.6187 3.45001C27.65 3.45626 27.6562 3.45001 27.6937 3.43751C27.7312 3.42501 27.75 3.45001 27.7812 3.43751C27.8 3.43126 27.825 3.42501 27.85 3.41876H27.8937C27.9312 3.43126 27.9625 3.45001 28 3.46876L28.0187 3.47501C28.0375 3.47501 28.0937 3.48126 28.1187 3.51251C28.1375 3.50001 28.15 3.48126 28.1687 3.46251C28.2062 3.43751 28.2437 3.41876 28.2875 3.40626C28.325 3.40001 28.3562 3.38126 28.3875 3.36251L28.4375 3.32501C28.45 3.33126 28.4687 3.33126 28.4812 3.33751C28.4812 3.33751 28.4562 3.38751 28.4812 3.40001C28.5062 3.41251 28.5062 3.41251 28.5375 3.36251C28.5687 3.31251 28.5125 3.30626 28.5375 3.28751H28.55C28.5812 3.27501 28.6125 3.27501 28.6437 3.28751C28.675 3.29376 28.6812 3.28751 28.7187 3.27501C28.7562 3.26251 28.775 3.28751 28.8062 3.27501C28.825 3.26876 28.85 3.26251 28.875 3.25626H28.8875C28.925 3.25001 28.9562 3.23126 28.9875 3.21251L29.0375 3.17501C29.05 3.18126 29.0687 3.18126 29.0812 3.18751C29.0812 3.18751 29.0562 3.23751 29.0812 3.25001C29.1062 3.26251 29.1062 3.26251 29.1375 3.21251C29.1687 3.16251 29.1125 3.15626 29.1375 3.13751C29.1625 3.11876 29.2125 3.13126 29.2437 3.13751C29.275 3.14376 29.2812 3.13751 29.3187 3.12501H29.3312C29.3125 3.40001 29.2937 3.68751 29.2812 3.96251C29.2937 4.03751 29.3 4.11876 29.3062 4.20626C29.3375 4.36251 29.2562 4.51251 29.1125 4.58126L29.15 4.76876C29.15 4.88126 29.1375 4.94376 29.1375 4.94376C29.1375 4.94376 29.0875 4.85626 29.075 4.94376C29.0625 5.03126 29.0625 5.03126 29.1125 5.15001C29.1625 5.27501 29.1687 5.05626 29.1875 5.15001C29.2 5.28126 29.2 5.41251 29.1875 5.54376C29.1812 5.63751 29.1875 5.73126 29.2 5.82501C29.2125 5.96251 29.1937 6.05001 29.2 6.16876C29.2062 6.26251 29.2187 6.31876 29.2187 6.41876V6.57501C29.2062 6.76251 29.1687 6.96251 29.1625 7.04376C29.1562 7.12501 29.1625 7.43751 29.1062 7.45001C29.05 7.46251 29.0375 7.66251 29.0812 7.80001H29.0062V8.11876L28.9875 8.40001L28.9812 8.43751H28.875L28.8375 8.68126L28.8625 8.78751C28.825 8.90626 28.7812 9.02501 28.7437 9.12501L28.6687 9.16876C28.7562 9.40001 28.825 9.64376 28.875 9.88751C28.8937 9.98751 28.9187 10.1563 28.9375 10.3563C28.9375 10.4063 28.9437 10.4438 28.95 10.4875C28.9562 10.575 28.9687 10.6563 28.9812 10.7375L29.0187 10.925C29.0187 11.0375 29.0062 11.1 29.0062 11.1C29.0062 11.1 28.975 11.05 28.9562 11.075C28.95 11.0813 28.9437 11.0938 28.9437 11.1C28.9375 11.1313 28.9375 11.1625 28.9437 11.1938C28.9562 11.2313 28.9687 11.275 28.9875 11.3125C29.0375 11.4313 29.0437 11.2188 29.0625 11.3125C29.075 11.4438 29.075 11.575 29.0625 11.7063C29.0562 11.8 29.0625 11.8938 29.075 11.9875C29.0875 12.125 29.0687 12.2125 29.075 12.3313C29.0812 12.425 29.0937 12.4813 29.0937 12.5813V12.7375C29.0812 12.8813 29.0562 13.0375 29.0437 13.1313C29.0437 13.1625 29.0375 13.1875 29.0375 13.2C29.0375 13.325 29.025 13.45 29.0062 13.575C29.0187 13.6375 29.0375 13.7 29.0562 13.7625C29.075 13.8625 29.1 14.0313 29.1125 14.2313C29.1187 14.3625 29.1375 14.4875 29.1625 14.6125L29.2 14.8C29.2 14.9125 29.1875 14.975 29.1875 14.975C29.1875 14.975 29.1375 14.8875 29.125 14.975C29.1125 15.0625 29.1125 15.0625 29.1625 15.1813C29.2125 15.3063 29.2187 15.0875 29.2375 15.1813V15.2188C29.25 15.3375 29.25 15.4563 29.2375 15.5813C29.2312 15.675 29.2375 15.7688 29.25 15.8625C29.2625 16 29.2437 16.0875 29.25 16.2063C29.2562 16.3 29.2687 16.3625 29.2687 16.4563V16.4813V16.5188C29.275 16.6438 29.2937 16.775 29.3187 16.9L29.3562 17.0875C29.3562 17.2 29.3437 17.2625 29.3437 17.2625C29.3437 17.2625 29.2937 17.175 29.2812 17.2625C29.2687 17.35 29.2687 17.35 29.3187 17.4688C29.3687 17.5938 29.375 17.375 29.3937 17.4688C29.4062 17.6 29.4062 17.7313 29.3937 17.8625C29.3875 17.9563 29.3937 18.05 29.4062 18.1438C29.4187 18.2813 29.4 18.3688 29.4062 18.4875C29.4125 18.575 29.425 18.6375 29.425 18.7375V18.8938C29.4125 19.0813 29.375 19.2813 29.3687 19.3625C29.3625 19.4438 29.3687 19.7563 29.3125 19.7688C29.2562 19.7813 29.2437 19.975 29.2875 20.1188H29.2125V20.4375L29.1937 20.725L29.1875 20.7625H29.1062L29.0687 21.0063L29.0937 21.1125C29.0562 21.2313 29.0187 21.35 28.975 21.4375C28.9937 21.5625 29.025 21.4938 29.0687 21.6188C29.1187 21.725 29.1937 21.8188 29.2875 21.8938C29.2625 22.05 29.2562 22.2063 29.2625 22.3625C29.2625 22.7 29.2625 22.3625 29.3187 22.75C29.325 22.8063 29.3375 22.8625 29.3562 22.9188L28.975 22.975L28.8812 23.0375V22.9625L28.875 22.9563L28.8187 22.9375H28.7562V22.8625C28.725 22.9063 28.6875 22.8938 28.6875 22.8375C28.6875 22.7813 28.625 22.7875 28.6062 22.7813C28.575 22.7625 28.5437 22.7438 28.5125 22.725H28.4812C28.4625 22.7313 28.45 22.7375 28.4312 22.7438C28.4062 22.7563 28.3875 22.7375 28.3625 22.7438C28.3375 22.75 28.3312 22.7625 28.3062 22.7563C28.2812 22.75 28.2437 22.7375 28.2312 22.7563C28.2125 22.775 28.2562 22.7813 28.2312 22.8313C28.2062 22.8813 28.2062 22.8813 28.1937 22.8688C28.175 22.8563 28.1937 22.8063 28.1937 22.8063L28.1625 22.7938L28.1312 22.8313C28.1125 22.85 28.0875 22.8688 28.0562 22.8813C28.025 22.8938 27.9937 22.9188 27.9687 22.9438L27.9187 23.0063C27.8375 22.9688 27.75 22.9313 27.6687 22.9063V22.9875L27.4812 22.9375L27.5312 22.35L27.5437 22.2563C27.5125 21.975 27.5312 21.6875 27.6125 21.4125C27.6125 21.4125 27.7062 21.825 27.7187 21.2063C27.7312 20.8438 27.6937 20.4813 27.6125 20.125C27.5875 19.6813 27.6 19.2313 27.65 18.7875C27.7062 18.4125 27.7062 18.0313 27.65 17.6563L27.5875 15.9563C27.5687 15.8125 27.55 15.6813 27.525 15.55H27.6L27.6062 15.5188L27.625 15.2813V15.0188H27.7C27.6562 14.9 27.6687 14.7375 27.7187 14.725C27.7687 14.7125 27.7687 14.4625 27.775 14.3938C27.7812 14.325 27.8187 14.1563 27.8312 14.0125C27.8312 13.9688 27.8312 13.925 27.8312 13.8813C27.8312 13.8 27.8187 13.75 27.8125 13.675C27.8 13.575 27.8187 13.5063 27.8125 13.3938C27.8 13.3188 27.7937 13.2375 27.8 13.1563C27.8125 13.05 27.8125 12.9438 27.8 12.8375C27.7812 12.7625 27.775 12.9375 27.725 12.8375C27.675 12.7375 27.675 12.7375 27.6875 12.6688C27.7 12.6 27.75 12.6688 27.75 12.6688C27.75 12.6688 27.7562 12.6188 27.7625 12.525L27.725 12.375C27.7 12.275 27.6875 12.1688 27.675 12.0625C27.6625 11.9375 27.6437 11.8063 27.6125 11.6813C27.5937 11.6063 27.5687 11.5375 27.55 11.4688C27.5875 11.1375 27.625 10.7875 27.65 10.4188H27.5687L27.625 9.54376L27.6375 9.44376C27.5687 9.17501 27.525 8.90001 27.5125 8.61876C27.5125 8.61876 27.55 8.79376 27.5812 8.73751L27.55 8.54376C27.525 8.44376 27.5187 8.40626 27.55 8.40626H27.575L27.5562 8.26876C27.5312 8.21251 27.5062 8.15001 27.4937 8.08751L27.4687 7.88126L27.4187 7.45626C27.4312 7.41251 27.4437 7.36876 27.45 7.31876C27.4687 7.21876 27.4062 7.21251 27.4062 7.21251L27.375 7.40001C27.3625 7.18126 27.35 6.96251 27.35 6.73751L27.4187 6.62501C27.4187 6.62501 27.4625 6.68751 27.4687 6.62501C27.475 6.55626 27.4625 6.48126 27.4312 6.41876H27.4062L27.3562 6.39376C27.3562 6.22501 27.3625 6.06251 27.3687 5.90001L27.4187 5.81876L27.45 5.68751L27.4687 5.46876C27.4812 5.42501 27.5 5.38751 27.5312 5.35626C27.5375 5.27501 27.5437 5.20626 27.5437 5.15626L27.5312 5.03751C27.5375 5.01876 27.5437 5.00626 27.5437 4.98751C27.5437 4.96876 27.5562 4.93751 27.5625 4.90001C27.575 4.82501 27.5437 4.80001 27.525 4.79376H27.5125L27.4812 4.98126C27.4687 4.76876 27.375 4.64376 27.375 4.41876L27.4187 4.34376L27.4375 4.37501C27.4375 4.37501 27.4875 4.43751 27.4875 4.37501C27.4937 4.30626 27.4812 4.23126 27.45 4.16876H27.425L27.4062 4.15626L27.375 4.14376C27.375 4.00001 27.325 3.88126 27.3312 3.73751C27.3312 3.71251 27.3312 3.68751 27.3312 3.66876L27.2812 3.58126H27.3V3.57501Z" fill="#0041E6"/>
<path d="M31.8375 29.5875C31.7563 29.4188 31.575 29.4688 31.7062 29.2875C31.7625 29.1813 31.7875 29.3563 31.9562 29.0063C32.0062 28.9 32.0563 28.9313 31.8438 28.8125C31.7 28.7875 31.5625 28.75 31.425 28.7063C31.3625 28.6313 31.1437 28.7313 31.1812 28.6313L29.9875 28.5438L29.5688 28.4875L28.775 28.4375L28.6437 28.425C28.2625 28.4563 27.875 28.4375 27.5 28.3563C27.5 28.3563 28.0562 28.2625 27.2188 28.25C26.7313 28.2375 26.2375 28.275 25.7563 28.3563C25.15 28.3813 24.55 28.3688 23.9438 28.3188C23.4312 28.2688 22.9188 28.2688 22.4125 28.325L20.1 28.3875L19.5438 28.45V28.375L19.5063 28.3688L19.1938 28.35H18.8438V28.2813C18.6812 28.325 18.4625 28.3125 18.45 28.2563C18.4375 28.2063 18.1 28.2063 18 28.2L17.4875 28.1438H17.3125L17.0375 28.1625H16.6562C16.55 28.175 16.45 28.1813 16.3438 28.175C16.2 28.1625 16.0562 28.1625 15.9062 28.175C15.8062 28.1938 16.0438 28.2 15.9062 28.25C15.8375 28.2875 15.75 28.3063 15.6687 28.2875C15.575 28.275 15.6687 28.225 15.6687 28.225L15.4812 28.2125L15.275 28.25C15.1375 28.275 14.9937 28.2875 14.8562 28.3C14.6438 28.3188 14.4563 28.3438 14.3438 28.3625L14.0562 28.425L12.6375 28.325V28.4L11.45 28.3438L11.3188 28.3313C10.95 28.4 10.575 28.4438 10.2 28.4563C10.2 28.4563 10.4375 28.4188 10.3687 28.3875H10.3562L10.0938 28.4188C9.9625 28.4438 9.9125 28.45 9.9125 28.4188V28.3938L9.73125 28.4125C9.65 28.4375 9.56875 28.4625 9.48125 28.475L9.2 28.4938L8.61875 28.5438L8.4375 28.5188C8.30625 28.5 8.2875 28.5625 8.2875 28.5625L8.5375 28.5938L7.64375 28.6188L7.49375 28.55C7.49375 28.55 7.575 28.5063 7.49375 28.5C7.4 28.4938 7.3 28.5 7.2125 28.5375V28.5625L7.175 28.6125L6.50625 28.5938L6.4 28.5438L6.21875 28.5125L5.91875 28.4875C5.8625 28.475 5.8125 28.4563 5.76875 28.425L5.49375 28.4125L5.3375 28.425L5.26875 28.4125L5.15 28.3938C5.05 28.3813 5.01875 28.4125 5.00625 28.4313V28.4438L5.25625 28.475C4.9625 28.4875 4.8 28.5813 4.49375 28.5813L4.39375 28.5375L4.34375 28.5125C4.34375 28.5125 4.425 28.4688 4.34375 28.4625C4.25 28.4563 4.15 28.4688 4.0625 28.5V28.525L4.05 28.5438L4.03125 28.575C3.8375 28.575 3.66875 28.625 3.48125 28.6188H3.38125L3.13125 28.7125L2.975 28.6813L2.9875 28.4688L3.04375 28.0688L3.09375 27.3188L3.10625 27.1938C3.06875 26.8313 3.09375 26.4688 3.16875 26.1125C3.16875 26.1125 3.2625 26.6375 3.275 25.85C3.28125 25.3875 3.24375 24.9188 3.15625 24.4625C3.13125 23.8875 3.1375 23.3188 3.1875 22.7438C3.2375 22.2625 3.23125 21.775 3.175 21.2938L3.10625 19.1063L3.04375 18.5813H3.11875L3.125 18.5438L3.14375 18.2438V17.9063H3.2125C3.16875 17.75 3.18125 17.5438 3.23125 17.5313C3.28125 17.5188 3.28125 17.1938 3.2875 17.1063L3.34375 16.6188V16.45L3.33125 16.1875V15.8125C3.31875 15.7125 3.3125 15.6125 3.31875 15.5188C3.33125 15.3813 3.33125 15.2438 3.31875 15.1063C3.3 15.0125 3.29375 15.2375 3.24375 15.1063C3.19375 14.975 3.19375 14.9813 3.20625 14.8875C3.21875 14.7938 3.26875 14.8875 3.26875 14.8875L3.28125 14.7063L3.24375 14.5125C3.21875 14.3813 3.20625 14.25 3.19375 14.1125C3.175 13.9063 3.15 13.7313 3.13125 13.625L3.0625 13.3563L3.15625 12.0063H3.0625L3.11875 10.8813L3.13125 10.7563C3.0625 10.4063 3.01875 10.0563 3 9.70001C3 9.70001 3.0375 9.92501 3.06875 9.85626V9.84376L3.0375 9.58751C3.0125 9.46251 3.00625 9.41251 3.0375 9.41251H3.06875L3.04375 9.23126C3.0125 9.15626 2.99375 9.07501 2.975 8.99376L2.95625 8.72501L2.9 8.17501C2.9125 8.11876 2.925 8.06251 2.93125 8.00001C2.95 7.87501 2.8875 7.85626 2.8875 7.85626L2.85625 8.09376C2.84375 7.81876 2.8375 7.53751 2.825 7.24376L2.89375 7.11251C2.89375 7.11251 2.9375 7.18751 2.94375 7.11251C2.95 7.02501 2.9375 6.93126 2.90625 6.84376H2.88125L2.83125 6.81251L2.84375 6.17501L2.89375 6.07501L2.925 5.90001L2.94375 5.61876C2.95625 5.56876 2.975 5.51876 3.00625 5.47501L3.01875 5.20626L2.99375 5.06251L3.00625 5.00001L3.01875 4.88126C3.03125 4.78751 3 4.75626 2.98125 4.74376H2.96875L2.94375 4.98126C2.925 4.70001 2.825 4.54376 2.825 4.25626L2.86875 4.16251L2.8875 4.11251C2.8875 4.11251 2.9375 4.18751 2.9375 4.11251C2.94375 4.02501 2.93125 3.93126 2.89375 3.85001H2.875L2.85 3.84376L2.81875 3.82501C2.81875 3.64376 2.7625 3.48751 2.76875 3.31251V3.21876L2.66875 2.98126L2.7 2.81251L2.58125 2.54376C2.59375 2.49376 2.6125 2.45001 2.64375 2.40626C2.65625 2.28751 2.55625 2.18126 2.5625 2.10626L2.575 1.93751C2.46875 1.85626 2.65 1.81876 2.55 1.79376C2.55 1.79376 2.5875 1.67501 2.45 1.38126C2.3125 1.08751 2.2875 1.10001 2.2875 1.10001C2.26875 1.05626 2.23125 1.01251 2.19375 0.981264C2.1125 0.900014 2.0125 0.981264 1.9875 1.17501C1.9625 1.36876 1.825 1.21876 1.825 1.21876C1.825 1.21876 1.75625 1.25626 1.74375 1.50001C1.73125 1.74376 1.625 1.40626 1.5875 1.20001C1.55 0.993764 1.35 1.10626 1.30625 1.09376C1.2625 1.08126 1.0125 0.743764 0.95625 1.03751C0.9125 1.23751 0.9 1.45001 0.9125 1.65626C0.9125 1.65626 0.7125 1.49376 0.6625 1.89376L0.60625 2.28751C0.55625 2.76251 0.5375 3.40001 0.525 3.96251L0.55625 4.27501C0.5875 4.65001 0.375 4.75626 0.375 4.75626L0.41875 4.99376L0.4125 5.21251C0.4125 5.21251 0.35625 5.10626 0.35 5.21251C0.3375 5.30001 0.35 5.39376 0.3875 5.47501C0.4375 5.62501 0.44375 5.35626 0.4625 5.47501C0.475 5.63751 0.475 5.80626 0.4625 5.96876C0.4625 6.08751 0.46875 6.20626 0.4875 6.32501V6.76251L0.50625 7.08126V7.28126L0.45625 7.87501C0.45625 7.98751 0.45625 8.37501 0.40625 8.39376C0.35625 8.41251 0.3375 8.66251 0.3875 8.85001H0.3125V9.25626L0.29375 9.61876L0.2875 9.66251H0.2125L0.175 9.97501L0.2 10.1125C0.1625 10.2688 0.125 10.4188 0.08125 10.5438L0 10.5938C0.0875 10.8938 0.15625 11.2 0.2125 11.5063C0.23125 11.6313 0.25625 11.85 0.275 12.1L0.2875 12.2625L0.325 12.5875L0.3625 12.825L0.35 13.0438C0.35 13.0438 0.31875 12.975 0.3 13.0063C0.29375 13.0188 0.2875 13.0313 0.2875 13.0438C0.28125 13.0813 0.28125 13.125 0.2875 13.1625C0.3 13.2125 0.3125 13.2625 0.33125 13.3125C0.38125 13.4688 0.3875 13.1938 0.40625 13.3125C0.41875 13.4813 0.41875 13.65 0.40625 13.8125C0.4 13.9313 0.40625 14.0563 0.41875 14.175V14.6125L0.4375 14.9313V15.1313L0.39375 15.6375L0.3875 15.725C0.3875 15.8875 0.375 16.0438 0.35625 16.2L0.40625 16.4438C0.425 16.5688 0.45 16.7875 0.46875 17.0313C0.5 17.4063 0.51875 17.5188 0.51875 17.5188L0.55625 17.7563L0.54375 17.975C0.54375 17.975 0.49375 17.8688 0.48125 17.975C0.46875 18.0688 0.48125 18.1563 0.51875 18.2438C0.56875 18.4 0.575 18.125 0.59375 18.2438V18.2875C0.60625 18.4438 0.6125 18.6 0.60625 18.7563C0.6 18.875 0.60625 19 0.61875 19.1188V19.5563L0.6375 19.875V19.9063V19.9563C0.64375 20.1188 0.6625 20.2813 0.6875 20.4438L0.725 20.6813L0.7125 20.9C0.7125 20.9 0.6625 20.7938 0.65 20.9C0.6375 20.9938 0.65 21.0813 0.6875 21.1688C0.7375 21.325 0.74375 21.05 0.7625 21.1688C0.775 21.3375 0.775 21.5063 0.7625 21.6688C0.7625 21.7875 0.7625 21.9125 0.775 22.0313V22.4688L0.8 22.7875V22.9875L0.75 23.5813C0.75 23.6875 0.75 24.0813 0.7 24.1C0.65 24.1125 0.63125 24.3688 0.68125 24.5563H0.61875V24.9625L0.60625 25.325L0.6 25.375H0.51875L0.48125 25.6875L0.50625 25.825C0.46875 25.975 0.43125 26.1188 0.3875 26.2438C0.40625 26.4063 0.4375 26.3188 0.4875 26.4813C0.53125 26.6125 0.6125 26.7313 0.70625 26.8313C0.68125 27.0313 0.675 27.225 0.68125 27.425C0.68125 27.8563 0.68125 27.425 0.74375 27.9188C0.80625 28.4125 0.9 28.2688 0.8625 28.7C0.8375 28.9188 0.84375 29.1375 0.88125 29.35C0.91875 29.4375 0.95 29.525 0.98125 29.6188C1 29.7063 1.03125 29.7875 1.075 29.8688C1.08125 29.8938 1.0875 29.925 1.1 29.95C1.1 30.0125 1.1375 30.0688 1.13125 30.0938C1.125 30.1375 0.80625 30.4125 1.10625 30.4563C1.3125 30.4813 1.51875 30.4875 1.725 30.4688C1.725 30.4688 1.56875 30.675 1.975 30.7125L2.38125 30.7563C2.86875 30.8063 3.53125 30.8313 4.11875 30.85L4.44375 30.825C4.84375 30.8 4.95 31.0188 4.95 31.0188L5.2 30.975L5.4375 30.9875C5.4375 30.9875 5.31875 31.0375 5.4375 31.05C5.53125 31.0625 5.63125 31.05 5.71875 31.0125C5.88125 30.9625 5.59375 30.9563 5.71875 30.9375C5.89375 30.925 6.075 30.925 6.25 30.9375C6.375 30.9438 6.50625 30.9375 6.63125 30.925H7.09375L7.43125 30.9063H7.64375L8.26875 30.9625C8.3875 30.9688 8.8 30.9625 8.81875 31.0188C8.8375 31.075 9.1 31.0875 9.3 31.0375V31.1125H9.73125L10.1125 31.1313L10.1625 31.1375V31.2188L10.4937 31.2563L10.6375 31.2313C10.8 31.2688 10.9563 31.3063 11.0938 31.35L11.15 31.425C11.4688 31.3375 11.7875 31.2688 12.1125 31.2188C12.2438 31.2 12.475 31.175 12.7375 31.1563L12.9125 31.1438L13.25 31.1063L13.5 31.0688L13.7375 31.0813C13.7375 31.0813 13.6687 31.1125 13.7 31.1313C13.7125 31.1375 13.725 31.1438 13.7375 31.1438C13.7812 31.15 13.8188 31.15 13.8625 31.1438C13.9187 31.1313 13.9688 31.1188 14.0188 31.1C14.1813 31.05 13.9 31.0438 14.0188 31.025C14.1938 31.0125 14.375 31.0125 14.55 31.025C14.675 31.0313 14.8062 31.025 14.9312 31.0125H15.4L15.7375 30.9938H15.95L16.4813 31.0438L16.575 31.05C16.7438 31.05 16.9125 31.0625 17.075 31.0813L17.3312 31.0313C17.4625 31.0125 17.6937 30.9875 17.9562 30.9688C18.125 30.9625 18.3 30.9438 18.4688 30.9188L18.7188 30.8813L18.9562 30.8938C18.9562 30.8938 18.8375 30.9438 18.9562 30.9563C19.05 30.9688 19.15 30.9563 19.2375 30.9188C19.4 30.8688 19.1125 30.8625 19.2375 30.8438H19.2875C19.45 30.8313 19.6062 30.8313 19.7687 30.8438C19.8937 30.85 20.025 30.8438 20.15 30.8313H20.6125L20.95 30.8125H20.9813H21.0375C21.4375 30.7875 21.55 30.7625 21.55 30.7625L21.8 30.725L22.0375 30.7375C22.0375 30.7375 21.9188 30.7875 22.0375 30.8C22.1313 30.8125 22.2313 30.8 22.3188 30.7625C22.4813 30.7125 22.2 30.7063 22.3188 30.6875C22.4937 30.675 22.675 30.675 22.85 30.6875C22.975 30.6938 23.1063 30.6875 23.2313 30.675H23.6938L24.0312 30.6563H24.2437L24.8687 30.7125C24.9875 30.7188 25.4 30.7125 25.4188 30.7688C25.4375 30.825 25.7 30.8375 25.9 30.7938V30.8688H26.3312L26.7125 30.8875L26.7625 30.8938V30.975L27.0938 31.0125L27.2375 30.9875C27.3937 31.025 27.5437 31.0625 27.675 31.1063C27.8438 31.0875 27.7563 31.0563 27.9188 31.0063C28.0563 30.9625 28.1875 30.8875 28.2938 30.7875C28.5 30.8125 28.7125 30.8188 28.9188 30.8125C29.3688 30.8125 28.9188 30.8125 29.4438 30.7563C29.9688 30.7 29.8187 30.6 30.2687 30.6375C30.5 30.6625 30.7312 30.6563 30.9562 30.625C31.05 30.5875 31.1437 30.5563 31.2375 30.525C31.3312 30.5063 31.4188 30.475 31.5 30.4313C31.5 30.4313 31.6875 30.4125 31.6625 30.2688C31.6375 30.125 31.9062 30.3063 31.8625 30.225C32.0562 29.9563 31.9438 29.7938 31.8375 29.5875Z" fill="#0041E6"/>
</g>
<defs>
<clipPath id="clip0_7664_50193">
<rect width="32" height="32" fill="white"/>
</clipPath>
</defs>
</svg>
