<svg width="32" height="32" viewBox="0 0 32 32" fill="none" xmlns="http://www.w3.org/2000/svg">
<g clip-path="url(#clip0_7664_50164)">
<path d="M11.3188 8.57501C11.3063 8.48751 11.275 8.40626 11.2375 8.33126L11.175 8.23126L11.1625 8.13126C11.1625 8.13126 11.225 8.16876 11.225 8.11251C11.225 8.06251 11.225 8.05626 11.1562 8.00626C11.0875 7.95626 11.1188 8.06876 11.0813 8.03126L11.075 8.01251C11.05 7.95626 11.0312 7.89376 11.0188 7.83126C11.0063 7.78126 10.9813 7.73751 10.9563 7.69376C10.9188 7.63126 10.9187 7.57501 10.875 7.51251L10.7875 7.38126L10.7812 7.36876L10.7688 7.35001C10.7188 7.27501 10.6562 7.21251 10.5875 7.15626L10.4688 7.07501L10.3938 6.96876C10.3938 6.96876 10.475 6.98126 10.4375 6.92501C10.4 6.86876 10.4 6.86251 10.2937 6.83126C10.1875 6.80001 10.3125 6.91876 10.2437 6.88751C10.175 6.85626 10.0687 6.75001 9.99375 6.70001C9.93125 6.65626 9.8625 6.62501 9.79375 6.60001C9.7125 6.56251 9.63125 6.53126 9.55 6.50626L9.36875 6.48126L9.25 6.45626C9.14375 6.42501 9.03125 6.39376 8.91875 6.37501C8.85625 6.36251 8.6375 6.38751 8.61875 6.33751C8.6 6.28751 8.45 6.29376 8.35625 6.36876L8.3375 6.29376C8.25625 6.31876 8.18125 6.34376 8.1 6.37501C8.025 6.40626 7.95625 6.41876 7.8875 6.45001H7.85625L7.81875 6.38126C7.75 6.40001 7.68125 6.42501 7.61875 6.45001L7.55625 6.52501L7.275 6.60001C7.20625 6.68126 7.26875 6.66876 7.23125 6.76876C7.20625 6.86876 7.2125 6.97501 7.25 7.06876C7.1625 7.13126 7.0875 7.21876 7.03125 7.31251C6.9125 7.51251 7.025 7.31251 6.95 7.56876C6.93125 7.62501 6.93125 7.68126 6.9375 7.74376C6.9125 7.79376 6.9 7.85001 6.89375 7.91251C6.89375 7.91251 6.70625 7.80626 6.6375 7.97501C6.61875 8.03126 6.59375 8.09376 6.575 8.15001C6.5125 8.40626 6.5 8.66876 6.54375 8.92501L6.60625 9.05626C6.68125 9.21251 6.5 9.33751 6.5 9.33751L6.58125 9.43126L6.6125 9.53751C6.6125 9.53751 6.54375 9.50626 6.55625 9.56251C6.56875 9.61876 6.56875 9.61876 6.65 9.66876C6.73125 9.71876 6.66875 9.59376 6.71875 9.63126C6.76875 9.70001 6.8125 9.76876 6.85 9.84376C6.88125 9.90001 6.91875 9.94376 6.96875 9.98751C7.0125 10.05 7.0625 10.1063 7.1125 10.1563L7.2375 10.2625L7.3125 10.3375C7.3875 10.4313 7.475 10.5438 7.51875 10.5813C7.55625 10.6188 7.7375 10.7313 7.71875 10.7813C7.7 10.825 7.8125 10.9125 7.925 10.9125L7.89375 10.975L8.10625 11.0625L8.29375 11.1438L8.31875 11.1563L8.3 11.2313L8.475 11.3125L8.5625 11.3063L8.81875 11.4625L8.85 11.5438C9.03125 11.4813 9.23125 11.4063 9.45 11.3125C9.53125 11.2813 9.675 11.2313 9.825 11.1625L9.925 11.1125C9.9875 11.0813 10.05 11.0438 10.1062 10.9938L10.225 10.8875L10.35 10.825C10.35 10.825 10.3312 10.875 10.3562 10.8813H10.3813C10.4063 10.875 10.4312 10.8625 10.45 10.8438C10.475 10.8188 10.4938 10.7875 10.5063 10.7563C10.5563 10.6563 10.4125 10.7563 10.4625 10.6938C10.5375 10.625 10.6187 10.5625 10.7 10.5063C10.7625 10.4563 10.8125 10.3938 10.85 10.325C10.9125 10.25 10.9687 10.175 11.025 10.0875L11.1187 9.88751L11.1812 9.76251C11.2375 9.65626 11.2937 9.55001 11.3438 9.44376L11.3687 9.38751C11.3875 9.32501 11.4187 9.13751 11.45 9.07501L11.4125 8.91251L11.3188 8.57501Z" fill="#0041E6"/>
<path d="M32.0187 26.5563C31.925 26.45 31.85 26.3313 31.7812 26.2063C31.75 26.1313 31.725 26.05 31.7062 25.9688L31.6875 25.9063C31.675 25.8625 31.6625 25.8188 31.6437 25.7813L31.6 25.6938V25.6063C31.6 25.6063 31.6375 25.6313 31.65 25.6125C31.6562 25.6063 31.6562 25.6063 31.6625 25.6C31.6687 25.5875 31.6687 25.5688 31.6625 25.5563C31.65 25.5375 31.6375 25.5188 31.6187 25.5C31.5625 25.4438 31.5687 25.55 31.5437 25.5063C31.525 25.4438 31.5187 25.375 31.525 25.3063C31.525 25.2563 31.5187 25.2125 31.5 25.1625C31.4812 25.0938 31.5 25.0438 31.4812 24.9875C31.4625 24.9313 31.45 24.8688 31.4437 24.7875V24.7125L31.4375 24.65C31.4375 24.525 31.4312 24.3875 31.4187 24.3L31.4125 24.2375C31.4 24.175 31.3375 23.9938 31.325 23.9125L31.2062 23.7875C31.15 23.7188 31.0562 23.6063 30.9437 23.4813C30.875 23.3938 30.7875 23.325 30.6937 23.2688L30.55 23.1938L30.4437 23.0938C30.4437 23.0938 30.5375 23.1 30.4875 23.0438C30.4375 22.9875 30.4375 22.9875 30.3187 22.9688C30.2 22.95 30.35 23.0563 30.275 23.0313L30.25 23.0188C30.175 22.9875 30.0687 22.9125 29.9937 22.8688C29.925 22.8313 29.85 22.8 29.775 22.7813C29.6687 22.75 29.6062 22.7063 29.5062 22.6813L29.3625 22.6563H29.35H29.3312C29.2687 22.6438 29.2 22.6375 29.1312 22.6375L29.0312 22.6438L28.95 22.6063C28.95 22.6063 29.0062 22.5688 28.9687 22.5438C28.9312 22.5188 28.9312 22.5188 28.85 22.5438C28.775 22.5688 28.8812 22.6125 28.825 22.6125C28.7562 22.6063 28.6875 22.5875 28.625 22.5563C28.575 22.5375 28.525 22.525 28.475 22.525C28.4 22.5125 28.3562 22.4813 28.2937 22.475C28.2437 22.4688 28.2062 22.4688 28.1562 22.4563L28.0687 22.4313L27.825 22.3125C27.775 22.2938 27.6062 22.2625 27.6125 22.2125C27.6125 22.1625 27.5062 22.125 27.4187 22.1563L27.4312 22.0813L27.3375 22.075L27.3187 22.0625C27.3187 22.0563 27.3187 22.0563 27.3187 22.05C27.3187 22.0438 27.3062 22.0313 27.3062 22.0188L27.325 21.9688L27.3125 21.9313V21.925L27.2937 21.9375C27.3 21.8938 27.3062 21.8563 27.3187 21.8125C27.3062 21.8188 27.2937 21.85 27.2562 21.8875C27.2187 21.8125 27.175 21.7375 27.125 21.6688C27.0625 21.5063 27.0437 21.3313 27.0562 21.1563C27.075 21.0063 27.0437 20.8563 26.9562 20.7313L26.7562 20.1L26.6625 19.9563L26.7375 19.9438V19.9313V19.8375L26.7 19.65L26.775 19.6313C26.7125 19.55 26.7 19.4313 26.75 19.4063C26.7937 19.3813 26.75 19.1938 26.7312 19.1438C26.7187 19.0438 26.7 18.9438 26.6687 18.8438L26.625 18.75C26.6 18.7063 26.5687 18.6625 26.5312 18.6188C26.5125 18.5938 26.4937 18.5688 26.4812 18.5438C26.4625 18.5063 26.4375 18.4688 26.4062 18.4375C26.3625 18.3938 26.325 18.35 26.2875 18.3C26.2437 18.225 26.1875 18.1625 26.1187 18.1188C26.0625 18.0938 26.1562 18.1938 26.0625 18.1688C25.975 18.15 25.975 18.15 25.9437 18.1063C25.9125 18.0625 25.9875 18.0625 25.9875 18.0625L25.9187 17.9813L25.8 17.9375L25.5812 17.8375C25.4937 17.8 25.4 17.7688 25.3062 17.7438C25.25 17.7375 25.1937 17.7313 25.1375 17.7313C24.9312 17.6 24.7125 17.4813 24.4812 17.3938L24.4625 17.4688L24.0937 17.3125L24.0562 17.2938C23.9375 17.3313 23.8062 17.3438 23.6812 17.3375C23.6812 17.3375 23.7625 17.3125 23.75 17.2813L23.6625 17.2938C23.6125 17.3063 23.6 17.3063 23.6062 17.2813V17.2563L23.5437 17.2625C23.5187 17.2813 23.4875 17.3 23.4562 17.3063H23.3625L23.175 17.3188C23.1625 17.3 23.1437 17.2875 23.125 17.275C23.0875 17.25 23.0687 17.3125 23.0687 17.3125L23.1437 17.3563C23.05 17.35 22.9562 17.3438 22.8625 17.325L22.825 17.25C22.825 17.25 22.8562 17.2063 22.8312 17.2C22.8 17.1875 22.7625 17.1938 22.7375 17.2188V17.2438L22.7187 17.2875L22.5125 17.2375L22.4875 17.1813L22.4375 17.1375L22.4125 17.1313C22.3875 17.075 22.3687 17.0125 22.3562 16.95C22.3562 16.95 22.5125 16.975 22.3875 16.8313C22.3062 16.7375 22.2 16.6813 22.0812 16.6625C21.9625 16.575 21.875 16.4625 21.8187 16.3313C21.775 16.2125 21.6875 16.125 21.5687 16.0813L21.1562 15.7375C21.1125 15.7188 21.0687 15.7 21.025 15.6875L21.075 15.6375V15.625L21.0375 15.5563L20.9812 15.5L21.0375 15.4438C20.9812 15.4438 20.9562 15.4 20.9937 15.3625C21.0312 15.325 20.975 15.2688 20.9625 15.2438C20.95 15.2 20.9375 15.1625 20.9187 15.1188L20.8937 15.0875C20.875 15.075 20.8562 15.0625 20.8375 15.0563C20.8062 15.0438 20.8062 15.0125 20.775 14.9938C20.7437 14.975 20.7312 14.975 20.7187 14.95C20.7062 14.925 20.6812 14.8813 20.65 14.8813C20.6187 14.8813 20.65 14.925 20.6 14.9375C20.55 14.95 20.5437 14.95 20.5375 14.925C20.5312 14.9 20.5812 14.8813 20.5812 14.8813C20.575 14.8688 20.5687 14.8563 20.5625 14.8438L20.5 14.8375C20.4625 14.8313 20.4312 14.8188 20.4 14.8C20.3625 14.7813 20.3187 14.7688 20.275 14.7563C20.2437 14.7563 20.2125 14.7563 20.1812 14.7563C20.1375 14.65 20.0875 14.5438 20.025 14.4438L19.9687 14.5L19.825 14.2625L19.8125 14.2313C19.7187 14.225 19.625 14.1875 19.5437 14.1313C19.5437 14.1313 19.6062 14.1438 19.6187 14.1063L19.5562 14.0813C19.5187 14.0813 19.5062 14.0688 19.525 14.05L19.5437 14.0313L19.5 14.0625C19.475 14.0688 19.4437 14.0688 19.4187 14.0625L19.3562 14.0188L19.2312 13.9563C19.2312 13.9375 19.2312 13.9188 19.225 13.9063C19.2187 13.875 19.1687 13.9125 19.1687 13.9125L19.1875 13.975L19.15 13.9438C19.1937 13.8625 19.2375 13.7875 19.2812 13.7125L19.5187 13.3125C19.65 13.05 19.7625 12.7688 19.8687 12.4938L19.925 12.35C19.9687 12.0813 20.0312 11.8188 20.1187 11.5625L20.2687 11.0313C20.2687 11.0313 20.2812 11.725 20.4062 10.7C20.4437 10.2563 20.4125 9.81251 20.3125 9.38126C20.2812 9.22501 20.2375 9.07501 20.1875 8.92501C20.1875 8.92501 19.9937 7.91876 19.8187 7.00626C19.7187 6.42501 19.5125 5.86876 19.2187 5.35626C18.825 4.53126 18.3062 3.76876 17.6812 3.10626C17.5187 2.95001 17.35 2.80626 17.1687 2.67501L17.2187 2.61876L17.1875 2.58126C17.1 2.49376 17.0125 2.39376 16.9187 2.31251L16.5812 2.05001L16.625 1.98751C16.4437 1.89376 16.2312 1.75001 16.2437 1.69376C16.2562 1.63751 15.9125 1.41251 15.8125 1.35626C15.7125 1.30626 15.5062 1.13126 15.2875 1.01251L15.1 0.925006L14.7875 0.806256C14.6375 0.750006 14.5375 0.700006 14.3687 0.643756C14.2 0.593756 14.15 0.581256 14.0187 0.525006C13.8625 0.462506 13.7 0.412506 13.5375 0.381256C13.4187 0.368756 13.6812 0.450006 13.5187 0.456256C13.4312 0.468756 13.3375 0.456256 13.2562 0.418756C13.1625 0.381256 13.2812 0.356256 13.2812 0.356256L13.0812 0.293756L12.8437 0.281256L12.375 0.231256C12.1875 0.206256 11.9937 0.193756 11.8062 0.193756L11.4875 0.218756C11.2 0.150006 10.9 0.112506 10.6062 0.100006C10.3125 0.0875056 10.0437 0.0937556 9.76874 0.100006L9.77499 0.181256C9.34374 0.200006 8.92499 0.231256 8.50624 0.275006L8.36249 0.281256C8.04999 0.412506 7.18749 0.631256 7.18749 0.631256C7.18749 0.631256 7.43749 0.537506 7.35624 0.525006H7.34374L7.05624 0.618756C6.91249 0.675006 6.84374 0.700006 6.83749 0.675006L6.82499 0.650006L6.61249 0.737506C6.52499 0.793756 6.43749 0.843756 6.34374 0.893756L6.03124 1.03751C5.81874 1.13751 5.61874 1.26251 5.41874 1.38126L5.21249 1.46251C5.07499 1.52501 5.08124 1.59376 5.08124 1.59376L5.35624 1.47501C5.04999 1.65626 4.75624 1.85001 4.47499 2.06251L4.29374 2.11251C4.29374 2.11251 4.34374 2.01876 4.26249 2.07501C4.16874 2.13751 4.08749 2.21251 4.03124 2.30626L4.04374 2.32501V2.38751C3.84374 2.55626 3.64374 2.73126 3.46249 2.90626L3.33749 2.95626L3.16874 3.08751L2.92499 3.33126C2.87499 3.36876 2.81874 3.40001 2.76249 3.42501C2.67499 3.51876 2.61249 3.60001 2.55624 3.66251L2.44999 3.81876L2.39374 3.87501L2.29999 3.96876C2.22499 4.05626 2.23124 4.10626 2.23749 4.12501V4.13751C2.29999 4.06251 2.35624 3.99376 2.43124 3.92501C2.24374 4.20001 2.21874 4.41251 2.03124 4.70001L1.93749 4.77501L1.88749 4.81251C1.88749 4.81251 1.89374 4.70626 1.84374 4.78751C1.78124 4.87501 1.73749 4.97501 1.71249 5.08126L1.73124 5.09376L1.73749 5.11876L1.74999 5.15626C1.68124 5.28126 1.62499 5.40626 1.57499 5.54376C1.43124 5.78126 1.30624 6.03126 1.19374 6.28751L1.11874 6.56876C1.01874 6.90626 0.793744 6.93751 0.793744 6.93751L0.768744 7.16251L0.706244 7.36251C0.706244 7.36251 0.681244 7.24376 0.643744 7.35001C0.606244 7.43126 0.599994 7.51876 0.618744 7.60626C0.631244 7.76251 0.699994 7.51251 0.693744 7.62501C0.674994 7.78126 0.643744 7.93126 0.599994 8.08751C0.574994 8.19376 0.562494 8.30626 0.556244 8.41876L0.506244 8.81876L0.499994 9.11251L0.481244 9.29376L0.393744 9.83126C0.381244 9.93126 0.374994 10.2875 0.324994 10.3C0.274994 10.3125 0.256244 10.5438 0.299994 10.7125H0.237494L0.249994 11.0813L0.243744 11.4125L0.237494 11.4563H0.162494L0.143744 11.7438L0.174994 11.8625L0.0937439 12.2875L0.0249939 12.35L0.399994 13.25L0.624994 13.8063L0.687494 13.9563L0.831244 14.2438L0.949994 14.4438L1.02499 14.6438C1.02499 14.6438 0.968744 14.6 0.962494 14.6375C0.956244 14.65 0.956244 14.6625 0.962494 14.675C0.974994 14.7125 0.987494 14.75 1.00624 14.7813C1.03749 14.825 1.06874 14.8625 1.10624 14.9C1.22499 15.0188 1.10624 14.775 1.17499 14.8688C1.25624 15.0063 1.33124 15.15 1.39374 15.2938C1.44374 15.3938 1.50624 15.4938 1.57499 15.5875L1.79374 15.9375L1.97499 16.175L2.06249 16.3125L2.29999 16.7188L2.34374 16.7875C2.43124 16.9063 2.51249 17.025 2.58749 17.1563L2.76874 17.3L3.16249 17.6688C3.26874 17.775 3.37499 17.8688 3.49374 17.9625L3.66874 18.0875L3.79374 18.2375C3.79374 18.2375 3.68749 18.2 3.74999 18.2813C3.81249 18.3625 3.81249 18.3625 3.94999 18.4313C4.08749 18.5 3.91249 18.3125 3.99999 18.375L4.03124 18.4C4.12499 18.4688 4.25624 18.6125 4.34374 18.6938C4.42499 18.775 4.51249 18.8438 4.60624 18.9063C4.73749 19 4.80624 19.0813 4.92499 19.1625L5.17499 19.325L5.19999 19.3438L5.24374 19.3688C5.37499 19.4563 5.51249 19.525 5.65624 19.5875L5.86874 19.675L6.04374 19.7938C6.04374 19.7938 5.92499 19.7875 6.01249 19.85C6.08124 19.9063 6.16874 19.9375 6.26249 19.9438C6.42499 19.9688 6.18749 19.8438 6.29374 19.875C6.40624 19.9063 6.61249 20.025 6.74999 20.0813C6.86249 20.1313 6.98124 20.175 7.09999 20.2C7.27499 20.2438 7.37499 20.2938 7.54374 20.3188L7.88749 20.3625L8.10624 20.3938L8.62499 20.4875C8.72499 20.5 9.07499 20.5125 9.08749 20.5625C9.09999 20.6125 9.32499 20.6375 9.49999 20.5875V20.6625L9.86874 20.6563H10.2H10.2437V20.7375L10.5375 20.7563L10.6625 20.725L11.0625 20.8C11.2125 20.7625 11.1312 20.7438 11.2687 20.675C11.3875 20.6125 11.4875 20.5188 11.5625 20.4063C11.75 20.4 11.9375 20.375 12.1187 20.3188C12.5125 20.2188 12.1187 20.3188 12.5625 20.1438C13.0062 19.9688 12.8562 19.9 13.2062 19.7938C13.2375 19.825 13.2625 19.8625 13.2937 19.9C13.3375 19.9313 13.3875 19.9688 13.4375 20.0188C13.5375 20.1 13.5625 20.2438 13.4937 20.3563L13.6187 20.4313C13.675 20.4938 13.7 20.5313 13.7 20.5313C13.7 20.5313 13.6187 20.5188 13.6562 20.575C13.6937 20.6313 13.6937 20.6313 13.7937 20.6625C13.8937 20.6938 13.7875 20.575 13.85 20.6063C13.9312 20.6688 14 20.7375 14.0562 20.8188C14.1 20.875 14.1562 20.9188 14.2125 20.9625C14.2937 21.025 14.325 21.0875 14.3937 21.15C14.4625 21.2125 14.4875 21.2188 14.5375 21.2688C14.5625 21.3 14.5937 21.325 14.6187 21.3563C14.7062 21.4688 14.7875 21.6 14.825 21.65C14.8625 21.7 15.025 21.8688 15 21.9125C14.9687 21.9563 15.0625 22.075 15.1687 22.1188L15.1125 22.1688L15.2812 22.3438L15.4187 22.5125L15.4312 22.5375L15.375 22.5875L15.475 22.75L15.5437 22.7938C15.5812 22.8813 15.6125 22.9688 15.6375 23.0625L15.6062 23.1688C15.7875 23.2375 15.9625 23.3188 16.125 23.4125C16.1875 23.4563 16.3 23.5313 16.4125 23.625C16.4437 23.65 16.4625 23.6688 16.4875 23.6875C16.5375 23.7313 16.5875 23.7688 16.6437 23.8063L16.7687 23.8813C16.825 23.9438 16.85 23.9813 16.85 23.9813C16.85 23.9813 16.8 23.975 16.8 24C16.8 24.0063 16.8 24.0188 16.8062 24.025C16.8187 24.0438 16.8312 24.0625 16.85 24.075C16.8812 24.0875 16.9125 24.1 16.9437 24.1125C17.0437 24.1438 16.9375 24.025 17 24.0563C17.0812 24.1188 17.15 24.1875 17.2062 24.2688C17.25 24.325 17.3062 24.3688 17.3625 24.4125C17.4437 24.4813 17.475 24.5375 17.5437 24.6C17.5937 24.6438 17.6375 24.6688 17.6875 24.7188C17.7125 24.75 17.7437 24.775 17.7687 24.8063C17.8375 24.8938 17.9 24.9938 17.9437 25.0563C17.9562 25.0688 17.9625 25.0875 17.975 25.1C18.0375 25.1688 18.1 25.2438 18.1437 25.325C18.1875 25.35 18.2312 25.3688 18.275 25.3938C18.375 25.4563 18.4687 25.5313 18.5625 25.6063C18.6375 25.6688 18.7125 25.7313 18.8 25.7813L18.925 25.8563C18.9812 25.9188 19.0062 25.9563 19.0062 25.9563C19.0062 25.9563 18.925 25.9438 18.9625 26C19 26.0563 19 26.0563 19.1 26.0875C19.2 26.1188 19.0937 26 19.1562 26.0375L19.1812 26.0563C19.25 26.1125 19.3125 26.1813 19.3687 26.25C19.4125 26.3063 19.4687 26.35 19.525 26.3938C19.6062 26.4625 19.6312 26.5188 19.7062 26.5813C19.7562 26.625 19.8 26.65 19.85 26.7L19.8625 26.7125L19.8875 26.7313C19.9625 26.7938 20.0375 26.8563 20.125 26.9063L20.25 26.9813C20.3062 27.0438 20.3312 27.0875 20.3312 27.0875C20.3312 27.0875 20.25 27.075 20.2875 27.1313C20.325 27.1875 20.325 27.1875 20.425 27.2188C20.525 27.25 20.4187 27.1313 20.4812 27.1688C20.5625 27.2313 20.6312 27.3 20.6875 27.3813C20.7375 27.4375 20.7875 27.4813 20.8437 27.525C20.925 27.5875 20.9562 27.65 21.025 27.7125C21.075 27.75 21.125 27.7875 21.1687 27.8313C21.1937 27.8625 21.225 27.8875 21.25 27.9188C21.3375 28.0313 21.4187 28.1625 21.4562 28.2125C21.4937 28.2625 21.6562 28.4313 21.6312 28.475C21.6 28.5188 21.6937 28.6375 21.8 28.6813L21.7437 28.7313L21.9125 28.9063L22.05 29.075L22.0625 29.1L22.0062 29.1563L22.1062 29.3188L22.1812 29.3625C22.2125 29.4438 22.2437 29.5313 22.2687 29.6188C22.3437 29.675 22.3312 29.6188 22.4312 29.65C22.5312 29.675 22.6312 29.675 22.7312 29.65C22.7937 29.75 22.8687 29.8438 22.9562 29.925C23.1312 30.1063 22.9562 29.925 23.2 30.0938C23.4437 30.2625 23.4562 30.1375 23.6062 30.3438C23.675 30.4563 23.7687 30.5438 23.8812 30.6125C23.9437 30.625 24 30.6375 24.0625 30.6563C24.1125 30.6813 24.1625 30.6938 24.2187 30.7C24.2187 30.7 24.225 30.7188 24.2187 30.7188C24.1875 30.7563 24.225 30.825 24.3 30.8375L24.2437 30.8875L24.3375 30.9813L24.4687 31.1375L24.4812 31.1625L24.4312 31.2188L24.5437 31.375L24.6187 31.4063L24.7562 31.6625L24.7437 31.7438L25.125 31.7938L25.325 31.8063L25.6687 31.8438H25.7625C25.825 31.85 25.8875 31.8438 25.95 31.8375L26.0875 31.8125L26.2062 31.8375C26.2062 31.8375 26.1687 31.8688 26.1812 31.8875C26.1875 31.8938 26.1937 31.9 26.2 31.9C26.2312 31.9063 26.2312 31.9125 26.2437 31.9063C26.2625 31.8938 26.2812 31.8813 26.3 31.8688C26.3562 31.825 26.2625 31.8125 26.3 31.7938C26.3562 31.7813 26.4187 31.7875 26.475 31.8C26.5125 31.8063 26.5562 31.8063 26.5937 31.8C26.6562 31.7938 26.6875 31.8125 26.7437 31.8C26.7812 31.7938 26.8187 31.7875 26.85 31.7875H26.9187C26.975 31.8 27.0312 31.8188 27.0875 31.8375L27.1187 31.8438C27.175 31.8438 27.2312 31.8563 27.2812 31.8813L27.3625 31.8375C27.425 31.8125 27.4937 31.7938 27.5625 31.775C27.6187 31.7688 27.675 31.75 27.725 31.725L27.8062 31.6875L27.8812 31.6938C27.8812 31.6938 27.8437 31.7438 27.8812 31.7563C27.9187 31.7688 27.9187 31.7688 27.9687 31.7188C28.0187 31.6688 27.925 31.6688 27.9687 31.6438H27.9812C28.0312 31.6375 28.0812 31.6375 28.1375 31.6438C28.175 31.6438 28.2187 31.6375 28.2562 31.625C28.3125 31.6125 28.35 31.625 28.4062 31.6125C28.4375 31.6 28.475 31.5938 28.5125 31.5875H28.525H28.5437C28.6 31.575 28.65 31.5563 28.7 31.525L28.775 31.4813H28.85C28.85 31.4813 28.8187 31.5375 28.8562 31.5438C28.8937 31.55 28.8812 31.55 28.9562 31.4938C29.0312 31.4375 28.8937 31.4438 28.9437 31.4188C29.025 31.3938 29.1062 31.3813 29.1875 31.3875C29.25 31.3813 29.3062 31.3688 29.3625 31.35C29.4437 31.325 29.5 31.3375 29.575 31.3125L29.7187 31.2688L29.8187 31.25C29.9375 31.2375 30.0812 31.25 30.125 31.2313C30.1687 31.2125 30.3437 31.1563 30.3875 31.1938C30.425 31.2313 30.5437 31.1938 30.5875 31.1188L30.6375 31.175C30.7375 31.1 30.8375 31.025 30.9375 30.9375L30.9562 30.925L31.0187 30.975L31.1437 30.875L31.1625 30.8063L31.3562 30.7C31.375 30.6188 31.3312 30.6375 31.3187 30.5375C31.2937 30.4375 31.25 30.3438 31.1812 30.2625V30.2375C31.1937 30.225 31.2 30.2063 31.2062 30.1938C31.2625 30.2063 31.3875 30.2125 31.425 30.0938L31.4687 29.9375C31.525 29.725 31.5625 29.5125 31.5812 29.2938L31.55 29.1688C31.525 29.0188 31.7437 28.9688 31.7437 28.9688L31.7 28.875L31.7125 28.7875C31.7125 28.7875 31.7625 28.8313 31.775 28.7875C31.7875 28.7438 31.7875 28.7438 31.7375 28.6813C31.6875 28.6188 31.6812 28.7313 31.6625 28.6813C31.6437 28.6188 31.6437 28.55 31.6562 28.4813C31.6562 28.4313 31.65 28.3813 31.6375 28.3375C31.625 28.2688 31.6375 28.2188 31.6312 28.1625C31.625 28.1063 31.6125 28.0875 31.6062 28.0375V27.9563C31.6125 27.8625 31.65 27.7563 31.65 27.7188C31.6562 27.675 31.6437 27.5188 31.6937 27.5063C31.7437 27.5 31.7562 27.3875 31.7062 27.325H31.7812L31.7687 27.1625L31.7812 27.0188L31.7875 27H31.8625L31.8937 26.875L31.8687 26.825C31.9 26.7625 31.9375 26.7 31.975 26.6438L32.0187 26.5563ZM29.2625 28.4375L29.2125 28.4813L29.1812 28.55L29.1625 28.6563C29.1437 28.6813 29.125 28.7 29.1 28.7125L29.0875 28.8125L29.1062 28.8688V28.875L29.0812 28.9L29.0187 28.9188C29 28.9313 28.9812 28.9438 28.9562 28.9563H28.9437C29.0312 29.0375 28.875 29.0063 28.875 29C28.875 29 28.7937 28.925 28.7687 28.9375C28.7437 28.95 28.8125 29.0563 28.8125 29.0563C28.8125 29.0563 28.7812 29.1063 28.7062 29.025C28.6312 28.9438 28.65 29.0313 28.6437 29.0313C28.5312 29.0625 28.2687 29.1063 28.0875 29.1313L27.9437 29.2V29.125L27.9312 29.1188L27.8437 29.1H27.75V29.025C27.7125 29.075 27.65 29.0563 27.6437 29.0063C27.6375 28.9563 27.55 28.9563 27.525 28.95C27.4812 28.9313 27.4375 28.9125 27.3875 28.8938H27.3437C27.3187 28.9 27.2937 28.9 27.275 28.9125C27.2375 28.925 27.2125 28.9 27.175 28.9125C27.1375 28.9188 27.125 28.9313 27.0937 28.9188C27.0625 28.9125 27.0062 28.9 26.975 28.9188C26.9437 28.9375 27.0125 28.9438 26.975 28.9938C26.9375 29.0438 26.9375 29.0375 26.9125 29.025C26.8875 29.0125 26.9125 28.9625 26.9125 28.9625L26.8625 28.95L26.8062 28.9875C26.7687 29.0063 26.7312 29.025 26.6875 29.025C26.6375 29.0375 26.5937 29.0563 26.55 29.075L26.4687 29.1313C26.3125 29.0813 26.3875 29.0438 26.3562 29.0125L26.3375 29.0938C26.3312 29.075 26.325 29.0563 26.3187 29.0375V29.025V29.0125C26.3 29.05 26.2625 29.0813 26.2125 29.0875C26.2312 29.0688 26.25 29.05 26.2625 29.025L26.2375 29.0375L26.2562 29.0188L26.2375 29.025C26.2 29.05 26.15 29.025 26.15 29.025L26.0812 28.9813L25.925 28.8938C25.925 28.875 25.9187 28.85 25.9062 28.8313C25.8937 28.7938 25.8437 28.8313 25.8437 28.8313L25.8687 28.9063C25.8 28.85 25.7312 28.7938 25.6687 28.7313L25.6875 28.65C25.6875 28.65 25.7375 28.6375 25.7187 28.6188C25.7 28.5938 25.6687 28.575 25.6375 28.5813L25.6187 28.6L25.575 28.625L25.45 28.4688L25.4687 28.4063L25.4562 28.3438L25.4125 28.2625C25.4125 28.2375 25.4187 28.2125 25.425 28.1875L25.375 28.1188L25.3312 28.0938V28.0688L25.3187 28.0313C25.3062 28 25.2812 28.0188 25.2625 28.0313H25.2562L25.2875 28.1063C25.2187 28.0563 25.1187 28.0813 25.05 28.0188L25.0625 27.9688V27.9438C25.0625 27.9438 25.1125 27.9313 25.0937 27.9125C25.075 27.8875 25.0437 27.8688 25.0125 27.875L24.9937 27.8938L24.975 27.9063L24.95 27.925C24.9125 27.8813 24.8375 27.8813 24.8062 27.8375L24.7875 27.8125L24.6687 27.825L24.6562 27.7625L24.5125 27.7813C24.5125 27.7563 24.5187 27.7313 24.525 27.7063C24.5062 27.675 24.4062 27.7188 24.4 27.7L24.3687 27.6563C24.275 27.7125 24.3937 27.575 24.3187 27.6438C24.3187 27.6438 24.3062 27.6 24.1625 27.625L24.1437 27.5875C24.1437 27.5875 24.425 27.75 24.1125 27.4C23.925 27.1938 23.7125 27.0188 23.4687 26.8813C23.2187 26.6563 22.9875 26.4 22.7937 26.125C22.6312 25.8875 22.4312 25.675 22.1937 25.5125L21.2562 24.625C21.1687 24.5625 21.0812 24.5 21 24.4438L21.05 24.3938L21.0437 24.3688L20.9375 24.225L20.8 24.0813L20.8562 24.0313C20.7625 24 20.6875 23.9 20.7187 23.8563C20.75 23.8125 20.6187 23.6813 20.5812 23.6375C20.55 23.5938 20.4937 23.4813 20.4187 23.3938C20.4 23.3688 20.375 23.3438 20.3562 23.3188C20.3187 23.2813 20.2812 23.25 20.2375 23.2188C20.175 23.175 20.1562 23.1188 20.0875 23.0688C20.0375 23.0375 19.9937 22.9938 19.9562 22.95C19.9062 22.8813 19.85 22.825 19.7875 22.775C19.7312 22.75 19.8187 22.85 19.7312 22.825C19.6437 22.8063 19.6437 22.8063 19.6125 22.7563C19.5812 22.7063 19.6562 22.7125 19.6562 22.7125C19.6562 22.7125 19.6312 22.6813 19.5937 22.625L19.4875 22.5688C19.4187 22.5313 19.35 22.4813 19.2875 22.4313C19.2125 22.3688 19.1312 22.3188 19.0437 22.2688C18.9875 22.2438 18.9375 22.2188 18.8875 22.2C18.7437 21.9938 18.5812 21.775 18.4062 21.5563L18.35 21.6125L17.925 21.0938L17.8812 21.0313C17.6937 20.9313 17.5125 20.8125 17.3562 20.6688C17.3562 20.6688 17.475 20.7375 17.475 20.6875L17.35 20.6C17.2812 20.5625 17.2562 20.5438 17.2812 20.525L17.3 20.5063L17.2125 20.45C17.1625 20.4375 17.1125 20.4188 17.0687 20.3938L16.9437 20.2938L16.6812 20.0938C16.6687 20.0625 16.65 20.0313 16.6312 20C16.6187 19.9688 16.5812 19.95 16.55 19.9625C16.5437 19.9625 16.5437 19.9688 16.5375 19.9688L16.6125 20.0938C16.4937 19.9875 16.3687 19.8688 16.25 19.75L16.2437 19.6438C16.2437 19.6438 16.3062 19.6438 16.275 19.6125C16.2437 19.5688 16.1937 19.5375 16.1375 19.525L16.1187 19.5438L16.0687 19.5625C15.9812 19.4688 15.9 19.375 15.8187 19.2813V19.2L15.775 19.1L15.675 18.9625C15.6625 18.9313 15.6562 18.8938 15.6625 18.8563C15.625 18.8063 15.5937 18.7688 15.5625 18.7375L15.4937 18.6813C15.4875 18.6688 15.4812 18.6563 15.475 18.6438C15.4687 18.6313 15.4562 18.6125 15.4437 18.5875C15.4125 18.5375 15.3812 18.5438 15.3625 18.5563H15.3562L15.4312 18.6813C15.3125 18.575 15.175 18.5625 15.0562 18.45L15.05 18.3813V18.3438C15.05 18.3438 15.1125 18.3438 15.0875 18.3125C15.0562 18.2688 15.0062 18.2375 14.95 18.225L14.9312 18.2438L14.9125 18.25L14.8812 18.2625C14.8062 18.1813 14.7062 18.1563 14.6375 18.075C14.625 18.0625 14.6125 18.05 14.6 18.0313L14.4312 18L14.3875 17.9L14.1875 17.8625C14.175 17.8313 14.1687 17.7938 14.175 17.7563C14.1312 17.6938 14.0125 17.725 13.9875 17.6875L13.925 17.6063C13.8187 17.6438 13.925 17.5 13.8437 17.5625C13.8437 17.5625 13.8187 17.4813 13.5875 17.4563C13.3562 17.4313 13.3375 17.4563 13.3375 17.4563C13.2937 17.4563 13.25 17.4625 13.2125 17.4813C13.1562 17.5063 13.125 17.5688 13.1437 17.6313C13.0875 17.65 13.0437 17.7188 13.025 17.6438C12.7812 17.7375 12.5375 17.8188 12.2812 17.8875L12 17.925C11.825 17.9563 11.6562 17.9875 11.475 18.0063L11.3875 18.0125C11.1375 18.0938 10.8687 18.1125 10.6062 18.0688C10.6062 18.0688 10.975 17.9375 10.4062 17.9813C10.0625 18.0063 9.72499 18.0563 9.38749 18.1313C9.38749 18.1313 9.21249 18.1438 8.96249 18.1313C8.83749 18.1313 8.69374 18.1188 8.54374 18.1C8.41249 18.0938 8.28749 18.0625 8.16249 18.0188C7.91874 17.925 7.66874 17.8375 7.41874 17.7688C6.96874 17.5625 6.54374 17.3 6.14999 16.9875L5.82499 16.7813L5.87499 16.725L5.83124 16.7063L5.68749 16.5438L5.51249 16.3688L5.56874 16.3188C5.44999 16.2625 5.35624 16.1375 5.38749 16.1C5.41874 16.0563 5.25624 15.8813 5.21249 15.825C5.16874 15.7688 5.09999 15.6313 5.01874 15.5125L4.94999 15.4188C4.89999 15.3625 4.86249 15.3313 4.81249 15.2813C4.74374 15.2125 4.71874 15.15 4.64999 15.075C4.59374 15.025 4.54999 14.9688 4.51249 14.9125C4.46249 14.825 4.40624 14.7438 4.33749 14.675C4.28124 14.6313 4.36874 14.7688 4.27499 14.7188C4.18124 14.6688 4.18124 14.6688 4.15624 14.6063C4.13124 14.5438 4.20624 14.5688 4.20624 14.5688L4.14374 14.45L4.03749 14.3563C3.96874 14.2875 3.90624 14.2188 3.84999 14.1375C3.76874 14.0188 3.68124 13.925 3.63124 13.8625L3.48749 13.725C3.38749 13.4313 3.31249 13.1375 3.24999 12.8375L3.17499 12.8625C3.11874 12.625 3.08124 12.3813 3.05624 12.1375C3.05624 12.1125 3.05624 12.0813 3.05624 12.0563C2.95624 11.8188 2.88749 11.5625 2.86249 11.3063C2.86249 11.3063 2.91249 11.475 2.94374 11.425V11.4188L2.89999 11.225C2.86874 11.1313 2.86874 11.0938 2.89999 11.0938H2.92499L2.88749 10.9688C2.85624 10.9125 2.83749 10.85 2.81874 10.7875L2.79374 10.5813L2.74374 10.1625L2.77499 10.025C2.79374 9.93126 2.73124 9.91876 2.73124 9.91876L2.69374 10.1C2.69374 9.89376 2.68749 9.67501 2.70624 9.45626L2.78124 9.35626C2.78124 9.35626 2.82499 9.41876 2.83124 9.35626C2.84374 9.28751 2.83749 9.21876 2.81249 9.15626H2.78749L2.73749 9.12501L2.81874 8.66251L2.88749 8.60001L2.94374 8.48126L2.99999 8.28126C3.01874 8.24376 3.04999 8.21876 3.08124 8.19376L3.13749 8.01876L3.14999 7.91251L3.17499 7.87501L3.21249 7.80626C3.24374 7.75001 3.21874 7.71876 3.21249 7.70626L3.20624 7.70001L3.12499 7.85001C3.16874 7.66251 3.10624 7.52501 3.17499 7.33126L3.23749 7.28751L3.26874 7.26251C3.26874 7.26251 3.29374 7.33126 3.31249 7.28126C3.34374 7.22501 3.34999 7.16251 3.34374 7.10001L3.31874 7.09376L3.30624 7.07501L3.28749 7.05001C3.31874 6.98126 3.34374 6.90626 3.35624 6.83126C3.47499 6.61251 3.59999 6.39376 3.73124 6.19376L3.85624 5.93126C4.02499 5.61251 4.26249 5.66251 4.26249 5.66251L4.34999 5.46251L4.48124 5.31251C4.48124 5.31251 4.46249 5.42501 4.53124 5.35001C4.59999 5.27501 4.59999 5.28126 4.64999 5.13126C4.69374 4.98751 4.54374 5.18126 4.58749 5.08751C4.67499 4.96251 4.77499 4.84376 4.88749 4.73751C4.96874 4.66251 5.03749 4.58126 5.11249 4.49376C5.21249 4.37501 5.29999 4.32501 5.39999 4.22501C5.46249 4.15626 5.53124 4.08751 5.60624 4.02501L5.74999 3.91876C5.89999 3.82501 6.05624 3.74376 6.21249 3.67501C6.29999 3.63126 6.59374 3.46251 6.63124 3.51251C6.66874 3.56251 6.86249 3.47501 6.98749 3.37501L7.01249 3.44376C7.11249 3.40001 7.21874 3.36251 7.32499 3.32501C7.42499 3.30001 7.50624 3.28126 7.61249 3.26251H7.65624L7.67499 3.33751L7.96249 3.31251L8.08749 3.26251C8.23124 3.26876 8.38124 3.28751 8.52499 3.31251L8.58749 3.38126C8.86249 3.25001 9.14999 3.14376 9.44999 3.05626C9.56874 3.02501 9.78124 2.97501 10.0125 2.93751L10.1625 2.91251L10.45 2.86251L10.6437 2.81876C10.6937 2.81876 10.7375 2.82501 10.7875 2.83751C10.7875 2.83751 10.7562 2.86876 10.7687 2.88751C10.775 2.89376 10.7812 2.90001 10.7875 2.90001C10.8125 2.90626 10.8375 2.91251 10.8562 2.90626C10.9062 2.90626 10.9562 2.89376 11.0062 2.88751C11.1625 2.86251 10.9 2.81876 11.0125 2.81251C11.175 2.81876 11.3375 2.83751 11.4937 2.87501C11.6062 2.90001 11.7187 2.91876 11.8312 2.92501C11.9937 2.94376 12.0937 2.98751 12.2375 3.01251L12.5312 3.06251C12.5937 3.07501 12.65 3.10001 12.7125 3.11876C12.8562 3.16876 13 3.23126 13.1375 3.30001L13.2125 3.33751C13.35 3.38751 13.475 3.45001 13.6 3.52501L13.8125 3.56876C13.9812 3.61251 14.1437 3.67501 14.3062 3.75001L14.6937 3.93126L14.8875 4.01251L15.0312 4.13751C15.0312 4.13751 14.925 4.11876 14.9937 4.18751C15.0625 4.25626 15.0625 4.25626 15.2 4.30626C15.3375 4.35626 15.1562 4.20001 15.25 4.25001L15.2875 4.27501C15.3875 4.36251 15.4875 4.45001 15.5812 4.55001C15.6687 4.63751 15.7 4.66876 15.8062 4.76876C15.9 4.86251 15.9812 4.95626 16.0562 5.06251L16.2437 5.27501L16.2625 5.29376L16.2875 5.33126C16.375 5.45001 16.4687 5.56876 16.5625 5.67501L16.7 5.84376L16.7812 6.02501C16.7812 6.02501 16.6875 5.96251 16.725 6.05626C16.7625 6.15001 16.7687 6.14376 16.8687 6.25626C16.9687 6.36876 16.8687 6.13126 16.9375 6.22501C17.0125 6.36251 17.0812 6.50626 17.1312 6.65626C17.1687 6.76876 17.2062 6.87501 17.2625 6.97501C17.3312 7.12501 17.35 7.23126 17.4 7.36251C17.4375 7.46876 17.4687 7.53751 17.5 7.65626L17.5437 7.85001C17.5875 8.08751 17.6062 8.34376 17.625 8.43751C17.6375 8.53126 17.7187 8.93126 17.6687 8.95626C17.6187 8.98126 17.65 9.22501 17.7187 9.40001L17.6437 9.41251L17.6937 9.79376L17.7 10.1125L17.6937 10.15H17.6125C17.6062 10.2188 17.5937 10.2938 17.575 10.3625L17.5875 10.4813C17.5437 10.5938 17.4937 10.7063 17.4375 10.8063C17.4375 10.9375 17.475 10.875 17.5 11.0125C17.525 11.1375 17.5812 11.25 17.65 11.3563C17.65 11.3563 17.5937 11.4938 17.475 11.8625C17.3562 12.2313 17.475 11.8625 17.375 12.3125C17.25 12.7688 17.3875 12.6875 17.1812 13.05C17.0625 13.2313 16.9687 13.4313 16.9062 13.6375C16.9062 13.6813 16.9 13.725 16.8937 13.7688C16.8812 13.7813 16.8625 13.8063 16.8562 13.8125C16.825 13.8438 16.575 13.9813 16.6 14.0625C16.6125 14.1125 16.6437 14.1563 16.6937 14.1813C16.6937 14.1813 16.525 14.3 16.5625 14.3938C16.575 14.425 16.5812 14.4563 16.5937 14.4938C16.65 14.6188 16.7187 14.7375 16.8062 14.8438C16.8312 14.8563 16.8562 14.8688 16.875 14.8813C16.9562 14.9313 16.8187 15.1 16.8187 15.1L16.8875 15.1125C16.9 15.125 16.9062 15.1438 16.9125 15.1563C16.9125 15.1563 16.8562 15.175 16.8687 15.2C16.8812 15.225 16.8812 15.225 16.9375 15.2188C17 15.2125 16.9562 15.1625 16.9875 15.1625C17.0187 15.1688 17.0562 15.2188 17.075 15.25C17.0937 15.2813 17.1062 15.2813 17.1437 15.3063C17.1812 15.3313 17.1875 15.3625 17.2187 15.3813C17.2437 15.3938 17.2687 15.4063 17.2875 15.425C17.3 15.4375 17.3125 15.45 17.3187 15.4625C17.3437 15.5125 17.3625 15.5563 17.3812 15.6063C17.3937 15.6313 17.4625 15.7 17.4312 15.7375C17.4 15.775 17.4312 15.8313 17.4937 15.8313L17.4437 15.8875L17.5125 15.9563L17.5562 16.0313V16.0438L17.5 16.0938L17.525 16.175L17.5625 16.1813C17.5625 16.2375 17.5562 16.2875 17.55 16.3438L17.5062 16.4063C17.6062 16.4 17.7062 16.4 17.8062 16.4188C17.8562 16.4313 17.9062 16.4563 17.95 16.4813L17.9875 16.5C18.0125 16.5125 18.0375 16.525 18.0687 16.5313L18.1375 16.5438C18.15 16.5563 18.1562 16.575 18.1687 16.5875C18.1687 16.5875 18.1375 16.6 18.125 16.6188V16.6313C18.125 16.6438 18.1312 16.65 18.1437 16.6563H18.2C18.2625 16.65 18.2187 16.6 18.25 16.6063C18.2812 16.6125 18.3187 16.6625 18.3375 16.6938C18.3562 16.725 18.3687 16.725 18.4062 16.75C18.4437 16.775 18.45 16.8063 18.4812 16.825C18.5062 16.8375 18.525 16.85 18.55 16.8688C18.5562 16.8813 18.5687 16.8938 18.5812 16.9063C18.6 16.9438 18.6187 16.9875 18.6312 17.0313L18.6375 17.05C18.65 17.0688 18.6937 17.1188 18.6937 17.1563C18.7187 17.1563 18.7437 17.1563 18.7687 17.1625C18.8187 17.175 18.8625 17.2 18.9125 17.225C18.95 17.25 18.9875 17.2688 19.0312 17.275L19.1 17.2875C19.1187 17.3188 19.125 17.3375 19.125 17.3375C19.125 17.3375 19.0687 17.3563 19.0812 17.3813C19.0937 17.4063 19.0875 17.4063 19.15 17.4C19.2125 17.3938 19.1687 17.3438 19.2062 17.35H19.2187C19.25 17.3688 19.275 17.4 19.2937 17.4313C19.3125 17.4563 19.325 17.4625 19.3625 17.4875C19.4 17.5125 19.4062 17.5438 19.4375 17.5625C19.4625 17.575 19.4812 17.5875 19.5062 17.6063L19.5187 17.6125C19.5562 17.6375 19.5937 17.6563 19.6375 17.6625L19.7062 17.675C19.7187 17.6875 19.725 17.7063 19.7375 17.725C19.7375 17.725 19.6812 17.7438 19.6937 17.7688C19.7062 17.7938 19.7 17.7938 19.7625 17.7875C19.825 17.7813 19.7812 17.725 19.8187 17.7313C19.85 17.7375 19.8875 17.7875 19.9062 17.8188C19.925 17.85 19.9375 17.85 19.975 17.875C20.0125 17.9 20.0187 17.9313 20.05 17.95C20.075 17.9625 20.0937 17.975 20.1187 17.9938L20.15 18.0313C20.1812 18.0813 20.2 18.15 20.2125 18.175C20.225 18.2 20.2937 18.2688 20.2625 18.3063C20.2312 18.3438 20.2625 18.4 20.325 18.4L20.2687 18.4563L20.3375 18.525L20.3812 18.6063V18.6188L20.325 18.6875L20.35 18.7688L20.3875 18.775C20.3875 18.825 20.3812 18.8813 20.375 18.9313C20.4125 18.95 20.4187 18.9125 20.4812 18.9063C20.5437 18.8938 20.6062 18.8688 20.6625 18.8313C20.6625 18.8875 20.6625 18.9313 20.6937 18.95C20.7437 18.9813 20.8062 18.9875 20.8625 18.9688H20.8687C20.8687 18.975 20.8187 19.1688 20.925 19.2125L21.0375 19.2625C21.1875 19.3188 21.3437 19.3688 21.5062 19.4L21.6 19.3813C21.7187 19.3688 21.7187 19.5875 21.7187 19.5875L21.7875 19.5563L21.85 19.575C21.85 19.575 21.8125 19.6188 21.8437 19.6375C21.875 19.65 21.875 19.6563 21.925 19.6125C21.975 19.5688 21.9 19.5563 21.9312 19.5375C21.9812 19.5313 22.0312 19.5375 22.075 19.5563C22.1062 19.5625 22.1437 19.5625 22.1812 19.5563C22.2312 19.5563 22.2625 19.575 22.3062 19.575H22.4L22.4562 19.5875C22.5125 19.6125 22.5625 19.6438 22.6187 19.675C22.65 19.6875 22.7625 19.7063 22.7562 19.7563C22.75 19.8063 22.8187 19.8375 22.8812 19.8063L22.8687 19.8813L22.9875 19.9063L23.0875 19.95L23.1 19.9625L23.0875 20.0375L23.1687 20.0938L23.2125 20.0813C23.25 20.125 23.2812 20.175 23.3062 20.225V20.3063C23.4 20.2438 23.5 20.2 23.6062 20.1688C23.6562 20.1563 23.7125 20.15 23.7687 20.15H23.8062C23.8312 20.1375 23.8375 20.125 23.8375 20.125L23.8625 20.0938L23.8687 20.1125L23.8437 20.1563V20.1688V20.175L23.8687 20.1438C23.9 20.1063 23.8875 20.0938 23.9 20.075C23.9187 20.0625 23.925 20.075 23.9312 20.0875C23.9375 20.1 23.9437 20.0875 23.9625 20.0875C23.9812 20.0875 23.975 20.1063 23.9875 20.1063H24.0187L24.025 20.1188C24.025 20.1375 24.0187 20.1625 24.0125 20.1813V20.1938V20.2188C24.0125 20.225 24.0062 20.2313 24 20.2375L24.05 20.225C24.075 20.225 24.0937 20.225 24.1125 20.2375C24.1312 20.25 24.1437 20.2563 24.1625 20.2625L24.2062 20.2688L24.2 20.2938C24.2 20.2938 24.15 20.2938 24.1375 20.3063C24.125 20.3188 24.125 20.3063 24.1812 20.325C24.2375 20.3625 24.225 20.275 24.2562 20.3125L24.2625 20.325C24.2812 20.3688 24.2937 20.4188 24.2937 20.4688C24.3 20.5063 24.3125 20.5438 24.3312 20.5813C24.3562 20.6313 24.3437 20.6688 24.3625 20.7188C24.375 20.75 24.3937 20.7813 24.4062 20.8125V20.8188L24.4125 20.8313C24.4312 20.8813 24.4562 20.9313 24.4937 20.975L24.55 21.0375V21.1063C24.55 21.1063 24.4937 21.0813 24.4875 21.1188C24.4812 21.1563 24.4875 21.1563 24.5437 21.1938C24.6 21.2313 24.5875 21.1438 24.6187 21.175C24.6437 21.225 24.6562 21.275 24.6562 21.3313C24.6625 21.3688 24.675 21.4063 24.6937 21.4375C24.7187 21.4875 24.7062 21.525 24.725 21.575C24.7437 21.6063 24.7562 21.6375 24.7687 21.6688L24.7812 21.7313C24.7812 21.8063 24.7687 21.8938 24.7687 21.9313C24.7687 21.9625 24.8 22.0875 24.75 22.1063C24.7 22.125 24.7 22.2063 24.7562 22.25L24.6812 22.2688L24.7125 22.3938V22.5125V22.5313L24.6375 22.55L24.6187 22.6563L24.65 22.6938C24.625 22.75 24.6 22.8 24.5687 22.8563C24.5937 22.9 24.6187 22.8688 24.675 22.9063C24.7437 22.9375 24.8187 22.9563 24.8937 22.9563L24.9062 22.9875C24.9062 23.0438 24.9125 23.0938 24.925 23.15C24.9562 23.2813 24.925 23.15 25.0125 23.2875C25.1 23.425 25.1812 23.3563 25.175 23.5C25.1625 23.5688 25.1875 23.6438 25.2312 23.7C25.275 23.7125 25.3125 23.7313 25.35 23.7563C25.3812 23.7813 25.4187 23.8 25.4562 23.8063C25.4937 23.8188 25.5375 23.825 25.575 23.8125H25.5812L25.6125 23.85C25.6937 23.85 25.7375 23.9063 25.85 24.0125C25.9562 24.1188 26.0625 24.2438 26.0625 24.2438C26.0625 24.2438 25.7 24.1063 26.175 24.45L26.3062 24.5438C26.5125 24.5688 26.725 24.575 26.9375 24.5688C26.9875 24.5688 27.0375 24.5625 27.0812 24.5438C27.2687 24.55 27.45 24.6063 27.6125 24.7C27.7562 24.7875 27.9187 24.8375 28.0875 24.8313L28.4812 24.9313L28.675 24.9813H28.725L28.7875 24.95L28.75 25.0125V25.0188V25.0438L28.7625 25.05L28.7125 25.1063C28.75 25.075 28.7437 25.0938 28.7062 25.1313C28.6687 25.1688 28.6687 25.175 28.6687 25.1813C28.6562 25.1938 28.6375 25.2063 28.6187 25.2188L28.6062 25.2313C28.6125 25.2313 28.625 25.2313 28.6187 25.2313L28.6937 25.2125H28.725L28.6625 25.225H28.65C28.6625 25.2188 28.675 25.2563 28.6937 25.275C28.7187 25.3188 28.7437 25.3688 28.7562 25.425C28.775 25.4875 28.8 25.55 28.8312 25.6063L28.9062 25.7C28.8812 25.8688 28.8625 26.0375 28.8437 26.225L28.925 26.2188L28.9 26.65L28.8937 26.7C28.9687 26.8188 29.0187 26.9563 29.05 27.0938C29.05 27.0938 29.0062 27.0125 28.975 27.0375L29.0125 27.1313C29.0375 27.1813 29.0437 27.1938 29.0125 27.2H29L29.025 27.2625C29.05 27.2875 29.075 27.3125 29.0937 27.35L29.1187 27.45L29.1812 27.6563C29.1687 27.675 29.1625 27.7 29.1562 27.725C29.1437 27.775 29.2062 27.775 29.2062 27.775L29.2312 27.6813C29.25 27.7875 29.2625 27.8938 29.2687 28L29.2 28.0563C29.2 28.0563 29.1562 28.0313 29.15 28.0563C29.1437 28.0938 29.1625 28.1313 29.1937 28.1563H29.2187L29.2687 28.1625L29.2625 28.4375Z" fill="#0041E6"/>
</g>
<defs>
<clipPath id="clip0_7664_50164">
<rect width="32" height="32" fill="white"/>
</clipPath>
</defs>
</svg>
