<svg width="32" height="32" viewBox="0 0 32 32" fill="none" xmlns="http://www.w3.org/2000/svg">
<g clip-path="url(#clip0_7664_50179)">
<path d="M31.9125 6.26875C31.8437 5.71875 31.7062 5.1875 31.5 4.675C31.4375 4.55 31.3625 4.425 31.2812 4.30625L31.3437 4.275V4.24375L31.2437 4.01875L31.1062 3.79375L31.1687 3.75625C31.0687 3.675 30.9937 3.53125 31.025 3.49375C31.0625 3.45625 30.9125 3.25 30.8812 3.19375C30.85 3.1375 30.7812 2.99375 30.7 2.86875L30.625 2.775C30.5812 2.73125 30.5375 2.6875 30.4875 2.64375C30.4187 2.58125 30.3875 2.51875 30.3125 2.45625C30.2562 2.4125 30.2062 2.36875 30.1625 2.3125C30.1062 2.2375 30.0375 2.16875 29.9625 2.1125C29.9062 2.08125 30.0062 2.19375 29.9125 2.16875C29.8187 2.14375 29.8187 2.14375 29.7812 2.09375C29.75 2.04375 29.825 2.05 29.825 2.05L29.7437 1.95625L29.625 1.89375C29.5437 1.85 29.4687 1.8 29.4 1.74375C29.3062 1.68125 29.2062 1.61875 29.1062 1.56875L28.9187 1.5C28.6875 1.2625 28.4375 1.05 28.1687 0.856247L28.1312 0.924997C27.8875 0.756247 27.6375 0.606247 27.3687 0.481247L27.2812 0.431247C27.0312 0.412497 26.4375 0.306247 26.4375 0.306247C26.4375 0.306247 26.6187 0.306247 26.575 0.268747H26.5625L26.3562 0.249997C26.2562 0.249997 26.2187 0.249997 26.2187 0.224997V0.199997H26.0812C26.0187 0.218747 25.9562 0.231247 25.8875 0.237497H25.6812C25.5375 0.243747 25.3937 0.256247 25.2562 0.268747C25.2125 0.256247 25.1687 0.243747 25.125 0.237497C25.025 0.224997 25.0187 0.287497 25.0187 0.287497L25.2 0.312497C24.9875 0.324997 24.775 0.349997 24.5562 0.381247L24.4437 0.331247C24.4437 0.331247 24.4937 0.281247 24.4375 0.287497C24.3687 0.287497 24.3 0.312497 24.2437 0.356247V0.374997L24.225 0.424997L23.75 0.518747L23.6625 0.487497L23.525 0.499997L23.3125 0.549997C23.2687 0.549997 23.2312 0.543747 23.1875 0.531247L23 0.593747L22.9 0.649997L22.85 0.656247L22.7687 0.674997C22.7 0.693747 22.6937 0.731247 22.6937 0.749997V0.762497L22.875 0.712497C22.6875 0.806247 22.625 0.937497 22.4437 1.0375L22.3562 1.03125H22.3187C22.3187 1.03125 22.3437 0.962497 22.2937 0.987497C22.2312 1.0125 22.1812 1.05625 22.1437 1.1125L22.1562 1.13125V1.15V1.18125C22.0437 1.24375 21.9812 1.35 21.8687 1.40625L21.8125 1.4375L21.7312 1.60625L21.6187 1.64375L21.5437 1.8375C21.5062 1.85 21.4687 1.85 21.4312 1.84375C21.3625 1.8875 21.3625 2.00625 21.325 2.03125L21.2312 2.09375C21.2562 2.20625 21.125 2.09375 21.175 2.175L21.1375 2.19375C20.9812 2.28125 20.8312 2.375 20.6875 2.4875C20.6687 2.5125 20.6562 2.54375 20.6312 2.575C20.5625 2.675 20.3875 2.54375 20.3875 2.54375L20.3562 2.625C20.3375 2.6375 20.3187 2.65 20.2937 2.6625C20.2937 2.6625 20.2875 2.6 20.25 2.61875C20.2187 2.6375 20.2187 2.6375 20.2125 2.7C20.2062 2.76875 20.275 2.7125 20.2625 2.75625C20.25 2.8 20.1812 2.84375 20.15 2.86875C20.1187 2.89375 20.0937 2.925 20.075 2.95625C20.0437 3 20.0062 3.0125 19.975 3.05625C19.9562 3.0875 19.9375 3.1125 19.9125 3.1375C19.8937 3.15 19.8812 3.16875 19.8625 3.18125C19.8 3.225 19.7125 3.25625 19.6875 3.275C19.6625 3.29375 19.5687 3.38125 19.525 3.35C19.4875 3.31875 19.4125 3.3625 19.4 3.4375L19.35 3.38125L19.2562 3.475L19.1562 3.54375H19.1375L19.0875 3.4875L18.9875 3.53125L18.9687 3.575C18.9062 3.58125 18.8437 3.5875 18.7875 3.58125L18.725 3.5375C18.7125 3.65625 18.6875 3.76875 18.65 3.88125C18.6187 3.94375 18.5875 4 18.55 4.05625C18.5375 4.075 18.5312 4.0875 18.5187 4.1C18.5 4.13125 18.4812 4.1625 18.4625 4.19375L18.4312 4.275C18.4125 4.2875 18.3937 4.3 18.3687 4.3125C18.3687 4.3125 18.3625 4.275 18.3437 4.26875C18.325 4.2625 18.3312 4.26875 18.325 4.26875C18.3187 4.26875 18.3 4.28125 18.2937 4.29375C18.2875 4.3125 18.2875 4.3375 18.2875 4.35625C18.2875 4.425 18.35 4.36875 18.3375 4.4125C18.325 4.45625 18.2562 4.5 18.225 4.525C18.1937 4.55 18.1687 4.58125 18.15 4.6125C18.1187 4.65625 18.0812 4.66875 18.05 4.7125C18.0312 4.74375 18.0125 4.76875 17.9875 4.79375L17.9375 4.8375C17.8875 4.86875 17.8375 4.89375 17.7875 4.9125L17.7625 4.925C17.7375 4.94375 17.6687 5 17.625 5.00625C17.6187 5.0375 17.6125 5.0625 17.6 5.09375C17.5687 5.15625 17.5375 5.2125 17.5 5.2625C17.4687 5.30625 17.4375 5.35 17.4187 5.4L17.3875 5.48125C17.35 5.50625 17.325 5.51875 17.325 5.51875C17.325 5.51875 17.3187 5.45625 17.2812 5.475C17.25 5.49375 17.25 5.4875 17.2437 5.5625C17.2375 5.63125 17.3062 5.575 17.2937 5.6125L17.2875 5.625C17.2562 5.6625 17.2187 5.7 17.1812 5.725C17.15 5.75 17.125 5.78125 17.1062 5.8125C17.075 5.85625 17.0312 5.86875 17.0062 5.9125C16.9875 5.94375 16.9687 5.96875 16.9437 5.99375L16.9375 6L16.9312 6.0125C16.9 6.05625 16.8687 6.1 16.85 6.15L16.8187 6.23125C16.8 6.24375 16.7812 6.25625 16.7562 6.26875C16.7562 6.26875 16.75 6.20625 16.7125 6.225C16.6812 6.24375 16.6812 6.24375 16.675 6.30625C16.6687 6.375 16.7375 6.31875 16.725 6.3625C16.7125 6.40625 16.6437 6.45 16.6125 6.475C16.5812 6.5 16.5562 6.53125 16.5375 6.5625C16.5062 6.60625 16.4625 6.61875 16.4375 6.6625C16.4187 6.69375 16.4 6.71875 16.375 6.74375C16.3562 6.75625 16.3437 6.775 16.325 6.7875C16.2625 6.83125 16.175 6.8625 16.15 6.88125C16.125 6.9 16.0312 6.9875 15.9875 6.95625C15.9437 6.925 15.8812 6.96875 15.8625 7.04375L15.8125 6.9875L15.7187 7.08125L15.6187 7.15H15.6L15.5437 7.09375L15.4437 7.1375L15.425 7.18125C15.3687 7.1875 15.3062 7.19375 15.25 7.1875C15.225 7.23125 15.2625 7.2375 15.2562 7.30625C15.2625 7.38125 15.2812 7.45625 15.3125 7.525C15.2812 7.50625 15.2562 7.4875 15.2312 7.46875L15.2187 7.525L15.1687 7.55625C15.1687 7.55625 15.15 7.50625 15.125 7.5125C15.1 7.51875 15.1 7.51875 15.1062 7.575C15.1125 7.63125 15.1625 7.59375 15.1562 7.625C15.15 7.65625 15.1062 7.68125 15.0812 7.69375C15.0562 7.70625 15.0562 7.71875 15.0312 7.75C15.0125 7.78125 14.9875 7.78125 14.9687 7.80625L14.9625 7.81875C14.9437 7.85 14.925 7.875 14.9062 7.90625L14.8625 7.95C14.8125 7.9875 14.7625 8.01875 14.7125 8.05C14.6937 8.06875 14.6312 8.14375 14.5937 8.11875C14.5562 8.09375 14.5062 8.13125 14.5125 8.1875L14.45 8.14375L14.4 8.21875L14.3375 8.275H14.325L14.2625 8.23125L14.1937 8.26875V8.30625C14.1437 8.3125 14.0937 8.31875 14.0437 8.31875L13.975 8.2875C14.0062 8.375 14.0312 8.4625 14.0375 8.55625C14.0375 8.6 14.0312 8.64375 14.0187 8.6875L14.0125 8.71875C14.0062 8.74375 14.0062 8.76875 14.0125 8.79375L14.0187 8.85625L13.9875 8.8875C13.9875 8.8875 13.9687 8.85625 13.95 8.85625H13.9312C13.9187 8.8625 13.9125 8.86875 13.9125 8.875C13.9187 8.89375 13.925 8.90625 13.9312 8.91875C13.9562 8.96875 13.9875 8.925 13.9937 8.95625C14 8.9875 13.9625 9.025 13.9437 9.04375C13.925 9.0625 13.925 9.075 13.9187 9.1125C13.9125 9.15 13.8812 9.15625 13.875 9.19375C13.875 9.21875 13.8687 9.2375 13.8562 9.25625L13.8312 9.29375C13.8 9.31875 13.7687 9.34375 13.7375 9.3625L13.75 9.375C13.7375 9.3875 13.7062 9.44375 13.6687 9.45L13.6812 9.51875C13.6812 9.575 13.675 9.625 13.6625 9.675C13.65 9.725 13.6437 9.78125 13.6437 9.83125V9.9125L13.6062 9.975C13.6062 9.975 13.5687 9.925 13.55 9.95625C13.525 9.9875 13.5312 9.9875 13.5562 10.05C13.5875 10.1125 13.6187 10.0312 13.625 10.0687V10.0812C13.6187 10.1312 13.6062 10.175 13.5812 10.2187C13.5687 10.2562 13.5625 10.2937 13.5687 10.3312C13.5687 10.3812 13.5437 10.4125 13.5437 10.4625V10.5562V10.5625V10.5812C13.5437 10.6312 13.5562 10.6812 13.575 10.725L13.6062 10.7937L13.5875 10.8562C13.5875 10.8562 13.5375 10.825 13.525 10.8562C13.5125 10.8875 13.5125 10.8875 13.5562 10.9312C13.6 10.975 13.6125 10.9 13.6312 10.9312C13.6437 10.975 13.6437 11.025 13.6312 11.0687C13.625 11.1 13.6312 11.1375 13.6437 11.1687C13.6562 11.2125 13.6437 11.2437 13.6562 11.2812C13.6687 11.3062 13.675 11.3375 13.6812 11.3625V11.4187C13.6812 11.4812 13.6562 11.5562 13.6562 11.5812C13.6562 11.6062 13.6812 11.7125 13.6312 11.7312C13.5812 11.75 13.5875 11.8187 13.6437 11.8562L13.575 11.875L13.6125 11.9812L13.625 12.0875V12.1L13.5625 12.125V12.225L13.6 12.2562L13.5437 12.4125C13.5812 12.45 13.5937 12.4125 13.6562 12.4375C13.7312 12.4562 13.8125 12.4562 13.8875 12.4375C13.8875 12.4937 13.9062 12.55 13.9437 12.6C14.0062 12.7 13.9437 12.6 14.0562 12.6875C14.1687 12.775 14.2312 12.6875 14.2687 12.8C14.2812 12.8625 14.3312 12.9125 14.3937 12.9312C14.4312 12.925 14.4687 12.925 14.5062 12.925C14.5437 12.9312 14.5812 12.925 14.6187 12.9125C14.6187 12.9125 14.6625 12.9312 14.7625 12.825C14.8562 12.7187 14.775 12.8937 14.825 12.825C14.9937 12.7 15.1437 12.5437 15.2687 12.3687C15.375 12.2437 15.3187 12.2562 15.4562 12.1437C15.525 12.0812 15.4125 12.2062 15.6625 11.9812C15.7125 11.9437 15.7562 11.8937 15.7875 11.8375C15.8 11.8 15.8187 11.7687 15.8437 11.7312C15.8937 11.675 15.8125 11.7312 15.8875 11.6687L15.8937 11.5375L15.925 11.475L15.9437 11.3937V11.3812C15.8625 11.4 15.9687 11.275 15.9687 11.275C15.9687 11.275 16.0625 11.275 16.0562 11.2187C16.0562 11.1625 15.9312 11.1562 15.9312 11.1562C15.9 11.1187 15.9062 11.0625 15.9437 11.0312C15.9437 11.0312 15.95 11.025 15.9562 11.025C16.0375 10.9625 15.95 10.9312 15.95 10.9312C15.9375 10.8937 15.925 10.85 15.9125 10.8125L15.8625 10.775L15.9312 10.7937H15.9375H15.9625V10.7812L16.0312 10.8062C15.9937 10.7875 16.0125 10.7875 16.0562 10.8062C16.1 10.825 16.1 10.825 16.1125 10.825C16.1187 10.825 16.1625 10.825 16.1812 10.8062L16.1937 10.7875C16.1937 10.775 16.1937 10.7625 16.1937 10.75C16.1937 10.7312 16.2187 10.725 16.2187 10.7C16.2187 10.675 16.2187 10.6687 16.2312 10.6562C16.2437 10.6437 16.275 10.625 16.2625 10.6C16.25 10.575 16.2312 10.6 16.2 10.5625C16.1687 10.525 16.1687 10.5187 16.1875 10.5125C16.2062 10.5062 16.2437 10.5437 16.2437 10.5437L16.2687 10.525L16.25 10.4812C16.2437 10.4562 16.2437 10.425 16.25 10.4C16.25 10.3687 16.25 10.3312 16.2437 10.3L16.2125 10.2312C16.2875 10.1875 16.3562 10.1437 16.4187 10.0875L16.35 10.05L16.5 9.925L16.5187 9.9125C16.4937 9.84375 16.4937 9.775 16.5125 9.70625C16.5125 9.70625 16.525 9.75625 16.5562 9.7625V9.7125C16.55 9.68125 16.55 9.675 16.5687 9.69375L16.5875 9.70625V9.6875C16.575 9.66875 16.5625 9.64375 16.5562 9.625L16.5625 9.58125V9.49375H16.6C16.625 9.49375 16.575 9.45625 16.575 9.45625H16.5312C16.5312 9.45 16.5375 9.4375 16.5437 9.43125L16.5625 9.425L16.5937 9.40625L16.6187 9.425L16.6562 9.45625C16.6687 9.45625 16.6375 9.425 16.6375 9.425L16.6187 9.40625L16.6062 9.39375L16.6875 9.34375L16.7062 9.35H16.75L16.8 9.33125C16.8187 9.3375 16.8437 9.35 16.8625 9.3625L16.9062 9.34375L16.9125 9.31875H16.9312H16.9562C16.975 9.31875 16.9562 9.29375 16.95 9.28125L16.9437 9.275H16.8937C16.9125 9.24375 16.9 9.2 16.9062 9.1625L16.9437 9.14375L16.9562 9.15L16.975 9.1625C16.975 9.1625 16.9937 9.20625 17.0062 9.19375C17.0187 9.1875 17.0187 9.1375 17.0187 9.1375L17 9.11875C17.0625 9.09375 17.1125 9.08125 17.1125 9.08125C17.1125 9.08125 17.05 9.2625 17.25 9.1C17.3687 9 17.4562 8.86875 17.5062 8.71875C17.625 8.575 17.775 8.4625 17.9375 8.375C18.0875 8.30625 18.2062 8.19375 18.2812 8.05L18.7562 7.53125C18.7875 7.475 18.8125 7.425 18.8375 7.375L18.8875 7.425H18.9L18.9812 7.375L19.0562 7.3L19.1062 7.35625C19.1062 7.2875 19.1687 7.25625 19.2062 7.2875C19.2437 7.31875 19.3187 7.25 19.3437 7.23125C19.3687 7.21875 19.4437 7.2 19.4937 7.1625C19.5062 7.15 19.5187 7.1375 19.5375 7.13125C19.5562 7.10625 19.5687 7.0875 19.5875 7.0625C19.6125 7.025 19.6437 7.01875 19.6687 6.98125C19.6812 6.95 19.7062 6.925 19.7312 6.90625C19.7625 6.8875 19.8187 6.85 19.825 6.8125C19.8312 6.775 19.775 6.81875 19.775 6.75625C19.7687 6.69375 19.775 6.69375 19.8 6.68125C19.825 6.66875 19.8437 6.725 19.8437 6.725C19.8625 6.71875 19.8812 6.70625 19.8937 6.69375L19.9125 6.625C19.925 6.58125 19.95 6.54375 19.975 6.50625C20.0062 6.45625 20.0312 6.4125 20.05 6.35625C20.0562 6.325 20.0625 6.2875 20.0687 6.25C20.2 6.18125 20.3312 6.10625 20.4562 6.025L20.4 5.96875L20.7062 5.7625L20.7437 5.74375C20.775 5.625 20.8312 5.51875 20.9062 5.425C20.9062 5.425 20.8812 5.5 20.9187 5.50625L20.9562 5.43125C20.9687 5.3875 20.975 5.375 20.9937 5.39375L21.0125 5.4125L21.0375 5.35625C21.0375 5.325 21.0375 5.29375 21.05 5.2625L21.1 5.19375L21.1937 5.0375C21.2125 5.0375 21.2375 5.0375 21.2562 5.03125C21.2937 5.0125 21.2562 4.96875 21.2562 4.96875L21.1812 5C21.2375 4.93125 21.3 4.8625 21.3625 4.8L21.4437 4.81875C21.4437 4.81875 21.4562 4.86875 21.475 4.85C21.5062 4.83125 21.525 4.79375 21.5187 4.7625L21.5 4.74375L21.475 4.7C21.525 4.65625 21.5812 4.6125 21.6375 4.575L21.6937 4.5875L21.7562 4.575L21.8375 4.53125C21.8625 4.53125 21.8875 4.5375 21.9125 4.54375C21.9437 4.525 21.9625 4.5125 21.9812 4.5L22.0062 4.45625H22.0312C22.0437 4.45625 22.0562 4.45 22.0687 4.44375C22.1 4.43125 22.0875 4.40625 22.075 4.3875L22.0687 4.38125L21.9937 4.4125C22.05 4.34375 22.025 4.24375 22.0937 4.1875L22.1437 4.2H22.1687C22.1687 4.2 22.1812 4.25 22.2 4.23125C22.225 4.2125 22.2437 4.18125 22.2375 4.15L22.225 4.13125L22.2125 4.1125L22.1937 4.08125C22.2375 4.04375 22.2375 3.96875 22.2875 3.9375L22.3125 3.91875V3.8L22.375 3.7875L22.3625 3.64375C22.3875 3.64375 22.4125 3.65 22.4375 3.65625C22.475 3.6375 22.4312 3.54375 22.45 3.525L22.5 3.49375L22.5312 3.475L23.3062 3.0625L23.4312 2.9625C23.5875 2.85 23.725 3.025 23.725 3.025L23.8125 2.94375L23.9125 2.9125C23.9125 2.9125 23.8875 2.98125 23.9375 2.96875C23.9875 2.9625 23.9875 2.9625 24.0375 2.8875C24.0875 2.81875 23.9687 2.85625 24.0125 2.81875C24.0812 2.775 24.1562 2.75 24.2312 2.74375C24.2812 2.73125 24.3375 2.7125 24.3812 2.6875C24.4562 2.65625 24.5062 2.66875 24.575 2.6375C24.625 2.61875 24.6625 2.60625 24.7125 2.59375L24.8062 2.5875C24.9 2.59375 24.9875 2.6 25.075 2.61875C25.125 2.61875 25.3 2.61875 25.3 2.66875C25.3 2.71875 25.4125 2.7375 25.4937 2.7V2.775L25.6625 2.79375C25.7125 2.80625 25.7562 2.81875 25.8062 2.8375L25.825 2.85L25.8125 2.91875L25.925 2.9875L25.9687 2.98125C26.0187 3.03125 26.0562 3.0875 26.0937 3.14375V3.21875C26.225 3.175 26.3562 3.1625 26.4937 3.175C26.5812 3.1875 26.6625 3.2125 26.7437 3.25L26.8125 3.28125L26.9562 3.3375L27.0687 3.36875L27.15 3.44375C27.15 3.44375 27.1062 3.45 27.1062 3.475C27.1062 3.48125 27.1062 3.4875 27.1125 3.49375C27.125 3.5125 27.1375 3.525 27.1562 3.53125C27.1812 3.5375 27.2125 3.54375 27.2375 3.54375C27.325 3.55625 27.225 3.46875 27.2812 3.4875C27.3562 3.53125 27.425 3.58125 27.4812 3.64375C27.525 3.6875 27.575 3.725 27.6312 3.75625C27.7062 3.80625 27.7375 3.8625 27.8062 3.9125C27.8562 3.95 27.8937 3.96875 27.9437 4.01875L28.0187 4.1C28.075 4.175 28.125 4.25 28.175 4.325L28.2 4.3625C28.2562 4.425 28.3 4.4875 28.3375 4.5625L28.45 4.61875C28.5312 4.675 28.6062 4.7375 28.675 4.80625C28.725 4.8625 28.7812 4.9125 28.8437 4.9625L28.9312 5.03125L28.9687 5.11875C28.9687 5.11875 28.9 5.10625 28.9187 5.15C28.9312 5.19375 28.9312 5.19375 29.0062 5.23125C29.0812 5.26875 29.0312 5.1625 29.0687 5.19375L29.0812 5.20625C29.1187 5.2625 29.1437 5.31875 29.1625 5.38125C29.1812 5.43125 29.2062 5.475 29.2312 5.51875C29.2687 5.5875 29.2625 5.63125 29.2937 5.7C29.3187 5.74375 29.3375 5.7875 29.35 5.8375V5.85L29.3562 5.875C29.3812 5.95 29.4125 6.025 29.45 6.09375L29.5062 6.20625V6.31875C29.5062 6.31875 29.45 6.26875 29.4437 6.325C29.4375 6.38125 29.4375 6.38125 29.4937 6.45C29.55 6.525 29.5375 6.3875 29.5687 6.44375C29.5937 6.525 29.6 6.6125 29.5937 6.7C29.5937 6.7625 29.6 6.825 29.6125 6.88125C29.6312 6.96875 29.6062 7.025 29.6125 7.1C29.6187 7.15625 29.625 7.20625 29.6312 7.2625L29.6187 7.3625C29.6 7.4625 29.5687 7.55625 29.5375 7.65625C29.525 7.7125 29.5 7.9 29.4437 7.9C29.3875 7.9 29.35 8.0125 29.375 8.1125L29.3062 8.09375L29.2562 8.28125C29.2375 8.3375 29.2125 8.3875 29.1875 8.4375L29.175 8.45625L29.1 8.43125L29.0187 8.55625V8.61875C28.9625 8.6625 28.9062 8.70625 28.8437 8.74375C28.8312 8.8125 28.875 8.79375 28.8875 8.875C28.9062 8.9625 28.95 9.04375 29 9.1125C28.9375 9.18125 28.8812 9.25625 28.8375 9.3375C28.7312 9.5 28.8375 9.3375 28.7562 9.55625C28.675 9.775 28.7687 9.775 28.6125 9.9125C28.525 9.96875 28.45 10.05 28.4062 10.1375C28.4 10.175 28.3937 10.2062 28.3875 10.2437L28.3625 10.2625C28.35 10.2875 28.3312 10.3187 28.3125 10.3437C28.2437 10.4437 28.075 10.3062 28.075 10.3062L28.05 10.3812C28.0312 10.3937 28.0125 10.4062 27.9937 10.4187C27.9937 10.4187 27.9875 10.3625 27.95 10.375C27.9187 10.3875 27.9187 10.3875 27.9187 10.4562C27.9187 10.525 27.9812 10.4687 27.9687 10.5125C27.9562 10.5562 27.8937 10.5937 27.8562 10.6187C27.8187 10.6437 27.8125 10.6562 27.7875 10.7C27.7562 10.7437 27.7187 10.75 27.6875 10.7937C27.6687 10.825 27.65 10.85 27.6312 10.875L27.5875 10.9125C27.525 10.95 27.4437 10.9812 27.4187 10.9937C27.3937 11.0125 27.3062 11.0937 27.2625 11.0625C27.225 11.0312 27.1562 11.0687 27.15 11.1437L27.1 11.0937L27.0125 11.1812L26.9187 11.2437H26.9L26.85 11.1937L26.7562 11.2312L26.7375 11.275C26.6812 11.2812 26.6187 11.2812 26.5625 11.275L26.5 11.2312C26.4937 11.3437 26.4687 11.4562 26.4312 11.5625C26.4062 11.6187 26.375 11.675 26.3375 11.725C26.325 11.7375 26.3187 11.7562 26.3062 11.7687C26.2875 11.8 26.2687 11.825 26.2562 11.8625L26.2312 11.9375C26.2125 11.95 26.1937 11.9625 26.175 11.975C26.175 11.975 26.1687 11.9375 26.15 11.9312C26.1437 11.9312 26.1375 11.9312 26.1375 11.9312C26.1187 11.9375 26.1125 11.9437 26.1062 11.95V12.0062C26.1062 12.075 26.1687 12.0187 26.1562 12.0625C26.1437 12.1062 26.0812 12.1437 26.0437 12.1687C26.0125 12.1937 25.9875 12.2187 25.975 12.25C25.9437 12.2937 25.9062 12.3 25.8812 12.3437C25.8625 12.3687 25.8437 12.4 25.825 12.425L25.775 12.4625C25.7312 12.4875 25.6812 12.5125 25.6312 12.5312L25.6062 12.5437C25.5812 12.5625 25.5187 12.6187 25.475 12.6187C25.4687 12.65 25.4625 12.675 25.4562 12.7062C25.4312 12.7625 25.4 12.8187 25.3625 12.8687C25.3312 12.9125 25.3062 12.9562 25.2875 13.0062L25.2625 13.0812C25.2437 13.0937 25.225 13.1062 25.2062 13.1187C25.2062 13.1187 25.2 13.0625 25.1625 13.075C25.1312 13.0875 25.1312 13.0875 25.1312 13.1562C25.1312 13.225 25.1937 13.1687 25.1812 13.2062L25.175 13.2187C25.15 13.2562 25.1125 13.2875 25.075 13.3125C25.0437 13.3375 25.0187 13.3625 25.0062 13.4C24.975 13.4437 24.9375 13.45 24.9062 13.4937C24.8875 13.525 24.8687 13.55 24.85 13.575H24.8437L24.8375 13.5875C24.8062 13.625 24.7812 13.675 24.7625 13.7187L24.7375 13.7937C24.7187 13.8062 24.7 13.8187 24.6812 13.8312C24.6812 13.8312 24.6687 13.775 24.6375 13.7875C24.6062 13.8 24.6062 13.8 24.6 13.8687C24.6 13.9375 24.6625 13.8812 24.65 13.9187C24.6375 13.9562 24.575 14 24.5375 14.025C24.5062 14.05 24.4812 14.075 24.4625 14.1062C24.4312 14.15 24.3937 14.1562 24.3687 14.2C24.35 14.2312 24.3312 14.2562 24.3125 14.2812L24.2687 14.3187C24.2062 14.3562 24.125 14.3875 24.1 14.4C24.075 14.4187 23.9875 14.5 23.95 14.4687C23.9125 14.4375 23.8437 14.475 23.8375 14.55L23.7875 14.4937L23.7 14.5812L23.6062 14.6437H23.5875L23.5312 14.5875L23.4312 14.625L23.4187 14.6687C23.3625 14.675 23.3062 14.675 23.25 14.6687C23.225 14.7125 23.2625 14.7187 23.2625 14.7812C23.2687 14.8625 23.2937 14.9375 23.3312 15.0062C23.275 15.0312 23.225 15.0625 23.1812 15.1125C23.0875 15.2 23.1812 15.1125 23.1125 15.2562C23.0875 15.3125 23.075 15.375 23.075 15.4375C23.0625 15.4375 23.0625 15.4437 23.0625 15.4562C23.05 15.475 23.0312 15.4875 23.0125 15.4937C22.95 15.5187 22.9 15.575 22.875 15.6375C22.8812 15.6625 22.8812 15.6937 22.875 15.7187C22.85 15.7375 22.8187 15.7312 22.8 15.7062C22.7687 15.6687 22.7312 15.675 22.7312 15.725L22.6875 15.6625L22.6375 15.7L22.5812 15.7125H22.5687L22.5312 15.65L22.4687 15.6437L22.4625 15.675C22.4187 15.6562 22.3812 15.6312 22.3375 15.6125L22.2875 15.5562C22.2937 15.6375 22.2812 15.7187 22.2625 15.8C22.25 15.8375 22.2312 15.8687 22.2062 15.9L22.1875 15.925C22.175 15.9437 22.1625 15.9625 22.1562 15.9812L22.1375 16.0312L22.1 16.0375C22.1 16.0187 22.0875 16.0062 22.0812 15.9937L22.0687 15.9875C22.0562 15.9875 22.05 15.9875 22.05 15.9875V16.0312C22.05 16.0875 22.0937 16.0687 22.0875 16.0937C22.0812 16.1187 22.0375 16.1312 22.0125 16.1375C21.9875 16.1437 21.9875 16.1562 21.9625 16.175C21.9437 16.2 21.9187 16.1937 21.9 16.2125C21.8875 16.2312 21.875 16.2437 21.8625 16.2562L21.8312 16.2687C21.8 16.275 21.7687 16.275 21.7375 16.2687H21.7187C21.7062 16.2687 21.6625 16.2875 21.6375 16.2687L21.6312 16.325C21.6187 16.35 21.6062 16.3812 21.5875 16.4062C21.575 16.4187 21.575 16.4375 21.575 16.4562V16.4937C21.5687 16.4937 21.5687 16.4875 21.5625 16.4875C21.5562 16.4687 21.55 16.45 21.5437 16.4312C21.5375 16.4187 21.5375 16.4187 21.5437 16.4687C21.55 16.5125 21.5687 16.5187 21.5625 16.5375C21.5625 16.55 21.5437 16.5437 21.5312 16.5375C21.525 16.5312 21.5187 16.5375 21.5062 16.55C21.4937 16.5625 21.4875 16.55 21.475 16.5562C21.4687 16.5625 21.4625 16.575 21.45 16.575C21.4375 16.5875 21.425 16.6062 21.4125 16.625L21.3937 16.6625L21.375 16.65C21.375 16.65 21.3812 16.6 21.375 16.5875C21.3687 16.575 21.3687 16.575 21.35 16.625C21.3375 16.675 21.3625 16.675 21.35 16.7C21.3375 16.7187 21.3125 16.7 21.3 16.7C21.2875 16.7 21.2812 16.7 21.2625 16.7125C21.2437 16.725 21.2312 16.7 21.2187 16.7125C21.2062 16.7187 21.1937 16.725 21.1812 16.725L21.1625 16.7187C21.1437 16.7 21.125 16.675 21.1125 16.65C21.0812 16.6437 21.0687 16.6125 21.075 16.5812C21.0875 16.5312 21.0687 16.5125 21.0375 16.55L21.0562 16.4812L21.0187 16.4687L20.9937 16.4375V16.4312L21.0187 16.3562L20.9875 16.3125L20.9687 16.325C20.9687 16.2875 20.975 16.25 20.9875 16.2125C20.9687 16.2187 20.9625 16.25 20.9312 16.2875C20.9 16.325 20.8062 16.4625 20.8062 16.4625C20.8 16.4437 20.7937 16.425 20.775 16.4125C20.7437 16.3937 20.775 16.4125 20.7062 16.4375C20.6375 16.4625 20.5937 16.5375 20.5812 16.4812C20.5812 16.45 20.575 16.4375 20.525 16.45C20.5 16.4687 20.4687 16.4875 20.4437 16.5C20.4187 16.5125 20.3875 16.525 20.3625 16.5437C20.3625 16.5437 20.3375 16.5437 20.2375 16.6437C20.1375 16.7437 20.2375 16.6 20.1875 16.6562C20.0187 16.7875 19.8625 16.9375 19.7312 17.1C19.625 17.225 19.6875 17.2125 19.5437 17.325C19.4625 17.3812 19.5875 17.2625 19.3187 17.4625C19.2375 17.525 19.25 17.4937 19.2062 17.6125C19.2125 17.6625 19.2125 17.7125 19.2062 17.7625C19.1687 17.825 19.275 17.8 19.2062 17.8625C19.2625 17.9625 19.3312 18.05 19.4062 18.1375L19.4687 18.25L19.625 18.4125L19.65 18.4437C19.7625 18.4125 19.9062 18.65 19.9062 18.65C19.9062 18.65 19.725 18.6625 19.9375 18.775C20.0687 18.8437 20.2187 18.8625 20.3625 18.825C20.5312 18.85 20.7 18.9062 20.8562 18.9812C20.9937 19.05 21.1562 19.0625 21.3062 19.0125C21.5375 19 21.7687 18.9625 22 18.9C22.0562 18.875 22.1062 18.8437 22.1562 18.8062L22.175 18.875H22.1875L22.2875 18.8687L22.4 18.8312L22.425 18.9C22.4625 18.8375 22.5375 18.8312 22.5562 18.875C22.575 18.9187 22.6937 18.875 22.7187 18.8687C22.7687 18.8687 22.8187 18.8687 22.8687 18.8625L22.9062 18.85C22.925 18.8375 22.9375 18.8187 22.9562 18.8062C22.975 18.7812 23.0062 18.7937 23.025 18.7687C23.05 18.7437 23.05 18.7375 23.075 18.725C23.1 18.7187 23.1437 18.7125 23.1562 18.6812C23.1625 18.6562 23.1187 18.6687 23.1187 18.6187C23.1187 18.5625 23.1187 18.5625 23.1437 18.5687C23.1687 18.5687 23.175 18.625 23.175 18.625L23.2125 18.6187L23.2312 18.5687C23.2437 18.5375 23.2625 18.5125 23.2812 18.4875C23.3062 18.4562 23.325 18.425 23.3375 18.3875L23.3562 18.3062C23.4562 18.3 23.55 18.2812 23.65 18.2562L23.6125 18.1875L23.8375 18.1187H23.8687C23.8875 18.0375 23.9312 17.9562 23.9937 17.9C23.9937 17.9 23.975 17.9562 24 17.975L24.0312 17.925C24.0437 17.8937 24.05 17.8812 24.0625 17.9062L24.075 17.925L24.0937 17.8875C24.0937 17.8625 24.0937 17.8312 24.1062 17.8062L24.15 17.7562L24.2312 17.6437H24.2812C24.3187 17.6437 24.2812 17.5875 24.2812 17.5875L24.2125 17.5937C24.2687 17.5375 24.325 17.4812 24.3875 17.4312L24.4687 17.45C24.4687 17.45 24.475 17.5 24.5 17.4875C24.5312 17.4687 24.5437 17.4375 24.5437 17.4062L24.5312 17.3875L24.5062 17.3437L24.5437 17.3125L24.625 17.2437L24.675 17.2625H24.725L24.7812 17.2375C24.8062 17.2437 24.825 17.25 24.8437 17.2562L24.8937 17.225L24.9062 17.1937H24.925H24.95C24.975 17.1937 24.95 17.1625 24.95 17.15L24.9437 17.1437L24.8875 17.1562C24.9187 17.1062 24.875 17.0187 24.9187 16.975L24.9625 16.9937L24.9875 17C24.9875 17 25.0062 17.0437 25.0187 17.0312C25.0375 17.0125 25.0437 16.9875 25.0312 16.9687L25.0125 16.95L25 16.9375L24.9812 16.9125C25.0125 16.8875 24.9937 16.825 25.025 16.8062L25.0375 16.7937L25 16.6937H25.05L25.0062 16.5875H25.0187C25.0375 16.5937 25.05 16.5937 25.0687 16.6C25.075 16.6 25.0687 16.5812 25.0687 16.5687L25.1125 16.5562C25.1125 16.5562 25.0562 16.7312 25.2437 16.575C25.3562 16.4812 25.4375 16.3562 25.4812 16.2125C25.5937 16.075 25.7312 15.9625 25.8937 15.8875C26.0312 15.825 26.1437 15.7187 26.2125 15.5812L26.6625 15.0875C26.6875 15.0375 26.7125 14.9875 26.7375 14.9375L26.7875 14.9875H26.8L26.8812 14.9375L26.9562 14.8687L27.0062 14.9187C27.0062 14.8562 27.0687 14.825 27.1062 14.8562C27.1437 14.8875 27.2187 14.825 27.2375 14.8062C27.2875 14.7875 27.3375 14.7687 27.3875 14.7437L27.425 14.7125C27.4437 14.6937 27.4562 14.6687 27.4687 14.6437C27.4875 14.6125 27.525 14.6062 27.55 14.5687C27.575 14.5312 27.575 14.5187 27.6062 14.5C27.6375 14.4812 27.6875 14.45 27.6937 14.4125C27.7 14.3812 27.65 14.4187 27.6437 14.3625C27.6375 14.3 27.6437 14.3 27.6687 14.2875C27.6937 14.275 27.7125 14.3312 27.7125 14.3312C27.7125 14.3312 27.7312 14.325 27.7625 14.3L27.7812 14.2312C27.7937 14.1875 27.8125 14.15 27.8375 14.1187C27.8625 14.075 27.8875 14.025 27.9062 13.975C27.9125 13.9437 27.9187 13.9062 27.925 13.875C28.0437 13.8125 28.1687 13.75 28.2937 13.6687L28.2375 13.6125L28.525 13.4187L28.5625 13.4C28.5875 13.2875 28.6437 13.1812 28.7125 13.0937C28.7125 13.0937 28.6875 13.1687 28.725 13.175L28.7625 13.1062C28.775 13.0625 28.7812 13.05 28.8 13.0687L28.8187 13.0875L28.8437 13.0375C28.8437 13.0062 28.8437 12.975 28.8562 12.9437L28.9 12.875L28.9875 12.725C29.0062 12.725 29.025 12.7187 29.0437 12.7125C29.0812 12.7 29.0437 12.65 29.0437 12.65L28.9687 12.675C29.025 12.6062 29.0812 12.5437 29.1437 12.4812L29.2187 12.5C29.2187 12.5 29.2312 12.55 29.25 12.5312C29.275 12.5125 29.2937 12.4812 29.2875 12.45L29.2687 12.4312L29.2437 12.3875C29.2937 12.3437 29.3437 12.3062 29.3937 12.2687L29.45 12.2875L29.5125 12.275L29.5937 12.2312C29.6187 12.2312 29.6437 12.2375 29.6687 12.2437C29.7 12.225 29.7187 12.2125 29.7375 12.2L29.7625 12.1562H29.7875L29.825 12.1437C29.8562 12.1312 29.8437 12.1062 29.8312 12.0937V12.0875L29.7562 12.1125C29.8125 12.0437 29.7812 11.95 29.8437 11.8875L29.8937 11.9L29.9187 11.9062C29.9187 11.9062 29.9312 11.9562 29.95 11.9375C29.975 11.9187 29.9875 11.8875 29.9875 11.8562L29.9687 11.8375L29.9562 11.8187L29.9437 11.7937C29.9875 11.7562 29.9875 11.6875 30.0312 11.6562L30.0562 11.6375L30.0437 11.525L30.1062 11.5125L30.0875 11.375C30.1125 11.375 30.1375 11.3812 30.1625 11.3875C30.1937 11.3687 30.15 11.275 30.1687 11.2625L30.2125 11.2312C30.1562 11.1375 30.2937 11.2562 30.225 11.1812C30.2375 11.1625 30.2437 11.1375 30.2437 11.1187C30.25 11.1062 30.2625 11.1 30.275 11.0937L30.5062 10.9C30.625 10.7562 30.7562 10.6187 30.8687 10.4625L30.925 10.3875C31.0375 10.1375 31.1812 9.90625 31.3562 9.69375C31.3562 9.69375 31.2812 10.1 31.5312 9.55C31.6687 9.225 31.7437 8.875 31.7375 8.525C31.7375 8.525 31.8437 7.9 31.9437 7.26875C32.0375 6.99375 32.0125 6.61875 31.9125 6.26875Z" fill="#0041E6"/>
<path d="M19.5687 14.8125L19.6375 14.7625C19.7562 14.5562 19.9 14.3625 20.0625 14.1812C20.0625 14.1812 19.9812 14.3125 20.0375 14.3062V14.3L20.1375 14.1625C20.1812 14.0875 20.2 14.0625 20.2187 14.0812L20.2375 14.1L20.3062 14.0062C20.325 13.95 20.3437 13.9 20.375 13.8562L20.4875 13.7187L20.7125 13.425C20.75 13.4062 20.7812 13.3875 20.8187 13.3687C20.8875 13.325 20.8562 13.2687 20.8562 13.2687L20.7187 13.3562L21.1062 12.9437L21.2187 12.925C21.2187 12.925 21.2187 12.9937 21.25 12.9562C21.3 12.9187 21.3375 12.8687 21.35 12.8062L21.3312 12.7875L21.3125 12.7375L21.625 12.45L21.7062 12.4375L21.8125 12.3812L21.9625 12.2687C22 12.25 22.0375 12.2437 22.075 12.2437L22.2062 12.1312L22.2687 12.05L22.3062 12.0312L22.3687 11.9937C22.4187 11.9562 22.4125 11.9187 22.4125 11.9062V11.8937L22.275 11.9812C22.4 11.8437 22.4125 11.7062 22.5437 11.5687L22.6187 11.5562L22.6562 11.55C22.6562 11.55 22.6562 11.6187 22.6875 11.5812C22.7375 11.5437 22.775 11.4937 22.7875 11.4312L22.7687 11.4125L22.7625 11.3937L22.75 11.3625C22.8375 11.275 22.875 11.1625 22.9625 11.0875L23.0062 11.0437L23.05 10.8625L23.1562 10.8062L23.2062 10.5937C23.2437 10.575 23.2812 10.5687 23.3187 10.5687C23.3812 10.5125 23.3625 10.3937 23.4 10.3625L23.4875 10.2875C23.45 10.175 23.6 10.275 23.5375 10.2C23.5375 10.2 23.625 10.1625 23.6625 9.91249C23.7 9.66249 23.675 9.64999 23.675 9.64999C23.6812 9.60624 23.675 9.56249 23.6562 9.51874C23.625 9.42499 23.5187 9.40624 23.4187 9.49999C23.3187 9.59374 23.2812 9.41874 23.2812 9.41874C23.2812 9.41874 23.2125 9.39374 23.1 9.51249C22.9875 9.63124 23.0625 9.39374 23.1187 9.25624C23.1687 9.11874 22.9875 9.05624 22.9562 9.03124C22.925 8.99999 22.875 8.66874 22.7187 8.77499C22.6125 8.84999 22.5187 8.93749 22.4375 9.04374C22.4375 9.04374 22.3625 8.83749 22.1562 8.98749L21.95 9.13749C21.7 9.32499 21.3937 9.59374 21.1187 9.84374L20.9937 10.0062C20.9125 10.1187 20.7625 10.1562 20.6375 10.0937L20.5562 10.2312L20.4437 10.325C20.4437 10.325 20.4625 10.2375 20.4 10.2812C20.3437 10.325 20.3375 10.325 20.3 10.4312C20.2625 10.5375 20.3937 10.4125 20.35 10.4812C20.2812 10.5687 20.2 10.65 20.1125 10.7187C20.05 10.775 20 10.8312 19.95 10.8937C19.875 10.9812 19.8125 11.0187 19.7437 11.1L19.6062 11.2625L19.5062 11.3562C19.3875 11.4562 19.2375 11.55 19.1875 11.5937C19.1375 11.6375 18.9437 11.8187 18.9 11.7937C18.8562 11.7687 18.725 11.8687 18.675 11.9875L18.625 11.9375L18.4312 12.125L18.2437 12.2812L18.2125 12.3L18.1625 12.25L17.9875 12.3625L17.9375 12.4437C17.8437 12.4875 17.75 12.525 17.65 12.5562L17.575 12.525C17.4937 12.725 17.3937 12.9125 17.2812 13.0937C17.2312 13.1625 17.1437 13.2812 17.0375 13.4062L16.9625 13.4812L16.8312 13.6562L16.7437 13.7937L16.6312 13.8875C16.6312 13.8875 16.6375 13.8312 16.6125 13.8375C16.6062 13.8375 16.5937 13.8375 16.5875 13.8437C16.5625 13.8562 16.5437 13.875 16.5312 13.8937C16.5125 13.925 16.5 13.9562 16.4875 13.9937C16.4437 14.1 16.5812 13.975 16.5375 14.0437C16.4687 14.1312 16.3875 14.2062 16.3 14.275C16.2375 14.325 16.1875 14.3875 16.1375 14.45C16.0625 14.5375 16 14.575 15.9312 14.6562L15.7937 14.8187L15.6937 14.9125C15.6 14.9875 15.4875 15.0625 15.4187 15.1125L15.3687 15.15C15.2937 15.225 15.2062 15.2875 15.1187 15.3437L15.0375 15.4875C14.9875 15.5562 14.9 15.675 14.7937 15.8C14.7187 15.8812 14.6562 15.9687 14.5937 16.0562L14.5062 16.1937L14.3937 16.2875C14.3937 16.2875 14.4125 16.2 14.35 16.2437C14.2875 16.2875 14.2875 16.2875 14.25 16.3937C14.2062 16.5 14.3437 16.3812 14.3 16.45L14.2812 16.475C14.2125 16.55 14.1375 16.6187 14.0625 16.6875C14 16.7437 13.95 16.8 13.9 16.8625C13.825 16.95 13.7625 16.9875 13.6937 17.0687L13.55 17.2312L13.5375 17.2437L13.5187 17.2687C13.4437 17.35 13.3812 17.4375 13.3187 17.525L13.2312 17.6625L13.1187 17.7562C13.1187 17.7562 13.1375 17.6687 13.075 17.7125C13.0125 17.7562 13.0125 17.7562 12.975 17.8625C12.9312 17.9687 13.0687 17.8437 13.025 17.9125C12.9562 18 12.875 18.0812 12.7875 18.1437C12.725 18.2 12.675 18.2562 12.625 18.3187C12.55 18.4062 12.4875 18.4437 12.4187 18.525L12.2812 18.6875L12.1812 18.7812C12.0562 18.8812 11.9125 18.975 11.8625 19.0187C11.8125 19.0625 11.6187 19.2437 11.575 19.2187C11.5312 19.1937 11.4 19.3 11.35 19.4187L11.3 19.3687L11.125 19.5625L10.9375 19.7187L10.9062 19.7375L10.85 19.6812L10.675 19.8L10.625 19.875C10.5375 19.9187 10.4437 19.9562 10.35 19.9875C10.2875 20.075 10.35 20.0562 10.3062 20.1625C10.275 20.2625 10.2687 20.375 10.2875 20.4812C10.175 20.5562 10.075 20.6437 9.98746 20.7437C9.78746 20.95 9.98746 20.7437 9.79371 21.0187C9.59996 21.2937 9.73747 21.2937 9.50622 21.4687C9.38747 21.5562 9.28121 21.6625 9.21246 21.7937C9.19996 21.8625 9.18121 21.925 9.15621 21.9875C9.13121 22.0437 9.11247 22.1062 9.09997 22.1687C9.06247 22.2312 9.08121 22.3125 9.14371 22.35H9.14996C9.26246 22.4375 9.01871 22.4312 9.09371 22.4687C9.16871 22.6812 9.33746 22.85 9.55621 22.9062C9.71246 22.9812 9.75621 22.8625 9.82496 23.05C9.86246 23.15 9.73121 23.0437 9.89996 23.35C9.94996 23.4437 9.90621 23.4437 10.0875 23.4312C10.1687 23.3875 10.2562 23.35 10.3437 23.3187C10.425 23.3375 10.45 23.175 10.5 23.2625L11.0812 22.7875L11.3062 22.6437L11.6937 22.3312L11.7625 22.2812C11.8437 22.0812 12.3187 21.825 12.3187 21.825C12.3187 21.825 12.1312 22.1312 12.5187 21.775C12.7437 21.5625 12.9437 21.325 13.1 21.0562C13.3562 20.775 13.6375 20.5187 13.9375 20.2875C14.2 20.1 14.4312 19.8687 14.6187 19.6125L15.6187 18.5625L15.8312 18.2812L15.8812 18.3312L15.9062 18.3187L16.0625 18.1937L16.225 18.0375L16.275 18.0875C16.3187 17.9875 16.425 17.9 16.4687 17.9312C16.5125 17.9625 16.6625 17.8125 16.7125 17.775C16.7562 17.7375 16.8812 17.6687 16.9812 17.5875L17.0625 17.5125C17.1062 17.4625 17.1312 17.425 17.175 17.375C17.2312 17.3062 17.2875 17.2812 17.3437 17.2062C17.3812 17.15 17.425 17.1062 17.475 17.0625C17.55 17.0062 17.6125 16.9437 17.6687 16.8687C17.7 16.8125 17.5875 16.9125 17.6187 16.8187C17.65 16.725 17.65 16.725 17.7 16.6937C17.75 16.6625 17.7437 16.7375 17.7437 16.7375L17.8312 16.6625L17.9 16.55C17.9437 16.475 18 16.4 18.0562 16.3312C18.125 16.2437 18.1875 16.1562 18.25 16.0625L18.3375 15.8937C18.5625 15.725 18.8062 15.5437 19.05 15.3437L18.9937 15.2875L19.5687 14.8125Z" fill="#0041E6"/>
<path d="M18.4062 22.4812V22.4687C18.4125 22.425 18.425 22.375 18.45 22.3375C18.4625 22.3 18.4687 22.2625 18.4625 22.225C18.4625 22.175 18.4875 22.1437 18.4875 22.0937C18.4875 22.0625 18.4875 22.0312 18.4875 22V21.975C18.4875 21.925 18.475 21.875 18.4562 21.8312L18.425 21.7625L18.4375 21.7C18.4375 21.7 18.4812 21.7312 18.4937 21.7C18.5062 21.6687 18.5062 21.6687 18.4625 21.625C18.4187 21.5812 18.4062 21.6562 18.3875 21.625C18.375 21.5812 18.375 21.5312 18.3875 21.4875C18.3937 21.4562 18.3875 21.4187 18.375 21.3875C18.3625 21.3437 18.375 21.3125 18.3625 21.275C18.35 21.25 18.3437 21.2187 18.3375 21.1937V21.1375C18.3375 21.075 18.3625 21 18.3625 20.9687C18.3625 20.9375 18.3375 20.8375 18.3875 20.8187C18.4375 20.8 18.4312 20.7312 18.375 20.6937L18.4437 20.675L18.4062 20.5625L18.3937 20.4562V20.4375L18.4687 20.4125V20.3125L18.4312 20.2812L18.4875 20.1187C18.45 20.0812 18.4375 20.1187 18.375 20.0937C18.3 20.0812 18.2187 20.0812 18.1437 20.0937C18.1437 20.0375 18.125 19.9812 18.0875 19.9312C18.025 19.825 18.0875 19.9312 17.975 19.8437C17.8625 19.7562 17.8 19.8437 17.7625 19.7312C17.75 19.6687 17.7 19.6187 17.6375 19.6C17.6 19.6062 17.5625 19.6062 17.525 19.6062C17.4875 19.6 17.45 19.6062 17.4125 19.6187C17.4125 19.6187 17.3687 19.6 17.2687 19.7C17.175 19.8062 17.2562 19.6312 17.2062 19.7C17.0375 19.8312 16.8875 19.9875 16.7625 20.1625C16.6562 20.2875 16.7125 20.275 16.575 20.3875C16.5 20.45 16.6187 20.325 16.3687 20.55C16.3187 20.5875 16.275 20.6375 16.2437 20.6937C16.2312 20.7312 16.2125 20.7625 16.1937 20.7937C16.1437 20.85 16.225 20.7937 16.1562 20.8562L16.1437 20.9875L16.1125 21.0437L16.1 21.125L16.0937 21.1375C16.1812 21.1187 16.0687 21.2437 16.0687 21.2437C16.0687 21.2437 15.975 21.2437 15.9812 21.3C15.9812 21.3562 16.1062 21.3625 16.1062 21.3625C16.1375 21.4 16.1312 21.4562 16.0937 21.4875C16.0937 21.4875 16.0875 21.4937 16.0812 21.4937C16 21.5562 16.0875 21.5875 16.0875 21.5875C16.1 21.625 16.1125 21.6687 16.125 21.7062L16.175 21.7437L16.1062 21.725H16.0937H16.0625V21.7375L15.9937 21.7125C16.0312 21.7312 16.0125 21.725 15.9687 21.7125C15.925 21.7 15.925 21.6937 15.9125 21.6937C15.9062 21.6937 15.8625 21.6937 15.8437 21.7062L15.8312 21.725V21.7625C15.8312 21.7812 15.8062 21.7875 15.8062 21.8062C15.8062 21.8312 15.8062 21.8375 15.7937 21.85C15.7812 21.8625 15.75 21.8875 15.7625 21.9062C15.775 21.9312 15.7937 21.9 15.825 21.9437C15.8562 21.9875 15.8562 21.9875 15.8375 21.9937C15.8187 22 15.7812 21.9625 15.7812 21.9625L15.7562 21.9812L15.775 22.025C15.7812 22.05 15.7812 22.075 15.775 22.1062C15.775 22.1375 15.775 22.175 15.7812 22.2062L15.8125 22.275C15.7375 22.3187 15.6687 22.3625 15.6062 22.4187L15.675 22.4562L15.525 22.5812L15.5062 22.5937C15.5312 22.6625 15.5312 22.7312 15.5125 22.8C15.5125 22.8 15.5 22.75 15.4687 22.7437V22.7937C15.475 22.825 15.475 22.8312 15.4562 22.8125L15.4312 22.8V22.8312C15.4437 22.85 15.4562 22.875 15.4625 22.8937L15.4562 22.9375V23.0062C15.45 23.0062 15.4375 23.0062 15.4187 22.9812C15.3312 23.0312 15.2437 23.0875 15.1562 23.1437L15.1125 23.1625V23.175L15.075 23.1875H15.0625L14.9937 23.2125L14.7937 23.3375L14.7562 23.3562C14.7562 23.4812 14.475 23.5437 14.475 23.5437C14.475 23.5437 14.525 23.3687 14.3437 23.5312C14.2312 23.6312 14.15 23.7562 14.1187 23.9C14.0125 24.0437 13.875 24.1562 13.725 24.2437C13.5875 24.3125 13.4812 24.425 13.4187 24.5625L12.9937 25.075C12.9687 25.125 12.9437 25.175 12.925 25.225L12.8687 25.175H12.8562L12.7812 25.225L12.7125 25.3L12.6562 25.25C12.6562 25.3125 12.6 25.35 12.5625 25.3187C12.525 25.2875 12.4562 25.3562 12.4312 25.375C12.3812 25.3937 12.3312 25.4187 12.2875 25.4437C12.275 25.4562 12.2625 25.4687 12.25 25.475C12.2312 25.5 12.2187 25.5187 12.2062 25.5437C12.1875 25.5812 12.1562 25.5875 12.1312 25.625C12.1062 25.6625 12.1062 25.675 12.075 25.6937C12.0437 25.7125 11.9937 25.75 11.9875 25.7875C11.9812 25.825 12.0312 25.775 12.0375 25.8375C12.0437 25.9 12.0437 25.9 12.0187 25.9125C11.9937 25.925 11.975 25.8687 11.975 25.8687C11.9562 25.875 11.9437 25.8875 11.925 25.9L11.9125 25.9687C11.9 26.0125 11.8812 26.05 11.8562 26.0812C11.8312 26.125 11.8125 26.175 11.7937 26.225C11.7937 26.2562 11.7875 26.2937 11.7812 26.325C11.6562 26.3937 11.5375 26.4687 11.4187 26.5437L11.475 26.6L11.1937 26.8L11.1562 26.8187C11.1312 26.9312 11.0875 27.0375 11.0187 27.1312C11.0187 27.1312 11.0375 27.0562 11.0062 27.05L10.975 27.125C10.9687 27.1687 10.9562 27.1812 10.9375 27.1625L10.9187 27.1437L10.9 27.1937C10.9062 27.225 10.9062 27.2562 10.9 27.2875L10.8562 27.3562L10.775 27.5062C10.7562 27.5062 10.7375 27.5125 10.7187 27.525C10.6812 27.5437 10.7187 27.5875 10.7187 27.5875L10.7937 27.5562C10.7437 27.625 10.6875 27.6937 10.6312 27.7562L10.5562 27.7437C10.5562 27.7437 10.5375 27.6937 10.525 27.7125C10.5 27.7312 10.4875 27.7625 10.4937 27.7937L10.5125 27.8125L10.5375 27.85C10.4937 27.8937 10.4437 27.9375 10.3937 27.975L10.3125 28L10.25 28.0125L10.175 28.0687C10.15 28.0687 10.125 28.0687 10.1 28.0562C10.075 28.0687 10.0562 28.0875 10.0375 28.1062L10.0125 28.15L9.98748 28.1562L9.94998 28.1687C9.91873 28.1812 9.93748 28.2062 9.94998 28.225V28.2312L10.025 28.2C9.97497 28.2687 10.0062 28.3625 9.94373 28.425L9.89373 28.4125H9.86872C9.86872 28.4125 9.85623 28.3625 9.83747 28.3812C9.81248 28.4 9.79997 28.4312 9.80622 28.4625L9.82498 28.4812L9.83747 28.5L9.85623 28.525C9.81248 28.5625 9.81872 28.6312 9.77497 28.6687L9.75623 28.6812C9.66873 28.7437 9.58747 28.8062 9.49372 28.8625L9.31873 28.9312C9.21248 28.975 9.11872 29.0375 9.01248 29.0687L8.95623 29.0875C8.88748 29.2375 8.49998 29.2375 8.49998 29.2375C8.49998 29.2375 8.67498 29.0687 8.35623 29.1812C8.15623 29.2437 7.96873 29.3375 7.79998 29.45C7.54373 29.525 7.28123 29.5437 7.01873 29.5C6.79998 29.4562 6.56873 29.4437 6.34998 29.475C6.03123 29.4625 5.71248 29.4062 5.40623 29.3187L5.19998 29.2875L5.23123 29.2187L5.22498 29.2062L5.13748 29.1375L5.02498 29.0687L5.06248 29.0062C4.98748 29.0062 4.92498 28.95 4.94998 28.9062C4.97498 28.8625 4.86248 28.7812 4.83748 28.7562C4.80623 28.725 4.76248 28.6437 4.70623 28.575L4.64998 28.525L4.54373 28.4562C4.49373 28.4187 4.47498 28.3812 4.41873 28.3375C4.37498 28.3125 4.33748 28.2812 4.30623 28.2437C4.26873 28.1875 4.21248 28.1312 4.15623 28.0937C4.10623 28.0687 4.18748 28.1625 4.10623 28.1437C4.02498 28.1312 4.02498 28.125 3.99998 28.0875C3.97498 28.0437 4.04373 28.0437 4.04373 28.0437L3.98748 27.9687L3.89373 27.9187C3.83123 27.8875 3.77498 27.8437 3.72498 27.7937C3.64373 27.725 3.56873 27.675 3.52498 27.6437L3.39373 27.5812C3.29998 27.3937 3.20623 27.2 3.13123 27.0125L3.06248 27.05C2.99998 26.9062 2.94998 26.7625 2.91248 26.6062V26.5562C2.78748 26.4812 2.68748 26.1875 2.68748 26.1875C2.68748 26.1875 2.74373 26.2687 2.76873 26.2312L2.68748 26.125C2.65623 26.0812 2.64998 26.0625 2.67498 26.0562H2.69998L2.66873 25.9937C2.63748 25.9687 2.61248 25.9375 2.59373 25.9062L2.56873 25.7937L2.51248 25.5687C2.52498 25.5437 2.53748 25.5187 2.54373 25.5C2.56248 25.45 2.50623 25.4375 2.50623 25.4375L2.46873 25.5375C2.45623 25.4125 2.46248 25.2875 2.48123 25.1687L2.55623 25.1187C2.55623 25.1187 2.59373 25.1562 2.59998 25.125C2.61248 25.0875 2.60623 25.0437 2.58748 25.0125H2.56248L2.51873 24.9875C2.53748 24.9 2.56873 24.8125 2.59998 24.725L2.66248 24.6937L2.71873 24.6375L2.78123 24.5312C2.80623 24.5125 2.83123 24.5 2.85623 24.4937L2.91248 24.3937L2.92498 24.3312L2.94998 24.3125L2.98748 24.275C3.00623 24.2562 3.00623 24.2312 2.99373 24.2125L2.98748 24.2062L2.98123 24.2L2.90623 24.2812C2.94998 24.1687 2.90623 24.0562 2.96873 23.9375L3.03123 23.9187L3.06248 23.9125C3.06248 23.9125 3.08123 23.9687 3.10623 23.9375C3.13748 23.9 3.14998 23.8562 3.13748 23.8125L3.11873 23.8L3.10623 23.7812L3.08748 23.7562C3.13748 23.6812 3.13748 23.5875 3.18748 23.5187L3.21873 23.4812L3.21248 23.325L3.29373 23.2687V23.0812C3.32498 23.0687 3.35623 23.0562 3.38748 23.0562C3.43748 23.0062 3.39373 22.9062 3.42498 22.875L3.49373 22.8062C3.44373 22.7062 3.59373 22.7937 3.52498 22.725C3.52498 22.725 3.59373 22.6937 3.59373 22.4687V22.4562L3.70623 22.3687C3.71873 22.3437 3.73748 22.3125 3.75623 22.2812C3.82498 22.175 3.99998 22.3 3.99998 22.3L4.02498 22.2187C4.04373 22.2062 4.06248 22.1875 4.08123 22.175C4.08123 22.175 4.09373 22.2312 4.12498 22.2187C4.15623 22.2 4.15623 22.2 4.16248 22.1312C4.16248 22.0625 4.09998 22.1187 4.10623 22.0812C4.11873 22.0375 4.18123 21.9937 4.21873 21.9687C4.24998 21.9437 4.27498 21.9125 4.29373 21.875C4.32498 21.8312 4.36248 21.8187 4.39373 21.775C4.41248 21.7437 4.43123 21.7187 4.44998 21.6875C4.46873 21.675 4.48123 21.6562 4.49998 21.6437C4.56248 21.6 4.64998 21.5625 4.67498 21.5437C4.69998 21.525 4.78748 21.4312 4.83123 21.4625C4.87498 21.4937 4.93748 21.4437 4.94373 21.375L4.99998 21.425L5.09373 21.3312L5.18748 21.2375H5.20623L5.25623 21.2875L5.35623 21.2437L5.36873 21.2C5.43123 21.1875 5.49373 21.1812 5.54998 21.1812L5.61873 21.2187C5.62498 21.1 5.64373 20.9875 5.68123 20.875C5.70623 20.8125 5.73748 20.7562 5.77498 20.7L5.80623 20.6562C5.82498 20.625 5.84373 20.5937 5.85623 20.5562L5.88123 20.475C5.89998 20.4625 5.91873 20.4437 5.93748 20.4312C5.93748 20.4312 5.94373 20.4687 5.96873 20.475H5.98123C5.99998 20.4687 6.00623 20.4625 6.01248 20.45C6.01248 20.4312 6.01248 20.4062 6.01248 20.3875C6.01248 20.3187 5.94998 20.375 5.95623 20.3375C5.96873 20.3 6.03123 20.25 6.06873 20.225C6.09998 20.2 6.12498 20.1687 6.14373 20.1375C6.17498 20.0937 6.21248 20.0812 6.24373 20.0375C6.26248 20.0062 6.28123 19.9812 6.29998 19.95L6.34998 19.9062C6.39998 19.875 6.44998 19.85 6.49998 19.825L6.52498 19.8125C6.54998 19.7937 6.61248 19.7312 6.65623 19.725C6.66248 19.6937 6.66873 19.6687 6.67498 19.6375C6.69998 19.575 6.73123 19.5187 6.76873 19.4625C6.79998 19.4187 6.82498 19.3687 6.84373 19.3187L6.86873 19.2375C6.90623 19.2062 6.92498 19.1937 6.92498 19.1937C6.92498 19.1937 6.93748 19.2562 6.96873 19.2375C6.99998 19.2187 6.99998 19.2187 6.99998 19.15C6.99998 19.0812 6.93748 19.1375 6.94998 19.1L6.95623 19.0875C6.98748 19.0437 7.01873 19.0125 7.06248 18.9812C7.09373 18.9562 7.11873 18.925 7.13748 18.8937C7.16873 18.85 7.20623 18.8375 7.23748 18.7937C7.25623 18.7625 7.27498 18.7375 7.29373 18.7062L7.29998 18.7L7.30623 18.6875C7.33748 18.6437 7.36248 18.5937 7.38123 18.5437L7.40623 18.4625C7.42498 18.45 7.44373 18.4312 7.46248 18.4187C7.46248 18.4187 7.47498 18.475 7.50623 18.4625C7.53748 18.45 7.53748 18.4437 7.53748 18.375C7.53748 18.3062 7.47498 18.3625 7.48123 18.325C7.49373 18.2812 7.55623 18.2375 7.59373 18.2125C7.62498 18.1875 7.64998 18.1562 7.66248 18.1187C7.69373 18.075 7.73123 18.0625 7.76248 18.0187C7.78748 17.975 7.79373 17.9625 7.81873 17.9312C7.84373 17.9 7.84998 17.9 7.86873 17.8875C7.93123 17.8437 8.01248 17.8062 8.04373 17.7875C8.06872 17.7687 8.15623 17.675 8.19998 17.7062C8.24372 17.7375 8.30622 17.6937 8.31248 17.6187L8.36248 17.6687L8.45623 17.575L8.54998 17.5062L8.56873 17.5L8.62498 17.5562L8.72498 17.5125L8.74372 17.4687C8.79997 17.4562 8.86248 17.4562 8.91873 17.45C8.94372 17.4 8.89997 17.4 8.90623 17.3375C8.89373 17.2562 8.87498 17.1812 8.83123 17.1125L8.88748 17.15V17.0937L8.92498 17.075C8.92498 17.075 8.94998 17.1187 8.96873 17.1187C8.98748 17.1125 8.98748 17.1187 8.97498 17.0625C8.96873 17.0437 8.96248 17.0312 8.94373 17.0312C8.95623 17.0187 8.96873 17.0125 8.98123 17C9.06872 16.9062 8.99998 16.9812 9.04373 16.8687L9.04998 16.8625C9.04998 16.8562 9.04998 16.85 9.04998 16.8375H9.06248C9.08747 16.8437 9.11248 16.85 9.13748 16.85C9.15623 16.85 9.19373 16.8187 9.22498 16.8562C9.25623 16.8937 9.29373 16.8875 9.29373 16.8375L9.33747 16.9L9.38748 16.8687L9.44373 16.8562H9.45623L9.49372 16.9187L9.55622 16.925L9.56248 16.8937C9.60623 16.9125 9.64373 16.9312 9.68748 16.9562L9.73748 17.0125C9.73123 16.9312 9.74372 16.85 9.76248 16.7687C9.77497 16.7312 9.79373 16.7 9.81873 16.6687L9.83747 16.6437C9.84997 16.625 9.86247 16.6062 9.86872 16.5875L9.88123 16.5375L9.91873 16.5312C9.91873 16.55 9.93122 16.5625 9.93748 16.575L9.94998 16.5812C9.96247 16.5812 9.96873 16.5812 9.96873 16.575C9.96873 16.5625 9.96873 16.5437 9.96873 16.5312C9.96873 16.475 9.92497 16.4937 9.93122 16.4687C9.93748 16.4437 9.98123 16.4312 10.0062 16.425C10.0312 16.4187 10.0312 16.4062 10.0562 16.3875C10.075 16.3625 10.1 16.375 10.1187 16.35C10.1312 16.3375 10.1437 16.3187 10.1562 16.3062L10.1875 16.2937C10.2187 16.2875 10.25 16.2875 10.2812 16.2937H10.3C10.3125 16.2937 10.3562 16.275 10.3812 16.2937L10.3875 16.2375C10.4 16.2125 10.4125 16.1812 10.4312 16.1562C10.4437 16.1437 10.4437 16.125 10.4437 16.1062V16.0687C10.45 16.0687 10.4562 16.075 10.4625 16.075C10.4687 16.0937 10.475 16.1125 10.4812 16.1312C10.4875 16.1437 10.4875 16.1437 10.4812 16.0937C10.475 16.05 10.4562 16.0437 10.4625 16.025C10.4625 16.0125 10.4812 16.0187 10.4937 16.025C10.5 16.0312 10.5062 16.025 10.5187 16.0125C10.5312 16 10.5375 16.0125 10.55 16.0062C10.5562 16 10.5625 15.9937 10.575 15.9875C10.5875 15.975 10.6 15.9562 10.6125 15.9375L10.6312 15.9L10.65 15.9125C10.65 15.9125 10.6437 15.9625 10.65 15.975C10.6562 15.9875 10.6562 15.9875 10.675 15.9375C10.6875 15.8875 10.6625 15.8875 10.675 15.8625C10.6875 15.8437 10.7125 15.8625 10.725 15.8625C10.7375 15.8625 10.7437 15.8625 10.7625 15.85C10.7812 15.8375 10.7937 15.8625 10.8062 15.85C10.8187 15.8437 10.8312 15.8375 10.8437 15.8375L10.8625 15.8437C10.8875 15.8625 10.9062 15.9062 10.9125 15.9125C10.9187 15.9187 10.9625 15.9312 10.95 15.9812C10.9375 16.0312 10.9562 16.0562 10.9875 16.0125L10.9687 16.0812L11.0062 16.0937L11.025 16.1187L11 16.1812L11.0062 16.2312L11.025 16.2187C11.0187 16.2562 11.0187 16.2937 11.0062 16.3312C11.025 16.325 11.0312 16.2937 11.0625 16.2562C11.0937 16.2187 11.1875 16.0812 11.1875 16.0812C11.1937 16.1 11.2 16.1187 11.2187 16.1312C11.25 16.15 11.2187 16.1312 11.2875 16.1062C11.3562 16.0812 11.4 16.0062 11.4125 16.0625C11.4187 16.0937 11.4187 16.1062 11.4687 16.0937C11.4937 16.075 11.525 16.0562 11.55 16.0437C11.575 16.0312 11.6062 16.0187 11.6312 16C11.6312 16 11.6562 16 11.7562 15.9C11.8562 15.8 11.7562 15.95 11.8062 15.8875C11.975 15.7562 12.1312 15.6125 12.2625 15.4437C12.375 15.3187 12.3062 15.3312 12.45 15.2187C12.5312 15.1625 12.4062 15.2812 12.675 15.0812C12.7562 15.0187 12.7437 15.05 12.7875 14.9312C12.7812 14.8812 12.7812 14.8312 12.7875 14.7812C12.825 14.7187 12.7187 14.7437 12.7875 14.6812C12.7437 14.5875 12.6937 14.5 12.6312 14.4125L12.5687 14.3L12.4125 14.1375L12.3875 14.1062C12.275 14.1375 12.1312 13.9 12.1312 13.9C12.1312 13.9 12.3125 13.8875 12.1 13.775C11.9687 13.7062 11.8187 13.6875 11.675 13.725C11.5062 13.7 11.3375 13.6437 11.1812 13.5687C11.0437 13.4937 10.8812 13.4875 10.7312 13.5375C10.5 13.55 10.2687 13.5875 10.0375 13.65C9.98123 13.675 9.93123 13.7062 9.88123 13.7437L9.86248 13.675H9.84998L9.74998 13.6812L9.63748 13.7125L9.61248 13.6437C9.57498 13.7062 9.49998 13.7125 9.48123 13.6687C9.46247 13.625 9.34373 13.6687 9.31873 13.675C9.28748 13.6812 9.21873 13.675 9.16873 13.6812L9.13123 13.6937C9.11248 13.7062 9.09373 13.7187 9.08123 13.7375C9.06248 13.7562 9.03123 13.75 9.01248 13.775C8.99372 13.8 8.98747 13.8062 8.96247 13.8125C8.93748 13.8187 8.89373 13.825 8.88123 13.8562C8.87498 13.8812 8.91873 13.8687 8.91873 13.9187C8.91873 13.975 8.91873 13.975 8.89373 13.9687C8.86873 13.9687 8.86248 13.9125 8.86248 13.9125L8.82498 13.9187L8.80622 13.9687C8.79373 14 8.77498 14.025 8.75623 14.05C8.73123 14.0812 8.71247 14.1125 8.69998 14.15L8.68122 14.2312C8.58122 14.2375 8.48748 14.2562 8.38748 14.2812L8.42498 14.35L8.20623 14.4062H8.18748C8.16873 14.4875 8.11872 14.5687 8.06248 14.625C8.06248 14.625 8.08122 14.5687 8.05622 14.55L8.02497 14.6C8.01248 14.6375 8.00623 14.6437 7.99373 14.6187L7.98123 14.6L7.96248 14.6375C7.96248 14.6625 7.96248 14.6937 7.94998 14.7187L7.90623 14.7687L7.83123 14.8812C7.81248 14.8812 7.79373 14.8812 7.77498 14.8812C7.73748 14.8875 7.77498 14.9375 7.77498 14.9375L7.84373 14.9312C7.78748 14.9875 7.73123 15.0437 7.66873 15.0937L7.58748 15.075C7.58748 15.075 7.58123 15.025 7.55623 15.0375C7.52498 15.0562 7.51248 15.0875 7.51248 15.125L7.52498 15.1437L7.54998 15.1875L7.51248 15.2187L7.43123 15.2937L7.38123 15.275H7.33123L7.27498 15.3C7.25623 15.2937 7.23123 15.2875 7.21248 15.2812L7.16248 15.3125L7.14998 15.3437H7.12498L7.09998 15.35C7.07498 15.35 7.09373 15.3812 7.09998 15.3937L7.10623 15.4L7.16248 15.3875C7.13123 15.4375 7.17498 15.525 7.13123 15.5687L7.08748 15.55L7.06248 15.5437C7.06248 15.5437 7.04373 15.5 7.03123 15.5125C7.01248 15.525 7.00623 15.5562 7.01873 15.575L7.03748 15.5937L7.04998 15.6125C7.01248 15.625 6.98123 15.6375 6.98123 15.6375C6.98123 15.6375 7.03748 15.4562 6.84373 15.625C6.73123 15.7312 6.64373 15.8625 6.60623 16.0125C6.49373 16.1625 6.34998 16.2812 6.18748 16.375C6.04373 16.45 5.93123 16.5687 5.86248 16.7187L5.40623 17.2562C5.37498 17.3125 5.34998 17.3625 5.33123 17.4187L5.28123 17.3687H5.24998L5.16873 17.425L5.09373 17.5L5.04373 17.45C5.04373 17.5187 4.98123 17.55 4.94373 17.5187C4.90623 17.4875 4.83123 17.5625 4.80623 17.575C4.75623 17.5937 4.70623 17.6187 4.65623 17.65L4.61248 17.6875C4.59373 17.7125 4.58123 17.7375 4.56873 17.7625C4.54373 17.8 4.51248 17.8062 4.48748 17.8437C4.46248 17.8812 4.46248 17.9 4.43123 17.9187C4.39998 17.9375 4.34373 17.9812 4.33748 18.0125C4.33123 18.05 4.38748 18 4.39373 18.0625C4.39998 18.125 4.39373 18.125 4.36873 18.1375C4.34373 18.15 4.32498 18.0937 4.32498 18.0937C4.30623 18.1062 4.29373 18.1125 4.27498 18.125L4.25623 18.1937C4.24373 18.2375 4.22498 18.2812 4.19998 18.3187C4.17498 18.3687 4.14998 18.4187 4.13123 18.4687C4.12498 18.5062 4.11873 18.5375 4.11248 18.575C3.98123 18.65 3.85623 18.725 3.73748 18.8125L3.79373 18.8687L3.49998 19.0875L3.46248 19.1062C3.43748 19.225 3.38123 19.3375 3.31248 19.4312C3.31248 19.4312 3.33748 19.3562 3.29998 19.35L3.26248 19.425C3.24998 19.4687 3.24373 19.4812 3.22498 19.4687L3.20623 19.45L3.18123 19.5062C3.18123 19.5375 3.18123 19.5687 3.17498 19.6L3.13123 19.675L3.04373 19.8375C3.02498 19.8375 2.99998 19.85 2.98123 19.8562C2.94373 19.875 2.98123 19.9187 2.98123 19.9187L3.05623 19.8875C2.99998 19.9625 2.94373 20.0312 2.88123 20.1L2.79998 20.0875C2.79998 20.0875 2.78748 20.0375 2.76873 20.0562C2.74373 20.075 2.73123 20.1062 2.73123 20.1375L2.74998 20.1562L2.77498 20.2C2.72498 20.2437 2.67498 20.2937 2.61873 20.3375L2.56248 20.325L2.49998 20.3437L2.41873 20.3937C2.39373 20.3937 2.36873 20.3937 2.34373 20.3812C2.31248 20.4 2.29373 20.4187 2.27498 20.4312L2.24998 20.475H2.22498C2.21248 20.4812 2.19998 20.4812 2.18748 20.4875C2.15623 20.5 2.17498 20.5312 2.18748 20.5437V20.55L2.26248 20.5187C2.20623 20.5875 2.23748 20.6875 2.17498 20.7562L2.11873 20.75H2.09373C2.09373 20.75 2.08123 20.7 2.06248 20.7187C2.03748 20.7375 2.02498 20.7687 2.02498 20.8L2.04373 20.8187L2.05623 20.8375L2.07498 20.8625C2.03123 20.9 2.03123 20.975 1.98748 21.0125L1.96248 21.0312L1.97498 21.1437L1.91248 21.1625L1.93123 21.3062C1.90623 21.3062 1.88123 21.3062 1.85623 21.3C1.82498 21.325 1.86873 21.4125 1.84998 21.4312L1.80623 21.4625C1.86248 21.55 1.72498 21.4437 1.79373 21.5187C1.79373 21.5187 1.73748 21.5187 1.77498 21.6937C1.78748 21.75 1.79998 21.8062 1.82498 21.8562C1.57498 22.1062 1.34998 22.3812 1.15623 22.675L1.06873 22.8687C1.01873 23 0.887476 23.0875 0.743726 23.0812L0.706226 23.25L0.631226 23.3875C0.631226 23.3875 0.618726 23.2937 0.574976 23.3625C0.531226 23.4312 0.531226 23.4312 0.531226 23.5562C0.531226 23.6812 0.612476 23.5 0.599976 23.5812C0.568726 23.7 0.524976 23.8125 0.474976 23.925C0.443726 24.0062 0.418726 24.0937 0.406226 24.1875C0.381226 24.3125 0.349976 24.3875 0.331226 24.5062L0.306226 24.7437L0.281226 24.8937C0.243726 25.0625 0.193726 25.2562 0.181226 25.3312C0.174976 25.4062 0.162476 25.7062 0.118726 25.7187C0.0687256 25.7312 0.0562256 25.925 0.118726 26.0687H0.0249756L0.0624756 26.3875C0.0624756 26.4812 0.0749756 26.575 0.0874756 26.6687V26.7062L0.0187256 26.7187L0.0312256 27L0.0749756 27.1L0.0624756 27.4062L0.00622559 27.4687C0.162476 27.6687 0.312476 27.8687 0.474976 28.075L0.743726 28.4437L0.818726 28.5437C0.868726 28.6062 0.918726 28.6687 0.974976 28.725L1.09998 28.8375L1.18123 28.975C1.18123 28.975 1.12498 28.9562 1.12498 28.9875C1.12498 28.9937 1.12498 29.0062 1.13123 29.0125C1.14373 29.0375 1.15623 29.0625 1.17498 29.0812C1.20623 29.1062 1.23748 29.125 1.26873 29.1437C1.37498 29.2 1.26248 29.0437 1.32498 29.1C1.40623 29.1812 1.48123 29.275 1.54373 29.3687C1.59373 29.4375 1.64998 29.5 1.71873 29.5562C1.79998 29.6375 1.83123 29.7062 1.91248 29.775L2.06873 29.9125L2.15623 30.0125L2.35623 30.2812L2.39373 30.3312C2.47498 30.4062 2.54373 30.4937 2.60623 30.5812L2.76248 30.6625L3.12498 30.8875C3.22498 30.9562 3.33123 31.0125 3.43748 31.0625L3.59998 31.1312L3.73123 31.2312C3.73123 31.2312 3.63123 31.2312 3.69998 31.2875C3.76873 31.3437 3.76248 31.3437 3.89373 31.3625C4.02498 31.3812 3.84373 31.275 3.93123 31.3L3.96248 31.3125C4.04998 31.35 4.18748 31.425 4.27498 31.475C4.35623 31.5187 4.44373 31.55 4.53748 31.5687C4.66248 31.6062 4.73748 31.65 4.84998 31.675L5.07498 31.7187L5.09373 31.725H5.13123C5.24373 31.75 5.36248 31.7625 5.48123 31.7562L5.64998 31.75L5.79998 31.7875C5.79998 31.7875 5.71873 31.825 5.79373 31.85C5.86873 31.8687 5.86873 31.8687 5.98123 31.8375C6.09373 31.8062 5.90623 31.775 5.98748 31.7625C6.09998 31.7625 6.21873 31.775 6.33123 31.7937C6.41248 31.8 6.49998 31.8 6.58123 31.7937C6.69373 31.7937 6.77498 31.8062 6.88123 31.7937L7.09998 31.775H7.23748C7.39998 31.775 7.58123 31.8 7.64998 31.7937C7.72498 31.7875 7.99998 31.7562 8.01873 31.7937C8.03748 31.8312 8.21873 31.825 8.33747 31.75L8.35623 31.8187L8.64373 31.7437C8.73123 31.725 8.81872 31.7125 8.89997 31.6875H8.93122L8.95623 31.7625L9.18122 31.725L9.26873 31.6687L9.59998 31.6562C9.70623 31.5937 9.63748 31.5937 9.72498 31.5C9.79373 31.4125 9.84373 31.3062 9.86248 31.1937C9.99998 31.15 10.1312 31.0812 10.25 31C10.5125 30.825 10.25 31 10.5187 30.75C10.7312 30.5375 10.6812 30.4875 10.8062 30.3812C10.8375 30.3937 10.8687 30.3937 10.9 30.3812C10.9375 30.3625 10.975 30.35 11.0125 30.325C11.1625 30.2375 11.3 30.1437 11.4312 30.0312C11.4437 30 11.4625 29.975 11.4812 29.95C11.5437 29.85 11.7187 29.975 11.7187 29.975L11.7437 29.9C11.775 29.875 11.8 29.8625 11.8 29.8625C11.8 29.8625 11.8125 29.9187 11.8437 29.9062C11.875 29.8875 11.875 29.8875 11.875 29.825C11.875 29.7562 11.8125 29.8125 11.8187 29.775C11.8312 29.7375 11.8875 29.6937 11.925 29.6625C11.9562 29.6312 11.9625 29.6187 11.9937 29.575C12.025 29.5312 12.0625 29.5187 12.0875 29.475C12.1062 29.4437 12.125 29.4187 12.1437 29.3937L12.1875 29.35C12.25 29.3062 12.3312 29.275 12.3562 29.2625C12.3812 29.2437 12.4687 29.1562 12.5062 29.1875C12.5437 29.2187 12.6125 29.175 12.6187 29.1062L12.675 29.1562L12.7625 29.0687L12.8562 29.0062H12.875L12.925 29.0562L13.0187 29.0125L13.0312 28.9687C13.0875 28.9625 13.15 28.9562 13.2062 28.9562L13.2687 29C13.2687 28.8812 13.2875 28.7687 13.3187 28.6562C13.3437 28.6 13.3687 28.5437 13.4062 28.4875C13.4187 28.4687 13.425 28.4562 13.4312 28.4437C13.45 28.4125 13.4625 28.3812 13.475 28.35L13.5 28.275L13.5562 28.2375C13.5562 28.2375 13.5625 28.275 13.5875 28.2812C13.6062 28.2875 13.6 28.2812 13.6062 28.2812C13.6125 28.2812 13.6312 28.2687 13.6312 28.2562C13.6375 28.2375 13.6375 28.2187 13.6312 28.2C13.6312 28.1312 13.5687 28.1875 13.5812 28.15C13.5937 28.1125 13.65 28.0687 13.6875 28.0375C13.7187 28.0125 13.7375 27.9875 13.7562 27.95C13.7875 27.9062 13.825 27.8937 13.85 27.8562C13.8687 27.825 13.8812 27.8 13.9062 27.775L13.95 27.7312C13.9937 27.7 14.0437 27.675 14.0937 27.6562L14.1187 27.6437C14.1437 27.625 14.2 27.5687 14.2437 27.5625C14.25 27.5312 14.2562 27.5062 14.2625 27.475C14.2875 27.4187 14.3125 27.3625 14.35 27.3062C14.3812 27.2625 14.4062 27.2187 14.4187 27.1687L14.4437 27.0937C14.4812 27.0687 14.5 27.0562 14.5 27.0562C14.5 27.0562 14.5125 27.1125 14.5437 27.1C14.575 27.0812 14.575 27.0812 14.575 27.0187C14.575 26.95 14.5125 27.0062 14.5187 26.9687L14.525 26.9562C14.55 26.9187 14.5875 26.8812 14.625 26.8562C14.6562 26.8312 14.675 26.8 14.6937 26.7687C14.725 26.725 14.7625 26.7125 14.7875 26.675C14.8062 26.6437 14.8187 26.6187 14.8437 26.5937H14.85L14.8562 26.5812C14.8875 26.5375 14.9125 26.4937 14.925 26.4437L14.95 26.3687C14.9687 26.3562 14.9875 26.3437 15.0062 26.3312C15.0062 26.3312 15.0187 26.3875 15.05 26.375C15.0812 26.3625 15.0812 26.3562 15.0812 26.2937C15.0812 26.2312 15.0187 26.2812 15.025 26.2437C15.0375 26.2062 15.0937 26.1625 15.1312 26.1312C15.1625 26.1062 15.1812 26.075 15.2 26.0437C15.2312 26 15.2687 25.9875 15.2937 25.9437C15.3125 25.9125 15.3312 25.8875 15.35 25.8625C15.3687 25.85 15.3812 25.8312 15.3937 25.8187C15.45 25.775 15.5375 25.7437 15.5625 25.725C15.5875 25.7062 15.675 25.6187 15.7125 25.65C15.75 25.6812 15.8187 25.6375 15.825 25.5687L15.875 25.6187L15.9625 25.5312L16.0562 25.4687H16.075L16.1312 25.525L16.225 25.4812L16.2375 25.4375C16.2937 25.4312 16.35 25.425 16.4062 25.425C16.4312 25.3812 16.3875 25.375 16.3875 25.3125C16.3812 25.2687 16.375 25.225 16.3562 25.1875C16.4187 25.1625 16.4812 25.1312 16.5437 25.0937L16.575 25.0312C16.6125 24.9625 16.775 25.1 16.775 25.1L16.7875 25.0437L16.8312 25.025C16.8312 25.025 16.85 25.075 16.875 25.0687C16.9 25.0625 16.9 25.0625 16.8937 25.0062C16.8875 24.95 16.8375 24.9875 16.8437 24.9562C16.85 24.925 16.8937 24.9 16.9187 24.8875C16.9437 24.875 16.9437 24.8625 16.9687 24.8312C16.9875 24.8 17.0125 24.7937 17.0312 24.775L17.0437 24.7625C17.0625 24.7375 17.0812 24.7125 17.1062 24.6875L17.15 24.6437C17.2 24.6062 17.25 24.575 17.3 24.5437C17.3187 24.525 17.3812 24.45 17.4187 24.475C17.4625 24.5 17.5062 24.4625 17.5 24.4062L17.5625 24.45L17.6125 24.375L17.675 24.3187H17.6875L17.75 24.3562L17.8187 24.325V24.25C17.8687 24.2437 17.9187 24.2375 17.9687 24.2375L18.0375 24.2687C18.0062 24.1812 17.9812 24.0937 17.975 24C17.975 23.9562 17.9812 23.9125 17.9937 23.8687L18 23.8312C18.0062 23.8062 18.0062 23.7812 18 23.7562L17.9937 23.7L18.025 23.6687C18.0375 23.6812 18.05 23.6937 18.0625 23.7H18.075C18.0875 23.6937 18.0937 23.6875 18.0937 23.6812C18.0875 23.6625 18.0812 23.65 18.075 23.6375C18.05 23.5875 18.0187 23.6312 18.0125 23.6C18.0062 23.5687 18.0437 23.5312 18.0625 23.5125C18.0812 23.4937 18.0812 23.4812 18.0875 23.4437C18.0937 23.4125 18.125 23.4 18.1312 23.3625C18.1312 23.3375 18.1375 23.3187 18.15 23.2937L18.175 23.2625C18.2062 23.2375 18.2375 23.2125 18.2687 23.1937L18.2875 23.1812C18.3 23.1687 18.3312 23.1125 18.3687 23.1062L18.3562 23.0375C18.3562 22.9812 18.3625 22.9312 18.375 22.8812C18.3875 22.8312 18.3937 22.775 18.3937 22.725V22.6437L18.4312 22.5812C18.4312 22.5812 18.4687 22.6312 18.4875 22.6C18.5125 22.5687 18.5062 22.5687 18.4812 22.5062C18.45 22.4375 18.4187 22.5187 18.4062 22.4812Z" fill="#0041E6"/>
</g>
<defs>
<clipPath id="clip0_7664_50179">
<rect width="32" height="32" fill="white"/>
</clipPath>
</defs>
</svg>
