<svg width="32" height="32" viewBox="0 0 32 32" fill="none" xmlns="http://www.w3.org/2000/svg">
<g clip-path="url(#clip0_7664_50167)">
<path d="M25.425 12.9063L25.4938 12.9188L25.5125 12.8813L25.6 12.55C25.625 12.425 25.6375 12.2938 25.6563 12.1688L25.725 12.1813C25.7063 12 25.7563 11.7625 25.8 11.7563C25.8438 11.7438 25.875 11.3688 25.8875 11.2625C25.9 11.1563 25.9313 10.9188 25.9438 10.6938V10.5C25.9375 10.4 25.925 10.3 25.9063 10.1938L25.8688 9.775C25.8438 9.6125 25.825 9.56875 25.8125 9.4375C25.8 9.28125 25.775 9.125 25.7375 8.96875C25.7 8.8625 25.7375 9.11875 25.6688 8.98125C25.6188 8.9125 25.5875 8.83125 25.5813 8.74375C25.5688 8.64375 25.6375 8.73125 25.6375 8.73125L25.6063 8.53125L25.5313 8.325L25.3688 7.9C25.3063 7.725 25.2375 7.55625 25.1563 7.39375L24.9875 7.1375C24.85 6.64375 24.6688 6.16875 24.4375 5.7125L24.375 5.75C24.1813 5.3625 23.9688 4.99375 23.7313 4.63125C23.7063 4.5875 23.675 4.55 23.65 4.5125C23.4625 4.35 23.2813 4.175 23.1125 3.99375L22.75 3.66875C22.75 3.66875 22.9625 3.83125 22.925 3.75L22.9125 3.74375L22.6875 3.55625C22.5688 3.46875 22.525 3.4375 22.5438 3.41875L22.5625 3.4C22.5125 3.35625 22.4563 3.31875 22.4 3.28125C22.3125 3.24375 22.2313 3.2 22.1563 3.15L21.9063 2.9625C21.7313 2.84375 21.55 2.7375 21.3688 2.6375L21.2188 2.50625C21.1063 2.4125 21.0625 2.45 21.0625 2.45L21.275 2.625C21.0063 2.45625 20.725 2.3 20.4375 2.1625L20.3188 2.03125C20.3188 2.03125 20.4125 2.03125 20.3375 1.99375C20.2563 1.93125 20.1563 1.9 20.05 1.89375L20.0375 1.9125L19.9813 1.9375L19.3313 1.65625L19.2438 1.56875L19.0688 1.48125L18.7688 1.375C18.7188 1.35 18.675 1.3125 18.6313 1.275L18.3563 1.18125L18.1875 1.15625L18.1188 1.13125L18 1.09375C17.9 1.0625 17.8625 1.08125 17.8438 1.09375L17.8375 1.1L18.0875 1.18125C17.7813 1.13125 17.6 1.18125 17.2813 1.11875L17.1875 1.0625L17.1375 1.0375C17.1375 1.0375 17.225 1.00625 17.1438 0.993753C17.0438 0.975003 16.9438 0.975003 16.85 0.993753V1.0125L16.8313 1.03125L16.8063 1.05625C16.6125 1.03125 16.4313 1.05625 16.2438 1.03125L16.1438 1.01875L15.8813 1.09375L15.7 1.05625L15.4 1.15C15.35 1.1375 15.3 1.11875 15.25 1.0875C15.1188 1.075 15 1.1625 14.925 1.15625H14.7438C14.6625 1.25625 14.6063 1.09375 14.5875 1.1875C14.4313 1.1875 14.275 1.225 14.1375 1.3125C13.8313 1.4625 13.8438 1.4875 13.8438 1.4875C13.4875 1.54375 13.1375 1.625 12.7938 1.725L12.5063 1.8625C12.1563 2.03125 11.9813 1.8875 11.9813 1.8875L11.775 2.025L11.5625 2.11875C11.5625 2.11875 11.6438 2.025 11.5375 2.06875C11.45 2.1 11.3688 2.15 11.3063 2.225C11.1813 2.3375 11.4375 2.2125 11.3375 2.2875C11.1938 2.3875 11.05 2.475 10.9 2.55625C10.7938 2.61875 10.6875 2.6875 10.5938 2.76875L10.2313 3.0375L9.98125 3.25L9.825 3.38125C9.6375 3.53125 9.40625 3.675 9.3375 3.75C9.2625 3.825 8.96876 4.1125 8.925 4.09375C8.88125 4.075 8.6875 4.25 8.59375 4.43125L8.54375 4.3875L8.26875 4.7125C8.18125 4.80625 8.10625 4.90625 8.03125 5.00625L8 5.04375L7.94375 5.00625L7.71875 5.25625C7.69375 5.3 7.675 5.34375 7.65625 5.3875C7.5375 5.50625 7.425 5.625 7.31875 5.71875L7.23125 5.73125C7.1375 6.025 7.04375 6.3375 6.9375 6.68125L6.74375 7.28125L6.6875 7.44375C6.65 7.55625 6.625 7.6625 6.60625 7.78125L6.56875 8.03125L6.4875 8.25C6.4875 8.25 6.48125 8.175 6.45625 8.2C6.44375 8.20625 6.4375 8.21875 6.4375 8.23125C6.41875 8.26875 6.40625 8.30625 6.40625 8.35C6.4 8.40625 6.4 8.45625 6.40625 8.5125C6.4125 8.68125 6.48125 8.40625 6.475 8.53125C6.45 8.7 6.4125 8.86875 6.3625 9.0375C6.3375 9.1625 6.31875 9.28125 6.3125 9.40625C6.29375 9.5875 6.25 9.69375 6.25 9.85625L6.2375 10.1875L6.21875 10.4L6.1625 10.9313L6.15 11.025C6.1375 11.1188 6.1625 11.4125 6.1375 11.5313L6.19375 11.7875L6.325 12.4C6.35625 12.5688 6.40625 12.7313 6.4625 12.8875L6.55 13.1188L6.6 13.3375C6.6 13.3375 6.525 13.2375 6.54375 13.35C6.55625 13.4438 6.59375 13.5313 6.65 13.6063C6.7375 13.75 6.6625 13.475 6.71875 13.5875L6.7375 13.6313L6.88125 14.075C6.91875 14.1938 6.9625 14.3063 7.01875 14.4188L7.19375 14.825L7.34375 15.1063L7.35625 15.1313L7.38125 15.175C7.45625 15.3188 7.5375 15.4563 7.63125 15.5875L7.775 15.775L7.86875 15.9688C7.86875 15.9688 7.775 15.9 7.81875 16C7.85 16.0875 7.9 16.1625 7.975 16.2125C8.09375 16.3188 7.96251 16.0875 8.03751 16.1813C8.13126 16.3125 8.21875 16.45 8.29375 16.6C8.35 16.7 8.41875 16.7938 8.49375 16.8875C8.59375 17.0188 8.63751 17.1188 8.72501 17.2438L8.91251 17.4813L9.01875 17.6438L9.3125 18.1313C9.36875 18.2188 9.59376 18.5188 9.56876 18.5563C9.54376 18.5938 9.675 18.7938 9.8125 18.9063L9.75626 18.95L9.99375 19.25L10.1813 19.5188L10.2 19.5563L10.1438 19.6L10.2875 19.8438L10.375 19.925C10.425 20.0375 10.4688 20.1563 10.5063 20.275C10.6 20.3813 10.5813 20.3 10.6938 20.3813C10.7938 20.45 10.9063 20.4938 11.025 20.5125C11.025 20.5125 11.0813 20.6438 11.2563 20.9375C11.4313 21.2313 11.2563 20.9375 11.4875 21.2563C11.6938 21.575 11.7313 21.45 11.8125 21.775C11.8438 21.9375 11.8875 22.1 11.95 22.25C11.9938 22.3063 12.0375 22.375 12.075 22.4375C12.0813 22.45 12.0875 22.4563 12.0938 22.4688L12.0813 22.4813L12.0688 22.4875L12.0063 22.4625L11.9375 22.5188V22.5563C11.8875 22.5813 11.8375 22.6 11.7875 22.6188L11.7188 22.6063C11.7563 22.7 11.7875 22.7938 11.8125 22.8875C11.8188 22.9375 11.825 22.9938 11.8188 23.0438V23.0875C11.8188 23.1125 11.8188 23.1438 11.825 23.1688L11.8438 23.2313L11.8188 23.2813C11.8188 23.2813 11.7938 23.2625 11.775 23.2625C11.7688 23.2625 11.7688 23.2688 11.7625 23.2688C11.7563 23.2813 11.75 23.2875 11.7563 23.2938C11.7625 23.3125 11.775 23.325 11.7875 23.3375C11.825 23.3813 11.8438 23.3188 11.8563 23.35C11.8688 23.3813 11.8438 23.4375 11.8375 23.4688C11.8313 23.4938 11.8313 23.525 11.8375 23.5563C11.8375 23.6 11.8188 23.6188 11.8188 23.6625L11.825 23.7375L11.8188 23.7813C11.8063 23.8188 11.7875 23.8563 11.7625 23.8938L11.75 23.9125C11.7438 23.9313 11.7375 24 11.7125 24.025L11.75 24.0875C11.7625 24.1188 11.7813 24.1688 11.8 24.225C11.8063 24.2625 11.825 24.3 11.8438 24.3375L11.8813 24.3938L11.875 24.4375C11.875 24.4375 11.8313 24.4125 11.8188 24.4375C11.8063 24.4625 11.8063 24.4625 11.8563 24.5C11.9 24.5313 11.9063 24.4688 11.925 24.4938V24.5063C11.9313 24.5438 11.9375 24.575 11.9313 24.6125C11.9313 24.6438 11.9375 24.6688 11.9563 24.6938C11.9688 24.7313 11.9563 24.7563 11.9688 24.7938C11.9813 24.8125 11.9875 24.8375 12 24.8625V24.8688V24.8813C12.0125 24.9188 12.0313 24.9563 12.0563 24.9875L12.1063 25.0313V25.0813C12.1063 25.0813 12.0563 25.0688 12.05 25.0938C12.0438 25.1188 12.05 25.125 12.1 25.1438C12.15 25.1688 12.1438 25.1063 12.1688 25.125C12.1938 25.1438 12.2 25.2 12.2 25.2313C12.2063 25.2563 12.2125 25.2875 12.2313 25.3063C12.25 25.3438 12.2438 25.3688 12.2625 25.4C12.2813 25.4188 12.2938 25.4438 12.3063 25.4625L12.3188 25.5063C12.3313 25.5625 12.3188 25.6313 12.325 25.6563C12.3313 25.6813 12.3688 25.7688 12.325 25.7938C12.2813 25.8188 12.3063 25.8813 12.3625 25.9L12.3 25.9313L12.3563 26.025L12.3875 26.1188V26.1313L12.325 26.1688L12.3438 26.2625L12.3813 26.2813L12.3688 26.4438C12.4125 26.475 12.4188 26.4375 12.4813 26.4438C12.5438 26.4438 12.6 26.4313 12.6563 26.4063L12.65 26.4375L12.6625 26.5688C12.675 26.725 12.4688 26.7563 12.4688 26.7563L12.4938 26.8625L12.475 26.9563C12.475 26.9563 12.4313 26.9063 12.4188 26.9563C12.4063 27.0063 12.4063 27 12.4438 27.075C12.4875 27.1438 12.4938 27.025 12.5125 27.075C12.5188 27.1438 12.5188 27.2188 12.5063 27.2875C12.5 27.3625 12.5063 27.4438 12.525 27.5188C12.5438 27.625 12.5375 27.6938 12.5563 27.7813L12.6063 27.9563L12.625 28.0625C12.6438 28.1875 12.6563 28.325 12.6688 28.3813C12.6813 28.4375 12.7563 28.625 12.7125 28.65C12.675 28.675 12.7125 28.8063 12.7938 28.875L12.7313 28.9063L12.8313 29.1L12.9125 29.2813L12.9188 29.3063L12.8625 29.3438L12.925 29.5125L12.9875 29.5688L13.0563 29.85L13.025 29.925C13.1875 30.0188 13.3938 30.1375 13.6 30.2375L13.9313 30.4125L14.0188 30.4563C14.075 30.4813 14.1375 30.5063 14.1938 30.5188L14.325 30.55L14.4313 30.6125C14.4313 30.6125 14.3875 30.625 14.3938 30.65C14.3938 30.6563 14.4 30.6625 14.4063 30.6688C14.425 30.6813 14.4438 30.6938 14.4625 30.7C14.4938 30.7063 14.5188 30.7063 14.55 30.7C14.6438 30.6938 14.5125 30.6313 14.575 30.6375C14.6563 30.6563 14.7375 30.6875 14.8188 30.725C14.875 30.75 14.9375 30.7688 15 30.775C15.0875 30.7938 15.1375 30.825 15.2188 30.8375L15.3875 30.8563L15.4938 30.8813L15.75 30.9688L15.7938 30.9813C15.8813 30.9938 15.9625 31.0125 16.05 31.0375L16.1813 31L16.5 30.9438C16.5875 30.9313 16.6813 30.9125 16.7625 30.875L16.8875 30.8188L17.0125 30.8063C17.0125 30.8063 16.9625 30.8625 17.025 30.8625C17.0875 30.8625 17.0875 30.8625 17.1688 30.7938C17.2438 30.725 17.0938 30.7625 17.15 30.725L17.175 30.7125C17.2563 30.6813 17.3375 30.6563 17.425 30.6375C17.4938 30.6188 17.5563 30.5875 17.6188 30.55C17.7 30.5188 17.775 30.475 17.85 30.4313L18.0063 30.3188L18.0188 30.3063L18.0438 30.2875C18.125 30.2313 18.2 30.1625 18.2563 30.0813C18.2875 30.0438 18.3125 30.0063 18.3375 29.9625L18.4438 29.8813C18.4438 29.8813 18.4313 29.9625 18.4875 29.9188C18.5438 29.8813 18.5438 29.8813 18.5688 29.7813C18.6 29.6875 18.4875 29.8 18.5188 29.7375C18.5688 29.6563 18.6313 29.5875 18.6938 29.5188C18.7375 29.4688 18.775 29.4063 18.8 29.3438C18.8438 29.2625 18.8813 29.2188 18.9188 29.1375L18.975 28.975L19.0188 28.8813L19.175 28.6125C19.2 28.5625 19.25 28.3688 19.3 28.375C19.35 28.3813 19.3938 28.2563 19.3688 28.1625L19.4375 28.175L19.4688 27.975L19.5125 27.8L19.525 27.7813L19.6 27.7875L19.65 27.6375L19.6375 27.5688L19.7563 27.375C19.7438 27.2938 19.7125 27.3375 19.675 27.2563C19.625 27.1875 19.5563 27.1313 19.4813 27.0875C19.5063 27 19.5125 26.9063 19.5 26.8188C19.5 26.7 19.5 26.7125 19.4813 26.7125V26.7063C19.4813 26.7063 19.5188 26.6875 19.5125 26.5563C19.5063 26.425 19.5688 26.5938 19.5563 26.5188C19.5625 26.4625 19.5563 26.4313 19.5625 26.3875C19.5813 26.3875 19.6 26.3875 19.6375 26.35C19.7 26.275 19.7313 26.175 19.7188 26.075C19.775 25.95 19.8625 25.8375 19.9563 25.75C20.0125 25.7 20.05 25.6375 20.075 25.5688C20.0875 25.5188 20.0938 25.4688 20.0875 25.4125C20.1188 25.2688 20.1438 25.1188 20.1563 24.9688L20.125 24.8625L20.1938 24.875V24.8438L20.225 24.7875L20.2375 24.7188L20.3063 24.725C20.2688 24.6875 20.2875 24.65 20.3375 24.6563C20.3875 24.6563 20.3938 24.5938 20.4 24.575C20.425 24.5438 20.4438 24.5125 20.4625 24.4813L20.4688 24.45C20.4688 24.4313 20.4625 24.4125 20.4563 24.3938C20.45 24.3688 20.4688 24.35 20.4563 24.3188C20.4438 24.2875 20.4438 24.2813 20.45 24.2563C20.4563 24.2313 20.4688 24.1938 20.45 24.175C20.4313 24.1563 20.425 24.2 20.3813 24.175C20.3375 24.15 20.3375 24.15 20.35 24.1313C20.3625 24.1125 20.4063 24.1313 20.4063 24.1313L20.4188 24.0938L20.3813 24.0563C20.3625 24.0313 20.35 24.0063 20.3375 23.9813C20.325 23.95 20.3063 23.9188 20.2813 23.8938L20.2188 23.85C20.25 23.7625 20.275 23.675 20.2875 23.5875L20.2125 23.6L20.2375 23.3813L20.2438 23.3563C20.1813 23.3125 20.125 23.2563 20.0938 23.1813C20.0938 23.1813 20.1375 23.2125 20.1625 23.1938L20.1313 23.1563C20.1063 23.1375 20.1 23.1313 20.125 23.125L20.15 23.1188L20.125 23.0938C20.1 23.0875 20.0813 23.0813 20.0563 23.0688L20.025 23.025L19.9563 22.9375C19.9625 22.925 19.9688 22.9125 19.975 22.9C19.9813 22.875 19.9313 22.8875 19.9313 22.8875L19.9188 22.9375C19.9125 22.925 19.9063 22.9063 19.9 22.8938L19.9125 22.875C19.9438 22.7625 19.9813 22.65 20.0375 22.5438C20.1125 22.5 20.0438 22.3125 20.1313 22.3625C20.2125 22.0625 20.3125 21.7688 20.4375 21.4813C20.5 21.3875 20.5438 21.2938 20.6125 21.2C20.7125 21.0188 20.825 20.8375 20.9438 20.6688L21.0063 20.5813C21.1563 20.2875 21.3563 20.0313 21.5938 19.8125C21.5938 19.8125 21.375 20.2563 21.8188 19.6688C22.0938 19.3125 22.3438 18.9313 22.5625 18.5375C22.5625 18.5375 23.1188 17.7625 23.6438 17.1C23.9688 16.6938 24.2375 16.2438 24.4438 15.7563C24.8125 15.0313 25.1063 14.275 25.325 13.4938C25.3688 13.3063 25.4 13.1063 25.425 12.9063ZM17.2563 27.3063C17.2563 27.3063 17.1813 27.15 17.15 27.375C17.1313 27.5063 17.1438 27.6375 17.1875 27.7563C17.1813 27.8875 17.125 28.0125 17.0313 28.1063C16.9 28.2 16.9188 28.2875 16.9125 28.2938C16.8688 28.375 16.8 28.4375 16.725 28.4875C16.7063 28.5125 16.6875 28.5438 16.6625 28.5625L16.6438 28.5H16.6375L16.5875 28.4938C16.5688 28.5 16.55 28.5063 16.5313 28.5063L16.5188 28.4375C16.5 28.4813 16.4625 28.475 16.45 28.425C16.4438 28.375 16.3875 28.3875 16.3688 28.3813L16.275 28.3313H16.25C16.2313 28.3375 16.2125 28.3375 16.2 28.3438C16.175 28.35 16.1563 28.3313 16.125 28.3438C16.0938 28.3563 16.0875 28.3563 16.0625 28.3438C16.0375 28.3313 16 28.3125 15.975 28.3313C15.95 28.35 16 28.3625 15.9625 28.4C15.925 28.4375 15.925 28.4375 15.9063 28.425C15.8875 28.4063 15.9188 28.3688 15.9188 28.3688L15.8813 28.35L15.8313 28.375C15.8 28.3875 15.7625 28.3938 15.7313 28.3875C15.6875 28.3875 15.6438 28.3938 15.6063 28.4L15.525 28.4313C15.45 28.3688 15.3813 28.2938 15.325 28.2188L15.2875 28.2813C15.2563 28.2438 15.2313 28.2 15.2188 28.15V28.1188C15.1438 28.1563 15.0188 28.0313 15.0188 28.0313C15.0188 28.0313 15.075 28.0563 15.0938 28.025L15.0438 27.9938C15.0125 27.9813 15 27.9688 15.025 27.9625L15.05 27.95L15.0125 27.925C14.9875 27.925 14.9625 27.9125 14.9375 27.9L14.9 27.8438L14.8063 27.7375C14.8125 27.7188 14.8188 27.7063 14.8188 27.6875C14.8188 27.6563 14.7688 27.6688 14.7688 27.6688L14.7625 27.7313C14.725 27.675 14.7 27.6063 14.6813 27.5438L14.7375 27.5C14.7375 27.5 14.7813 27.5 14.7813 27.4875C14.7813 27.45 14.7375 27.4438 14.7375 27.4438H14.7188H14.675C14.6688 27.4125 14.6688 27.3813 14.675 27.3438L14.725 27.3313C14.7375 27.325 14.7438 27.325 14.7563 27.3125L14.775 27.2438L14.85 27.2625L14.8625 27.2688V27.3438L14.9375 27.3813L14.9688 27.3625C15.0063 27.4 15.0375 27.4375 15.0688 27.475L15.0813 27.5438C15.1438 27.475 15.2125 27.4125 15.2938 27.3625C15.3375 27.3375 15.3813 27.325 15.4313 27.3063L15.4688 27.2938C15.4938 27.2875 15.5188 27.275 15.5438 27.2625L15.6 27.2313L15.65 27.2438C15.65 27.2438 15.6375 27.275 15.6438 27.2875L15.65 27.3C15.6625 27.3063 15.6688 27.3063 15.675 27.3C15.6875 27.2875 15.7 27.275 15.7125 27.2625C15.75 27.2188 15.6875 27.2125 15.7125 27.1938C15.7375 27.175 15.7938 27.1875 15.8313 27.1938C15.8563 27.1938 15.8875 27.1938 15.9125 27.1813C15.95 27.1688 15.9813 27.1875 16.0188 27.1813C16.0438 27.175 16.0688 27.1688 16.0938 27.1625H16.1375C16.175 27.175 16.2188 27.1875 16.2563 27.2063L16.275 27.2125C16.2938 27.2188 16.3625 27.2188 16.3813 27.2438L16.4375 27.2C16.4813 27.175 16.525 27.1625 16.575 27.1438C16.6125 27.1375 16.65 27.1188 16.6875 27.1L16.7438 27.0625L16.7938 27.075C16.7938 27.075 16.7688 27.1188 16.7938 27.1313C16.8188 27.1438 16.8188 27.1438 16.8563 27.1C16.8938 27.0563 16.8313 27.05 16.8563 27.0313H16.8688C16.9063 27.025 16.9375 27.025 16.975 27.0313C17 27.0375 17.025 27.0375 17.05 27.0313C17.0875 27.0188 17.1188 27.0375 17.1563 27.0313C17.1813 27.025 17.2063 27.0188 17.2313 27.0125H17.2375H17.25C17.2875 27.0063 17.325 26.9875 17.3625 26.9688C17.4125 27.075 17.2563 27.3063 17.2563 27.3063ZM18.0375 24.7438C18.025 24.75 18.0375 24.75 18.0375 24.7563V24.7688C18.0375 24.7813 18.025 24.7813 18.025 24.7938C17.95 24.7938 17.8688 24.775 17.8 24.75C17.6938 24.7 17.575 24.7 17.4688 24.75L16.9688 24.8L16.85 24.85V24.7813L16.8375 24.775L16.7688 24.7563H16.6938V24.7C16.6563 24.7375 16.6125 24.725 16.6063 24.6813C16.6 24.6375 16.5313 24.6375 16.5063 24.6313C16.4875 24.625 16.4375 24.5938 16.3938 24.5813H16.3563C16.3375 24.5813 16.3188 24.5875 16.3 24.6C16.2688 24.6125 16.25 24.5938 16.2188 24.6C16.1875 24.6063 16.1813 24.6188 16.15 24.6125C16.125 24.6063 16.075 24.5938 16.0563 24.6125C16.0375 24.6313 16.0875 24.6375 16.0563 24.6813C16.025 24.725 16.025 24.725 16.0063 24.7125C15.9875 24.7 16.0063 24.6563 16.0063 24.6563L15.9688 24.6438L15.925 24.6813C15.9 24.7 15.8688 24.7125 15.8313 24.725C15.7938 24.7375 15.7563 24.7563 15.725 24.775L15.6625 24.8313C15.5625 24.7938 15.4625 24.7625 15.3563 24.7375V24.8125L15.1 24.7563L15.0688 24.7438C15 24.8 14.9188 24.8375 14.825 24.8563C14.825 24.8563 14.875 24.8188 14.8625 24.7938L14.8063 24.8188C14.775 24.8438 14.7688 24.8438 14.7688 24.8188V24.7938L14.7313 24.8125C14.7188 24.8375 14.7 24.8563 14.675 24.8688L14.6125 24.8875L14.4875 24.9313C14.475 24.9188 14.4625 24.9125 14.45 24.9063C14.4188 24.8938 14.4188 24.95 14.4188 24.95L14.475 24.9813C14.425 24.9875 14.3688 24.9938 14.3125 25C14.2625 25.0188 14.3313 24.9188 14.3313 24.9188C14.3313 24.9188 14.4063 24.8813 14.4 24.85C14.3938 24.8188 14.2875 24.8313 14.2875 24.8313C14.2875 24.8313 14.225 24.7938 14.275 24.7C14.3 24.6688 14.2875 24.6188 14.2563 24.5938C14.25 24.5875 14.2438 24.5875 14.2375 24.5875C14.2 24.5313 14.175 24.4625 14.1563 24.4L14.0938 24.3563L14.1625 24.35H14.1688L14.1875 24.3188V24.2875H14.2563C14.2125 24.275 14.2313 24.2563 14.275 24.25C14.3188 24.2438 14.3188 24.2188 14.325 24.2125C14.3438 24.2 14.3563 24.1813 14.375 24.1688L14.3813 24.1563C14.3813 24.15 14.375 24.1438 14.3688 24.1313C14.3625 24.125 14.3813 24.1125 14.3688 24.1C14.3563 24.0875 14.3563 24.0813 14.3625 24.075C14.3688 24.0625 14.3813 24.05 14.3625 24.0375C14.3438 24.025 14.3375 24.05 14.2938 24.0313C14.25 24.0125 14.25 24.0125 14.2625 24.0063C14.275 24 14.3188 24.0063 14.3188 24.0063L14.3313 23.9938L14.3 23.975C14.2875 23.9625 14.275 23.95 14.2688 23.9313C14.2563 23.9125 14.2438 23.8938 14.225 23.875L14.1875 23.8125L14.3125 23.7125L14.2438 23.6938L14.2875 23.65C14.3125 23.6563 14.3438 23.65 14.3625 23.6313V23.7H14.4688L14.5625 23.7188L14.575 23.725V23.7938L14.6563 23.8313L14.6875 23.8125C14.725 23.8438 14.7625 23.8813 14.8 23.9188L14.8125 23.9875C14.8813 23.9125 14.9563 23.85 15.0375 23.8C15.0875 23.775 15.1313 23.7563 15.1875 23.7438L15.225 23.7313C15.25 23.725 15.2813 23.7125 15.3063 23.7L15.3625 23.6625L15.4188 23.675C15.4188 23.675 15.4 23.7063 15.4125 23.7188C15.4188 23.7188 15.425 23.7313 15.4313 23.7313C15.4438 23.7313 15.45 23.7375 15.4625 23.7313C15.475 23.7188 15.4875 23.7063 15.5 23.6938C15.5375 23.65 15.4688 23.6438 15.5 23.625C15.5438 23.6125 15.5875 23.6125 15.625 23.625C15.6563 23.625 15.6875 23.625 15.7125 23.6125C15.7563 23.6 15.7875 23.6188 15.8188 23.6125C15.8438 23.6063 15.8688 23.6 15.9 23.5938H15.95C15.9938 23.6063 16.0375 23.6188 16.075 23.6375L16.1 23.6438C16.125 23.6438 16.1938 23.6438 16.2188 23.675L16.2813 23.6313C16.3313 23.6063 16.3813 23.5875 16.4313 23.575C16.475 23.5688 16.5125 23.55 16.5563 23.5313L16.6188 23.4938L16.675 23.5063C16.675 23.5063 16.65 23.55 16.675 23.5625C16.7 23.575 16.7 23.575 16.7438 23.5313C16.7813 23.4875 16.7125 23.4813 16.7438 23.4625H16.7563C16.7938 23.4563 16.8313 23.4563 16.8688 23.4625C16.9 23.4688 16.9313 23.4625 16.9625 23.45C17.0063 23.4375 17.0313 23.4563 17.0688 23.45C17.0938 23.4438 17.125 23.4375 17.15 23.4313H17.1563H17.1688C17.2125 23.425 17.25 23.4063 17.2938 23.3875L17.3563 23.35L17.4125 23.3625C17.4125 23.3625 17.3875 23.4063 17.4125 23.4188C17.4375 23.4313 17.4375 23.4313 17.4813 23.3875C17.5188 23.3438 17.45 23.3375 17.4813 23.3188C17.525 23.3063 17.5688 23.3063 17.6063 23.3188C17.6375 23.325 17.6688 23.3188 17.7 23.3063H17.7938L17.7375 23.3375H17.775V23.3563C17.775 23.3563 17.7313 23.3688 17.725 23.3813C17.7188 23.3938 17.7188 23.3938 17.7625 23.3813C17.8063 23.3688 17.8063 23.35 17.825 23.35C17.8438 23.35 17.8438 23.375 17.8438 23.3875C17.8438 23.4 17.85 23.4 17.8625 23.4125C17.875 23.425 17.8625 23.4375 17.875 23.4438C17.8875 23.45 17.8938 23.4563 17.9 23.4625V23.4813C17.8875 23.5063 17.8813 23.525 17.8688 23.55C17.875 23.575 17.8563 23.6 17.8313 23.6063C17.7875 23.6188 17.775 23.6438 17.8188 23.65L17.75 23.6688L17.7563 23.7L17.7438 23.7313L17.7375 23.7375L17.6688 23.7563L17.6375 23.7875L17.6563 23.7938L17.55 23.85L17.4813 23.8688C17.5438 23.875 17.6125 23.8813 17.6688 23.9063C17.6875 23.9188 17.7125 23.9313 17.725 23.9438L17.7375 23.9563C17.75 23.9625 17.7563 23.975 17.7688 23.9813L17.8063 23.9938L17.7938 24.0125C17.775 24.0125 17.7625 24.0125 17.7438 24.0125H17.7313V24.025L17.7688 24.0313C17.8125 24.0438 17.8188 24.0188 17.8375 24.025C17.8563 24.0313 17.85 24.0563 17.8375 24.0688C17.825 24.0813 17.8375 24.0813 17.85 24.1C17.8625 24.1125 17.8438 24.125 17.85 24.1375C17.8563 24.15 17.8688 24.1563 17.8688 24.1625V24.1813C17.8563 24.1938 17.8375 24.2125 17.825 24.2188L17.8188 24.225C17.8125 24.2313 17.8125 24.2563 17.7875 24.2625L17.8313 24.2813C17.85 24.2938 17.8625 24.3125 17.875 24.3313C17.8813 24.35 17.8938 24.3625 17.9125 24.375L17.9438 24.4C17.9375 24.4063 17.9375 24.4125 17.9313 24.4188C17.9313 24.4188 17.8875 24.4063 17.875 24.4125C17.8625 24.4188 17.8625 24.4188 17.9 24.4375C17.9375 24.4563 17.95 24.4375 17.9688 24.45C17.9813 24.4625 17.9688 24.475 17.9563 24.4875C17.9438 24.5 17.9563 24.5 17.9625 24.5188C17.9688 24.5375 17.95 24.5375 17.9563 24.55C17.9625 24.5563 17.9625 24.5688 17.9688 24.5813C17.975 24.6 17.9875 24.6188 18 24.6313L18.0313 24.6563L18.0125 24.6688C18.0125 24.6688 17.9688 24.65 17.9563 24.65C17.9438 24.6563 17.9438 24.65 17.9813 24.6813C18.0188 24.7125 18.0313 24.6875 18.05 24.7C18.0625 24.7313 18.0438 24.7375 18.0375 24.7438ZM23.2688 12.1438C23.2813 12.2875 23.3375 12.0563 23.3375 12.1563V12.1938C23.3188 12.325 23.2875 12.4563 23.25 12.5813C23.2188 12.6813 23.1938 12.7875 23.175 12.8875C23.1438 13.0125 23.1063 13.1375 23.0563 13.2563L22.975 13.5313L22.9625 13.5563L22.95 13.6C22.8438 13.9188 22.8188 14.025 22.8188 14.025C22.8 14.0938 22.7875 14.1625 22.7625 14.2375L22.6625 14.4125C22.6625 14.4125 22.6625 14.3063 22.6125 14.3875C22.5625 14.4563 22.5375 14.5375 22.5375 14.6188C22.5125 14.7688 22.6313 14.5438 22.6 14.65C22.5375 14.7938 22.4625 14.9313 22.375 15.0625L22.2125 15.3625L22 15.7125L21.8438 15.975L21.7375 16.1313C21.6063 16.3125 21.425 16.4875 21.3688 16.5625C21.3125 16.6375 21.0813 16.95 21.0313 16.9313C20.9813 16.9125 20.8313 17.1 20.75 17.2688L20.6938 17.225L20.4438 17.5438L20.1938 17.8125L20.1625 17.8438L20.1063 17.8L19.8813 18.0313L19.8125 18.1563L19.4688 18.4438C19.3813 18.5938 19.4563 18.5313 19.3938 18.7C19.35 18.8375 19.3313 18.9813 19.35 19.125C19.2125 19.2938 19.0875 19.475 18.9875 19.675C18.7625 20.1 18.9875 19.675 18.775 20.1938C18.5938 20.7313 18.7375 20.6125 18.5438 21.0625L18.525 21.1063C18.4438 21.125 18.3688 21.15 18.2938 21.1813C18.1438 21.2063 17.9938 21.1875 17.85 21.1438C17.7313 21.1 17.5938 21.1 17.475 21.15L16.9125 21.2063L16.775 21.2625V21.1938L16.7625 21.1875L16.6875 21.1688H16.6V21.1C16.5625 21.1438 16.5063 21.125 16.5063 21.0813C16.5 21.0375 16.4188 21.0375 16.4 21.0313C16.3563 21.0125 16.3188 20.9938 16.275 20.9813H16.25C16.225 20.9875 16.2063 20.9875 16.1813 21C16.15 21.0125 16.125 20.9938 16.0875 21C16.05 21.0063 16.0438 21.0188 16.0125 21.0125C15.9813 21.0063 15.9313 20.9938 15.9063 21.0125C15.8813 21.0313 15.9375 21.0375 15.9063 21.0813C15.875 21.125 15.875 21.125 15.85 21.1125C15.825 21.1 15.85 21.0563 15.85 21.0563L15.8 21.0438L15.75 21.0813C15.7188 21.1 15.6813 21.1188 15.6438 21.125C15.6 21.1375 15.5563 21.1563 15.5188 21.1813L15.45 21.2375C15.3375 21.2 15.2188 21.1688 15.1 21.1438V21.2188L14.8063 21.1625L14.775 21.15C14.6938 21.2063 14.6 21.25 14.5063 21.2625C14.5063 21.2625 14.5625 21.225 14.5438 21.2L14.4813 21.225C14.45 21.25 14.4375 21.25 14.4375 21.225V21.2L14.3938 21.2188C14.375 21.2438 14.3563 21.2625 14.3313 21.275L14.2625 21.2938L14.125 21.3375C14.1125 21.325 14.0938 21.3188 14.0813 21.3125C14.05 21.3 14.05 21.3563 14.05 21.3563L14.1125 21.3875C14.0375 21.4 13.9688 21.4063 13.8938 21.4063L13.8563 21.3438C13.8563 21.3438 13.875 21.3 13.8563 21.3C13.8313 21.2938 13.8 21.3063 13.7875 21.3313V21.3563L13.7813 21.4L13.7188 21.3938C13.7 21.3625 13.675 21.3313 13.6438 21.3063C13.6125 21.1625 13.5813 21.0188 13.5313 20.875C13.5 20.7313 13.45 20.5938 13.4125 20.45C13.3125 20.2 13.2063 19.95 13.0813 19.7125L13.025 19.5938C12.8063 19.3 12.6125 18.9813 12.4563 18.65C12.4563 18.65 12.8313 19.0188 12.3813 18.3875C12.125 18.0313 11.8375 17.7125 11.5125 17.425C11.1875 17.0438 10.8938 16.6313 10.65 16.1938C10.45 15.8313 10.225 15.4813 9.96875 15.15C9.64375 14.6438 9.35625 14.1063 9.11875 13.5563L8.925 13.175L8.9875 13.15V13.125C8.96876 13.05 8.95 12.975 8.9375 12.8938L8.8625 12.6375L8.93125 12.6188C8.85 12.5125 8.84375 12.35 8.8875 12.3313C8.93125 12.3125 8.875 12.0688 8.875 12C8.86875 11.9313 8.8875 11.775 8.875 11.625C8.875 11.5875 8.8625 11.5438 8.8625 11.5C8.85626 11.425 8.84375 11.375 8.8375 11.3063C8.825 11.2125 8.83751 11.1438 8.81876 11.0375C8.81251 10.9625 8.80625 10.8875 8.8125 10.8125C8.825 10.7063 8.82501 10.6063 8.81876 10.5C8.80626 10.425 8.7875 10.5938 8.75 10.5C8.71875 10.4063 8.7125 10.3938 8.73125 10.3313C8.75 10.2688 8.78751 10.3313 8.78751 10.3313L8.8125 10.1938L8.78751 10.0438C8.78126 9.9375 8.7875 9.83125 8.79375 9.73125L8.8125 9.34375L8.8 9.11875C8.9125 8.7875 9.05 8.4625 9.20625 8.15L9.125 8.125C9.25 7.8625 9.39375 7.6 9.55 7.35625C9.56875 7.33125 9.58125 7.3 9.60625 7.275C9.65625 7.1125 9.71876 6.95 9.8 6.8C9.85 6.7 9.90625 6.60625 9.96875 6.5125C9.96875 6.5125 9.89375 6.675 9.95 6.65V6.64375L10.0438 6.46875C10.0813 6.375 10.1063 6.34375 10.125 6.35625L10.1438 6.375C10.1688 6.3375 10.1875 6.29375 10.2125 6.25C10.2313 6.1875 10.2563 6.13125 10.2875 6.075L10.4125 5.9C10.4938 5.775 10.5813 5.65625 10.6813 5.54375C10.725 5.51875 10.7625 5.49375 10.8 5.4625C10.8813 5.4 10.85 5.35625 10.85 5.35625L10.6938 5.475C10.8438 5.3 11.0063 5.1375 11.1875 4.99375L11.3125 4.96875C11.3125 4.96875 11.2938 5.04375 11.3375 5C11.3938 4.95625 11.4438 4.9 11.4813 4.84375L11.4688 4.825V4.775C11.6125 4.675 11.75 4.575 11.8875 4.4875H11.9813L12.1125 4.43125L12.3125 4.33125C12.35 4.31875 12.3938 4.31875 12.4375 4.31875L12.625 4.2375L12.725 4.175L12.775 4.1625L12.8563 4.1375C12.925 4.1125 12.9375 4.075 12.9375 4.0625V4.05L12.7563 4.10625C12.9063 3.98125 13.0688 3.875 13.2375 3.7875L13.3188 3.8H13.3625C13.3625 3.8 13.325 3.8625 13.3813 3.84375C13.45 3.81875 13.5125 3.7875 13.5625 3.7375L13.5563 3.71875V3.6875L13.5625 3.65625C13.7 3.61875 13.8063 3.5375 13.9438 3.5L14.0125 3.48125C14.0625 3.4375 14.1188 3.4 14.175 3.35625H14.3188L14.5125 3.20625C14.5563 3.20625 14.5938 3.21875 14.6313 3.24375C14.7313 3.24375 14.8063 3.14375 14.8625 3.1375H15C15.0563 3.03125 15.1063 3.19375 15.1188 3.1C15.1188 3.1 15.2188 3.11875 15.4625 2.9875L15.4938 2.96875C15.8625 3.00625 16.2688 3.05 16.6438 3.11875L16.9313 3.125C17.275 3.16875 17.325 3.38125 17.325 3.38125L17.5375 3.3875L17.725 3.4375C17.725 3.4375 17.6188 3.4625 17.7125 3.49375C17.7875 3.525 17.8688 3.5375 17.9438 3.525C18.0875 3.525 17.8563 3.44375 17.9625 3.45625C18.1063 3.4875 18.25 3.53125 18.3875 3.58125L18.6938 3.675L19.05 3.81875C19.1375 3.84375 19.2313 3.875 19.3125 3.9125L19.4688 4C19.6438 4.10625 19.825 4.2375 19.8938 4.2875C19.9625 4.3375 20.25 4.53125 20.2313 4.58125C20.2125 4.625 20.3875 4.75 20.5313 4.83125L20.4875 4.8875L20.7563 5.1C20.8313 5.16875 20.9063 5.24375 20.9688 5.31875L20.9938 5.35L20.9438 5.4L21.1 5.6125L21.1938 5.68125C21.25 5.79375 21.2938 5.9125 21.3375 6.03125L21.3125 6.10625C21.5313 6.25 21.7313 6.41875 21.9 6.60625C22.0063 6.7375 22.1063 6.86875 22.2 7.0125L22.2813 7.1375L22.425 7.375L22.5438 7.54375L22.6125 7.71875C22.6125 7.71875 22.5625 7.675 22.5563 7.70625V7.7375C22.5625 7.76875 22.575 7.8 22.5875 7.83125C22.6125 7.86875 22.6375 7.90625 22.6688 7.9375C22.7563 8.05 22.6813 7.825 22.7313 7.9125C22.8 8.04375 22.85 8.18125 22.8813 8.325C22.9063 8.43125 22.9438 8.53125 22.9875 8.63125C23.025 8.75625 23.0625 8.88125 23.0875 9.00625L23.1688 9.275L23.2063 9.45L23.2313 9.8875V9.9625C23.2438 10.1 23.2438 10.2375 23.2313 10.375C23.2563 10.4438 23.275 10.5125 23.2875 10.5813C23.3 10.6875 23.3313 10.875 23.3438 11.0875C23.3375 11.225 23.3438 11.3688 23.3563 11.5063C23.3625 11.575 23.3688 11.6438 23.3688 11.7125L23.3313 11.9C23.3313 11.9 23.3 11.8 23.275 11.8938C23.2438 11.9813 23.2438 12.0625 23.2688 12.1438Z" fill="#0041E6"/>
<path d="M21.4625 10.375C21.4687 9.98751 21.375 9.97501 21.375 9.95001L21.225 9.48751L21.15 9.38126L21.2187 9.36876L21.225 9.35626V9.28751L21.2062 9.21251L21.275 9.20001C21.2312 9.17501 21.2312 9.12501 21.275 9.11251C21.3187 9.10001 21.3062 9.03126 21.3062 9.00626C21.3187 8.96876 21.325 8.93126 21.3375 8.88751V8.85001C21.3312 8.83126 21.3187 8.81251 21.3062 8.79376C21.2937 8.76876 21.3062 8.74376 21.2875 8.71876C21.2687 8.68751 21.275 8.68751 21.275 8.66251C21.275 8.63751 21.275 8.58751 21.2562 8.57501C21.2375 8.55626 21.2375 8.60626 21.1875 8.58751C21.1375 8.56876 21.1375 8.56876 21.1437 8.55001C21.15 8.52501 21.2 8.53751 21.2 8.53751V8.49376L21.1562 8.46251C21.1312 8.44376 21.1125 8.41251 21.1 8.38751C21.0812 8.35001 21.0562 8.31876 21.025 8.29376L20.9562 8.24376C20.975 8.12501 20.9812 8.00626 20.975 7.88751L20.9062 7.90626C20.9 7.80001 20.8875 7.69376 20.8687 7.57501V7.53751C20.775 7.45626 20.7 7.35626 20.6375 7.25001C20.6375 7.25001 20.7 7.30626 20.7187 7.27501L20.6625 7.20626C20.625 7.17501 20.6125 7.16251 20.6375 7.15001L20.6562 7.13751L20.6125 7.08751C20.5812 7.07501 20.55 7.06251 20.525 7.03751L20.4625 6.96251L20.3187 6.81251C20.3187 6.78751 20.3125 6.76251 20.3062 6.74376C20.2937 6.69376 20.2437 6.72501 20.2437 6.72501L20.2687 6.81251L20.0625 6.57501L20.075 6.49376C20.075 6.49376 20.125 6.48751 20.1062 6.46251C20.0875 6.43126 20.05 6.41251 20.0187 6.41251L20.0062 6.42501L19.9687 6.45001L19.8187 6.28751L19.825 6.22501L19.8062 6.16251L19.7437 6.08751C19.7375 6.06251 19.7375 6.03751 19.7437 6.01251L19.6812 5.95001L19.6312 5.93126L19.6187 5.90626L19.6 5.87501C19.5812 5.85001 19.5562 5.86251 19.5437 5.87501L19.5375 5.88126L19.5812 5.95001C19.5 5.90626 19.4125 5.95001 19.3437 5.90626V5.85626V5.83126C19.3437 5.83126 19.3812 5.80626 19.3687 5.79376C19.3437 5.77501 19.3125 5.76876 19.2875 5.78126L19.275 5.80001L19.2625 5.81251L19.2437 5.83126C19.2 5.80001 19.1375 5.81876 19.1 5.79376L19.0812 5.78126L18.9875 5.82501L18.9562 5.77501L18.8437 5.83751C18.8375 5.81876 18.8375 5.79376 18.8375 5.76876C18.8125 5.74376 18.75 5.81876 18.7312 5.80626L18.7 5.78126C18.6375 5.85626 18.7 5.70626 18.6562 5.78751C18.6562 5.78751 18.6437 5.74376 18.5187 5.83751C18.3937 5.93126 18.3875 5.95626 18.3875 5.95626C18.3625 5.97501 18.3375 6.00001 18.325 6.03126C18.275 6.10001 18.2625 6.18126 18.3 6.20626C18.3375 6.23126 18.25 6.33751 18.25 6.33751C18.2375 6.36876 18.2562 6.40626 18.2812 6.41876C18.3312 6.44376 18.2187 6.50001 18.1562 6.53126C18.0937 6.56251 18.05 6.71876 18.0312 6.75626C18.0125 6.79376 17.85 6.98751 17.8875 7.05001C17.9125 7.08751 17.95 7.11251 17.9937 7.11251C17.9937 7.11251 17.8875 7.26251 17.9375 7.33751L17.9875 7.40626C18.0562 7.48751 18.1312 7.56251 18.2062 7.63126L18.2625 7.63751C18.3312 7.65001 18.2312 7.82501 18.2312 7.82501L18.275 7.81251L18.2937 7.83751C18.2937 7.83751 18.2562 7.86876 18.2625 7.88126C18.2687 7.90001 18.2625 7.90001 18.3062 7.87501C18.35 7.85001 18.325 7.82501 18.35 7.81876C18.375 7.81251 18.3875 7.84376 18.4 7.85626C18.4062 7.87501 18.4187 7.86876 18.4375 7.87501C18.4562 7.88126 18.4562 7.90001 18.4687 7.90626C18.4812 7.90626 18.4937 7.91251 18.5 7.91876L18.5062 7.93751C18.5125 7.96251 18.4937 8.00001 18.4937 8.00626C18.5062 8.03126 18.4937 8.05626 18.475 8.06876C18.4375 8.09376 18.4312 8.11876 18.475 8.11251L18.4125 8.14376L18.4312 8.17501V8.21251V8.21876L18.3687 8.25001L18.3437 8.29376H18.3687C18.3437 8.32501 18.3125 8.35001 18.2812 8.37501L18.2125 8.41251C18.2875 8.41251 18.3625 8.43751 18.425 8.46876C18.4562 8.49376 18.4812 8.51876 18.5 8.55001L18.5187 8.57501C18.5312 8.59376 18.5437 8.61251 18.5625 8.62501L18.6062 8.66251V8.70626C18.5937 8.70001 18.575 8.70001 18.5625 8.70626L18.5562 8.71876V8.74376C18.5687 8.75626 18.5812 8.76251 18.6 8.76876C18.65 8.78751 18.6437 8.73126 18.6687 8.75001C18.6937 8.76876 18.6937 8.82501 18.6937 8.85626C18.6937 8.88126 18.7062 8.91251 18.7187 8.93126C18.7375 8.96876 18.7187 8.99376 18.7375 9.02501C18.75 9.04376 18.7625 9.06876 18.7687 9.08751V9.13126C18.7687 9.16876 18.7562 9.21251 18.75 9.25001V9.26876C18.75 9.28751 18.7625 9.35001 18.7375 9.37501L18.7937 9.41876C18.825 9.45626 18.85 9.49376 18.875 9.53751C18.8875 9.57501 18.9125 9.60626 18.9375 9.63126L18.9812 9.67501V9.72501C18.9812 9.72501 18.9312 9.71251 18.925 9.73751C18.9187 9.76251 18.925 9.76251 18.9687 9.78751C19.0125 9.81251 19.0125 9.75001 19.0375 9.77501V9.78126C19.05 9.81251 19.0562 9.85001 19.0562 9.88126C19.0562 9.90626 19.0687 9.93751 19.0812 9.95626C19.1 9.99376 19.0812 10.0188 19.1 10.05C19.1125 10.0688 19.125 10.0938 19.1312 10.1125V10.1188L19.1375 10.1313C19.15 10.1688 19.175 10.2 19.2 10.225L19.2437 10.2688V10.3188C19.2437 10.3188 19.1937 10.3063 19.1875 10.3313C19.1812 10.3563 19.1812 10.3563 19.2312 10.3813C19.2812 10.4063 19.275 10.3438 19.3 10.3688C19.325 10.3875 19.325 10.4438 19.325 10.475C19.325 10.5 19.3375 10.5313 19.35 10.55C19.3687 10.5813 19.35 10.5875 19.3625 10.6C19.375 10.6125 19.3812 10.6188 19.3875 10.625V10.6438C19.3812 10.6688 19.3437 10.6875 19.3437 10.7C19.3375 10.7063 19.3437 10.7438 19.2937 10.7375C19.2437 10.7375 19.2312 10.75 19.275 10.7688L19.2062 10.7563V10.7813L19.1812 10.8H19.175L19.1 10.7813H19.0562L19.075 10.7938C19.0375 10.7875 19.0062 10.7813 18.9687 10.7688C18.9812 10.7813 19.0062 10.7875 19.05 10.8125L19.225 10.9188C19.2062 10.9188 19.1875 10.925 19.175 10.9375C19.1562 10.9625 19.175 10.9375 19.1937 10.9938C19.2125 11.05 19.3 11.0813 19.2125 11.125C19.1437 11.1625 19.1 11.2313 19.0875 11.3063C19.0937 11.35 19.1 11.3938 19.1 11.4438C19.0937 11.4875 19.1 11.5313 19.1187 11.575C19.1187 11.575 19.1 11.65 19.225 11.7C19.35 11.75 19.1562 11.7625 19.2312 11.7813C19.3937 11.9 19.5875 11.975 19.7875 12.0063C19.9312 12.05 19.9 12.0188 20.0437 12.1C20.125 12.1375 19.975 12.0875 20.2625 12.2063L20.3187 12.225C20.3625 12.2438 20.4 12.2625 20.4375 12.2875L20.5562 12.3563C20.6187 12.3813 20.6062 12.3938 20.7125 12.325L20.8562 12.2438C20.9312 12.1813 21.0062 12.1188 21.0812 12.0438L21.1187 12.0125C21.1187 11.8875 21.3812 11.6688 21.3812 11.6688C21.3812 11.6688 21.3812 11.9 21.5125 11.6C21.5875 11.4188 21.5937 11.2188 21.5312 11.0313C21.475 11.0563 21.45 10.7063 21.4625 10.375Z" fill="#0041E6"/>
<path d="M20.5813 15.2187C20.5813 15.2187 20.6125 15.25 20.6188 15.2437C20.625 15.2375 20.6063 15.2 20.6063 15.2L20.5813 15.1875L20.5688 15.175L20.55 15.1562C20.5625 15.1375 20.5313 15.1 20.55 15.0875L20.5563 15.0812L20.5 15.0125H20.5375L20.4625 14.9312C20.4813 14.9312 20.5 14.9375 20.5188 14.9437C20.5313 14.9375 20.4625 14.8812 20.4688 14.875L20.4875 14.8625C20.4125 14.8062 20.55 14.8812 20.475 14.8375C20.475 14.8375 20.5125 14.8375 20.4125 14.7437C20.375 14.7062 20.3313 14.6687 20.2875 14.6375L20.2063 14.575C20.1375 14.525 20.0625 14.4937 20.05 14.5125C20.0313 14.525 19.925 14.4437 19.925 14.4437C19.925 14.4437 19.8688 14.4187 19.8563 14.4437C19.8438 14.4687 19.775 14.3812 19.7375 14.3375C19.6688 14.2812 19.5938 14.2375 19.5188 14.2C19.4313 14.1312 19.3375 14.075 19.2375 14.0312C19.1875 14.0375 19.2 14.075 19.2 14.075C19.2 14.075 19.05 13.9687 18.9938 13.9812L18.9438 13.9875C18.8875 14 18.8313 14.0312 18.7875 14.0625V14.1C18.7875 14.1375 18.6125 14.0375 18.6125 14.0375L18.6313 14.075L18.6125 14.0875C18.6125 14.0875 18.5813 14.0562 18.5625 14.0562C18.55 14.0562 18.55 14.0562 18.575 14.0937C18.6063 14.1312 18.625 14.1125 18.6313 14.1312C18.6438 14.15 18.6188 14.1625 18.6063 14.1687C18.5938 14.175 18.6 14.1812 18.5938 14.2C18.5938 14.2187 18.575 14.2187 18.5688 14.2312V14.2625L18.5563 14.275C18.5313 14.2812 18.5063 14.2875 18.4813 14.2875C18.4688 14.2875 18.45 14.3187 18.4125 14.2937C18.375 14.2687 18.35 14.275 18.3688 14.3125L18.3125 14.275L18.2938 14.3062L18.2563 14.3187H18.25L18.2 14.2812H18.1563L18.1688 14.3062L18.0563 14.2687L17.9938 14.2312C18.0313 14.2875 18.0625 14.3437 18.0875 14.4062C18.0938 14.4312 18.1 14.4562 18.0938 14.4812V14.5V14.5437L18.1063 14.5812L18.0813 14.5875C18.0688 14.575 18.0563 14.5625 18.0438 14.5562H18.0313C18.025 14.5562 18.025 14.5562 18.0188 14.5625C18.0188 14.5625 18.025 14.575 18.0375 14.5937C18.0625 14.6312 18.0813 14.6187 18.0938 14.6375C18.1063 14.6562 18.075 14.6687 18.0625 14.675C18.05 14.6812 18.05 14.6875 18.05 14.7062C18.0438 14.725 18.025 14.7187 18.025 14.7375C18.025 14.75 18.025 14.7625 18.0188 14.7687L18.0063 14.7812C17.9875 14.7875 17.9625 14.7875 17.9438 14.7875H17.9313C17.9188 14.7875 17.9063 14.8125 17.875 14.8L17.8938 14.8437C17.9 14.8687 17.9 14.8937 17.8938 14.9187C17.8875 14.9375 17.8875 14.9625 17.8938 14.9812L17.9063 15.0187L17.8813 15.025C17.8813 15.025 17.8563 14.9875 17.8375 14.9875C17.8188 14.9875 17.825 14.9875 17.8438 15.025C17.8688 15.0625 17.8875 15.05 17.8938 15.0687C17.8938 15.0875 17.875 15.0937 17.8625 15.1C17.85 15.1062 17.85 15.1125 17.85 15.1312C17.8438 15.15 17.825 15.1437 17.825 15.1625C17.825 15.175 17.825 15.1875 17.8188 15.1937V15.2C17.8125 15.2187 17.8125 15.2437 17.8188 15.2625L17.8313 15.3L17.8063 15.3062C17.8063 15.3062 17.7813 15.2687 17.7625 15.2687C17.7438 15.2687 17.7438 15.2687 17.7688 15.3062C17.7938 15.3437 17.8125 15.3312 17.8188 15.35C17.825 15.3687 17.8 15.3812 17.7875 15.3875C17.775 15.3937 17.775 15.4 17.7688 15.4187C17.7625 15.4375 17.7438 15.4312 17.7375 15.45C17.7375 15.4625 17.7313 15.475 17.7313 15.4812L17.7125 15.4937C17.6875 15.5 17.6625 15.5 17.6313 15.5C17.6188 15.5 17.5938 15.5312 17.5563 15.5C17.5188 15.4687 17.4938 15.475 17.5125 15.5187L17.4625 15.475L17.4375 15.5062L17.4 15.5187H17.3938L17.3375 15.4687H17.3125V15.4937L17.2063 15.45C17.2063 15.4687 17.2313 15.4875 17.2563 15.525C17.2938 15.5812 17.3313 15.6312 17.375 15.6875C17.35 15.6875 17.3313 15.6937 17.3125 15.7125C17.2813 15.7437 17.3125 15.7125 17.3125 15.7812C17.3125 15.85 17.3875 15.9 17.3313 15.9062C17.3 15.9062 17.2875 15.9125 17.2938 15.9625L17.3375 16.0437C17.35 16.0687 17.3625 16.0937 17.3813 16.1187C17.3813 16.1187 17.3813 16.1437 17.4813 16.2312C17.5813 16.3187 17.4375 16.225 17.5 16.275C17.6375 16.425 17.7813 16.5562 17.9375 16.6812C18.0125 16.7312 18.0875 16.7875 18.15 16.8562C18.2125 16.9187 18.0938 16.8187 18.3125 17.0437C18.35 17.0875 18.3938 17.125 18.45 17.1562C18.4813 17.1625 18.5188 17.175 18.55 17.1937C18.6063 17.2375 18.55 17.1625 18.6188 17.225C18.6625 17.2187 18.7125 17.2125 18.7563 17.1937L18.825 17.2L18.9188 17.175H18.9375C18.9 17.1 19.0625 17.1375 19.0625 17.1375C19.0625 17.1375 19.0875 17.2312 19.1563 17.1812C19.225 17.1312 19.1875 17.0125 19.1875 17.0125C19.2125 16.95 19.275 16.9125 19.3438 16.9062C19.4 16.9062 19.45 16.8562 19.45 16.8C19.45 16.7937 19.45 16.7937 19.45 16.7875L19.575 16.575V16.4937L19.625 16.5375H19.6313L19.6688 16.525L19.6938 16.5L19.7438 16.5437C19.725 16.5062 19.75 16.5 19.7875 16.525C19.825 16.5562 19.85 16.525 19.8563 16.525C19.8813 16.525 19.9063 16.525 19.9313 16.5187L19.9438 16.5062C19.95 16.4937 19.95 16.4812 19.95 16.475C19.95 16.4562 19.975 16.4625 19.975 16.4437C19.9813 16.425 19.975 16.4187 19.9875 16.4125C20 16.4062 20.025 16.3937 20.0188 16.375C20.0125 16.3562 19.9875 16.375 19.9625 16.3312C19.9375 16.2875 19.9375 16.2937 19.95 16.2937C19.9625 16.2937 19.9938 16.3312 19.9938 16.3312L20.0188 16.325L20.0063 16.2875C20 16.2687 20 16.25 20.0063 16.225C20.0125 16.2 20.0125 16.175 20.0063 16.15L19.9813 16.0875C20.0375 16.075 20.1 16.0562 20.1563 16.0312L20.1 15.9875L20.225 15.9187L20.2438 15.9125C20.2188 15.8625 20.2125 15.8062 20.2313 15.75C20.2375 15.775 20.25 15.7937 20.2688 15.8062V15.7687C20.2563 15.7437 20.2625 15.7375 20.2813 15.75L20.3 15.7625V15.7375C20.2875 15.7187 20.275 15.7 20.2688 15.6812V15.65V15.575H20.3C20.3188 15.575 20.275 15.5375 20.275 15.5375H20.2375C20.25 15.5062 20.2625 15.475 20.2813 15.45L20.3438 15.475C20.3438 15.475 20.375 15.5062 20.3813 15.5C20.3875 15.4937 20.375 15.4562 20.375 15.4562L20.3563 15.4437L20.3188 15.4187C20.3375 15.4 20.3563 15.3812 20.375 15.3687L20.4188 15.3875H20.4563L20.4938 15.3687C20.5125 15.375 20.5313 15.3812 20.55 15.3875L20.575 15.3687V15.35H20.5875H20.6063C20.625 15.35 20.6063 15.3312 20.5875 15.3187L20.5813 15.3125L20.5438 15.3187C20.5563 15.2875 20.4938 15.225 20.5125 15.1937L20.5563 15.2062L20.5813 15.2187Z" fill="#0041E6"/>
<path d="M25.275 3.7875C25.3125 3.93125 25.3312 3.95 25.3312 3.95C25.3437 3.98125 25.3562 4.0125 25.375 4.0375C25.4187 4.10625 25.4875 4.15625 25.5187 4.14375C25.55 4.13125 25.6187 4.25 25.6187 4.25C25.6187 4.25 25.6625 4.29375 25.6937 4.26875C25.725 4.24375 25.7437 4.35625 25.7562 4.41875C25.7687 4.48125 25.8875 4.59375 25.9125 4.625C25.9375 4.65625 26.075 4.86875 26.125 4.875C26.175 4.88125 26.1812 4.84375 26.1812 4.84375C26.1812 4.84375 26.2875 5 26.3375 5.00625L26.3937 5.01875C26.4562 5.025 26.525 5.01875 26.5875 5.00625C26.5937 4.99375 26.6 4.98125 26.6062 4.96875C26.6312 4.925 26.7375 5.09375 26.7375 5.09375L26.7437 5.05H26.775C26.775 5.05 26.7875 5.09375 26.8 5.1C26.8187 5.10625 26.8187 5.1 26.8125 5.05625C26.8125 5.0125 26.775 5.01875 26.7812 4.99375C26.7875 4.96875 26.8187 4.96875 26.8437 4.9625C26.8625 4.95625 26.8687 4.95 26.8812 4.93125C26.9 4.9125 26.9187 4.91875 26.9375 4.90625C26.95 4.89375 26.9562 4.88125 26.9687 4.86875L27 4.85625C27.0375 4.85625 27.0875 4.86875 27.1062 4.8625C27.125 4.8625 27.1812 4.83125 27.2062 4.875C27.2312 4.9125 27.275 4.9125 27.2875 4.8625L27.3187 4.925L27.3812 4.89375L27.4437 4.88125H27.4562L27.4875 4.94375L27.55 4.95L27.5625 4.91875C27.6 4.9375 27.6375 4.95625 27.675 4.98125L27.7125 5.0375C27.7187 4.95625 27.7312 4.875 27.7562 4.8C27.7687 4.7625 27.7937 4.73125 27.8187 4.70625L27.8375 4.68125C27.85 4.6625 27.8625 4.64375 27.8687 4.625L27.8875 4.575L27.925 4.56875C27.925 4.5875 27.9312 4.6 27.9437 4.6125L27.9562 4.61875C27.9687 4.61875 27.975 4.61875 27.975 4.6125C27.975 4.6 27.975 4.58125 27.975 4.56875C27.975 4.51875 27.9312 4.5375 27.9375 4.50625C27.9437 4.48125 27.9875 4.46875 28.0125 4.4625C28.0375 4.45625 28.0375 4.44375 28.0562 4.425C28.075 4.4 28.1 4.40625 28.1187 4.3875C28.1312 4.375 28.1437 4.35625 28.1562 4.34375L28.1875 4.33125C28.2187 4.325 28.25 4.325 28.2812 4.33125H28.3C28.3187 4.33125 28.3562 4.30625 28.3875 4.31875L28.4 4.2625C28.4125 4.23125 28.4312 4.19375 28.4562 4.16875C28.475 4.14375 28.4937 4.11875 28.5 4.09375L28.5125 4.04375L28.55 4.0375C28.55 4.0375 28.5625 4.0875 28.5812 4.0875C28.6 4.0875 28.6 4.0875 28.6 4.0375C28.6 3.9875 28.5562 4.00625 28.5625 3.98125V3.975C28.575 3.95625 28.6062 3.94375 28.6312 3.9375C28.65 3.93125 28.6562 3.91875 28.675 3.9C28.6937 3.88125 28.7187 3.88125 28.7312 3.8625C28.7375 3.85 28.75 3.83125 28.7625 3.825V3.81875C28.7812 3.79375 28.7937 3.76875 28.8 3.74375L28.8125 3.69375L28.85 3.6875C28.85 3.6875 28.8625 3.73125 28.8812 3.73125C28.9 3.73125 28.9 3.73125 28.9 3.68125C28.8937 3.63125 28.8562 3.65 28.8625 3.625C28.8687 3.6 28.9062 3.5875 28.925 3.58125C28.9437 3.575 28.95 3.5625 28.9625 3.54375C28.9812 3.51875 29.0062 3.525 29.0187 3.50625C29.025 3.49375 29.0375 3.475 29.05 3.4625L29.0812 3.45C29.1187 3.44375 29.15 3.44375 29.1875 3.44375C29.2062 3.44375 29.2562 3.40625 29.2812 3.44375C29.3125 3.48125 29.35 3.475 29.35 3.425L29.3875 3.48125L29.4375 3.44375L29.4937 3.43125H29.5062L29.5437 3.49375H29.6062L29.625 3.4375C29.6625 3.45625 29.7 3.46875 29.7375 3.49375C29.75 3.46875 29.725 3.45 29.7187 3.4C29.7062 3.33125 29.6812 3.26875 29.6562 3.20625C29.6875 3.20625 29.7187 3.2 29.7437 3.18125C29.8 3.14375 29.7437 3.18125 29.7812 3.1C29.8187 3.01875 29.75 2.95625 29.825 2.95C29.8625 2.95 29.8875 2.94375 29.9 2.8875C29.8937 2.85625 29.8875 2.825 29.8875 2.79375C29.8875 2.7625 29.8812 2.73125 29.875 2.70625C29.875 2.70625 29.8875 2.675 29.8125 2.56875C29.7375 2.4625 29.8625 2.58125 29.8125 2.51875C29.725 2.3375 29.6125 2.175 29.4812 2.025C29.3875 1.90625 29.3875 1.95625 29.3125 1.8125C29.275 1.73125 29.3625 1.8625 29.2062 1.5875C29.1875 1.53125 29.15 1.48125 29.1 1.45C29.0625 1.4375 29.025 1.425 28.9937 1.4C28.95 1.35 28.9687 1.4375 28.925 1.3625C28.8625 1.36875 28.8 1.375 28.7375 1.39375L28.6562 1.38125L28.5312 1.4H28.5062C28.5062 1.4875 28.3312 1.4375 28.3312 1.4375C28.3312 1.4375 28.3562 1.325 28.2437 1.38125C28.175 1.41875 28.125 1.49375 28.1187 1.575C28.0562 1.6375 27.9687 1.68125 27.875 1.68125C27.7937 1.68125 27.7187 1.725 27.6875 1.80625L27.4375 2.025L27.4062 2.10625L27.3812 2.05H27.375H27.3312L27.2937 2.075L27.2562 2.01875C27.2562 2.0625 27.225 2.0625 27.2 2.025C27.175 1.9875 27.1375 2.0125 27.125 2.0125C27.1 2.00625 27.0687 2.00625 27.0375 2L27.0125 2.00625C27.0062 2.0125 26.9937 2.025 26.9937 2.0375C26.9812 2.05625 26.9625 2.04375 26.95 2.0625C26.9375 2.08125 26.9375 2.0875 26.9187 2.09375C26.9 2.09375 26.875 2.1 26.8687 2.125C26.8687 2.15 26.9 2.1375 26.9062 2.18125C26.9125 2.225 26.9125 2.225 26.8937 2.225C26.875 2.225 26.8625 2.175 26.8625 2.175H26.8375L26.8312 2.21875C26.825 2.24375 26.8187 2.2625 26.8062 2.28125C26.7937 2.30625 26.7812 2.33125 26.775 2.3625V2.43125C26.7062 2.43125 26.6375 2.43125 26.5687 2.44375L26.6 2.5125L26.4375 2.54375H26.4187C26.4125 2.60625 26.3875 2.66875 26.3437 2.71875C26.3437 2.71875 26.3562 2.675 26.3312 2.65L26.3125 2.6875C26.3125 2.71875 26.3 2.725 26.2937 2.7L26.2812 2.675L26.2687 2.70625C26.275 2.725 26.275 2.75 26.2687 2.775L26.2437 2.80625L26.1937 2.88125C26.1812 2.875 26.1687 2.86875 26.1625 2.86875C26.1375 2.8625 26.1625 2.9125 26.1625 2.9125L26.2062 2.925C26.175 2.95 26.1375 2.975 26.1 2.99375L26.0562 2.95C26.0562 2.95 26.05 2.90625 26.0375 2.90625C26.0062 2.9125 26.0125 2.95 26.0125 2.95L26.025 2.96875L26.0375 3.0125C26.0062 3.025 25.9687 3.0375 25.9375 3.04375L25.9 3.0125L25.8625 3H25.8062C25.7875 2.9875 25.775 2.975 25.7562 2.9625L25.7062 2.975L25.6875 3H25.6687H25.6437C25.6187 3 25.6312 3.025 25.6312 3.0375V3.04375H25.6875C25.6437 3.08125 25.6562 3.1625 25.6062 3.19375L25.5687 3.16875L25.55 3.15625C25.55 3.15625 25.5437 3.1125 25.5312 3.11875C25.5062 3.125 25.4937 3.15 25.5 3.175L25.5125 3.19375L25.5187 3.2125L25.5375 3.23125C25.5 3.25 25.5 3.30625 25.4625 3.31875L25.4437 3.325V3.425L25.3937 3.41875L25.4 3.5375C25.3812 3.53125 25.3625 3.51875 25.3437 3.50625C25.3187 3.51875 25.35 3.6 25.3312 3.6125L25.2937 3.625C25.3375 3.7125 25.2312 3.5875 25.2812 3.6625C25.2875 3.64375 25.2437 3.6375 25.275 3.7875Z" fill="#0041E6"/>
<path d="M29.925 18.6063L29.8875 18.525C29.825 18.425 29.75 18.3375 29.6562 18.2688L29.5938 18.2563C29.5188 18.2375 29.6 18.0563 29.6 18.0563L29.5438 18.0688L29.5125 18.0375C29.5125 18.0375 29.55 18.0063 29.5375 17.9875C29.525 17.9688 29.525 17.9688 29.4813 17.9938C29.4375 18.0188 29.4813 18.05 29.45 18.0563C29.4188 18.0625 29.3938 18.0313 29.375 18.0188C29.3562 18.0063 29.3438 18.0063 29.3125 18C29.2812 17.9938 29.275 17.9688 29.25 17.9688C29.2313 17.9688 29.2125 17.9688 29.1938 17.9625L29.1688 17.9438C29.15 17.9188 29.1312 17.8875 29.1125 17.8563C29.1 17.8438 29.05 17.8188 29.0688 17.775C29.0875 17.7313 29.0625 17.7 29.025 17.7313L29.0562 17.6688L29.0063 17.6438L28.975 17.6V17.5875L29.0063 17.525L28.9875 17.4688L28.9625 17.475C28.9625 17.4313 28.9625 17.3875 28.9625 17.3438L28.9875 17.275C28.925 17.3125 28.8625 17.3438 28.7938 17.3688C28.7625 17.375 28.7313 17.375 28.7 17.3688H28.675C28.6562 17.3625 28.6375 17.3625 28.625 17.3688L28.5812 17.3813L28.5625 17.3563C28.575 17.3438 28.5812 17.3313 28.5875 17.3188V17.3063C28.5875 17.2938 28.5813 17.2938 28.575 17.2938C28.5625 17.3 28.55 17.3063 28.5375 17.3125C28.5 17.3375 28.525 17.3625 28.5063 17.375C28.4813 17.3813 28.4625 17.3563 28.4438 17.3375C28.4313 17.3188 28.4187 17.325 28.3937 17.3188C28.3687 17.3125 28.3625 17.2875 28.3375 17.2875C28.3187 17.2875 28.3063 17.2813 28.2938 17.275L28.2687 17.2563C28.2562 17.2313 28.2438 17.2063 28.2313 17.1813L28.225 17.1688C28.2188 17.1563 28.1875 17.1375 28.1875 17.1063L28.1375 17.125C28.1063 17.1313 28.075 17.1313 28.0375 17.125C28.0125 17.1188 27.9812 17.1188 27.9562 17.125L27.9125 17.1375L27.8937 17.1125C27.8937 17.1125 27.9312 17.0813 27.925 17.0625C27.9187 17.0438 27.9188 17.0438 27.875 17.0688C27.8312 17.0938 27.8625 17.1188 27.8375 17.125H27.8312C27.8125 17.125 27.7937 17.1 27.775 17.0875C27.7625 17.075 27.75 17.075 27.725 17.0688C27.7 17.0625 27.6938 17.0375 27.6688 17.0313C27.65 17.0313 27.6375 17.025 27.6187 17.0188H27.6125C27.5875 17.0125 27.5562 17.0063 27.525 17.0125L27.475 17.0188L27.4562 16.9875C27.4562 16.9875 27.4937 16.9563 27.4875 16.9375C27.4812 16.9188 27.4813 16.9188 27.4375 16.9375C27.3937 16.9563 27.425 16.9875 27.4 16.9938C27.375 17 27.35 16.9688 27.3375 16.95C27.325 16.9313 27.3125 16.9375 27.2875 16.925C27.2625 16.9188 27.2563 16.8938 27.2313 16.8875C27.2125 16.8875 27.2 16.8813 27.1812 16.875L27.1562 16.8563C27.1375 16.825 27.125 16.7938 27.1125 16.7625C27.1 16.75 27.05 16.7125 27.075 16.675C27.1 16.6375 27.075 16.6 27.0312 16.6188L27.0688 16.5625L27.0187 16.525L26.9813 16.4813V16.4688L27.0187 16.4063L27 16.35H26.9688C26.9688 16.3063 26.9688 16.2688 26.975 16.225C26.9438 16.225 26.9437 16.2563 26.9 16.275C26.8437 16.3125 26.7937 16.3563 26.7437 16.4063C26.7312 16.375 26.7125 16.35 26.6812 16.3313C26.625 16.2938 26.6812 16.3313 26.5938 16.3313C26.5063 16.3313 26.475 16.4125 26.4375 16.35C26.4188 16.3125 26.4063 16.2938 26.35 16.3063C26.325 16.325 26.2937 16.3375 26.2687 16.3563C26.2437 16.3688 26.2125 16.3813 26.1938 16.4C26.1938 16.4 26.1625 16.4 26.0875 16.5063C26.0125 16.6125 26.075 16.4563 26.0438 16.525C25.9125 16.675 25.8 16.8438 25.7125 17.025C25.6375 17.1563 25.6875 17.1313 25.575 17.2625C25.5188 17.3313 25.6 17.1938 25.4062 17.4438C25.3625 17.4875 25.3313 17.5375 25.325 17.6C25.3313 17.6375 25.3313 17.675 25.325 17.7125C25.2938 17.775 25.3687 17.7188 25.3125 17.7875C25.3438 17.8438 25.375 17.9 25.4125 17.95L25.4312 18.0313L25.5 18.1375L25.5125 18.1563C25.5938 18.1188 25.6125 18.3063 25.6125 18.3063C25.6125 18.3063 25.5 18.325 25.5938 18.4125C25.6562 18.4625 25.7438 18.475 25.8188 18.4563C25.9063 18.4875 25.975 18.5563 26.0125 18.6375C26.0375 18.7125 26.1125 18.7625 26.2 18.7625L26.5063 18.9125H26.6125L26.575 18.9688V18.9813L26.6063 19.025L26.6562 19.0563L26.6187 19.1125C26.6625 19.0938 26.6813 19.125 26.6625 19.1625C26.6375 19.2 26.6875 19.2313 26.6938 19.2438C26.7063 19.275 26.7187 19.3063 26.7375 19.3313L26.7563 19.35C26.7688 19.3563 26.7875 19.3563 26.8 19.3625C26.825 19.3625 26.825 19.3875 26.85 19.3938C26.875 19.4 26.8875 19.3938 26.9 19.4125C26.9125 19.4313 26.9375 19.4563 26.9625 19.45C26.9875 19.4438 26.9562 19.4188 27 19.3875C27.0438 19.3625 27.0375 19.3625 27.05 19.3813C27.0562 19.4 27.0187 19.4313 27.0187 19.4313L27.0375 19.4563L27.0812 19.4438C27.1062 19.4375 27.1313 19.4375 27.1562 19.4438C27.1875 19.45 27.2188 19.45 27.25 19.4438L27.3188 19.4188C27.3625 19.4938 27.4062 19.5625 27.4625 19.625L27.5 19.5625L27.6313 19.7125L27.6437 19.7313C27.7125 19.7063 27.7813 19.7063 27.85 19.7313C27.85 19.7313 27.8 19.7438 27.8 19.775H27.85C27.875 19.7688 27.8875 19.7688 27.875 19.7875L27.8625 19.8125H27.8937C27.9125 19.8 27.9312 19.7875 27.9562 19.7813L28.0063 19.7875H28.1125C28.1125 19.8 28.1188 19.8125 28.125 19.825C28.1375 19.85 28.1625 19.8 28.1625 19.8L28.1437 19.7563C28.1875 19.7688 28.2312 19.7813 28.2687 19.8L28.2625 19.8688C28.2625 19.8688 28.2312 19.9 28.2437 19.9063C28.2562 19.9125 28.2938 19.8938 28.2938 19.8938L28.3062 19.875L28.3312 19.8375C28.3562 19.8563 28.3812 19.875 28.4062 19.8938L28.4 19.9438L28.4062 19.9813L28.4312 20.0188C28.4312 20.0375 28.425 20.0563 28.4188 20.075L28.4375 20.1H28.4562V20.1063V20.125C28.4562 20.1375 28.475 20.1188 28.4875 20.1063V20.1L28.475 20.0625C28.5063 20.0688 28.5625 20.0063 28.5938 20.0188L28.5812 20.0563L28.575 20.075C28.575 20.075 28.55 20.1063 28.5562 20.1125C28.5625 20.1188 28.5938 20.1 28.5938 20.1L28.6063 20.0813L28.6187 20.0688L28.6375 20.0438C28.65 20.0563 28.6938 20.025 28.7 20.0438V20.05L28.7687 19.9875V20.025L28.85 19.95C28.8438 19.9688 28.8375 19.9875 28.8312 20.0063C28.8312 20.0188 28.8937 19.95 28.9 19.9563L28.9062 19.975C28.9688 19.9 28.875 20.0375 28.9312 19.9625C28.9312 19.9625 28.9187 19.9938 29.025 19.9063L29.15 19.8L29.225 19.7375C29.2875 19.6813 29.3313 19.6125 29.3188 19.5938C29.3063 19.575 29.4062 19.4813 29.4062 19.4813C29.4062 19.4813 29.4438 19.4313 29.4125 19.4063C29.3875 19.3875 29.4875 19.3313 29.5438 19.3125C29.6063 19.2938 29.6937 19.1563 29.7188 19.125C29.7438 19.0938 29.95 18.9438 29.9312 18.8813C29.9187 18.8438 29.8875 18.8063 29.85 18.8C29.8188 18.8125 29.9625 18.6875 29.925 18.6063Z" fill="#0041E6"/>
<path d="M31.9938 10.1C32.0063 10.0438 32 9.98126 31.9813 9.92501C31.9625 9.89376 31.9438 9.86251 31.925 9.82501C31.9188 9.75626 31.8875 9.84376 31.8938 9.75626C31.8438 9.72501 31.7938 9.69376 31.7375 9.67501L31.6813 9.61876L31.575 9.56251L31.5563 9.55001C31.5125 9.62501 31.4063 9.48126 31.4063 9.48126C31.4063 9.48126 31.4813 9.40001 31.3688 9.38126C31.2938 9.37501 31.2188 9.41251 31.175 9.46876C31.0938 9.48751 31.0063 9.46876 30.9375 9.41876C30.8813 9.36876 30.7938 9.36876 30.7375 9.41876L30.4313 9.45626L30.3563 9.50626V9.43751L30.3188 9.41876H30.275V9.35001C30.2563 9.38751 30.225 9.37501 30.225 9.32501C30.225 9.27501 30.1813 9.28126 30.1688 9.26876C30.15 9.25001 30.125 9.23126 30.1 9.21251H30.075C30.0625 9.21251 30.05 9.21876 30.0375 9.23126C30.0188 9.23751 30.0063 9.21876 29.9875 9.23126C29.9688 9.24376 29.9625 9.25001 29.95 9.24376C29.9313 9.23751 29.9063 9.22501 29.8938 9.24376C29.8813 9.26251 29.9125 9.26876 29.8938 9.31251C29.875 9.35626 29.875 9.35626 29.8625 9.34376C29.85 9.33126 29.8625 9.28751 29.8625 9.28751L29.8375 9.26876L29.8125 9.30001C29.7938 9.31876 29.775 9.33126 29.7563 9.33751C29.7313 9.35001 29.7063 9.36876 29.6875 9.38751L29.65 9.44376C29.5938 9.40626 29.5313 9.37501 29.4625 9.34376V9.41876L29.3063 9.36251L29.2875 9.35001C29.25 9.40001 29.2 9.43751 29.1375 9.45626C29.1375 9.45626 29.1688 9.41876 29.1625 9.39376L29.125 9.41876C29.1063 9.43751 29.1 9.44376 29.1 9.41876V9.39376L29.075 9.41251C29.0688 9.43126 29.0563 9.45001 29.0438 9.46876L29.0063 9.48126L28.9313 9.52501C28.925 9.51251 28.9188 9.50626 28.9063 9.50001C28.8875 9.48126 28.8875 9.53751 28.8875 9.53751L28.9188 9.56876C28.8813 9.58126 28.8375 9.58751 28.8 9.58751L28.7813 9.52501C28.7813 9.52501 28.7938 9.48751 28.7813 9.48126C28.7688 9.47501 28.7438 9.51251 28.7438 9.51251V9.53126V9.57501C28.7125 9.56876 28.6813 9.56251 28.6563 9.55626L28.6438 9.50626L28.6188 9.47501L28.5813 9.45626C28.575 9.43751 28.5688 9.41876 28.5625 9.40001L28.525 9.38751L28.5063 9.40001L28.5 9.38751L28.4813 9.36876C28.4688 9.35626 28.4625 9.38751 28.4625 9.40001V9.41251L28.4938 9.44376C28.4563 9.45626 28.4313 9.53751 28.3875 9.53751L28.375 9.50001L28.3688 9.48126C28.3688 9.48126 28.3813 9.44376 28.3688 9.43751C28.3563 9.43126 28.3313 9.46876 28.3313 9.46876V9.48751V9.50626V9.53126C28.3063 9.53126 28.2813 9.57501 28.2563 9.56876H28.2438L28.2125 9.65626L28.1875 9.62501L28.15 9.73126C28.1438 9.71251 28.1375 9.69376 28.1313 9.67501C28.1125 9.66876 28.1 9.75626 28.0875 9.75001L28.0625 9.73751C28.05 9.83126 28.0438 9.66876 28.0438 9.76251C28.0438 9.76251 28.025 9.73126 27.9813 9.86876C27.9625 9.91876 27.95 9.97501 27.9375 10.0313C27.9313 10.0625 27.925 10.0938 27.9188 10.125C27.9063 10.2063 27.9188 10.2875 27.95 10.2938C27.9813 10.3 27.9563 10.4375 27.9563 10.4375C27.9563 10.4375 27.9625 10.5 27.9938 10.5C28.025 10.5 27.9813 10.6063 27.95 10.6563C27.9313 10.7438 27.9313 10.825 27.9375 10.9125C27.9375 10.9563 27.8938 11.2 27.9375 11.2375C27.9563 11.2625 27.9938 11.2688 28.0188 11.25C28.0188 11.25 28 11.4313 28.05 11.475L28.1063 11.5125C28.175 11.5563 28.25 11.5875 28.3313 11.6063L28.375 11.5813C28.425 11.5625 28.4375 11.7563 28.4375 11.7563L28.4688 11.725L28.5 11.7375C28.5 11.7375 28.4875 11.7813 28.5 11.7938C28.5125 11.8063 28.5125 11.8063 28.5375 11.7625C28.5563 11.7188 28.525 11.7125 28.5375 11.6938C28.55 11.675 28.5875 11.6875 28.6063 11.6938C28.625 11.7 28.6313 11.6938 28.6563 11.6813C28.6813 11.6688 28.6938 11.6875 28.7188 11.6813C28.7313 11.675 28.75 11.6688 28.7625 11.6625H28.7875C28.8188 11.675 28.8438 11.6938 28.8688 11.7188C28.8875 11.725 28.9375 11.725 28.9375 11.775C28.9375 11.8188 28.975 11.8375 29 11.8V11.8688H29.0563L29.1063 11.8875L29.1125 11.8938V11.9688L29.1563 12.0063L29.175 11.9875C29.1938 12.025 29.2125 12.0625 29.2313 12.1L29.2375 12.1688C29.275 12.1063 29.3125 12.0438 29.3625 11.9875C29.3875 11.9688 29.4125 11.95 29.4438 11.9375L29.4563 11.925C29.475 11.9188 29.4875 11.9063 29.5 11.8938L29.5313 11.8625L29.5625 11.875C29.5563 11.8875 29.5563 11.9063 29.5625 11.9188V11.9313C29.5688 11.9375 29.575 11.9375 29.5813 11.9313C29.5875 11.9188 29.5938 11.9063 29.6 11.8938C29.625 11.85 29.5813 11.8438 29.6 11.825C29.6188 11.8063 29.65 11.8188 29.6688 11.825C29.6875 11.8313 29.6938 11.825 29.7188 11.8125C29.7438 11.8 29.7563 11.825 29.7813 11.8125C29.7938 11.8063 29.8125 11.8 29.825 11.7938H29.8563C29.8813 11.8063 29.9063 11.825 29.925 11.8375L29.9375 11.8438C29.95 11.8438 29.9875 11.85 30.0063 11.875L30.0375 11.8313C30.0625 11.8125 30.0938 11.7938 30.1188 11.7813C30.1438 11.775 30.1688 11.7625 30.1875 11.7438L30.2188 11.7125L30.25 11.725C30.25 11.725 30.2313 11.7688 30.25 11.7813C30.2688 11.7938 30.2688 11.7938 30.2875 11.75C30.3125 11.7063 30.2688 11.7 30.2875 11.6813H30.2938C30.3125 11.6688 30.3375 11.6813 30.3563 11.6813C30.375 11.6813 30.3813 11.6813 30.4063 11.675C30.4313 11.6688 30.4438 11.6813 30.4688 11.675C30.4813 11.6688 30.5 11.6625 30.5125 11.6563H30.5188C30.5438 11.65 30.5688 11.6313 30.5875 11.6188L30.625 11.6L30.6563 11.6125C30.6563 11.6125 30.6375 11.6563 30.6563 11.6688C30.675 11.6813 30.675 11.6813 30.6938 11.6375C30.7188 11.5938 30.675 11.5875 30.6938 11.5688C30.7125 11.55 30.7438 11.5625 30.7625 11.5688C30.7813 11.575 30.7875 11.5688 30.8125 11.5563C30.8375 11.5438 30.85 11.5688 30.875 11.5563C30.8875 11.55 30.9063 11.5438 30.9188 11.5375H30.9438C30.975 11.5563 31 11.575 31.025 11.5938C31.0375 11.6 31.0938 11.6 31.0938 11.65C31.0938 11.6938 31.1313 11.7125 31.1563 11.675V11.7438H31.2125L31.2625 11.7625L31.2688 11.7688V11.8438L31.3125 11.8813L31.3313 11.8625C31.35 11.8938 31.3688 11.9313 31.3875 11.9688C31.4125 11.9563 31.4 11.925 31.4188 11.8813C31.4438 11.8188 31.4625 11.75 31.4688 11.6875C31.4938 11.7063 31.5188 11.7188 31.55 11.7125C31.6125 11.7125 31.55 11.7125 31.6188 11.6625C31.6875 11.6125 31.6688 11.525 31.725 11.5625C31.7563 11.5813 31.775 11.5875 31.8125 11.55C31.825 11.5188 31.8375 11.4938 31.85 11.4625C31.8688 11.4375 31.875 11.4063 31.8875 11.3813C31.8875 11.3813 31.9125 11.3625 31.9125 11.2313C31.9125 11.1 31.9438 11.2688 31.9375 11.1938C31.9625 10.9938 31.9688 10.7938 31.95 10.5938C31.9313 10.5063 31.925 10.4125 31.9375 10.3188C31.9625 10.2563 31.9625 10.4125 31.9938 10.1Z" fill="#0041E6"/>
<path d="M2.08125 3.10625L2.1 3.1875L2.16875 3.29375L2.18125 3.3125C2.2625 3.275 2.28125 3.4625 2.28125 3.4625C2.28125 3.4625 2.175 3.48125 2.2625 3.56875C2.325 3.61875 2.4125 3.63125 2.4875 3.6125C2.575 3.64375 2.64375 3.7125 2.68125 3.79375C2.7125 3.86875 2.7875 3.91875 2.86875 3.91875L3.175 4.06875H3.28125L3.2375 4.125V4.1375L3.26875 4.18125L3.31875 4.2125L3.28125 4.275C3.325 4.25625 3.35 4.2875 3.325 4.325C3.3 4.3625 3.35 4.39375 3.35625 4.40625C3.36875 4.4375 3.38125 4.46875 3.4 4.49375L3.425 4.5125C3.4375 4.51875 3.45625 4.51875 3.46875 4.525C3.49375 4.525 3.49375 4.55 3.51875 4.55625C3.54375 4.5625 3.55 4.55625 3.56875 4.575C3.58125 4.59375 3.60625 4.61875 3.63125 4.6125C3.65625 4.60625 3.63125 4.58125 3.66875 4.55625C3.70625 4.53125 3.7125 4.53125 3.71875 4.55C3.725 4.56875 3.6875 4.6 3.6875 4.6L3.70625 4.625L3.75 4.6125C3.775 4.60625 3.8 4.60625 3.83125 4.6125C3.8625 4.61875 3.89375 4.61875 3.925 4.6125L3.99375 4.5875C4.0375 4.65625 4.0875 4.725 4.1375 4.79375L4.175 4.73125L4.30625 4.88125L4.31875 4.9C4.3875 4.875 4.45625 4.875 4.525 4.9C4.525 4.9 4.475 4.9125 4.475 4.94375H4.525C4.55 4.9375 4.5625 4.9375 4.55 4.95625L4.5375 4.98125H4.56875C4.5875 4.96875 4.60625 4.95625 4.63125 4.95L4.68125 4.95625H4.7875C4.7875 4.96875 4.79375 4.98125 4.8 4.99375C4.8125 5.01875 4.8375 4.96875 4.8375 4.96875L4.8125 4.91875C4.85625 4.93125 4.9 4.94375 4.9375 4.9625L4.93125 5.025C4.93125 5.025 4.9 5.05625 4.9125 5.0625C4.925 5.06875 4.9625 5.05 4.9625 5.05L4.975 5.03125L5 4.99375C5.025 5.00625 5.05 5.025 5.075 5.05L5.0625 5.1L5.06875 5.1375L5.09375 5.175C5.09375 5.19375 5.0875 5.2125 5.08125 5.2375L5.1 5.2625H5.125V5.275V5.29375C5.125 5.30625 5.14375 5.2875 5.15 5.275L5.15625 5.26875L5.14375 5.23125C5.175 5.2375 5.23125 5.175 5.25625 5.1875L5.24375 5.23125V5.25C5.24375 5.25 5.21875 5.28125 5.21875 5.2875C5.225 5.29375 5.25625 5.275 5.25625 5.275L5.26875 5.25625L5.28125 5.2375L5.29375 5.21875C5.30625 5.23125 5.35 5.2 5.35625 5.2125L5.3625 5.21875L5.425 5.15625V5.19375L5.50625 5.11875C5.5 5.1375 5.49375 5.15625 5.48125 5.175C5.48125 5.1875 5.54375 5.11875 5.55 5.125L5.55625 5.14375C5.61875 5.06875 5.525 5.20625 5.58125 5.13125C5.58125 5.13125 5.56875 5.1625 5.675 5.075L5.8 4.96875L5.875 4.90625C5.9375 4.85 5.98125 4.78125 5.9625 4.7625C5.94375 4.74375 6.05 4.65 6.05 4.65C6.05 4.65 6.0875 4.6 6.05625 4.575C6.03125 4.55 6.13125 4.5 6.1875 4.48125C6.24375 4.4625 6.3375 4.325 6.3625 4.29375C6.38751 4.2625 6.59375 4.1125 6.575 4.05C6.5625 4.00625 6.53125 3.975 6.49375 3.96875C6.49375 3.96875 6.63125 3.84375 6.59375 3.7625L6.55625 3.68125C6.49375 3.5875 6.41875 3.5 6.325 3.425L6.26875 3.4125C6.19376 3.39375 6.275 3.2125 6.275 3.2125L6.2125 3.21875L6.1875 3.175C6.1875 3.175 6.225 3.14375 6.2125 3.125C6.2 3.10625 6.2 3.10625 6.15625 3.13125C6.1125 3.15625 6.15625 3.1875 6.125 3.19375C6.09375 3.2 6.0625 3.16875 6.04375 3.15625C6.025 3.1375 6.01251 3.14375 5.9875 3.1375C5.95625 3.13125 5.95 3.10625 5.925 3.1C5.90625 3.1 5.8875 3.1 5.86875 3.09375L5.84375 3.08125C5.825 3.05625 5.80625 3.025 5.7875 2.99375C5.775 2.98125 5.725 2.95625 5.74375 2.9125C5.7625 2.86875 5.74375 2.8375 5.7 2.86875L5.73125 2.80625L5.68125 2.78125L5.65 2.7375V2.725L5.68125 2.6625L5.6625 2.60625H5.6375C5.63125 2.5625 5.63125 2.51875 5.6375 2.475L5.6625 2.40625C5.6 2.44375 5.5375 2.475 5.46875 2.5C5.4375 2.50625 5.40625 2.50625 5.375 2.5H5.35C5.33125 2.5 5.3125 2.5 5.29375 2.5L5.25 2.5125L5.2375 2.4875C5.25 2.475 5.25625 2.4625 5.2625 2.45V2.4375C5.2625 2.425 5.2625 2.425 5.25 2.425C5.2375 2.43125 5.225 2.4375 5.2125 2.44375C5.175 2.46875 5.2 2.49375 5.18125 2.50625C5.15625 2.5125 5.1375 2.4875 5.11875 2.46875C5.10625 2.45 5.1 2.45625 5.075 2.45625C5.05 2.45625 5.04375 2.425 5.025 2.425C5.00625 2.425 4.99375 2.425 4.98125 2.41875L4.95625 2.39375C4.94375 2.36875 4.93125 2.34375 4.91875 2.31875L4.9125 2.30625C4.90625 2.29375 4.875 2.275 4.875 2.24375L4.825 2.2625C4.79375 2.26875 4.75625 2.26875 4.725 2.2625C4.7 2.25625 4.66875 2.25625 4.64375 2.2625L4.6 2.275L4.58125 2.25C4.58125 2.25 4.61875 2.21875 4.6125 2.2C4.60625 2.18125 4.60625 2.18125 4.5625 2.20625C4.51875 2.23125 4.55 2.25625 4.525 2.2625H4.51875C4.5 2.2625 4.475 2.2375 4.4625 2.225C4.45 2.2125 4.4375 2.2125 4.4125 2.20625C4.3875 2.2 4.38125 2.175 4.35625 2.16875C4.3375 2.16875 4.325 2.1625 4.30625 2.15625H4.29375C4.26875 2.15 4.2375 2.14375 4.2125 2.15L4.1625 2.15625L4.14375 2.125C4.14375 2.125 4.18125 2.09375 4.175 2.075C4.16875 2.05625 4.16875 2.05625 4.125 2.075C4.08125 2.09375 4.1125 2.125 4.0875 2.13125C4.0625 2.1375 4.0375 2.10625 4.025 2.0875C4.0125 2.06875 4 2.06875 3.975 2.0625C3.95 2.05625 3.94375 2.03125 3.91875 2.025C3.9 2.025 3.8875 2.01875 3.86875 2.0125L3.83125 2C3.8125 1.96875 3.8 1.9375 3.7875 1.90625C3.775 1.89375 3.725 1.85625 3.75 1.81875C3.775 1.78125 3.75 1.74375 3.70625 1.7625L3.74375 1.70625L3.6875 1.66875L3.65 1.61875V1.60625L3.6875 1.54375L3.66875 1.4875L3.64375 1.5C3.64375 1.45625 3.64375 1.41875 3.65 1.375C3.625 1.375 3.61875 1.40625 3.575 1.425C3.51875 1.4625 3.46875 1.50625 3.41875 1.55625C3.40625 1.525 3.3875 1.5 3.35625 1.48125C3.3 1.44375 3.35625 1.48125 3.26875 1.48125C3.18125 1.48125 3.14375 1.5625 3.1125 1.5C3.09375 1.4625 3.08125 1.45 3.025 1.45625C3 1.475 2.96875 1.49375 2.94375 1.50625C2.91875 1.51875 2.8875 1.53125 2.86875 1.55C2.86875 1.55 2.8375 1.55 2.7625 1.65625C2.6875 1.7625 2.75625 1.60625 2.71875 1.675C2.5875 1.825 2.475 1.99375 2.3875 2.175C2.3125 2.3125 2.3625 2.28125 2.25 2.4125C2.19375 2.48125 2.275 2.35 2.08125 2.59375C2.03125 2.63125 2 2.6875 1.99375 2.75C2 2.7875 2 2.825 1.99375 2.86875C1.9625 2.93125 2.0375 2.875 1.98125 2.94375C2.0125 3 2.04375 3.05 2.08125 3.10625Z" fill="#0041E6"/>
<path d="M6.56251 17.5563C6.56251 17.5563 6.57501 17.525 6.50001 17.4188C6.42501 17.3125 6.55001 17.4313 6.50001 17.3688C6.41251 17.1875 6.30001 17.025 6.16876 16.8688C6.07501 16.75 6.07501 16.8 6.00001 16.6563C5.96251 16.575 6.05001 16.7063 5.89376 16.4313C5.87501 16.375 5.83751 16.3313 5.78751 16.2938C5.75001 16.2813 5.71251 16.2688 5.68126 16.2438C5.63751 16.1938 5.65626 16.2813 5.61251 16.2063C5.55001 16.2125 5.48751 16.2188 5.42501 16.2313L5.34376 16.2188L5.21876 16.2375H5.18751C5.19376 16.325 5.01251 16.275 5.01251 16.275C5.01251 16.275 5.03751 16.1625 4.92501 16.2125C4.85626 16.2563 4.80626 16.325 4.80001 16.4063C4.73751 16.4688 4.65001 16.5125 4.55626 16.5125C4.47501 16.5063 4.40001 16.5563 4.36876 16.6375L4.11876 16.8563L4.08751 16.9375L4.05001 16.8813H4.04376H4.00001L3.96251 16.9063L3.92501 16.85C3.92501 16.8938 3.89376 16.8938 3.86876 16.8563C3.84376 16.8188 3.80626 16.8375 3.78751 16.8438C3.75626 16.8375 3.73126 16.8375 3.70001 16.8313L3.68126 16.8375C3.67501 16.85 3.66251 16.8563 3.66251 16.8688C3.65001 16.8875 3.63126 16.875 3.61876 16.8938C3.60626 16.9125 3.60626 16.9188 3.58751 16.925C3.56876 16.9313 3.54376 16.9313 3.53751 16.9563C3.53751 16.9813 3.56251 16.9688 3.57501 17.0188C3.58126 17.0625 3.58126 17.0625 3.56876 17.0625C3.55001 17.0563 3.53751 17.0125 3.53751 17.0125H3.51251V17.0563C3.50626 17.0813 3.50001 17.1 3.48751 17.1188C3.47501 17.1438 3.46251 17.1688 3.45626 17.2V17.2688C3.38751 17.2688 3.31251 17.2688 3.24376 17.2813L3.28126 17.3438L3.11876 17.375H3.09376C3.08751 17.4375 3.06251 17.5 3.01876 17.55C3.01876 17.55 3.03126 17.5063 3.00626 17.4813L2.98751 17.525C2.98751 17.55 2.98126 17.5563 2.96876 17.5375L2.95626 17.5125L2.94376 17.5438C2.95001 17.5625 2.95001 17.5875 2.94376 17.6125L2.91876 17.6438L2.86876 17.7188C2.85626 17.7125 2.84376 17.7063 2.83751 17.7063C2.81251 17.7063 2.83751 17.75 2.83751 17.75L2.88126 17.7625C2.85001 17.7875 2.81251 17.8125 2.77501 17.8313L2.73126 17.7875C2.73126 17.7875 2.72501 17.7438 2.71251 17.75C2.68126 17.7563 2.68751 17.7938 2.68751 17.7938L2.70001 17.8125L2.71251 17.8563C2.67501 17.8688 2.64376 17.8813 2.60626 17.8875L2.56876 17.85L2.52501 17.8375H2.46876C2.45001 17.825 2.43126 17.8125 2.41876 17.8L2.36876 17.8125L2.35001 17.8375L2.33126 17.8313H2.31251C2.29376 17.8313 2.30001 17.8563 2.30626 17.8688V17.875H2.36251C2.31876 17.9063 2.33126 17.9938 2.28126 18.025L2.24376 18L2.22501 17.9938C2.22501 17.9938 2.21876 17.95 2.20626 17.9563C2.18751 17.9688 2.16876 17.9875 2.17501 18.0125L2.18751 18.0313L2.19376 18.05L2.20626 18.075C2.17501 18.0938 2.16876 18.15 2.13126 18.1625L2.11251 18.1688V18.2688L2.06251 18.2625L2.07501 18.3813C2.05626 18.375 2.03126 18.3625 2.01876 18.35C1.99376 18.3625 2.02501 18.4438 2.00626 18.4563L1.96876 18.4688C2.01251 18.5563 1.90626 18.4313 1.95626 18.5063C1.95626 18.5063 1.91251 18.5 1.94376 18.6438C1.97501 18.7938 2.00001 18.8063 2.00001 18.8063C2.01251 18.8375 2.02501 18.8688 2.04376 18.8938C2.08751 18.9625 2.15001 19.0125 2.18751 19C2.22501 18.9875 2.28751 19.1063 2.28751 19.1063C2.28751 19.1063 2.33126 19.1438 2.36251 19.1188C2.39376 19.0938 2.41251 19.2063 2.42501 19.2688C2.43751 19.3313 2.55626 19.4438 2.58126 19.475C2.60626 19.5063 2.74376 19.7188 2.79376 19.725C2.84376 19.7313 2.85001 19.6938 2.85001 19.6938C2.85001 19.6938 2.95001 19.8438 3.00626 19.8563L3.06251 19.8688C3.13126 19.875 3.19376 19.8688 3.25626 19.85L3.27501 19.8125C3.30001 19.7688 3.41251 19.9438 3.41251 19.9438L3.42501 19.8938H3.45626C3.45626 19.8938 3.46251 19.9438 3.48126 19.9438C3.50001 19.95 3.50001 19.9438 3.49376 19.9C3.48751 19.8563 3.45626 19.8625 3.46251 19.8375C3.46876 19.8125 3.50001 19.8125 3.51876 19.8063C3.53751 19.8 3.54376 19.7938 3.55626 19.775C3.57501 19.7563 3.59376 19.7625 3.61251 19.75C3.62501 19.7375 3.63126 19.725 3.65001 19.7125L3.68126 19.7C3.71876 19.7 3.76876 19.7125 3.78751 19.7063C3.80626 19.7063 3.86251 19.675 3.88751 19.7188C3.91251 19.7563 3.95626 19.7563 3.96876 19.7063L4.00001 19.7688L4.06251 19.7375L4.12501 19.725H4.13751L4.16876 19.7875H4.23126L4.24376 19.7563C4.28126 19.775 4.32501 19.7938 4.35626 19.8188L4.40001 19.875C4.40626 19.7938 4.41876 19.7125 4.44376 19.6313C4.46251 19.5938 4.48126 19.5625 4.50626 19.5375L4.52501 19.5125C4.53751 19.4938 4.55001 19.475 4.55626 19.4563L4.57501 19.4063L4.61251 19.4C4.61251 19.4188 4.61876 19.4313 4.63126 19.4438L4.64376 19.45C4.65626 19.45 4.66251 19.45 4.66251 19.4438C4.66251 19.4313 4.66251 19.4125 4.66251 19.4C4.66251 19.35 4.61876 19.3688 4.63126 19.3375C4.63751 19.3125 4.68126 19.3 4.70001 19.2938C4.72501 19.2875 4.72501 19.275 4.74376 19.2563C4.76251 19.2313 4.78751 19.2375 4.80626 19.2188C4.81876 19.2063 4.83126 19.1875 4.84376 19.175L4.87501 19.1625H4.96876H4.98751C5.00626 19.1625 5.04376 19.1375 5.07501 19.15L5.08751 19.0938C5.10001 19.0625 5.11876 19.025 5.14376 19C5.16251 18.975 5.18126 18.95 5.18751 18.925L5.20001 18.875L5.23751 18.8688C5.23751 18.8688 5.25001 18.9188 5.26876 18.9188C5.28751 18.9188 5.29376 18.9188 5.28751 18.8688C5.28751 18.8188 5.24376 18.8375 5.25001 18.8125V18.8063C5.26251 18.7875 5.29376 18.775 5.31876 18.7688C5.33751 18.7625 5.34376 18.75 5.36251 18.7313C5.38126 18.7063 5.40626 18.7125 5.41876 18.6938C5.42501 18.6813 5.43751 18.6625 5.45001 18.6563V18.65C5.46876 18.6313 5.48126 18.6 5.48751 18.575L5.50001 18.525L5.53126 18.5188C5.53126 18.5188 5.54376 18.5688 5.56251 18.5688C5.58126 18.5688 5.58126 18.5688 5.58126 18.5188C5.57501 18.4688 5.53751 18.4875 5.54376 18.4625C5.55001 18.4375 5.58751 18.425 5.60626 18.4188C5.63126 18.4125 5.63126 18.4 5.64376 18.3813C5.66251 18.3625 5.68126 18.3625 5.70001 18.3438C5.70626 18.3313 5.71876 18.3125 5.73126 18.3063L5.75626 18.2938C5.79376 18.2875 5.82501 18.2875 5.86251 18.2875C5.88126 18.2875 5.93126 18.25 5.95626 18.2875C5.98126 18.325 6.02501 18.3188 6.02501 18.2688L6.06251 18.325L6.11251 18.2875L6.16876 18.275H6.18751L6.22501 18.3375H6.28751L6.29376 18.3063C6.33126 18.325 6.36876 18.3375 6.40626 18.3625C6.41876 18.3375 6.39376 18.3188 6.38751 18.2688C6.37501 18.2 6.35001 18.1375 6.32501 18.075C6.35626 18.075 6.38751 18.0688 6.41251 18.05C6.46876 18.0125 6.41251 18.05 6.45001 17.9688C6.48751 17.8875 6.41876 17.825 6.49376 17.8188C6.53126 17.8188 6.55626 17.8125 6.56876 17.7563C6.56251 17.725 6.55626 17.6938 6.55626 17.6625C6.56251 17.6125 6.56251 17.5813 6.56251 17.5563Z" fill="#0041E6"/>
<path d="M1.9875 12.1625C2.00625 12.1562 2.01875 12.1687 2.0375 12.1625C2.05625 12.1562 2.0625 12.1437 2.08125 12.15C2.1 12.1562 2.125 12.1687 2.1375 12.15C2.15 12.1312 2.11875 12.125 2.1375 12.0812C2.15625 12.0375 2.15625 12.0375 2.16875 12.05C2.18125 12.0625 2.16875 12.1062 2.16875 12.1062L2.19375 12.1187L2.21875 12.0875C2.23125 12.0687 2.25 12.0562 2.275 12.0437C2.3 12.0312 2.31875 12.0125 2.34375 11.9937L2.38125 11.9375C2.4375 11.975 2.5 12.0125 2.56875 12.0375V11.9625L2.725 12.0187L2.74375 12.0312C2.78125 11.9812 2.83125 11.9437 2.8875 11.925C2.8875 11.925 2.85625 11.9625 2.86875 11.9875L2.9 11.9625C2.91875 11.9437 2.925 11.9375 2.925 11.9625V11.9875L2.95 11.9687C2.95625 11.95 2.96875 11.9312 2.98125 11.9125L3.01875 11.9L3.09375 11.8562C3.1 11.8687 3.10625 11.875 3.11875 11.8875C3.1375 11.9062 3.1375 11.85 3.1375 11.85L3.10625 11.8187C3.14375 11.8062 3.18125 11.8 3.225 11.8L3.24375 11.8625C3.24375 11.8625 3.23125 11.9062 3.24375 11.9062C3.25625 11.9062 3.28125 11.875 3.28125 11.875V11.8562V11.8125C3.3125 11.8125 3.3375 11.8187 3.36875 11.8312L3.38125 11.8812L3.40625 11.9125L3.44375 11.9312C3.45 11.95 3.45625 11.9687 3.4625 11.9875L3.5 12L3.51875 11.9875L3.525 12L3.5375 12.0187C3.55 12.0312 3.55625 12 3.55625 11.9875V11.9812L3.525 11.95C3.5625 11.9375 3.58125 11.8562 3.625 11.8562L3.6375 11.9L3.64375 11.9187C3.64375 11.9187 3.63125 11.9625 3.64375 11.9625C3.66875 11.9687 3.68125 11.9312 3.68125 11.9312V11.9125V11.8937V11.8687C3.70625 11.8687 3.725 11.825 3.75 11.8312H3.7625L3.79375 11.7437L3.81875 11.775L3.85625 11.6687L3.875 11.725C3.89375 11.7312 3.90625 11.6437 3.91875 11.65L3.94375 11.6625C3.95625 11.5687 3.9625 11.7312 3.9625 11.6375C3.9625 11.6375 3.98125 11.6687 4.025 11.5312C4.04375 11.4812 4.05625 11.425 4.0625 11.3687C4.06875 11.3375 4.075 11.3062 4.08125 11.275C4.09375 11.1937 4.08125 11.1125 4.05 11.1062C4.01875 11.1 4.04375 10.9625 4.04375 10.9625C4.04375 10.9625 4.0375 10.9 4.00625 10.9C3.975 10.9 4.01875 10.7937 4.04375 10.7437C4.0625 10.6562 4.0625 10.575 4.05625 10.4875C4.05625 10.4437 4.1 10.2 4.05625 10.1625C4.0375 10.1375 4 10.1312 3.975 10.15C3.975 10.15 3.99375 9.96875 3.94375 9.925L3.8875 9.8875C3.81875 9.84375 3.7375 9.8125 3.65625 9.79375L3.625 9.825C3.575 9.85 3.55625 9.65 3.55625 9.65L3.525 9.68125L3.49375 9.66875C3.49375 9.66875 3.50625 9.625 3.49375 9.6125C3.48125 9.6 3.475 9.6 3.45625 9.64375C3.4375 9.6875 3.475 9.69375 3.45625 9.7125C3.4375 9.73125 3.40625 9.71875 3.3875 9.7125C3.36875 9.70625 3.3625 9.7125 3.3375 9.725C3.3125 9.7375 3.3 9.71875 3.275 9.725C3.2625 9.73125 3.24375 9.7375 3.23125 9.74375H3.1875C3.15625 9.725 3.13125 9.7125 3.10625 9.6875C3.09375 9.68125 3.0375 9.68125 3.03125 9.63125C3.03125 9.5875 2.99375 9.56875 2.96875 9.60625V9.5375H2.9125L2.8625 9.50625L2.85625 9.5V9.425L2.8125 9.39375L2.79375 9.4125C2.76875 9.375 2.75 9.3375 2.73125 9.3L2.725 9.23125C2.6875 9.3 2.65 9.35625 2.6 9.4125C2.575 9.43125 2.55 9.45 2.51875 9.4625L2.49375 9.475C2.475 9.48125 2.4625 9.49375 2.45 9.50625L2.41875 9.5375L2.3875 9.525C2.3875 9.50625 2.3875 9.49375 2.3875 9.475V9.4625C2.38125 9.45625 2.375 9.45625 2.36875 9.4625C2.3625 9.475 2.35625 9.4875 2.35 9.5C2.33125 9.54375 2.36875 9.55 2.35 9.56875C2.33125 9.5875 2.3 9.575 2.28125 9.56875C2.2625 9.5625 2.25625 9.56875 2.23125 9.58125C2.20625 9.59375 2.19375 9.575 2.16875 9.58125C2.15625 9.5875 2.1375 9.5875 2.125 9.59375H2.09375C2.06875 9.58125 2.04375 9.56875 2.025 9.55L2.01875 9.5375C2.00625 9.5375 1.96875 9.53125 1.95 9.50625L1.91875 9.55C1.89375 9.56875 1.86875 9.5875 1.8375 9.60625C1.8125 9.6125 1.7875 9.63125 1.76875 9.65L1.7375 9.68125L1.70625 9.66875C1.70625 9.66875 1.71875 9.625 1.70625 9.6125C1.69375 9.6 1.6875 9.6 1.66875 9.64375C1.65 9.6875 1.6875 9.69375 1.66875 9.7125C1.65 9.725 1.625 9.7125 1.60625 9.7125C1.5875 9.7125 1.58125 9.7125 1.55625 9.725C1.53125 9.7375 1.51875 9.71875 1.49375 9.725C1.48125 9.73125 1.4625 9.7375 1.45 9.74375H1.4375C1.4125 9.75 1.3875 9.76875 1.36875 9.7875L1.3375 9.81875L1.30625 9.80625C1.30625 9.80625 1.31875 9.7625 1.30625 9.75C1.29375 9.7375 1.2875 9.7375 1.26875 9.78125C1.25 9.825 1.2875 9.83125 1.26875 9.85C1.25 9.86875 1.21875 9.85625 1.2 9.85C1.18125 9.84375 1.175 9.85 1.15 9.8625C1.125 9.875 1.1125 9.85625 1.0875 9.8625C1.075 9.86875 1.05625 9.875 1.04375 9.88125H1.01875C0.987503 9.86875 0.962503 9.85 0.937503 9.83125C0.918753 9.825 0.868753 9.83125 0.862503 9.78125C0.856253 9.73125 0.825003 9.71875 0.800003 9.7625V9.69375H0.731253L0.681253 9.675L0.675003 9.66875V9.5625L0.625003 9.53125L0.606253 9.55C0.581253 9.51875 0.562503 9.48125 0.550003 9.44375C0.525003 9.45625 0.537503 9.4875 0.518753 9.53125C0.493753 9.59375 0.481253 9.6625 0.475003 9.73125C0.450003 9.7125 0.425003 9.7 0.393753 9.70625C0.331253 9.70625 0.393753 9.70625 0.325003 9.75625C0.256253 9.80625 0.281253 9.89375 0.218753 9.8625C0.187503 9.84375 0.168753 9.8375 0.131253 9.875C0.118753 9.90625 0.112503 9.9375 0.0937527 9.9625C0.0812527 9.9875 0.0687527 10.0187 0.0625027 10.0437C0.0625027 10.0437 0.0375027 10.0625 0.0437527 10.1937C0.0500027 10.325 0.0125027 10.1562 0.0187527 10.2312C2.72878e-06 10.4312 0.00625273 10.6312 0.0312527 10.8312C0.0500027 10.9187 0.0625027 11.0125 0.0500027 11.1C0.0437527 11.1875 0.0375027 11.0312 0.0187527 11.3437C0.00625273 11.4 0.0125027 11.4625 0.0375027 11.5187C0.0625027 11.55 0.0812527 11.5812 0.0937527 11.6187C0.106253 11.6875 0.131253 11.6 0.125003 11.6875C0.175003 11.7187 0.225003 11.7437 0.281253 11.7687L0.337503 11.825L0.443753 11.875L0.462503 11.8875C0.500003 11.8125 0.612503 11.95 0.612503 11.95C0.612503 11.95 0.537503 12.0312 0.650003 12.05C0.725003 12.05 0.793753 12.0187 0.837503 11.9562C0.918753 11.9375 1.00625 11.95 1.075 12C1.13125 12.05 1.21875 12.05 1.275 12L1.575 11.95L1.65 11.9V11.9687L1.65625 11.975L1.7 11.9937H1.75V12.0625C1.76875 12.025 1.8 12.0375 1.8 12.0812C1.80625 12.125 1.84375 12.125 1.8625 12.1312C1.88125 12.15 1.90625 12.1687 1.93125 12.1875H1.95625C1.9625 12.1812 1.975 12.1687 1.9875 12.1625Z" fill="#0041E6"/>
</g>
<defs>
<clipPath id="clip0_7664_50167">
<rect width="32" height="32" fill="white"/>
</clipPath>
</defs>
</svg>
