<svg width="32" height="32" viewBox="0 0 32 32" fill="none" xmlns="http://www.w3.org/2000/svg">
<path d="M30.7188 15.2C30.7 14.9437 30.7188 14.6813 30.7625 14.425C30.8125 14.2063 30.8062 13.975 30.75 13.7563C30.725 13.4188 30.6875 13.075 30.6375 12.7125L30.55 12.45L30.6187 12.4375V12.4187L30.6125 12.2437L30.575 12.05L30.6437 12.0375C30.5812 11.9438 30.55 11.775 30.5938 11.7563C30.6375 11.7188 30.5625 11.5 30.55 11.4625C30.5375 11.3625 30.5125 11.2625 30.4813 11.1625L30.4438 11.075C30.4125 11.0188 30.3875 10.9875 30.3563 10.9375C30.3125 10.8687 30.3 10.8125 30.2437 10.7375C30.2 10.6875 30.1625 10.6375 30.1313 10.5813C30.0938 10.5 30.0438 10.425 29.9813 10.3562C29.925 10.3187 30.0125 10.4375 29.925 10.4C29.8375 10.3562 29.8375 10.3625 29.8125 10.3062C29.7875 10.25 29.8625 10.2688 29.8625 10.2688L29.8 10.1687L29.6875 10.0938L29.4625 9.91875C29.3562 9.83125 29.2437 9.75625 29.125 9.69375C29.0562 9.6625 28.9875 9.6375 28.9125 9.6125C28.6375 9.36875 28.3125 9.18125 27.9625 9.075L27.9438 9.15C27.6562 9.0625 27.35 9.025 27.05 9.04375H26.95L26.5688 9.21875C26.5438 9.15 26.5312 9.075 26.5187 9.00625C26.5187 9.00625 26.5562 9.08125 26.5875 9.05625L26.5625 8.975C26.5375 8.93125 26.5375 8.91875 26.5625 8.91875H26.5875L26.575 8.85C26.55 8.83125 26.5312 8.8 26.5125 8.775L26.4937 8.6875L26.4438 8.5C26.4563 8.48125 26.4688 8.4625 26.475 8.4375C26.4875 8.39375 26.4312 8.39375 26.4312 8.39375L26.4 8.475C26.3875 8.38125 26.3813 8.28125 26.375 8.1875L26.4375 8.1375C26.4375 8.1375 26.4813 8.1625 26.4813 8.1375C26.4875 8.10625 26.475 8.06875 26.4438 8.05H26.4375L26.3937 8.04375L26.4062 7.81875L26.4562 7.78125L26.4875 7.71875L26.5063 7.61875C26.525 7.6 26.5438 7.58125 26.5625 7.56875L26.575 7.48125L26.5625 7.43125L26.575 7.40625L26.5938 7.36875C26.6063 7.3375 26.575 7.325 26.5625 7.325H26.5562L26.525 7.40625C26.5125 7.3125 26.425 7.2625 26.425 7.1625L26.4688 7.125L26.4875 7.10625C26.4875 7.10625 26.5312 7.13125 26.5312 7.10625C26.5375 7.075 26.525 7.0375 26.4937 7.01875H26.4688H26.45H26.425C26.425 6.95625 26.375 6.90625 26.3813 6.84375V6.8125L26.2938 6.73125L26.325 6.66875L26.2125 6.58125C26.225 6.5625 26.25 6.54375 26.2687 6.525C26.275 6.48125 26.1812 6.45 26.1875 6.425L26.1938 6.3625C26.0938 6.34375 26.2625 6.3125 26.1688 6.3125C26.1688 6.3125 26.2 6.26875 26.0562 6.175C25.9125 6.08125 25.8875 6.0875 25.8875 6.0875C25.875 6.08125 25.8625 6.075 25.8563 6.075V6.04375C25.8563 6.04375 25.9125 6.075 25.9125 6.03125C25.9188 5.9875 25.9125 5.9875 25.8563 5.94375C25.8 5.9 25.8125 5.99375 25.7875 5.95625C25.7625 5.9 25.75 5.8375 25.75 5.76875C25.7313 5.7 25.7063 5.625 25.6688 5.5625C25.625 5.46875 25.625 5.39375 25.5812 5.30625C25.55 5.24375 25.5312 5.2 25.5063 5.13125L25.4688 5.0125C25.4375 4.89375 25.3875 4.78125 25.325 4.675C25.2875 4.61875 25.1187 4.44375 25.1437 4.40625C25.1687 4.36875 25.0625 4.24375 24.9375 4.20625L24.9813 4.15L24.7687 4L24.6625 3.90625L24.65 3.8875L24.6875 3.825L24.6 3.71875L24.5375 3.70625C24.5 3.6375 24.4688 3.56875 24.4375 3.50625L24.4562 3.43125C24.2937 3.425 24.125 3.40625 23.9625 3.375L23.65 3.2875L23.5625 3.2625C23.5 3.24375 23.4375 3.2375 23.375 3.23125L23.2313 3.225L23.0938 3.18125C23.0938 3.18125 23.1438 3.1625 23.1313 3.1375C23.125 3.13125 23.1187 3.125 23.1125 3.11875C23.0875 3.10625 23.0625 3.1 23.0375 3.1C23 3.1 22.9688 3.1125 22.9312 3.11875C22.8188 3.15 23 3.18125 22.9188 3.1875C22.8375 3.19375 22.6875 3.1625 22.5938 3.15625C22.5187 3.15 22.4375 3.15 22.3625 3.16875C22.25 3.1875 22.1812 3.16875 22.0812 3.2L21.8813 3.25625L21.7563 3.28125L21.4375 3.34375L21.3813 3.35625C21.2938 3.39375 21.2 3.425 21.1063 3.45625L21.0938 3.46875L21.0688 3.45625L21.1 3.4125L20.9875 3.35C21.0062 3.33125 21.025 3.31875 21.0438 3.3125C21.05 3.28125 20.9562 3.2625 20.9625 3.24375L20.975 3.2C20.875 3.1875 21.0438 3.1625 20.95 3.1625C20.95 3.1625 20.9812 3.125 20.8375 3.0625C20.7875 3.03125 20.725 3.0125 20.6688 3L20.6375 2.99375V2.975C20.6375 2.975 20.6938 3.00625 20.6938 2.9625C20.7 2.91875 20.6938 2.91875 20.6375 2.875C20.5813 2.83125 20.5938 2.925 20.5688 2.8875C20.5438 2.83125 20.5312 2.76875 20.5312 2.7C20.5125 2.63125 20.4875 2.55625 20.45 2.49375C20.4062 2.4 20.4062 2.325 20.3625 2.2375C20.3312 2.175 20.3125 2.13125 20.2875 2.0625L20.25 1.94375C20.2188 1.825 20.1688 1.7125 20.1063 1.60625C20.0688 1.55 19.9 1.375 19.925 1.3375C19.95 1.3 19.8438 1.175 19.7188 1.1375L19.7625 1.08125L19.55 0.93125L19.4438 0.8375L19.4312 0.81875L19.4688 0.7625L19.3875 0.65625L19.325 0.64375C19.2875 0.575 19.2563 0.50625 19.225 0.44375L19.2437 0.36875C19.0812 0.3625 18.9125 0.34375 18.75 0.3125L18.4375 0.225L18.375 0.175C18.3125 0.15625 18.25 0.15 18.1875 0.14375L18.05 0.1375L17.9125 0.09375C17.9125 0.09375 17.9625 0.075 17.95 0.05C17.9438 0.0375 17.9375 0.03125 17.9312 0.025C17.9062 0.00625 17.875 0 17.85 0C17.8125 0 17.7812 0.0125 17.7437 0.01875C17.6313 0.04375 17.8125 0.08125 17.7313 0.0875C17.625 0.08125 17.5125 0.075 17.4062 0.05625C17.3312 0.05 17.25 0.05 17.175 0.06875C17.0625 0.0875 16.9937 0.06875 16.8937 0.1L16.6938 0.15625L16.5688 0.18125L16.25 0.25L16.1938 0.2625C16.1063 0.3 16.0125 0.33125 15.9187 0.3625L15.8125 0.475L15.5688 0.70625C15.5 0.7625 15.4438 0.83125 15.3938 0.90625L15.325 1.01875L15.2312 1.0875C15.2312 1.0875 15.2312 1.0125 15.1875 1.04375C15.1438 1.075 15.1375 1.075 15.1187 1.16875C15.0938 1.25625 15.2 1.1625 15.1687 1.21875L15.1562 1.2375C15.1125 1.3 15.0563 1.35625 15.0063 1.40625C14.9625 1.45 14.9312 1.5 14.9062 1.55C14.8625 1.625 14.8125 1.65625 14.7812 1.725C14.7563 1.775 14.7437 1.8125 14.7125 1.8625L14.7063 1.875L14.6938 1.9C14.6562 1.96875 14.6313 2.04375 14.6125 2.125L14.5938 2.2375L14.5375 2.325C14.5375 2.325 14.5188 2.25625 14.4812 2.3C14.45 2.34375 14.4438 2.34375 14.4563 2.43125C14.4688 2.51875 14.525 2.40625 14.525 2.4625C14.5062 2.5375 14.475 2.60625 14.4375 2.675C14.4125 2.725 14.4 2.775 14.3938 2.83125C14.375 2.90625 14.3438 2.94375 14.3313 3.0125L14.3062 3.15L14.2812 3.23125L14.1625 3.4625C14.1438 3.50625 14.1125 3.66875 14.0625 3.66875C14.0125 3.6625 13.975 3.76875 14.0063 3.85625L13.9375 3.8375L13.9125 4.00625L13.8687 4.15625L13.8562 4.175L13.7812 4.16875L13.725 4.29375L13.7375 4.35C13.7 4.40625 13.6562 4.4625 13.6062 4.5125C13.6125 4.58125 13.65 4.55 13.6875 4.61875C13.7375 4.6875 13.8063 4.7375 13.8813 4.775C13.85 4.85 13.8375 4.93125 13.8375 5.0125C13.8312 5.18125 13.8375 5.0125 13.8813 5.2125C13.8938 5.2625 13.9125 5.3125 13.9438 5.35C13.8563 5.3375 13.775 5.3375 13.675 5.31875L13.3625 5.23125L13.275 5.20625C13.2125 5.1875 13.15 5.175 13.0875 5.16875H12.9375L12.8 5.125C12.8 5.125 12.85 5.10625 12.8375 5.08125C12.8312 5.075 12.825 5.06875 12.8188 5.06875C12.7938 5.05625 12.7687 5.05 12.7437 5.05C12.7062 5.05 12.6688 5.0625 12.6313 5.06875C12.5188 5.09375 12.7 5.13125 12.6187 5.1375C12.5125 5.13125 12.4 5.125 12.2937 5.10625C12.2188 5.1 12.1375 5.1 12.0625 5.11875C11.95 5.1375 11.8813 5.11875 11.7812 5.15L11.5813 5.20625L11.4563 5.2375L11.1375 5.3L11.0813 5.3125C10.9938 5.35 10.9 5.38125 10.8062 5.40625L10.7 5.51875L10.4563 5.75C10.3875 5.80625 10.3313 5.875 10.2812 5.95L10.2125 6.0625L10.1187 6.13125C10.1187 6.13125 10.1187 6.05625 10.075 6.0875C10.0312 6.11875 10.025 6.11875 10.0063 6.2125C9.98125 6.3 10.0875 6.20625 10.0625 6.2625L10.05 6.28125C10.0063 6.34375 9.95 6.4 9.9 6.45C9.85625 6.49375 9.825 6.54375 9.8 6.59375C9.75625 6.66875 9.70625 6.7 9.675 6.76875C9.65 6.81875 9.6375 6.85625 9.60625 6.90625L9.6 6.91875L9.5875 6.94375C9.55 7.0125 9.525 7.0875 9.50625 7.16875L9.4875 7.28125L9.43125 7.36875C9.43125 7.36875 9.4125 7.3 9.375 7.34375C9.34375 7.3875 9.3375 7.3875 9.35 7.475C9.3625 7.5625 9.41875 7.45 9.41875 7.50625C9.4 7.58125 9.36875 7.65 9.33125 7.71875C9.30625 7.76875 9.29375 7.81875 9.2875 7.86875C9.26875 7.94375 9.2375 7.98125 9.225 8.05L9.2 8.1875L9.175 8.26875L9.0625 8.5C9.04375 8.54375 9.0125 8.70625 8.9625 8.70625C8.9125 8.70625 8.875 8.80625 8.90625 8.89375L8.83125 8.86875L8.80625 9.0375L8.7625 9.1875L8.75 9.20625L8.675 9.2L8.61875 9.325L8.63125 9.3875C8.59375 9.44375 8.55 9.5 8.5 9.55C8.50625 9.61875 8.54375 9.5875 8.58125 9.65625C8.63125 9.725 8.7 9.78125 8.775 9.81875C8.74375 9.89375 8.73125 9.975 8.73125 10.0562C8.725 10.225 8.73125 10.0563 8.775 10.2563C8.80625 10.3938 8.8625 10.4062 8.88125 10.4625H8.875L8.88125 10.4812C8.88125 10.5062 8.88125 10.5312 8.875 10.5562C8.86875 10.5812 8.86875 10.6062 8.8625 10.625C8.85 10.625 8.8375 10.625 8.8375 10.6375C8.825 10.6812 8.825 10.6812 8.86875 10.75C8.86875 10.7688 8.875 10.7875 8.88125 10.8062C8.90625 10.825 8.925 10.85 8.94375 10.875C8.94375 10.9 8.94375 10.9312 8.9375 10.95C8.93125 11 8.9375 11.05 8.95 11.0938C8.95625 11.1625 8.9375 11.2063 8.95 11.2688C8.95625 11.3125 8.9625 11.3562 8.96875 11.3938V11.475C8.95625 11.5688 8.91875 11.675 8.9125 11.7125C8.90625 11.75 8.90625 11.9125 8.85625 11.9187C8.80625 11.925 8.7875 12.0312 8.83125 12.1H8.75625V12.2625L8.7375 12.4062L8.73125 12.425H8.65625L8.61875 12.55L8.6375 12.6062C8.6 12.6687 8.5625 12.725 8.51875 12.7812L8.44375 12.8C8.51875 12.9125 8.58125 13.0375 8.63125 13.1687C8.65625 13.2437 8.66875 13.325 8.68125 13.4062L8.69375 13.4688C8.7 13.5125 8.7125 13.5563 8.725 13.6L8.7625 13.6938L8.75 13.7812C8.75 13.7812 8.725 13.75 8.7 13.7625C8.69375 13.7688 8.69375 13.7687 8.6875 13.775C8.68125 13.7875 8.68125 13.8062 8.6875 13.825C8.7 13.8438 8.7125 13.8687 8.725 13.8875C8.76875 13.95 8.775 13.8438 8.79375 13.8875C8.80625 13.9563 8.80625 14.025 8.79375 14.0875C8.7875 14.1375 8.79375 14.1875 8.80625 14.2312C8.8125 14.3 8.79375 14.3438 8.80625 14.4062C8.8125 14.45 8.81875 14.4937 8.825 14.5312L8.81875 14.6125C8.80625 14.6813 8.79375 14.75 8.76875 14.8125L8.7625 14.85C8.7625 14.9125 8.75 14.9812 8.725 15.0437L8.76875 15.1438C8.79375 15.225 8.8125 15.3 8.81875 15.3813C8.825 15.45 8.8375 15.5125 8.8625 15.575L8.9 15.6687L8.8875 15.7563C8.8875 15.7563 8.8375 15.7125 8.825 15.7563C8.8125 15.8 8.8125 15.8 8.85625 15.8687C8.9 15.9375 8.9125 15.825 8.93125 15.8687V15.8875C8.9375 15.95 8.9375 16.0125 8.93125 16.0688C8.925 16.1187 8.93125 16.1687 8.9375 16.2125C8.94375 16.2812 8.925 16.325 8.9375 16.3875C8.94375 16.4313 8.95 16.475 8.95625 16.5187V16.5312V16.55C8.9625 16.6187 8.975 16.6812 9 16.7437L9.0375 16.8375L9.025 16.925C9.025 16.925 8.975 16.8812 8.9625 16.925C8.95 16.9688 8.95 16.9688 8.99375 17.0375C9.0375 17.1063 9.05 16.9937 9.06875 17.0375C9.08125 17.1063 9.08125 17.175 9.06875 17.2375C9.0625 17.2875 9.06875 17.3313 9.075 17.3813L8.83125 17.1625L8.74375 17.0812C8.45625 16.9 8.19375 16.675 7.975 16.4188C7.975 16.4188 8.41875 16.6437 7.83125 16.1875C7.4375 15.9062 7.00625 15.6875 6.54375 15.5375C6.54375 15.5375 6.31875 15.4312 5.96875 15.2937C5.5 15.1062 5.00625 14.9875 4.50625 14.9312C3.925 14.8875 3.35 15.0375 2.86875 15.3687C2.66875 15.5062 2.4875 15.6687 2.3375 15.8625C1.69375 16.5812 1.30625 17.4875 1.23125 18.4438C1.23125 18.6688 1.25 18.8937 1.28125 19.1125H1.1875V19.1625C1.1875 19.2875 1.2 19.4125 1.2125 19.5375C1.2375 19.675 1.2625 19.8125 1.29375 19.9438L1.225 19.9625C1.31875 20.1375 1.36875 20.3813 1.3375 20.4062C1.3 20.4312 1.43125 20.8062 1.475 20.9C1.53125 21.0875 1.6 21.2688 1.68125 21.4438L1.775 21.6125C1.83125 21.7 1.89375 21.7875 1.95625 21.8687C2.05 21.9875 2.09375 22.0938 2.20625 22.2188C2.31875 22.35 2.375 22.4062 2.4375 22.4875C2.5125 22.5938 2.59375 22.6875 2.6875 22.775C2.7625 22.8312 2.63125 22.6625 2.74375 22.7313C2.85625 22.8 2.85625 22.7875 2.9 22.8625C2.94375 22.9312 2.85625 22.9 2.85625 22.9L2.95625 23.0312L3.1 23.1437C3.2 23.2188 3.2875 23.3 3.375 23.3875C3.5125 23.5188 3.6375 23.625 3.7125 23.6875L3.925 23.8312C4.1625 24.1437 4.4125 24.475 4.6875 24.8125L4.74375 24.7625L5.40625 25.5562L5.475 25.65C5.74375 25.8375 5.99375 26.0437 6.23125 26.275C6.23125 26.275 6.0625 26.15 6.08125 26.2188L6.0875 26.225L6.26875 26.375C6.3625 26.4438 6.4 26.4688 6.38125 26.4875L6.3625 26.5063L6.4875 26.6063C6.55625 26.6375 6.61875 26.675 6.68125 26.7188L6.8625 26.8813L7.24375 27.2062C7.26875 27.25 7.3 27.3 7.33125 27.3375C7.4 27.4312 7.45 27.4 7.45 27.4L7.31875 27.225L7.875 27.7625L7.91875 27.9C7.91875 27.9 7.8375 27.8813 7.8875 27.9312C7.9375 27.9937 8.00625 28.05 8.08125 28.0812L8.09375 28.0625L8.15 28.05L8.5375 28.4688L8.5625 28.5688L8.65 28.7062L8.8125 28.9062C8.8375 28.95 8.85 28.9937 8.85625 29.0375L9.0125 29.2125L9.1125 29.3L9.14375 29.35L9.2 29.4312C9.25 29.5 9.29375 29.5 9.3125 29.4937H9.325L9.2 29.3188C9.38125 29.4875 9.54375 29.5312 9.725 29.7188L9.75 29.8125L9.7625 29.8563C9.7625 29.8563 9.68125 29.8375 9.73125 29.8875C9.78125 29.95 9.84375 30.0063 9.91875 30.0375L9.9375 30.025H9.9625H9.99375C10.1062 30.1437 10.2375 30.2125 10.3438 30.3312L10.4 30.3937L10.6125 30.4875L10.6938 30.625L10.9438 30.7375C10.9688 30.7812 10.9812 30.825 10.9875 30.8687C11.0563 30.9562 11.1938 30.9625 11.2375 31.0125L11.3375 31.1313C11.4625 31.1125 11.3625 31.2625 11.45 31.2125C11.45 31.2125 11.5 31.325 11.7875 31.425C12.0688 31.525 12.0875 31.5063 12.0875 31.5063C12.1375 31.525 12.1875 31.525 12.2375 31.5187C12.35 31.5125 12.35 31.3875 12.2375 31.25C12.125 31.1125 12.3188 31.1125 12.3188 31.1125C12.3188 31.1125 12.3375 31.0375 12.1875 30.875C12.0375 30.7125 12.3188 30.8625 12.4875 30.9625C12.6562 31.0625 12.7063 30.8625 12.7375 30.8375C12.775 30.8125 13.1562 30.8438 13.0125 30.6313C12.9125 30.4813 12.7938 30.3438 12.6625 30.225C12.6625 30.225 12.9 30.2 12.6938 29.9125L12.4875 29.625C12.2312 29.2812 11.8625 28.8438 11.525 28.4625L11.3125 28.275C11.0562 28.0437 11.1438 27.8312 11.1438 27.8312L10.9688 27.7L10.8375 27.55C10.8375 27.55 10.9438 27.5875 10.8813 27.5063C10.8188 27.425 10.8188 27.425 10.6875 27.3563C10.5562 27.2875 10.725 27.4688 10.6375 27.4062C10.5188 27.3062 10.4125 27.2 10.3188 27.0812C10.2438 27 10.1625 26.925 10.0813 26.8563L9.8 26.5688L9.5875 26.375L9.4625 26.2437L9.125 25.8188C9.0625 25.7437 8.8125 25.4813 8.8375 25.4438C8.8625 25.4062 8.71875 25.2188 8.56875 25.1313L8.61875 25.0812L8.3625 24.8188L8.14375 24.5688L8.11875 24.5312L8.16875 24.4813L8 24.25L7.9 24.175C7.83125 24.05 7.76875 23.925 7.71875 23.8125L7.7375 23.725C7.49375 23.5875 7.2625 23.4313 7.0375 23.2625C6.95 23.1938 6.8 23.0625 6.6375 22.9125L6.525 22.8125L6.3 22.6187L6.13125 22.4875L6.01875 22.3312C6.01875 22.3312 6.08125 22.3563 6.075 22.3188C6.075 22.3062 6.06875 22.3 6.0625 22.2875C6.04375 22.2563 6.01875 22.2312 5.99375 22.2062C5.95625 22.1812 5.91875 22.1562 5.875 22.1313C5.74375 22.0562 5.90625 22.2437 5.81875 22.1812C5.70625 22.0812 5.60625 21.9688 5.51875 21.8438C5.45 21.7625 5.375 21.6812 5.29375 21.6125L5.03125 21.3188L4.83125 21.1187L4.71875 20.9813C4.61875 20.8563 4.5125 20.6938 4.46875 20.6187L4.44375 20.5688C4.38125 20.4875 4.325 20.3938 4.2875 20.2938C4.24375 20.2563 4.20625 20.2188 4.1625 20.1812C4.075 20.075 3.99375 19.9688 3.925 19.8438L3.7625 19.5562C3.73125 19.5125 3.7125 19.4625 3.68125 19.4188C3.6625 19.3313 3.65625 19.2812 3.65625 19.2812C3.65625 19.2812 3.71875 19.3375 3.7125 19.2687C3.7125 19.2 3.7125 19.2 3.65 19.1125C3.5875 19.025 3.6125 19.1938 3.58125 19.125L3.56875 19.0938C3.55 19 3.54375 18.9062 3.55 18.8125C3.55625 18.7437 3.55625 18.6688 3.55 18.6C3.55625 18.5188 3.575 18.4312 3.59375 18.35L3.625 18.1688L3.63125 18.1562L3.6375 18.125C3.69375 17.9125 3.725 17.8438 3.725 17.8438L3.76875 17.7C3.79375 17.6562 3.825 17.6187 3.8625 17.5875C3.8625 17.5875 3.8625 17.6688 3.9125 17.625C3.9625 17.575 3.9625 17.575 3.9875 17.4688C4.0125 17.3563 3.9 17.4937 3.93125 17.425C3.9625 17.3625 4.01875 17.3125 4.08125 17.2812L4.19375 17.2062C4.25 17.1687 4.3 17.1875 4.35625 17.1625C4.40625 17.1625 4.425 17.1375 4.49375 17.1437L4.60625 17.1562C4.725 17.1875 4.84375 17.2375 4.95625 17.2875C5.025 17.3125 5.29375 17.4125 5.28125 17.4688C5.275 17.5187 5.4375 17.6063 5.5875 17.6375L5.55625 17.7L5.8375 17.85L6.08125 18.0125L6.1125 18.0375L6.075 18.1L6.26875 18.2687L6.38125 18.3125C6.4625 18.4125 6.5375 18.5125 6.60625 18.6187C6.725 18.6938 6.68125 18.6188 6.81875 18.6688C6.9375 18.7 7.0625 18.7062 7.18125 18.6875C7.30625 18.8125 7.44375 18.9187 7.58125 19.025C7.8875 19.25 7.58125 19.025 7.9625 19.25C8.34375 19.475 8.3 19.3188 8.58125 19.5875C8.71875 19.725 8.875 19.8375 9.05 19.925C9.05625 19.9562 9.05 19.9875 9.04375 20.0187C9.01875 20.1062 9.01875 20.1938 9.05625 20.2812C9.0875 20.3188 9.11875 20.3562 9.14375 20.3937C9.1625 20.4312 9.19375 20.4688 9.23125 20.5C9.23125 20.5 9.25 20.5688 9.3875 20.5688C9.525 20.5688 9.35 20.6562 9.43125 20.6437C9.63125 20.7125 9.85 20.7188 10.0562 20.6625C10.2188 20.6375 10.1687 20.5625 10.3438 20.6187C10.4375 20.65 10.2688 20.65 10.6 20.7313C10.7 20.7563 10.6687 20.7688 10.7812 20.6938C10.7937 20.6875 10.8125 20.6375 10.85 20.5812L11.2937 20.6437L11.4625 20.7L11.7812 20.7625L11.8313 20.775C11.9625 20.7 12.275 20.8875 12.275 20.8875C12.275 20.8875 12.0437 20.9438 12.3687 21C12.5625 21.0375 12.7625 21.0375 12.9563 21C13.2 21.0312 13.4313 21.1063 13.6438 21.225C13.8188 21.3313 14.0125 21.4 14.2188 21.425C14.5125 21.525 14.8 21.6375 15.075 21.775L15.3 21.8375L15.2625 21.9L15.275 21.9125L15.375 21.9937L15.4937 22.0625L15.4563 22.125C15.5312 22.125 15.6 22.1812 15.575 22.225C15.55 22.2688 15.6625 22.3375 15.6875 22.3625L15.8062 22.5187L15.8562 22.5625C15.8812 22.5812 15.9125 22.5938 15.9438 22.6063C15.9875 22.6313 16 22.6625 16.0438 22.6875C16.075 22.7 16.1063 22.725 16.1313 22.75C16.1562 22.7812 16.2 22.8375 16.2437 22.85C16.2875 22.8563 16.2313 22.8 16.2938 22.8C16.3563 22.8 16.3625 22.8 16.375 22.8312C16.3875 22.8625 16.3312 22.875 16.3312 22.875L16.3687 22.9312L16.4375 22.9562C16.4812 22.975 16.525 23 16.5562 23.0312C16.6 23.0625 16.65 23.0938 16.7 23.125L16.8 23.1625L16.95 23.6063L17.0187 23.5688C17.0625 23.7 17.1 23.8313 17.1313 23.975L17.1375 24.025C17.2438 24.1313 17.325 24.2562 17.3875 24.3937C17.3875 24.3937 17.325 24.3188 17.3062 24.35L17.3625 24.4438C17.4 24.4875 17.4062 24.5063 17.3813 24.5125L17.3563 24.5187L17.3937 24.5812C17.425 24.6062 17.4563 24.6313 17.475 24.6625L17.5187 24.775L17.6187 25C17.6125 25.025 17.6063 25.0562 17.6063 25.0812C17.6 25.1062 17.6187 25.1313 17.65 25.1375H17.6625L17.6688 25.025C17.7063 25.15 17.7375 25.275 17.7687 25.4L17.7188 25.475C17.7188 25.475 17.6687 25.45 17.675 25.4813C17.675 25.525 17.7 25.5625 17.7313 25.5938H17.75L17.8 25.6C17.8125 25.7 17.825 25.7938 17.8312 25.8875L17.7875 25.9438L17.7687 26.025V26.1562C17.7562 26.1812 17.7375 26.2063 17.7188 26.2313V26.35L17.7375 26.4188L17.725 26.45L17.7125 26.5C17.7062 26.525 17.7188 26.55 17.7437 26.5562H17.7563H17.7687L17.7875 26.4438C17.8125 26.5688 17.9062 26.625 17.9188 26.7625L17.8813 26.8125L17.8625 26.8375C17.8625 26.8375 17.8188 26.8062 17.8188 26.8375C17.8125 26.8813 17.8312 26.925 17.8625 26.9562H17.8875H17.9062L17.9312 26.9625C17.9312 27.0437 17.9937 27.1125 17.9875 27.1938V27.2375L18.0875 27.3375L18.0562 27.4188L18.1688 27.5375C18.1562 27.5625 18.1375 27.5875 18.1125 27.6063C18.1062 27.6625 18.2063 27.7062 18.2 27.7437L18.1938 27.825C18.2938 27.8625 18.125 27.8875 18.225 27.8937C18.225 27.8937 18.1938 27.95 18.3375 28.0938C18.4812 28.2375 18.5063 28.2313 18.5063 28.2313C18.5063 28.2313 18.5188 28.25 18.6063 28.2875C18.6688 28.3188 18.7375 28.2937 18.7687 28.2375C18.775 28.2188 18.7812 28.2 18.7812 28.1812C18.7875 28.0875 18.9312 28.1562 18.9312 28.1562C18.9312 28.1562 18.9937 28.1313 18.9937 28.0125C18.9937 27.8938 19.1063 28.0562 19.1562 28.1562C19.2125 28.2563 19.3812 28.1938 19.425 28.1938C19.475 28.2 19.7312 28.35 19.7687 28.2062C19.7937 28.1062 19.8 28.0063 19.7812 27.9062C19.8625 27.9438 19.9625 27.9062 20 27.825C20.0063 27.8125 20.0125 27.7938 20.0125 27.7812L20.05 27.5812C20.0875 27.2937 20.1 27.0125 20.0938 26.725L20.0562 26.5688C20.0375 26.45 20.1062 26.3375 20.2125 26.3L20.1625 26.1812V26.0625C20.1625 26.0625 20.2188 26.1125 20.2188 26.0562C20.225 26 20.2188 26 20.1688 25.9188C20.1188 25.8438 20.125 25.9875 20.1 25.9312C20.075 25.8438 20.0625 25.7563 20.0625 25.6688C20.0562 25.6063 20.0437 25.5438 20.025 25.4813C20 25.3938 20.0125 25.3313 19.9875 25.2563L19.9438 25.0938L19.9312 25.0125L19.925 24.6938C19.925 24.6375 19.875 24.4312 19.9188 24.4125C19.9625 24.3938 19.95 24.2563 19.8813 24.1688L19.95 24.15L19.8937 23.925L19.8563 23.725V23.7L19.925 23.6812L19.9062 23.5L19.8625 23.4312C19.8687 23.3312 19.875 23.2375 19.8875 23.15L19.9438 23.0938C19.8188 22.9688 19.6938 22.8188 19.5562 22.65L19.35 22.3438L19.2938 22.2563C19.2563 22.2 19.2125 22.1437 19.1688 22.0938L19.0562 21.9813L18.9937 21.8563C18.9937 21.8563 19.0437 21.875 19.05 21.85C19.05 21.8438 19.05 21.8313 19.05 21.825C19.0437 21.8 19.0312 21.7812 19.0125 21.7625C18.9875 21.7375 18.9562 21.7188 18.925 21.7062C18.8312 21.65 18.925 21.7938 18.8687 21.75C18.7937 21.675 18.7312 21.5875 18.675 21.4937C18.6312 21.4312 18.5812 21.375 18.525 21.325C18.45 21.25 18.4125 21.1875 18.3438 21.125L18.1938 21L18.1063 20.9125L17.9125 20.675L17.875 20.6313C17.8 20.5688 17.7375 20.5 17.675 20.425L17.5375 20.375L17.2313 20.2188C17.15 20.175 17.0688 20.1375 16.9813 20.1063L16.85 20.0688L16.75 19.9937C16.75 19.9937 16.825 19.9813 16.7812 19.9438C16.7375 19.9 16.7375 19.9 16.6375 19.9C16.5375 19.8937 16.6625 19.975 16.6 19.9625L16.575 19.9562C16.5 19.9187 16.4312 19.875 16.3625 19.825C16.3062 19.7875 16.2437 19.7625 16.1812 19.7375C16.0938 19.7 16.05 19.6562 15.9688 19.625C15.9125 19.6063 15.8562 19.5875 15.8062 19.5625L15.7937 19.5562L15.7688 19.55C15.6875 19.5125 15.6 19.4875 15.5125 19.475L15.3813 19.4562L15.275 19.3937C15.275 19.3937 15.35 19.375 15.3 19.3375C15.25 19.3 15.25 19.3 15.15 19.3125C15.05 19.325 15.1875 19.3813 15.125 19.3813C15.0375 19.3625 14.95 19.325 14.8687 19.2812C14.8125 19.25 14.75 19.2313 14.6812 19.225C14.5875 19.2063 14.5375 19.1687 14.4563 19.15L14.2875 19.1125L14.1875 19.075L13.8938 18.9375C13.8375 18.9188 13.6313 18.8625 13.6313 18.8125C13.6313 18.7625 13.5 18.7188 13.3938 18.7375L13.4062 18.6688L13.1812 18.625L12.9875 18.575L12.9625 18.5625L12.975 18.4875L12.8062 18.4188L12.725 18.4312C12.65 18.3875 12.575 18.3438 12.5 18.2938C12.4062 18.2938 12.4563 18.3312 12.3625 18.3687C12.275 18.4125 12.2062 18.4813 12.15 18.5625C12.0437 18.5312 11.9375 18.5125 11.825 18.5125C11.5875 18.5063 11.825 18.5125 11.55 18.5562C11.4625 18.5688 11.3812 18.6 11.3062 18.65C11.2937 18.5625 11.2688 18.475 11.2375 18.3937C11.2188 18.1625 11.2375 17.925 11.2875 17.7C11.3375 17.5063 11.3375 17.3062 11.2875 17.1125L11.2437 16.225L11.1938 16.0125H11.2625L11.2688 16L11.2937 15.8813V15.7437H11.3813C11.3375 15.6812 11.3562 15.5938 11.4062 15.5938C11.4563 15.5875 11.4562 15.4563 11.4625 15.425C11.4688 15.3875 11.5063 15.3063 11.5188 15.225V15.1562C11.5188 15.1187 11.5125 15.0813 11.5 15.0437C11.4937 14.9937 11.5125 14.9562 11.5 14.9C11.4875 14.8625 11.4875 14.8188 11.4937 14.7812C11.5062 14.725 11.5062 14.6687 11.4937 14.6125C11.475 14.575 11.4688 14.6625 11.425 14.6125C11.3813 14.5625 11.3813 14.5625 11.3938 14.525C11.4062 14.4875 11.4563 14.525 11.4563 14.525L11.4688 14.45L11.4312 14.3687C11.4125 14.3187 11.4 14.2625 11.3875 14.2063C11.375 14.1375 11.3562 14.075 11.3313 14.0063L11.275 13.8938C11.3187 13.7188 11.35 13.5375 11.3875 13.35H11.3125L11.375 12.8938L11.3875 12.8438C11.325 12.7063 11.2875 12.5625 11.275 12.4125C11.275 12.4125 11.3125 12.5063 11.3438 12.475L11.3188 12.375C11.2938 12.325 11.2938 12.3062 11.3188 12.3062H11.3438L11.325 12.2375C11.3 12.2063 11.2812 12.175 11.2688 12.1438L11.25 12.0312L11.2063 11.8062C11.2188 11.7812 11.2312 11.7625 11.2375 11.7375C11.2563 11.6875 11.1938 11.6812 11.1938 11.6812L11.1625 11.775C11.15 11.6625 11.1438 11.55 11.1438 11.4312L11.2125 11.375C11.2125 11.375 11.2563 11.4062 11.2563 11.375C11.2625 11.3375 11.2563 11.2937 11.225 11.2625H11.2L11.1562 11.25L11.175 10.9937L11.225 10.95L11.2625 10.8813L11.2875 10.7688C11.3063 10.7438 11.325 10.725 11.35 10.7125L11.3625 10.6062L11.35 10.5437L11.3625 10.5188L11.3813 10.475C11.3875 10.4563 11.3812 10.4313 11.3562 10.425C11.35 10.425 11.35 10.425 11.3438 10.425H11.3375L11.3 10.525C11.2875 10.4125 11.2063 10.35 11.2063 10.2312L11.25 10.1938L11.2688 10.175C11.2688 10.175 11.3125 10.2063 11.3125 10.175C11.3188 10.1375 11.3125 10.0938 11.2812 10.0625H11.2563H11.2375L11.2125 10.0562C11.2125 9.98125 11.1687 9.91875 11.175 9.85V9.8125L11.15 9.7875C11.175 9.79375 11.1938 9.775 11.2188 9.6625C11.2437 9.51875 11.2312 9.375 11.1812 9.2375C11.1937 9.075 11.2437 8.91875 11.3375 8.78125C11.4187 8.6875 11.4625 8.5625 11.4625 8.4375C11.5125 8.28125 11.5813 8.13125 11.6687 7.99375L11.7 7.875L11.7563 7.91875H11.7688C11.7875 7.90625 11.8062 7.9 11.825 7.8875L11.8687 7.84375L11.9187 7.89375C11.9125 7.85 11.9437 7.83125 11.9812 7.86875C12.0125 7.90625 12.05 7.86875 12.0625 7.86875C12.0875 7.86875 12.1125 7.875 12.1375 7.88125L12.1562 7.875C12.1625 7.86875 12.1625 7.8625 12.1687 7.85C12.175 7.8375 12.1875 7.85 12.1938 7.8375C12.1938 7.825 12.1938 7.81875 12.2063 7.825L12.1875 7.75625C12.175 7.70625 12.1812 7.7125 12.1875 7.71875L12.2 7.775V7.75C12.2 7.7375 12.2 7.71875 12.2063 7.70625L12.225 7.65L12.2437 7.59375C12.2625 7.65 12.2937 7.7 12.3438 7.73125L12.375 7.6625L12.5562 7.825L12.575 7.85C12.6812 7.8125 12.9 7.925 12.9 7.925C12.9 7.925 12.8188 7.9125 12.8188 7.95L12.9 7.975C12.95 7.98125 12.9625 7.9875 12.95 8.00625L12.9375 8.025L13 8.04375C13.05 8.03125 13.05 8.00625 13.0562 8.0125H13.0813C13.1 8.00625 13.125 8.00625 13.1438 8.00625L13.1313 8.0375C13.125 8.05625 13.175 8.01875 13.175 8.01875L13.1875 7.98125C13.2125 7.9875 13.2375 8.00625 13.25 8.03125L13.1938 8.075C13.1938 8.075 13.1562 8.0875 13.15 8.1C13.15 8.10625 13.1875 8.1 13.1875 8.1L13.2063 8.09375L13.25 8.075V8.1375L13.2 8.15625L13.1687 8.175L13.175 8.28125C13.1625 8.30625 13.15 8.325 13.125 8.34375L13.1313 8.4375L13.1562 8.4875L13.15 8.5125L13.1438 8.55625C13.1438 8.59375 13.1687 8.6 13.1875 8.6H13.2L13.2125 8.50625C13.2437 8.60625 13.3375 8.64375 13.3625 8.75L13.325 8.79375L13.3062 8.8125C13.3062 8.8125 13.2562 8.79375 13.2625 8.81875C13.2625 8.85625 13.2812 8.8875 13.3125 8.90625H13.3375H13.3562H13.3813C13.3938 8.975 13.45 9.01875 13.4563 9.08125V9.11875L13.5625 9.1875L13.5437 9.25625L13.675 9.33125C13.6625 9.35625 13.65 9.375 13.625 9.39375C13.625 9.4375 13.725 9.4625 13.725 9.4875V9.55C13.8313 9.55625 13.6687 9.6125 13.7625 9.6C13.7625 9.6 13.75 9.64375 13.875 9.7125C13.8625 9.7625 13.8375 9.8125 13.8313 9.83125C13.825 9.85 13.8313 9.95625 13.7812 9.9625C13.7312 9.96875 13.7188 10.0375 13.7625 10.0813H13.6875V10.1812L13.6687 10.275L13.6625 10.2875L13.5938 10.2937L13.5562 10.375L13.575 10.4062C13.5375 10.45 13.5 10.4875 13.4625 10.525L13.3875 10.5437C13.4625 10.6062 13.525 10.6812 13.5813 10.7625C13.6062 10.8062 13.625 10.8562 13.6375 10.9062L13.65 10.9438C13.6562 10.9688 13.6687 11 13.6812 11.025L13.7188 11.0813L13.7063 11.1375C13.7063 11.1375 13.675 11.125 13.6562 11.1313C13.6562 11.1313 13.65 11.1313 13.6438 11.1438C13.6438 11.1562 13.6375 11.1625 13.6438 11.175L13.6812 11.2125C13.725 11.25 13.7313 11.1813 13.7563 11.2063C13.775 11.2312 13.7625 11.2937 13.7563 11.3313C13.75 11.3625 13.7563 11.3938 13.7688 11.4187C13.7812 11.4625 13.7625 11.4875 13.7688 11.5312C13.775 11.5562 13.7812 11.5813 13.7875 11.6125V11.6625C13.775 11.7063 13.7625 11.75 13.7437 11.7937L13.7375 11.8188C13.7312 11.8438 13.7312 11.9125 13.7063 11.9375L13.75 11.9937C13.775 12.0375 13.7937 12.0875 13.8062 12.1375C13.8125 12.1812 13.8313 12.2188 13.85 12.2563L13.8875 12.3125L13.875 12.3625C13.875 12.3625 13.825 12.3438 13.8125 12.3625C13.8 12.3813 13.8 12.3875 13.85 12.4187C13.8938 12.45 13.9 12.3875 13.925 12.4187V12.425C13.9375 12.4563 13.9375 12.4937 13.925 12.525C13.9187 12.55 13.925 12.5813 13.9375 12.6062C13.95 12.6438 13.9312 12.6687 13.9375 12.7063C13.9438 12.7312 13.95 12.7562 13.9563 12.775V12.7812V12.7937V12.8L13.9438 12.8562L13.9375 12.875H13.8625L13.825 12.9875L13.8438 13.0375C13.8125 13.0875 13.775 13.1375 13.7312 13.1875C13.7437 13.25 13.775 13.2188 13.8188 13.275C13.875 13.3312 13.95 13.3813 14.025 13.4125C14 13.4813 13.9875 13.5625 13.9937 13.6375C13.9937 13.7125 13.9937 13.7125 14 13.7188C13.9937 13.75 13.9812 13.7812 13.95 13.7875C13.9 13.7875 13.8812 13.85 13.9187 13.9H13.85V14L13.825 14.0875L13.8188 14.1H13.7437L13.7 14.175L13.7188 14.2125C13.6812 14.25 13.6438 14.2812 13.6 14.3125C13.6125 14.3562 13.6438 14.3313 13.6875 14.375C13.75 14.4187 13.8187 14.4563 13.8875 14.475C13.8625 14.5188 13.85 14.575 13.85 14.625C13.85 14.7375 13.85 14.625 13.9 14.7563C13.9437 14.8875 14.0437 14.8562 14 14.9625C13.975 15.0187 13.975 15.0813 14.0063 15.1375C14.0375 15.1562 14.0688 15.1813 14.0938 15.2063C14.1187 15.2312 14.1437 15.2562 14.1812 15.275C14.1812 15.275 14.2 15.325 14.3375 15.3188C14.475 15.3125 14.3 15.375 14.3813 15.3687C14.5875 15.4125 14.8 15.4125 15.0063 15.3687C15.1688 15.35 15.1187 15.3062 15.2937 15.3375C15.3875 15.3562 15.2188 15.3625 15.55 15.4C15.65 15.4125 15.6187 15.425 15.7312 15.375C15.7625 15.3375 15.7937 15.3062 15.8375 15.2812C15.9062 15.2688 15.8188 15.2188 15.9125 15.225C15.9438 15.1375 15.975 15.0563 16.0063 14.9563L16.0688 14.8625L16.1313 14.6812L16.1437 14.65C16.0687 14.575 16.225 14.3875 16.225 14.3875C16.225 14.3875 16.3 14.5188 16.3375 14.325C16.35 14.2 16.325 14.075 16.2625 13.9688C16.25 13.8188 16.2687 13.6625 16.3312 13.525C16.375 13.425 16.3875 13.3187 16.3625 13.2125L16.3687 13.2C16.3687 13.2 16.45 13.4 16.475 13.1062C16.4875 12.925 16.4563 12.75 16.3813 12.5875C16.3688 12.4437 16.375 12.3063 16.3875 12.1625C16.3875 12.1313 16.4 12.1 16.4062 12.0688C16.4563 12.0625 16.4562 11.9812 16.4625 11.9563C16.4688 11.9313 16.5062 11.8813 16.5187 11.8313V11.7875C16.5125 11.7625 16.5063 11.7438 16.5 11.725C16.4937 11.6938 16.5063 11.6687 16.5 11.6375C16.4937 11.6 16.4812 11.5938 16.4875 11.5625C16.4937 11.5312 16.5062 11.4812 16.4875 11.4563C16.4687 11.4313 16.4625 11.4562 16.45 11.4625C16.4438 11.4312 16.4375 11.4062 16.4375 11.4062V11.4H16.4438L16.4562 11.3562L16.4312 11.325L16.3937 10.5875L16.3438 10.3875H16.4125L16.425 10.3687L16.4438 10.2563V10.1313H16.5187C16.475 10.075 16.4938 9.99375 16.5438 9.99375C16.5938 9.9875 16.5938 9.86875 16.6 9.8375C16.6063 9.80625 16.6438 9.725 16.6562 9.65625V9.59375C16.65 9.5625 16.65 9.525 16.6375 9.49375C16.6313 9.44375 16.65 9.4125 16.6375 9.35625C16.625 9.31875 16.625 9.28125 16.625 9.24375C16.6375 9.19375 16.6375 9.1375 16.625 9.0875C16.6062 9.05 16.6 9.1375 16.55 9.0875C16.5062 9.0375 16.5062 9.0375 16.5187 9.00625C16.5312 8.975 16.5812 9.00625 16.5812 9.00625L16.5938 8.9375L16.5562 8.8625C16.5375 8.8125 16.525 8.7625 16.5125 8.7125C16.5 8.65 16.4812 8.5875 16.4562 8.53125L16.4 8.43125C16.4375 8.26875 16.475 8.10625 16.5125 7.93125H16.4375L16.5 7.5125L16.5125 7.46875C16.45 7.34375 16.4125 7.2125 16.4 7.06875C16.4 7.06875 16.4375 7.15 16.4688 7.125L16.4438 7.03125C16.4188 6.9875 16.4188 6.96875 16.4438 6.96875H16.4688L16.45 6.9C16.425 6.875 16.4062 6.84375 16.3937 6.8125L16.3813 6.7125L16.3375 6.50625C16.35 6.4875 16.3625 6.4625 16.3687 6.44375C16.3875 6.4 16.325 6.39375 16.325 6.39375L16.2938 6.48125C16.2813 6.38125 16.275 6.275 16.275 6.1625L16.3438 6.1125C16.3438 6.1125 16.3875 6.1375 16.3875 6.1125C16.3938 6.075 16.3813 6.0375 16.3563 6.0125H16.3312L16.2812 6L16.3 5.7625L16.35 5.725L16.3813 5.6625L16.4062 5.55625C16.425 5.53125 16.4438 5.51875 16.4688 5.5L16.4813 5.4L16.4688 5.34375L16.4813 5.31875L16.5 5.275C16.5125 5.2375 16.4812 5.23125 16.4688 5.225H16.4375L16.4062 5.3125C16.3938 5.2125 16.3062 5.15 16.3125 5.04375L16.3563 5.00625L16.3813 4.9875C16.3813 4.9875 16.425 5.0125 16.425 4.9875C16.4312 4.95 16.4187 4.9125 16.3937 4.8875H16.3687H16.35L16.325 4.88125C16.325 4.8125 16.2875 4.75625 16.2875 4.69375C16.3063 4.68125 16.3187 4.65625 16.3312 4.58125C16.3562 4.4375 16.3438 4.29375 16.2938 4.15625C16.3 3.99375 16.3563 3.8375 16.45 3.7C16.5313 3.60625 16.575 3.48125 16.575 3.35625C16.625 3.2 16.6938 3.05 16.7812 2.9125L16.8125 2.79375L16.8687 2.84375H16.8813C16.9 2.83125 16.9187 2.825 16.9375 2.8125L16.9813 2.76875L17.0312 2.81875C17.0188 2.775 17.0562 2.7625 17.0938 2.79375C17.125 2.83125 17.1625 2.79375 17.175 2.79375C17.2 2.79375 17.2313 2.8 17.2563 2.80625L17.275 2.8C17.2812 2.8 17.2812 2.7875 17.2875 2.775C17.2938 2.7625 17.3062 2.775 17.3125 2.7625C17.3125 2.75 17.3125 2.74375 17.325 2.74375L17.3125 2.675C17.3 2.625 17.3062 2.63125 17.3125 2.6375L17.325 2.69375V2.66875C17.325 2.65625 17.325 2.6375 17.3312 2.625L17.35 2.56875L17.3687 2.5125C17.3875 2.56875 17.4188 2.61875 17.4688 2.65L17.5 2.58125L17.6812 2.74375L17.7 2.76875C17.8063 2.73125 18.025 2.84375 18.025 2.84375C18.025 2.84375 17.9438 2.83125 17.9438 2.86875L18.025 2.89375C18.0688 2.89375 18.0875 2.90625 18.075 2.925L18.0625 2.94375L18.125 2.9625C18.175 2.95 18.175 2.925 18.1812 2.93125H18.2062C18.225 2.925 18.25 2.925 18.2687 2.925L18.2563 2.95625C18.25 2.975 18.3 2.9375 18.3 2.9375L18.3125 2.9C18.3375 2.90625 18.3625 2.925 18.375 2.95L18.3188 2.99375C18.3188 2.99375 18.2812 3.00625 18.275 3.01875C18.275 3.025 18.3125 3.01875 18.3125 3.01875L18.3312 3.00625L18.375 2.9875V3.05L18.3312 3.06875L18.3 3.0875V3.1875C18.2875 3.2125 18.275 3.23125 18.25 3.25V3.34375L18.275 3.39375L18.2687 3.41875L18.2625 3.4625C18.2625 3.5 18.2875 3.50625 18.3062 3.50625H18.325L18.3375 3.41875C18.3687 3.5125 18.4625 3.55625 18.4875 3.65625L18.45 3.7L18.4375 3.725C18.4375 3.725 18.3875 3.70625 18.3937 3.7375C18.3937 3.775 18.4125 3.80625 18.4438 3.825H18.4688H18.4875H18.5125C18.525 3.89375 18.5812 3.9375 18.5875 4.00625V4.0375L18.6938 4.10625L18.675 4.175L18.8062 4.25C18.7937 4.275 18.7812 4.29375 18.7563 4.3125C18.7563 4.35625 18.8563 4.38125 18.8563 4.40625V4.46875C18.9625 4.475 18.8 4.53125 18.8937 4.51875C18.8937 4.51875 18.8813 4.5625 19.0063 4.63125C18.9875 4.68125 18.9688 4.73125 18.9625 4.75C18.9562 4.76875 18.9625 4.875 18.9125 4.8875C18.8625 4.89375 18.85 4.95625 18.8937 5H18.8188V5.1L18.8 5.19375L18.7938 5.20625H18.725L18.6875 5.2875L18.7062 5.31875C18.675 5.3625 18.6375 5.4 18.5938 5.4375L18.5187 5.45625C18.5938 5.51875 18.6562 5.59375 18.7125 5.66875C18.7375 5.7125 18.7562 5.7625 18.7687 5.8125L18.7812 5.85625C18.7875 5.88125 18.8 5.9125 18.8125 5.93125L18.85 5.9875L18.8375 6.04375C18.8375 6.04375 18.8062 6.03125 18.7875 6.04375C18.7875 6.04375 18.7812 6.04375 18.775 6.05C18.7687 6.05625 18.7687 6.075 18.775 6.08125C18.7875 6.09375 18.8 6.10625 18.8125 6.11875C18.8563 6.15625 18.8625 6.0875 18.8875 6.11875C18.9062 6.15 18.8938 6.20625 18.8875 6.24375C18.8813 6.275 18.8875 6.30625 18.9 6.33125C18.9125 6.375 18.8937 6.40625 18.9 6.44375C18.9062 6.46875 18.9125 6.49375 18.9188 6.525V6.575C18.9062 6.61875 18.8937 6.6625 18.875 6.70625L18.8687 6.73125C18.8687 6.75625 18.8687 6.825 18.8375 6.85625L18.8813 6.9125C18.9062 6.95625 18.925 7.00625 18.9375 7.05625C18.9438 7.1 18.9625 7.1375 18.9813 7.175L18.9937 7.2L18.9562 7.28125V7.2875H18.9438C18.9438 7.2875 18.9438 7.3125 18.9688 7.33125C18.9312 7.3875 18.8875 7.44375 18.8375 7.49375C18.8438 7.5625 18.8813 7.53125 18.9188 7.60625C18.9688 7.675 19.0312 7.725 19.1063 7.7625V7.775C19.0813 7.85 19.0625 7.925 19.0688 8.00625C19.0625 8.175 19.0687 8.00625 19.1125 8.20625C19.1437 8.34375 19.2 8.35625 19.2125 8.4125V8.44375C19.1938 8.49375 19.175 8.5375 19.15 8.5875C19.1437 8.6125 19.1375 8.7125 19.0875 8.7125C19.0375 8.7125 19.0187 8.775 19.0625 8.825H18.9937V8.925L18.9688 9.0125L18.9625 9.025H18.8875L18.8438 9.1L18.8625 9.1375C18.825 9.175 18.7875 9.20625 18.7437 9.2375C18.7563 9.28125 18.7875 9.25625 18.8312 9.3C18.8875 9.34375 18.9438 9.375 19.0125 9.39375L18.9875 9.45L19.0063 9.4875C18.975 9.53125 18.9375 9.575 18.8937 9.6125L18.8188 9.625C18.8938 9.7 18.9563 9.7875 19.0125 9.88125C19.0375 9.9375 19.0562 9.99375 19.0688 10.05L19.0812 10.0938C19.0875 10.125 19.1 10.1562 19.1125 10.1812L19.15 10.25L19.1375 10.3125C19.1375 10.3125 19.1062 10.2937 19.0875 10.3062C19.0812 10.3062 19.0813 10.3125 19.075 10.3188C19.0688 10.3313 19.0688 10.3438 19.075 10.35C19.0875 10.3688 19.1 10.3813 19.1125 10.3938C19.1562 10.4375 19.1625 10.3625 19.1875 10.3938C19.2 10.4375 19.2 10.4875 19.1875 10.5375C19.1812 10.5688 19.1875 10.6062 19.2 10.6375C19.2063 10.6875 19.1938 10.7188 19.2 10.7625C19.2063 10.7937 19.2125 10.825 19.2188 10.85V10.9062C19.2062 10.9563 19.1875 11 19.1688 11.05L19.1625 11.075C19.1562 11.1 19.1562 11.1813 19.1313 11.2063L19.175 11.275C19.2 11.3312 19.2188 11.3875 19.2313 11.4438C19.2375 11.4938 19.2563 11.5375 19.275 11.5813L19.3125 11.65L19.3 11.7125C19.3 11.7125 19.25 11.6812 19.2375 11.7125C19.225 11.7437 19.225 11.7438 19.275 11.7875C19.3188 11.8313 19.325 11.7563 19.35 11.7875V11.8C19.3563 11.8438 19.3563 11.8875 19.35 11.9312C19.3438 11.9625 19.35 12 19.3625 12.0312C19.375 12.0813 19.3562 12.1125 19.3625 12.1562C19.3687 12.1875 19.375 12.2125 19.3813 12.2437V12.25V12.2625C19.3875 12.3125 19.4062 12.3562 19.425 12.4L19.4625 12.4688L19.45 12.5312C19.45 12.5312 19.4 12.5 19.3875 12.5312C19.375 12.5625 19.375 12.5625 19.425 12.6062C19.4688 12.65 19.475 12.575 19.4937 12.6062C19.5063 12.65 19.5063 12.7 19.4937 12.75C19.4875 12.7875 19.4937 12.8188 19.5063 12.85C19.5188 12.9 19.5 12.9313 19.5063 12.975C19.5125 13.0063 19.5187 13.0312 19.525 13.0625V13.1187C19.5063 13.175 19.4937 13.2313 19.4688 13.2875C19.4688 13.3188 19.4688 13.4312 19.4125 13.4312C19.3563 13.4375 19.35 13.5063 19.3875 13.5625H19.3125V13.675L19.2938 13.775L19.2875 13.7875H19.2125L19.175 13.875L19.1938 13.9125C19.1625 13.95 19.125 13.9875 19.0812 14.025C19.0938 14.0687 19.125 14.0437 19.1688 14.0938C19.2313 14.1375 19.3 14.175 19.375 14.1938C19.35 14.2438 19.3438 14.3063 19.35 14.3625C19.35 14.4812 19.35 14.3625 19.4062 14.5C19.4625 14.6375 19.55 14.6 19.5187 14.725C19.4937 14.7875 19.5 14.8562 19.5312 14.9062L19.625 14.9812C19.65 15.0125 19.6812 15.0312 19.7125 15.05C19.7125 15.05 19.7312 15.1 19.8687 15.0938C20.0063 15.0875 19.8313 15.1562 19.9125 15.15C20.1187 15.2 20.3313 15.2 20.5375 15.1562C20.7 15.1375 20.65 15.0875 20.825 15.125C20.9188 15.1438 20.75 15.15 21.0812 15.2C21.1812 15.2125 21.15 15.225 21.2625 15.175C21.275 15.1687 21.3 15.1062 21.3625 15.0625C21.4312 15.0437 21.3438 14.9875 21.4375 15C21.4688 14.8938 21.5 14.7875 21.525 14.6812L21.5812 14.5688L21.6313 14.3562L21.6437 14.3188C21.5625 14.2313 21.7125 14.0125 21.7125 14.0125C21.7125 14.0125 21.8 14.1625 21.8125 13.9375C21.8188 13.8 21.7875 13.6625 21.7188 13.5437C21.7 13.3812 21.7125 13.2125 21.7625 13.0562C21.8125 12.925 21.8125 12.775 21.7625 12.6438L21.6938 12.0125L21.6375 11.8625H21.7062L21.7125 11.85L21.7313 11.7625V11.675H21.8C21.7562 11.6313 21.775 11.575 21.825 11.5625C21.875 11.5562 21.875 11.4688 21.8813 11.4438C21.9 11.4 21.9188 11.35 21.9375 11.3062V11.3125C21.9312 11.2875 21.925 11.2625 21.9188 11.2375C21.9062 11.2 21.925 11.175 21.9188 11.1375C21.9062 11.1125 21.9062 11.0813 21.9062 11.05C21.9125 11.0188 21.925 10.9625 21.9062 10.9312C21.8875 10.9062 21.8812 10.9688 21.8312 10.9312C21.7875 10.8937 21.7875 10.8937 21.7938 10.8687C21.8063 10.8438 21.8563 10.8687 21.8563 10.8687L21.8687 10.8188L21.8312 10.7625C21.8125 10.725 21.8 10.6875 21.7875 10.65C21.775 10.6 21.7563 10.5562 21.7313 10.5125L21.6688 10.4375C21.7063 10.3188 21.7437 10.1875 21.7687 10.0562H21.7L21.7625 9.7375L21.775 9.7C21.7125 9.60625 21.675 9.50625 21.6625 9.4C21.6625 9.4 21.7 9.4625 21.7313 9.44375L21.7062 9.375C21.6812 9.3375 21.6812 9.325 21.7062 9.325H21.7313L21.7062 9.275C21.6812 9.25625 21.6625 9.2375 21.65 9.20625L21.6313 9.13125L21.5875 8.975C21.6 8.9625 21.6125 8.94375 21.6187 8.925C21.6313 8.8875 21.575 8.8875 21.575 8.8875L21.5438 8.95625C21.5312 8.875 21.525 8.79375 21.525 8.7125L21.5875 8.66875C21.5875 8.66875 21.6313 8.6875 21.6313 8.66875C21.6375 8.6375 21.625 8.6125 21.6 8.59375H21.575L21.5312 8.5875C21.5312 8.525 21.5375 8.46875 21.55 8.40625L21.6 8.375L21.6313 8.325L21.6562 8.24375C21.675 8.225 21.6938 8.2125 21.7125 8.2L21.725 8.125L21.7125 8.08125L21.725 8.0625L21.7437 8.03125C21.7563 8.00625 21.725 7.99375 21.7125 7.99375H21.7L21.6688 8.0625C21.6562 7.9875 21.5688 7.94375 21.5688 7.85625L21.6125 7.83125L21.6375 7.81875C21.6375 7.81875 21.6812 7.8375 21.6812 7.81875C21.6875 7.7875 21.675 7.7625 21.65 7.74375H21.625H21.5625H21.5375C21.5375 7.7375 21.5312 7.73125 21.5312 7.71875V7.7C21.5562 7.55625 21.5437 7.4125 21.4937 7.275C21.5063 7.1125 21.5562 6.95625 21.65 6.81875C21.7312 6.725 21.775 6.6 21.775 6.475C21.825 6.31875 21.8938 6.16875 21.9813 6.03125L22.0125 5.9125L22.0688 5.95625H22.0812C22.1 5.94375 22.1188 5.9375 22.1375 5.925L22.1812 5.88125L22.2313 5.93125C22.2188 5.8875 22.2563 5.875 22.2938 5.90625C22.325 5.94375 22.3625 5.90625 22.375 5.90625C22.4 5.90625 22.425 5.9125 22.45 5.91875L22.4688 5.9125C22.475 5.9125 22.475 5.9 22.4813 5.8875C22.4875 5.875 22.5 5.8875 22.5063 5.875C22.5063 5.8625 22.5062 5.85625 22.5187 5.85625L22.5 5.7875C22.4875 5.7375 22.4937 5.74375 22.5 5.75L22.5125 5.80625V5.78125C22.5125 5.76875 22.5125 5.75 22.5187 5.7375L22.5375 5.68125L22.5562 5.625C22.575 5.68125 22.6063 5.73125 22.6562 5.76875L22.6875 5.7L22.8687 5.8625L22.8875 5.8875C22.9938 5.85 23.2125 5.9625 23.2125 5.9625C23.2125 5.9625 23.1313 5.95 23.1313 5.9875L23.2125 6.0125C23.2625 6.0125 23.275 6.025 23.2625 6.04375L23.2437 6.0625L23.3062 6.08125C23.3562 6.06875 23.3562 6.04375 23.3625 6.05H23.3875C23.4062 6.04375 23.4313 6.04375 23.45 6.04375L23.4375 6.075C23.4312 6.09375 23.4813 6.05625 23.4813 6.05625L23.4937 6.01875C23.5187 6.025 23.5437 6.04375 23.5562 6.06875L23.5 6.1125C23.5 6.1125 23.4625 6.125 23.4562 6.1375C23.4562 6.14375 23.4937 6.1375 23.4937 6.1375L23.5125 6.125L23.5562 6.10625C23.5625 6.125 23.5625 6.15 23.5562 6.16875L23.5125 6.1875L23.4813 6.20625V6.30625C23.4688 6.33125 23.4562 6.35 23.4312 6.36875V6.4625L23.4562 6.5125L23.45 6.5375L23.4438 6.58125C23.4438 6.61875 23.4688 6.625 23.4875 6.625H23.5L23.5125 6.5375C23.5438 6.63125 23.6375 6.675 23.6625 6.775L23.625 6.81875L23.6063 6.8375C23.6063 6.8375 23.5562 6.81875 23.5625 6.85C23.5625 6.8875 23.5812 6.91875 23.6125 6.9375H23.6375H23.6562H23.6812C23.6938 7.00625 23.75 7.05 23.7563 7.11875V7.15L23.8625 7.21875L23.8438 7.2875L23.975 7.3625C23.9625 7.3875 23.95 7.40625 23.925 7.425C23.925 7.46875 24.025 7.49375 24.025 7.51875V7.58125C24.0312 7.58125 24.0437 7.58125 24.05 7.5875V7.60625C24.0375 7.61875 24.0312 7.625 24.05 7.625L24.0625 7.64375C24.0625 7.6625 24.0875 7.69375 24.1688 7.7375C24.1688 7.775 24.1688 7.80625 24.1625 7.8375C24.1562 7.88125 24.1625 7.91875 24.175 7.9625C24.1875 8.01875 24.1687 8.0625 24.175 8.1125C24.1812 8.15 24.1875 8.1875 24.1938 8.225V8.29375C24.1812 8.375 24.15 8.46875 24.1437 8.5C24.1375 8.5375 24.1437 8.675 24.0938 8.68125C24.0438 8.6875 24.0312 8.775 24.075 8.8375L24 8.84375V8.98125L23.9813 9.10625L23.975 9.125L23.9062 9.13125L23.8687 9.24375L23.8875 9.2875C23.8563 9.34375 23.8188 9.39375 23.775 9.44375L23.7 9.46875C23.775 9.5625 23.8438 9.6625 23.8937 9.76875C23.9187 9.83125 23.9375 9.9 23.95 9.96875L23.9625 10.025C23.9688 10.0625 23.9812 10.1 23.9937 10.1375L24.0312 10.2125L24.0187 10.2875C24.0187 10.2875 23.9875 10.2688 23.9688 10.2812C23.9625 10.2875 23.9625 10.2875 23.9562 10.2937C23.9562 10.3125 23.95 10.325 23.9562 10.3313C23.9688 10.35 23.9812 10.3688 23.9937 10.3813C24.0437 10.4313 24.0438 10.3375 24.0688 10.3813C24.0813 10.4375 24.0813 10.4938 24.0688 10.55C24.0625 10.5938 24.0687 10.6312 24.0812 10.6687C24.0875 10.725 24.0687 10.7625 24.0812 10.8188C24.0875 10.8563 24.0938 10.8875 24.1 10.925V10.9937C24.0875 11.05 24.0687 11.1125 24.05 11.1687L24.0438 11.2C24.0438 11.2562 24.0312 11.3125 24.0063 11.3625L24.05 11.4438C24.075 11.5063 24.0875 11.575 24.1 11.6438C24.1063 11.6938 24.1187 11.7188 24.125 11.7437V11.7688L24.1063 11.7937L24.0812 11.8375C24.0687 11.8562 24.075 11.8875 24.0938 11.9C24.0938 11.9 24.1 11.9062 24.1063 11.9062H24.1125L24.1562 11.8188L24.1688 11.8438C24.1688 11.8625 24.175 11.8875 24.175 11.9062L24.1688 11.95C24.1688 11.95 24.1188 11.9125 24.1063 11.95C24.0938 11.9875 24.0938 11.9875 24.1375 12.0375C24.1625 12.0688 24.175 12.05 24.1875 12.0375C24.1938 12.0688 24.2 12.1 24.1938 12.1313L24.1437 12.1625L24.1187 12.1812C24.1187 12.1812 24.0813 12.1375 24.075 12.175C24.0625 12.2125 24.0625 12.2562 24.0875 12.2937H24.1125L24.1313 12.3L24.1562 12.3125C24.1375 12.3875 24.175 12.4688 24.1562 12.5437L24.1437 12.5813L24.2125 12.7L24.1688 12.7688L24.2563 12.9062C24.2375 12.925 24.2125 12.9438 24.1875 12.9563C24.1688 13.0063 24.2563 13.0687 24.2437 13.1062L24.2188 13.1812C24.3125 13.2375 24.1375 13.225 24.2313 13.25C24.2313 13.25 24.1875 13.3 24.3062 13.4563C24.325 13.4875 24.35 13.5125 24.375 13.5375V13.55V13.6187C24.3625 13.7 24.325 13.7875 24.3188 13.8188C24.3125 13.85 24.3125 13.9875 24.2625 13.9937C24.2125 14 24.1937 14.0875 24.2375 14.15H24.1625V14.2875L24.1437 14.4125L24.1375 14.4312H24.0625L24.025 14.5437L24.0438 14.5875C24.0125 14.6375 23.975 14.6813 23.9312 14.725C23.9438 14.7812 23.975 14.75 24.0187 14.8C24.0812 14.85 24.15 14.8875 24.225 14.9125C24.2 14.975 24.1938 15.0437 24.1938 15.1125C24.1938 15.2563 24.1938 15.1125 24.2437 15.2812C24.2937 15.45 24.3875 15.4 24.35 15.5437C24.325 15.6187 24.325 15.7 24.3625 15.7688C24.3937 15.7937 24.425 15.825 24.45 15.8562C24.475 15.8875 24.5 15.9188 24.5375 15.9438C24.5375 15.9438 24.5562 16 24.6938 15.9937C24.8313 15.9875 24.6562 16.0688 24.7375 16.0562C24.9437 16.1125 25.1562 16.1125 25.3625 16.0562C25.525 16.0312 25.475 15.9688 25.65 16.0125C25.7437 16.0375 25.575 16.0438 25.9062 16.1C26.0063 16.1187 25.975 16.1313 26.0875 16.0625C26.1187 16.0125 26.15 15.9688 26.1938 15.925C26.2625 15.9062 26.175 15.8313 26.2687 15.8438C26.3 15.7188 26.3313 15.5875 26.3563 15.45L26.4125 15.3125L26.4688 15.05L26.4813 15.0063C26.4 14.9062 26.55 14.6313 26.55 14.6313C26.55 14.6313 26.6313 14.8125 26.65 14.5375C26.6625 14.375 26.6313 14.2062 26.5562 14.0562C26.5375 13.8562 26.5563 13.65 26.6063 13.4563C26.6562 13.2937 26.6562 13.1125 26.6063 12.95L26.5625 12.1875L26.5562 12.1625C26.5688 12.1688 26.5812 12.1812 26.5938 12.1687C26.6063 12.1625 26.6125 12.1562 26.575 12.1187C26.5625 12.1062 26.55 12.1062 26.5375 12.1062L26.5187 12.0375C26.525 12.025 26.5187 12.0125 26.5187 12H26.575L26.5812 11.9875L26.6 11.8813V11.9375C26.6375 11.925 26.6625 11.9438 26.7125 11.9125C26.7625 11.8813 26.875 11.7937 26.9062 11.8313C26.9375 11.8688 27.025 11.825 27.05 11.7563L27.0938 11.8125L27.1938 11.7437C27.225 11.7312 27.2188 11.7437 27.2375 11.7437L27.2437 11.75L27.275 11.8125L27.3062 11.8438V11.8188C27.325 11.8563 27.3438 11.8937 27.35 11.9312L27.3687 12.0063C27.3562 11.9438 27.3563 11.875 27.3813 11.8125C27.3938 11.7937 27.4062 11.775 27.425 11.7625L27.4375 11.7563L27.4688 11.7375L27.5 11.7125C27.5063 11.7188 27.5063 11.725 27.5125 11.7375C27.5 11.75 27.4937 11.7625 27.4875 11.7812V11.7937V11.8L27.5187 11.775C27.5562 11.7437 27.5375 11.725 27.5562 11.7125C27.575 11.7 27.5875 11.7312 27.5938 11.7437C27.6 11.7562 27.6063 11.7563 27.6313 11.7688C27.6562 11.7812 27.6688 11.825 27.7 11.8438C27.725 11.8562 27.7438 11.875 27.7625 11.8938L27.7938 11.9375C27.8125 11.9812 27.825 12.0312 27.8312 12.075V12.1C27.8375 12.125 27.875 12.1937 27.8687 12.2312L27.9375 12.275C27.9813 12.3187 28.025 12.3625 28.0562 12.4125C28.125 12.525 28.1313 12.5062 28.1375 12.5125L28.1812 12.5375V12.5938C28.1812 12.5938 28.125 12.5687 28.125 12.6062C28.1187 12.6438 28.1188 12.6437 28.1688 12.6812C28.225 12.7188 28.2125 12.6375 28.2375 12.6687L28.2437 12.6812C28.2625 12.7312 28.2688 12.7875 28.2625 12.8375C28.2625 12.8812 28.275 12.925 28.2875 12.9688C28.3062 13.0312 28.2875 13.0813 28.3 13.1375C28.3125 13.1812 28.3188 13.2188 28.325 13.2625V13.275L28.3312 13.2937C28.3438 13.3625 28.3625 13.425 28.3875 13.4875L28.425 13.5813L28.4188 13.6687C28.4188 13.6687 28.3688 13.625 28.3563 13.6687C28.3438 13.7125 28.3438 13.7125 28.3937 13.7812C28.4437 13.8438 28.4438 13.7312 28.4625 13.7812C28.475 13.85 28.4813 13.925 28.4688 13.9937C28.4688 14.0437 28.4688 14.0938 28.4813 14.1438C28.4938 14.2188 28.475 14.2625 28.4813 14.3313C28.4875 14.375 28.5 14.4187 28.5 14.4688V14.5562C28.4875 14.6562 28.45 14.7688 28.4438 14.8125C28.4375 14.8562 28.4375 15.025 28.3875 15.0375C28.3375 15.0438 28.3187 15.15 28.3625 15.2312H28.3062V15.4062L28.2812 15.5625L28.275 15.5813H28.2L28.1562 15.7125L28.175 15.7688C28.1437 15.8313 28.1063 15.8875 28.0625 15.9438C28.075 16.0125 28.1062 15.975 28.15 16.0438C28.2062 16.1125 28.275 16.1625 28.35 16.2C28.325 16.2812 28.3125 16.3687 28.3125 16.4562C28.3125 16.6437 28.3125 16.4562 28.3625 16.675C28.3625 16.6937 28.3687 16.6937 28.375 16.7062L28.3937 16.8875C28.4062 17.0188 28.325 17.1375 28.1938 17.175L28.2313 17.325L28.2188 17.4625C28.2188 17.4625 28.175 17.3937 28.1562 17.4625C28.1437 17.5312 28.1437 17.5312 28.1875 17.6313C28.2313 17.7313 28.2438 17.5562 28.2625 17.6313C28.275 17.7375 28.275 17.8438 28.2625 17.95C28.2563 18.025 28.2563 18.1062 28.2625 18.1812C28.2688 18.2937 28.25 18.3625 28.2625 18.4625L28.275 18.6688L28.2687 18.8C28.25 18.95 28.2125 19.1125 28.2062 19.1812C28.2 19.2437 28.1937 19.5 28.1437 19.5187C28.0938 19.5312 28.075 19.6875 28.1125 19.8062H28.0625L28.0562 20.0688L28.0312 20.3L28.025 20.3312H27.9562L27.9125 20.5312L27.9312 20.6187C27.8937 20.7125 27.85 20.8 27.8062 20.8875L27.7313 20.9188C27.8063 21.1125 27.8625 21.3062 27.9062 21.5063C27.9188 21.5875 27.9375 21.7313 27.9438 21.8875L27.95 21.9937L27.975 22.2L28.0063 22.35L27.9875 22.4875C27.9875 22.4875 27.9562 22.4438 27.9375 22.4625C27.9312 22.4688 27.925 22.475 27.925 22.4875C27.9187 22.5125 27.9125 22.5375 27.9188 22.5625C27.925 22.5938 27.9375 22.6313 27.9562 22.6625C28 22.7625 28.0125 22.5875 28.025 22.6625C28.0312 22.7688 28.0312 22.875 28.0125 22.9813C28.0063 23.0563 28.0063 23.1312 28.0125 23.2062C28.0125 23.3187 27.9937 23.3813 28 23.4813L28.0063 23.6812L27.9937 23.8062C27.975 23.9187 27.9437 24.0312 27.925 24.1063L27.9125 24.1625C27.9062 24.25 27.8813 24.3375 27.8563 24.425C27.8688 24.4688 27.875 24.5125 27.8813 24.5562C27.8875 24.6625 27.8875 24.7687 27.8813 24.875C27.875 24.9625 27.875 25.05 27.8813 25.1437L27.8937 25.275L27.8625 25.3875C27.8625 25.3875 27.825 25.3188 27.8062 25.3687C27.7875 25.425 27.775 25.4312 27.7938 25.5312C27.8125 25.6313 27.8625 25.4812 27.8625 25.55V25.575C27.8438 25.6625 27.8125 25.75 27.7812 25.8312C27.7563 25.9 27.7375 25.9688 27.725 26.0375C27.7 26.1375 27.6625 26.1875 27.6375 26.275C27.6188 26.3375 27.6125 26.3875 27.5875 26.4438L27.5625 26.4562V26.4813C27.5375 26.5625 27.5125 26.65 27.5 26.7313L27.4813 26.85C27.4625 26.8813 27.4438 26.9062 27.4188 26.9312C27.4188 26.9312 27.4 26.8625 27.3687 26.9C27.3375 26.9375 27.3313 26.9438 27.325 27.0438C27.3188 27.1438 27.4062 27.0125 27.3875 27.0812C27.35 27.1687 27.2938 27.25 27.2313 27.325C27.1875 27.3813 27.15 27.4375 27.1187 27.5C27.0688 27.5875 27.0187 27.625 26.9688 27.7062C26.9375 27.7625 26.9062 27.8125 26.8687 27.8625L26.7938 27.95C26.6938 28.05 26.5688 28.1375 26.525 28.1812C26.4812 28.2188 26.325 28.4062 26.2812 28.375C26.2375 28.3438 26.125 28.4438 26.0812 28.5562L26.0312 28.5063L25.8625 28.6812L25.6938 28.825L25.6688 28.8375L25.6125 28.7812L25.4688 28.8625L25.4312 28.925C25.3562 28.95 25.2812 28.9625 25.2062 28.9688C25.1562 29.0312 25.2062 29.025 25.175 29.1125C25.15 29.2 25.1437 29.2938 25.1562 29.3875C25.0625 29.425 24.9688 29.475 24.8875 29.5312C24.7 29.6437 24.8875 29.5312 24.6938 29.7C24.5 29.8688 24.5938 29.9125 24.3687 29.9688C24.2563 29.9875 24.1437 30.0312 24.05 30.0938C24.0187 30.1437 23.9813 30.1812 23.9375 30.225C23.8937 30.2563 23.8563 30.3 23.825 30.3438C23.825 30.3438 23.7375 30.3813 23.7812 30.5125C23.825 30.6438 23.6437 30.5 23.6812 30.575C23.625 30.7875 23.6687 31.0125 23.8062 31.1875C23.8875 31.3375 23.9937 31.2625 23.9438 31.45C23.9125 31.55 23.8687 31.3875 23.8188 31.7375C23.8 31.8438 23.7625 31.8188 23.9312 31.9C23.9562 31.9125 24.1125 31.9 24.25 31.9375C24.3125 31.9937 24.4438 31.8625 24.4375 31.9625C24.7313 31.9187 25.0125 31.8438 25.2938 31.7437L25.5938 31.6625C25.775 31.5938 25.9563 31.5063 26.1375 31.4188L26.225 31.375C26.4438 31.1938 26.6937 31.0437 26.9562 30.9312C26.9562 30.9312 26.6875 31.2687 27.1812 30.8687C27.4375 30.6562 27.6562 30.3938 27.825 30.1C27.825 30.1 28.2437 29.6125 28.6625 29.2062C28.925 28.9562 29.1313 28.6625 29.2812 28.3312C29.4375 28.075 29.5688 27.8125 29.6812 27.5375C29.7937 27.2688 29.875 27.0187 29.9562 26.7687L30.0187 26.4L30.0875 26.4188L30.1063 26.3937L30.1875 26.2C30.2125 26.125 30.2313 26.05 30.25 25.9688L30.3188 25.9875C30.3 25.8562 30.3438 25.7062 30.3937 25.7125C30.4437 25.7125 30.4875 25.4688 30.5063 25.4C30.525 25.3312 30.5875 25.175 30.625 25.0312L30.65 24.9062C30.6625 24.8375 30.6625 24.7687 30.6625 24.7062C30.6625 24.6062 30.6875 24.5438 30.6875 24.4375C30.6812 24.3687 30.6812 24.3 30.6938 24.2313C30.7125 24.1375 30.7188 24.0438 30.7125 23.95C30.7 23.8813 30.6813 24.0375 30.6375 23.95C30.6 23.8625 30.6 23.8625 30.6125 23.8C30.625 23.7437 30.6688 23.8 30.6688 23.8L30.6875 23.6812L30.6562 23.55C30.6437 23.4625 30.6313 23.375 30.625 23.2875C30.6187 23.1812 30.6125 23.0688 30.5938 22.9625L30.5438 22.7812C30.5938 22.5063 30.6437 22.2188 30.6812 21.9125H30.6063L30.6938 21.1875L30.7062 21.1063C30.65 20.8813 30.6187 20.65 30.6125 20.4188C30.6125 20.4188 30.6437 20.5625 30.675 20.525V20.5063L30.65 20.3438C30.6313 20.2625 30.625 20.2313 30.65 20.2313H30.675L30.6562 20.1187C30.6313 20.0688 30.6125 20.0187 30.6 19.9625L30.5875 19.7938L30.55 19.4375C30.5625 19.4 30.575 19.3625 30.5812 19.325C30.6 19.2438 30.5438 19.2313 30.5438 19.2313L30.5063 19.3875L30.5 18.8375L30.5688 18.75C30.5688 18.75 30.6125 18.8 30.6125 18.75C30.625 18.6938 30.6125 18.6312 30.5812 18.5812H30.5562L30.5125 18.5562L30.5375 18.15L30.5875 18.0875L30.625 17.975L30.65 17.7938C30.6625 17.7625 30.6812 17.7312 30.7125 17.7062L30.725 17.5375L30.7125 17.4375L30.725 17.4L30.7437 17.3312C30.7563 17.2687 30.7312 17.25 30.7125 17.2437H30.7L30.6688 17.3937C30.6625 17.2125 30.575 17.1125 30.5812 16.925L30.625 16.8625L30.65 16.8312C30.65 16.8312 30.6938 16.8812 30.6938 16.8312C30.7 16.7687 30.6938 16.7125 30.6625 16.6562H30.6375L30.6187 16.6437L30.5938 16.6313L30.6313 16.425L30.6437 16.3687C30.5687 16.2375 30.725 15.8938 30.725 15.8938C30.725 15.8938 30.8062 16.1313 30.8312 15.7812C30.825 15.6187 30.7938 15.4 30.7188 15.2Z" fill="#0041E6"/>
</svg>
