<svg width="32" height="32" viewBox="0 0 32 32" fill="none" xmlns="http://www.w3.org/2000/svg">
<g clip-path="url(#clip0_7664_50150)">
<path d="M31.9875 8.5875C31.8875 8.4875 31.8 8.38125 31.725 8.26875C31.7 8.225 31.6625 8.14375 31.625 8.05625L31.6 8C31.5812 7.95625 31.5625 7.91875 31.5375 7.88125L31.4812 7.8L31.475 7.7125C31.475 7.7125 31.5125 7.73125 31.5312 7.7125C31.5375 7.70625 31.5375 7.7 31.5375 7.69375C31.5375 7.68125 31.5375 7.6625 31.5312 7.65C31.5125 7.63125 31.5 7.61875 31.475 7.60625C31.4125 7.5625 31.4312 7.6625 31.4 7.625C31.3687 7.56875 31.3562 7.50625 31.35 7.4375C31.3375 7.39375 31.3187 7.35 31.2937 7.30625C31.2625 7.25 31.2687 7.2 31.2437 7.14375C31.225 7.10625 31.2062 7.06875 31.1875 7.03125L31.1687 6.95625C31.1625 6.8875 31.1562 6.825 31.1562 6.75625V6.71875C31.1375 6.6625 31.125 6.6 31.125 6.5375L31.05 6.46875C31 6.40625 30.9562 6.34375 30.9125 6.28125C30.8812 6.225 30.8375 6.175 30.7937 6.13125L30.7187 6.06875L30.6937 5.9875C30.6937 5.9875 30.7562 6.00625 30.75 5.9625C30.7437 5.91875 30.7437 5.925 30.6687 5.8875C30.5937 5.85 30.6375 5.95 30.6 5.91875L30.5875 5.90625C30.5562 5.85625 30.5312 5.80625 30.5187 5.75C30.5062 5.70625 30.4812 5.66875 30.45 5.63125C30.425 5.58125 30.4 5.53125 30.375 5.4875C30.35 5.45 30.325 5.43125 30.3 5.39375V5.38125L30.2875 5.36875C30.25 5.31875 30.2062 5.275 30.1562 5.23125L30.0812 5.175L30.05 5.1C30.05 5.1 30.1125 5.1125 30.1062 5.06875C30.0937 5.025 30.0937 5.025 30.025 5C29.9562 4.975 30 5.06875 29.9625 5.0375C29.9187 4.99375 29.8812 4.9375 29.8562 4.88125C29.8375 4.84375 29.8062 4.80625 29.775 4.775C29.7312 4.725 29.725 4.68125 29.6812 4.6375C29.65 4.6125 29.625 4.58125 29.6 4.55L29.5625 4.4875C29.525 4.40625 29.4937 4.30625 29.475 4.275C29.4562 4.24375 29.3625 4.125 29.4 4.0875C29.4375 4.05 29.3937 3.96875 29.3125 3.9375L29.375 3.8875L29.275 3.76875L29.2 3.65L29.1937 3.63125L29.2562 3.58125L29.2062 3.4625L29.1562 3.4375C29.1437 3.36875 29.1375 3.3 29.1375 3.2375C29.0875 3.2 29.0812 3.25 29.0062 3.2375C28.9187 3.2375 28.8312 3.25625 28.7562 3.2875C28.7187 3.21875 28.675 3.15625 28.6125 3.10625C28.4937 2.9875 28.6125 3.10625 28.4375 3.0125C28.3812 2.98125 28.3125 2.96875 28.25 2.96875L28.175 2.85C27.975 2.58125 27.7312 2.34375 27.4562 2.15625L27.2812 2.0875C27.1625 2.0375 27.0875 1.9125 27.1125 1.78125L26.9625 1.75625L26.8437 1.69375C26.8437 1.69375 26.925 1.675 26.8687 1.6375C26.8125 1.6 26.8062 1.6 26.7 1.6125C26.5937 1.625 26.75 1.66875 26.675 1.66875C26.575 1.65 26.4812 1.61875 26.3875 1.575C26.3187 1.55 26.25 1.5375 26.175 1.53125C26.075 1.51875 26.0125 1.4875 25.9187 1.48125L25.7312 1.46875L25.6125 1.45C25.475 1.41875 25.325 1.375 25.2562 1.36875C25.1937 1.3625 24.95 1.35625 24.9437 1.3125C24.9312 1.2625 24.775 1.24375 24.6687 1.30625L24.6625 1.23125L24.4187 1.25625L24.2 1.26875H24.1687L24.1562 1.19375H23.9625L23.8875 1.23125C23.7937 1.21875 23.6937 1.2 23.6 1.175L23.55 1.10625C23.4125 1.225 23.2562 1.34375 23.0875 1.475L22.7875 1.6625L22.7062 1.7125C22.65 1.74375 22.6 1.78125 22.55 1.81875L22.45 1.9125L22.3312 1.95625C22.3312 1.95625 22.35 1.90625 22.325 1.9C22.3187 1.89375 22.3125 1.89375 22.3 1.9C22.2812 1.90625 22.2562 1.9125 22.2375 1.93125C22.2187 1.95625 22.2 1.98125 22.1812 2.00625C22.1312 2.09375 22.2687 2.025 22.2187 2.075C22.1437 2.13125 22.0687 2.18125 21.9812 2.21875C21.925 2.25 21.8687 2.2875 21.8187 2.3375C21.7437 2.4 21.6812 2.4125 21.6187 2.475C21.5562 2.53125 21.5437 2.55 21.4875 2.59375L21.4 2.65625L21.1562 2.7875L21.1125 2.8125C21.0437 2.86875 20.9687 2.9125 20.8937 2.95L20.825 3.06875C20.7875 3.125 20.7187 3.225 20.6375 3.325C20.5812 3.3875 20.5312 3.45625 20.4875 3.53125L20.4312 3.65L20.3437 3.725C20.3437 3.725 20.3437 3.65 20.2937 3.68125C20.2437 3.7125 20.2437 3.7125 20.225 3.80625C20.2062 3.9 20.3062 3.80625 20.2812 3.85625L20.2687 3.875C20.225 3.9375 20.1687 3.99375 20.1125 4.04375C20.0687 4.0875 20.0312 4.1375 20 4.1875C19.95 4.2625 19.9 4.2875 19.8625 4.35625L19.775 4.4875L19.7625 4.5L19.75 4.51875C19.7 4.5875 19.6625 4.65625 19.6312 4.73125L19.5937 4.85L19.5187 4.925C19.5187 4.925 19.5125 4.85 19.4687 4.8875C19.425 4.925 19.425 4.91875 19.4187 5.00625C19.4125 5.0875 19.4937 4.99375 19.4812 5.05C19.4437 5.125 19.3937 5.1875 19.3375 5.24375C19.3 5.2875 19.2687 5.3375 19.2437 5.3875C19.2 5.4625 19.1562 5.4875 19.125 5.55625C19.1062 5.6 19.0812 5.64375 19.05 5.6875L18.9937 5.7625C18.9187 5.84375 18.8187 5.91875 18.7875 5.95625C18.7562 5.99375 18.65 6.14375 18.6 6.11875C18.55 6.09375 18.4687 6.18125 18.4562 6.28125L18.4 6.225L18.2812 6.39375L18.1625 6.53125L18.1437 6.54375L18.075 6.5L17.9562 6.6125L17.9375 6.6875L17.7187 6.8125C17.6875 6.89375 17.7375 6.86875 17.7375 6.96875C17.7437 7.06875 17.7812 7.1625 17.8312 7.24375C17.7562 7.325 17.7 7.41875 17.6562 7.525C17.5562 7.75 17.6562 7.525 17.5937 7.80625V7.83125C17.575 7.8625 17.55 7.89375 17.525 7.91875C17.525 7.91875 17.45 7.7625 17.4062 7.975C17.3812 8.10625 17.4062 8.24375 17.4812 8.35625V8.41875C17.4625 8.49375 17.45 8.575 17.4562 8.65625L17.4687 8.68125C17.4625 8.73125 17.45 8.78125 17.4312 8.825C17.3875 8.95 17.3937 9.09375 17.4562 9.2125C17.4937 9.40625 17.5375 9.59375 17.5875 9.78125L17.6687 9.90625L17.5937 9.91875V9.93125V10.0125L17.6125 10.1L17.5375 10.1187C17.5875 10.15 17.5875 10.2062 17.5375 10.225C17.4875 10.2375 17.5125 10.325 17.5125 10.35C17.5 10.4 17.4937 10.4437 17.4937 10.4937L17.5 10.5375C17.5125 10.5625 17.525 10.5812 17.5375 10.6C17.5562 10.6312 17.5437 10.6625 17.5625 10.6937C17.5812 10.7125 17.5937 10.7437 17.6 10.7687C17.6 10.8 17.6125 10.8562 17.6375 10.875C17.6687 10.8937 17.65 10.8312 17.7125 10.85C17.7687 10.8687 17.7687 10.8687 17.7687 10.8937C17.7625 10.9187 17.7062 10.9125 17.7062 10.9125V10.9625L17.7562 11C17.7875 11.025 17.8125 11.05 17.8375 11.0812C17.8687 11.1187 17.9 11.15 17.9375 11.1812L18.025 11.225C18.0312 11.35 18.05 11.475 18.075 11.6L18.15 11.5625L18.2375 11.8562V11.8937C18.3312 11.9375 18.4187 12 18.4875 12.075C18.4875 12.075 18.425 12.0437 18.4062 12.075L18.4687 12.1187C18.5062 12.1312 18.5187 12.1437 18.4937 12.1562L18.4687 12.1687L18.5125 12.1937C18.5437 12.1937 18.5687 12.2 18.6 12.2125L18.6562 12.2625L18.775 12.3562V12.4125C18.775 12.45 18.8312 12.4125 18.8312 12.4125L18.8187 12.3437C18.875 12.3937 18.925 12.45 18.9687 12.5062L18.9437 12.5562L18.925 12.575V12.5875C18.9125 12.5875 18.8937 12.6 18.9 12.6125L18.8562 12.6875C18.775 12.8187 18.5812 12.7 18.5812 12.7L18.5437 12.7937L18.475 12.85C18.475 12.85 18.4687 12.7812 18.425 12.8062C18.3875 12.8312 18.3875 12.8312 18.375 12.9125C18.3687 12.9937 18.45 12.9125 18.4312 12.9625C18.3937 13.0187 18.35 13.075 18.2937 13.1125C18.2562 13.15 18.225 13.1875 18.2 13.2312C18.1625 13.2875 18.1125 13.3062 18.0812 13.3625C18.0562 13.4 18.0312 13.4375 18.0062 13.4687L17.95 13.525C17.875 13.5875 17.775 13.6437 17.7437 13.6625C17.7125 13.6812 17.6 13.8062 17.5562 13.7812C17.5125 13.7562 17.4312 13.8125 17.4125 13.9L17.3562 13.85L17.2375 13.9687L17.1187 14.0625L17.1 14.0687L17.0437 14.0187L16.925 14.0812L16.9062 14.1375C16.8375 14.1562 16.7625 14.1687 16.6937 14.1812L16.6312 14.1437C16.6125 14.2812 16.575 14.4187 16.525 14.5562C16.4875 14.6312 16.45 14.7 16.4 14.7687L16.3625 14.825C16.3375 14.8625 16.3125 14.9 16.2937 14.9437L16.2562 15.0375L16.1812 15.0937C16.1812 15.0937 16.1812 15.05 16.1562 15.0437C16.15 15.0437 16.1437 15.0437 16.1375 15.0437C16.1187 15.0562 16.1062 15.0625 16.1 15.075C16.0937 15.1 16.0875 15.125 16.0875 15.15C16.075 15.2312 16.1625 15.15 16.1437 15.2C16.1062 15.2562 16.0625 15.3062 16.0062 15.35C15.9687 15.3812 15.9375 15.425 15.9125 15.4687C15.8687 15.525 15.825 15.5437 15.7875 15.6C15.7625 15.6375 15.7375 15.675 15.7125 15.7062L15.65 15.7625C15.5937 15.8062 15.5312 15.8437 15.4687 15.8812L15.4375 15.9C15.3875 15.95 15.3375 15.9875 15.275 16.0187L15.2375 16.125C15.2 16.2 15.1562 16.2687 15.1062 16.3375C15.0625 16.3937 15.0312 16.45 15 16.5125L14.9562 16.6062L14.8812 16.6625C14.8812 16.6625 14.8812 16.5937 14.8375 16.6187C14.7937 16.6437 14.8 16.6437 14.7875 16.7187C14.775 16.8 14.8625 16.7187 14.8437 16.7687L14.8312 16.7875C14.7937 16.8375 14.75 16.8812 14.6937 16.9187C14.6562 16.95 14.625 16.9937 14.6 17.0375C14.5562 17.0937 14.5125 17.1125 14.475 17.1625C14.45 17.2 14.425 17.2312 14.3937 17.2687L14.3812 17.2562L14.3687 17.275C14.325 17.325 14.2875 17.3875 14.2562 17.4437L14.2125 17.5375L14.1375 17.5937C14.1375 17.5937 14.1375 17.525 14.0937 17.55C14.05 17.575 14.0562 17.575 14.0437 17.65C14.0312 17.7312 14.1187 17.6562 14.0937 17.7062C14.0562 17.7625 14.0062 17.8125 13.95 17.85C13.9125 17.8812 13.8812 17.9187 13.85 17.9625C13.8062 18.0187 13.7625 18.0375 13.725 18.0875C13.7 18.125 13.675 18.1562 13.6437 18.1937L13.5812 18.25C13.5 18.3062 13.4 18.35 13.3625 18.375C13.3312 18.4 13.2125 18.5125 13.1687 18.4812C13.1312 18.45 13.0437 18.5062 13.0187 18.5937L12.9687 18.5375L12.85 18.6562L12.7312 18.7437L12.7125 18.75L12.6562 18.6937L12.5375 18.75L12.5125 18.8062C12.4437 18.8187 12.375 18.8312 12.3062 18.8375C12.2687 18.8937 12.3187 18.8937 12.3062 18.975V18.9812C12.2875 18.9562 12.2062 18.9 12.2312 18.8562C12.2562 18.8125 12.2125 18.7625 12.1437 18.7687L12.1875 18.7062L12.1 18.65L12.0312 18.5812V18.5625L12.0687 18.5L12.0187 18.4187H11.975C11.9562 18.3625 11.9437 18.3125 11.9375 18.2562L11.9625 18.1812C11.8625 18.2125 11.7562 18.2312 11.6437 18.2375C11.5875 18.2312 11.5312 18.225 11.4812 18.2125L11.4375 18.2062C11.4062 18.2 11.375 18.2 11.3437 18.2062L11.2687 18.2125L11.2187 18.175C11.2187 18.175 11.25 18.15 11.25 18.1312V18.1187C11.2375 18.1062 11.2312 18.1 11.225 18.1C11.2062 18.1062 11.1875 18.1125 11.175 18.1187C11.1187 18.1437 11.175 18.1812 11.1437 18.1875C11.1125 18.1937 11.0562 18.1562 11.025 18.1375C10.9937 18.1187 10.9625 18.1125 10.9312 18.1125C10.8875 18.1125 10.8687 18.0812 10.825 18.075C10.7937 18.075 10.7687 18.0687 10.7437 18.0625L10.6937 18.0375C10.6562 18.0062 10.6187 17.975 10.5875 17.9437L10.5687 17.9312C10.55 17.9187 10.475 17.9 10.4625 17.8625L10.3875 17.8875C10.3312 17.8937 10.2812 17.9 10.225 17.9C10.1812 17.8937 10.1375 17.9 10.0937 17.9125L10.025 17.9375L9.97499 17.9125C9.97499 17.9125 10.0125 17.8687 9.98749 17.85C9.96249 17.8312 9.96249 17.8312 9.91249 17.8687C9.86249 17.9062 9.93124 17.9312 9.89374 17.9437H9.88124C9.83749 17.9437 9.79999 17.9312 9.76249 17.9125C9.73124 17.9 9.69999 17.9 9.66874 17.9062C9.62499 17.9062 9.59999 17.8812 9.55624 17.8875C9.53124 17.8937 9.49999 17.8937 9.47499 17.8937H9.46874H9.45624C9.41249 17.8937 9.36874 17.9062 9.33124 17.925L9.26874 17.9562L9.21874 17.9375C9.21874 17.9375 9.24999 17.8875 9.22499 17.875C9.19999 17.8625 9.19374 17.875 9.16874 17.9C9.18749 17.8375 9.20624 17.7812 9.21874 17.7187C9.24374 17.6125 9.27499 17.6437 9.14999 17.525C9.06249 17.5 8.98124 17.475 8.89374 17.4375C8.84374 17.3687 8.73124 17.4812 8.73749 17.3812C8.49999 17.3875 8.26249 17.4125 8.03124 17.4687L7.78749 17.4937C7.64374 17.5312 7.49999 17.575 7.36249 17.6187L7.29374 17.6375C7.17499 17.7875 6.73124 17.8625 6.73124 17.8625C6.73124 17.8625 6.93124 17.6375 6.55624 17.8437C6.34374 17.9562 6.16249 18.1187 6.03124 18.3187C5.82499 18.4875 5.58749 18.6312 5.34374 18.7437C5.12499 18.8312 4.93124 18.975 4.77499 19.1562C4.49999 19.3812 4.22499 19.6312 3.94999 19.8812L3.78749 20.1L3.73749 20.0437L3.71874 20.05L3.58749 20.1375L3.45624 20.2562L3.39999 20.1937C3.36874 20.2812 3.28124 20.35 3.23749 20.3125C3.19374 20.275 3.07499 20.4062 3.03749 20.4312C2.99999 20.4562 2.89374 20.5125 2.81249 20.5812L2.74999 20.6437C2.71874 20.6812 2.69374 20.7187 2.66874 20.7625C2.63124 20.825 2.58124 20.85 2.53749 20.9187C2.51249 20.9687 2.48124 21.0125 2.44374 21.0562C2.38749 21.1062 2.33749 21.1687 2.29999 21.2375C2.28124 21.2937 2.36874 21.2 2.36249 21.2812C2.35624 21.3625 2.36249 21.3687 2.31874 21.4C2.27499 21.4312 2.26874 21.3625 2.26874 21.3625L2.19999 21.4375L2.16874 21.55C2.14374 21.625 2.11249 21.6937 2.08124 21.7625C2.04374 21.85 2.00624 21.9375 1.98124 22.025L1.93749 22.1875C1.76874 22.3875 1.61874 22.6062 1.48749 22.8312L1.56249 22.8625C1.45624 23.0625 1.35624 23.2625 1.26874 23.4687L1.23749 23.5375C1.24374 23.7562 1.23124 23.975 1.19999 24.1875C1.19999 24.1875 1.18749 24.05 1.14999 24.0812V24.0875V24.2437C1.16249 24.325 1.16249 24.35 1.13749 24.35H1.11249V24.4562C1.13124 24.5062 1.14374 24.5562 1.15624 24.6062V24.7687C1.15624 24.8812 1.17499 25.0062 1.18749 25.1125C1.16874 25.1437 1.16249 25.1812 1.15624 25.2187C1.13749 25.3 1.19999 25.3062 1.19999 25.3062L1.23124 25.1625L1.27499 25.6812L1.21874 25.775C1.21874 25.775 1.16249 25.7312 1.16874 25.775C1.16874 25.8312 1.18749 25.8875 1.22499 25.9375H1.24999L1.29999 25.95L1.35624 26.3375L1.31874 26.4125V26.5312L1.34999 26.7125C1.34999 26.75 1.33749 26.7875 1.31874 26.8187L1.36249 26.9812L1.41249 27.0687V27.1125L1.42499 27.1875C1.43749 27.25 1.47499 27.2562 1.49374 27.2562H1.50624L1.47499 27.1C1.54999 27.2625 1.68124 27.3125 1.76249 27.475L1.74999 27.55V27.5875C1.74999 27.5875 1.68749 27.5625 1.70624 27.6125C1.73124 27.6687 1.76874 27.7187 1.82499 27.7437L1.84374 27.7312H1.86874H1.89999C1.95624 27.8312 2.06249 27.8875 2.11874 27.9875L2.14999 28.0375L2.31874 28.1L2.36249 28.2062L2.56874 28.2625C2.58124 28.3 2.58749 28.3312 2.58124 28.3687C2.61874 28.4187 2.68749 28.4187 2.73749 28.4312L2.74374 28.4437L2.80624 28.5937L2.96874 28.8437L2.99374 28.8875C3.13124 28.9125 3.24374 29.2312 3.24374 29.2312C3.24374 29.2312 3.03124 29.1562 3.24374 29.3812C3.37499 29.5187 3.53749 29.6125 3.72499 29.6562C3.91249 29.7812 4.08124 29.9312 4.22499 30.1C4.34999 30.25 4.51249 30.3562 4.69999 30.4125C4.94999 30.5437 5.20624 30.6687 5.46249 30.7875L5.66874 30.825L5.63749 30.8937L5.64999 30.9062L5.74374 30.975L5.86249 31.0312L5.83124 31.1C5.90624 31.0875 5.96874 31.1312 5.94999 31.1875C5.93124 31.2375 6.04999 31.2812 6.08124 31.3062C6.11249 31.325 6.16874 31.3937 6.23749 31.4312L6.29374 31.4625C6.32499 31.475 6.36249 31.4812 6.39374 31.4812C6.44374 31.4937 6.46874 31.525 6.52499 31.5312C6.56874 31.5312 6.60624 31.5437 6.64374 31.5625C6.68749 31.5937 6.74374 31.6125 6.79999 31.6125C6.84374 31.6062 6.76249 31.5687 6.82499 31.5375C6.88749 31.5062 6.88749 31.5062 6.91874 31.5312C6.94999 31.5562 6.89999 31.5937 6.89999 31.5937L6.96249 31.6312L7.04374 31.6187C7.09999 31.6125 7.14999 31.6125 7.20624 31.6187C7.27499 31.625 7.33749 31.625 7.40624 31.6187L7.52499 31.5812C7.67499 31.6625 7.83749 31.7437 8.00624 31.8187L8.02499 31.7375L8.44374 31.8812L8.48749 31.9C8.62499 31.8562 8.76874 31.8375 8.91249 31.8437C8.91249 31.8437 8.81874 31.875 8.84374 31.9062L8.94374 31.8875C8.99374 31.8687 9.01249 31.8687 9.01249 31.8937V31.925L9.08124 31.9125C9.11249 31.8875 9.14374 31.875 9.17499 31.8625H9.28124L9.49374 31.8312C9.51249 31.8437 9.53749 31.8562 9.55624 31.8625C9.60624 31.8812 9.61249 31.8187 9.61249 31.8187L9.52499 31.7812C9.63124 31.775 9.74374 31.775 9.84999 31.7812L9.89999 31.85C9.89999 31.85 9.86874 31.8937 9.89999 31.9C9.93749 31.9062 9.97499 31.8937 10.0062 31.8687V31.8437L10.0187 31.7937L10.2625 31.8187L10.3 31.8687L10.3687 31.9L10.4812 31.9187C10.5062 31.9375 10.525 31.9562 10.5375 31.9812L10.6375 31.9937L10.6937 31.9812L10.7187 31.9937L10.7625 32.0062C10.8 32.0187 10.8125 31.9875 10.8125 31.9687V31.9562L10.7187 31.925C10.825 31.9125 10.8812 31.8187 10.9937 31.8062L11.0375 31.85L11.0562 31.8687C11.0562 31.8687 11.0312 31.9187 11.0562 31.9187C11.0937 31.9187 11.1312 31.9062 11.1562 31.875V31.85V31.8312V31.8C11.225 31.8 11.2812 31.7375 11.35 31.7375H11.3875L11.4625 31.6312L11.5312 31.6562L11.6187 31.525C11.6437 31.5375 11.6625 31.5562 11.6812 31.575C11.7062 31.575 11.725 31.55 11.7375 31.5187C11.85 31.5187 11.9562 31.5375 12.0625 31.5312C12.2375 31.5437 12.4062 31.5312 12.575 31.5312C12.8875 31.5 13.2 31.4562 13.5062 31.3875L13.6562 31.3562C14.0562 31.2 14.475 31.075 14.8937 30.9875C14.8937 30.9875 14.3562 31.3125 15.2187 30.9625C15.7 30.7625 16.1562 30.4937 16.5687 30.175C16.5687 30.175 17.4312 29.6687 18.225 29.3062C18.7062 29.0875 19.1562 28.8062 19.575 28.4812C20.2375 28.0375 20.8875 27.575 21.5187 27.0875L21.95 26.7L21.9937 26.7625L22.0312 26.7062L22.3062 26.525L22.5937 26.3L22.6437 26.3562C22.75 26.2125 22.9375 26.0875 22.9812 26.1187C23.025 26.15 23.3 25.925 23.3812 25.8625L23.8312 25.5562L23.975 25.4375L24.1812 25.2312L24.4812 24.9625C24.5562 24.8812 24.6312 24.8 24.7187 24.725C24.8375 24.6312 24.95 24.525 25.05 24.4125C25.1125 24.325 24.9312 24.4875 25 24.3562C25.0625 24.225 25.0687 24.2187 25.15 24.1625C25.2312 24.1 25.1937 24.2062 25.1937 24.2062L25.3437 24.075L25.4687 23.8937L25.7437 23.5375C25.8875 23.3625 26.0062 23.2 26.075 23.1062C26.1437 23.0125 26.1812 22.925 26.2312 22.8375C26.5875 22.5187 26.9312 22.1625 27.2937 21.7687L27.2312 21.7187C27.5062 21.4062 27.7812 21.0875 28.0375 20.7562L28.1312 20.65C28.3 20.2875 28.4937 19.9375 28.7 19.6C28.7 19.6 28.5937 19.8375 28.6625 19.7875L28.6687 19.775L28.7937 19.525C28.85 19.3937 28.875 19.3437 28.8937 19.3625L28.9187 19.375L29.0062 19.2C29.0312 19.1125 29.0562 19.025 29.0937 18.9437L29.2312 18.675C29.3187 18.4875 29.4125 18.3062 29.4937 18.1187L29.6062 17.9625C29.6875 17.8437 29.6375 17.8 29.6375 17.8L29.4812 18.0187L29.9 17.1687L30.0312 17.05C30.0312 17.05 30.0312 17.15 30.075 17.0687C30.125 16.9812 30.1625 16.8875 30.175 16.7812L30.15 16.7687L30.1187 16.7125L30.4187 16.0687L30.5125 15.9875L30.6187 15.825L30.7562 15.5375C30.7875 15.4875 30.825 15.4437 30.875 15.4125C30.925 15.3062 30.9625 15.2187 30.9937 15.1437L31.0375 14.975L31.075 14.9125L31.1312 14.8C31.1812 14.7062 31.1625 14.6625 31.15 14.6437H31.1375L31.0187 14.8875C31.1125 14.5875 31.0812 14.3937 31.175 14.075L31.25 13.9875L31.2875 13.9437C31.2875 13.9437 31.3062 14.0375 31.3312 13.9562C31.3687 13.8625 31.3875 13.7625 31.3812 13.6562L31.3562 13.65L31.3437 13.6312L31.3187 13.6C31.375 13.4 31.3687 13.2125 31.425 13.025L31.4562 12.925L31.425 12.6437L31.5 12.4625L31.45 12.1312C31.475 12.0812 31.5062 12.0312 31.5437 11.9875C31.575 11.85 31.4937 11.7125 31.5125 11.6312L31.5562 11.4375C31.4625 11.3312 31.65 11.3062 31.5562 11.2687C31.5812 11.1437 31.575 11.0187 31.5375 10.9C31.5687 10.8875 31.6 10.8812 31.6375 10.875L31.6 10.7812L31.6187 10.7C31.6187 10.7 31.6687 10.7437 31.6812 10.7C31.6937 10.6562 31.6937 10.6562 31.65 10.5937C31.6062 10.5312 31.5937 10.6375 31.575 10.5937C31.5625 10.5312 31.5625 10.4625 31.5812 10.4C31.5875 10.3562 31.5875 10.3062 31.575 10.2625C31.5687 10.1937 31.5812 10.1562 31.575 10.0937C31.5625 10.0562 31.5562 10.0125 31.55 9.975V9.9C31.5625 9.8125 31.5937 9.7125 31.6 9.675C31.6062 9.6375 31.6 9.48125 31.65 9.475C31.7 9.4625 31.7062 9.36875 31.6562 9.3L31.7312 9.29375L31.7125 9.1375V8.99375L31.7187 8.96875L31.7937 8.95625L31.8187 8.83125L31.7937 8.78125C31.8187 8.71875 31.85 8.65625 31.8875 8.59375L31.9875 8.5875ZM9.14374 17.9125C9.14374 17.9375 9.16249 17.95 9.14374 17.9687C9.12499 17.9812 9.11249 17.9687 9.09999 17.9687C9.10624 17.9437 9.12499 17.9437 9.14374 17.9125ZM29.0937 13.0812L29.0312 13.3812C28.95 13.75 28.7 13.775 28.7 13.775L28.6625 14.0125L28.575 14.2125C28.575 14.2125 28.5625 14.0937 28.5125 14.1937C28.4687 14.275 28.45 14.3625 28.4562 14.4562C28.4437 14.6187 28.55 14.3687 28.5312 14.4812C28.4812 14.6437 28.4187 14.7937 28.35 14.9437C28.2937 15.075 28.2812 15.1187 28.225 15.2812L28.05 15.6812C28.0187 15.7812 27.975 15.8812 27.9312 15.975L27.8375 16.1562C27.7187 16.3625 27.5687 16.575 27.5187 16.6562C27.4625 16.7437 27.2812 17.0937 27.225 17.0812C27.1687 17.0687 27.0312 17.275 26.975 17.4625L26.9062 17.425L26.7 17.7812L26.4875 18.075L26.4562 18.1062L26.3937 18.0687L26.1937 18.3062L26.1375 18.4312C26.0187 18.5375 25.9 18.6375 25.7937 18.7125H25.7C25.6 19 25.475 19.2875 25.3312 19.5562C25.2687 19.6625 25.1562 19.85 25.0125 20.0562L24.9187 20.1875L24.7375 20.4562L24.6187 20.6625L24.4625 20.8187C24.4625 20.8187 24.4812 20.75 24.4437 20.7562C24.4312 20.7625 24.4187 20.7687 24.4125 20.775C24.3812 20.8 24.3562 20.825 24.3312 20.8562C24.3062 20.9 24.2812 20.95 24.2625 20.9937C24.1937 21.1437 24.3812 20.9437 24.3187 21.0437C24.2187 21.1812 24.1062 21.3062 23.9812 21.4187C23.9 21.5062 23.8187 21.5937 23.7437 21.6875C23.6312 21.825 23.5375 21.8875 23.4312 22.0062L23.2187 22.2437L23.0687 22.3812L22.6625 22.6937L22.5875 22.75C22.4687 22.8562 22.3437 22.9562 22.2062 23.0437L22.0562 23.2437C21.975 23.3437 21.8187 23.5 21.6375 23.675L21.2812 24.0312L21.1187 24.2125L20.9375 24.3437C20.9375 24.3437 20.9937 24.2312 20.9 24.2937C20.8062 24.3562 20.8062 24.35 20.7062 24.4875C20.6125 24.625 20.8375 24.4562 20.7562 24.55L20.725 24.5812C20.6062 24.6812 20.4812 24.775 20.35 24.8625C20.25 24.9312 20.15 25.0062 20.0625 25.0875L19.7 25.35L19.4375 25.5312L19.4125 25.55L19.375 25.5812L18.9875 25.9L18.8062 26.0625L18.6125 26.1812C18.6125 26.1812 18.6812 26.075 18.5812 26.125C18.4937 26.1625 18.425 26.225 18.3687 26.3062C18.2562 26.4312 18.5 26.2875 18.4125 26.3687C18.275 26.475 18.1312 26.5625 17.975 26.6437C17.85 26.7187 17.8125 26.7437 17.6625 26.85L17.275 27.0875L17 27.2687L16.8187 27.3687C16.6 27.4812 16.3437 27.575 16.2562 27.6187C16.1687 27.6625 15.8 27.8687 15.7625 27.825C15.725 27.7875 15.4875 27.8937 15.3375 28.025L15.3 27.9562L14.9375 28.15L14.6062 28.2937L14.5625 28.3062L14.525 28.2312L14.2312 28.325L14.1187 28.4C13.9812 28.4187 13.85 28.4375 13.7125 28.4437C13.5812 28.5125 13.6687 28.5125 13.5437 28.6125C13.4437 28.7 13.3625 28.8062 13.3062 28.9312C13.3062 28.9312 13.15 28.9625 12.7812 29.0625C12.4062 29.1625 12.7812 29.0625 12.3687 29.2125C11.9562 29.3312 12.0812 29.4125 11.7125 29.3937C11.5375 29.3687 11.3562 29.3625 11.175 29.3812C11.1 29.4062 11.0187 29.425 10.9375 29.4375C10.8625 29.4437 10.7875 29.4562 10.7125 29.475C10.6812 29.4312 10.6562 29.375 10.6437 29.3187L10.575 29.3562L10.5125 29.3437C10.5125 29.3437 10.5437 29.2937 10.5125 29.2812C10.4812 29.2687 10.4812 29.2687 10.4375 29.3187C10.3937 29.3687 10.475 29.375 10.4375 29.3937C10.3875 29.4062 10.3375 29.4125 10.2937 29.4C10.2562 29.3937 10.225 29.4 10.1875 29.4125C10.1375 29.425 10.1062 29.4 10.0625 29.4125C10.0312 29.4187 9.99999 29.425 9.96874 29.425L9.91249 29.4187C9.85624 29.4 9.79999 29.375 9.74374 29.35C9.71249 29.3437 9.59999 29.3375 9.59999 29.2812C9.59999 29.225 9.53124 29.2062 9.46874 29.2437L9.47499 29.1687L9.35624 29.1562L9.25624 29.125L9.24374 29.1125L9.25624 29.0375L9.17499 28.9875L9.13124 29.0062C9.09374 28.9625 9.06249 28.9125 9.03124 28.8625V28.7812C8.94374 28.8437 8.84999 28.9 8.74374 28.9375C8.68749 28.9562 8.62499 28.9625 8.56874 28.9625H8.51874C8.48749 28.9625 8.45624 28.9625 8.42499 28.975L8.34999 28.9937L8.29374 28.9625C8.29374 28.9625 8.31874 28.9375 8.31874 28.9125C8.31874 28.9062 8.31249 28.9 8.31249 28.9C8.29999 28.8875 8.29374 28.8875 8.28124 28.8875C8.26249 28.8937 8.24374 28.9062 8.23124 28.9187C8.17499 28.9562 8.24999 28.9812 8.21249 28.9937C8.16249 28.9937 8.11249 28.9812 8.07499 28.9562C8.04374 28.9437 8.00624 28.9312 7.97499 28.9312C7.92499 28.9312 7.89999 28.9 7.85624 28.8937C7.82499 28.8937 7.79374 28.8875 7.76249 28.8812L7.70624 28.8562C7.66249 28.8312 7.62499 28.8 7.58749 28.7625L7.56874 28.7437C7.54374 28.7312 7.47499 28.6937 7.44999 28.6562L7.36874 28.675C7.30624 28.675 7.24999 28.675 7.18749 28.6625C7.13749 28.65 7.08749 28.65 7.03749 28.65H6.96249L6.91249 28.6062C6.91249 28.6062 6.96249 28.575 6.93749 28.55C6.91249 28.525 6.91249 28.525 6.84999 28.55C6.78749 28.575 6.85624 28.6187 6.81874 28.6187H6.80624C6.76249 28.6062 6.72499 28.5875 6.68749 28.5562C6.65624 28.5375 6.62499 28.525 6.58749 28.5187C6.53749 28.5062 6.51874 28.475 6.46874 28.4562C6.43749 28.45 6.40624 28.4375 6.38124 28.425H6.37499H6.36249C6.31249 28.4062 6.26249 28.3937 6.21249 28.3937H6.13124L6.08124 28.35C6.08124 28.35 6.13749 28.325 6.11249 28.2937C6.09374 28.2687 6.09374 28.2687 6.02499 28.2875C5.95624 28.3062 6.02499 28.35 5.98749 28.35C5.94999 28.35 5.89374 28.2937 5.86249 28.2687C5.83124 28.2437 5.79999 28.2312 5.76874 28.2187C5.71874 28.2 5.70624 28.1625 5.65624 28.1437C5.62499 28.1312 5.59374 28.1187 5.56249 28.1062L5.51249 28.0687C5.47499 28.0187 5.43749 27.9687 5.40624 27.9125C5.38124 27.8875 5.28749 27.8187 5.31874 27.775C5.34999 27.7312 5.29999 27.675 5.22499 27.675L5.27499 27.6187C5.24374 27.5937 5.21249 27.5687 5.18124 27.5437L5.11874 27.4562V27.4437L5.16874 27.3812L5.13124 27.2875L5.08749 27.2625C5.08124 27.2062 5.07499 27.15 5.08124 27.1C5.03749 27.0812 5.03124 27.1187 4.96249 27.125C4.88124 27.1437 4.80624 27.175 4.73749 27.2125C4.71874 27.1562 4.68124 27.1062 4.63749 27.0687C4.54999 26.9812 4.63749 27.0687 4.49999 27.0062C4.36249 26.9437 4.31249 27.0375 4.26249 26.9125C4.24374 26.8437 4.19374 26.7937 4.13124 26.7687C4.08749 26.775 4.04374 26.775 4.00624 26.7687H3.99999C3.94374 26.6625 3.88124 26.55 3.83749 26.4375L3.76249 26.3687C3.68749 26.2687 3.87499 26.15 3.87499 26.15L3.81249 26.1L3.79999 26.0312C3.79999 26.0312 3.86249 26.0437 3.85624 26.0062C3.85624 25.975 3.85624 25.975 3.79374 25.9437C3.73124 25.9125 3.75624 26 3.71874 25.9687C3.68749 25.925 3.66874 25.8687 3.66874 25.8187C3.66249 25.7812 3.64999 25.7437 3.63124 25.7125C3.61249 25.6625 3.61874 25.625 3.59999 25.575C3.58749 25.5437 3.57499 25.5125 3.56874 25.475V25.4125C3.57499 25.35 3.59374 25.2812 3.61249 25.2187C3.61249 25.1875 3.61249 25.0625 3.66874 25.0562C3.72499 25.0562 3.73749 24.9812 3.69999 24.9187L3.77499 24.925L3.78749 24.8L3.82499 24.6875L3.83749 24.675L3.91249 24.6875L3.97499 24.6L3.96249 24.5562C4.01249 24.5187 4.06249 24.4875 4.11874 24.4625H4.19999C4.14374 24.3562 4.11249 24.2437 4.09999 24.1312C4.09999 24.0625 4.10624 23.9937 4.12499 23.9312L4.13749 23.875L4.15624 23.7562V23.6687L4.20624 23.6062C4.20624 23.6062 4.22499 23.6437 4.24374 23.6437H4.26249C4.27499 23.6312 4.28749 23.625 4.28749 23.6125C4.28749 23.5875 4.28124 23.5687 4.27499 23.55C4.26249 23.475 4.20624 23.5562 4.20624 23.5125C4.20624 23.4687 4.26874 23.3937 4.29999 23.3562C4.32499 23.3187 4.34999 23.2812 4.36249 23.2375C4.38749 23.1812 4.42499 23.1562 4.45624 23.1062C4.47499 23.0687 4.48749 23.0312 4.51249 23L4.56249 22.9437C4.61249 22.9 4.66249 22.8625 4.71874 22.825L4.74999 22.8062C4.77499 22.7812 4.84374 22.7062 4.89374 22.6937L4.91874 22.5937C4.94999 22.5187 4.99374 22.45 5.03749 22.3875C5.07499 22.3375 5.11249 22.2812 5.14374 22.2187L5.18124 22.125L5.25624 22.075C5.25624 22.075 5.25624 22.1437 5.29999 22.1187C5.34374 22.1 5.33749 22.1 5.34999 22.0187C5.36249 21.9375 5.27499 22.0125 5.29999 21.9625L5.31249 21.95C5.35624 21.9062 5.39999 21.8625 5.45624 21.8312C5.49999 21.8 5.53124 21.7687 5.56249 21.725C5.61249 21.6687 5.65624 21.6562 5.69999 21.6062C5.72499 21.5687 5.75624 21.5375 5.79374 21.5062L5.80624 21.5L5.81874 21.4812C5.86874 21.4312 5.91249 21.375 5.95624 21.3187L6.01249 21.225L6.09374 21.175C6.09374 21.175 6.08749 21.2437 6.13124 21.225C6.17499 21.2062 6.17499 21.2062 6.19999 21.125C6.22499 21.0437 6.12499 21.1125 6.15624 21.0625C6.20624 21.0062 6.26249 20.9625 6.33124 20.9312C6.37499 20.9 6.41249 20.8687 6.44999 20.8312C6.50624 20.775 6.55624 20.7687 6.60624 20.7125C6.63749 20.675 6.67499 20.6437 6.71249 20.6125L6.78749 20.5625C6.88124 20.5125 6.99999 20.475 7.03749 20.4562C7.07499 20.4375 7.23124 20.3375 7.26249 20.3687C7.29999 20.4 7.39999 20.3562 7.44374 20.275L7.48749 20.3375L7.63124 20.2375L7.76874 20.1687H7.78749L7.83124 20.2375L7.96249 20.2062L7.98124 20.2125C8.01249 20.1187 8.15624 20.2625 8.15624 20.2625C8.15624 20.2625 8.08749 20.3562 8.20624 20.3687C8.28749 20.3625 8.36249 20.3187 8.40624 20.25C8.49374 20.225 8.59374 20.2437 8.66874 20.3C8.73124 20.3562 8.82499 20.3625 8.88749 20.3125H9.22499L9.31874 20.275L9.30624 20.35V20.3625L9.34374 20.3937L9.39374 20.4062L9.37499 20.4812C9.40624 20.4437 9.43749 20.4687 9.42499 20.5187C9.41249 20.5687 9.46249 20.5812 9.46874 20.5937C9.48749 20.6187 9.49999 20.6437 9.51874 20.6687L9.54374 20.6812C9.55624 20.6812 9.57499 20.6812 9.58749 20.675C9.60624 20.675 9.61874 20.6937 9.63749 20.6875C9.66249 20.6812 9.66874 20.675 9.68124 20.6875C9.69374 20.7 9.71874 20.725 9.73749 20.7062C9.75624 20.6875 9.73124 20.675 9.76249 20.6312C9.79374 20.5937 9.79374 20.5937 9.80624 20.6125C9.81249 20.6312 9.78749 20.6687 9.78749 20.6687L9.80624 20.6937L9.84374 20.6687C9.86874 20.6562 9.88749 20.65 9.91874 20.65C9.94999 20.6437 9.98124 20.6375 10.0125 20.625L10.075 20.5875C10.1187 20.65 10.1625 20.7125 10.2125 20.7687L10.25 20.6937L10.3687 20.8312L10.3812 20.85C10.4437 20.8187 10.5125 20.8062 10.5812 20.825C10.5812 20.825 10.5312 20.8375 10.525 20.8687H10.575C10.6062 20.8562 10.6125 20.8562 10.5937 20.8812L10.5812 20.9062H10.6125C10.6312 20.8937 10.6562 20.8812 10.675 20.875L10.7187 20.8812L10.8187 20.8875V20.9312C10.825 20.9562 10.8625 20.9062 10.8625 20.9062L10.85 20.8562C10.8937 20.875 10.9312 20.8937 10.9687 20.925L10.9437 20.9937C10.9437 20.9937 10.9062 21.025 10.9125 21.0312C10.9187 21.0437 10.9687 21.0312 10.9687 21.0312L10.9812 21.0125L11.0125 20.975C11.0375 21 11.0625 21.025 11.0812 21.05L11.0562 21.1V21.1437L11.0687 21.1875C11.0625 21.2062 11.0562 21.2312 11.0437 21.25L11.0625 21.2875H11.0875V21.3V21.325C11.0875 21.3437 11.1125 21.325 11.125 21.3125L11.1312 21.3062V21.2562C11.1687 21.275 11.25 21.225 11.2812 21.2562L11.2562 21.3L11.2437 21.325C11.2437 21.325 11.2062 21.35 11.2125 21.3562C11.2187 21.3687 11.2625 21.3562 11.2625 21.3562L11.2812 21.3375L11.3 21.325L11.325 21.3062C11.3437 21.3312 11.4 21.3062 11.4125 21.3375L11.4187 21.35L11.5125 21.3125L11.5062 21.3562L11.625 21.3125C11.6187 21.3312 11.6062 21.3562 11.5937 21.3687C11.5937 21.3875 11.6875 21.3375 11.6875 21.35L11.7 21.3812C11.7937 21.325 11.6562 21.4437 11.7375 21.3812C11.7375 21.3812 11.7187 21.4187 11.875 21.3687C11.9375 21.35 11.9937 21.3312 12.05 21.3C12.0875 21.2875 12.1187 21.275 12.15 21.2562C12.2312 21.2125 12.2937 21.1437 12.275 21.1125C12.275 21.1062 12.2875 21.0937 12.3 21.0875C12.3375 21.1 12.3625 21.1187 12.4125 21.2062C12.4562 21.2937 12.3312 21.175 12.5187 21.475C12.575 21.5687 12.5375 21.5562 12.6812 21.5875C12.7437 21.5687 12.8125 21.5625 12.875 21.5562C12.9437 21.5937 12.9437 21.4625 13 21.55C13.1312 21.475 13.2687 21.3875 13.4062 21.2937L13.5687 21.225L13.8375 21.05L13.8812 21.025C13.9125 20.8875 14.2687 20.775 14.2687 20.775C14.2687 20.775 14.1687 20.9937 14.425 20.775C14.575 20.65 14.6937 20.4875 14.775 20.3C14.9312 20.1187 15.1187 19.9625 15.325 19.8375C15.5062 19.7375 15.6562 19.5937 15.7562 19.4125L16.3687 18.7375L16.4875 18.5437L16.5437 18.5937H16.5625L16.6625 18.5187L16.7625 18.4187L16.8187 18.475C16.8312 18.4 16.9062 18.35 16.9437 18.3812C16.9812 18.4125 17.0812 18.3187 17.1125 18.2937C17.1437 18.2687 17.2312 18.2375 17.3 18.1875L17.35 18.1437C17.375 18.1125 17.3937 18.0875 17.4125 18.05C17.4437 18.0062 17.4812 17.9937 17.5187 17.9437C17.5375 17.9062 17.5625 17.875 17.6 17.85C17.6375 17.8187 17.7062 17.7687 17.7187 17.725C17.7312 17.6812 17.6625 17.7437 17.6625 17.675C17.6687 17.6 17.6625 17.6 17.7 17.5812C17.7375 17.5625 17.7437 17.625 17.7437 17.625L17.8062 17.5812L17.8375 17.4937C17.8562 17.4375 17.8875 17.3875 17.9187 17.3437C17.9562 17.2875 17.9937 17.225 18.0187 17.1562L18.05 17.0312C18.2062 16.9312 18.3562 16.825 18.525 16.7L18.4687 16.6437L18.8375 16.35L18.8812 16.3187C18.9312 16.175 19 16.0375 19.0937 15.9125C19.0937 15.9125 19.0562 16.0062 19.0937 16.0062L19.1437 15.9125C19.1625 15.8562 19.175 15.8437 19.1937 15.8625L19.2125 15.8812L19.2437 15.8125C19.2437 15.775 19.25 15.7312 19.2625 15.6937L19.325 15.6L19.4437 15.4C19.4687 15.3937 19.4937 15.3812 19.5125 15.3687C19.5625 15.3437 19.5187 15.2937 19.5187 15.2937L19.425 15.3437C19.4937 15.25 19.5687 15.1562 19.65 15.0687H19.7437C19.7437 15.0687 19.7562 15.125 19.7812 15.1C19.8125 15.075 19.8312 15.0375 19.8312 14.9937L19.8187 14.9812L19.7937 14.9375L19.9875 14.7562H20.0562L20.1312 14.725L20.225 14.6562C20.2562 14.65 20.2812 14.65 20.3125 14.6562L20.3937 14.5875L20.425 14.5312L20.4562 14.5187L20.5 14.5C20.5187 14.4875 20.5312 14.4625 20.5187 14.4437C20.5187 14.4375 20.5125 14.4375 20.5125 14.4375L20.5062 14.4312L20.4125 14.4812C20.4812 14.3875 20.4562 14.2812 20.5375 14.1875H20.6312C20.6312 14.1875 20.6437 14.2437 20.6687 14.2187C20.7 14.1937 20.7187 14.1562 20.7187 14.1125L20.7 14.1L20.6875 14.0812L20.675 14.0562C20.7312 14 20.7312 13.9187 20.7937 13.8687L20.825 13.8437V13.7062L20.9 13.675L20.8875 13.5125C20.9187 13.5062 20.9437 13.5062 20.975 13.5125C21.0187 13.4812 20.975 13.3812 20.9937 13.3562L21.05 13.3062C20.9937 13.2125 21.1437 13.3125 21.0687 13.2437C21.0687 13.2437 21.1312 13.225 21.1 13.0312C21.0687 12.8375 21.0437 12.8187 21.0437 12.8187C21.0375 12.7812 21.0187 12.7437 21 12.7125C20.975 12.6625 20.9125 12.6312 20.8562 12.6437C20.9187 12.5875 20.975 12.5187 21.025 12.4437C21.0562 12.4125 21.2625 12.225 21.2437 12.1562C21.2375 12.1187 21.2062 12.0875 21.1687 12.0812C21.1687 12.0812 21.3125 11.9375 21.2875 11.8625L21.2625 11.7875C21.225 11.6937 21.1812 11.6125 21.1312 11.525L21.075 11.5062C21.0125 11.4812 21.1625 11.3125 21.1625 11.3125H21.1125L21.1 11.275C21.1 11.275 21.15 11.25 21.15 11.2312C21.15 11.2125 21.15 11.2125 21.0937 11.225C21.0375 11.2375 21.0625 11.275 21.0375 11.275C21.0125 11.275 20.9937 11.2375 20.9812 11.2125C20.9687 11.1937 20.9625 11.1875 20.9312 11.175C20.9062 11.1625 20.9125 11.1312 20.8875 11.1187C20.8687 11.1125 20.8562 11.1 20.8437 11.0875L20.825 11.0562C20.8187 11.0187 20.8125 10.975 20.8125 10.9375C20.8062 10.9187 20.7687 10.8687 20.8125 10.8375C20.8562 10.8062 20.8437 10.7625 20.7937 10.7625L20.8562 10.7187L20.8187 10.6687L20.8062 10.6125V10.6L20.8687 10.5625L20.8812 10.5L20.85 10.4937C20.875 10.45 20.9 10.4125 20.925 10.375L20.9875 10.3312C20.9062 10.3375 20.8312 10.3312 20.75 10.3125C20.7187 10.3 20.6812 10.2812 20.6562 10.2562L20.6375 10.2375C20.625 10.225 20.6062 10.2125 20.5875 10.2062L20.5375 10.1875V10.15C20.5562 10.15 20.5687 10.1437 20.5875 10.1312L20.5937 10.1187C20.5937 10.1062 20.5937 10.1 20.5937 10.1C20.575 10.1 20.5625 10.1 20.5437 10.1C20.4875 10.1 20.5 10.1375 20.475 10.1312C20.45 10.125 20.4437 10.0812 20.4437 10.0562C20.4437 10.0312 20.4312 10.0312 20.4125 10.0062C20.3937 9.98125 20.4062 9.9625 20.3875 9.9375C20.375 9.925 20.3625 9.9125 20.35 9.89375L20.3437 9.8625C20.3437 9.83125 20.35 9.8 20.3625 9.76875V9.75C20.3625 9.7375 20.3562 9.69375 20.375 9.66875L20.3187 9.64375C20.2875 9.625 20.2625 9.6 20.2375 9.56875C20.2187 9.54375 20.2 9.51875 20.175 9.50625L20.1312 9.475V9.4375C20.1312 9.4375 20.1812 9.4375 20.1937 9.425C20.2062 9.4125 20.2 9.40625 20.15 9.39375C20.1 9.38125 20.1 9.425 20.075 9.4125V9.40625C20.0625 9.38125 20.0562 9.35625 20.0625 9.33125C20.0625 9.30625 20.0562 9.3 20.0375 9.275C20.025 9.25 20.0375 9.225 20.025 9.20625C20.0125 9.19375 20.0062 9.175 20 9.15625V9.15C19.9875 9.11875 19.9687 9.09375 19.9437 9.075L19.9 9.04375L19.9125 9.00625C19.9125 9.00625 19.9625 9.01875 19.975 9C19.9875 8.98125 19.9875 8.98125 19.9312 8.9625C19.8812 8.94375 19.875 8.9875 19.8562 8.96875C19.8312 8.95 19.8437 8.90625 19.8562 8.88125C19.8687 8.85625 19.8562 8.85 19.8437 8.81875C19.8312 8.7875 19.85 8.76875 19.8437 8.74375C19.8312 8.725 19.825 8.70625 19.8187 8.6875V8.65625C19.8375 8.61875 19.8562 8.5875 19.8812 8.55625C19.8875 8.5375 19.8875 8.475 19.9437 8.46875C19.9937 8.46875 20.0125 8.425 19.9687 8.39375H20.0437V8.325L20.0687 8.26875L20.0812 8.2625H20.1625L20.2062 8.21875V8.2125C20.2187 8.2 20.2375 8.1875 20.25 8.175C20.275 8.1625 20.2937 8.15625 20.3187 8.15C20.3187 8.14375 20.2937 8.1375 20.2875 8.1375C20.2812 8.13125 20.3 8.125 20.3125 8.1125C20.425 7.95625 20.5062 7.775 20.55 7.58125C20.6812 7.35625 20.8437 7.15625 21.0312 6.98125C21.1937 6.84375 21.325 6.66875 21.4 6.475C21.575 6.21875 21.75 5.96875 21.9312 5.7375L22.0312 5.5375L22.0875 5.5875H22.1062L22.2 5.5125L22.2875 5.41875L22.3437 5.475C22.35 5.4 22.4187 5.35625 22.4625 5.3875C22.5062 5.41875 22.5875 5.33125 22.6187 5.3125C22.65 5.29375 22.7312 5.26875 22.7937 5.23125L22.8437 5.19375C22.8625 5.16875 22.8875 5.14375 22.9 5.11875C22.9312 5.08125 22.9625 5.075 22.9937 5.0375C23.025 5 23.0312 4.98125 23.0687 4.9625C23.1062 4.94375 23.1687 4.9125 23.1875 4.875C23.2062 4.8375 23.1375 4.875 23.1437 4.8125C23.15 4.75 23.15 4.74375 23.1875 4.7375C23.2187 4.73125 23.225 4.7875 23.225 4.7875L23.2812 4.7625L23.3125 4.69375C23.3375 4.65 23.3687 4.60625 23.4062 4.575C23.45 4.53125 23.4875 4.4875 23.525 4.4375L23.575 4.3375L23.9875 4.225L23.9562 4.15C24.075 4.11875 24.2 4.1 24.3187 4.08125H24.3625C24.4437 3.9875 24.5437 3.91875 24.6562 3.88125C24.6562 3.88125 24.5937 3.93125 24.625 3.9625L24.6937 3.91875C24.725 3.8875 24.7437 3.88125 24.7437 3.9125V3.9375L24.7937 3.90625C24.8125 3.88125 24.8312 3.85625 24.8562 3.8375L24.9375 3.8125L25.1 3.75625L25.15 3.7875C25.1875 3.80625 25.1937 3.74375 25.1937 3.74375L25.125 3.70625C25.2125 3.69375 25.3 3.69375 25.3812 3.70625L25.4187 3.78125C25.4187 3.78125 25.3875 3.825 25.4187 3.83125C25.45 3.84375 25.4812 3.83125 25.5 3.80625V3.78125L25.5187 3.73125C25.5812 3.74375 25.6437 3.7625 25.7 3.7875L25.7187 3.85L25.7562 3.9L25.825 3.94375C25.8375 3.96875 25.8437 3.99375 25.8437 4.01875L25.9062 4.05625H25.95L25.9625 4.075L25.9812 4.10625C26 4.125 26.0187 4.10625 26.0312 4.0875V4.08125L25.9812 4.025C26.0562 4.04375 26.1312 3.98125 26.2062 4.01875V4.1C26.2062 4.1 26.1687 4.13125 26.1812 4.14375C26.2062 4.1625 26.2375 4.1625 26.2625 4.14375L26.275 4.125L26.2875 4.10625L26.3062 4.0875C26.3437 4.11875 26.4125 4.1 26.45 4.13125L26.4687 4.15L26.5812 4.1125L26.5937 4.16875L26.65 4.15625C26.65 4.1625 26.65 4.175 26.625 4.19375L26.8187 4.475L26.8625 4.6L26.9812 4.7875L27 4.81875C27.125 4.8125 27.1562 5.0875 27.1562 5.0875C27.1562 5.0875 26.9937 5.0375 27.125 5.21875C27.2125 5.325 27.325 5.40625 27.4562 5.44375C27.575 5.55625 27.6625 5.7 27.7062 5.8625C27.7312 6 27.8125 6.125 27.9312 6.2C28.05 6.36875 28.1687 6.5375 28.2812 6.71875L28.4 6.83125L28.3312 6.8625V6.875L28.35 6.9625L28.3937 7.05L28.325 7.08125C28.3875 7.1 28.3937 7.1625 28.35 7.1875C28.3062 7.2125 28.3375 7.29375 28.3375 7.31875V7.46875L28.35 7.5125C28.3625 7.53125 28.375 7.55625 28.3937 7.575C28.4187 7.60625 28.4062 7.6375 28.4312 7.66875C28.4562 7.7 28.4687 7.70625 28.4687 7.74375C28.4687 7.775 28.475 7.8375 28.5062 7.85C28.5375 7.86875 28.5187 7.80625 28.5812 7.825C28.6375 7.84375 28.6375 7.84375 28.6312 7.86875C28.625 7.89375 28.5687 7.8875 28.5687 7.8875V7.9375L28.6187 7.975C28.65 8 28.675 8.03125 28.6937 8.06875C28.725 8.1125 28.7562 8.15 28.7875 8.1875L28.8687 8.24375C28.8562 8.375 28.85 8.50625 28.8562 8.6375L28.9375 8.61875L28.9312 8.94375V8.98125C29.0125 9.05625 29.0687 9.15625 29.1 9.2625C29.1 9.2625 29.0562 9.20625 29.025 9.225L29.0625 9.29375C29.0875 9.325 29.0937 9.3375 29.0625 9.34375H29.0375L29.0625 9.3875C29.0875 9.4 29.1125 9.425 29.1312 9.45L29.1562 9.525L29.2187 9.675C29.2062 9.69375 29.1937 9.70625 29.1875 9.725C29.1687 9.7625 29.2312 9.7625 29.2312 9.7625L29.2625 9.69375C29.275 9.775 29.2875 9.85625 29.2875 9.9375L29.2187 9.98125C29.2187 9.98125 29.1687 9.9625 29.1687 9.98125C29.1625 10.0125 29.1812 10.0437 29.2062 10.0562H29.2312L29.2812 10.0625C29.2812 10.125 29.275 10.1875 29.2625 10.2437L29.2062 10.275L29.1687 10.325L29.1437 10.4062C29.125 10.425 29.1 10.4375 29.0812 10.4437L29.0625 10.5187L29.075 10.5625L29.0625 10.5812L29.0437 10.6125C29.0312 10.6375 29.0625 10.65 29.075 10.65H29.0875L29.125 10.5875C29.1312 10.6625 29.225 10.7187 29.2125 10.8L29.1625 10.825L29.1375 10.8375C29.1375 10.8375 29.0937 10.8125 29.0875 10.8375C29.0812 10.8687 29.0875 10.8937 29.1125 10.9125H29.1375L29.1562 10.9187L29.1875 10.9312C29.175 10.9812 29.225 11.0312 29.2125 11.0812L29.2062 11.1062L29.2937 11.1875L29.2562 11.2312L29.3562 11.325C29.3375 11.3375 29.3125 11.35 29.2875 11.3562C29.2687 11.3875 29.3625 11.4375 29.3562 11.4562L29.3375 11.5062C29.4375 11.55 29.2562 11.5312 29.3562 11.5562C29.3562 11.5562 29.3125 11.5875 29.4437 11.7062C29.4812 11.7375 29.4937 11.7437 29.5125 11.7625C29.3625 12.2062 29.2312 12.6625 29.0937 13.0812Z" fill="#0041E6"/>
<path d="M1.14999 13.5C1.19374 13.525 1.23749 13.5375 1.28749 13.5375C1.39374 13.5437 1.43749 13.4312 1.37499 13.3C1.31874 13.1687 1.49374 13.1937 1.49374 13.1937C1.49374 13.1937 1.53124 13.1375 1.47499 12.9812C1.41874 12.825 1.59374 13.0062 1.71249 13.0937C1.83124 13.1812 1.94999 13.025 1.99374 13.0125C2.03749 13 2.34999 13.0062 2.32499 12.8625C2.30624 12.7687 2.26874 12.675 2.22499 12.5937C2.22499 12.5937 2.43124 12.5937 2.43124 12.4125C2.43124 12.3562 2.43124 12.2937 2.43124 12.2312C2.43124 11.9625 2.44999 11.7 2.48124 11.4312L2.46874 11.2687C2.46874 11.0687 2.69374 11.0437 2.69374 11.0437L2.67499 10.9187L2.70624 10.8062C2.70624 10.8062 2.74374 10.8687 2.76874 10.8187C2.79374 10.7687 2.79374 10.7687 2.76249 10.675C2.73124 10.5812 2.69374 10.725 2.68749 10.6562C2.69374 10.5625 2.71249 10.475 2.74999 10.3875C2.76874 10.325 2.78124 10.2625 2.79374 10.1937C2.81249 10.1 2.84999 10.0437 2.86874 9.95625C2.88124 9.89375 2.88749 9.85 2.91249 9.78125L2.93749 9.6875C2.99999 9.56875 3.08749 9.44375 3.11249 9.39375C3.14374 9.34375 3.23124 9.13125 3.28124 9.14375C3.33749 9.15625 3.40624 9.03125 3.41249 8.9125L3.48124 8.94375L3.58124 8.73125L3.69374 8.55625L3.71249 8.5375L3.78124 8.575L3.89999 8.4375L3.91874 8.35625C3.98749 8.3 4.06874 8.25 4.14999 8.20625L4.23124 8.21875C4.23749 8.03125 4.26874 7.85 4.32499 7.66875C4.36249 7.5625 4.41249 7.45625 4.46249 7.35625L4.50624 7.26875L4.58749 7.1L4.65624 6.96875L4.74374 6.875C4.74374 6.875 4.74374 6.925 4.77499 6.925C4.78124 6.925 4.79374 6.91875 4.79374 6.9125C4.81249 6.9 4.82499 6.88125 4.83749 6.8625C4.84999 6.83125 4.85624 6.8 4.85624 6.76875C4.87499 6.66875 4.76874 6.7875 4.79374 6.725C4.84374 6.6375 4.89999 6.55625 4.96874 6.4875C5.01874 6.4375 5.05624 6.38125 5.09374 6.31875C5.14999 6.2375 5.20624 6.2 5.25624 6.125C5.29374 6.06875 5.31874 6.03125 5.36249 5.975L5.44374 5.8875C5.51874 5.825 5.59999 5.7625 5.68124 5.70625L5.72499 5.675C5.78749 5.60625 5.86249 5.55 5.94374 5.50625L6.01249 5.375C6.07499 5.28125 6.14374 5.1875 6.21874 5.10625C6.35624 4.9375 6.39374 4.88125 6.39374 4.88125L6.46874 4.7625L6.57499 4.6875C6.57499 4.6875 6.56249 4.76875 6.61874 4.7375C6.67499 4.70625 6.67499 4.70625 6.71249 4.6125C6.74999 4.51875 6.62499 4.6125 6.66249 4.55625L6.68124 4.5375C6.74374 4.475 6.81874 4.425 6.88749 4.375C6.94374 4.3375 6.99999 4.2875 7.04999 4.2375C7.12499 4.16875 7.18749 4.14375 7.25624 4.0875C7.32499 4.03125 7.33749 4.0125 7.39374 3.96875L7.40624 3.95625L7.42499 3.9375C7.58749 3.79375 7.63749 3.74375 7.63749 3.74375L7.73124 3.6375L7.84999 3.58125C7.84999 3.58125 7.82499 3.65625 7.88124 3.6375C7.94374 3.6125 7.94374 3.61875 7.99999 3.53125C8.05624 3.44375 7.91249 3.51875 7.96249 3.4625C8.03749 3.40625 8.12499 3.35625 8.21249 3.325C8.27499 3.29375 8.33749 3.2625 8.39374 3.21875C8.48124 3.1625 8.54374 3.15 8.63124 3.1C8.68749 3.0625 8.72499 3.0375 8.79374 3.00625L8.89999 2.9625C9.03124 2.91875 9.18749 2.9 9.24374 2.88125C9.29999 2.8625 9.51874 2.78125 9.54374 2.825C9.56874 2.86875 9.71249 2.83125 9.79999 2.75625L9.82499 2.83125L10.05 2.75625L10.25 2.7125H10.2812L10.3062 2.7875L10.4875 2.78125L10.55 2.7375C10.6375 2.75 10.7187 2.76875 10.8 2.79375C10.8812 2.75625 10.8312 2.7375 10.9062 2.66875C10.975 2.59375 11.025 2.50625 11.0562 2.4125C11.1687 2.4125 11.2812 2.4 11.3937 2.38125C11.6312 2.34375 11.3937 2.38125 11.6625 2.28125C11.9312 2.18125 11.8437 2.1 12.0875 2.125C12.2125 2.14375 12.3375 2.13125 12.4562 2.09375C12.5 2.05625 12.55 2.025 12.6062 1.99375C12.6562 1.96875 12.7062 1.9375 12.75 1.90625C12.75 1.90625 12.85 1.8875 12.8437 1.74375C12.8375 1.6 12.975 1.7875 12.9562 1.70625C13.0625 1.5 13.075 1.25625 12.9875 1.04375C12.9437 0.868747 12.825 0.918747 12.9187 0.737497C12.9687 0.643747 12.975 0.818747 13.1062 0.474997C13.1437 0.368747 13.1812 0.406247 13.0437 0.274997C12.9375 0.249997 12.8437 0.212497 12.75 0.168747C12.7062 0.087497 12.5562 0.193747 12.5812 0.0937469C12.3062 0.0624969 12.0312 0.0437469 11.7562 0.0437469L11.4625 0.0124969C11.2812 0.0124969 11.1 0.0249969 10.9187 0.0312469H10.825C10.575 0.112497 10.3125 0.143747 10.05 0.124997C10.05 0.124997 10.4062 -0.056253 9.83749 0.068747C9.51249 0.143747 9.19999 0.274997 8.91874 0.462497C8.54374 0.618747 8.15624 0.762497 7.76874 0.881247C7.43124 0.974997 7.11874 1.1375 6.84374 1.35625C6.39374 1.625 5.96874 1.925 5.55624 2.25625C5.46249 2.35 5.37499 2.4375 5.29374 2.525L5.24999 2.45625L5.22499 2.46875L5.04374 2.5875L4.86249 2.74375L4.81249 2.6875C4.75624 2.79375 4.63749 2.875 4.59374 2.84375C4.54999 2.8125 4.38124 2.9625 4.32499 3.00625C4.27499 3.05 4.13749 3.1125 4.03124 3.2L3.94374 3.28125C3.89374 3.33125 3.86874 3.375 3.82499 3.425C3.76874 3.5 3.70624 3.525 3.64374 3.60625C3.60624 3.66875 3.55624 3.71875 3.50624 3.76875C3.43124 3.83125 3.36249 3.90625 3.30624 3.9875C3.27499 4.05 3.38749 3.9375 3.36249 4.0375C3.33749 4.1375 3.33749 4.1375 3.28749 4.175C3.23749 4.2125 3.23749 4.13125 3.23749 4.13125L3.14374 4.21875L3.08124 4.35C3.03749 4.4375 2.98749 4.51875 2.93749 4.59375C2.87499 4.69375 2.81874 4.79375 2.76874 4.9L2.70624 5.0875C2.48124 5.3125 2.26874 5.55 2.06874 5.79375L2.13749 5.8375C1.96874 6.04375 1.81874 6.25625 1.66249 6.46875L1.60624 6.5375C1.54374 6.78125 1.45624 7.01875 1.34999 7.24375C1.34999 7.24375 1.38749 7.0875 1.33749 7.1125V7.11875L1.28124 7.2875C1.26249 7.375 1.24999 7.40625 1.22499 7.39375L1.19999 7.38125L1.16874 7.5C1.16874 7.55625 1.16249 7.61875 1.14999 7.675L1.08749 7.85L0.968738 8.21875C0.937488 8.25 0.912488 8.28125 0.893738 8.31875C0.843738 8.39375 0.893738 8.43125 0.893738 8.43125L0.987488 8.2875L0.781238 8.85625L0.681238 8.93125C0.681238 8.93125 0.656238 8.8625 0.637488 8.91875C0.606238 8.98125 0.593738 9.04375 0.606238 9.1125L0.631238 9.11875L0.668738 9.15625L0.512488 9.5875L0.443738 9.64375L0.374988 9.7625L0.299988 9.9625C0.274988 10 0.249988 10.0312 0.212488 10.0562L0.156238 10.2437L0.149988 10.3625L0.124988 10.4062L0.0937378 10.4875C0.0687378 10.5562 0.0937378 10.5875 0.112488 10.6H0.124988L0.187488 10.425C0.156238 10.6375 0.237488 10.775 0.212488 10.9937L0.162488 11.0625L0.137488 11.125C0.137488 11.125 0.0937378 11.0562 0.0874878 11.125C0.0749878 11.2 0.0812378 11.275 0.106238 11.3437H0.131238L0.149988 11.3562L0.181238 11.375C0.174988 11.525 0.218738 11.65 0.218738 11.8V11.875L0.324988 12.0625L0.306238 12.2125L0.449988 12.425C0.443738 12.4687 0.431238 12.5125 0.412488 12.5562C0.424988 12.6625 0.537488 12.7312 0.549988 12.7937L0.581238 12.9437C0.699988 12.9812 0.543738 13.075 0.643738 13.0625C0.643738 13.0625 0.643738 13.1812 0.881238 13.3687C1.11249 13.5562 1.14999 13.5 1.14999 13.5Z" fill="#0041E6"/>
<path d="M12.6562 5.3375L12.5937 5.325C12.45 5.40625 12.05 5.275 12.05 5.275C12.05 5.275 12.3125 5.15625 11.9062 5.18125C11.675 5.19375 11.45 5.275 11.2562 5.40625C11.0062 5.49375 10.75 5.55625 10.4937 5.5875C10.2625 5.6125 10.05 5.70625 9.86875 5.85625C9.58125 6.01875 9.3 6.2 9.0375 6.4L8.875 6.575L8.825 6.50625H8.80625L8.6875 6.5625L8.56875 6.65L8.525 6.5875C8.5 6.6625 8.41875 6.70625 8.38125 6.66875C8.34375 6.63125 8.23125 6.71875 8.2 6.7375C8.13125 6.7625 8.0625 6.79375 8 6.83125L7.94375 6.875C7.91875 6.9 7.89375 6.93125 7.86875 6.9625C7.83125 7.00625 7.79375 7.01875 7.75 7.06875C7.725 7.10625 7.7 7.1375 7.6625 7.1625C7.61875 7.19375 7.54375 7.24375 7.53125 7.28125C7.51875 7.31875 7.5875 7.2625 7.58125 7.3375C7.575 7.4125 7.575 7.4125 7.5375 7.43125C7.5 7.45 7.49375 7.3875 7.49375 7.3875L7.425 7.43125L7.39375 7.51875C7.36875 7.575 7.3375 7.625 7.30625 7.675C7.2625 7.7375 7.23125 7.80625 7.2 7.875L7.16875 8.01875C7 8.14375 6.84375 8.28125 6.69375 8.43125L6.7625 8.48125C6.64375 8.6125 6.525 8.74375 6.40625 8.8875L6.3625 8.93125C6.3375 9.10625 6.29375 9.275 6.225 9.4375C6.225 9.4375 6.2375 9.31875 6.19375 9.3375L6.1625 9.45625C6.1625 9.51875 6.15 9.54375 6.125 9.53125L6.1 9.51875L6.0875 9.60625C6.1 9.65 6.1 9.69375 6.1 9.73125L6.06875 9.85625L6.025 10.1188C6.00625 10.1375 5.9875 10.1625 5.96875 10.1875C5.95 10.2063 5.95625 10.2375 5.975 10.2563C5.98125 10.2563 5.98125 10.2625 5.9875 10.2625L6.05625 10.1688L5.9625 10.5438L5.88125 10.5875C5.88125 10.5875 5.84375 10.5438 5.83125 10.575C5.8125 10.6188 5.8125 10.6625 5.83125 10.7063L5.85625 10.7125L5.9 10.7375L5.81875 11.0313L5.75625 11.0688L5.70625 11.15L5.6625 11.2875C5.64375 11.3125 5.61875 11.3375 5.5875 11.3563L5.5625 11.4938L5.56875 11.575L5.55625 11.6063L5.5375 11.6625C5.525 11.6875 5.5375 11.725 5.5625 11.7375H5.56875H5.58125L5.625 11.6188C5.625 11.7688 5.71875 11.8563 5.725 12.0125L5.68125 12.0625L5.6625 12.0875C5.6625 12.0875 5.6125 12.05 5.6125 12.0875C5.60625 12.1375 5.625 12.1938 5.65625 12.2313H5.68125H5.7L5.73125 12.2375C5.7375 12.3375 5.8 12.4125 5.8125 12.5V12.55L5.93125 12.65L5.9125 12.7438L6.05625 12.85C6.05 12.8813 6.03125 12.9063 6.0125 12.9313C6.01875 12.9938 6.13125 13.0125 6.1375 13.05L6.15 13.1313C6.26875 13.1313 6.1 13.2125 6.2 13.1875C6.2 13.1875 6.1875 13.2563 6.375 13.3313C6.5625 13.4063 6.5875 13.3813 6.5875 13.3813C6.625 13.3938 6.66875 13.3938 6.70625 13.3875C6.8 13.3813 6.86875 13.3125 6.85 13.2313C6.825 13.1563 6.9875 13.1563 6.9875 13.1563C7.025 13.125 7.03125 13.0688 7.0125 13.025C6.98125 12.9375 7.13125 13.025 7.2125 13.0688C7.3 13.1125 7.45 13.0063 7.4875 12.9938C7.53125 12.9813 7.825 12.9688 7.825 12.8688C7.825 12.8063 7.80625 12.7375 7.775 12.6875C7.775 12.6875 7.98125 12.6625 7.9875 12.5375L8 12.4188L8.01875 11.9875L7.9875 11.9188C7.95625 11.825 8.18125 11.8 8.18125 11.8L8.14375 11.75C8.15 11.7313 8.15625 11.7188 8.1625 11.7C8.1625 11.7 8.2125 11.725 8.225 11.7C8.2375 11.675 8.2375 11.675 8.19375 11.6375C8.15 11.6 8.1375 11.6563 8.11875 11.6313C8.1 11.6 8.11875 11.5438 8.13125 11.5125C8.1375 11.4813 8.1375 11.45 8.13125 11.4188C8.13125 11.3688 8.15625 11.3438 8.15625 11.3C8.15625 11.2688 8.15625 11.2375 8.15625 11.2063L8.175 11.15C8.20625 11.1 8.24375 11.05 8.28125 11C8.29375 10.9688 8.33125 10.8688 8.38125 10.8813C8.43125 10.8938 8.46875 10.8375 8.45 10.775L8.51875 10.8063L8.5625 10.7063L8.61875 10.6313L8.63125 10.625L8.7 10.6563L8.775 10.6063V10.5688C8.825 10.55 8.88125 10.5375 8.9375 10.5313L9.0125 10.5625C8.975 10.4688 8.9625 10.3625 8.9625 10.2625C8.96875 10.2063 8.9875 10.15 9.00625 10.1L9.025 10.0563C9.0375 10.025 9.05 9.99375 9.05625 9.9625L9.06875 9.8875L9.11875 9.85C9.11875 9.85 9.13125 9.8875 9.15 9.8875H9.1625C9.16875 9.8875 9.1875 9.875 9.1875 9.8625C9.1875 9.84375 9.1875 9.825 9.1875 9.80625C9.18125 9.7375 9.125 9.79375 9.13125 9.75625C9.1375 9.71875 9.2 9.66875 9.23125 9.6375C9.25625 9.6125 9.28125 9.58125 9.3 9.55C9.33125 9.50625 9.36875 9.49375 9.39375 9.45625C9.4125 9.425 9.43125 9.4 9.45 9.375L9.5 9.33125C9.55 9.3 9.6 9.275 9.65 9.25625L9.675 9.24375C9.7 9.225 9.76875 9.16875 9.8125 9.16875L9.8375 9.08125C9.86875 9.025 9.9 8.96875 9.94375 8.91875C9.98125 8.88125 10.0125 8.8375 10.0375 8.7875L10.0687 8.7125L10.1312 8.68125C10.1312 8.68125 10.1312 8.74375 10.1687 8.73125C10.2062 8.71875 10.2 8.71875 10.2125 8.65625C10.225 8.5875 10.15 8.63125 10.1687 8.59375L10.175 8.58125C10.2062 8.54375 10.25 8.51875 10.2937 8.5C10.325 8.48125 10.3562 8.45625 10.3812 8.425C10.4187 8.3875 10.4562 8.3875 10.5 8.35C10.525 8.325 10.5437 8.30625 10.575 8.28125H10.5812L10.5937 8.26875C10.6312 8.2375 10.6687 8.2 10.7 8.15625L10.7437 8.0875L10.8125 8.06875C10.8125 8.06875 10.8062 8.13125 10.8437 8.125C10.8812 8.11875 10.875 8.125 10.9 8.05625C10.9187 7.9875 10.8437 8.025 10.8687 7.9875C10.9062 7.95 10.9562 7.93125 11.0062 7.91875C11.0437 7.90625 11.075 7.8875 11.1 7.8625C11.1437 7.83125 11.1812 7.8375 11.2187 7.8125C11.2437 7.79375 11.275 7.775 11.3 7.7625L11.3562 7.74375C11.4312 7.73125 11.5187 7.74375 11.55 7.74375C11.5812 7.74375 11.7 7.70625 11.7187 7.75625C11.7375 7.80625 11.8125 7.8 11.8562 7.74375L11.8875 7.825L12 7.8H12.1L12.1125 7.80625L12.125 7.8875L12.2062 7.91875L12.2375 7.89375C12.275 7.925 12.3125 7.9625 12.35 8C12.3875 7.98125 12.3625 7.95 12.4 7.9C12.4375 7.83125 12.4625 7.75625 12.475 7.675C12.525 7.69375 12.575 7.70625 12.6312 7.70625C12.75 7.70625 12.6312 7.70625 12.7687 7.65625C12.9062 7.60625 12.8875 7.5125 13.0062 7.56875C13.0687 7.60625 13.1375 7.6125 13.2062 7.5875C13.2375 7.55625 13.2687 7.53125 13.3062 7.50625C13.3437 7.4875 13.375 7.4625 13.4062 7.43125C13.4062 7.43125 13.4687 7.425 13.4937 7.28125C13.5187 7.1375 13.5625 7.3375 13.5687 7.25C13.6687 7.05 13.7187 6.825 13.7125 6.6C13.725 6.425 13.6437 6.4625 13.7312 6.29375C13.7812 6.20625 13.75 6.375 13.8875 6.05C13.9312 5.95 13.9437 5.9875 13.8875 5.85C13.8375 5.80625 13.7875 5.7625 13.75 5.7125C13.7375 5.63125 13.6312 5.7125 13.6687 5.61875C13.5125 5.55 13.35 5.49375 13.1875 5.45L13.0125 5.375C12.8937 5.3875 12.775 5.3625 12.6562 5.3375Z" fill="#0041E6"/>
</g>
<defs>
<clipPath id="clip0_7664_50150">
<rect width="32" height="32" fill="white"/>
</clipPath>
</defs>
</svg>
