<svg width="32" height="32" viewBox="0 0 32 32" fill="none" xmlns="http://www.w3.org/2000/svg">
<g clip-path="url(#clip0_7664_50186)">
<path d="M31.9812 2.83749C32 2.74374 32.0125 2.77499 31.95 2.66249C31.9 2.63749 31.8562 2.59999 31.8187 2.56249C31.8 2.49374 31.7312 2.58124 31.7437 2.49374C31.625 2.46249 31.5 2.43124 31.3687 2.40624L31.2375 2.34999L30.9875 2.29374L30.9437 2.28749C30.8375 2.36249 30.5875 2.21249 30.5875 2.21249C30.5875 2.21249 30.7625 2.13749 30.5 2.11249C30.3437 2.09999 30.1812 2.12499 30.0375 2.19374C29.8437 2.20624 29.6562 2.18749 29.4687 2.13749C29.4062 2.11874 29.3437 2.10624 29.2812 2.09999C29.1937 2.09374 29.1 2.09374 29.0125 2.09999C28.925 2.10624 28.8375 2.11874 28.75 2.14374C28.3062 2.18749 27.8937 2.38124 27.5687 2.68124C27.5 2.76249 27.4312 2.84999 27.375 2.93749L27.3312 2.88749L27.3125 2.89999L27.175 3.01874L27.0937 3.11249L27.0437 3.06249C27.0437 3.12499 26.9812 3.16874 26.9437 3.13749C26.9062 3.10624 26.8375 3.18749 26.8125 3.20624C26.7875 3.22499 26.7187 3.24999 26.6625 3.29374L26.625 3.33124C26.6062 3.35624 26.5937 3.38124 26.5812 3.40624C26.5562 3.44374 26.525 3.45624 26.5 3.49374C26.4875 3.52499 26.4687 3.54999 26.4437 3.57499C26.4125 3.59999 26.3562 3.63749 26.35 3.68124C26.3437 3.71874 26.4 3.66249 26.4 3.72499C26.4 3.78749 26.4 3.78749 26.375 3.79999C26.35 3.81249 26.3312 3.76249 26.3312 3.76249L26.2812 3.79999L26.2625 3.86874C26.25 3.91249 26.2312 3.95624 26.2062 3.99374C26.1812 4.04374 26.1562 4.09374 26.1375 4.14999L26.1187 4.25624C25.9937 4.33749 25.875 4.42499 25.7437 4.51874L25.8125 4.56249L25.5187 4.79999L25.4812 4.81874C25.45 4.93749 25.4 5.04999 25.325 5.14999C25.325 5.14999 25.35 5.06874 25.3125 5.06874L25.275 5.14999C25.2625 5.19374 25.2562 5.20624 25.2375 5.19374L25.2187 5.17499L25.1937 5.23124C25.1937 5.26249 25.1937 5.29374 25.1812 5.32499L25.1312 5.39999L25.0437 5.56249C25.025 5.56874 25.0062 5.57499 24.9875 5.58749C24.95 5.60624 24.9875 5.64999 24.9875 5.64999L25.0625 5.61249C25.0062 5.68749 24.95 5.76249 24.8875 5.83124L24.8125 5.82499C24.8125 5.82499 24.8 5.78124 24.7812 5.79374C24.7562 5.81249 24.7437 5.84999 24.7437 5.88124L24.7625 5.89374L24.7875 5.93124L24.6312 6.07499L24.575 6.06874L24.5125 6.09374L24.4312 6.14999C24.4062 6.15624 24.3812 6.15624 24.3562 6.14999L24.2875 6.20624L24.2687 6.23749L23.5062 6.15624L23.1625 6.09374L22.5125 6.03124L22.4062 6.01874C22.0937 6.04374 21.775 6.01874 21.4687 5.93749C21.4687 5.93749 21.9312 5.86249 21.2437 5.83124C20.8437 5.81249 20.4375 5.84374 20.0375 5.91249C19.5437 5.92499 19.0437 5.91249 18.55 5.86249C18.1312 5.81249 17.7062 5.81249 17.2937 5.86249L15.4 5.91249L14.9437 5.96249V5.89999L14.9125 5.89374L14.65 5.87499H14.3562V5.80624C14.225 5.84999 14.0437 5.83124 14.0312 5.78749C14.0187 5.74374 13.7375 5.74374 13.6625 5.73749C13.5875 5.73124 13.4062 5.69999 13.2375 5.68749H13.0937L12.8687 5.70624C12.7562 5.71874 12.6812 5.69999 12.55 5.70624C12.4625 5.71874 12.3812 5.71874 12.2937 5.71874C12.175 5.70624 12.0562 5.70624 11.9375 5.71874C11.8562 5.73749 12.05 5.74374 11.9375 5.78749C11.825 5.83124 11.825 5.83124 11.75 5.82499C11.675 5.81874 11.75 5.76874 11.75 5.76874L11.5937 5.75624L11.425 5.79374C11.3125 5.81874 11.1937 5.83124 11.0812 5.83749C10.9062 5.85624 10.75 5.88124 10.6562 5.89374L10.425 5.94999L9.26874 5.87499V5.94999L8.29374 5.90624L8.18749 5.89999C7.88749 5.96874 7.57499 6.00624 7.26874 6.02499C7.26874 6.02499 7.46249 5.98749 7.40624 5.95624H7.39374L7.18124 5.98749C7.07499 6.01249 7.03124 6.01874 7.03124 5.98749V5.96874L6.88124 5.99374C6.81249 6.01874 6.74999 6.03749 6.68124 6.05624L6.44374 6.07499L5.96874 6.12499C5.91874 6.11249 5.86874 6.10624 5.81874 6.09999C5.71249 6.08749 5.69999 6.14374 5.69999 6.14374L5.90624 6.16874L5.18124 6.20624L5.05624 6.14999C5.05624 6.14999 5.11874 6.10624 5.05624 6.10624C4.97499 6.09999 4.89999 6.11249 4.82499 6.14374V6.16249L4.79374 6.20624H4.24374L4.14999 6.15624L3.99999 6.12499L3.75624 6.11249C3.71249 6.09999 3.66874 6.08124 3.63124 6.05624L3.40624 6.04999L3.27499 6.06874L3.21874 6.05624L3.12499 6.04374C3.04374 6.03749 3.01874 6.06249 3.00624 6.08124V6.09374L3.21249 6.11874C2.97499 6.13749 2.83749 6.22499 2.58749 6.23124L2.49999 6.18124L2.45624 6.16249C2.45624 6.16249 2.52499 6.11874 2.45624 6.11874C2.37499 6.11249 2.29999 6.12499 2.22499 6.15624V6.18124L2.21249 6.19999L2.19374 6.22499C2.03749 6.22499 1.89999 6.28124 1.74374 6.27499H1.66249C1.56249 6.32499 1.45624 6.36249 1.34374 6.38124C1.18749 6.39374 1.03124 6.42499 0.887494 6.48749C0.687494 6.61874 0.518744 6.79999 0.412494 7.01874C0.324994 7.00624 0.149994 6.98749 0.143744 7.08124C0.137494 7.15624 0.149994 7.23749 0.187494 7.30624V7.31249C0.168744 7.31249 -6.10342e-06 7.29999 -6.10342e-06 7.44999V7.61249C0.0062439 7.83749 0.0312439 8.06249 0.0687439 8.28124L0.118744 8.39374V8.40624C0.168744 8.54374 -0.0062561 8.63124 -0.0062561 8.63124L0.0499939 8.71874L0.0624939 8.80624C0.0624939 8.80624 0.0062439 8.77499 0.0062439 8.81874C0.0062439 8.86249 0.0062439 8.86249 0.0624939 8.91874C0.118744 8.97499 0.0999939 8.86249 0.131244 8.90624C0.156244 8.96874 0.174994 9.03749 0.181244 9.10624C0.187494 9.15624 0.206244 9.19999 0.224994 9.24374C0.249994 9.30624 0.243744 9.35624 0.268744 9.41874C0.287494 9.46249 0.299994 9.49374 0.312494 9.53749L0.331244 9.61874C0.343744 9.71249 0.331244 9.82499 0.337494 9.86249C0.343744 9.89999 0.381244 10.0625 0.337494 10.0812C0.293744 10.1 0.299994 10.2 0.362494 10.2625L0.293744 10.2812L0.331244 10.4437L0.349994 10.5937V10.6125L0.287494 10.625L0.281244 10.75L0.312494 10.8C0.293744 10.8687 0.274994 10.9312 0.243744 10.9937L0.181244 11.0312C0.281244 11.125 0.368744 11.2312 0.443744 11.35C0.481244 11.425 0.518744 11.4937 0.549994 11.575L0.574994 11.6375C0.593744 11.6812 0.612494 11.7187 0.637494 11.7562L0.693744 11.8437L0.706244 11.9312C0.706244 11.9312 0.668744 11.9125 0.656244 11.9312C0.649994 11.9375 0.649994 11.9437 0.649994 11.95C0.649994 11.9687 0.649994 11.9812 0.656244 12C0.668744 12.0187 0.687494 12.0375 0.706244 12.05C0.762494 12.1 0.743744 11.9937 0.774994 12.0312C0.806244 12.0937 0.818744 12.1625 0.824994 12.2312C0.831244 12.2812 0.849994 12.325 0.868744 12.3687C0.893744 12.4312 0.887494 12.4812 0.912494 12.5437C0.931244 12.5812 0.943744 12.625 0.962494 12.6625L0.981244 12.7437C0.987494 12.8187 0.981244 12.9 0.987494 12.9562V12.9937C0.999994 13.0562 1.00624 13.125 0.999994 13.1875L1.06249 13.275C1.09999 13.35 1.13749 13.4187 1.16874 13.5C1.19374 13.5625 1.21874 13.625 1.25624 13.6812L1.31249 13.7687L1.32499 13.8562C1.32499 13.8562 1.26874 13.825 1.26874 13.8687C1.26874 13.9125 1.26874 13.9125 1.32499 13.9687C1.38124 14.0187 1.36249 13.9125 1.39374 13.9562L1.39999 13.975C1.42499 14.0312 1.43749 14.0937 1.44374 14.1562C1.44999 14.2062 1.46874 14.25 1.48749 14.2937C1.51249 14.3562 1.50624 14.4062 1.53124 14.4687C1.54999 14.5062 1.56249 14.55 1.57499 14.5875V14.6L1.58124 14.6187C1.60624 14.6812 1.63124 14.7437 1.66874 14.8L1.72499 14.8875L1.73749 14.975C1.73749 14.975 1.68124 14.9437 1.68124 14.9875C1.68124 15.0312 1.68124 15.0312 1.73749 15.0875C1.79374 15.1375 1.77499 15.0312 1.80624 15.0687C1.83749 15.1312 1.84999 15.2 1.85624 15.2687C1.86249 15.3187 1.88124 15.3625 1.89999 15.4062C1.92499 15.475 1.91874 15.5187 1.94374 15.5812C1.96249 15.6187 1.97499 15.6625 1.98749 15.7062L2.00624 15.7875C2.01874 15.8812 2.00624 15.9937 2.01249 16.0312C2.01874 16.075 2.05624 16.2312 2.01249 16.25C1.96874 16.2687 1.98124 16.3687 2.03749 16.4312L1.96874 16.45L2.00624 16.6125L2.02499 16.7625V16.7812L1.95624 16.8V16.9312L1.98749 16.9812C1.96874 17.0437 1.94999 17.1062 1.92499 17.1687C1.95624 17.2312 1.97499 17.1875 2.03124 17.2437C2.09999 17.2937 2.17499 17.325 2.25624 17.3375C2.24999 17.4187 2.26249 17.5 2.28749 17.575C2.33124 17.7437 2.28749 17.575 2.38124 17.7562C2.47499 17.9375 2.54999 17.8625 2.55624 18.0437C2.54999 18.1312 2.58124 18.225 2.63124 18.3C2.66874 18.325 2.70624 18.3562 2.73749 18.3875C2.76874 18.4187 2.80624 18.45 2.84374 18.4687C2.87499 18.4875 2.90624 18.4937 2.93749 18.4937C2.95624 18.5562 2.96874 18.6187 2.99374 18.6875C3.17499 19.2312 3.52499 19.7 3.98749 20.025C4.09374 20.0812 4.19999 20.1312 4.31249 20.1687C4.70624 20.3062 4.76249 20.5 4.76249 20.5C4.84374 20.5062 4.93124 20.5125 5.01249 20.5125L5.22499 20.55C5.22499 20.55 5.12499 20.5875 5.22499 20.6062C5.30624 20.625 5.30624 20.625 5.41874 20.5875C5.53749 20.55 5.33749 20.5312 5.42499 20.5187C5.54374 20.5125 5.66874 20.525 5.78749 20.5437C5.87499 20.5562 5.96249 20.5562 6.04999 20.5562L6.36874 20.5812H6.59999L6.74374 20.5937L7.16874 20.6812C7.24999 20.6937 7.53124 20.7125 7.53749 20.7625C7.54374 20.8125 7.72499 20.8375 7.86874 20.8062L7.86249 20.875L8.15624 20.8937L8.41874 20.9312L8.44999 20.9437L8.43749 21L8.66249 21.0562L8.76874 21.0437C8.87499 21.0875 8.98124 21.1312 9.07499 21.175L9.10624 21.25C9.33124 21.1937 9.55624 21.1437 9.78749 21.1187C9.88124 21.1125 10.0375 21.1 10.225 21.1H10.3437L10.575 21.0875L10.75 21.0687L10.9062 21.0937C10.9062 21.0937 10.8562 21.1187 10.875 21.1375C10.8812 21.1437 10.8875 21.15 10.9 21.15C10.925 21.1562 10.9562 21.1625 10.9812 21.1625C11.0187 21.1562 11.0562 21.1437 11.0937 21.1312C11.2125 21.0937 11.0125 21.075 11.1 21.0625C11.225 21.0562 11.3437 21.0687 11.4625 21.0875C11.55 21.1 11.6375 21.1 11.725 21.1L12.0437 21.125H12.275L12.4187 21.1375C12.55 21.1562 12.6875 21.1875 12.7812 21.2125L12.8437 21.225C12.9625 21.2312 13.075 21.25 13.1875 21.2812L13.3687 21.25C13.4625 21.2437 13.6187 21.2312 13.8062 21.2312C13.925 21.2312 14.0437 21.2312 14.1625 21.2187L14.3375 21.2L14.4937 21.225C14.4937 21.225 14.4062 21.2625 14.4875 21.2812C14.5687 21.3 14.5687 21.3 14.6812 21.2625C14.8 21.225 14.6 21.2062 14.6875 21.1937H14.7187C14.8312 21.1937 14.9375 21.2062 15.05 21.2187C15.1375 21.2312 15.225 21.2312 15.3125 21.2312L15.6312 21.2562H15.8625H15.8875H15.925C16.0437 21.2562 16.1625 21.2562 16.2812 21.2437L16.4562 21.225L16.6125 21.25C16.6125 21.25 16.525 21.2875 16.6125 21.3062C16.7 21.325 16.6937 21.325 16.8062 21.2875C16.925 21.25 16.725 21.2312 16.8062 21.2187C16.9312 21.2125 17.05 21.225 17.1687 21.2437C17.2562 21.2562 17.3437 21.2562 17.4312 21.2562L17.75 21.2812H17.9812L18.125 21.2937L18.55 21.3812C18.6312 21.3937 18.9125 21.4125 18.9187 21.4625C18.925 21.5062 19.1062 21.5375 19.2437 21.5062L19.2375 21.575L19.5312 21.5937L19.7937 21.6312L19.825 21.6437L19.8187 21.7187L20.0437 21.775L20.1437 21.7625C20.25 21.8062 20.35 21.85 20.4375 21.8875C20.5562 21.8875 20.4937 21.85 20.6125 21.8125C20.7187 21.775 20.8062 21.7125 20.8875 21.6375C21.025 21.6687 21.1687 21.6875 21.3125 21.6937C21.625 21.7187 21.3125 21.6937 21.675 21.6687C21.9937 21.65 21.975 21.5812 22.1687 21.6L22.175 21.6125L22.2375 21.6687C22.3125 21.7312 22.1625 21.8687 22.1625 21.8687L22.225 21.8937L22.2437 21.9375C22.2437 21.9375 22.1937 21.95 22.2 21.975C22.2062 22 22.2 22 22.2562 22C22.3125 22 22.2812 21.95 22.3125 21.9562C22.3437 21.9625 22.3625 22.0062 22.3687 22.0312C22.375 22.05 22.3937 22.0562 22.4125 22.0687C22.4375 22.0812 22.4312 22.1062 22.45 22.1187C22.4625 22.125 22.4812 22.1375 22.4937 22.15L22.5062 22.175C22.5125 22.2125 22.5125 22.2437 22.5125 22.2812C22.5187 22.3 22.55 22.3437 22.5125 22.375C22.475 22.4062 22.4812 22.4437 22.5312 22.4437L22.475 22.4812L22.5062 22.5312L22.5187 22.5875V22.6L22.4625 22.6375L22.4562 22.6937L22.4812 22.7C22.4625 22.7375 22.4437 22.775 22.4187 22.8125L22.3625 22.8562C22.4375 22.85 22.5125 22.8562 22.5875 22.875C22.6187 22.8875 22.65 22.9062 22.675 22.925L22.7 22.9437C22.7125 22.9562 22.7312 22.9625 22.75 22.975L22.8 22.9937V23.0312C22.7812 23.0312 22.7687 23.0375 22.7562 23.05L22.75 23.0625V23.0812H22.7937C22.8437 23.0812 22.8312 23.0437 22.85 23.05C22.875 23.0562 22.8812 23.1 22.8875 23.1187C22.8937 23.1437 22.9 23.1437 22.925 23.1625C22.95 23.1812 22.9375 23.2062 22.9562 23.225L22.9937 23.2625L23.0062 23.2937C23.0125 23.325 23.0125 23.3562 23.0062 23.3875V23.4062C23.0062 23.425 23.0312 23.4625 23.0125 23.4937L23.0687 23.5125C23.1 23.5312 23.1312 23.5562 23.1625 23.5812C23.1812 23.6062 23.2062 23.625 23.2375 23.6375L23.2875 23.6625L23.2937 23.7C23.2937 23.7 23.2437 23.7 23.2437 23.725C23.2437 23.75 23.2437 23.75 23.2937 23.75C23.3437 23.7562 23.3312 23.7125 23.3562 23.7187H23.3625C23.3812 23.7375 23.3875 23.7625 23.3937 23.7875L23.0687 23.7562L22.9812 23.7437C22.9187 23.7625 22.85 23.7687 22.7875 23.7625L22.6 23.6937L22.5125 23.7L22.2687 23.5687C22.225 23.5687 22.2125 23.5812 22.2 23.5937C22.1562 23.5937 22.0937 23.5812 22.0187 23.5812C21.6875 23.5687 21.35 23.5937 21.025 23.6625C20.6125 23.6812 20.2062 23.6625 19.8 23.6125C19.4562 23.5625 19.1062 23.5562 18.7625 23.6062L17.2 23.6375C17.0687 23.65 16.9437 23.6687 16.825 23.6875V23.6187L16.8 23.6125L16.5875 23.5937H16.35V23.5C16.2375 23.5375 16.0937 23.525 16.0812 23.475C16.0687 23.4312 15.85 23.4187 15.7875 23.4187C15.725 23.4187 15.575 23.375 15.4375 23.3625H15.3187C15.2437 23.3625 15.2 23.3687 15.1312 23.375C15.0375 23.3812 14.975 23.3625 14.875 23.375C14.8062 23.3875 14.7312 23.3875 14.6625 23.3812C14.5625 23.3687 14.4687 23.3687 14.3687 23.3812C14.3 23.4 14.4625 23.4062 14.3687 23.45C14.275 23.4937 14.275 23.4937 14.2125 23.4812C14.15 23.4687 14.2125 23.425 14.2125 23.425C14.2125 23.425 14.1687 23.4187 14.0812 23.4125L13.9437 23.4437C13.85 23.4625 13.7562 23.475 13.6562 23.4812C13.5125 23.4937 13.3812 23.5187 13.3062 23.5312C13.2312 23.5437 13.175 23.5687 13.1125 23.5875C12.8062 23.55 12.4875 23.5125 12.15 23.4812V23.5562L11.35 23.4937L11.2625 23.4812C11.0125 23.5375 10.7562 23.575 10.5 23.5875C10.5 23.5875 10.6625 23.5562 10.6125 23.525H10.6062L10.425 23.55C10.3312 23.5687 10.3 23.575 10.3 23.55V23.525L10.175 23.5437C10.1187 23.5687 10.0625 23.5875 10.0062 23.6L9.81874 23.6125L9.43749 23.65L9.39374 23.6187H9.37499C9.35624 23.6187 9.34374 23.6125 9.31249 23.6062C9.29999 23.6062 9.29999 23.6062 9.28749 23.6062L9.06874 23.4937C8.96249 23.5 9.01874 23.5312 8.91874 23.575C8.86249 23.6 8.80624 23.6375 8.76874 23.6875L8.66874 23.6312C8.66874 23.6312 8.72499 23.5875 8.66874 23.5875C8.60624 23.5812 8.53749 23.5875 8.47499 23.6187V23.6375L8.44999 23.6812C8.29374 23.6812 8.14374 23.6687 7.99999 23.6625L7.92499 23.6125L7.79999 23.5812L7.59999 23.5562C7.56249 23.5437 7.53124 23.525 7.49999 23.5C7.42499 23.4937 7.36249 23.4875 7.31249 23.4875L7.20624 23.5C7.20624 23.5 7.19374 23.5 7.16249 23.4875L7.08124 23.4687C7.01249 23.4562 6.99374 23.4875 6.98124 23.5V23.5062L7.14999 23.5375C6.94999 23.5437 6.83749 23.625 6.63124 23.625L6.56249 23.5812L6.53124 23.5625C6.53124 23.5625 6.58749 23.525 6.53124 23.5187C6.46874 23.5125 6.39999 23.5187 6.33749 23.55V23.5687L6.32499 23.5875L6.31249 23.6125C6.18124 23.6125 6.06874 23.6562 5.94374 23.65C5.91874 23.65 5.89999 23.65 5.87499 23.65L5.70624 23.7375L5.58124 23.7062L5.38124 23.8125C5.34374 23.8 5.30624 23.7812 5.27499 23.7562C5.18749 23.75 5.10624 23.8375 5.05624 23.8312L4.93124 23.8187C4.87499 23.9125 4.83749 23.75 4.82499 23.8437C4.82499 23.8437 4.73124 23.8125 4.51249 23.9437C4.29374 24.075 4.29999 24.1062 4.29999 24.1062C4.29999 24.1062 4.26874 24.1187 4.21249 24.2C4.15624 24.2812 4.22499 24.3625 4.36874 24.3687C4.51249 24.375 4.40624 24.5125 4.40624 24.5125C4.40624 24.5125 4.43749 24.575 4.61874 24.575C4.79999 24.575 4.55624 24.675 4.40624 24.7312C4.26249 24.7812 4.34999 24.9437 4.34374 24.9875C4.33749 25.0312 4.11874 25.275 4.31874 25.3125C4.45624 25.3375 4.59999 25.3437 4.74374 25.325C4.74374 25.325 4.63749 25.5062 4.90624 25.55L5.18124 25.5937C5.45624 25.6312 5.81249 25.6562 6.15624 25.6812C6.14374 25.7187 6.13124 25.7562 6.12499 25.7875L6.11874 25.9875C6.12499 26.1125 6.03749 26.225 5.91874 26.25L5.94374 26.3812L5.92499 26.4937C5.92499 26.4937 5.88124 26.4375 5.86874 26.4937C5.85624 26.55 5.85624 26.55 5.89999 26.6375C5.94374 26.725 5.94999 26.575 5.96874 26.6375C5.98124 26.7312 5.98124 26.825 5.97499 26.9125C5.97499 26.9812 5.98124 27.0562 5.99999 27.125C6.01874 27.2312 6.01249 27.2937 6.03749 27.3937L6.09374 27.5875L6.12499 27.7187C6.14999 27.8562 6.18124 27.9937 6.21874 28.125C6.24374 28.2 6.39374 28.4625 6.36249 28.4937C6.33749 28.525 6.42499 28.7062 6.55624 28.7812L6.50624 28.825C6.57499 28.9062 6.64374 28.9812 6.72499 29.05C6.78749 29.1187 6.85624 29.175 6.91874 29.2437L6.94374 29.2687L6.90624 29.325L7.08124 29.4937L7.18124 29.5312L7.42499 29.7812L7.43124 29.8625C7.64999 29.8875 7.88749 29.9062 8.14999 29.9062C8.24374 29.9125 8.40624 29.9187 8.59374 29.9187H8.71249C8.79374 29.9187 8.87499 29.9062 8.94999 29.8875L9.11874 29.8437L9.28124 29.8375C9.28124 29.8375 9.23749 29.875 9.26249 29.8875C9.26874 29.8875 9.27499 29.8875 9.28124 29.8812C9.31249 29.8812 9.34374 29.8812 9.36874 29.8687C9.40624 29.85 9.44374 29.8312 9.47499 29.8125C9.58124 29.7437 9.38124 29.7812 9.46249 29.7437C9.54374 29.7062 9.71249 29.6687 9.81249 29.6375C9.89374 29.6125 9.96874 29.575 10.0437 29.5312C10.15 29.4687 10.225 29.45 10.3187 29.3875L10.4937 29.2562L10.6062 29.1812L10.9 29L10.95 28.9625C11 28.925 11.1312 28.7875 11.2 28.75L11.275 28.6L11.4625 28.25C11.5187 28.1562 11.5562 28.0562 11.5812 27.9562L11.6125 27.8125L11.6812 27.6875C11.6812 27.6875 11.6937 27.7687 11.7312 27.7062C11.7687 27.6437 11.7687 27.6437 11.7625 27.5312C11.7562 27.4187 11.6875 27.5875 11.7 27.5062L11.7062 27.475C11.7187 27.3937 11.7687 27.275 11.7937 27.1937C11.8125 27.1187 11.8312 27.0437 11.8312 26.9625C11.85 26.8687 11.8625 26.775 11.8687 26.6812L11.8625 26.4687V26.45V26.4187C11.8562 26.3062 11.8375 26.1937 11.8 26.0875C11.8937 26.075 12.025 26.0562 12.1812 26.0437L12.3 26.0312C12.4687 26.0125 12.5312 26 12.5312 26L12.7 25.9687C12.8062 25.975 12.8562 25.9812 12.8562 25.9812C12.8562 25.9812 12.8062 26.0125 12.8312 26.025C12.8375 26.0312 12.85 26.0375 12.8562 26.0375C12.8812 26.0437 12.9125 26.0437 12.9375 26.0375C12.975 26.0312 13.0062 26.0187 13.0437 26C13.1562 25.9562 12.9625 25.95 13.0437 25.9312C13.1625 25.9187 13.2812 25.9187 13.4062 25.9312C13.4937 25.9375 13.5812 25.9312 13.6625 25.925C13.7875 25.9187 13.8625 25.9375 13.9812 25.925C14.0625 25.9187 14.1187 25.9125 14.2062 25.9125H14.35C14.4812 25.925 14.6187 25.95 14.7125 25.9625L14.775 25.9687C14.8875 25.9687 15 25.9812 15.1125 26.0062C15.1687 25.9937 15.225 25.9812 15.2875 25.9687C15.3812 25.9562 15.5375 25.9312 15.7125 25.9187C15.8312 25.9125 15.9437 25.9 16.0625 25.8812L16.2312 25.85C16.3312 25.8562 16.3875 25.8625 16.3875 25.8625C16.3875 25.8625 16.3062 25.9062 16.3875 25.9187C16.4687 25.9312 16.4687 25.9312 16.5812 25.8875C16.6937 25.8437 16.5 25.8375 16.5812 25.8187H16.6125C16.7187 25.8125 16.8312 25.8125 16.9375 25.8187C17.025 25.825 17.1125 25.8187 17.1937 25.8125C17.3187 25.8062 17.3937 25.825 17.5125 25.8125C17.5937 25.8062 17.65 25.8 17.7437 25.7937H17.7625H17.8C17.9187 25.7875 18.0312 25.775 18.15 25.7562L18.3187 25.725C18.425 25.7312 18.475 25.7375 18.475 25.7375C18.475 25.7375 18.3937 25.7812 18.475 25.7937C18.5562 25.8062 18.5562 25.8062 18.6687 25.7625C18.7812 25.7187 18.5875 25.7125 18.6687 25.6937C18.7875 25.6812 18.9062 25.6812 19.0312 25.6937C19.1187 25.7 19.2062 25.6937 19.2875 25.6875H19.3937C19.3875 25.7187 19.3687 25.75 19.3625 25.7812L19.3562 25.975C19.3562 26.1 19.275 26.2062 19.1562 26.2375L19.1875 26.3687L19.1687 26.4812C19.1687 26.4812 19.125 26.425 19.1125 26.4812C19.1 26.5375 19.1 26.5375 19.1437 26.625C19.1875 26.7125 19.1937 26.5625 19.2125 26.625C19.225 26.7187 19.225 26.8062 19.2187 26.9C19.2187 26.9687 19.225 27.0437 19.2437 27.1125C19.2625 27.2187 19.2562 27.2812 19.2812 27.375L19.3375 27.5687L19.3687 27.7C19.3937 27.8375 19.425 27.9687 19.4625 28.1062C19.4875 28.1812 19.6312 28.4375 19.6062 28.4687C19.5812 28.5 19.6687 28.6812 19.7937 28.7562L19.7437 28.8C19.8125 28.8812 19.8812 28.9562 19.9562 29.025C20.0187 29.0937 20.0875 29.15 20.15 29.2125L20.175 29.2375L20.1375 29.2937L20.3125 29.4625L20.4125 29.5L20.65 29.75L20.6562 29.8312C20.875 29.8562 21.1125 29.8687 21.3687 29.875C21.4625 29.8812 21.625 29.8875 21.8062 29.8875H21.925C22.0062 29.8875 22.0875 29.875 22.1625 29.8562L22.3312 29.8125L22.4937 29.8062C22.4937 29.8062 22.45 29.8437 22.475 29.8562C22.4812 29.8625 22.4937 29.8625 22.5 29.8625C22.5312 29.8625 22.5625 29.8625 22.5875 29.85C22.625 29.8312 22.6625 29.8125 22.6937 29.7875C22.8 29.7187 22.6 29.7562 22.675 29.7187C22.75 29.6812 22.925 29.6437 23.025 29.6125C23.1062 29.5875 23.1812 29.55 23.2562 29.5062C23.3625 29.4437 23.4375 29.4312 23.525 29.3625L23.7 29.2312L23.8125 29.1562L24.1062 28.975L24.1562 28.9375C24.2375 28.8625 24.3187 28.7937 24.4 28.725L24.4687 28.575L24.65 28.2312C24.7062 28.1375 24.7437 28.0437 24.7687 27.9375L24.8062 27.7875L24.875 27.6625C24.875 27.6625 24.8875 27.7437 24.925 27.6875C24.9625 27.6312 24.9625 27.625 24.9562 27.5125C24.95 27.4 24.8812 27.5625 24.8937 27.4875L24.9 27.4625C24.9187 27.3812 24.9625 27.2625 24.9875 27.1875C25.0062 27.1125 25.025 27.0375 25.025 26.9625C25.0375 26.8562 25.0625 26.7875 25.0625 26.6812L25.0562 26.4687V26.45V26.4187C25.05 26.3062 25.0312 26.1937 24.9937 26.0875L24.9312 25.925L24.9062 25.7687C24.9062 25.7687 24.9687 25.8312 24.9625 25.75C24.95 25.6687 24.95 25.6687 24.875 25.575C24.8625 25.5625 24.8625 25.5687 24.8562 25.5625L24.8875 25.5437C24.9562 25.5312 25.0062 25.4687 24.9937 25.3937C24.975 25.2562 25.1562 25.4312 25.1312 25.3562C25.1687 25.3 25.1937 25.2375 25.2062 25.1687C25.2812 25.1062 25.3437 25.0437 25.4187 24.975C25.5312 24.8687 25.475 24.8687 25.6187 24.7875C25.6937 24.7437 25.575 24.8437 25.8312 24.6687C25.8875 24.6437 25.9312 24.6 25.9562 24.5437C25.9625 24.5062 25.975 24.4687 25.9937 24.4375C26.0437 24.3875 25.9562 24.4187 26.025 24.3687L25.9875 24.1875L26 24.1062L25.9812 23.9875V23.9687C25.8937 23.9687 25.95 23.8 25.95 23.8C25.95 23.8 26.0562 23.8187 26.0125 23.7187C25.975 23.65 25.9062 23.6 25.8312 23.5875C25.7687 23.5187 25.7375 23.425 25.7437 23.3375C25.7562 23.2562 25.7125 23.175 25.6375 23.1312L25.4312 22.825L25.3437 22.7812L25.4062 22.75L25.4 22.6937L25.375 22.6375L25.4375 22.6062C25.3875 22.6 25.3875 22.5625 25.425 22.5375C25.4625 22.5125 25.4437 22.4625 25.4375 22.4437C25.4437 22.4062 25.4437 22.375 25.4437 22.3375L25.4312 22.3062C25.4187 22.2937 25.4062 22.2812 25.3937 22.2687C25.375 22.25 25.3812 22.2312 25.3625 22.2125C25.3437 22.1937 25.3312 22.1875 25.3312 22.1687C25.325 22.1437 25.3187 22.1062 25.2937 22.1C25.2687 22.0937 25.2812 22.1312 25.2312 22.1312C25.1812 22.125 25.1812 22.1312 25.1812 22.1062C25.1812 22.0812 25.2312 22.0812 25.2312 22.0812V22.0437L25.1812 22.025C25.1562 22.0125 25.1312 21.9937 25.1125 21.975C25.0875 21.95 25.0562 21.9312 25.0187 21.9125L24.9437 21.8937C24.9375 21.8 24.925 21.7062 24.9 21.6125L24.8375 21.65L24.775 21.425V21.4C24.6937 21.375 24.6187 21.3312 24.5625 21.2687C24.5625 21.2687 24.6187 21.2875 24.6312 21.2625L24.5812 21.2312C24.55 21.2187 24.5375 21.2125 24.5625 21.2L24.5812 21.1875L24.5437 21.1687C24.5187 21.1687 24.4937 21.1687 24.4687 21.1562L24.425 21.1187L24.3187 21.05C24.3187 21.0375 24.3187 21.0187 24.3187 21.0062C24.3187 20.975 24.2687 21.0062 24.2687 21.0062V21.0625C24.225 21.0187 24.1875 20.975 24.15 20.9312L24.1812 20.8687C24.1812 20.8687 24.225 20.8562 24.2187 20.8437C24.2062 20.825 24.1812 20.8125 24.1625 20.8187L24.1437 20.8312L24.1062 20.85L24.0375 20.7375L24.0625 20.6937V20.65L24.05 20.6C24.0562 20.5812 24.0687 20.5625 24.0812 20.55L24.0687 20.5125L24.0437 20.5062V20.4937L24.075 20.4812C24.075 20.4687 24.0562 20.4812 24.0437 20.4875H24.0375L24.0312 20.525C24.0125 20.5125 23.9625 20.525 23.9375 20.525L23.9562 20.4875L23.9625 20.4812L24 20.4562C24 20.4437 23.9687 20.4625 23.9687 20.4625L24.025 20.3437L24.1437 19.9687L24.1687 19.9062C24.1187 19.7437 24.3312 19.3687 24.3312 19.3687C24.3312 19.3687 24.3625 19.65 24.45 19.25C24.5 19.0125 24.5125 18.775 24.4875 18.5312C24.5187 18.2375 24.5875 17.95 24.6875 17.6687C24.7812 17.4312 24.825 17.1812 24.8187 16.9312L24.9812 15.8125V15.5375L25.05 15.55L25.0625 15.5312L25.1125 15.3812L25.1437 15.2125L25.2125 15.225C25.1875 15.1375 25.225 15.0375 25.2687 15.0375C25.3125 15.0375 25.3437 14.875 25.3625 14.8312C25.3812 14.7875 25.4312 14.6875 25.4625 14.5937L25.4812 14.5125C25.4875 14.4687 25.4875 14.4187 25.4875 14.375C25.4875 14.3062 25.5187 14.2687 25.5187 14.1937C25.5187 14.1437 25.525 14.0937 25.5375 14.0437C25.5625 13.975 25.575 13.9062 25.575 13.8312C25.5625 13.7812 25.5375 13.8937 25.5062 13.8187C25.475 13.7437 25.475 13.7437 25.4937 13.7C25.5125 13.6562 25.55 13.7125 25.55 13.7125L25.5812 13.625L25.5625 13.5187C25.5562 13.45 25.5562 13.375 25.5625 13.3062C25.5687 13.2187 25.5687 13.1375 25.5625 13.05L25.5312 12.9C25.6062 12.6875 25.6812 12.4687 25.75 12.2312L25.6625 12.225L25.825 11.6625L25.85 11.6C25.825 11.4125 25.8187 11.225 25.8375 11.0375C25.8375 11.0375 25.85 11.1562 25.8875 11.1312V11.125V10.9937C25.875 10.925 25.8812 10.9 25.9062 10.9062H25.9312V10.8125C25.9125 10.7687 25.9062 10.725 25.9 10.6812L25.9062 10.5437V10.2562C25.925 10.2312 25.9375 10.2 25.95 10.1687C25.9687 10.1437 25.9562 10.1125 25.9312 10.0937C25.925 10.0937 25.925 10.0875 25.9187 10.0875L25.8687 10.2062C25.8812 10.0625 25.9 9.91874 25.925 9.76874L26 9.70624C26 9.70624 26.0312 9.74999 26.0437 9.71249C26.0625 9.66874 26.0562 9.61249 26.0375 9.56874H26.0187L25.9812 9.54374L26.05 9.22499L26.1062 9.18124L26.15 9.09999L26.1937 8.95624C26.2125 8.93124 26.2375 8.90624 26.2625 8.89374L26.3 8.76249V8.68124L26.3187 8.64999L26.3437 8.59374C26.3625 8.56874 26.3562 8.53749 26.3312 8.51874H26.3125L26.2625 8.63749C26.275 8.49374 26.2062 8.39999 26.2312 8.24999L26.2812 8.20624L26.3062 8.18749C26.3062 8.18749 26.3375 8.23124 26.35 8.19374C26.3625 8.14999 26.3625 8.09374 26.3437 8.04999H26.3125L26.2937 8.03749L26.2687 8.02499C26.2875 7.93124 26.25 7.84374 26.275 7.74999L26.2875 7.69999L26.2187 7.56249L26.2625 7.48124L26.2437 7.44374C26.2687 7.41874 26.2937 7.39374 26.3125 7.36874C26.3312 7.33749 26.35 7.30624 26.3687 7.28124L26.4187 7.23124C26.4812 7.18124 26.5625 7.14374 26.5875 7.11874C26.6125 7.09999 26.7062 6.99999 26.7437 7.02499C26.7812 7.04999 26.85 6.99999 26.8625 6.92499L26.9125 6.96874L27.0062 6.86874L27.1 6.79374L27.1187 6.78749L27.1687 6.83124L27.2687 6.78124L27.2875 6.73749C27.3437 6.72499 27.4062 6.71249 27.4687 6.70624L27.5312 6.73749C27.5375 6.61874 27.5625 6.49999 27.6 6.39374C27.625 6.33124 27.6562 6.26874 27.6937 6.21249L27.725 6.16249C27.7437 6.13124 27.7625 6.09999 27.775 6.06249L27.8 5.98124L27.8562 5.93749C27.8562 5.93749 27.8625 5.97499 27.8812 5.97499H27.8937C27.9125 5.96249 27.9187 5.96249 27.925 5.94999C27.9312 5.93124 27.9312 5.90624 27.9312 5.88749C27.9312 5.81874 27.8687 5.88749 27.8812 5.84374C27.8937 5.79999 27.9562 5.74999 27.9937 5.71874C28.025 5.69374 28.05 5.66249 28.0687 5.62499C28.1 5.57499 28.1375 5.56249 28.1687 5.51874C28.1875 5.48749 28.2062 5.45624 28.2312 5.42499L28.2812 5.37499C28.325 5.34374 28.375 5.31249 28.425 5.28124L28.45 5.26249C28.475 5.24374 28.5375 5.17499 28.5812 5.16874L28.6062 5.08124C28.6312 5.01874 28.6625 4.95624 28.7 4.89999C28.7312 4.85624 28.7562 4.80624 28.7812 4.74999L28.8062 4.66874L28.8625 4.62499C28.8625 4.62499 28.875 4.68124 28.9062 4.66249C28.9375 4.64374 28.9437 4.63749 28.9312 4.58124C28.9187 4.53124 28.8875 4.55624 28.8812 4.53749V4.53124C28.8812 4.51249 28.9062 4.50624 28.9187 4.49999C28.9312 4.49374 28.9312 4.48124 28.9375 4.46249C28.9437 4.44374 28.9625 4.44999 28.975 4.43124C28.9812 4.41874 28.9875 4.40624 28.9937 4.39374V4.38749C29.0062 4.36874 29.0187 4.34999 29.0312 4.33124L29.05 4.29374C29.0625 4.29374 29.0687 4.29999 29.0812 4.29999C29.0812 4.29999 29.0812 4.34374 29.0937 4.35624C29.1062 4.36874 29.1062 4.36874 29.1187 4.31874C29.1312 4.27499 29.0937 4.26874 29.1062 4.24999C29.1187 4.23124 29.1562 4.24374 29.175 4.24999C29.1937 4.25624 29.2 4.24999 29.225 4.23749C29.25 4.22499 29.3125 4.24999 29.3562 4.23749C29.3937 4.23124 29.425 4.22499 29.4625 4.22499L29.5312 4.23124C29.6125 4.24374 29.6937 4.28124 29.725 4.28749C29.7562 4.29374 29.8937 4.29999 29.8937 4.34374C29.9 4.38749 29.9812 4.40624 30.0437 4.36874V4.43749H30.1812L30.3 4.46249L30.3125 4.46874V4.54374L30.4187 4.58124L30.4625 4.56249C30.5125 4.59374 30.5562 4.63124 30.6 4.66874C30.6562 4.65624 30.625 4.62499 30.6812 4.58749C30.7375 4.53124 30.775 4.46874 30.8 4.39374C30.8625 4.41874 30.9312 4.42499 30.9937 4.42499C31.1375 4.42499 30.9937 4.42499 31.1625 4.38124C31.3312 4.33749 31.2812 4.24999 31.425 4.28749C31.4937 4.31249 31.5687 4.31249 31.6375 4.28124C31.6625 4.24999 31.6937 4.22499 31.7312 4.19374C31.7625 4.17499 31.7937 4.14374 31.8187 4.11249C31.8187 4.11249 31.875 4.09374 31.875 3.96249C31.875 3.83124 31.95 3.99999 31.9375 3.92499C31.9937 3.73124 32 3.52499 31.95 3.33124C31.925 3.17499 31.8687 3.22499 31.9125 3.06249C31.9187 2.99374 31.9187 3.14999 31.9812 2.83749ZM9.61249 26.7L9.59999 26.7062L9.56249 26.7562C9.54999 26.775 9.54999 26.8 9.53749 26.8187L9.47499 26.7937C9.49999 26.8375 9.46874 26.8687 9.42499 26.85C9.38124 26.8312 9.35624 26.8875 9.33749 26.8937C9.31874 26.9062 9.27499 26.9187 9.24374 26.9375L9.22499 26.9562C9.21874 26.9687 9.21249 26.9875 9.20624 27C9.19374 27.0187 9.17499 27.025 9.16249 27.0437C9.14999 27.0625 9.14999 27.075 9.13749 27.0812C9.11874 27.0875 9.08749 27.1 9.08749 27.1187C9.08749 27.1375 9.11874 27.1312 9.13124 27.175C9.14374 27.2187 9.13749 27.225 9.11874 27.225C9.09999 27.225 9.08749 27.175 9.08749 27.175H9.05624L9.04374 27.2187C9.03749 27.2437 9.02499 27.2625 9.01249 27.2812C8.99374 27.3062 8.98124 27.325 8.96874 27.35L8.94999 27.4125C8.88749 27.3875 8.82499 27.3562 8.76249 27.325L8.75624 27.4C8.7 27.375 8.64999 27.3437 8.59999 27.3062L8.58749 27.2875C8.53124 27.325 8.46249 27.3312 8.39999 27.3125C8.39999 27.3125 8.44374 27.3 8.45624 27.275H8.41249C8.3875 27.2812 8.38124 27.275 8.39374 27.2625L8.41249 27.2437H8.38124C8.36249 27.2562 8.34374 27.2625 8.32499 27.2625C8.31249 27.2625 8.30624 27.25 8.29374 27.25C8.26874 27.2437 8.24374 27.2375 8.21874 27.225C8.22499 27.2187 8.23124 27.2062 8.23749 27.1937C8.24374 27.175 8.19374 27.2 8.19374 27.2L8.18749 27.25C8.15624 27.2187 8.13124 27.175 8.11874 27.1312L8.16874 27.0875C8.16874 27.0875 8.21249 27.0875 8.21249 27.075C8.21249 27.0375 8.16874 27.0312 8.16874 27.0312H8.14999H8.10624C8.09999 26.975 8.09999 26.9187 8.09999 26.8625L8.14374 26.8312L8.16874 26.775L8.18749 26.6875C8.19999 26.6687 8.21874 26.65 8.24374 26.6437L8.25624 26.5562L8.24999 26.5L8.26249 26.475L8.28124 26.4375C8.29374 26.4062 8.26874 26.3937 8.24999 26.3937H8.23749L8.20624 26.475C8.19999 26.375 8.11874 26.325 8.13124 26.25L8.17499 26.2312L8.19999 26.225C8.19999 26.225 8.23749 26.25 8.24374 26.2312C8.24999 26.2125 8.24374 26.1875 8.21874 26.1812H8.19999H8.18124L8.15624 26.175C8.16874 26.15 8.12499 26.1187 8.13749 26.1L8.14374 26.0937C8.11874 26.075 8.09999 26.0562 8.08124 26.0312H8.11874C8.09374 26.0062 8.07499 25.975 8.05624 25.9437C8.07499 25.9437 8.09374 25.95 8.11249 25.9625C8.12499 25.9625 8.09374 25.9125 8.09374 25.8937C8.14374 25.8937 8.19999 25.8812 8.24999 25.8812L8.38124 25.9062C8.45624 25.9062 8.53124 25.9125 8.60624 25.925L8.64374 25.9312C8.73124 25.8437 8.95 25.9937 8.94374 26C8.93749 26 8.79999 26.0687 8.99999 26.1062C9.11249 26.1312 9.22499 26.125 9.33749 26.0937C9.33124 26.0875 9.56874 26.15 9.56249 26.2687C9.53749 26.35 9.60624 26.3312 9.61249 26.3375C9.63749 26.3562 9.66874 26.4312 9.65624 26.6062L9.68124 26.725L9.61249 26.7ZM18.5875 7.98749H18.7625L19.275 8.04374C19.3687 8.04999 19.7062 8.04999 19.7187 8.09999C19.7312 8.14999 19.95 8.16249 20.1125 8.12499V8.18749H20.4625L20.775 8.21249L20.8125 8.21874V8.29374L21.0812 8.33124L21.2 8.31249C21.325 8.34999 21.45 8.38749 21.5562 8.42499C21.6937 8.41249 21.6187 8.38124 21.7562 8.34374C21.8687 8.30624 21.975 8.23749 22.0625 8.14999C22.2312 8.17499 22.4 8.18749 22.575 8.18749C22.9437 8.19374 22.575 8.18749 23 8.14374C23.425 8.09999 23.3062 8.01249 23.675 8.05624C23.825 8.07499 23.975 8.08124 24.125 8.06874C24.0937 8.08749 24.0562 8.09999 24.0187 8.10624L24.0312 8.23124L24 8.33749C24 8.33749 23.9625 8.27499 23.9437 8.32499C23.925 8.38124 23.925 8.38124 23.9562 8.46249C23.9875 8.54999 24.0125 8.41249 24.025 8.47499C24.025 8.56249 24.0125 8.64999 23.9812 8.73124C23.9687 8.79374 23.9625 8.85624 23.9625 8.91874C23.9562 9.00624 23.9312 9.06249 23.925 9.14374C23.925 9.19999 23.925 9.24374 23.9125 9.30624L23.8937 9.41249C23.8625 9.53124 23.8062 9.65624 23.7875 9.70624C23.7687 9.75624 23.7375 9.96249 23.6937 9.96249C23.6437 9.96249 23.6125 10.0875 23.6312 10.1875L23.5625 10.175L23.525 10.3812L23.475 10.5625L23.4625 10.5875L23.3937 10.575L23.3312 10.725L23.3375 10.8C23.2937 10.8687 23.2437 10.9375 23.1875 11L23.1125 11.0125C23.1625 11.175 23.1937 11.3375 23.2062 11.5062C23.2125 11.6062 23.2125 11.7125 23.2062 11.8125V11.9C23.2 11.9562 23.2 12.0125 23.2062 12.0687L23.2187 12.1937L23.1875 12.3C23.1875 12.3 23.1625 12.2625 23.1437 12.275C23.1375 12.2812 23.1312 12.2812 23.1312 12.2937C23.125 12.3125 23.1187 12.3312 23.1187 12.35C23.125 12.3687 23.125 12.3937 23.1375 12.4125L22.9312 12.3875L22.3687 12.3625L22.275 12.3562C22.0062 12.4 21.7312 12.3875 21.4625 12.325C21.4625 12.325 21.8562 12.225 21.2625 12.2375C20.9125 12.2437 20.5687 12.2875 20.2312 12.3687C19.8062 12.4062 19.375 12.4062 18.95 12.3687C18.6312 12.3375 18.3125 12.3437 18 12.3875C18.0187 12.3187 18.0312 12.2562 18.05 12.1875H17.975L18.075 11.6687L18.0937 11.6125C18.05 11.45 18.025 11.2812 18.025 11.1062C18.025 11.1062 18.05 11.2125 18.0812 11.1875V11.1812L18.0687 11.0625C18.05 11 18.05 10.9812 18.075 10.9812H18.1L18.0875 10.9C18.0687 10.8625 18.05 10.825 18.0375 10.7875V10.6625L18.0125 10.4062C18.025 10.3812 18.0375 10.3562 18.0437 10.3312C18.0562 10.3062 18.0437 10.275 18.0187 10.2625C18.0125 10.2625 18.0125 10.2625 18.0062 10.2562L17.9687 10.3625C17.9687 10.2312 17.9687 10.1 17.9812 9.96874L18.05 9.90624C18.05 9.90624 18.0875 9.94374 18.0937 9.90624C18.1062 9.86249 18.1 9.81874 18.075 9.78124H18.0562L18.0125 9.76249L18.05 9.46874L18.1 9.42499L18.1375 9.34999L18.1687 9.21874C18.1875 9.19374 18.2062 9.17499 18.2312 9.15624L18.2562 9.03749L18.25 8.96249L18.2625 8.93749L18.2812 8.88749C18.2937 8.86874 18.2875 8.83749 18.2625 8.82499C18.2625 8.82499 18.2562 8.82499 18.2562 8.81874H18.25L18.2125 8.92499C18.2125 8.79374 18.1375 8.71249 18.15 8.58124L18.1937 8.54374L18.2187 8.52499C18.2187 8.52499 18.2562 8.56249 18.2625 8.52499C18.275 8.48124 18.2687 8.43749 18.2437 8.39999H18.225L18.1875 8.39374L18.1625 8.38124C18.175 8.29374 18.1312 8.21874 18.1437 8.13749L18.15 8.09374L18.0875 7.99999H18.3187L18.5875 7.98749ZM9.99999 8.36874L10.1875 8.38124C10.1875 8.38124 10.1312 8.41249 10.1562 8.42499C10.1625 8.43124 10.175 8.43749 10.1875 8.43749C10.225 8.44374 10.2562 8.44374 10.2937 8.43749C10.3375 8.43124 10.3812 8.41874 10.425 8.39999C10.5562 8.35624 10.3187 8.34999 10.425 8.33124C10.5687 8.31874 10.7125 8.31249 10.8562 8.32499C10.9625 8.32499 11.0625 8.32499 11.1687 8.31249L11.55 8.30624L11.825 8.28749H12L12.4375 8.32499L12.5187 8.33124C12.6562 8.33124 12.7937 8.33749 12.9312 8.36249L13.1437 8.31874C13.25 8.29999 13.4375 8.28124 13.6562 8.26249C13.9812 8.23749 14.0812 8.21874 14.0812 8.21874L14.2812 8.18124L14.4687 8.19374C14.4687 8.19374 14.375 8.23749 14.4687 8.24999C14.55 8.26249 14.625 8.24999 14.7 8.21874C14.8312 8.17499 14.5937 8.16874 14.7 8.14999H14.7375C14.8687 8.14374 15 8.14374 15.1312 8.14999C15.2375 8.14999 15.3375 8.14999 15.4437 8.13749H15.825L16.1 8.11874H16.125H16.1437C16.1375 8.16249 16.1312 8.19999 16.125 8.24374L16.1375 8.38749C16.1437 8.56249 15.9437 8.59999 15.9437 8.59999L15.9687 8.71249L15.95 8.81874C15.95 8.81874 15.9062 8.76249 15.8937 8.81874C15.8812 8.87499 15.875 8.86874 15.9187 8.94374C15.9625 9.01874 15.975 8.89374 15.9875 8.94999C15.9937 9.03124 15.9875 9.10624 15.9687 9.18124C15.9625 9.23749 15.9625 9.29374 15.9687 9.34999C15.9687 9.43124 15.95 9.48124 15.95 9.55624V9.70624L15.9375 9.79999C15.9187 9.90624 15.875 10.025 15.8625 10.0687C15.85 10.1125 15.8375 10.3 15.7875 10.3062C15.7375 10.3125 15.7125 10.425 15.75 10.5187L15.6812 10.5125L15.6687 10.7L15.6375 10.8687L15.625 10.8875H15.5562L15.5062 11.0312L15.5187 11.0937C15.4812 11.1625 15.4375 11.225 15.3937 11.2875L15.3187 11.3062C15.3812 11.45 15.4312 11.5937 15.4625 11.75C15.475 11.8437 15.4875 11.9375 15.4937 12.0312V12.1062C15.4937 12.1562 15.5 12.2062 15.5125 12.2625L15.5375 12.375L15.5187 12.4812C15.5187 12.4812 15.4937 12.45 15.475 12.4625C15.4687 12.4687 15.4687 12.475 15.4625 12.4812V12.5H15.3562V12.4312C15.2437 12.475 15.0875 12.4625 15.075 12.4187C15.0625 12.375 14.825 12.375 14.7562 12.3687C14.6875 12.3625 14.5375 12.3312 14.3937 12.325H14.2687L14.075 12.3437C13.9812 12.3562 13.9125 12.3375 13.8062 12.3437C13.7312 12.3562 13.6562 12.3625 13.5875 12.3562C13.4875 12.3437 13.3812 12.3437 13.2812 12.3562C13.2125 12.375 13.375 12.3812 13.2812 12.425C13.1875 12.4687 13.1875 12.4687 13.1187 12.4562C13.05 12.4437 13.1187 12.4 13.1187 12.4L12.9812 12.3875L12.8375 12.425C12.7375 12.45 12.6375 12.4625 12.5375 12.4687C12.3875 12.4875 12.2562 12.5062 12.175 12.525L11.975 12.5812L10.9687 12.4875V12.5625L10.2062 12.5125C10.1875 12.4687 10.175 12.4187 10.1625 12.3937L10.0937 12.2875C10.1125 12.1062 10.125 11.925 10.125 11.725L10.05 11.7312V11.2687V11.2187C9.97499 11.0875 9.91874 10.9437 9.88749 10.7937C9.88749 10.7937 9.93124 10.8812 9.95624 10.85L9.91874 10.75C9.89374 10.7 9.8875 10.6812 9.91249 10.6812H9.93749L9.91249 10.6125C9.8875 10.5875 9.86249 10.5562 9.84374 10.525L9.81249 10.4187L9.73124 10.175C9.73749 10.15 9.74374 10.125 9.74999 10.1C9.76249 10.05 9.70624 10.05 9.70624 10.05L9.68749 10.15C9.66249 10.0375 9.64374 9.92499 9.63124 9.80624L9.68749 9.74374C9.68749 9.74374 9.73124 9.76874 9.73124 9.74374C9.73124 9.70624 9.71874 9.66249 9.68749 9.63749H9.66874L9.62499 9.63124L9.61249 9.36874L9.65624 9.31874L9.68124 9.24374L9.68749 9.12499C9.69999 9.09999 9.71874 9.07499 9.73749 9.06249V8.95624L9.71874 8.89999L9.73124 8.87499L9.74374 8.83124C9.74999 8.80624 9.73749 8.78749 9.71249 8.78124H9.70624H9.69374L9.67499 8.88124C9.64999 8.77499 9.56249 8.71874 9.54999 8.59999L9.58749 8.55624L9.60624 8.53749C9.60624 8.53749 9.64999 8.56249 9.64999 8.53124C9.64999 8.49999 9.64374 8.46874 9.62499 8.44374L9.82499 8.41874L9.99999 8.36874ZM2.59999 9.73124L2.50624 9.51874C2.51249 9.49374 2.51874 9.46874 2.51874 9.44374C2.51874 9.39374 2.46874 9.39999 2.46874 9.39999L2.46249 9.49999C2.42499 9.39374 2.39374 9.28749 2.36249 9.16874L2.40624 9.09999C2.40624 9.09999 2.45624 9.11874 2.44999 9.08749C2.44999 9.04999 2.42499 9.01249 2.39374 8.98749H2.37499H2.33124L2.28749 8.73124L2.31249 8.68749L2.31874 8.61249L2.31249 8.49999C2.31874 8.47499 2.33749 8.44999 2.35624 8.43124L2.34374 8.32499L2.32499 8.28749H2.33749L2.59999 8.25624C2.92499 8.22499 3.01874 8.41874 3.01874 8.41874L3.21874 8.38124L3.40624 8.38749C3.40624 8.38749 3.31249 8.43749 3.40624 8.44374C3.48749 8.45624 3.56249 8.44374 3.63749 8.40624C3.76874 8.36249 3.53124 8.36249 3.63749 8.33749C3.78124 8.31874 3.92499 8.31874 4.06874 8.32499C4.17499 8.32499 4.27499 8.32499 4.38124 8.31249L4.75624 8.29999L5.03124 8.27499H5.20624L5.71874 8.31249C5.81249 8.31249 6.14999 8.31249 6.16874 8.35624C6.18124 8.39999 6.39999 8.41249 6.56249 8.36874V8.43749L6.91249 8.43124L7.23124 8.44374L7.26874 8.44999V8.51874L7.46874 8.54374V8.71249L7.50624 8.83749C7.54374 8.98749 7.35624 9.04999 7.35624 9.04999L7.39999 9.14374V9.23749C7.39999 9.23749 7.34999 9.19999 7.34374 9.24374C7.33749 9.28749 7.34374 9.28749 7.38749 9.34999C7.43124 9.41249 7.43124 9.29374 7.45624 9.33749C7.47499 9.40624 7.48124 9.47499 7.48124 9.54374C7.48124 9.59374 7.49374 9.64374 7.50624 9.68749C7.52499 9.75624 7.50624 9.79999 7.52499 9.86249C7.53749 9.90624 7.54999 9.94374 7.55624 9.98749L7.56249 10.0687C7.56249 10.1687 7.53749 10.275 7.53749 10.3187C7.53749 10.3625 7.55624 10.525 7.50624 10.5312C7.46249 10.5375 7.45624 10.65 7.50624 10.7187L7.43749 10.725L7.45624 10.8875V11.0375L7.44999 11.0562L7.38124 11.0625L7.35624 11.1937L7.38124 11.2437C7.35624 11.3062 7.32499 11.3687 7.29374 11.4312L7.22499 11.4625C7.31249 11.5687 7.38749 11.6875 7.44999 11.8125C7.48124 11.8875 7.50624 11.9687 7.53124 12.0437L7.54999 12.1062C7.56249 12.15 7.57499 12.1937 7.59374 12.2312L7.63749 12.325V12.425C7.63749 12.425 7.60624 12.4 7.58749 12.4187C7.58124 12.425 7.58124 12.425 7.58124 12.4312C7.57499 12.45 7.57499 12.4625 7.58124 12.4812C7.59374 12.5 7.60624 12.5187 7.62499 12.5375C7.67499 12.5937 7.66874 12.4875 7.69374 12.5312C7.71249 12.5875 7.71874 12.6437 7.71874 12.7062L7.38749 12.7125L7.28124 12.65C7.28124 12.65 7.33749 12.6125 7.28124 12.6062C7.21249 12.6 7.14374 12.6062 7.08124 12.6375V12.6562L7.05624 12.7L6.58124 12.675L6.50624 12.625L6.37499 12.5937L6.16249 12.5687C6.12499 12.5562 6.08749 12.5375 6.05624 12.5125L5.86249 12.5L5.74999 12.5125L5.69999 12.4937L5.61874 12.475C5.54999 12.4625 5.52499 12.4875 5.51249 12.5062V12.5125L5.68749 12.5437C5.47499 12.55 5.36249 12.6312 5.14374 12.625L5.07499 12.5812L5.04374 12.5625C5.04374 12.5625 5.09999 12.525 5.04374 12.5187C4.97499 12.5062 4.90624 12.5187 4.84374 12.5437V12.5687L4.83124 12.5875L4.81874 12.6125C4.68124 12.6062 4.56249 12.65 4.43124 12.6437H4.36249L4.18124 12.725L4.04999 12.6937L3.83749 12.7937C3.79999 12.7812 3.76249 12.7625 3.73124 12.7375C3.69374 12.7375 3.64999 12.7437 3.61874 12.7687V12.7562L3.60624 12.6937C3.59374 12.6625 3.58124 12.625 3.56249 12.5937C3.53749 12.5437 3.54999 12.5062 3.52499 12.45C3.50624 12.4125 3.49374 12.375 3.48749 12.3375C3.48749 12.2812 3.47499 12.225 3.44999 12.175C3.42499 12.1437 3.43749 12.2312 3.38124 12.1937C3.32499 12.1562 3.32499 12.15 3.33124 12.1125C3.33749 12.075 3.38749 12.1 3.38749 12.1V12.025L3.33749 11.9562C3.30624 11.9125 3.28124 11.8625 3.25624 11.8062C3.23124 11.7437 3.19999 11.6875 3.16249 11.6312L3.08124 11.5375C3.07499 11.3625 3.06249 11.175 3.04374 10.9875L2.97499 11.0062L2.92499 10.55V10.5C2.83124 10.3812 2.76249 10.25 2.71249 10.1062C2.71249 10.1062 2.76874 10.1875 2.78749 10.1562L2.73749 10.0625C2.70624 10.0187 2.69374 9.99999 2.71874 9.99374L2.74374 9.98749L2.70624 9.92499C2.67499 9.89999 2.64999 9.87499 2.63124 9.84374L2.59999 9.73124ZM8.50624 18.4687V18.4437L8.38124 18.4562C8.325 18.475 8.26249 18.4937 8.20624 18.5H8.01249L7.61249 18.5125C7.57499 18.5 7.53124 18.4875 7.48749 18.475C7.39999 18.45 7.38124 18.5062 7.38124 18.5062L7.54999 18.55L6.93124 18.525L6.83124 18.4562C6.83124 18.4562 6.89374 18.4187 6.83124 18.4125C6.76249 18.4 6.69999 18.4062 6.63749 18.4312V18.4562L6.60624 18.5L6.14999 18.45L6.08124 18.3937L5.96249 18.35L5.76249 18.3125C5.72499 18.2937 5.69374 18.275 5.66249 18.2437L5.47499 18.2187H5.38124L5.35624 18.2062L5.31874 18.1875C5.28749 18.175 5.27499 18.2 5.26874 18.2125V18.225C5.29374 18.2437 5.31874 18.2562 5.34999 18.2687C5.24374 18.2687 5.18124 18.3312 5.11249 18.3062V18.2375C5.11249 18.2375 5.14374 18.2062 5.13124 18.2C5.11874 18.1937 5.08749 18.2125 5.08749 18.2125L5.07499 18.2312L5.06249 18.2437L5.04374 18.2625C5.02499 18.2437 4.96874 18.2625 4.94374 18.2187L4.93124 18.2C4.89374 18.2 4.84999 18.2 4.81249 18.1875L4.79999 18.1125C4.74374 18.0937 4.69374 18.075 4.64374 18.05C4.64374 18.0187 4.64374 17.9875 4.65624 17.9562C4.63124 17.8875 4.52499 17.875 4.51249 17.825L4.47499 17.7187C4.36874 17.7062 4.50624 17.6125 4.41249 17.6375C4.39999 17.6 4.38124 17.5687 4.35624 17.5375V17.5L4.36874 17.3312L4.34374 17.025V16.975C4.23749 16.875 4.30624 16.5312 4.30624 16.5312C4.30624 16.5312 4.43749 16.7187 4.37499 16.4062C4.33749 16.2187 4.26249 16.0375 4.14999 15.875C4.07499 15.6562 4.03124 15.425 4.02499 15.1875C4.02499 14.9875 3.97499 14.7937 3.88749 14.6187L3.87499 14.575C4.18124 14.6125 4.51874 14.6375 4.84374 14.6625L5.07499 14.6437C5.21874 14.6187 5.36874 14.6937 5.43124 14.825L5.60624 14.7937L5.77499 14.8062C5.77499 14.8062 5.69374 14.85 5.77499 14.8625C5.85624 14.875 5.85624 14.875 5.97499 14.8312C6.09374 14.7875 5.88749 14.7812 5.97499 14.7625C6.09999 14.75 6.22499 14.7562 6.35624 14.7687C6.44999 14.775 6.53749 14.7687 6.63124 14.7625C6.76249 14.7562 6.84374 14.775 6.96249 14.7625L7.20624 14.75H7.35624L7.80624 14.8062C7.86249 14.8125 8.02499 14.8125 8.12499 14.8312C8.14374 14.9 8.12499 14.9437 8.14374 15.0062C8.15624 15.05 8.16874 15.0875 8.17499 15.1312V15.1687V15.1875C8.18749 15.2562 8.21249 15.3187 8.23749 15.3812L8.28124 15.475V15.5687C8.28124 15.5687 8.23125 15.5312 8.22499 15.575C8.21874 15.6187 8.21874 15.6187 8.26874 15.6812C8.31874 15.7437 8.31249 15.6312 8.33749 15.675C8.35624 15.7437 8.36874 15.8125 8.36249 15.8812C8.36249 15.9312 8.37499 15.9812 8.38749 16.025C8.40624 16.0937 8.39374 16.1375 8.40624 16.2C8.41874 16.2437 8.43124 16.2875 8.43749 16.325L8.44374 16.4062C8.44374 16.5 8.41874 16.6125 8.41874 16.65C8.41874 16.6875 8.43749 16.8562 8.39374 16.8625C8.34999 16.8687 8.34374 16.975 8.39374 17.05L8.32499 17.0562L8.34374 17.225V17.375V17.3937L8.26874 17.4L8.24374 17.5312L8.26874 17.5875C8.24374 17.65 8.21249 17.7062 8.18124 17.7625C8.20624 17.825 8.22499 17.7875 8.28124 17.85C8.34374 17.9062 8.41249 17.95 8.49374 17.975C8.48124 18.0562 8.48124 18.1375 8.49374 18.2187C8.51249 18.3937 8.49374 18.2187 8.56874 18.4125C8.58124 18.4375 8.58749 18.4625 8.60624 18.4812C8.53749 18.4937 8.50624 18.4937 8.50624 18.4687ZM14.8812 18.9187L14.6375 18.9L14.6437 18.8312C14.5312 18.8625 14.3812 18.8375 14.375 18.7875C14.3687 18.7375 14.1375 18.725 14.0687 18.7125C14.0062 18.7 13.8562 18.6562 13.7187 18.6312L13.6 18.6187H13.4125C13.3187 18.6187 13.2562 18.6 13.15 18.6C13.0812 18.6062 13.0062 18.6 12.9375 18.5937C12.8375 18.575 12.7375 18.5687 12.6375 18.5687C12.5687 18.5812 12.7312 18.6 12.6312 18.6375C12.5312 18.675 12.5312 18.675 12.4687 18.6562C12.4062 18.6375 12.4687 18.6 12.4687 18.6L12.3375 18.575L12.1937 18.6C12.0937 18.6125 12 18.6187 11.9 18.6187C11.75 18.6187 11.6187 18.6375 11.5437 18.6437L11.3437 18.6875L10.5562 18.55C10.5562 18.5062 10.5625 18.4687 10.5625 18.425L10.6 18.2562L10.6125 17.9437L10.6187 17.8937C10.5312 17.7812 10.6312 17.4437 10.6312 17.4437C10.6312 17.4437 10.7375 17.6562 10.7187 17.325C10.7062 17.1312 10.6562 16.9437 10.5625 16.7687C10.5187 16.5375 10.5 16.3 10.525 16.0625C10.55 15.8625 10.525 15.6562 10.4562 15.4687L10.3937 15.1125C10.4437 15.1 10.4812 15.0875 10.5312 15.075C10.625 15.0625 10.7937 15.0375 10.9812 15.025L11.1062 15.0125L11.35 14.9812L11.525 14.9437L11.6937 14.9562C11.6937 14.9562 11.6437 14.9875 11.6687 15C11.675 15.0062 11.6875 15.0125 11.6937 15.0125C11.725 15.0187 11.75 15.0187 11.7812 15.0125C11.8187 15.0062 11.8562 14.9937 11.8937 14.975C12.0125 14.9312 11.8062 14.925 11.8937 14.9062C12.0187 14.8937 12.1437 14.8937 12.275 14.9062C12.3687 14.9062 12.4562 14.9062 12.55 14.8937H12.8812L13.1187 14.875H13.2687C13.4062 14.8812 13.5562 14.9062 13.65 14.9187L13.7187 14.925C13.8375 14.925 13.9625 14.9312 14.0812 14.95L14.2625 14.9062C14.3562 14.8875 14.5187 14.8625 14.7062 14.85C14.8312 14.8437 14.95 14.825 15.075 14.8062L15.25 14.7687H15.3687C15.3625 14.7937 15.3687 14.8125 15.3937 14.8687C15.4312 14.9437 15.45 14.8187 15.4625 14.8687V14.8875C15.4625 14.9562 15.4562 15.0312 15.4437 15.1C15.4375 15.1562 15.4375 15.2125 15.4437 15.2687C15.4437 15.35 15.425 15.4 15.425 15.475V15.625V15.6625C15.425 15.7375 15.4312 15.8187 15.45 15.8937L15.475 16.0062L15.4562 16.1125C15.4562 16.1125 15.4125 16.0562 15.4 16.1125C15.3875 16.1687 15.3812 16.1625 15.425 16.2375C15.4687 16.3125 15.4812 16.1875 15.4937 16.2437C15.5 16.325 15.4937 16.4 15.475 16.475C15.4687 16.5312 15.4687 16.5875 15.475 16.6437C15.475 16.725 15.4562 16.775 15.4562 16.85V17L15.4437 17.0937C15.425 17.2 15.3812 17.3187 15.3687 17.3687C15.3562 17.4187 15.3437 17.6 15.2937 17.6062C15.25 17.6125 15.2187 17.725 15.2562 17.8187L15.1875 17.8125L15.175 18L15.1437 18.1687L15.1312 18.1875H15.0562L15.0062 18.3312L15.0187 18.3937C14.9812 18.4562 14.9437 18.5187 14.9 18.575C14.9062 18.65 14.9375 18.6125 14.975 18.6937C15.0187 18.7687 15.0812 18.825 15.1562 18.875C15.1562 18.875 15.1375 18.9312 15.125 19.025H15.1062L15.1125 18.9562L15.0875 18.9437L14.8812 18.9187ZM21.4437 19.525L21.35 19.5125C21.0875 19.5187 20.8187 19.4812 20.5687 19.3875C20.5687 19.3875 20.9562 19.3375 20.3875 19.275C20.05 19.2375 19.7125 19.2437 19.375 19.2937C18.9562 19.2812 18.5437 19.2375 18.1375 19.1562C17.8562 19.0937 17.5625 19.0687 17.275 19.075C17.3 18.95 17.3375 18.825 17.3937 18.7125C17.3937 18.7125 17.4562 18.9625 17.5 18.6C17.5312 18.3812 17.5187 18.1625 17.4625 17.95C17.4625 17.6812 17.5 17.4187 17.5687 17.1562C17.6375 16.9375 17.6562 16.7062 17.625 16.4812L17.6625 15.4625L17.6312 15.2125H17.7L17.7125 15.1937L17.7437 15.0562L17.7562 14.9L17.825 14.9062C17.7875 14.8312 17.8125 14.7375 17.8625 14.7312C17.9125 14.725 17.9187 14.5812 17.9312 14.5375V14.525C18.0187 14.5187 18.125 14.5187 18.2 14.525C18.2875 14.525 18.3812 14.5187 18.4687 14.5062L18.8 14.4937L19.0375 14.4687H19.1875L19.6375 14.5062C19.7187 14.5062 20.0187 14.5 20.0312 14.5437C20.0437 14.5875 20.2375 14.6 20.375 14.5562V14.625L20.6812 14.6125L20.9562 14.6187L20.9937 14.625V14.7L21.2312 14.725L21.3375 14.7C21.45 14.7312 21.5562 14.7562 21.6562 14.7937C21.775 14.775 21.7125 14.75 21.8312 14.7C21.9312 14.65 22.0187 14.5812 22.0875 14.4875C22.2375 14.5 22.3875 14.5 22.5375 14.4875C22.85 14.475 22.5625 14.4875 22.875 14.425V14.575L22.8875 14.7L22.8562 14.8062C22.8562 14.8062 22.8187 14.7437 22.8 14.7937C22.7812 14.85 22.7812 14.85 22.8062 14.9375C22.8312 15.025 22.8687 14.8875 22.875 14.95V14.975C22.8687 15.0562 22.85 15.1312 22.8312 15.2062C22.8187 15.2687 22.8062 15.3312 22.8062 15.3937C22.8 15.4812 22.7687 15.5375 22.7625 15.6187C22.7625 15.6812 22.7625 15.725 22.75 15.7812V15.7937V15.8187C22.7375 15.9062 22.7375 15.9875 22.7437 16.075L22.7562 16.2L22.725 16.3062C22.725 16.3062 22.6875 16.2437 22.6687 16.2937C22.65 16.3437 22.65 16.35 22.675 16.4375C22.7062 16.525 22.7312 16.3875 22.7437 16.45C22.7375 16.5375 22.725 16.625 22.7 16.7062C22.6875 16.7687 22.675 16.8312 22.675 16.8937C22.6687 16.9812 22.6375 17.0375 22.6375 17.1187C22.6375 17.1812 22.6375 17.225 22.625 17.2875L22.6 17.3937C22.5687 17.5125 22.5062 17.6375 22.4937 17.6875C22.4812 17.7375 22.4437 17.9437 22.3937 17.9437C22.35 17.9437 22.3062 18.0687 22.3312 18.175L22.2625 18.1625L22.225 18.375L22.1812 18.5625L22.1687 18.5875L22.1 18.575L22.0375 18.7312L22.0437 18.8062C22 18.875 21.95 18.9375 21.9 19C21.9 19.0875 21.9375 19.0437 21.9625 19.1312C22 19.2125 22.0562 19.2875 22.125 19.3437C22.0875 19.4375 22.0625 19.5312 22.05 19.625H22.0125L21.4437 19.525ZM22.8125 26.7125L22.8 26.7187L22.7625 26.7687C22.7562 26.7875 22.7437 26.8125 22.7375 26.8312L22.675 26.8062C22.7 26.85 22.6687 26.8812 22.625 26.8625C22.5812 26.8437 22.5562 26.8937 22.5375 26.9062C22.5187 26.9187 22.475 26.9312 22.4437 26.95L22.425 26.9687C22.4187 26.9812 22.4125 27 22.4125 27.0125C22.4 27.0312 22.3812 27.0312 22.375 27.0562C22.3625 27.075 22.3625 27.0875 22.35 27.0937C22.3312 27.1 22.3062 27.1125 22.3 27.1312C22.2937 27.15 22.3312 27.1437 22.3437 27.1875C22.3562 27.2312 22.35 27.2375 22.3312 27.2312C22.3125 27.225 22.3 27.1812 22.3 27.1812H22.2687V27.225C22.2625 27.25 22.25 27.2687 22.2375 27.2875C22.2187 27.3125 22.2062 27.3312 22.1937 27.3562L22.175 27.4187C22.1125 27.3937 22.0562 27.3625 21.9937 27.3312L21.9875 27.4062C21.9312 27.3812 21.8812 27.35 21.8375 27.3125L21.825 27.2937C21.7687 27.3312 21.7062 27.3375 21.6437 27.3187C21.6437 27.3187 21.6875 27.3062 21.6937 27.2812H21.6562C21.6312 27.2875 21.625 27.2812 21.6375 27.2687L21.6562 27.25H21.6312C21.6125 27.2625 21.5937 27.2687 21.575 27.2687C21.5625 27.2687 21.5562 27.2625 21.5437 27.2562C21.5187 27.25 21.4937 27.2437 21.475 27.2312L21.4937 27.2C21.5 27.1812 21.45 27.2 21.45 27.2L21.4375 27.2375C21.4062 27.2062 21.3812 27.1687 21.375 27.125L21.425 27.0812C21.425 27.0812 21.4687 27.0812 21.4687 27.0687C21.4687 27.0312 21.425 27.025 21.425 27.025H21.4062H21.3625C21.3562 26.9687 21.3562 26.9125 21.3625 26.8625L21.4062 26.8312L21.4312 26.7812L21.45 26.6937C21.4625 26.675 21.4875 26.6625 21.5062 26.65L21.5187 26.5625L21.5062 26.5125L21.5187 26.4875L21.5375 26.45C21.55 26.4187 21.525 26.4125 21.5062 26.4062H21.4937L21.4625 26.4812C21.4562 26.3875 21.375 26.3312 21.3875 26.2562L21.4312 26.2375L21.4562 26.2312C21.4562 26.2312 21.4937 26.2562 21.5 26.2375C21.5062 26.2187 21.5 26.1937 21.475 26.1875H21.4562H21.4375L21.4125 26.1812C21.425 26.1562 21.3812 26.125 21.3937 26.1125L21.4 26.1062C21.375 26.0875 21.3562 26.0687 21.3375 26.0437H21.375C21.35 26.0187 21.3187 25.9937 21.3 25.9625C21.3187 25.9625 21.3375 25.9687 21.3562 25.9812C21.3687 25.9812 21.3437 25.9437 21.3375 25.9187H21.3687H21.4L21.6562 25.9375L21.6875 25.9437V26.0187L21.9125 26.0562L22.0125 26.0375C22.05 26.05 22.0875 26.0625 22.1187 26.075C22.1187 26.0937 22.1312 26.1187 22.225 26.1312H22.2812L22.3062 26.1437C22.3187 26.1437 22.3312 26.1375 22.3375 26.1375C22.4062 26.1375 22.4812 26.1312 22.55 26.1187C22.5437 26.1062 22.7812 26.1812 22.7625 26.2875C22.7375 26.3687 22.8062 26.35 22.8125 26.3562C22.8312 26.375 22.8437 26.4 22.85 26.425C22.8625 26.4875 22.8625 26.55 22.8562 26.6187L22.8812 26.7375L22.8125 26.7125ZM24.825 25.6312V25.6187L24.85 25.6062C24.8375 25.6312 24.85 25.6687 24.825 25.6312Z" fill="#0041E6"/>
</g>
<defs>
<clipPath id="clip0_7664_50186">
<rect width="32" height="32" fill="white"/>
</clipPath>
</defs>
</svg>
