<svg width="32" height="32" viewBox="0 0 32 32" fill="none" xmlns="http://www.w3.org/2000/svg">
<g clip-path="url(#clip0_7664_50218)">
<path d="M8.05623 15.4188C8.04373 15.3875 8.04373 15.35 8.04998 15.3125C8.06248 15.2625 8.06248 15.2125 8.04998 15.1625C8.03123 15.125 8.02498 15.2125 7.98123 15.1625C7.93748 15.1125 7.93748 15.1125 7.94998 15.0813C7.96248 15.05 8.00623 15.0813 8.00623 15.0813L8.01873 15.0125L7.98748 14.9438C7.96873 14.9 7.95623 14.85 7.94373 14.8C7.93123 14.7375 7.91248 14.6813 7.89373 14.625L7.83748 14.5188C7.87498 14.3625 7.90623 14.2 7.93123 14.025H7.85623L7.91248 13.6125L7.92498 13.5688C7.86873 13.4438 7.83123 13.3125 7.81873 13.1813C7.81873 13.1813 7.84998 13.2625 7.88123 13.2375L7.85623 13.1438C7.83123 13.1 7.83123 13.0813 7.85623 13.0813H7.88123L7.86248 13.0188C7.83748 12.9938 7.81873 12.9625 7.80623 12.9313L7.78748 12.8313L7.74373 12.6313C7.75623 12.6125 7.76248 12.5875 7.76873 12.5688C7.78123 12.525 7.73123 12.5188 7.73123 12.5188L7.69998 12.6063C7.68748 12.5 7.68123 12.4 7.68123 12.2938L7.74373 12.2438C7.74373 12.2438 7.78748 12.275 7.78748 12.2438C7.79373 12.2063 7.78123 12.1688 7.75623 12.1438H7.72498L7.68123 12.1313L7.69998 11.9L7.74998 11.8625L7.78123 11.8L7.79998 11.6938C7.81248 11.675 7.83123 11.6563 7.85623 11.6375L7.86873 11.5438L7.85623 11.4875L7.86873 11.4625L7.88748 11.4188C7.89998 11.3875 7.86873 11.375 7.85623 11.3688H7.84998L7.81873 11.4563C7.80623 11.35 7.72498 11.3 7.72498 11.1938L7.76873 11.1563L7.78748 11.1375C7.78748 11.1375 7.83123 11.1688 7.83123 11.1375C7.83748 11.1 7.82498 11.0625 7.79998 11.0375H7.78123H7.76248L7.73748 11.0313C7.73748 10.9625 7.69373 10.9063 7.69998 10.8438V10.8063L7.61248 10.7188L7.64373 10.6563L7.53748 10.55C7.54998 10.5313 7.56873 10.5125 7.59373 10.4938C7.59998 10.45 7.51248 10.4125 7.51873 10.3813L7.53123 10.3188C7.43748 10.2875 7.59998 10.2688 7.50623 10.2625C7.50623 10.2625 7.53748 10.2125 7.39998 10.1063C7.26248 10 7.23748 10 7.23748 10C7.21248 9.98125 7.17498 9.9625 7.14373 9.95625C7.08748 9.93125 7.01248 9.95625 6.98748 10.0125C6.98123 10.0188 6.98123 10.0313 6.98123 10.0375C6.97498 10.1125 6.84373 10.0625 6.84373 10.0625C6.80623 10.0813 6.78123 10.125 6.78123 10.1688C6.78123 10.2563 6.67498 10.1375 6.62498 10.0625C6.57498 9.9875 6.41873 10.0375 6.36873 10.0375C6.32498 10.0375 6.08748 9.93125 6.04998 10.0375C6.02498 10.1063 6.02498 10.1813 6.03748 10.25C6.03748 10.25 5.85623 10.2 5.81873 10.3375L5.78123 10.475C5.73748 10.675 5.70623 10.8688 5.69373 11.075L5.71873 11.1875C5.74373 11.325 5.54373 11.3625 5.54373 11.3625L5.58123 11.45L5.56873 11.5313C5.56873 11.5313 5.52498 11.4938 5.51248 11.5313C5.49998 11.5688 5.49998 11.5688 5.54373 11.625C5.58748 11.6813 5.59373 11.5813 5.61248 11.625C5.62498 11.6875 5.62498 11.75 5.61248 11.8063C5.60623 11.85 5.61248 11.8938 5.62498 11.9375C5.63748 12 5.61873 12.0438 5.62498 12.1C5.63123 12.1375 5.63748 12.175 5.63748 12.2188V12.2938C5.62498 12.3813 5.59373 12.475 5.58748 12.5125C5.58123 12.55 5.58748 12.6938 5.53748 12.7C5.48748 12.7063 5.47498 12.8 5.51873 12.8688H5.45623V13.0188L5.43748 13.15L5.43123 13.1688H5.36248L5.32498 13.2813L5.34373 13.3313C5.31248 13.3875 5.27498 13.4375 5.23123 13.4875L5.16248 13.5063C5.23748 13.6063 5.29373 13.7188 5.34373 13.8375C5.36248 13.9063 5.38123 13.9813 5.39373 14.05L5.40623 14.1125C5.41248 14.15 5.42498 14.1938 5.43748 14.2313L5.46873 14.3188L5.45623 14.4C5.45623 14.4 5.42498 14.375 5.40623 14.3875C5.39998 14.3938 5.39998 14.3938 5.39373 14.4C5.38748 14.4125 5.38748 14.4313 5.39373 14.4438C5.40623 14.4625 5.41248 14.4813 5.43123 14.5C5.47498 14.5563 5.48123 14.4563 5.49998 14.5C5.51248 14.5625 5.51248 14.625 5.49998 14.6813C5.49373 14.725 5.49998 14.7688 5.51248 14.8125C5.52498 14.875 5.50623 14.9188 5.51248 14.975C5.51873 15.0125 5.52498 15.05 5.53123 15.0938V15.1688C5.51873 15.2313 5.50623 15.2938 5.48748 15.35L5.48123 15.3813C5.48123 15.4375 5.46873 15.5 5.44998 15.5563L5.49373 15.6438C5.51873 15.7125 5.53123 15.7875 5.54373 15.8563C5.54998 15.9188 5.56248 15.975 5.58748 16.0313L5.62498 16.1188L5.61248 16.2C5.61248 16.2 5.56873 16.1625 5.55623 16.2C5.54373 16.2375 5.54373 16.2438 5.58748 16.3C5.63123 16.3563 5.63748 16.2563 5.65623 16.3V16.3188C5.66248 16.375 5.66248 16.4313 5.65623 16.4875C5.65623 16.5313 5.65623 16.575 5.66873 16.6188C5.68123 16.6813 5.66248 16.725 5.66873 16.7813C5.67498 16.8188 5.68123 16.8563 5.68748 16.9V16.9125V16.9313C5.69373 16.9938 5.70623 17.05 5.73123 17.1063L5.76873 17.1938L5.75623 17.275C5.75623 17.275 5.71248 17.2375 5.69998 17.275C5.68748 17.3125 5.68748 17.3125 5.73123 17.375C5.77498 17.4313 5.78123 17.3313 5.79998 17.375C5.81248 17.4375 5.81248 17.5 5.79998 17.5563C5.79373 17.6 5.79998 17.6438 5.81248 17.6875C5.82498 17.75 5.80623 17.7938 5.81248 17.85C5.81873 17.8875 5.82498 17.925 5.83123 17.9688V18.0438C5.81873 18.1313 5.78748 18.225 5.78123 18.2625C5.77498 18.3 5.78123 18.4438 5.73123 18.45C5.68123 18.4563 5.66873 18.55 5.71248 18.6125H5.63748V18.75L5.61873 18.8813L5.61248 18.9H5.54373L5.50623 19.0125L5.52498 19.0625C5.49373 19.1125 5.45623 19.1625 5.41873 19.2125C5.43123 19.2688 5.46248 19.2438 5.50623 19.3C5.56248 19.3563 5.62498 19.4 5.69998 19.4313C5.67498 19.5 5.66873 19.575 5.67498 19.65C5.67498 19.8063 5.67498 19.65 5.72498 19.8313C5.77498 20.0125 5.86248 19.9625 5.83123 20.1188C5.80623 20.1938 5.81248 20.2813 5.84373 20.3563C5.87498 20.3875 5.90623 20.425 5.93123 20.4625C5.94998 20.5 5.98123 20.5313 6.01248 20.5563C6.01248 20.5563 6.03123 20.6188 6.15623 20.6125C6.28748 20.6063 6.12498 20.6938 6.19998 20.6813C6.38748 20.7438 6.59373 20.7438 6.78748 20.6875C6.93748 20.6625 6.89373 20.5938 7.05623 20.6438C7.14373 20.6688 6.98748 20.675 7.29373 20.7375C7.38748 20.7563 7.35623 20.775 7.46248 20.7C7.48748 20.65 7.51873 20.6 7.55623 20.5563C7.62498 20.5375 7.53748 20.4563 7.62498 20.475C7.65623 20.3438 7.68123 20.2063 7.70623 20.0563L7.76248 19.9125L7.81248 19.6375L7.82498 19.5938C7.74998 19.4813 7.88748 19.2 7.88748 19.2C7.88748 19.2 7.96873 19.3938 7.98748 19.1063C7.99998 18.9313 7.96873 18.7563 7.89373 18.6C7.87498 18.3938 7.88748 18.1813 7.93748 17.975C7.98748 17.8 7.98748 17.6188 7.93748 17.4438L7.88123 16.6438L7.83123 16.45H7.89998L7.90623 16.4375L7.92498 16.3313V16.2063H7.99373C7.95623 16.15 7.96873 16.075 8.01248 16.0688C8.05623 16.0625 8.05623 15.9438 8.06248 15.9125C8.06873 15.8813 8.09998 15.8063 8.11248 15.7313V15.6688C8.10623 15.6375 8.10623 15.6063 8.09373 15.575C8.04998 15.5063 8.06873 15.4688 8.05623 15.4188Z" fill="#0041E6"/>
<path d="M26.4375 19.175C26.4375 19.175 26.5188 19.3687 26.5313 19.0812C26.5438 18.9062 26.5125 18.7312 26.4375 18.575C26.4188 18.3687 26.4313 18.1562 26.4813 17.95C26.5313 17.775 26.5313 17.5937 26.4813 17.4187L26.4375 16.6187L26.3875 16.425H26.4563L26.4625 16.4125L26.4813 16.3062V16.1812H26.55C26.5125 16.125 26.525 16.05 26.575 16.0437C26.6188 16.0375 26.6188 15.9187 26.625 15.8875C26.6313 15.8562 26.6625 15.7812 26.675 15.7062V15.6437C26.675 15.6125 26.6688 15.5812 26.6563 15.55C26.65 15.5 26.6625 15.4687 26.6563 15.4187C26.6438 15.3875 26.6438 15.35 26.6438 15.3125C26.6563 15.2625 26.6563 15.2125 26.6438 15.1625C26.625 15.1312 26.6188 15.2125 26.575 15.1625C26.5313 15.1125 26.5313 15.1125 26.5438 15.0812C26.5563 15.05 26.6 15.0812 26.6 15.0812L26.6125 15.0125L26.575 14.9437C26.5563 14.9 26.5438 14.85 26.5375 14.8C26.525 14.7375 26.5063 14.6812 26.4875 14.625L26.4313 14.525C26.4688 14.3687 26.5 14.2062 26.525 14.0312H26.45L26.5063 13.6187L26.5188 13.575C26.4625 13.45 26.425 13.325 26.4063 13.1875C26.4063 13.1875 26.4438 13.2687 26.4688 13.2437L26.4438 13.15C26.425 13.1062 26.4188 13.0875 26.4438 13.0875H26.4688L26.45 13.025C26.425 13 26.4063 12.9687 26.3938 12.9375L26.3813 12.8375L26.3375 12.6375C26.35 12.6187 26.3563 12.5937 26.3625 12.575C26.375 12.5312 26.325 12.525 26.325 12.525L26.2938 12.6125C26.2813 12.5062 26.275 12.4062 26.275 12.3L26.3375 12.25C26.3375 12.25 26.3813 12.2812 26.3813 12.25C26.3875 12.2125 26.375 12.1812 26.35 12.15H26.3313L26.2875 12.1375L26.3063 11.9062L26.3563 11.8687L26.3875 11.8062L26.4063 11.7C26.4188 11.6812 26.4375 11.6625 26.4625 11.6437L26.475 11.55L26.4625 11.4937L26.475 11.4687L26.4938 11.425C26.5063 11.3937 26.475 11.3812 26.4625 11.375H26.45L26.4188 11.4625C26.4063 11.3562 26.325 11.3062 26.325 11.2L26.3688 11.1625L26.3875 11.1437C26.3875 11.1437 26.4313 11.175 26.4313 11.1437C26.4375 11.1062 26.425 11.075 26.4 11.0437H26.375H26.3563L26.3313 11.0375C26.3313 10.9687 26.2875 10.9125 26.2938 10.85V10.8187L26.2063 10.7312L26.2375 10.6687L26.1313 10.5625C26.1438 10.5437 26.1625 10.525 26.1875 10.5062C26.1938 10.4625 26.1063 10.425 26.1125 10.3937L26.125 10.3312C26.0313 10.3 26.1938 10.2812 26.1 10.275C26.1 10.275 26.1313 10.225 25.9938 10.1187C25.8563 10.0125 25.8313 10.0125 25.8313 10.0125C25.8063 9.9875 25.775 9.96875 25.7438 9.95C25.6875 9.925 25.6125 9.95 25.5875 10.0062C25.5813 10.0125 25.5813 10.025 25.5813 10.0312C25.575 10.1062 25.4438 10.0562 25.4438 10.0562C25.4063 10.075 25.3813 10.1187 25.3813 10.1625C25.3813 10.25 25.275 10.1312 25.225 10.0562C25.175 9.98125 25.0188 10.0312 24.9688 10.0312C24.925 10.0312 24.6813 9.925 24.65 10.0312C24.625 10.1 24.625 10.175 24.6375 10.2437C24.6375 10.2437 24.4563 10.1937 24.4188 10.3312L24.3813 10.4687C24.3375 10.6687 24.3063 10.8625 24.2938 11.0687L24.3188 11.1812C24.3438 11.3187 24.1438 11.3562 24.1438 11.3562L24.175 11.4437L24.1625 11.525C24.1625 11.525 24.1188 11.4875 24.1063 11.525C24.0938 11.5625 24.0938 11.5625 24.1375 11.6187C24.1813 11.675 24.1875 11.575 24.2063 11.6187C24.2188 11.6812 24.2188 11.7437 24.2063 11.8C24.2 11.8437 24.2063 11.8875 24.2188 11.9312C24.225 11.9937 24.2125 12.0375 24.2188 12.0937C24.225 12.1312 24.2313 12.1687 24.2375 12.2125V12.2875C24.225 12.375 24.1875 12.4687 24.1875 12.5062C24.1875 12.5437 24.1813 12.6875 24.1375 12.6937C24.0938 12.7 24.075 12.7937 24.1188 12.8625H24.0625V13.0125L24.0438 13.1437L24.0375 13.1625H23.9625L23.925 13.275L23.9438 13.325C23.9125 13.3812 23.875 13.4312 23.8313 13.4812L23.7625 13.5C23.8375 13.6 23.8938 13.7125 23.9438 13.8312C23.9688 13.9 23.9813 13.975 23.9938 14.0437L24.0063 14.1062C24.0125 14.1437 24.025 14.1875 24.0375 14.225L24.075 14.3125L24.0625 14.3937C24.0625 14.3937 24.0313 14.3687 24.0188 14.3812C24.0125 14.3812 24.0125 14.3875 24.0063 14.3937C24 14.4062 24 14.425 24.0063 14.4375C24.0188 14.4562 24.0313 14.475 24.0438 14.4937C24.0875 14.55 24.0938 14.45 24.1125 14.4937C24.125 14.5562 24.125 14.6187 24.1125 14.675C24.1063 14.7187 24.1125 14.7625 24.125 14.8062C24.1313 14.8687 24.1188 14.9125 24.125 14.9687C24.1313 15.0062 24.1375 15.0437 24.1438 15.0875V15.1625C24.1313 15.225 24.1188 15.2875 24.1 15.3437L24.0938 15.375C24.0938 15.4312 24.0813 15.4937 24.0625 15.55L24.1063 15.6375C24.1313 15.7062 24.1438 15.7812 24.1563 15.85C24.1625 15.9125 24.175 15.9687 24.2 16.025L24.2313 16.1125L24.2188 16.1937C24.2188 16.1937 24.175 16.1562 24.1625 16.1937C24.15 16.2312 24.15 16.2375 24.1938 16.2937C24.2375 16.35 24.2438 16.25 24.2625 16.2937V16.3125C24.2688 16.3687 24.2688 16.425 24.2625 16.4812C24.2563 16.525 24.2625 16.5687 24.275 16.6125C24.2813 16.675 24.2688 16.7187 24.275 16.775C24.2813 16.8125 24.2875 16.85 24.2938 16.8937V16.9062V16.925C24.3 16.9875 24.3125 17.0437 24.3375 17.1L24.3688 17.1875L24.3563 17.2687C24.3563 17.2687 24.3125 17.2312 24.3 17.2687C24.2875 17.3062 24.2875 17.3062 24.3313 17.3687C24.375 17.425 24.3813 17.325 24.4 17.3687C24.4125 17.4312 24.4125 17.4937 24.4 17.55C24.3938 17.5937 24.4 17.6375 24.4125 17.6812C24.4188 17.7437 24.4063 17.7875 24.4125 17.8437C24.4188 17.8812 24.425 17.9187 24.4313 17.9625V18.0375C24.4188 18.125 24.3875 18.2187 24.3813 18.2562C24.375 18.2937 24.3813 18.4375 24.3313 18.4437C24.2813 18.45 24.2688 18.5437 24.3125 18.6062H24.2438V18.7562L24.225 18.8875L24.2188 18.9062H24.1438L24.1063 19.0187L24.125 19.0687C24.0938 19.1187 24.0563 19.1687 24.0188 19.2187C24.0313 19.275 24.0625 19.25 24.1063 19.3062C24.1625 19.3625 24.225 19.4062 24.3 19.4375C24.2813 19.5062 24.2688 19.5812 24.275 19.6562C24.275 19.8125 24.275 19.6562 24.325 19.8375C24.375 20.0187 24.4625 19.9687 24.4313 20.125C24.4063 20.2 24.4125 20.2875 24.4438 20.3625C24.475 20.3937 24.5063 20.4312 24.5313 20.4687C24.55 20.5062 24.5813 20.5375 24.6125 20.5625C24.6125 20.5625 24.6313 20.625 24.7625 20.6187C24.8938 20.6125 24.725 20.7 24.8 20.6875C24.9875 20.75 25.1938 20.75 25.3875 20.6937C25.5375 20.6687 25.4938 20.6 25.6563 20.65C25.7438 20.675 25.5875 20.6812 25.8938 20.7437C25.9875 20.7625 25.9625 20.7812 26.0688 20.7062C26.0938 20.6562 26.125 20.6062 26.1625 20.5625C26.2313 20.5437 26.1438 20.4625 26.2313 20.4812C26.2625 20.35 26.2875 20.2125 26.3125 20.0625L26.3688 19.9187L26.4188 19.6437V19.6C26.3 19.4625 26.4375 19.175 26.4375 19.175Z" fill="#0041E6"/>
<path d="M12.725 16.8938C12.7125 16.85 12.7125 16.8063 12.7125 16.7625C12.725 16.7 12.725 16.6375 12.7125 16.575C12.6937 16.5313 12.6875 16.6313 12.6437 16.575C12.6 16.5188 12.6 16.5188 12.6125 16.475C12.625 16.4313 12.6687 16.475 12.6687 16.475C12.6687 16.475 12.675 16.4438 12.6812 16.3938L12.6437 16.3063C12.625 16.25 12.6062 16.1875 12.6 16.1313C12.5875 16.0563 12.5687 15.9875 12.5437 15.9125C12.525 15.8688 12.5062 15.8313 12.4875 15.7938C12.525 15.6 12.5562 15.4 12.575 15.1938H12.5L12.55 14.6938L12.5625 14.6375C12.5 14.4875 12.4625 14.325 12.45 14.1625C12.45 14.1625 12.4875 14.2688 12.5125 14.2313V14.225L12.4875 14.1125C12.4625 14.0563 12.4625 14.0375 12.4875 14.0375H12.5125L12.4937 13.9625C12.4687 13.9313 12.45 13.8938 12.4375 13.8563L12.4125 13.7375L12.375 13.5C12.3875 13.475 12.3937 13.45 12.4 13.4188C12.4062 13.3938 12.3937 13.3688 12.3687 13.3563C12.3625 13.3563 12.3625 13.3563 12.3562 13.3563L12.325 13.4625C12.3125 13.3375 12.3062 13.2125 12.3062 13.0813L12.3687 13.0188C12.3687 13.0188 12.4125 13.0563 12.4125 13.0188C12.4187 12.975 12.4062 12.9313 12.3812 12.9H12.3625L12.3187 12.8875C12.3187 12.7938 12.325 12.6938 12.3312 12.6063L12.3812 12.5563L12.4125 12.4813L12.4312 12.3563C12.4437 12.3313 12.4625 12.3063 12.4875 12.2938C12.4937 12.2438 12.4937 12.2063 12.5 12.175L12.4875 12.1063C12.4937 12.1 12.4937 12.0875 12.5 12.075C12.5 12.0625 12.5125 12.05 12.5125 12.025C12.5187 12 12.5125 11.975 12.4875 11.9688H12.4812H12.475L12.4437 12.075C12.4312 11.95 12.35 11.8813 12.35 11.75L12.3875 11.7063L12.4062 11.6813C12.4062 11.6813 12.45 11.7188 12.45 11.6813C12.4562 11.6375 12.4437 11.5938 12.4187 11.5625H12.4L12.3812 11.5563L12.3562 11.55C12.3562 11.4688 12.3125 11.4 12.3187 11.3188C12.3187 11.3063 12.3187 11.2875 12.3187 11.275L12.2312 11.1688L12.2625 11.0938L12.1562 10.9688C12.1687 10.9438 12.1875 10.9188 12.2125 10.9063C12.2187 10.85 12.1312 10.8 12.1312 10.7688L12.1375 10.6875C12.0437 10.65 12.2062 10.6313 12.1125 10.6188C12.1125 10.6188 12.1437 10.5625 12.0062 10.425C11.8687 10.2875 11.8437 10.2938 11.8437 10.2938C11.8437 10.2938 11.8312 10.275 11.75 10.2375C11.6937 10.2125 11.625 10.2313 11.6 10.2875C11.5937 10.3063 11.5875 10.3188 11.5875 10.3375C11.5812 10.425 11.45 10.3625 11.45 10.3625C11.45 10.3625 11.3875 10.3813 11.3937 10.4938C11.3937 10.6 11.2875 10.4563 11.2375 10.3625C11.1875 10.2688 11.025 10.3313 10.9812 10.3313C10.9437 10.325 10.6937 10.1938 10.6625 10.3188C10.6437 10.4063 10.6375 10.4938 10.6562 10.5813C10.6562 10.5813 10.475 10.5188 10.4375 10.6875C10.425 10.7438 10.4125 10.8 10.4 10.8563C10.3562 11.1 10.3312 11.3438 10.3187 11.5938C10.325 11.6375 10.3375 11.6813 10.3437 11.7313C10.3687 11.9 10.175 11.9438 10.175 11.9438L10.2125 12.05C10.2062 12.1125 10.2 12.15 10.2 12.15C10.2 12.15 10.1562 12.1 10.1437 12.15C10.1312 12.2 10.1312 12.2 10.175 12.2688C10.2187 12.3375 10.225 12.2125 10.2437 12.2688C10.2562 12.3438 10.2562 12.4188 10.2437 12.4938C10.2437 12.55 10.2437 12.6 10.2562 12.6563C10.2687 12.7313 10.25 12.7813 10.2562 12.85C10.2625 12.9 10.275 12.9375 10.275 12.9938V13.0875C10.2625 13.1938 10.2312 13.3063 10.225 13.3563C10.2187 13.4 10.225 13.5813 10.175 13.5875C10.125 13.5938 10.1125 13.7063 10.1562 13.7938H10.0875V13.975L10.0687 14.1375L10.0625 14.1563H9.99374L9.95624 14.2938L9.97499 14.3563C9.94374 14.425 9.91249 14.4875 9.86874 14.55L9.79999 14.575C9.87499 14.7063 9.93749 14.8375 9.98124 14.9813C10.0062 15.0688 10.025 15.1563 10.0375 15.2438C10.0375 15.275 10.0437 15.2938 10.05 15.3188C10.0562 15.3688 10.0687 15.4188 10.0812 15.4625L10.1187 15.5688C10.1187 15.6313 10.1062 15.6688 10.1062 15.6688C10.1062 15.6688 10.075 15.6375 10.0625 15.6563C10.0562 15.6625 10.0562 15.6625 10.05 15.6688C10.0437 15.6875 10.0437 15.7063 10.05 15.7188C10.0625 15.7438 10.075 15.7625 10.0875 15.7875C10.1312 15.8563 10.1375 15.7375 10.1562 15.7875C10.1687 15.8625 10.1687 15.9375 10.1562 16.0125C10.15 16.0688 10.1562 16.1188 10.1687 16.175C10.1812 16.25 10.1625 16.3 10.1687 16.3688C10.175 16.4188 10.1812 16.4625 10.1875 16.5125V16.6C10.175 16.675 10.1625 16.75 10.1437 16.825C10.1437 16.8375 10.1375 16.8563 10.1375 16.8625C10.1375 16.9313 10.125 17 10.1062 17.0688C10.1187 17.1063 10.1375 17.1375 10.15 17.175C10.175 17.2625 10.1875 17.35 10.2062 17.4375C10.2125 17.5125 10.2312 17.5813 10.25 17.6563L10.2875 17.7625C10.2812 17.825 10.275 17.8625 10.275 17.8625C10.275 17.8625 10.2312 17.8125 10.2187 17.8625C10.2062 17.9125 10.2062 17.9125 10.25 17.9813C10.2937 18.05 10.3 17.9313 10.3187 17.9813V18C10.325 18.0688 10.325 18.1375 10.3187 18.2063C10.3187 18.2625 10.3187 18.3125 10.3312 18.3688C10.3437 18.4438 10.325 18.4938 10.3312 18.5625C10.3375 18.6125 10.3437 18.65 10.35 18.7063V18.7125V18.7375C10.3562 18.8125 10.3687 18.8813 10.3937 18.9563L10.4312 19.0625C10.425 19.125 10.4187 19.1625 10.4187 19.1625C10.4187 19.1625 10.375 19.1125 10.3625 19.1625C10.35 19.2125 10.35 19.2125 10.3937 19.2813C10.4375 19.35 10.4437 19.2313 10.4625 19.2813C10.475 19.3563 10.475 19.4313 10.4625 19.5063C10.4562 19.5625 10.4625 19.6125 10.475 19.6688C10.4875 19.7438 10.4687 19.7938 10.475 19.8688C10.4812 19.9125 10.4875 19.9625 10.4937 20.0125V20.1063C10.4812 20.2125 10.45 20.325 10.4437 20.375C10.4375 20.4188 10.4437 20.6 10.3937 20.6063C10.3437 20.6125 10.3312 20.725 10.375 20.8125H10.3062V20.9938L10.2875 21.1563L10.2812 21.175H10.2125L10.175 21.3188L10.1937 21.3813C10.1625 21.4438 10.1312 21.5063 10.0875 21.5688C10.1 21.6438 10.1312 21.6 10.175 21.675C10.225 21.7438 10.2937 21.7938 10.3687 21.8313C10.35 21.9188 10.3375 22.0063 10.3437 22.1C10.3437 22.2938 10.3437 22.1 10.3937 22.3188C10.4437 22.5375 10.5312 22.475 10.5 22.6688C10.475 22.7625 10.4812 22.8688 10.5125 22.9625C10.5437 23 10.575 23.0375 10.6 23.0813C10.6187 23.125 10.65 23.1625 10.6812 23.1938C10.6812 23.1938 10.7 23.275 10.8312 23.2625C10.9625 23.25 10.8 23.3688 10.875 23.35C11.0625 23.4188 11.275 23.4125 11.4625 23.3438C11.6125 23.3063 11.5687 23.2313 11.725 23.2813C11.8125 23.3125 11.6562 23.325 11.9687 23.3938C12.0625 23.4125 12.0375 23.4375 12.1375 23.3438C12.1625 23.2813 12.1937 23.2188 12.2312 23.1625C12.3 23.1313 12.2062 23.0438 12.3 23.0563C12.3312 22.8938 12.3562 22.725 12.375 22.55L12.425 22.3688L12.4687 22.0313L12.4812 21.975C12.4062 21.8438 12.5437 21.4875 12.5437 21.4875C12.5437 21.4875 12.625 21.725 12.6375 21.3688C12.6437 21.1563 12.6125 20.95 12.5437 20.75C12.5187 20.4938 12.5312 20.2375 12.5812 19.9813C12.625 19.7688 12.625 19.5438 12.575 19.3313L12.5187 18.3563C12.5 18.275 12.4812 18.2 12.4625 18.125H12.5312L12.5375 18.1063L12.5562 17.975V17.825H12.625C12.5812 17.7563 12.6 17.6625 12.6437 17.6563C12.6875 17.65 12.6875 17.5063 12.6937 17.4625C12.7 17.4188 12.7312 17.3313 12.7437 17.2438C12.7437 17.2188 12.7437 17.1938 12.7437 17.1688C12.7437 17.1313 12.7375 17.0875 12.725 17.05C12.7125 17 12.7312 16.9563 12.725 16.8938Z" fill="#0041E6"/>
<path d="M17.3563 16.7375C17.3438 16.6938 17.3375 16.65 17.3438 16.6C17.3563 16.5375 17.35 16.475 17.3375 16.4125C17.3188 16.3688 17.3125 16.475 17.2688 16.4125C17.225 16.35 17.225 16.3563 17.2313 16.3125C17.2438 16.2688 17.2875 16.3125 17.2875 16.3125L17.3 16.2313L17.2625 16.1438C17.2438 16.0875 17.225 16.025 17.2188 15.9625C17.2063 15.8875 17.1875 15.8125 17.1625 15.7438L17.1 15.625C17.1313 15.4313 17.1563 15.225 17.1813 15.0125H17.1063L17.15 14.5L17.1625 14.4438C17.1 14.2875 17.0625 14.1313 17.0438 13.9625C17.0438 13.9625 17.0813 14.0688 17.1063 14.0313V14.025L17.0813 13.9125C17.0563 13.8563 17.0563 13.8313 17.0813 13.8313H17.1L17.0813 13.75C17.0563 13.7188 17.0375 13.6813 17.025 13.6438L17.0063 13.525L16.9563 13.275C16.9688 13.25 16.975 13.225 16.9813 13.1938C16.9875 13.1688 16.975 13.1438 16.95 13.1313C16.9438 13.1313 16.9438 13.1313 16.9375 13.1313L16.9125 13.2375C16.9 13.1125 16.8875 12.9875 16.8875 12.85L16.95 12.7875C16.95 12.7875 16.9938 12.825 16.9938 12.7875C17 12.75 16.9875 12.7063 16.9625 12.675H16.9438L16.9 12.6625L16.9125 12.375L16.9625 12.325L16.9938 12.2438L17.0125 12.1188C17.025 12.0938 17.0438 12.0688 17.0688 12.0563L17.0813 11.9375L17.0688 11.8688L17.0813 11.8375L17.0938 11.7875C17.1063 11.7625 17.0938 11.7375 17.0688 11.7313H17.0625H17.0563L17.025 11.8375C17.0125 11.7125 16.9313 11.6438 16.9313 11.5125L16.975 11.4688L16.9938 11.45C16.9938 11.45 17.0375 11.4875 17.0375 11.45C17.0438 11.4063 17.0313 11.3625 17.0063 11.3313H16.9875L16.9688 11.325L16.9438 11.3188C16.9438 11.2375 16.9 11.1625 16.9063 11.0875V11.0438L16.8188 10.9375L16.85 10.8625L16.7438 10.7375C16.7563 10.7125 16.775 10.6938 16.8 10.675C16.8125 10.6188 16.7188 10.5688 16.725 10.5375L16.7375 10.4563C16.6438 10.4188 16.8063 10.4 16.7125 10.3875C16.7125 10.3875 16.7438 10.3313 16.6125 10.1938C16.4813 10.0563 16.4563 10.0625 16.4563 10.0625C16.4563 10.0625 16.4438 10.0438 16.3625 10.0063C16.3063 9.97502 16.2375 9.99376 16.2063 10.05C16.2 10.0688 16.1938 10.0813 16.1938 10.1C16.1875 10.1875 16.0563 10.125 16.0563 10.125C16.0563 10.125 15.9938 10.1438 15.9938 10.2563C15.9938 10.3688 15.8875 10.2125 15.8438 10.1188C15.7938 10.025 15.6375 10.0813 15.5938 10.075C15.55 10.0688 15.3125 9.92501 15.275 10.0563C15.25 10.1438 15.2438 10.2375 15.2625 10.325C15.2625 10.325 15.0813 10.25 15.0438 10.4313L15 10.6063C14.9563 10.8563 14.925 11.1063 14.9063 11.3625L14.9313 11.5063C14.9563 11.6813 14.7563 11.725 14.7563 11.725L14.7938 11.8313L14.7813 11.9375C14.7813 11.9375 14.7375 11.8875 14.725 11.9375C14.7125 11.9875 14.7125 11.9875 14.7563 12.0625C14.8 12.1375 14.8063 12.0063 14.825 12.0625C14.8375 12.1375 14.8375 12.2188 14.825 12.2938C14.825 12.35 14.825 12.4063 14.8375 12.4563C14.85 12.5375 14.8313 12.5875 14.8375 12.6563C14.8438 12.7125 14.8563 12.7438 14.8563 12.8V12.8938C14.8438 13 14.8125 13.1188 14.8063 13.1688C14.8 13.2125 14.8063 13.4 14.7563 13.4063C14.7063 13.4125 14.7 13.5313 14.7375 13.6125H14.6688V13.8L14.65 13.9688L14.6438 13.9938H14.575L14.5438 14.1375L14.5625 14.2C14.5313 14.2688 14.5 14.3375 14.4563 14.4L14.3875 14.425C14.4625 14.5563 14.525 14.7 14.575 14.8438C14.6 14.9313 14.6188 15.025 14.6313 15.1125L14.6438 15.1875C14.65 15.2375 14.6625 15.2875 14.675 15.3375L14.7125 15.4438L14.7063 15.55C14.7063 15.55 14.675 15.5188 14.6563 15.5375C14.65 15.5438 14.65 15.55 14.6438 15.5563C14.6375 15.575 14.6375 15.5938 14.6438 15.6125C14.6563 15.6375 14.6688 15.6563 14.6813 15.6813C14.725 15.75 14.7313 15.625 14.75 15.6813C14.7625 15.7563 14.7688 15.8313 14.7563 15.9125C14.7563 15.9688 14.7563 16.025 14.7688 16.075C14.7813 16.1563 14.7625 16.2063 14.7688 16.275C14.7813 16.325 14.7875 16.3688 14.7875 16.4188V16.5125C14.7813 16.5938 14.7625 16.6875 14.75 16.7438L14.7438 16.7875C14.7438 16.8625 14.7375 16.9313 14.7188 17.0063L14.7625 17.1188C14.7875 17.2063 14.8063 17.3 14.8188 17.3875C14.825 17.4625 14.8438 17.5375 14.8688 17.6063L14.9063 17.7125L14.8938 17.8188C14.8938 17.8188 14.85 17.7688 14.8375 17.8188C14.825 17.8688 14.8313 17.8688 14.875 17.9375C14.9188 18.0063 14.925 17.8813 14.9438 17.9375V17.9563C14.95 18.025 14.95 18.0938 14.9438 18.1625C14.9438 18.2188 14.9438 18.275 14.9563 18.325C14.9688 18.4063 14.9563 18.4563 14.9625 18.525C14.9688 18.575 14.9813 18.6125 14.9813 18.6688V18.6813V18.7063C14.9875 18.7813 15.0063 18.8563 15.025 18.925L15.0625 19.0313L15.0563 19.1375C15.0563 19.1375 15.0125 19.0875 15 19.1375C14.9875 19.1875 14.9875 19.1875 15.0375 19.2563C15.0813 19.325 15.0875 19.2 15.1063 19.2563C15.1188 19.3313 15.125 19.4063 15.1125 19.4875C15.1125 19.5438 15.1125 19.6 15.125 19.65C15.1375 19.7313 15.1188 19.7813 15.125 19.85C15.1313 19.9 15.1438 19.9375 15.1438 19.9938V20.0875C15.1375 20.1938 15.1 20.3125 15.1 20.3563C15.0938 20.4 15.1 20.5813 15.05 20.5938C15 20.6 14.9938 20.7188 15.0313 20.8H14.9625V20.9875L14.9438 21.15L14.9375 21.1688H14.8625L14.8313 21.3125L14.85 21.375C14.8188 21.4375 14.7813 21.5 14.7438 21.5625C14.7563 21.6375 14.7875 21.6 14.8313 21.6688C14.8813 21.7375 14.95 21.7875 15.025 21.825C15.0063 21.9125 14.9938 22.0063 15 22.0938C15 22.2875 15 22.0938 15.05 22.3188C15.1 22.5438 15.1875 22.475 15.1563 22.6688C15.1313 22.7688 15.1375 22.8688 15.1688 22.9625C15.2 23 15.2313 23.0375 15.2563 23.0813C15.275 23.125 15.3 23.1625 15.3375 23.1938C15.3375 23.1938 15.3563 23.275 15.4875 23.2625C15.6188 23.25 15.45 23.3688 15.5313 23.35C15.7188 23.425 15.925 23.425 16.1188 23.35C16.2688 23.3125 16.225 23.2375 16.3875 23.2938C16.475 23.325 16.3188 23.3375 16.625 23.4125C16.7188 23.4313 16.6875 23.4563 16.7938 23.3625C16.8188 23.3 16.85 23.2375 16.8875 23.1813C16.9563 23.15 16.8688 23.0563 16.9563 23.075C16.9875 22.9063 17.0125 22.7313 17.0375 22.5563L17.0875 22.3688L17.1313 22.025L17.1438 21.9688C17.0625 21.8313 17.2 21.4688 17.2 21.4688C17.2 21.4688 17.2813 21.7125 17.2938 21.3438C17.3 21.125 17.2625 20.9125 17.1875 20.7125C17.1625 20.45 17.175 20.1875 17.2125 19.925C17.2563 19.7063 17.25 19.4813 17.1938 19.2625L17.125 18.2688L17.0688 18.0313H17.1375L17.1438 18.0125L17.1938 17.85V17.6875H17.2625C17.2188 17.6188 17.2313 17.525 17.2813 17.5188C17.3313 17.5125 17.325 17.3625 17.325 17.325C17.325 17.2875 17.3625 17.1875 17.3688 17.1V17.025C17.3625 16.9875 17.3563 16.9438 17.35 16.9063C17.35 16.8438 17.3688 16.8063 17.3563 16.7375Z" fill="#0041E6"/>
<path d="M22.0187 15.5688C22.0062 15.5313 22.0062 15.4938 22.0125 15.4563C22.025 15.4063 22.025 15.35 22.0125 15.3C21.9937 15.2625 21.9875 15.35 21.9437 15.3C21.9 15.25 21.9 15.25 21.9125 15.2188C21.925 15.1875 21.9687 15.2188 21.9687 15.2188L21.9812 15.15L21.95 15.0813C21.9312 15.0313 21.9187 14.9813 21.9125 14.9313C21.9 14.8688 21.8875 14.8063 21.8625 14.75L21.8062 14.6438C21.8437 14.4875 21.8812 14.3188 21.9125 14.1438H21.8375L21.8937 13.725L21.9062 13.675C21.85 13.55 21.8125 13.4125 21.8 13.275C21.8 13.275 21.8312 13.3625 21.8625 13.3375L21.8375 13.2438C21.8187 13.1938 21.8125 13.1813 21.8375 13.1813H21.8625L21.8437 13.1188C21.8187 13.0938 21.8 13.0625 21.7875 13.0313L21.775 12.925L21.7312 12.7188C21.7437 12.7 21.75 12.675 21.7625 12.6563C21.775 12.6063 21.725 12.6 21.725 12.6L21.6937 12.6875C21.6875 12.5813 21.6812 12.4813 21.6812 12.375L21.7437 12.325C21.7437 12.325 21.7812 12.3563 21.7875 12.325C21.7937 12.2875 21.7875 12.25 21.7562 12.2188H21.7312L21.6875 12.2063L21.7062 11.9688L21.7562 11.9313L21.7875 11.8688L21.8062 11.7625C21.8187 11.7438 21.8437 11.725 21.8625 11.7125L21.875 11.6125L21.8625 11.5563L21.875 11.5313L21.8875 11.4875C21.8937 11.4688 21.8875 11.4438 21.8687 11.4375H21.8625H21.85L21.8187 11.525C21.8125 11.4188 21.7312 11.3625 21.7312 11.25L21.775 11.2188L21.7937 11.2C21.7937 11.2 21.8375 11.2313 21.8375 11.2C21.8437 11.1625 21.8375 11.125 21.8062 11.0938H21.7875L21.7687 11.0875L21.7437 11.0813C21.7437 11.0125 21.7 10.95 21.7062 10.8875V10.875L21.625 10.7875L21.6562 10.725L21.55 10.6188C21.5625 10.6 21.5812 10.5813 21.6062 10.5688C21.6125 10.5188 21.525 10.4813 21.5312 10.45L21.5437 10.3875C21.45 10.3563 21.6125 10.3375 21.5187 10.3313C21.5187 10.3313 21.55 10.2813 21.4125 10.1688C21.275 10.05 21.2562 10.0563 21.2562 10.0563C21.2312 10.0313 21.2 10.0188 21.1625 10.0063C21.1062 9.97502 21.0375 9.99376 21.0062 10.05C21 10.0625 20.9937 10.075 20.9937 10.0875C20.9875 10.1625 20.8562 10.1063 20.8562 10.1063C20.8562 10.1063 20.7937 10.125 20.7937 10.2125C20.7937 10.3 20.6875 10.175 20.6437 10.1C20.5937 10.0188 20.4375 10.0688 20.3937 10.0625C20.35 10.0563 20.1125 9.93751 20.075 10.0438C20.05 10.1125 20.0437 10.1875 20.0625 10.2625C20.0625 10.2625 19.8812 10.2063 19.8437 10.3438L19.8 10.4875C19.7562 10.6875 19.725 10.8938 19.7062 11.1L19.725 11.2188C19.7437 11.3625 19.55 11.3938 19.55 11.3938L19.5812 11.4813L19.5687 11.5625C19.5687 11.5625 19.525 11.5188 19.5125 11.5625C19.5 11.6063 19.5 11.6063 19.5437 11.6688C19.5875 11.7313 19.5937 11.625 19.6125 11.6688C19.625 11.7313 19.625 11.7938 19.6125 11.8563C19.6062 11.9 19.6125 11.9438 19.6187 11.9938C19.625 12.0563 19.6062 12.1 19.6187 12.1563C19.625 12.1938 19.6312 12.2375 19.6312 12.275L19.625 12.35C19.6125 12.4375 19.575 12.5375 19.5687 12.575C19.5625 12.6125 19.5625 12.7625 19.5125 12.7688C19.4625 12.775 19.45 12.875 19.4875 12.9375H19.4187V13.0938L19.4 13.2313L19.3937 13.25H19.3187L19.2812 13.3688L19.3 13.4188C19.2687 13.475 19.2312 13.5313 19.1875 13.5813L19.1187 13.6C19.1875 13.7063 19.25 13.825 19.2937 13.9438C19.3125 14.0188 19.3312 14.0938 19.3437 14.1688L19.3562 14.2313C19.3625 14.275 19.3687 14.3125 19.3875 14.35L19.4187 14.4375L19.4062 14.5188C19.4062 14.5188 19.375 14.4938 19.3625 14.5063C19.3562 14.5063 19.3562 14.5125 19.35 14.5188C19.3437 14.5313 19.3437 14.55 19.35 14.5625C19.3625 14.5813 19.3687 14.6 19.3875 14.6188C19.4312 14.6813 19.4375 14.575 19.4562 14.6188C19.4687 14.6813 19.4687 14.7438 19.4562 14.8063C19.45 14.85 19.4562 14.9 19.4625 14.9438C19.4687 15.0063 19.45 15.05 19.4625 15.1063C19.4687 15.1438 19.475 15.1875 19.475 15.225V15.3C19.4625 15.3625 19.45 15.425 19.4312 15.4875L19.425 15.5188C19.425 15.5813 19.4125 15.6375 19.3937 15.7L19.4375 15.7938C19.4562 15.8688 19.475 15.9438 19.4875 16.0188C19.4937 16.0813 19.5062 16.1438 19.525 16.2L19.5562 16.2875L19.5437 16.3688C19.5437 16.3688 19.5 16.325 19.4875 16.3688C19.475 16.4125 19.475 16.4125 19.5187 16.475C19.5625 16.5375 19.5687 16.4313 19.5875 16.475V16.4938C19.5937 16.55 19.5937 16.6063 19.5875 16.6625C19.5812 16.7063 19.5875 16.75 19.5937 16.8C19.6 16.8625 19.5812 16.9063 19.5937 16.9625C19.6 17 19.6062 17.0438 19.6062 17.0813V17.0938V17.1125C19.6125 17.175 19.625 17.2375 19.6437 17.2938L19.675 17.3813L19.6625 17.4625C19.6625 17.4625 19.6187 17.4188 19.6062 17.4625C19.5937 17.5063 19.5937 17.5063 19.6375 17.5688C19.6812 17.6313 19.6875 17.525 19.7062 17.5688C19.7187 17.6313 19.7187 17.6938 19.7062 17.7563C19.7 17.8 19.7062 17.85 19.7125 17.8938C19.7187 17.9563 19.7 18 19.7125 18.0563C19.7187 18.0938 19.725 18.1375 19.725 18.175V18.25C19.7125 18.3375 19.675 18.4375 19.6687 18.475C19.6625 18.5125 19.6625 18.6625 19.6125 18.6688C19.5625 18.675 19.55 18.7688 19.5875 18.8375H19.5187V18.9938L19.5 19.1313L19.4937 19.15H19.4187L19.3812 19.2688L19.4 19.3188C19.3687 19.375 19.3312 19.425 19.2937 19.475C19.3062 19.5375 19.3375 19.5063 19.375 19.5625C19.4312 19.6188 19.4937 19.6625 19.5687 19.6938C19.5437 19.7625 19.5375 19.8375 19.5375 19.9188C19.5375 20.0813 19.5375 19.9188 19.5875 20.1063C19.6375 20.2938 19.7187 20.2375 19.6812 20.4C19.6562 20.4813 19.6625 20.5688 19.6875 20.6438C19.7187 20.675 19.75 20.7125 19.775 20.75C19.7937 20.7875 19.825 20.8188 19.8562 20.8438C19.8562 20.8438 19.875 20.9125 20 20.9C20.1312 20.8938 19.9625 20.9875 20.0375 20.9688C20.225 21.0313 20.4312 21.0313 20.625 20.9688C20.775 20.9375 20.7312 20.875 20.8937 20.925C20.9812 20.95 20.825 20.9563 21.1312 21.0188C21.225 21.0375 21.1937 21.0563 21.3062 20.9813C21.3312 20.9313 21.3687 20.8813 21.4062 20.8313C21.475 20.8063 21.3875 20.725 21.475 20.7438C21.5062 20.6063 21.5375 20.4688 21.5625 20.3188L21.6187 20.1688L21.675 19.8875L21.6875 19.8375C21.6125 19.725 21.7562 19.4313 21.7562 19.4313C21.7562 19.4313 21.8312 19.6313 21.8562 19.3313C21.8687 19.1563 21.8375 18.975 21.7687 18.8125C21.75 18.6 21.7687 18.3813 21.8187 18.175C21.8687 18 21.8687 17.8125 21.8187 17.6313L21.7812 16.8125L21.7312 16.6188H21.8L21.8062 16.6063L21.825 16.4938V16.3563H21.875C21.8375 16.3 21.85 16.2188 21.8937 16.2188C21.9375 16.2188 21.9437 16.0938 21.95 16.0625C21.9562 16.0313 21.9937 15.9563 22.0062 15.8813V15.8188C22.0062 15.7875 22 15.7563 21.9937 15.7188C22.0125 15.6563 22.025 15.625 22.0187 15.5688Z" fill="#0041E6"/>
<path d="M2.7875 7.64376C2.78125 7.63751 2.78125 7.63751 2.78125 7.63751C2.78125 7.63751 2.7875 7.63751 2.7875 7.64376Z" fill="#0041E6"/>
<path d="M0.368738 10.2688C0.343738 10.3313 0.343738 10.4 0.374988 10.4625C0.406238 10.4875 0.431238 10.5125 0.462488 10.5438C0.487488 10.575 0.512488 10.6 0.549988 10.6188C0.549988 10.6188 0.568738 10.6688 0.693738 10.6625C0.824988 10.6563 0.662488 10.7313 0.731238 10.7188C0.924988 10.7625 1.12499 10.7625 1.31874 10.7188C1.46874 10.7 1.42499 10.6438 1.58749 10.6813C1.67499 10.7 1.51874 10.7063 1.82499 10.75C1.91874 10.7625 1.88749 10.775 1.99999 10.7188C2.02499 10.6813 2.05624 10.6438 2.09374 10.6125C2.16249 10.5938 2.07499 10.5375 2.16249 10.55C2.19374 10.4438 2.22499 10.3438 2.24374 10.2375L2.29999 10.125L2.35624 9.91876L2.36874 9.88126C2.29374 9.79376 2.44374 9.58126 2.44374 9.58126C2.44374 9.58126 2.51874 9.73126 2.54374 9.51251C2.55624 9.38126 2.53124 9.24376 2.46874 9.12501C2.45624 8.96251 2.48124 8.80001 2.53749 8.65001C2.59374 8.52501 2.60624 8.38126 2.56874 8.24376L2.57499 7.63126L2.53124 7.59376L2.59999 7.60626H2.60624L2.62499 7.60001V7.58751L2.68749 7.61251C2.64999 7.59376 2.66874 7.59376 2.71249 7.61251C2.75624 7.63126 2.75624 7.62501 2.76249 7.62501L2.81249 7.65001L2.79999 7.63751C2.79374 7.63751 2.78749 7.62501 2.79374 7.63126L2.73124 7.56876C2.69374 7.52501 2.69374 7.52501 2.69999 7.53751L2.74999 7.58751L2.76249 7.60001L2.73124 7.56876C2.71874 7.55626 2.71249 7.54376 2.70624 7.53126L2.68124 7.48126L2.65624 7.42501C2.69374 7.45001 2.72499 7.48126 2.74999 7.51876L2.72499 7.45001C2.74374 7.46876 2.75624 7.48751 2.76874 7.50626V7.51876C2.78124 7.48126 2.74374 7.45626 2.81249 7.43751L2.93749 7.40626C2.93749 7.40626 2.86874 7.44376 2.88749 7.46876L2.96249 7.44376C2.99999 7.41876 3.01249 7.41876 3.01249 7.44376V7.46876L3.06249 7.45001C3.08124 7.42501 3.10624 7.40626 3.13124 7.39376L3.21249 7.37501L3.37499 7.32501C3.39374 7.33751 3.40624 7.34376 3.42499 7.35001C3.46249 7.36251 3.46874 7.30626 3.46874 7.30626L3.40624 7.27501C3.48749 7.26251 3.57499 7.25626 3.65624 7.25001L3.69999 7.31251C3.69999 7.31251 3.68124 7.35626 3.69999 7.35626C3.73124 7.36251 3.75624 7.35001 3.77499 7.32501V7.30626L3.78124 7.26251L3.96874 7.27501L3.99999 7.32501L4.05624 7.35626L4.14374 7.37501C4.16249 7.38751 4.17499 7.40626 4.18749 7.43126L4.26249 7.44376L4.30624 7.43126L4.32499 7.44376L4.35624 7.45626C4.38749 7.46876 4.39374 7.43751 4.39374 7.42501V7.41876L4.32499 7.38751C4.40624 7.37501 4.44999 7.29376 4.53124 7.29376L4.56249 7.33126L4.57499 7.35001C4.57499 7.35001 4.55624 7.39376 4.57499 7.39376C4.60624 7.40001 4.63749 7.38751 4.65624 7.36251V7.34376V7.32501V7.30001C4.71249 7.30001 4.76249 7.25626 4.80624 7.25626H4.83749L4.91249 7.17501L4.96874 7.20626L5.04374 7.10001C5.06249 7.11251 5.07499 7.13126 5.08749 7.15626C5.12499 7.16251 5.14999 7.07501 5.17499 7.07501L5.23124 7.08126C5.24999 6.98751 5.27499 7.14376 5.27499 7.05626C5.27499 7.05626 5.31874 7.08751 5.39374 6.95001C5.47499 6.81251 5.46874 6.78751 5.46874 6.78751C5.48124 6.75626 5.49374 6.72501 5.49999 6.69376C5.51874 6.61251 5.48124 6.53751 5.42499 6.53126C5.36874 6.52501 5.39999 6.39376 5.39999 6.39376C5.38749 6.35626 5.34999 6.33126 5.31249 6.33751C5.24374 6.33751 5.33124 6.23126 5.38749 6.18126C5.44374 6.13126 5.39374 5.97501 5.39374 5.93126C5.39374 5.88751 5.46249 5.64376 5.37499 5.61251C5.31874 5.58751 5.26249 5.58751 5.20624 5.60626C5.20624 5.60626 5.23749 5.42501 5.13124 5.38751L5.01874 5.35001C4.86249 5.31251 4.70624 5.28126 4.54999 5.26876L4.46249 5.29376C4.35624 5.31876 4.31874 5.12501 4.31874 5.12501L4.25624 5.16251L4.19374 5.15001C4.19374 5.15001 4.22499 5.10626 4.19374 5.09376C4.16249 5.08126 4.16249 5.08126 4.11874 5.13126C4.07499 5.18126 4.15624 5.18126 4.11874 5.20001C4.07499 5.21251 4.02499 5.21251 3.97499 5.20001C3.93749 5.19376 3.90624 5.20001 3.86874 5.21251C3.81874 5.22501 3.78749 5.20626 3.74374 5.21251C3.71249 5.21876 3.68749 5.22501 3.65624 5.23126H3.59999C3.53124 5.21876 3.46249 5.18751 3.43124 5.18126C3.39999 5.17501 3.28749 5.18126 3.28749 5.13126C3.28124 5.08126 3.21249 5.06876 3.15624 5.11251V5.05001H3.04374L2.93749 5.02501L2.92499 5.01876V4.95001L2.83749 4.91251L2.79999 4.93126C2.73749 4.88751 2.66249 4.85626 2.59374 4.82501L2.56249 4.75626C2.39999 4.83126 2.23749 4.89376 2.06874 4.95001C1.96874 4.97501 1.86249 4.99376 1.75624 5.00626L1.66874 5.01876C1.61874 5.02501 1.56249 5.03751 1.51249 5.05626L1.40624 5.09376L1.29374 5.08751C1.30624 5.07501 1.29999 5.05001 1.28749 5.04376C1.28124 5.03751 1.27499 5.03751 1.26249 5.03126C1.24374 5.02501 1.21874 5.02501 1.19999 5.03126C1.18124 5.03751 1.16249 5.05001 1.14374 5.06876C1.08749 5.11251 1.23124 5.11251 1.18749 5.13751C1.10624 5.15001 1.01874 5.15626 0.931238 5.15001C0.874988 5.15001 0.812488 5.15626 0.756238 5.16251C0.674988 5.17501 0.606238 5.16251 0.537488 5.16876C0.499988 5.19376 0.524988 5.27501 0.512488 5.32501L0.499988 5.42501C0.481238 5.50001 0.456238 5.56876 0.424988 5.64376L0.412488 5.68126C0.399988 5.75626 0.381238 5.83126 0.349988 5.90001L0.374988 6.05626C0.381238 6.13126 0.387488 6.25001 0.387488 6.38126C0.381238 6.46876 0.387488 6.55626 0.393738 6.63751L0.412488 6.75626L0.387488 6.86251C0.387488 6.86251 0.349988 6.79376 0.331238 6.84376C0.312488 6.89376 0.312488 6.90001 0.343738 6.98751C0.374988 7.07501 0.399988 6.94376 0.412488 7.00626V7.03126C0.412488 7.10626 0.399988 7.18126 0.387488 7.25001C0.374988 7.30626 0.374988 7.36876 0.381238 7.42501C0.381238 7.48126 0.362488 7.51251 0.368738 7.55626C0.374988 7.58751 0.374988 7.61876 0.374988 7.65001V7.65626V7.67501C0.374988 7.72501 0.387488 7.77501 0.399988 7.82501L0.431238 7.90001L0.412488 7.96251C0.412488 7.96251 0.368738 7.92501 0.356238 7.96251C0.343738 8.00001 0.343738 7.99376 0.381238 8.04376C0.418738 8.09376 0.431238 8.01251 0.449988 8.04376C0.456238 8.09376 0.456238 8.14376 0.437488 8.19376C0.431238 8.23126 0.431238 8.26251 0.437488 8.30001C0.443738 8.35626 0.424988 8.38751 0.431238 8.43126C0.437488 8.46251 0.437488 8.49376 0.443738 8.52501L0.431238 8.58751C0.412488 8.65626 0.374988 8.73126 0.368738 8.76251C0.362488 8.79376 0.356238 8.91251 0.306238 8.91251C0.262488 8.91251 0.237488 8.98751 0.274988 9.05001H0.218738V9.16876L0.193738 9.27501L0.187488 9.26876H0.112488L0.0749878 9.36251L0.0937378 9.40626C0.0624878 9.45001 0.0249878 9.48751 -0.0125122 9.52501C-1.22068e-05 9.57501 0.0312378 9.55001 0.0687378 9.60001C0.124988 9.65001 0.187488 9.68751 0.256238 9.71251C0.231238 9.76876 0.224988 9.82501 0.224988 9.88751C0.224988 10.0188 0.224988 9.88751 0.268738 10.0375C0.312488 10.1875 0.399988 10.1375 0.368738 10.2688Z" fill="#0041E6"/>
<path d="M3.19996 24.975C3.18746 24.975 3.20621 24.9688 3.19996 24.975V24.975Z" fill="#0041E6"/>
<path d="M5.13123 26.25C5.09998 26.1062 5.05623 26.1562 5.07498 25.9937C5.08748 25.9062 5.10623 26.0625 5.11873 25.75C5.11873 25.6562 5.13748 25.6812 5.07498 25.5812C5.03748 25.5562 4.99998 25.5312 4.96873 25.4937C4.94998 25.4312 4.90623 25.5187 4.90623 25.4312L4.62498 25.3687L4.51873 25.3187L4.33123 25.275L4.29998 25.2625C4.23123 25.3437 4.03748 25.2062 4.03748 25.2062C4.03748 25.2062 4.16248 25.125 3.97498 25.1125C3.85623 25.1062 3.74373 25.1375 3.64373 25.2C3.50623 25.2187 3.36248 25.1937 3.23123 25.1437C3.16873 25.0625 3.16873 25.1437 3.15623 25.1437C3.12498 25.1562 3.08748 25.1687 3.04998 25.175L2.98748 25.2187L3.03748 25.1562V25.15V25.1312H3.02498L3.08748 25.0687C3.04998 25.1 3.06248 25.0812 3.10623 25.0437L3.15623 24.9937L3.20623 24.95L3.19373 24.9625C3.18748 24.9687 3.18123 24.9687 3.18748 24.9625L3.12498 25C3.08123 25.0125 3.08123 25.0125 3.09373 25.0062L3.14998 24.9875L3.16248 24.9812L3.13123 24.9875C3.11873 24.9875 3.10623 24.9875 3.09373 24.9875H3.04373C3.02498 24.9875 3.00623 24.9875 2.98748 24.9812C3.01873 24.8625 3.03748 24.7437 3.05623 24.6187L2.98123 24.625L3.01248 24.325L3.01873 24.2937C2.95623 24.2125 2.91248 24.125 2.88748 24.025C2.88748 24.025 2.92498 24.0812 2.95623 24.0625L2.92498 24C2.89998 23.9687 2.89373 23.9562 2.92498 23.9562H2.93748L2.91248 23.9125C2.88748 23.8937 2.86873 23.875 2.84998 23.8562L2.83123 23.7875L2.77498 23.6437C2.78748 23.6312 2.79373 23.6125 2.79998 23.5937C2.81248 23.5562 2.75623 23.5625 2.75623 23.5625L2.73123 23.625C2.71248 23.55 2.69998 23.4812 2.69373 23.4062L2.74998 23.3625C2.74998 23.3625 2.79373 23.3812 2.79373 23.3625C2.79373 23.3375 2.78123 23.3062 2.75623 23.2937H2.73748H2.69373C2.69373 23.2375 2.69373 23.1812 2.69373 23.125L2.73748 23.0937L2.76248 23.0437L2.77498 22.9687C2.78748 22.95 2.80623 22.9375 2.82498 22.925L2.83123 22.8562L2.82498 22.7937L2.83748 22.775L2.84998 22.7437C2.85623 22.7187 2.83123 22.7125 2.81248 22.7125L2.78748 22.775C2.77498 22.7 2.68123 22.6687 2.68123 22.5937L2.71873 22.5625L2.73748 22.55C2.73748 22.55 2.78123 22.5687 2.78123 22.55C2.78123 22.525 2.76873 22.4937 2.74373 22.4812H2.72498H2.70623H2.68123C2.68123 22.4312 2.63123 22.3937 2.63123 22.35V22.325L2.54373 22.2687L2.56873 22.2187L2.46248 22.1562C2.47498 22.1375 2.49373 22.125 2.51248 22.1125C2.51248 22.075 2.42498 22.0562 2.43123 22.0375L2.43748 21.9875C2.34373 21.975 2.49998 21.95 2.40623 21.95C2.40623 21.95 2.43748 21.9125 2.29373 21.8437C2.15623 21.775 2.13123 21.7812 2.13123 21.7812C2.09998 21.7687 2.06873 21.7562 2.03748 21.7562C1.95623 21.7437 1.88123 21.775 1.87498 21.8312C1.87498 21.8875 1.73748 21.8562 1.73748 21.8562C1.69998 21.8687 1.68123 21.9 1.68123 21.9375C1.68748 22 1.57498 21.925 1.51873 21.875C1.46248 21.825 1.30623 21.875 1.26248 21.875C1.21873 21.875 0.974976 21.8187 0.943726 21.8937C0.924976 21.9437 0.924976 22 0.943726 22.05C0.943726 22.05 0.762476 22.025 0.737476 22.1312L0.706226 22.2375C0.674976 22.3812 0.656226 22.5312 0.656226 22.675L0.687476 22.7562C0.718726 22.8562 0.524976 22.9 0.524976 22.9L0.562476 22.9625L0.556226 23.0187C0.556226 23.0187 0.506226 22.9937 0.499976 23.025C0.493726 23.0562 0.493726 23.0562 0.537476 23.0937C0.587476 23.1312 0.581226 23.0562 0.606226 23.0875C0.624976 23.1312 0.624976 23.175 0.618726 23.2187C0.618726 23.25 0.624976 23.2812 0.637476 23.3125C0.649976 23.3562 0.637476 23.3875 0.649976 23.4312C0.662476 23.4562 0.668726 23.4875 0.674976 23.5125V23.5687C0.662476 23.625 0.649976 23.675 0.637476 23.7312C0.637476 23.7625 0.643726 23.8625 0.599976 23.875C0.556226 23.8812 0.543726 23.95 0.587476 24H0.524976L0.531226 24.1062L0.518726 24.2062L0.512476 24.2187L0.437476 24.2125L0.406226 24.3L0.431226 24.3375C0.399976 24.3812 0.362476 24.425 0.324976 24.4625L0.256226 24.4812C0.331226 24.5437 0.399976 24.625 0.456226 24.7062C0.481226 24.7562 0.506226 24.8062 0.518726 24.8562L0.537476 24.9C0.543726 24.9312 0.556226 24.9562 0.574976 24.9812L0.612476 25.0375L0.606226 25.1C0.606226 25.1 0.574976 25.0875 0.556226 25.1C0.549976 25.1 0.549976 25.1062 0.549976 25.1125C0.549976 25.125 0.543726 25.1375 0.549976 25.1437L0.587476 25.1812C0.637476 25.2187 0.637476 25.1437 0.656226 25.175C0.674976 25.2437 0.681226 25.3187 0.674976 25.3937C0.674976 25.45 0.687476 25.5062 0.699976 25.5625C0.712476 25.6437 0.699976 25.6937 0.718726 25.7687C0.731226 25.8125 0.737476 25.8625 0.749976 25.9125V26.0062L0.731226 26.25V26.2937C0.743726 26.3687 0.749976 26.4437 0.749976 26.5187L0.818726 26.5937L0.949976 26.775C1.03123 26.8875 1.06873 26.9 1.06873 26.9L1.14998 26.95L1.20623 27.025C1.20623 27.025 1.14373 27.025 1.16873 27.0625C1.19373 27.1 1.19998 27.1 1.27498 27.1062C1.34998 27.1125 1.27498 27.0437 1.31873 27.0562L1.33748 27.0625C1.38748 27.0812 1.43748 27.1125 1.48123 27.1437C1.51873 27.1687 1.56248 27.1812 1.60623 27.1937C1.66248 27.2125 1.71873 27.2312 1.77498 27.2437C1.82498 27.25 1.85623 27.2562 1.90623 27.2625H1.91873H1.94373C2.01873 27.2687 2.09373 27.2625 2.16873 27.25L2.28123 27.2312L2.36873 27.25C2.36873 27.25 2.30623 27.2875 2.34998 27.3062C2.39373 27.3187 2.39373 27.3187 2.47498 27.2875C2.55623 27.25 2.44373 27.2375 2.49373 27.2187C2.56248 27.2125 2.63123 27.2187 2.69998 27.2375C2.74998 27.2437 2.79998 27.2437 2.84998 27.2375C2.92498 27.2375 2.96873 27.2562 3.03123 27.25L3.14373 27.2375L3.19998 27.2437C3.26873 27.2562 3.33748 27.2937 3.36248 27.3062C3.39373 27.3125 3.50623 27.3187 3.50623 27.3625C3.51248 27.4062 3.58123 27.425 3.63748 27.3875V27.4562H3.75623L3.86248 27.475L3.87498 27.4812V27.55L3.96873 27.5875L4.00623 27.5687C4.04998 27.6 4.08748 27.6375 4.12498 27.675C4.16873 27.6625 4.14373 27.6312 4.18748 27.5875C4.23123 27.5312 4.26248 27.4625 4.28123 27.3937C4.33748 27.4125 4.39373 27.4187 4.44998 27.4125C4.56873 27.4125 4.44998 27.4125 4.58748 27.3562C4.72498 27.3 4.68123 27.2125 4.79998 27.2437C4.86248 27.2625 4.92498 27.2562 4.98123 27.2187C4.99998 27.1875 5.02498 27.1562 5.04998 27.125C5.07498 27.1 5.09998 27.0687 5.11248 27.0375C5.11248 27.0375 5.16248 27.0187 5.14373 26.8875C5.12498 26.7562 5.21248 26.9187 5.19373 26.8437C5.21248 26.6375 5.19373 26.4375 5.13123 26.25Z" fill="#0041E6"/>
<path d="M3.1875 24.975C3.19375 24.9625 3.20625 24.9625 3.1875 24.975V24.975Z" fill="#0041E6"/>
<path d="M31.9688 6.18126C31.9625 6.10001 31.9813 6.03126 31.9688 5.93751C31.9625 5.87501 31.9563 5.80626 31.9625 5.74376C31.975 5.65626 31.975 5.56251 31.9625 5.47501C31.9438 5.42501 31.9375 5.57501 31.8938 5.51251C31.85 5.45001 31.85 5.45626 31.8625 5.39376C31.875 5.33126 31.9188 5.36251 31.9188 5.36251L31.9313 5.23751L31.9 5.13126C31.8813 5.05626 31.8625 4.98126 31.8563 4.90626C31.8438 4.81876 31.8313 4.73126 31.8063 4.64376C31.7375 4.63751 31.6688 4.64376 31.6 4.65626C31.375 4.58751 31.125 4.52501 30.85 4.46251L30.8 4.53126L30.1375 4.39376L30.0625 4.37501C29.8375 4.40626 29.6063 4.41876 29.375 4.41876C29.375 4.41876 29.5188 4.40001 29.4813 4.36876H29.475L29.3125 4.38126C29.2313 4.40001 29.2375 4.40001 29.2313 4.37501V4.35001L29.1688 4.36251C29.1438 4.38126 29.1125 4.40001 29.0813 4.41251L28.9875 4.42501L28.7938 4.45626C28.775 4.44376 28.7563 4.43126 28.7313 4.42501C28.6875 4.40626 28.6813 4.46251 28.6813 4.46251L28.7625 4.49376C28.6625 4.49376 28.5688 4.50001 28.4625 4.49376L28.4125 4.43126C28.4125 4.43126 28.4438 4.39376 28.4125 4.38751C28.3813 4.38126 28.3438 4.38751 28.3188 4.41251V4.43126L28.3063 4.47501L28.0875 4.45001L28.05 4.40001L28.0063 4.37501L27.9 4.35001C27.8813 4.33751 27.8625 4.31251 27.85 4.29376L27.7625 4.26876L27.7063 4.28126L27.6813 4.26876L27.6438 4.25001C27.6125 4.23751 27.6 4.26251 27.5938 4.28126V4.28751L27.6875 4.31251C27.5875 4.31876 27.5313 4.40001 27.4313 4.40001L27.3938 4.36251L27.375 4.34376C27.375 4.34376 27.4063 4.30626 27.375 4.30001C27.3438 4.29376 27.3063 4.30626 27.2813 4.33126V4.35001V4.36876L27.275 4.39376C27.2125 4.39376 27.1563 4.43751 27.0938 4.43126H27.0625L26.9813 4.51876L26.9188 4.48751L26.8188 4.59376C26.8 4.58126 26.7813 4.56251 26.7688 4.53751C26.725 4.53126 26.6875 4.61876 26.6625 4.61876L26.6 4.61251C26.575 4.70626 26.55 4.55001 26.55 4.63751C26.55 4.63751 26.5063 4.60626 26.4 4.74376C26.2938 4.88126 26.3063 4.90626 26.3063 4.90626C26.2875 4.93751 26.275 4.96876 26.2688 5.00001C26.2438 5.08126 26.2813 5.16251 26.35 5.16251C26.4188 5.16876 26.375 5.30001 26.375 5.30001C26.3938 5.34376 26.4375 5.36876 26.4813 5.35626C26.5625 5.35626 26.45 5.46251 26.3875 5.51251C26.3188 5.56251 26.3688 5.72501 26.3688 5.76876C26.3688 5.80626 26.275 6.05626 26.3688 6.08751C26.4313 6.10626 26.5 6.11251 26.5625 6.09376C26.5625 6.09376 26.5188 6.27501 26.6438 6.31251L26.7688 6.35001C26.9438 6.39376 27.125 6.41876 27.3063 6.43751L27.4125 6.41876C27.5375 6.40001 27.5625 6.59376 27.5625 6.59376L27.6375 6.56251L27.7063 6.57501C27.7063 6.57501 27.6688 6.61876 27.7063 6.63126C27.7438 6.64376 27.7438 6.64376 27.7938 6.60001C27.8438 6.55626 27.7563 6.55001 27.7938 6.53126C27.85 6.51876 27.9 6.51876 27.9563 6.53126C27.9938 6.53751 28.0375 6.53751 28.075 6.53126C28.1313 6.52501 28.1688 6.54376 28.2188 6.53126C28.2563 6.52501 28.2875 6.51876 28.325 6.51876L28.3875 6.52501C28.4625 6.54376 28.5438 6.58126 28.575 6.58751C28.6063 6.59376 28.7375 6.60001 28.7375 6.65001C28.7375 6.70001 28.8188 6.71876 28.8813 6.68126V6.75001L29.0125 6.75626C29.0438 6.76251 29.075 6.76876 29.1125 6.78126V6.78751L29.1063 6.85626L29.1125 6.89376L29.125 6.87501C29.125 6.91251 29.1188 6.94376 29.1125 6.98126L29.0875 7.05001C29.1063 6.98751 29.1375 6.93126 29.1813 6.88126C29.2 6.86251 29.2188 6.85001 29.2375 6.83751L29.25 6.83126L29.2938 6.80626L29.3375 6.77501V6.78751L29.2938 6.83126L29.2875 6.83751L29.3313 6.80626C29.3813 6.76876 29.3688 6.76251 29.3938 6.74376C29.4188 6.72501 29.4313 6.73751 29.4188 6.76251C29.4063 6.78751 29.4188 6.77501 29.425 6.78126C29.4375 6.78751 29.4188 6.81251 29.425 6.81876C29.4375 6.82501 29.4375 6.82501 29.4438 6.83126V6.85001C29.4313 6.87501 29.4125 6.89376 29.4 6.91251L29.3938 6.92501C29.3875 6.94376 29.375 6.95626 29.3625 6.96876H29.4063C29.425 6.97501 29.4438 6.98751 29.4563 7.00626C29.4688 7.02501 29.4813 7.03751 29.4938 7.05001C29.5063 7.05001 29.5188 7.09376 29.525 7.11876L29.5125 7.19376C29.5125 7.19376 29.4688 7.15626 29.4563 7.19376C29.4438 7.23126 29.4438 7.23126 29.4875 7.28751C29.5313 7.34376 29.5375 7.25001 29.5563 7.28751V7.30001C29.5625 7.35001 29.5625 7.40001 29.55 7.45626C29.5438 7.50001 29.55 7.53751 29.5563 7.58126C29.5625 7.63751 29.5438 7.67501 29.5563 7.73126C29.5625 7.76876 29.5688 7.80001 29.5688 7.83751V7.85001V7.86876C29.575 7.92501 29.5875 7.98126 29.6063 8.03126L29.6375 8.11251L29.625 8.18751C29.625 8.18751 29.5813 8.15001 29.5688 8.18751C29.5563 8.22501 29.5563 8.22501 29.6 8.28126C29.6438 8.33751 29.65 8.24376 29.6688 8.28126C29.6813 8.33751 29.6813 8.39376 29.6688 8.45001C29.6625 8.49376 29.6688 8.53126 29.675 8.57501C29.6813 8.63126 29.6625 8.66876 29.675 8.72501C29.6813 8.76251 29.6875 8.79376 29.6875 8.83126V8.90001C29.675 8.98126 29.6375 9.06251 29.6313 9.10001C29.625 9.13126 29.6188 9.26876 29.575 9.27501C29.525 9.28126 29.5125 9.36251 29.55 9.42501H29.4563V9.56251L29.4375 9.68751L29.4313 9.70001H29.3625L29.325 9.80626L29.3438 9.85626C29.3125 9.90626 29.275 9.95001 29.2375 9.99376C29.25 10.05 29.2813 10.0188 29.3188 10.075C29.375 10.1313 29.4375 10.1688 29.5125 10.2C29.4875 10.2625 29.4813 10.3313 29.4813 10.4C29.4813 10.5438 29.4813 10.4 29.525 10.5688C29.5688 10.7375 29.6563 10.6938 29.6188 10.8313C29.5938 10.9 29.5938 10.9813 29.6188 11.05C29.65 11.075 29.675 11.1063 29.7 11.1438C29.7188 11.175 29.75 11.2063 29.7813 11.2313C29.7813 11.2313 29.8 11.2938 29.925 11.2875C30.0563 11.2813 29.8875 11.3625 29.9625 11.35C30.15 11.4063 30.3563 11.4125 30.55 11.3625C30.7 11.3375 30.6563 11.2813 30.8188 11.325C30.9063 11.35 30.75 11.3563 31.0563 11.4188C31.15 11.4375 31.1188 11.45 31.2313 11.3875C31.2625 11.3375 31.2938 11.2938 31.3375 11.2563C31.4063 11.2375 31.3188 11.1625 31.4063 11.1813C31.4375 11.0563 31.4688 10.9313 31.4938 10.8L31.55 10.6688L31.6063 10.4188L31.6188 10.375C31.5438 10.2688 31.6938 10.0125 31.6938 10.0125C31.6938 10.0125 31.7688 10.1938 31.7938 9.92501C31.8063 9.76251 31.7813 9.60626 31.7125 9.45626C31.7 9.26251 31.7188 9.06876 31.7688 8.88126C31.8188 8.72501 31.825 8.55001 31.7813 8.39376L31.75 7.65626L31.7063 7.47501H31.775L31.7813 7.46251L31.8063 7.35626V7.18751H31.875C31.8438 7.15001 31.8438 7.08751 31.8875 7.05626C31.8938 7.05001 31.8938 7.05001 31.9 7.04376C31.9438 7.03751 31.95 6.82501 31.9563 6.76251C31.9625 6.70001 32 6.56251 32.0188 6.43126L32.025 6.31876C31.9813 6.28126 31.975 6.24376 31.9688 6.18126Z" fill="#0041E6"/>
<path d="M31.625 26.2625C31.5875 26.175 31.5875 26.175 31.6062 26.1313C31.625 26.0875 31.6625 26.1563 31.6625 26.1563C31.6687 26.125 31.675 26.0938 31.6812 26.0625L31.65 25.9438L31.6 25.7062C31.5812 25.6125 31.5625 25.5187 31.5375 25.425L31.475 25.2687L31.5062 24.9188L31.5375 24.7125H31.4625L31.5 24.375L31.5125 24.3375C31.45 24.2438 31.4062 24.1375 31.3875 24.025C31.3875 24.025 31.425 24.0938 31.45 24.0688L31.4187 23.9938C31.3937 23.9563 31.3937 23.9438 31.4187 23.9438H31.4437L31.425 23.8937C31.4 23.875 31.3812 23.85 31.3625 23.825L31.3437 23.7438L31.2937 23.5812C31.3062 23.5625 31.3125 23.55 31.3187 23.525C31.3312 23.4875 31.275 23.4875 31.275 23.4875L31.25 23.5625C31.2375 23.4813 31.225 23.3938 31.2187 23.3063L31.275 23.2625C31.275 23.2625 31.3187 23.2875 31.3187 23.2625C31.325 23.2313 31.3062 23.2 31.2812 23.1813H31.2625L31.2187 23.175L31.225 22.9813L31.2687 22.95L31.3 22.8937L31.3187 22.8063C31.3312 22.7875 31.35 22.7688 31.375 22.7625L31.3812 22.6813L31.3687 22.6375L31.3812 22.6188L31.3937 22.5812C31.4062 22.55 31.375 22.5438 31.3625 22.5438H31.35L31.325 22.6188C31.3125 22.5375 31.225 22.4938 31.2187 22.4125L31.2562 22.3813L31.275 22.3688C31.275 22.3688 31.3187 22.3875 31.3187 22.3688C31.325 22.3375 31.3062 22.3063 31.2812 22.2875H31.2625H31.25H31.225C31.225 22.2313 31.175 22.1813 31.1812 22.1313V22.0812L31.0937 22.0125L31.125 21.9562L31.0187 21.875C31.0312 21.8563 31.05 21.8375 31.075 21.8312C31.0812 21.7937 30.9875 21.7688 30.9937 21.7438L31 21.6875C30.9062 21.6688 31.0625 21.6437 30.975 21.6437C30.975 21.6437 31.0062 21.6 30.8687 21.5187C30.7312 21.4375 30.7062 21.4438 30.7062 21.4438C30.675 21.425 30.6437 21.4188 30.6125 21.4125C30.5312 21.3938 30.45 21.4312 30.45 21.4875C30.45 21.55 30.3125 21.5125 30.3125 21.5125C30.275 21.525 30.25 21.5625 30.2562 21.6063C30.2562 21.6813 30.15 21.5875 30.1 21.525C30.05 21.4688 29.8875 21.5125 29.8437 21.5125C29.8 21.5125 29.5562 21.4375 29.525 21.525C29.5062 21.5813 29.5062 21.6438 29.525 21.7C29.525 21.7 29.3437 21.6688 29.3125 21.7813L29.2812 21.9C29.2437 22.0625 29.225 22.225 29.2187 22.3937L29.2437 22.4875C29.275 22.6 29.075 22.6375 29.075 22.6375L29.1125 22.7062L29.1062 22.775C29.1062 22.775 29.0562 22.7438 29.05 22.775C29.0375 22.8063 29.0375 22.8063 29.0875 22.8563C29.1375 22.9063 29.1375 22.8188 29.1562 22.8563C29.1687 22.9063 29.175 22.9563 29.1625 23.0063C29.1625 23.0438 29.1687 23.075 29.1812 23.1125C29.1937 23.1625 29.1812 23.2 29.1875 23.2438C29.2 23.275 29.2062 23.3063 29.2062 23.3375V23.4C29.1937 23.4688 29.1687 23.55 29.1625 23.5812C29.1625 23.6125 29.1625 23.7312 29.1187 23.7375C29.075 23.7437 29.0625 23.8188 29.1062 23.875H29.0375L29.0437 24L29.0312 24.1063L29.025 24.1188H28.9562L28.925 24.2125L28.9437 24.25C28.9125 24.3 28.8812 24.3438 28.8375 24.3875L28.7687 24.4063C28.8437 24.4875 28.9062 24.575 28.9625 24.6688C28.9875 24.725 29.0062 24.7813 29.025 24.8438L29.0375 24.8937C29.0437 24.925 29.0562 24.9562 29.075 24.9875C29.0875 25.0062 29.1 25.0438 29.1125 25.0375L29.1 25.05C29.0875 25.05 29.0687 25.05 29.05 25.05H29.0375L29.075 25.0625C29.1187 25.075 29.125 25.0625 29.1437 25.0625C29.1625 25.0625 29.15 25.0938 29.1437 25.1C29.1375 25.1063 29.1437 25.1125 29.1562 25.1313C29.1687 25.15 29.15 25.15 29.1562 25.1625C29.1625 25.1688 29.1687 25.1813 29.175 25.1938V25.2062C29.1625 25.2125 29.1437 25.2188 29.1312 25.2188H29.125C29.125 25.2188 29.1187 25.2375 29.0937 25.225L29.1375 25.2687C29.1562 25.2937 29.1687 25.3188 29.1812 25.35L29.2 25.4188L29.2187 25.4625C29.2125 25.4625 29.2 25.4625 29.1875 25.4625C29.1875 25.4625 29.1562 25.4125 29.1375 25.4063C29.1187 25.4 29.1187 25.4 29.1437 25.4438C29.1687 25.4875 29.1937 25.4938 29.2 25.5125C29.2 25.525 29.1687 25.5125 29.15 25.5125C29.1312 25.5125 29.1312 25.5125 29.1187 25.525C29.1062 25.5375 29.0875 25.5188 29.075 25.525C29.0625 25.5312 29.0625 25.5375 29.05 25.5438C29.0375 25.5563 29.025 25.5687 29.0125 25.5875L29 25.6188L28.9687 25.6063C28.9687 25.6063 28.9687 25.5625 28.95 25.55C28.9312 25.5375 28.9375 25.5375 28.9312 25.5812C28.925 25.625 28.9562 25.6312 28.9437 25.65C28.9312 25.6688 28.9 25.6562 28.8812 25.65C28.8625 25.6438 28.8562 25.65 28.8375 25.6625C28.8187 25.675 28.8062 25.6563 28.75 25.6625C28.7187 25.6688 28.6875 25.675 28.6562 25.6813H28.5937C28.525 25.6688 28.4437 25.6313 28.4125 25.6313C28.3812 25.625 28.2625 25.625 28.2562 25.5812C28.25 25.5375 28.175 25.5188 28.1187 25.5563V25.4875H27.9937L27.8875 25.4688L27.875 25.4625V25.3937L27.7812 25.3563L27.7375 25.375C27.6937 25.3438 27.65 25.3062 27.6125 25.2687C27.5625 25.2812 27.5875 25.3125 27.5437 25.3563C27.4937 25.4125 27.4625 25.4812 27.4375 25.55C27.3812 25.525 27.3187 25.5188 27.2562 25.525C27.125 25.525 27.2562 25.525 27.1062 25.575C26.9562 25.625 27 25.7125 26.8687 25.675C26.8062 25.65 26.7375 25.6563 26.675 25.6875C26.65 25.7188 26.625 25.75 26.5937 25.775C26.5625 25.7938 26.5375 25.825 26.5187 25.8563C26.5187 25.8563 26.4625 25.875 26.475 26C26.4812 26.1313 26.4062 25.9625 26.4187 26.0375C26.3687 26.2313 26.3687 26.4313 26.4187 26.625C26.4437 26.775 26.4937 26.7312 26.4562 26.8937C26.4375 26.9812 26.4312 26.825 26.3812 27.1313C26.3687 27.225 26.35 27.1937 26.4125 27.3063C26.4562 27.3313 26.4937 27.3625 26.5312 27.4C26.55 27.4688 26.6125 27.3813 26.6 27.4688C26.7125 27.5 26.8187 27.525 26.9375 27.55L27.0562 27.6063L27.2812 27.6563L27.3187 27.6688C27.4062 27.5938 27.6437 27.7313 27.6437 27.7313C27.6437 27.7313 27.4875 27.8125 27.725 27.8312C27.8687 27.8437 28.0125 27.8125 28.1437 27.7438C28.3187 27.725 28.4875 27.7375 28.6562 27.7875C28.8062 27.825 28.9625 27.8375 29.1125 27.8188C29.1937 27.8125 29.2687 27.8063 29.35 27.7875C29.7312 27.8063 30.1062 27.75 30.4625 27.625C30.525 27.5875 30.5875 27.5438 30.6437 27.4938L30.6875 27.55H30.7062L30.8312 27.5C30.875 27.4688 30.9187 27.4375 30.9562 27.4063L31 27.4562C31.0312 27.3812 31.1125 27.3125 31.15 27.3438C31.1875 27.3688 31.2937 27.2438 31.325 27.2125C31.3875 27.1625 31.4437 27.1063 31.4937 27.0438L31.5312 26.975C31.55 26.9313 31.5625 26.8938 31.5687 26.85C31.5812 26.7875 31.6125 26.7562 31.6312 26.6813C31.6375 26.6312 31.6437 26.5813 31.6625 26.5313C31.6937 26.4625 31.7062 26.3875 31.7 26.3188C31.6812 26.2313 31.6562 26.35 31.625 26.2625Z" fill="#0041E6"/>
</g>
<defs>
<clipPath id="clip0_7664_50218">
<rect width="32" height="32" fill="white"/>
</clipPath>
</defs>
</svg>
