<svg width="32" height="32" viewBox="0 0 32 32" fill="none" xmlns="http://www.w3.org/2000/svg">
<g clip-path="url(#clip0_7664_50222)">
<path d="M31.95 8.78126C31.95 8.78126 31.9812 8.83751 31.9937 8.78126C32.0062 8.72501 32.0062 8.66251 31.9875 8.60626H31.9688L31.95 8.59376L31.925 8.58126C31.9437 8.46251 31.9062 8.35626 31.925 8.24376L31.9375 8.18751L31.875 8.02501L31.9188 7.91876L31.8375 7.73126C31.8562 7.70001 31.875 7.66876 31.9062 7.64376C31.925 7.56251 31.8438 7.48751 31.8563 7.43751L31.8813 7.32501C31.7938 7.26251 31.9562 7.25001 31.8687 7.22501C31.8687 7.22501 31.9125 7.15001 31.8062 6.93751C31.7 6.73126 31.6688 6.73751 31.6688 6.73751C31.6688 6.73751 31.6625 6.70626 31.5875 6.65001C31.5125 6.59376 31.425 6.65001 31.4062 6.77501C31.3875 6.90001 31.2688 6.80001 31.2625 6.80001C31.2438 6.76876 31.2312 6.74376 31.2062 6.71876C31.1312 6.67501 31.0625 6.63126 31 6.57501C30.9813 6.50001 30.8438 6.56251 30.8813 6.48126C30.675 6.40626 30.4563 6.35001 30.2313 6.28751L30.0063 6.20626L29.7313 6.14376C29.7938 6.07501 29.8125 5.97501 29.7812 5.88751L29.8188 5.48751L29.7938 5.38126L29.8563 5.39376H29.8625L29.8937 5.34376L29.9062 5.28126L29.9688 5.29376C29.9375 5.25626 29.9625 5.22501 30.0063 5.23126C30.05 5.23751 30.0625 5.18126 30.075 5.16876C30.1 5.14376 30.125 5.11876 30.1437 5.09376L30.1562 5.05626C30.1562 5.03751 30.1562 5.02501 30.1562 5.00626C30.1562 4.98126 30.175 4.96876 30.1688 4.94376C30.1688 4.91876 30.1625 4.90626 30.1688 4.88751C30.175 4.86876 30.2 4.83751 30.1812 4.81251C30.1687 4.79376 30.1562 4.83126 30.1187 4.80001C30.0812 4.76876 30.0812 4.76876 30.0938 4.75626C30.1063 4.74376 30.15 4.76876 30.15 4.76876L30.1688 4.73751L30.1437 4.69376C30.1312 4.66876 30.125 4.64376 30.1187 4.61251C30.1125 4.58126 30.1 4.54376 30.0875 4.51251L30.0438 4.45001C30.1 4.38126 30.15 4.30626 30.1875 4.23126L30.1187 4.21876L30.2188 4.03126L30.2313 4.01251C30.1875 3.95001 30.1688 3.87501 30.1688 3.80001C30.1688 3.80001 30.1938 3.85001 30.225 3.84376L30.2125 3.79376C30.2 3.76876 30.1938 3.75626 30.2188 3.76251L30.2437 3.76876L30.2313 3.73126C30.2125 3.71876 30.2 3.70001 30.1875 3.68126V3.62501L30.1688 3.51876C30.1813 3.51251 30.1938 3.50626 30.2 3.49376C30.2188 3.47501 30.1688 3.46251 30.1688 3.46251L30.1313 3.50001C30.1313 3.45001 30.1375 3.39376 30.1437 3.34376L30.2062 3.33126C30.2062 3.33126 30.2437 3.35001 30.25 3.33751C30.2563 3.31876 30.25 3.29376 30.2313 3.28126H30.2125L30.1688 3.26876C30.1813 3.23126 30.1937 3.19376 30.2062 3.15626L30.2563 3.15001L30.2938 3.12501L30.325 3.08126C30.3438 3.07501 30.3625 3.06876 30.3875 3.06876L30.4062 3.02501L30.3875 2.98751L30.4 2.98126L30.4188 2.96251C30.4313 2.95001 30.4062 2.93751 30.3937 2.93126H30.3875L30.35 2.96876C30.35 2.91876 30.275 2.87501 30.2875 2.81876L30.3312 2.81251H30.35C30.35 2.81251 30.3875 2.83126 30.3937 2.81876C30.4 2.80001 30.3937 2.77501 30.375 2.76251H30.3563L30.3375 2.75626L30.3125 2.75001C30.325 2.71876 30.2812 2.68126 30.3 2.64376L30.3062 2.62501L30.2313 2.56876L30.2687 2.54376L30.1812 2.46876C30.2 2.46251 30.2188 2.45626 30.2375 2.45626C30.25 2.43751 30.1687 2.40001 30.175 2.38751L30.1938 2.35626C30.1063 2.32501 30.2625 2.35001 30.175 2.32501C30.175 2.32501 30.2125 2.30626 30.0938 2.22501C30.05 2.18751 30 2.16251 29.95 2.14376C29.925 2.12501 29.8937 2.11251 29.8625 2.10626C29.8312 2.09376 29.7938 2.08751 29.7563 2.08751C29.6688 2.06876 29.5875 2.03751 29.5125 2.00001C29.4688 1.93751 29.3375 2.02501 29.3563 1.93751C29.1125 1.90626 28.8625 1.90626 28.6 1.89376L28.3312 1.86251H27.7437C27.5063 1.92501 27.2563 1.93751 27.0125 1.90626C27.0125 1.90626 27.35 1.76251 26.8188 1.84376C26.5063 1.88751 26.2062 1.98126 25.925 2.12501C25.5562 2.23126 25.1812 2.32501 24.8 2.39376C24.475 2.44376 24.1625 2.55626 23.875 2.71251C23.425 2.90626 22.975 3.11251 22.5438 3.34376L22.2437 3.54376L22.2125 3.48751H22.1875L22 3.56251L21.8 3.66876L21.7687 3.62501C21.6937 3.71251 21.5688 3.76251 21.5375 3.73126C21.5063 3.69376 21.3188 3.80626 21.2625 3.83751C21.2063 3.86876 21.0688 3.90626 20.95 3.96876L20.8438 4.02501C20.7938 4.05626 20.7438 4.09376 20.7 4.13751C20.6313 4.19376 20.5688 4.21251 20.4937 4.27501C20.4438 4.31876 20.3875 4.36251 20.3312 4.39376C20.2437 4.43751 20.1688 4.48751 20.1 4.55626C20.0562 4.60626 20.1875 4.52501 20.1375 4.61251C20.0938 4.70001 20.0938 4.70001 20.0312 4.72501C19.975 4.75001 20 4.68126 20 4.68126L19.8937 4.74376L19.8062 4.85001C19.8062 4.85001 19.7687 4.90001 19.6125 5.05001C19.5312 5.13126 19.4563 5.21251 19.3813 5.30001L19.275 5.46251C19.0187 5.63126 18.7687 5.81251 18.5312 6.00626L18.5812 6.05626C18.3875 6.21876 18.1938 6.38751 18.0063 6.56251L17.9375 6.61876C17.8188 6.83126 17.6875 7.03751 17.5438 7.23126C17.5438 7.23126 17.6187 7.09376 17.5625 7.10626V7.11251L17.4688 7.25626C17.4312 7.33751 17.4125 7.36251 17.3937 7.34376L17.375 7.33126L17.3125 7.43751C17.3 7.49376 17.2812 7.54376 17.2563 7.59376L17.1562 7.74376L16.9688 8.06876C16.9375 8.09376 16.9062 8.11876 16.875 8.14376C16.8125 8.20626 16.85 8.25001 16.85 8.25001L16.9688 8.13751L16.65 8.63751L16.5438 8.68751C16.5438 8.68751 16.5375 8.61876 16.5063 8.66251C16.4625 8.71251 16.4375 8.77501 16.4312 8.83751L16.45 8.85001L16.475 8.89376L16.3687 9.06251C16.2687 8.78126 16.1313 8.51251 15.95 8.27501C15.95 8.27501 15.6687 7.72501 15.4625 7.21876C15.3375 6.91251 15.1562 6.62501 14.925 6.38751C14.625 5.98751 14.2938 5.61251 13.9438 5.25626L13.6562 5.03751L13.7 4.98751L13.6875 4.96251L13.5562 4.80626C13.5062 4.75001 13.4437 4.70001 13.3875 4.65001L13.4312 4.60001C13.325 4.56251 13.2313 4.45626 13.2563 4.41251C13.2812 4.36876 13.1188 4.22501 13.0688 4.18126C13.025 4.14376 12.9375 4.01251 12.8438 3.92501L12.7563 3.85001C12.7063 3.81251 12.6562 3.78126 12.6062 3.75626C12.5312 3.71251 12.4938 3.66251 12.4125 3.61251C12.3563 3.58126 12.3 3.55001 12.2437 3.50626C12.175 3.44376 12.1 3.38751 12.0188 3.35001C11.9563 3.33126 12.075 3.41876 11.9812 3.40626C11.8875 3.39376 11.8875 3.39376 11.8438 3.35626C11.8 3.31876 11.875 3.31251 11.875 3.31251L11.7812 3.23751L11.6562 3.19376C11.5688 3.16251 11.4875 3.12501 11.4062 3.08126C11.2688 3.01876 11.1375 2.96876 11.0625 2.94376C10.9937 2.92501 10.9313 2.91251 10.8625 2.90001C10.5938 2.72501 10.3188 2.56876 10.0312 2.43126L10.0063 2.50001C9.76875 2.39376 9.53125 2.29376 9.29375 2.20626L9.20625 2.16876C8.9625 2.16251 8.725 2.13751 8.4875 2.10001C8.4875 2.10001 8.64375 2.10001 8.60625 2.06251H8.6L8.43125 2.05001C8.34375 2.05001 8.3125 2.05001 8.31875 2.02501V2.00001H8.20625C8.15 2.01251 8.1 2.02501 8.04375 2.02501L7.875 2.00001C7.75625 1.99376 7.63125 1.98751 7.5125 1.98751C7.48125 1.96876 7.44375 1.95626 7.40625 1.94376C7.325 1.91876 7.3125 1.96876 7.3125 1.96876L7.4625 2.01876L6.9125 1.96876L6.825 1.90001C6.825 1.90001 6.88125 1.86251 6.825 1.85626C6.76875 1.84376 6.70625 1.84376 6.65 1.86876V1.88751L6.61875 1.93126L6.2125 1.88751L6.15 1.83751L6.0375 1.80001L5.85 1.76876C5.81875 1.75626 5.7875 1.73751 5.75625 1.71251L5.5875 1.69376L5.48125 1.70001L5.4375 1.68751L5.36875 1.66876C5.30625 1.65626 5.2875 1.68751 5.28125 1.70001V1.70626L5.4375 1.73751C5.25625 1.74376 5.15 1.83126 4.95625 1.83126L4.89375 1.79376L4.8625 1.77501C4.8625 1.77501 4.9125 1.73751 4.8625 1.73126C4.8 1.72501 4.7375 1.73751 4.6875 1.76876V1.78751L4.68125 1.80626L4.66875 1.83126C4.55 1.83126 4.44375 1.88751 4.325 1.88751H4.2625L4.1125 1.99376L3.99375 1.97501L3.9375 2.00626C3.91875 2.00001 3.9 1.99376 3.8875 1.98751C3.8375 1.96876 3.78125 1.95626 3.725 1.95626C3.69375 1.95001 3.6625 1.94376 3.63125 1.94376C3.55 1.94376 3.475 1.96251 3.46875 1.99376C3.46875 2.02501 3.33125 2.01876 3.33125 2.01876C3.33125 2.01876 3.275 2.03126 3.275 2.07501C3.275 2.11876 3.16875 2.06876 3.11875 2.03751C3.06875 2.00626 2.90625 2.04376 2.86875 2.05001C2.83125 2.05001 2.58125 2.02501 2.55 2.07501C2.53125 2.10626 2.53125 2.15001 2.55 2.18126C2.55 2.18126 2.36875 2.17501 2.3375 2.24376L2.30625 2.31251C2.275 2.40626 2.25625 2.50626 2.25 2.61251L2.275 2.66251C2.3 2.72501 2.1125 2.76876 2.1125 2.76876L2.15 2.80626L2.14375 2.84376C2.14375 2.84376 2.1 2.83126 2.0875 2.85001C2.075 2.86876 2.08125 2.86876 2.125 2.89376C2.16875 2.91876 2.16875 2.86876 2.19375 2.88751C2.2125 2.90626 2.20625 2.95001 2.20625 2.97501C2.20625 3.00001 2.20625 3.00626 2.225 3.03751C2.24375 3.06876 2.225 3.08751 2.23125 3.11251C2.24375 3.13126 2.25 3.15001 2.25625 3.16876V3.18751C2.24375 3.22501 2.23125 3.26251 2.21875 3.30001C2.21875 3.31876 2.21875 3.38751 2.18125 3.40001C2.14375 3.41251 2.125 3.45626 2.16875 3.48126L2.1 3.48751L2.125 3.56251L2.1125 3.63126L2.10625 3.63751L2.04375 3.64376L2.00625 3.70626L2.025 3.72501C1.99375 3.75626 1.9625 3.78751 1.925 3.81876L1.85625 3.83751C1.925 3.87501 1.99375 3.91876 2.05625 3.97501C2.08125 4.00626 2.10625 4.03751 2.11875 4.07501L2.13125 4.10001C2.14375 4.11876 2.15625 4.13751 2.16875 4.15001L2.20625 4.18751L2.2 4.22501C2.1875 4.21876 2.16875 4.21876 2.15625 4.22501L2.15 4.23126V4.25001C2.1625 4.25626 2.175 4.26876 2.1875 4.26876C2.23125 4.28751 2.23125 4.24376 2.25625 4.25626C2.275 4.27501 2.26875 4.31876 2.26875 4.34376C2.26875 4.36876 2.275 4.37501 2.2875 4.40626C2.3 4.43751 2.2875 4.45626 2.3 4.48126C2.3125 4.50001 2.31875 4.51876 2.325 4.53126V4.56876C2.31875 4.60001 2.30625 4.63126 2.29375 4.66251V4.68126C2.29375 4.70001 2.29375 4.74376 2.275 4.76876L2.325 4.80626C2.35 4.83751 2.375 4.86876 2.39375 4.90001C2.40625 4.93126 2.425 4.95626 2.44375 4.98126L2.48125 5.01876L2.475 5.05626C2.475 5.05626 2.425 5.04376 2.41875 5.06251C2.4125 5.08126 2.4125 5.08126 2.45625 5.10626C2.5 5.13126 2.5 5.07501 2.51875 5.09376L2.525 5.10001C2.5375 5.12501 2.5375 5.15626 2.5375 5.18126C2.5375 5.20626 2.54375 5.21251 2.55625 5.24376C2.56875 5.27501 2.55625 5.29376 2.56875 5.31876C2.58125 5.33751 2.5875 5.35001 2.59375 5.36876V5.37501L2.6 5.38126C2.6125 5.41251 2.63125 5.43751 2.65625 5.45626L2.69375 5.49376L2.6875 5.53126C2.6875 5.53126 2.6375 5.51876 2.63125 5.54376C2.625 5.56251 2.625 5.56251 2.66875 5.58126C2.7125 5.60001 2.7125 5.55001 2.73125 5.56876C2.75 5.58751 2.75 5.63126 2.75 5.65626C2.75 5.68126 2.75625 5.68751 2.76875 5.71876C2.78125 5.75001 2.76875 5.76876 2.78125 5.79376C2.79375 5.81251 2.8 5.82501 2.80625 5.84376V5.88126C2.8 5.91876 2.7875 5.95001 2.775 5.98751H2.75C2.69375 5.98751 2.675 6.01251 2.66875 6.02501V6.06251L2.775 6.07501C2.775 6.08126 2.76875 6.08751 2.7625 6.09376C2.6375 6.14376 2.50625 6.18126 2.375 6.20626L2.3125 6.17501L2.28125 6.15626C2.28125 6.15626 2.325 6.11251 2.275 6.11251C2.21875 6.11251 2.1625 6.12501 2.1125 6.16251V6.18126L2.10625 6.20626L2.1 6.23126C1.9875 6.24376 1.89375 6.30001 1.78125 6.31251H1.725L1.5875 6.41876L1.475 6.41251L1.31875 6.54376C1.28125 6.53751 1.25 6.52501 1.21875 6.50626C1.1375 6.51251 1.0875 6.61251 1.04375 6.61876L0.93125 6.63126C0.9 6.73751 0.8375 6.58751 0.84375 6.67501C0.84375 6.67501 0.75625 6.66251 0.59375 6.83751C0.55625 6.88126 0.51875 6.92501 0.4875 6.96876H0.51875C0.48125 6.96876 0.20625 6.80626 0.2 6.98751C0.19375 7.11251 0.20625 7.23751 0.2375 7.36251C0.2375 7.36251 0.05 7.30001 0.04375 7.54376C0.04375 7.62501 0.0375 7.70626 0.0375 7.79376C0.03125 8.09376 0.05625 8.49376 0.08125 8.84376C0.09375 8.90001 0.1125 8.96251 0.13125 9.03751C0.16875 9.16251 0.1125 9.30001 0 9.36251L0.05 9.50626C0.05625 9.59376 0.05625 9.64376 0.05625 9.64376C0.05625 9.64376 0 9.58126 0 9.65001C0 9.71876 0 9.71876 0.05625 9.81251C0.1125 9.90626 0.09375 9.73126 0.125 9.80626C0.15 9.91251 0.1625 10.0188 0.16875 10.125C0.175 10.2 0.1875 10.275 0.20625 10.35C0.23125 10.4563 0.21875 10.5313 0.24375 10.625C0.25625 10.7 0.275 10.7438 0.2875 10.825C0.2875 10.8688 0.29375 10.9125 0.3 10.95C0.30625 11.1 0.29375 11.2688 0.3 11.3313C0.30625 11.3938 0.3375 11.65 0.29375 11.6688C0.25 11.6875 0.25625 11.8438 0.3125 11.9563L0.24375 11.9625L0.275 12.2188L0.2875 12.45V12.4813L0.225 12.4875L0.2125 12.6875L0.24375 12.7688C0.225 12.8688 0.2 12.9625 0.16875 13.0563L0.10625 13.1C0.20625 13.275 0.2875 13.4625 0.35625 13.6563C0.38125 13.7313 0.41875 13.8625 0.4625 14.025C0.46875 14.0688 0.48125 14.0938 0.4875 14.1313C0.5 14.2 0.51875 14.2688 0.54375 14.3313L0.59375 14.475C0.59375 14.5625 0.6 14.6125 0.6 14.6125C0.6 14.6125 0.56875 14.575 0.55 14.6C0.54375 14.6063 0.54375 14.6125 0.54375 14.625C0.54375 14.65 0.54375 14.675 0.55 14.7C0.5625 14.7313 0.58125 14.7625 0.6 14.7875C0.65625 14.8813 0.6375 14.7063 0.66875 14.7813C0.69375 14.8813 0.70625 14.9875 0.7125 15.0938C0.71875 15.1688 0.73125 15.2438 0.75 15.3188C0.775 15.425 0.7625 15.5 0.7875 15.5938C0.80625 15.6688 0.81875 15.7125 0.83125 15.7938C0.83125 15.8375 0.8375 15.8813 0.84375 15.925V16.25V16.3063C0.85625 16.4063 0.85625 16.5125 0.85 16.6125C0.86875 16.6625 0.89375 16.7063 0.9125 16.7625C0.9375 16.8375 0.975 16.9688 1.01875 17.1313C1.0375 17.2313 1.0625 17.3313 1.1 17.4313L1.15 17.575C1.15625 17.6625 1.15625 17.7125 1.15625 17.7125C1.15625 17.7125 1.1 17.65 1.1 17.7188C1.1 17.7875 1.1 17.7875 1.15 17.8813C1.2 17.975 1.1875 17.8 1.21875 17.875C1.225 17.8813 1.225 17.8938 1.225 17.9C1.24375 17.9938 1.25625 18.0938 1.2625 18.1875C1.26875 18.2625 1.28125 18.3375 1.3 18.4125C1.325 18.5188 1.3125 18.5938 1.3375 18.6875C1.35625 18.7625 1.36875 18.8063 1.38125 18.8875V18.9063L1.3875 18.9375C1.40625 19.0375 1.43125 19.1375 1.46875 19.2375L1.51875 19.3813C1.525 19.4688 1.525 19.5188 1.525 19.5188C1.525 19.5188 1.46875 19.4563 1.46875 19.525C1.46875 19.5938 1.46875 19.5938 1.525 19.6875C1.58125 19.7813 1.5625 19.6063 1.59375 19.6813C1.61875 19.7813 1.63125 19.8875 1.6375 19.9938C1.64375 20.0688 1.65625 20.1438 1.675 20.2188C1.7 20.325 1.6875 20.4 1.7125 20.4938C1.725 20.5688 1.74375 20.6125 1.75625 20.6938C1.75625 20.7375 1.7625 20.7813 1.76875 20.8188C1.775 20.9688 1.7625 21.1313 1.76875 21.2C1.775 21.2688 1.80625 21.5188 1.7625 21.5313C1.71875 21.5438 1.725 21.7063 1.78125 21.8188L1.7125 21.825L1.74375 22.0813L1.75625 22.3125V22.3438L1.6875 22.35L1.68125 22.5563L1.7125 22.6375C1.69375 22.7313 1.66875 22.8188 1.64375 22.9125C1.66875 23.0188 1.69375 22.9563 1.75 23.05C1.80625 23.1313 1.88125 23.2 1.96875 23.25C1.95625 23.375 1.95625 23.5063 1.96875 23.6375C2.00625 23.9063 1.96875 23.6375 2.05625 23.9438C2.14375 24.25 2.21875 24.15 2.21875 24.425C2.2125 24.5625 2.2375 24.7063 2.28125 24.8375C2.31875 24.8875 2.35625 24.9375 2.3875 24.9938C2.4125 25.05 2.45 25.1 2.49375 25.1438C2.5125 25.2063 2.5875 25.2438 2.65 25.2188C2.78125 25.1875 2.6375 25.3688 2.70625 25.3313C2.74375 25.3438 2.78125 25.35 2.81875 25.3563C2.8125 25.4313 2.79375 25.4188 2.90625 25.5063C2.975 25.5188 3.05 25.5438 3.1125 25.5688C3.15 25.6313 3.23125 25.5313 3.23125 25.6188C3.40625 25.625 3.575 25.6125 3.7625 25.6188L3.95625 25.6563L4.30625 25.6813L4.3625 25.6875C4.49375 25.5875 4.86875 25.7438 4.86875 25.7438C4.86875 25.7438 4.625 25.8188 4.9875 25.8438C5.20625 25.85 5.425 25.8313 5.6375 25.7875C5.90625 25.7875 6.175 25.8313 6.43125 25.9188C6.65 26 6.88125 26.0375 7.1125 26.0313C7.45625 26.1 7.80625 26.15 8.14375 26.2313L8.4 26.2563L8.38125 26.3188L8.4 26.3375L8.53125 26.3938L8.6875 26.4375L8.66875 26.5C8.75 26.4813 8.84375 26.525 8.8375 26.5688C8.83125 26.6125 8.975 26.6625 9.0125 26.6875C9.05 26.7063 9.13125 26.775 9.21875 26.8125L9.29375 26.8438C9.3375 26.8563 9.375 26.8625 9.41875 26.8688C9.48125 26.8813 9.5125 26.9125 9.58125 26.925C9.63125 26.9313 9.675 26.9438 9.71875 26.9625C9.775 27 9.8375 27.025 9.9 27.0375C9.95 27.0375 9.85 26.9938 9.925 26.975C10 26.9563 10 26.9625 10.0312 26.9875C10.0625 27.0125 10.0125 27.0375 10.0125 27.0375L10.0875 27.0813H10.1875C10.2563 27.0875 10.3188 27.1 10.3813 27.1188C10.4563 27.1375 10.5375 27.1563 10.6187 27.1625L10.7625 27.1688C10.9312 27.2938 11.1125 27.4188 11.3062 27.5375L11.3375 27.475C11.4937 27.5688 11.6438 27.6813 11.7937 27.7813L11.8375 27.8188C12.0125 27.85 12.1812 27.9 12.3438 27.975C12.3438 27.975 12.2312 27.95 12.2437 27.9875L12.3625 28.0313C12.425 28.0438 12.4437 28.0563 12.4312 28.075L12.4187 28.0938L12.5 28.125C12.5437 28.125 12.5813 28.1313 12.625 28.1375L12.7437 28.1938L12.9937 28.3C13.0125 28.325 13.0312 28.35 13.05 28.3688C13.0688 28.3938 13.1 28.3938 13.125 28.375L13.1313 28.3688L13.05 28.2813C13.175 28.3438 13.2875 28.4188 13.4 28.5L13.4187 28.5875C13.4187 28.5875 13.3625 28.6 13.3938 28.625C13.425 28.6563 13.4688 28.675 13.5188 28.675L13.5312 28.6563L13.5688 28.6313L13.8125 28.825L13.825 28.8938L13.8687 28.9688L13.9625 29.075C13.975 29.1 13.9812 29.1313 13.9812 29.1625L14.0688 29.25L14.1313 29.2875L14.1438 29.3125L14.175 29.3563C14.1875 29.3813 14.2188 29.3875 14.2375 29.375H14.2437H14.25L14.1812 29.2813C14.2875 29.3563 14.4 29.3438 14.5125 29.4313L14.5188 29.4938V29.525C14.5188 29.525 14.4688 29.525 14.4937 29.5563C14.5187 29.5938 14.5625 29.6125 14.6062 29.6188L14.6187 29.6L14.6375 29.5938L14.6625 29.5813C14.725 29.6438 14.8125 29.6563 14.8687 29.7188L14.9 29.75L15.0437 29.7625L15.0813 29.8375L15.25 29.8563C15.2563 29.8875 15.2625 29.9125 15.2563 29.9438C15.2875 29.9938 15.3875 29.9688 15.4125 29.9938L15.4688 30.0625C15.5625 30.025 15.4625 30.15 15.5375 30.0938C15.5375 30.0938 15.5563 30.1563 15.7563 30.175C15.9563 30.1938 15.9688 30.175 15.9688 30.175H16C16.0438 30.2563 16.1063 30.3688 16.1875 30.3188C16.2687 30.2688 16.3313 30.2063 16.3813 30.125C16.4125 30.2063 16.5063 30.2438 16.5875 30.2125C16.6 30.2063 16.6062 30.2063 16.6125 30.2L16.7625 30.0938C16.9313 29.9625 17.1687 29.8 17.3625 29.6375L17.45 29.525C17.5625 29.3938 17.725 29.5125 17.725 29.5125L17.7812 29.4188L17.8625 29.3625C17.8625 29.3625 17.8562 29.425 17.9 29.4063C17.9438 29.3875 17.9438 29.3813 17.9688 29.3C17.9937 29.2188 17.9 29.3 17.925 29.25C17.975 29.1938 18.0312 29.1438 18.1 29.1063C18.1438 29.075 18.1812 29.0375 18.2188 28.9938C18.275 28.9375 18.325 28.925 18.3813 28.875C18.4125 28.8375 18.45 28.8063 18.4875 28.7688L18.5625 28.7188C18.6562 28.6625 18.7687 28.625 18.8062 28.6C18.8438 28.575 19 28.475 19.0312 28.5063C19.0625 28.5375 19.1687 28.4875 19.2125 28.4125L19.25 28.4688L19.4 28.3625L19.5438 28.2875H19.5625L19.6 28.3438L19.7375 28.3L19.7812 28.25C19.8563 28.2438 19.9312 28.2438 20.0063 28.25L20.0625 28.3C20.1375 28.1688 20.225 28.05 20.325 27.9375C20.3875 27.875 20.4562 27.8188 20.5312 27.7625L20.5938 27.7188C20.6313 27.6875 20.675 27.6563 20.7062 27.625L20.7875 27.5438L20.8813 27.5063C20.8813 27.5063 20.8688 27.5438 20.8875 27.5563H20.9062C20.925 27.5563 20.9375 27.5438 20.9562 27.5375C20.975 27.5188 20.9875 27.5 21 27.475C21.0438 27.4063 20.9312 27.4563 20.9688 27.4125C21.0312 27.3625 21.1 27.3313 21.175 27.3063C21.225 27.2875 21.275 27.2625 21.3188 27.225C21.3875 27.1875 21.4375 27.1813 21.5 27.1438C21.5438 27.1188 21.575 27.0938 21.625 27.0688L21.7125 27.0313C21.7875 27.0063 21.8625 26.9875 21.9375 26.9813L21.9813 26.975C22.05 26.95 22.1187 26.9313 22.1875 26.925L22.275 26.8438C22.35 26.7875 22.425 26.7375 22.5063 26.6938C22.6562 26.6063 22.7 26.575 22.7 26.575L22.7875 26.5063L22.8875 26.4875C22.8875 26.4875 22.8563 26.5438 22.9062 26.5375C22.9562 26.5313 22.9563 26.5313 23.0125 26.4688C23.0688 26.4063 22.9438 26.4438 22.9937 26.4063L23.0125 26.3938C23.075 26.3625 23.1437 26.3438 23.2125 26.325C23.2687 26.3125 23.3188 26.2875 23.3687 26.2625C23.4438 26.2313 23.4937 26.2313 23.5625 26.2063C23.6063 26.1875 23.65 26.1625 23.7 26.15H23.7125L23.7313 26.1438C23.8063 26.1125 23.875 26.0813 23.9375 26.0375L24.0312 25.975L24.1375 25.9563C24.1375 25.9563 24.1 26.0125 24.15 26.0125C24.2 26.0125 24.2 26.0125 24.2625 25.95C24.3188 25.8875 24.2 25.9188 24.2437 25.8875C24.3188 25.8563 24.3937 25.8375 24.4688 25.8313C24.525 25.8188 24.575 25.8063 24.6313 25.7813C24.7063 25.7563 24.7625 25.7563 24.8312 25.7313C24.8812 25.7125 24.9125 25.6938 24.9688 25.6813L25.0625 25.6625C25.175 25.6563 25.2938 25.6625 25.3438 25.6625C25.3875 25.6625 25.575 25.625 25.5875 25.6625C25.6 25.7 25.7188 25.7 25.7938 25.6438L25.8062 25.7063L25.9937 25.675L26.1625 25.6688H26.1812L26.1938 25.7375L26.3375 25.75L26.3937 25.725C26.4625 25.7438 26.5312 25.7688 26.5938 25.8C26.6625 25.775 26.6187 25.7563 26.6875 25.6938C26.75 25.6375 26.7938 25.5625 26.825 25.4875C26.9188 25.5 27.0063 25.5 27.1 25.4875C27.2938 25.4688 27.1 25.4875 27.3188 25.4188C27.5375 25.35 27.4688 25.2625 27.6688 25.2875C27.7688 25.3063 27.875 25.3 27.9688 25.2625C28.0063 25.2313 28.0437 25.2 28.0875 25.1688C28.1313 25.15 28.1688 25.1188 28.2 25.0813C28.2688 25.1063 28.1375 25.2125 28.2 25.2C28.3625 25.3313 28.5812 25.3625 28.7812 25.2875C28.9375 25.2625 28.9062 25.1438 29.0562 25.25C29.1375 25.3063 28.9812 25.3 29.275 25.45C29.3625 25.4938 29.3313 25.5188 29.45 25.4063C29.4875 25.325 29.525 25.2438 29.575 25.1688C29.6438 25.1375 29.575 24.9938 29.6625 25.0313L29.8312 24.3125L29.9125 24.0625L30.025 23.5875L30.0438 23.5063C30.0438 23.2688 30.0938 23.0375 30.1938 22.8188C30.1938 22.8188 30.2313 23.1688 30.3125 22.6625C30.3625 22.3625 30.3687 22.0625 30.3312 21.7625C30.3562 21.3938 30.4188 21.025 30.5125 20.6688C30.6 20.3625 30.6375 20.05 30.625 19.7313L30.7563 18.3188L30.75 17.975L30.8188 17.9813L30.8312 17.9563L30.875 17.7688L30.9 17.5563L30.9688 17.5625C30.9438 17.4563 30.9688 17.325 31.0187 17.325C31.0687 17.325 31.0875 17.1188 31.1063 17.0563C31.1188 17 31.1688 16.875 31.1938 16.7438L31.2125 16.6375C31.2188 16.575 31.2125 16.5313 31.2125 16.4688C31.2125 16.3875 31.2375 16.3313 31.2437 16.2375C31.2437 16.175 31.2437 16.1063 31.2563 16.0438C31.2812 15.9563 31.2938 15.8688 31.2875 15.7813C31.275 15.7188 31.2563 15.8625 31.2188 15.775C31.1812 15.6875 31.1875 15.6875 31.2062 15.6313C31.225 15.575 31.2625 15.6375 31.2625 15.6375L31.2875 15.525L31.2687 15.3938C31.2562 15.3063 31.2563 15.2188 31.2625 15.1313C31.2625 15 31.2563 14.8813 31.25 14.8125L31.2188 14.6313C31.2875 14.3625 31.3562 14.0813 31.425 13.7813L31.3563 13.775L31.5 13.0625L31.5187 12.9813C31.4875 12.75 31.4812 12.5188 31.4937 12.2875C31.4937 12.2875 31.5063 12.4375 31.5438 12.3938V12.3875V12.225C31.5312 12.1438 31.5312 12.1125 31.5562 12.1125H31.5812V12C31.5625 11.95 31.55 11.8938 31.5438 11.8438L31.55 11.6688V11.3125C31.5687 11.2813 31.5812 11.2438 31.5938 11.2063C31.6187 11.125 31.5625 11.1125 31.5625 11.1125L31.5187 11.2625C31.5312 11.0813 31.55 10.9 31.5688 10.7125L31.6375 10.6313C31.6375 10.6313 31.6687 10.6875 31.6812 10.6313C31.7 10.575 31.6937 10.5125 31.675 10.4563H31.6562L31.6187 10.4313L31.6875 10.025L31.7437 9.96251L31.7875 9.85626L31.8312 9.67501C31.85 9.64376 31.8687 9.61251 31.9 9.58751L31.9312 9.42501V9.32501L31.95 9.28751L31.975 9.21876C31.9937 9.16251 31.975 9.13751 31.9562 9.13126H31.95L31.9 9.28126C31.9125 9.10001 31.8438 8.99376 31.8687 8.80626L31.9188 8.75001L31.95 8.78126ZM21.35 6.75626L21.4875 6.63751L21.5812 6.57501C21.6687 6.52501 21.7563 6.48126 21.8438 6.44376L21.8875 6.41876C21.9625 6.36876 22.0438 6.32501 22.1313 6.29376C22.1625 6.25626 22.1875 6.21876 22.225 6.18126C22.2812 6.13126 22.375 6.05001 22.4875 5.96251L22.7125 5.78751L22.8188 5.69376L22.9375 5.64376C22.9375 5.64376 22.9062 5.71251 22.9625 5.69376C23.025 5.67501 23.025 5.67501 23.0812 5.58751C23.1375 5.50626 23 5.57501 23.05 5.53126L23.0688 5.51251C23.1438 5.46251 23.225 5.42501 23.3062 5.39376C23.3687 5.36251 23.4312 5.33126 23.4875 5.28751C23.575 5.23126 23.6375 5.21876 23.7188 5.17501L23.8813 5.08751L23.8937 5.08126L23.9375 5.06251C24.0187 5.01876 24.1 4.96251 24.1812 4.91251L24.2938 4.83126L24.4188 4.79376C24.4188 4.79376 24.375 4.85626 24.4375 4.84376C24.5 4.83126 24.5 4.83126 24.5688 4.75626C24.6375 4.68126 24.4875 4.73751 24.5438 4.69376C24.6313 4.64376 24.725 4.61251 24.8188 4.58751C24.8875 4.56876 24.9562 4.54376 25.0187 4.50626C25.1125 4.46251 25.175 4.45626 25.2625 4.41876L25.4375 4.35001L25.55 4.31876C25.6687 4.29376 25.7812 4.28126 25.9 4.26876C25.9625 4.25626 26.1875 4.20001 26.2125 4.24376C26.2375 4.28751 26.375 4.26251 26.475 4.20001L26.4875 4.26251L26.7188 4.21251L26.925 4.18751H26.95L26.9625 4.25626H27.15L27.225 4.22501C27.3125 4.23751 27.3938 4.26251 27.475 4.28751C27.5625 4.25626 27.5125 4.23751 27.5938 4.18126C27.6437 4.15001 27.6812 4.10626 27.7125 4.05626V4.10626C27.7125 4.13751 27.6938 4.15626 27.6938 4.18126V4.24376L27.6812 4.27501C27.6625 4.30626 27.6437 4.33126 27.6187 4.35626L27.6063 4.36876C27.6 4.38126 27.5875 4.43126 27.5562 4.44376L27.5875 4.49376C27.6 4.53126 27.6125 4.56876 27.6125 4.60626C27.6125 4.63751 27.6187 4.66876 27.6313 4.70001L27.6562 4.75001L27.6375 4.78751C27.6375 4.78751 27.6 4.75626 27.5812 4.77501C27.5687 4.79376 27.5688 4.79376 27.6 4.83126C27.6313 4.86876 27.65 4.81876 27.6625 4.84376V4.85001C27.6625 4.88126 27.6562 4.90626 27.6437 4.93126C27.6312 4.95626 27.6375 4.96251 27.6437 4.99376C27.65 5.02501 27.625 5.04376 27.625 5.06876V5.13126V5.15626C27.625 5.18751 27.6312 5.21876 27.6437 5.25001L27.6688 5.30001L27.65 5.33751C27.65 5.33751 27.6125 5.30626 27.5938 5.32501C27.575 5.34376 27.5812 5.34376 27.6125 5.38126C27.65 5.41876 27.6625 5.36876 27.675 5.39376C27.6875 5.41876 27.6688 5.45626 27.6562 5.48126C27.6437 5.50626 27.65 5.51251 27.6562 5.54376C27.6625 5.57501 27.6375 5.59376 27.6375 5.61876V5.68126L27.625 5.71876C27.6063 5.75626 27.5625 5.79376 27.55 5.81251C27.5437 5.83126 27.525 5.90001 27.4813 5.89376C27.4375 5.88751 27.4188 5.92501 27.4438 5.96251H27.4125L27.375 5.95626V5.96251C27.1812 5.96876 26.9875 5.96251 26.7938 5.94376C26.5063 5.91251 26.2188 5.93751 25.9438 6.01876C25.525 6.08126 25.1063 6.15001 24.6938 6.22501L24.4062 6.33126L24.3937 6.26876H24.3687L24.2 6.27501L24.0125 6.31251L24 6.25001C23.9188 6.30626 23.8 6.31251 23.7875 6.26876C23.775 6.22501 23.5875 6.25626 23.5375 6.26876C23.4875 6.28126 23.3625 6.26876 23.2563 6.26876L23.1625 6.28126C23.1125 6.29376 23.0687 6.31251 23.0187 6.32501C22.95 6.35001 22.8938 6.34376 22.8188 6.36876C22.7688 6.39376 22.7125 6.40626 22.6562 6.41251C22.575 6.41876 22.5 6.43751 22.425 6.46251C22.375 6.49376 22.5 6.46876 22.4375 6.52501C22.375 6.58126 22.375 6.58126 22.325 6.58126C22.275 6.58126 22.3125 6.52501 22.3125 6.52501L22.25 6.56251L22.1437 6.61876C22.075 6.65626 22.0063 6.68751 21.9375 6.71251C21.85 6.74376 21.7625 6.78751 21.6812 6.82501L21.5438 6.91876C21.4 6.93126 21.2313 6.96251 21.075 6.98751L21.15 6.91251C21.2188 6.84376 21.2812 6.81876 21.35 6.75626ZM4.83125 3.84376C4.8875 3.83126 4.94375 3.81876 5 3.81876C5.11875 3.80001 5.23125 3.87501 5.26875 3.98751L5.4 3.95001L5.525 3.96251C5.525 3.96251 5.4625 4.00626 5.525 4.01876C5.5875 4.03126 5.5875 4.03126 5.675 3.99376C5.7625 3.95626 5.6125 3.94376 5.675 3.92501C5.76875 3.91251 5.8625 3.91876 5.95625 3.93126C6.025 3.93751 6.09375 3.93751 6.1625 3.93126C6.2625 3.93126 6.31875 3.95001 6.40625 3.95001H6.5875L6.7 3.96251C6.8125 3.98751 6.91875 4.01876 7.025 4.05626C7.0875 4.06876 7.3 4.10001 7.30625 4.15001C7.30625 4.19376 7.44375 4.23126 7.55 4.21251L7.5375 4.27501L7.75625 4.31251L7.94375 4.36876L7.96875 4.38126L7.95625 4.44376L8.1125 4.51876H8.1875C8.25625 4.56876 8.325 4.61876 8.38125 4.68126L8.3875 4.75626C8.55625 4.72501 8.725 4.71251 8.9 4.72501C9.00625 4.73126 9.1125 4.75001 9.2125 4.78126L9.29375 4.80001C9.35 4.81251 9.40625 4.82501 9.45625 4.83126L9.58125 4.84376L9.675 4.90001C9.675 4.90001 9.63125 4.91251 9.6375 4.93126C9.6375 4.93751 9.64375 4.94376 9.65 4.95001C9.6625 4.96251 9.68125 4.97501 9.7 4.97501H9.78125C9.86875 4.97501 9.75 4.90626 9.8125 4.91251C9.89375 4.93751 9.9625 4.97501 10.0312 5.02501C10.0813 5.05626 10.1313 5.08126 10.1875 5.10001C10.2688 5.13751 10.3125 5.19376 10.3938 5.23126C10.45 5.26251 10.5 5.28126 10.55 5.31251L10.6438 5.37501C10.7188 5.43751 10.7875 5.50001 10.85 5.57501L10.8875 5.60626C10.9563 5.65626 11.025 5.71876 11.0813 5.78751L11.2125 5.83751C11.275 5.86876 11.3813 5.92501 11.5 6.00001C11.675 6.11251 11.725 6.14376 11.725 6.14376L11.8438 6.20001L11.925 6.28751C11.925 6.28751 11.85 6.28126 11.8875 6.32501C11.925 6.37501 11.925 6.36876 12.0125 6.40001C12.1 6.43126 12 6.31876 12.0562 6.35001L12.075 6.36251C12.1375 6.41876 12.1938 6.47501 12.25 6.53751C12.2937 6.58751 12.3438 6.63126 12.3938 6.66876C12.4625 6.73126 12.4875 6.78751 12.55 6.84376C12.5938 6.88751 12.6313 6.91251 12.675 6.96251L12.6875 6.97501L12.7063 6.99376C12.85 7.13751 12.9 7.17501 12.9 7.17501L13.0063 7.25626L13.0688 7.36251C13.0688 7.36251 12.9937 7.34376 13.025 7.39376C13.05 7.45001 13.05 7.45001 13.1313 7.49376C13.2125 7.53751 13.1313 7.41251 13.1875 7.45626C13.25 7.52501 13.3 7.60001 13.3438 7.68126C13.3813 7.73751 13.4187 7.78751 13.4625 7.84376C13.475 7.86251 13.4875 7.88126 13.5 7.90001C13.2625 7.71876 12.9937 7.58126 12.7125 7.49376C12.3062 7.31251 11.8938 7.13751 11.4688 6.97501L11.15 6.90001L11.175 6.83751L11.1562 6.82501L10.9875 6.73751L10.7875 6.66251L10.8125 6.60001C10.7063 6.60001 10.5875 6.54376 10.6 6.49376C10.6063 6.44376 10.4125 6.38126 10.3562 6.35626C10.3062 6.33126 10.1875 6.25626 10.075 6.21251L9.96875 6.17501C9.9125 6.16251 9.85625 6.15001 9.8 6.14376C9.71875 6.13126 9.6625 6.10001 9.575 6.08126C9.5125 6.07501 9.45 6.06251 9.3875 6.04376C9.3 6.01251 9.2125 5.98751 9.125 5.98126C9.0625 5.98126 9.2 6.02501 9.1125 6.04376C9.01875 6.06251 9.01875 6.06876 8.96875 6.04376C8.9125 6.01876 8.98125 5.98751 8.98125 5.98751L8.875 6.00001L8.74375 6.00626C8.65625 6.00626 8.56875 6.00626 8.48125 6.00001C8.375 5.99376 8.26875 5.99376 8.15625 6.00001L7.975 6.03126C7.6875 5.95626 7.4 5.90001 7.10625 5.85626V5.92501L6.39375 5.85626L6.31875 5.84376C6.1125 5.90001 5.90625 5.93751 5.69375 5.95626C5.69375 5.95626 5.825 5.91876 5.7875 5.89376H5.78125L5.63125 5.91876C5.55625 5.93751 5.525 5.94376 5.525 5.91876V5.90001L5.41875 5.91876C5.375 5.94376 5.325 5.96251 5.28125 5.97501L5.10625 6.00001L5.01875 6.01251C5.025 5.99376 5.025 5.98126 5.025 5.96251C5.0125 5.87501 4.9625 5.80001 4.89375 5.75626C4.85625 5.66251 4.85 5.56251 4.88125 5.46876C4.9125 5.38751 4.89375 5.29376 4.8375 5.23126L4.73125 4.87501L4.6625 4.80001L4.725 4.78751L4.73125 4.78126L4.74375 4.73126L4.73125 4.67501L4.8 4.66251C4.75625 4.64376 4.76875 4.60626 4.8125 4.60001C4.85625 4.59376 4.85 4.53751 4.85 4.51876C4.8625 4.48751 4.875 4.46251 4.8875 4.43126V4.40626C4.88125 4.39376 4.875 4.38126 4.8625 4.36876C4.85 4.35001 4.8625 4.33126 4.85 4.31251C4.8375 4.29376 4.83125 4.28751 4.83125 4.26251C4.83125 4.23751 4.8375 4.20626 4.81875 4.19376C4.8 4.18126 4.8 4.21876 4.75 4.20626C4.7 4.19376 4.70625 4.19376 4.7125 4.17501C4.71875 4.15626 4.76875 4.16876 4.76875 4.16876L4.775 4.13751L4.7375 4.11251C4.71875 4.09376 4.7 4.07501 4.6875 4.05626C4.66875 4.03126 4.65 4.00626 4.625 3.98126L4.5625 3.94376C4.575 3.91251 4.575 3.88126 4.5875 3.85001L4.83125 3.84376ZM14.6625 26.975L14.575 26.9063C14.4688 26.8188 14.3812 26.7125 14.3375 26.675C14.2937 26.6375 14.1062 26.525 14.125 26.4813C14.1438 26.4375 14.0312 26.35 13.925 26.3313L13.9625 26.275L13.7688 26.1563L13.6062 26.0313L13.5875 26.0125L13.6187 25.9563L13.4875 25.8375L13.4125 25.8188C13.3563 25.75 13.3 25.6813 13.2563 25.6125L13.2625 25.5375C13.0813 25.5188 12.9062 25.4938 12.7312 25.45L12.4187 25.3438L12.3313 25.3125C12.275 25.2938 12.2188 25.275 12.1562 25.2625L12.025 25.2375L11.9187 25.175C11.9187 25.175 11.9625 25.1625 11.9563 25.1438C11.9563 25.1375 11.95 25.1313 11.9438 25.125C11.925 25.1125 11.9062 25.1 11.8875 25.0938C11.8562 25.0875 11.825 25.0875 11.8 25.0938C11.7063 25.0938 11.8375 25.1625 11.775 25.1563C11.6875 25.125 11.6062 25.0875 11.525 25.0438C11.4625 25.0125 11.4 24.9938 11.3375 24.975C11.2437 24.9438 11.2 24.9063 11.1125 24.8813C11.05 24.8625 11.0063 24.8563 10.9438 24.8313L10.8375 24.7875L10.5938 24.6438L10.55 24.6188C10.4688 24.5875 10.3875 24.55 10.3125 24.5L10.1687 24.4938C10.1 24.4813 9.975 24.4625 9.84375 24.4313C9.75625 24.4063 9.66875 24.3875 9.575 24.3813L9.44375 24.375L9.33125 24.3313C9.33125 24.3313 9.4 24.3063 9.35 24.2813C9.29375 24.2563 9.29375 24.2563 9.2 24.2688C9.10625 24.2875 9.25 24.3313 9.18125 24.3313H9.15625C9.075 24.3125 8.99375 24.2875 8.91875 24.2563C8.85625 24.2313 8.79375 24.2125 8.725 24.2C8.63125 24.1813 8.58125 24.1438 8.49375 24.1375C8.43125 24.1313 8.3875 24.125 8.31875 24.1125H8.30625H8.28125C8.19375 24.1 8.1 24.0938 8.0125 24.0938H7.88125L7.76875 24.0563C7.76875 24.0563 7.8375 24.025 7.78125 24C7.725 23.975 7.725 23.975 7.63125 24C7.5375 24.025 7.68125 24.0625 7.61875 24.0688C7.525 24.0625 7.4375 24.0438 7.35 24.0188C7.2875 24.0063 7.21875 23.9938 7.15 23.9938C7.05625 23.9875 7 23.9625 6.9125 23.9563C6.85 23.9563 6.80625 23.9563 6.7375 23.9438L6.625 23.925L6.30625 23.8375C6.24375 23.825 6.03125 23.8063 6.025 23.7625C6.01875 23.7188 5.88125 23.6875 5.775 23.7188V23.65L5.55 23.6313C5.48125 23.6188 5.4125 23.6125 5.34375 23.6063L5.31875 23.6V23.5313L5.14375 23.4938L5.0625 23.5125C4.98125 23.4813 4.90625 23.45 4.825 23.4063C4.73125 23.4188 4.78125 23.45 4.69375 23.4875C4.6125 23.5313 4.54375 23.6 4.5 23.675C4.3875 23.6625 4.275 23.6625 4.1625 23.675H4.0875L4.08125 23.3875V23.3063C4.025 23.0813 4.0125 22.8438 4.05625 22.6125C4.05625 22.6125 4.175 22.9375 4.13125 22.4313C4.1 22.1375 4.03125 21.8438 3.925 21.5688C3.85625 21.2125 3.825 20.8438 3.81875 20.4813C3.825 20.1688 3.7875 19.8625 3.7 19.5625L3.49375 18.175C3.4625 18.0625 3.43125 17.9563 3.4 17.85L3.4625 17.8438V17.8188V17.6313L3.4375 17.425L3.50625 17.4188C3.45625 17.325 3.45 17.1938 3.49375 17.1813C3.5375 17.1688 3.5125 16.9625 3.50625 16.9063C3.50625 16.85 3.51875 16.7125 3.51875 16.5938C3.51875 16.5625 3.5125 16.525 3.50625 16.4875C3.49375 16.4313 3.48125 16.3813 3.46875 16.325C3.45 16.2438 3.4625 16.1875 3.4375 16.1C3.41875 16.0375 3.40625 15.975 3.40625 15.9125C3.40625 15.825 3.39375 15.7375 3.375 15.65C3.35 15.5938 3.3625 15.7313 3.30625 15.6563C3.25 15.5813 3.25625 15.575 3.25625 15.5125C3.25625 15.45 3.3125 15.5063 3.3125 15.5063C3.3125 15.5063 3.3125 15.4688 3.3125 15.3938L3.2625 15.275C3.23125 15.1938 3.20625 15.1125 3.1875 15.0313C3.15625 14.9063 3.11875 14.7938 3.1 14.7313C3.08125 14.6688 3.05 14.625 3.025 14.575C3.025 14.3 3.025 14.0125 3.00625 13.7125L2.9375 13.7188L2.9 13V12.9188C2.8125 12.7063 2.75 12.4875 2.70625 12.2625C2.70625 12.2625 2.75625 12.4 2.78125 12.3563V12.35L2.7375 12.1938C2.70625 12.1188 2.7 12.0875 2.725 12.0875H2.6875L2.65625 11.9813C2.625 11.9375 2.6 11.8875 2.58125 11.8375L2.54375 11.6688L2.45625 11.325C2.4625 11.2875 2.46875 11.25 2.46875 11.2125C2.46875 11.1313 2.41875 11.1313 2.41875 11.1313L2.4125 11.2813C2.38125 11.1063 2.35 10.9313 2.325 10.75L2.375 10.6563C2.375 10.6563 2.41875 10.7 2.41875 10.65C2.41875 10.5938 2.4 10.5313 2.36875 10.4875H2.35L2.30625 10.4688C2.29375 10.3313 2.28125 10.2 2.26875 10.0688L2.30625 10L2.325 9.88751V9.70626C2.33125 9.66876 2.35 9.63751 2.36875 9.61251C2.36875 9.54376 2.3625 9.49376 2.3625 9.45001L2.3375 9.35626C2.3375 9.35626 2.3375 9.34376 2.34375 9.31251C2.35 9.28126 2.34375 9.27501 2.35 9.24376C2.35 9.18126 2.325 9.16876 2.30625 9.16251H2.3L2.2875 9.30626C2.25625 9.13126 2.1625 9.04376 2.1375 8.86251L2.16875 8.80001L2.18125 8.76876C2.18125 8.76876 2.225 8.81251 2.225 8.76251C2.225 8.70626 2.20625 8.64376 2.175 8.60001H2.15625L2.1375 8.59376L2.1125 8.58751C2.09375 8.49376 2.075 8.40626 2.04375 8.31876L2.4625 8.29376L2.63125 8.25001C2.75 8.22501 2.86875 8.28751 2.9125 8.39376L3.0375 8.35001H3.15625C3.15625 8.35001 3.1 8.40001 3.15625 8.40626C3.2125 8.41251 3.21875 8.41251 3.3 8.36251C3.38125 8.31251 3.23125 8.31876 3.3 8.29376C3.39375 8.27501 3.4875 8.26876 3.58125 8.27501C3.65 8.27501 3.71875 8.26876 3.78125 8.25626C3.875 8.24376 3.9375 8.25626 4.03125 8.24376C4.09375 8.23751 4.1375 8.22501 4.2125 8.21876H4.325C4.45625 8.22501 4.60625 8.25626 4.6625 8.25626C4.71875 8.26251 4.95 8.25626 4.95625 8.30001C4.96875 8.34376 5.10625 8.35626 5.2125 8.31251V8.38126H5.44375L5.65 8.40001L5.675 8.40626V8.47501L5.85625 8.50626L5.93125 8.48751C6.01875 8.51876 6.1 8.55001 6.18125 8.59376L6.2125 8.66251C6.375 8.59376 6.55 8.53126 6.725 8.48751C6.825 8.46876 6.925 8.45001 7.025 8.44376L7.10625 8.43751L7.275 8.41876L7.4 8.40001L7.5125 8.42501C7.5125 8.42501 7.475 8.45001 7.49375 8.46876C7.5 8.47501 7.50625 8.48126 7.5125 8.48126C7.53125 8.48751 7.55 8.49376 7.56875 8.48751C7.59375 8.48126 7.625 8.47501 7.65 8.46251C7.7375 8.43126 7.6 8.40626 7.65625 8.39376C7.74375 8.39376 7.83125 8.40626 7.9125 8.43126C7.975 8.44376 8.0375 8.45001 8.1 8.45001C8.1875 8.45626 8.24375 8.48126 8.325 8.49376C8.3875 8.50001 8.43125 8.50001 8.49375 8.51251L8.6 8.53751C8.69375 8.56876 8.7875 8.61876 8.84375 8.64376L8.8875 8.66251C8.96875 8.68751 9.04375 8.71876 9.11875 8.76251H9.25625C9.3625 8.76876 9.4625 8.78751 9.56875 8.80626C9.65625 8.83126 9.74375 8.84376 9.83125 8.85001L9.9625 8.86251L10.0688 8.91251C10.0688 8.91251 10 8.93126 10.05 8.96251C10.1 8.99376 10.1 8.99376 10.1938 8.98126C10.2875 8.97501 10.15 8.91251 10.2188 8.91876L10.2437 8.92501C10.325 8.95001 10.4 8.98126 10.475 9.01876C10.5375 9.05001 10.6 9.06876 10.6625 9.08751C10.7563 9.11251 10.8 9.15626 10.8875 9.18126C10.95 9.20001 10.9937 9.21251 11.0562 9.23751L11.0688 9.24376L11.0938 9.25001C11.1812 9.28126 11.2688 9.30626 11.3562 9.32501L11.4875 9.35001L11.5938 9.41251C11.5938 9.41251 11.5188 9.42501 11.5688 9.46251C11.6188 9.50001 11.6187 9.50001 11.7188 9.50001C11.8188 9.50001 11.6812 9.42501 11.75 9.43751C11.8375 9.46876 11.925 9.51251 12.0063 9.56251C12.0625 9.59376 12.125 9.62501 12.1938 9.64376C12.2812 9.68126 12.3313 9.72501 12.4125 9.75626C12.475 9.78126 12.5188 9.79376 12.575 9.82501L12.6687 9.88126C12.775 9.95626 12.8813 10.0563 12.925 10.0875C12.9688 10.125 13.1562 10.2313 13.1375 10.275C13.1187 10.3188 13.225 10.4 13.3313 10.425L13.2937 10.4813L13.475 10.6L13.6187 10.725L13.6313 10.7438L13.5938 10.8L13.7 10.925L13.7688 10.95C13.8063 11.0188 13.8438 11.0875 13.875 11.1563C13.9438 11.1938 13.9313 11.1438 14.0188 11.1625C14.1062 11.1688 14.1938 11.1625 14.2812 11.1313C14.3438 11.2125 14.4125 11.2875 14.4875 11.35C14.6438 11.5 14.4875 11.35 14.6938 11.4875C14.7563 11.5313 14.825 11.5688 14.9 11.5875C14.9125 11.6375 14.9313 11.6938 14.9563 11.7438C15 11.7875 15.0375 11.8313 15.0688 11.8813C15.0938 11.9313 15.1313 11.975 15.175 12.0125C15.2063 12.05 15.25 12.075 15.3 12.0688C15.2937 12.1938 15.2812 12.3188 15.275 12.4375C15.2812 12.5 15.2875 12.5688 15.2937 12.6438C15.3187 12.775 15.2437 12.9125 15.1187 12.9625L15.15 13.1188C15.1437 13.2125 15.1375 13.2688 15.1375 13.2688C15.1375 13.2688 15.0938 13.1938 15.0813 13.2688C15.0688 13.3438 15.0688 13.3438 15.1125 13.45C15.1562 13.5563 15.1625 13.375 15.1812 13.45C15.1937 13.5625 15.1937 13.675 15.1812 13.7875C15.175 13.8688 15.1812 13.95 15.1875 14.0313C15.1938 14.1438 15.1812 14.2188 15.1875 14.325C15.1938 14.4 15.2 14.4563 15.2 14.5375V14.675C15.1875 14.8313 15.15 15.0063 15.1438 15.075C15.1375 15.1438 15.1375 15.4125 15.0938 15.4188C15.05 15.425 15.0312 15.6 15.0688 15.725H15V16L14.9812 16.2438L14.975 16.275H14.9062L14.8687 16.4813L14.8875 16.575C14.8562 16.675 14.8187 16.7688 14.775 16.8625L14.7063 16.8938C14.7812 17.0938 14.8375 17.3 14.8813 17.5063C14.8938 17.5875 14.9187 17.7375 14.9312 17.9C14.9312 17.9438 14.9375 17.975 14.9375 18.0125C14.9563 18.1688 14.9688 18.2313 14.9688 18.2313L15 18.3875C14.9937 18.4813 14.9875 18.5375 14.9875 18.5375C14.9875 18.5375 14.9625 18.4938 14.9438 18.5125C14.9375 18.5188 14.9312 18.525 14.9312 18.5375C14.925 18.5625 14.925 18.5875 14.9312 18.6125C14.9375 18.65 14.95 18.6813 14.9688 18.7188C15.0125 18.825 15.0188 18.6438 15.0375 18.7188C15.05 18.8313 15.05 18.9438 15.0375 19.0563C15.0312 19.1375 15.0375 19.2188 15.0437 19.3C15.05 19.4125 15.0375 19.4875 15.0437 19.5938C15.05 19.6688 15.0562 19.725 15.0562 19.8063V19.9438C15.0437 20.0688 15.025 20.2 15.0125 20.2813C15.0125 20.3063 15.0063 20.325 15.0063 20.3438C15.0063 20.45 14.9938 20.5563 14.975 20.6625C14.9875 20.7188 15 20.7688 15.0125 20.825C15.025 20.9063 15.05 21.0563 15.0625 21.2188C15.0688 21.3313 15.0813 21.4375 15.1 21.5438L15.1313 21.7C15.125 21.7938 15.1187 21.8438 15.1187 21.8438C15.1187 21.8438 15.075 21.7688 15.0625 21.8438C15.05 21.9188 15.05 21.9188 15.0938 22.025C15.1375 22.1313 15.1438 21.95 15.1625 22.025V22.0563C15.1688 22.1563 15.1688 22.2625 15.1625 22.3625C15.1562 22.4438 15.1625 22.525 15.1687 22.6063C15.175 22.7188 15.1625 22.7938 15.1687 22.9C15.175 22.975 15.1812 23.0313 15.1812 23.1125V23.1313V23.1625C15.1875 23.2688 15.2 23.3813 15.2188 23.4875L15.25 23.6438C15.2437 23.7375 15.2375 23.7875 15.2375 23.7875C15.2375 23.7875 15.1937 23.7125 15.1812 23.7875C15.1687 23.8625 15.1687 23.8625 15.2125 23.9688C15.2562 24.075 15.2625 23.8938 15.2812 23.9688C15.2937 24.0813 15.2937 24.1938 15.2812 24.3063C15.275 24.3875 15.2812 24.4688 15.2875 24.55C15.2938 24.6688 15.2812 24.7375 15.2875 24.8438C15.2938 24.9188 15.3 24.975 15.3 25.0563V25.1938C15.2875 25.35 15.25 25.525 15.25 25.5938C15.25 25.6625 15.2437 25.9313 15.2 25.9375C15.1562 25.9438 15.1375 26.1188 15.175 26.2438H15.1062V26.5188L15.0875 26.7625L15.0813 26.7938H15.0125L14.975 27L14.9937 27.0938C14.9812 27.125 14.9688 27.15 14.9625 27.1813C14.925 27.15 14.8875 27.125 14.85 27.1C14.7563 27.0313 14.7188 27.0125 14.6625 26.975ZM29.8937 8.43126V8.63126C29.9 8.76251 29.8125 8.88126 29.6875 8.91876L29.7 9.07501L29.6688 9.21251C29.6688 9.21251 29.6312 9.13751 29.6125 9.20626C29.5938 9.27501 29.5938 9.27501 29.625 9.38126C29.6562 9.48751 29.6812 9.31251 29.6938 9.38751C29.6938 9.49376 29.6812 9.60626 29.6562 9.70626C29.6437 9.78126 29.6375 9.86251 29.6375 9.93751C29.6313 10.05 29.6063 10.1188 29.6 10.2188L29.5938 10.425L29.575 10.5563C29.5438 10.7063 29.4875 10.8688 29.475 10.9313C29.4625 10.9938 29.4312 11.25 29.3813 11.2563C29.3375 11.2625 29.3 11.4188 29.325 11.5438L29.2563 11.5375L29.225 11.8L29.175 12.0313L29.1625 12.0625L29.0938 12.0563L29.0312 12.25L29.0375 12.3375C28.9937 12.4313 28.9437 12.5188 28.8937 12.6L28.825 12.625C28.875 12.825 28.9125 13.025 28.9312 13.2313C28.9312 13.3125 28.9375 13.4563 28.9312 13.6125V13.7188V13.925L28.9438 14.0813L28.9125 14.2188C28.9125 14.2188 28.8875 14.175 28.8687 14.1938C28.8625 14.2 28.8563 14.2063 28.8563 14.2125C28.85 14.2375 28.8438 14.2625 28.8438 14.2875C28.85 14.325 28.8562 14.3563 28.8687 14.3938C28.9 14.5 28.925 14.325 28.9375 14.4C28.9375 14.5063 28.925 14.6125 28.9 14.7188C28.8875 14.7938 28.8813 14.875 28.8813 14.95C28.8813 15.0625 28.85 15.1313 28.8438 15.2313L28.8375 15.4375L28.8188 15.5688C28.7938 15.6813 28.7562 15.8063 28.7375 15.8813L28.725 15.9375C28.7125 16.0375 28.6875 16.1375 28.6562 16.2375L28.675 16.4C28.675 16.4813 28.6812 16.625 28.675 16.7813C28.6687 16.8875 28.6687 16.9875 28.675 17.0938L28.6875 17.25L28.6562 17.3875C28.6562 17.3875 28.6187 17.3125 28.6 17.3813C28.5813 17.45 28.5812 17.45 28.6125 17.5563C28.6437 17.6625 28.6687 17.4875 28.6812 17.5625V17.5938C28.675 17.6938 28.6625 17.7875 28.6437 17.8875C28.6312 17.9625 28.625 18.0438 28.625 18.1188C28.6187 18.2313 28.5938 18.3 28.5938 18.4L28.5875 18.6063V18.625V18.6563C28.5812 18.7625 28.5812 18.8625 28.5875 18.9688L28.6 19.125L28.5688 19.2625C28.5688 19.2625 28.5312 19.1875 28.5125 19.2563C28.4938 19.325 28.4937 19.325 28.5187 19.4313C28.55 19.5375 28.575 19.3625 28.5875 19.4375C28.5875 19.5438 28.575 19.65 28.55 19.7563C28.5375 19.8313 28.5312 19.9125 28.5312 19.9875C28.5312 20.1 28.5 20.1688 28.5 20.2688L28.4937 20.475L28.475 20.6063C28.4438 20.7563 28.3875 20.9188 28.375 20.975C28.3625 21.0313 28.3312 21.2938 28.2812 21.3C28.2375 21.3063 28.2 21.4625 28.225 21.5875L28.1625 21.5813L28.1313 21.8438L28.0812 22.075L28.0688 22.1L28 22.0938L27.9375 22.2875L27.9438 22.375C27.9 22.4625 27.8562 22.5438 27.8062 22.625C27.8062 22.7313 27.8438 22.6813 27.8687 22.7875C27.9 22.8813 27.9562 22.9688 28.0312 23.0375C27.9937 23.1625 27.9688 23.2875 27.9562 23.4125C27.9437 23.5063 27.9438 23.5313 27.9438 23.5438C27.7875 23.525 27.625 23.5125 27.45 23.5L27.2437 23.4688L26.8563 23.4563H26.7938C26.6063 23.5 26.4188 23.5 26.2313 23.4563C26.2313 23.4563 26.4937 23.3375 26.0812 23.3813C25.8375 23.4063 25.6063 23.475 25.3875 23.5875C25.1 23.6625 24.8063 23.7063 24.5125 23.7188C24.2625 23.7313 24.0125 23.7938 23.7812 23.9C23.4188 24.0125 23.0688 24.1375 22.7125 24.2625L22.475 24.4L22.4562 24.3375H22.4375L22.2875 24.3688L22.125 24.425L22.1 24.3625C22.0375 24.425 21.9312 24.45 21.9125 24.4063C21.8938 24.3625 21.7313 24.4188 21.6875 24.4375C21.6437 24.45 21.5312 24.4563 21.4312 24.4875L21.35 24.5188C21.3062 24.5375 21.2688 24.5625 21.2313 24.5875C21.175 24.6188 21.125 24.625 21.0562 24.6563C21.0125 24.6875 20.9688 24.7063 20.9188 24.725C20.85 24.7438 20.7812 24.7688 20.725 24.8125C20.6875 24.85 20.7938 24.8063 20.75 24.875C20.7062 24.9438 20.7063 24.9438 20.6625 24.95C20.6187 24.9625 20.6375 24.9 20.6375 24.9L20.55 24.9313L20.475 25.0063C20.4188 25.05 20.3625 25.0938 20.3062 25.1313C20.2312 25.1813 20.1625 25.2313 20.1 25.2813C20.0625 25.3188 20.025 25.3563 19.9937 25.3938C19.7875 25.4625 19.5625 25.5438 19.3312 25.6313L19.3625 25.6938C19.1812 25.7625 19.0063 25.85 18.825 25.9313L18.7625 25.9563C18.6375 26.1 18.5 26.225 18.3438 26.3313C18.3438 26.3313 18.425 26.2375 18.3813 26.2313L18.2875 26.325C18.2437 26.3813 18.225 26.3938 18.2125 26.375L18.2 26.3563L18.1375 26.4188C18.1188 26.4625 18.0938 26.5 18.0688 26.5313L17.9375 26.625L17.725 26.8188C17.6938 26.825 17.6625 26.8375 17.6375 26.8438C17.6063 26.85 17.5875 26.8813 17.6 26.9063C17.6 26.9125 17.6 26.9125 17.6063 26.9188L17.725 26.8688L17.4125 27.1188C17.4125 27.1 17.4125 27.0875 17.4125 27.0688C17.425 26.7563 17.3938 26.4438 17.325 26.1438C17.3063 25.7625 17.325 25.3813 17.375 25C17.425 24.675 17.425 24.35 17.375 24.0313L17.3375 22.5688C17.325 22.4438 17.3062 22.3313 17.2875 22.2188H17.3563L17.3625 22.1938L17.3813 21.9938V21.7688H17.45C17.4125 21.6625 17.425 21.525 17.4688 21.5188C17.5125 21.5125 17.5125 21.2938 17.5187 21.2313C17.525 21.1688 17.5562 21.0375 17.5688 20.9063C17.5688 20.8688 17.5688 20.8313 17.5688 20.7938C17.5688 20.725 17.5625 20.6813 17.5562 20.6188C17.55 20.5313 17.5625 20.475 17.5562 20.375C17.5437 20.3063 17.5437 20.2438 17.55 20.175C17.5625 20.0813 17.5625 19.9938 17.55 19.9C17.5312 19.8375 17.525 19.9875 17.4813 19.9C17.4375 19.8125 17.4375 19.8125 17.45 19.7563C17.4625 19.6938 17.5063 19.7563 17.5063 19.7563C17.5063 19.7563 17.5125 19.7125 17.5187 19.6375L17.4875 19.5063C17.4688 19.4188 17.4563 19.3313 17.45 19.2375C17.4375 19.1 17.4125 18.9813 17.4 18.9125C17.3875 18.8438 17.3625 18.7938 17.3438 18.7313C17.3813 18.4438 17.4125 18.1438 17.45 17.8313H17.3813L17.4438 17.0813L17.4562 17C17.4 16.7688 17.3625 16.5313 17.35 16.2875C17.35 16.2875 17.3813 16.4375 17.4125 16.3938V16.3875L17.3875 16.2188C17.3688 16.1375 17.3625 16.1063 17.3875 16.1063H17.4125L17.3937 15.9875C17.3687 15.9375 17.35 15.8875 17.3375 15.8313L17.325 15.65L17.2812 15.2813C17.2938 15.2438 17.3062 15.2063 17.3062 15.1688C17.3188 15.0875 17.2687 15.075 17.2687 15.075L17.2375 15.2313C17.2312 15.0438 17.225 14.8563 17.225 14.6625L17.2875 14.5688C17.2875 14.5688 17.325 14.6188 17.3312 14.5688C17.3375 14.5063 17.3312 14.4438 17.3 14.3875H17.2812L17.2375 14.3625C17.2375 14.2188 17.2437 14.075 17.2563 13.9375L17.3062 13.8688L17.3375 13.7563L17.3563 13.5688C17.3688 13.5313 17.3875 13.5 17.4125 13.475C17.4188 13.4063 17.425 13.35 17.425 13.3L17.4125 13.1938C17.4188 13.1813 17.4187 13.1688 17.425 13.15C17.425 13.1313 17.4312 13.1125 17.4375 13.075C17.45 13.0125 17.425 12.9938 17.4062 12.9875H17.4L17.3687 13.1438C17.3625 12.9563 17.2812 12.85 17.2812 12.6563L17.3188 12.5938L17.3375 12.5625C17.3375 12.5625 17.375 12.6125 17.3813 12.5625C17.3875 12.5 17.3813 12.4375 17.35 12.3813H17.3312L17.3125 12.375L17.2875 12.3625C17.2875 12.2375 17.2437 12.1313 17.25 12.0125C17.25 11.9938 17.25 11.9688 17.25 11.95V11.9438L17.325 11.7563C17.525 11.6063 17.7687 11.3938 17.9875 11.2063L18.0938 11.0813C18.1688 10.9938 18.2937 10.975 18.3937 11.0438L18.4562 10.9375L18.55 10.875C18.55 10.875 18.5375 10.9438 18.5875 10.9188C18.6375 10.8938 18.6375 10.8938 18.6688 10.8063C18.7 10.7188 18.5938 10.8063 18.625 10.7563C18.6812 10.6938 18.7437 10.6375 18.8188 10.5938C18.8687 10.5625 18.9125 10.5188 18.95 10.475C19.0125 10.4125 19.0625 10.4 19.125 10.3438C19.1625 10.3063 19.2 10.2688 19.2437 10.2375L19.325 10.1875C19.4125 10.1438 19.5 10.1063 19.5938 10.075C19.6375 10.05 19.8 9.95626 19.8312 9.99376C19.8625 10.025 19.9688 9.98751 20.025 9.91251L20.0562 9.96876L20.225 9.88126L20.3875 9.82501H20.4125L20.4375 9.88751L20.5875 9.86251L20.6375 9.81876C20.7125 9.82501 20.7937 9.83126 20.8687 9.84376L20.9188 9.90001C21.025 9.78126 21.1437 9.67501 21.275 9.58751C21.3625 9.53751 21.45 9.49376 21.5438 9.45001L21.6187 9.41876C21.6687 9.40001 21.7188 9.37501 21.7687 9.34376L21.875 9.28126L21.9875 9.26251C21.9875 9.26251 21.9625 9.30001 21.9875 9.31251C21.9937 9.31876 22 9.31876 22.0063 9.31876C22.025 9.31876 22.05 9.31251 22.0688 9.30626C22.0938 9.28751 22.1125 9.26876 22.1375 9.25001C22.2063 9.18751 22.0688 9.21876 22.1187 9.18751C22.2 9.15626 22.2875 9.13126 22.375 9.12501C22.4375 9.11251 22.5 9.09376 22.5625 9.06876C22.65 9.03751 22.7125 9.04376 22.7938 9.01251C22.85 8.99376 22.9 8.97501 22.9562 8.95626L23.0625 8.93751C23.1688 8.92501 23.2687 8.92501 23.3375 8.92501H23.3875C23.4688 8.90626 23.5562 8.90001 23.6437 8.90001L23.7625 8.83126C23.8625 8.78751 23.9625 8.75001 24.0625 8.71876C24.1437 8.69376 24.2312 8.66251 24.3062 8.63126L24.425 8.57501L24.5438 8.56876C24.5438 8.56876 24.4937 8.62501 24.5562 8.62501C24.6125 8.62501 24.6125 8.62501 24.6875 8.56876C24.7625 8.51251 24.6187 8.53126 24.675 8.50001L24.7 8.49376C24.7812 8.47501 24.8563 8.46251 24.9375 8.45626C25 8.45001 25.0625 8.43751 25.125 8.41251C25.2125 8.38751 25.275 8.40001 25.3563 8.38126C25.4125 8.36876 25.4625 8.35001 25.5187 8.34376H25.5312L25.5562 8.33751C25.6437 8.31876 25.725 8.29376 25.8062 8.26251L25.925 8.21251H26.0438C26.0438 8.21251 25.9937 8.26251 26.05 8.26876C26.1062 8.27501 26.1063 8.26876 26.1875 8.21876C26.2625 8.16876 26.1187 8.17501 26.1812 8.15001C26.2687 8.12501 26.3563 8.11876 26.4438 8.12501C26.5063 8.12501 26.5688 8.11251 26.6313 8.10001C26.7188 8.08126 26.7812 8.09376 26.8625 8.08126C26.925 8.06876 26.9688 8.06251 27.0312 8.05626H27.1375C27.2625 8.05626 27.4 8.08751 27.45 8.09376C27.5 8.10001 27.7125 8.09376 27.7188 8.13751C27.725 8.18126 27.8562 8.19376 27.9562 8.15626V8.22501H28.1625L28.35 8.24376L28.375 8.25001V8.30001L28.5312 8.34376L28.6 8.32501C28.6688 8.35626 28.7437 8.39376 28.8062 8.43751C28.8875 8.42501 28.8438 8.39376 28.9312 8.36251C29.0063 8.31876 29.075 8.25626 29.125 8.18126C29.225 8.21251 29.325 8.22501 29.425 8.23126C29.6437 8.25626 29.425 8.23126 29.6812 8.21251C29.875 8.20001 29.8875 8.13751 29.975 8.14376C29.9312 8.23126 29.9125 8.33751 29.8937 8.43126ZM31.1375 7.02501C31.1438 7.01251 31.1562 6.99376 31.1688 6.97501C31.1625 7.02501 31.15 7.03126 31.1375 7.02501Z" fill="#0041E6"/>
</g>
<defs>
<clipPath id="clip0_7664_50222">
<rect width="32" height="32" fill="white"/>
</clipPath>
</defs>
</svg>
