<svg width="32" height="32" viewBox="0 0 32 32" fill="none" xmlns="http://www.w3.org/2000/svg">
<g clip-path="url(#clip0_7664_50210)">
<path d="M28.2063 12.4375C28.1938 12.45 28.2 12.4438 28.2063 12.4375V12.4375Z" fill="#0041E6"/>
<path d="M8.95625 3.26251C8.9625 3.26876 8.96875 3.28126 8.95625 3.26251V3.26251Z" fill="#0041E6"/>
<path d="M31.4812 21.3062C31.4687 21.2312 31.4937 21.1813 31.4812 21.1063C31.4687 21.05 31.4687 20.9937 31.475 20.9438C31.4875 20.8687 31.4875 20.7875 31.475 20.7062C31.4562 20.65 31.4437 20.775 31.4 20.7062C31.35 20.6375 31.35 20.6375 31.3625 20.5875C31.375 20.5437 31.425 20.5875 31.425 20.5875L31.4375 20.4875L31.4 20.3813C31.3812 20.3062 31.3625 20.2313 31.3562 20.1562C31.3437 20.0625 31.325 19.975 31.3062 19.8813L31.2437 19.7313C31.2875 19.4938 31.3312 19.2438 31.3625 18.9813H31.2812L31.3562 18.3563L31.3687 18.2875C31.3062 18.0938 31.2625 17.8938 31.25 17.6938C31.25 17.6938 31.2875 17.8188 31.3187 17.7812V17.775L31.2937 17.6375C31.2687 17.5688 31.2687 17.5375 31.2937 17.5375H31.3187L31.3 17.4375C31.275 17.3937 31.25 17.35 31.2375 17.3062L31.225 17.1562L31.1812 16.85C31.1937 16.8188 31.2062 16.7875 31.2125 16.7563C31.225 16.725 31.2125 16.6938 31.1812 16.6812C31.175 16.6812 31.175 16.6812 31.1687 16.675L31.1375 16.8062C31.125 16.65 31.125 16.4937 31.125 16.3375L31.1937 16.2563C31.1937 16.2563 31.2375 16.3 31.2437 16.2563C31.25 16.2063 31.2437 16.15 31.2125 16.1063H31.1875L31.1375 16.0875L31.1625 15.7375L31.2187 15.6812L31.2562 15.5875L31.2812 15.4312C31.2937 15.4 31.3187 15.375 31.3437 15.35L31.3625 15.2063L31.35 15.1187L31.3625 15.0813L31.3937 15.0125C31.4062 14.9625 31.375 14.9438 31.3625 14.9375H31.35L31.3125 15.0688C31.3062 14.9125 31.2125 14.825 31.2125 14.6625L31.2625 14.6125L31.2875 14.5875C31.2875 14.5875 31.3312 14.6312 31.3375 14.5875C31.3437 14.5375 31.3375 14.4812 31.3062 14.4375H31.2812L31.2625 14.425L31.2312 14.4125C31.2312 14.3125 31.1812 14.225 31.1937 14.125V14.075L31.1 13.9438L31.1375 13.85L31.0625 13.7437L31.075 13.7C31.075 13.7 31.125 13.7312 31.1375 13.7C31.15 13.6687 31.15 13.6688 31.1 13.6313C31.0875 13.6188 31.0812 13.6313 31.075 13.6313L31.0875 13.6187C31.0937 13.5625 31.0437 13.5125 31.0187 13.475C31.0187 13.45 31.0187 13.4312 31.0125 13.4062C31.0125 13.4 31.0125 13.3875 31.0125 13.3813V13.35C31.0187 13.3313 31.0187 13.3125 31.0125 13.2937C31.0187 13.2937 31.0125 13.2812 31.0125 13.2812C31.0062 13.2625 31 13.2375 31 13.2125V13.1562C31.0125 13.0938 31.05 13.0187 31.05 12.9937C31.0562 12.9625 31.05 12.8563 31.1 12.85C31.15 12.8438 31.1625 12.7688 31.1125 12.7188H31.1875L31.175 12.6L31.1875 12.4875L31.1937 12.475L31.2687 12.4688L31.3 12.3687L31.275 12.3062L31.375 12.15L31.45 12.1187C31.3562 12.0375 31.2687 11.9438 31.1937 11.8438C31.15 11.775 31.1125 11.7063 31.075 11.6313L31.0437 11.5625C31.025 11.5188 31 11.475 30.9687 11.4375L30.9 11.3562L30.875 11.2625C30.875 11.2625 30.9187 11.275 30.925 11.2563C30.925 11.25 30.925 11.2438 30.925 11.2375C30.925 11.2188 30.9187 11.2 30.9062 11.1875C30.8875 11.1687 30.8687 11.1562 30.8437 11.1438C30.775 11.1 30.8125 11.2125 30.775 11.175C30.7312 11.1188 30.7 11.05 30.675 10.9812C30.6562 10.9312 30.625 10.8875 30.5875 10.8562C30.5375 10.8 30.5312 10.75 30.4812 10.7L30.3812 10.6062L30.3312 10.5375L30.2125 10.35L30.1875 10.3188L30.1375 10.2625C30.1 10.2312 30.0687 10.2 30.05 10.1562L29.9312 10.125L29.6875 10.0375C29.6312 10.0125 29.5687 9.99375 29.5062 9.9875L29.4 9.98125L29.3187 9.93125C29.3187 9.93125 29.3812 9.9 29.3437 9.875C29.3062 9.84375 29.3062 9.84375 29.225 9.86875C29.15 9.8875 29.25 9.9375 29.1937 9.9375H29.1875C29.125 9.91875 29.0687 9.9 29.0062 9.875C28.9625 9.85625 28.9187 9.85 28.8687 9.85C28.8062 9.84375 28.7812 9.81875 28.725 9.81875C28.6875 9.81875 28.6562 9.81875 28.6187 9.81875H28.6062H28.5875C28.5375 9.8125 28.4812 9.81875 28.4312 9.8375L28.3562 9.8625L28.2937 9.8375C28.2937 9.8375 28.3375 9.79375 28.3062 9.775C28.275 9.75625 28.275 9.75625 28.2187 9.8C28.1687 9.84375 28.2437 9.85625 28.2062 9.875C28.1562 9.88125 28.1062 9.875 28.0625 9.8625C28.0312 9.85 27.9937 9.85 27.9562 9.8625C27.9062 9.86875 27.875 9.85 27.8312 9.85625C27.8 9.8625 27.7687 9.86875 27.7375 9.86875H27.6875C27.6187 9.85 27.55 9.8125 27.525 9.80625C27.4937 9.8 27.3875 9.8 27.3812 9.74375C27.375 9.69375 27.3062 9.675 27.2562 9.71875V9.64375H27.1375L27.0375 9.625L27.025 9.61875V9.5375L26.9375 9.5L26.9 9.525C26.8562 9.49375 26.8187 9.45625 26.7812 9.4125C26.7375 9.43125 26.7625 9.4625 26.7187 9.5125C26.6875 9.55625 26.6687 9.6125 26.6562 9.6625C26.5812 9.675 26.5125 9.69375 26.4375 9.71875C26.2125 9.73125 25.9875 9.7125 25.7687 9.6625C25.5875 9.60625 25.3937 9.60625 25.2125 9.6625L24.375 9.6875L24.3 9.7125L24.2812 9.5625L24.225 9.45625H24.3L24.3062 9.45L24.325 9.3875V9.31875H24.4C24.3562 9.2875 24.375 9.24375 24.425 9.24375C24.475 9.24375 24.475 9.175 24.4812 9.15625C24.5062 9.125 24.525 9.09375 24.5375 9.05625V9.025C24.5312 9.00625 24.525 8.9875 24.5187 8.975C24.5062 8.95 24.5312 8.93125 24.5187 8.9C24.5062 8.86875 24.5 8.8625 24.5062 8.8375C24.5125 8.8125 24.525 8.775 24.5062 8.75625C24.4875 8.7375 24.4812 8.78125 24.4312 8.75625C24.3812 8.73125 24.3812 8.73125 24.3937 8.7125C24.4062 8.69375 24.4562 8.7125 24.4562 8.7125L24.4687 8.675L24.4312 8.6375C24.4125 8.6125 24.3937 8.5875 24.3875 8.55625C24.375 8.51875 24.3562 8.4875 24.3312 8.45625L24.2687 8.4C24.3125 8.3125 24.35 8.21875 24.375 8.125H24.2937L24.3562 7.8875L24.3687 7.8625C24.3125 7.80625 24.2687 7.73125 24.25 7.64375C24.25 7.64375 24.2875 7.6875 24.3187 7.675L24.275 7.6125C24.25 7.5875 24.2437 7.575 24.275 7.575H24.3L24.2812 7.5375C24.2562 7.525 24.2375 7.5125 24.2187 7.4875L24.2 7.43125L24.15 7.31875C24.1625 7.30625 24.175 7.3 24.1812 7.28125C24.2 7.25625 24.1375 7.25 24.1375 7.25L24.1062 7.3C24.0937 7.24375 24.0937 7.1875 24.0937 7.13125L24.1625 7.1C24.1625 7.1 24.2062 7.1125 24.2125 7.1C24.2187 7.0625 24.175 7.04375 24.175 7.04375H24.15H24.1C24.1062 7 24.1125 6.95625 24.1187 6.9125L24.175 6.89375L24.2125 6.85625L24.2375 6.8C24.2562 6.7875 24.2812 6.775 24.3 6.76875L24.3125 6.71875L24.3 6.6875L24.3125 6.675L24.3312 6.65C24.3437 6.63125 24.3125 6.625 24.2937 6.625H24.2812L24.25 6.675C24.2375 6.61875 24.1437 6.5875 24.1437 6.53125L24.1875 6.5125L24.2062 6.49375C24.2062 6.49375 24.25 6.50625 24.2562 6.49375C24.2562 6.45625 24.2187 6.4375 24.2187 6.4375H24.1937H24.175H24.1437C24.1437 6.4 24.0937 6.36875 24.1 6.33125V6.3125L24.0062 6.2625L24.0437 6.225L23.925 6.16875C23.9437 6.15625 23.9625 6.14375 23.9875 6.1375C24 6.1125 23.9187 6.09375 23.9125 6.08125V6.04375C23.9125 5.99375 23.925 5.95 23.9562 5.94375C24.0062 5.93125 24.0187 5.8375 23.9687 5.76875H24.0437L24.0375 5.59375L24.0437 5.45V5.43125L24.1187 5.425L24.1437 5.29375L24.125 5.25L24.2187 5.05L24.2937 5.0125C24.1937 4.9 24.1 4.78125 24.0187 4.65L23.9 4.4L23.8687 4.33125C23.85 4.28125 23.8187 4.2375 23.7937 4.19375L23.7187 4.09375L23.6937 3.9875C23.6937 3.9875 23.7375 4.00625 23.75 3.9875C23.75 3.98125 23.75 3.975 23.75 3.96875C23.75 3.95 23.7437 3.93125 23.7312 3.9125C23.7125 3.89375 23.6875 3.875 23.6625 3.85625C23.5875 3.8 23.6312 3.93125 23.5937 3.8875C23.5437 3.8125 23.5062 3.7375 23.475 3.65C23.45 3.5875 23.4125 3.53125 23.3687 3.4875C23.3125 3.4125 23.2937 3.35 23.2375 3.28125L23.1125 3.1375L23.0437 3.04375L22.875 2.79375L22.8437 2.75C22.775 2.68125 22.7062 2.6125 22.6437 2.5375L22.4937 2.4875L22.1812 2.36875C22.1062 2.3375 22.025 2.3125 21.9375 2.3L21.8187 2.2875L21.725 2.2375C21.725 2.2375 21.7937 2.20625 21.75 2.175C21.7062 2.14375 21.7062 2.14375 21.6187 2.1625C21.5312 2.18125 21.65 2.23125 21.5937 2.23125H21.575C21.5062 2.2125 21.4437 2.19375 21.3812 2.1625C21.3312 2.14375 21.2812 2.13125 21.225 2.13125C21.15 2.11875 21.1062 2.09375 21.0437 2.0875C21 2.0875 20.9562 2.08125 20.9062 2.075H20.8937H20.875C20.8062 2.06875 20.7375 2.06875 20.6687 2.0875L20.5687 2.1125L20.4812 2.0875C20.4812 2.0875 20.5312 2.04375 20.4937 2.025C20.45 2.00625 20.45 2.00625 20.3812 2.05C20.3125 2.09375 20.4187 2.1125 20.375 2.125C20.3062 2.13125 20.2437 2.125 20.1812 2.10625C20.1375 2.09375 20.0875 2.09375 20.0437 2.10625C19.975 2.10625 19.9375 2.0875 19.875 2.09375C19.8375 2.1 19.8 2.10625 19.7562 2.10625L19.6812 2.1C19.5937 2.08125 19.5 2.04375 19.4562 2.0375C19.4187 2.03125 19.2687 2.03125 19.2625 1.98125C19.2562 1.93125 19.1625 1.9125 19.0937 1.95625V1.86875H18.9375L18.8 1.85L18.7812 1.84375V1.7625L18.6625 1.725L18.6125 1.75C18.5562 1.71875 18.5 1.68125 18.45 1.64375C18.3875 1.6625 18.425 1.69375 18.3687 1.74375C18.325 1.79375 18.2875 1.85625 18.275 1.91875C18.2125 1.85 18.1562 1.775 18.1562 1.775C18.1187 1.70625 18.0812 1.65 18.0375 1.5875C17.95 1.46875 17.85 1.35 17.7437 1.25C17.725 1.20625 17.7 1.1625 17.675 1.125C17.6125 1.0375 17.5562 1.075 17.5562 1.075C17.5937 1.13125 17.6312 1.18125 17.6625 1.2375C17.5 1.08125 17.325 0.9375 17.1312 0.81875L17.1 0.75625L17.0687 0.70625C17.0687 0.70625 17.15 0.7 17.0937 0.6625C17.0312 0.61875 16.9562 0.59375 16.8812 0.59375L16.8687 0.6125L16.8187 0.64375C16.6625 0.575 16.5 0.51875 16.3375 0.475L16.3062 0.4375L16.175 0.375L15.9375 0.31875C15.8937 0.3 15.8562 0.275 15.8187 0.24375L15.6187 0.21875L15.5375 0.23125L15.4937 0.21875L15.4375 0.2C15.4125 0.1875 15.3875 0.2 15.375 0.21875C15.375 0.225 15.375 0.225 15.3687 0.23125V0.24375L15.4875 0.28125C15.3437 0.2875 15.275 0.375 15.1375 0.375L15.0937 0.325L15.0687 0.3C15.0687 0.3 15.1062 0.25625 15.0687 0.25C15.025 0.24375 14.9812 0.25 14.9437 0.28125V0.30625L14.9375 0.325L14.925 0.35625C14.8375 0.35 14.7625 0.4 14.6812 0.3875H14.6375L14.5187 0.48125L14.4375 0.4375L14.3 0.55625C14.275 0.5375 14.25 0.51875 14.2375 0.4875C14.1812 0.475 14.1187 0.575 14.0937 0.56875L14.0125 0.5625C13.9687 0.66875 13.9562 0.4875 13.9437 0.5875C13.9187 0.58125 13.8875 0.5875 13.8687 0.6H13.8125L13.6625 0.6125C13.4812 0.6375 13.4187 0.41875 13.4187 0.41875L13.3 0.45625L13.1937 0.44375C13.1937 0.44375 13.2437 0.39375 13.1937 0.38125C13.1437 0.36875 13.1375 0.36875 13.0625 0.41875C12.9875 0.46875 13.1187 0.475 13.0625 0.49375C12.9812 0.50625 12.9 0.50625 12.8187 0.49375C12.7562 0.4875 12.7 0.49375 12.6437 0.50625C12.5562 0.51875 12.5062 0.5 12.4312 0.50625C12.3812 0.51875 12.325 0.525 12.275 0.525H12.175C12.0562 0.5125 11.9312 0.475 11.8812 0.46875C11.8312 0.4625 11.6375 0.46875 11.625 0.4125C11.6125 0.35625 11.4937 0.34375 11.4 0.39375V0.31875H11.2L11.0187 0.3L10.9937 0.29375V0.2125L10.8437 0.175L10.775 0.2C10.7 0.16875 10.625 0.125 10.5562 0.08125L10.5312 0C10.3937 0.08125 10.2437 0.15 10.0875 0.20625C9.99375 0.23125 9.89375 0.25 9.8 0.2625L9.71875 0.275C9.6625 0.28125 9.6125 0.29375 9.5625 0.30625L9.44375 0.34375L9.33125 0.33125C9.33125 0.33125 9.3625 0.3 9.34375 0.28125C9.3375 0.275 9.33125 0.26875 9.325 0.26875C9.30625 0.2625 9.2875 0.2625 9.26875 0.26875C9.24375 0.28125 9.21875 0.29375 9.19375 0.3125C9.11875 0.3625 9.25 0.36875 9.19375 0.3875C9.1125 0.4 9.025 0.4 8.9375 0.3875C8.85625 0.3875 8.775 0.39375 8.69375 0.4125C8.54375 0.43125 8.45 0.425 8.31875 0.45L8.05625 0.51875L7.90625 0.5625C7.7625 0.59375 7.625 0.625 7.4875 0.66875L7.4125 0.69375L7.31875 0.7375C7.23125 0.79375 7.14375 0.8375 7.05 0.88125L6.91875 1.05C6.8125 1.18125 6.71875 1.31875 6.63125 1.4625C6.55625 1.575 6.5 1.7 6.4625 1.8375V1.85625C6.43125 1.84375 6.39375 1.8375 6.3625 1.8375C6.20625 1.825 6.04375 1.86875 5.9125 1.95625C5.73125 1.9875 5.55 1.9875 5.36875 1.95625C5.21875 1.91875 5.05625 1.94375 4.925 2.025C4.70625 2.08125 4.4875 2.15 4.26875 2.225L4.11875 2.3125L4.09375 2.2375H4.08125H3.98125L3.875 2.275L3.85 2.2125C3.81875 2.26875 3.74375 2.275 3.725 2.23125C3.70625 2.18125 3.6 2.2125 3.56875 2.2125C3.50625 2.2125 3.45 2.2125 3.3875 2.21875L3.33125 2.2375C3.30625 2.25 3.275 2.26875 3.25 2.2875C3.2125 2.3125 3.175 2.3125 3.13125 2.34375C3.10625 2.36875 3.06875 2.3875 3.03125 2.4C2.9875 2.4125 2.9125 2.4375 2.89375 2.46875C2.86875 2.50625 2.95 2.46875 2.93125 2.5375C2.9125 2.60625 2.90625 2.60625 2.86875 2.6125C2.83125 2.61875 2.83125 2.5625 2.83125 2.5625L2.75625 2.5875L2.70625 2.6625C2.675 2.7125 2.63125 2.75 2.5875 2.7875C2.53125 2.84375 2.48125 2.90625 2.43125 2.975L2.36875 3.10625C2.2 3.19375 2.04375 3.29375 1.9 3.4125L1.9625 3.4625C1.85 3.5625 1.7375 3.66875 1.63125 3.775L1.59375 3.80625C1.575 3.95 1.5375 4.09375 1.475 4.225C1.475 4.225 1.4875 4.13125 1.44375 4.1375L1.43125 4.24375C1.43125 4.3 1.425 4.3125 1.4 4.3L1.375 4.2875L1.38125 4.375C1.39375 4.4125 1.4 4.45 1.4 4.48125L1.375 4.58125L1.33125 4.79375C1.3125 4.80625 1.29375 4.825 1.28125 4.84375C1.25 4.88125 1.30625 4.90625 1.30625 4.90625L1.36875 4.8375L1.2875 5.14375L1.21875 5.16875C1.21875 5.16875 1.18125 5.13125 1.16875 5.15625C1.15 5.1875 1.15625 5.23125 1.18125 5.2625H1.20625L1.25 5.2875L1.18125 5.5125L1.11875 5.54375L1.075 5.6L1.0375 5.70625C1.01875 5.725 0.993747 5.74375 0.968747 5.75L0.943747 5.85L0.949997 5.9125L0.931247 5.9375L0.912497 5.98125C0.899997 6.01875 0.924997 6.03125 0.943747 6.0375H0.956247L0.993747 5.95C0.993747 6.05625 1.0875 6.11875 1.0875 6.23125L1.04375 6.26875L1.01875 6.2875C1.01875 6.2875 0.974997 6.25625 0.968747 6.2875C0.962497 6.325 0.974997 6.36875 1.00625 6.39375H1.03125H1.05L1.08125 6.4C1.08125 6.46875 1.1375 6.525 1.13125 6.59375V6.63125L1.2 6.68125L1.1625 6.93125C1.11875 7.2875 1.09375 7.775 1.075 8.20625L1.10625 8.44375C1.1375 8.59375 1.05625 8.75 0.912497 8.8125L0.956247 8.99375L0.943747 9.1625C0.943747 9.1625 0.893747 9.075 0.881247 9.1625C0.868747 9.25 0.868747 9.25 0.918747 9.36875C0.968747 9.4875 0.974997 9.28125 0.993747 9.36875C1.00625 9.5 1.00625 9.63125 0.993747 9.7625C0.987497 9.85625 0.993747 9.95 1.00625 10.0437C1.01875 10.175 0.999997 10.2625 1.00625 10.3875L1.025 10.6313V10.7875L0.974997 11.2688C0.968747 11.3562 0.974997 11.6562 0.924997 11.6687C0.874997 11.6812 0.856247 11.875 0.906247 12.0188H0.824997V12.3375L0.806247 12.6187L0.799997 12.6562H0.724997L0.687497 12.9L0.712497 13.0063C0.681247 13.1188 0.637497 13.2312 0.593747 13.3438L0.512497 13.3813C0.599997 13.6125 0.668747 13.85 0.724997 14.0938C0.743747 14.1938 0.768747 14.3625 0.787497 14.5562L0.799997 14.6812L0.837497 14.9312L0.874997 15.1125L0.862497 15.2812C0.862497 15.2812 0.831247 15.2313 0.812497 15.2563C0.806247 15.2625 0.799997 15.275 0.799997 15.2812C0.793747 15.3125 0.793747 15.3438 0.799997 15.375C0.812497 15.4125 0.824997 15.4562 0.843747 15.4937C0.893747 15.6125 0.899997 15.4 0.918747 15.4937C0.931247 15.625 0.931247 15.7562 0.918747 15.8875C0.912497 15.9812 0.918747 16.075 0.931247 16.1688C0.943747 16.3 0.924997 16.3875 0.931247 16.5125L0.949997 16.7563V16.9125C0.937497 17.0562 0.918747 17.2062 0.906247 17.3062L0.899997 17.375C0.899997 17.5 0.887497 17.625 0.868747 17.7437L0.918747 17.9312C0.937497 18.0312 0.962497 18.2 0.981247 18.3937C0.987497 18.5187 1.00625 18.6437 1.03125 18.7687L1.075 18.95L1.0625 19.1187C1.0625 19.1187 1.0125 19.0312 0.999997 19.1187C0.987497 19.2062 0.987497 19.2063 1.0375 19.325C1.0875 19.4438 1.09375 19.2313 1.1125 19.325V19.3625C1.11875 19.4812 1.11875 19.6 1.1125 19.7125C1.10625 19.8062 1.1125 19.9 1.125 19.9937C1.1375 20.125 1.11875 20.2125 1.125 20.3375L1.14375 20.5812V20.6063V20.6437C1.15 20.7687 1.16875 20.8937 1.19375 21.0187L1.2375 21.2L1.225 21.3687C1.225 21.3687 1.175 21.2875 1.1625 21.3687C1.15 21.45 1.15 21.4563 1.2 21.575C1.25 21.6938 1.25625 21.4813 1.275 21.575C1.2875 21.7063 1.2875 21.8375 1.275 21.9625C1.26875 22.0562 1.275 22.15 1.2875 22.2437C1.3 22.375 1.28125 22.4625 1.2875 22.5875L1.30625 22.8312V22.9875L1.25625 23.45C1.25625 23.5375 1.25625 23.8438 1.2 23.8563C1.14375 23.8688 1.13125 24.0625 1.18125 24.2062H1.125V24.525L1.10625 24.8062L1.1 24.8438H1.01875L0.981247 25.0875L1.00625 25.1938C0.974997 25.3062 0.931247 25.4125 0.887497 25.5187C0.906247 25.6437 0.937497 25.575 0.987497 25.7C1.0375 25.8063 1.1125 25.8937 1.20625 25.9688C1.18125 26.1187 1.175 26.275 1.18125 26.4312C1.18125 26.7625 1.18125 26.4312 1.24375 26.8125C1.25625 26.9062 1.28125 26.9937 1.31875 27.0812C1.3 27.175 1.2875 27.2687 1.275 27.3625L1.30625 27.4438C1.3375 27.5438 1.11875 27.5875 1.11875 27.5875L1.1625 27.65L1.15625 27.7125C1.15625 27.7125 1.1 27.6875 1.09375 27.7188C1.0875 27.75 1.08125 27.75 1.1375 27.7875C1.1875 27.825 1.1875 27.75 1.2125 27.7812C1.23125 27.825 1.2375 27.875 1.225 27.9188C1.225 27.9563 1.23125 27.9875 1.25 28.0187C1.26875 28.0687 1.25 28.1 1.26875 28.1437C1.28125 28.175 1.29375 28.2 1.3 28.2313V28.2875L1.275 28.4688C1.275 28.5 1.3 28.6187 1.25 28.6313C1.2 28.65 1.2 28.725 1.2625 28.775L1.1875 28.7938L1.225 28.925L1.2375 29.0438V29.0625L1.1625 29.0875V29.2062L1.2 29.2437C1.18125 29.3062 1.1625 29.375 1.1375 29.4312L1.06875 29.4813C1.18125 29.5563 1.29375 29.6313 1.39375 29.725L1.55625 29.9062L1.6 29.9562C1.625 29.9937 1.6625 30.0187 1.69375 30.05L1.78125 30.1063L1.825 30.1875C1.825 30.1875 1.78125 30.1875 1.775 30.2062V30.225C1.78125 30.2437 1.7875 30.2562 1.8 30.2687C1.81875 30.2812 1.84375 30.2875 1.86875 30.2938C1.94375 30.3125 1.88125 30.225 1.93125 30.2437C1.98125 30.2875 2.03125 30.3438 2.06875 30.4C2.1 30.4375 2.14375 30.475 2.1875 30.5C2.23125 30.5438 2.275 30.5875 2.325 30.625C2.36875 30.65 2.4 30.6688 2.44375 30.6938L2.50625 30.75C2.5625 30.8 2.6125 30.8687 2.65 30.9062L2.675 30.9375C2.70625 30.9688 2.8 31.0187 2.81875 31.0625H2.925L3.15 31.1063C3.20625 31.125 3.26875 31.1375 3.325 31.1313L3.4125 31.125L3.475 31.1625C3.475 31.1625 3.425 31.2 3.45625 31.225C3.4875 31.25 3.4875 31.25 3.55 31.225C3.6125 31.2 3.5375 31.1625 3.575 31.1562C3.625 31.1625 3.66875 31.1812 3.7125 31.2062C3.75 31.2188 3.7875 31.2313 3.83125 31.225C3.8875 31.225 3.91875 31.2563 3.96875 31.2625H4.06875H4.0625H4.075C4.125 31.2688 4.18125 31.2625 4.23125 31.25L4.30625 31.225L4.36875 31.25C4.36875 31.25 4.325 31.2938 4.35625 31.3125C4.3875 31.3312 4.3875 31.3313 4.44375 31.2875C4.49375 31.2437 4.41875 31.2312 4.45625 31.2125C4.50625 31.2062 4.55625 31.2125 4.6 31.2313C4.6375 31.2375 4.66875 31.2375 4.70625 31.2313C4.75625 31.2313 4.7875 31.25 4.83125 31.2437C4.8625 31.2375 4.89375 31.2313 4.925 31.2313L4.98125 31.2375C5.05 31.2562 5.11875 31.2937 5.15 31.3C5.18125 31.3062 5.29375 31.3125 5.29375 31.3625C5.29375 31.4125 5.36875 31.4313 5.41875 31.3875V31.4625H5.5375L5.6375 31.4813L5.65 31.4875V31.5688L5.7375 31.6063L5.775 31.5812C5.81875 31.6187 5.85625 31.6562 5.89375 31.6938C5.9375 31.675 5.9125 31.6437 5.95 31.5938C5.9875 31.525 6.01875 31.45 6.03125 31.3687C6.08125 31.3875 6.1375 31.3938 6.1875 31.3875C6.3 31.375 6.1875 31.3875 6.30625 31.325L6.4125 31.3438C6.70625 31.3875 7 31.4125 7.29375 31.425C7.34375 31.4125 7.4 31.4062 7.45625 31.3937C7.65625 31.3625 7.71875 31.5812 7.71875 31.5812L7.84375 31.5438C7.91875 31.5438 7.9625 31.5562 7.9625 31.5562C7.9625 31.5562 7.90625 31.6062 7.9625 31.6187C8.01875 31.6313 8.025 31.6312 8.10625 31.5812C8.1875 31.5312 8.04375 31.525 8.10625 31.5063C8.19375 31.4875 8.2875 31.4875 8.375 31.5C8.4375 31.5 8.50625 31.5 8.56875 31.4875C8.6625 31.475 8.71875 31.4875 8.80625 31.4813C8.8625 31.4688 8.91875 31.4625 8.975 31.4562H9.08125C9.20625 31.4688 9.34375 31.5 9.4 31.5063C9.45625 31.5125 9.66875 31.5063 9.68125 31.5562C9.69375 31.6062 9.825 31.6188 9.925 31.575V31.65H10.1437L10.3375 31.6688L10.3625 31.675V31.7563L10.5312 31.7938L10.6062 31.7687C10.6875 31.8 10.7625 31.8438 10.8437 31.8875L10.875 31.9625C11.0312 31.875 11.1937 31.8062 11.3625 31.75C11.4687 31.725 11.575 31.7 11.6812 31.6875L11.7687 31.675C11.825 31.6687 11.8812 31.6562 11.9375 31.6375L12.0625 31.5938C12.1375 31.5938 12.1812 31.6063 12.1812 31.6063C12.1812 31.6063 12.1437 31.6375 12.1625 31.6562C12.1687 31.6625 12.175 31.6625 12.1812 31.6688C12.2 31.675 12.225 31.675 12.2437 31.6688C12.2687 31.6562 12.3 31.6437 12.325 31.625C12.4062 31.575 12.2625 31.5687 12.325 31.55C12.4125 31.5375 12.5062 31.5375 12.5937 31.55C12.6562 31.55 12.725 31.55 12.7875 31.5312C12.8812 31.5187 12.9375 31.5312 13.025 31.525C13.0875 31.5187 13.1312 31.5063 13.1937 31.5H13.3C13.3937 31.5125 13.4812 31.525 13.5687 31.5438L13.6187 31.55C13.7062 31.55 13.7937 31.5562 13.875 31.5812C13.9187 31.5625 13.9562 31.5438 14.0062 31.5312C14.1125 31.5063 14.2125 31.4813 14.3187 31.4688C14.4062 31.4562 14.4937 31.4438 14.5812 31.4188L14.7062 31.375C14.7812 31.375 14.825 31.3875 14.825 31.3875C14.825 31.3875 14.7687 31.4375 14.825 31.45C14.8812 31.4625 14.8812 31.4625 14.9687 31.4125C15.0562 31.3625 14.9062 31.3562 14.9687 31.3375H14.9937C15.0687 31.325 15.15 31.325 15.2312 31.3375C15.2562 31.3625 15.2625 31.3625 15.3187 31.3375C15.35 31.3375 15.3812 31.3313 15.4375 31.325C15.475 31.3188 15.5187 31.3188 15.5562 31.325H15.5812C15.625 31.325 15.65 31.3563 15.6875 31.3563H15.7687H15.775H15.7875C15.8312 31.3563 15.8687 31.35 15.9125 31.3312L15.975 31.3L16.025 31.3188C16.025 31.3188 15.9937 31.3687 16.0125 31.3813C16.0375 31.4 16.0375 31.4 16.0812 31.3563C16.125 31.3125 16.0625 31.3 16.0937 31.2812C16.125 31.2625 16.175 31.2812 16.2125 31.2938C16.2375 31.3 16.2687 31.3 16.2937 31.2938C16.3312 31.2938 16.3562 31.3062 16.3937 31.3C16.4187 31.2937 16.4375 31.2875 16.4625 31.2875H16.5062C16.5562 31.3062 16.6125 31.3438 16.6312 31.35C16.65 31.3563 16.7375 31.3563 16.7437 31.4125C16.75 31.4625 16.8 31.4813 16.8375 31.4375V31.5125H16.925L17 31.5312L17.0125 31.5375V31.6187L17.0812 31.6562L17.1125 31.6313C17.1437 31.6688 17.175 31.7062 17.2062 31.75C17.2375 31.7313 17.2187 31.7 17.25 31.65C17.2812 31.5812 17.3 31.5062 17.3062 31.425C17.3437 31.4437 17.3812 31.45 17.425 31.4438C17.5062 31.4375 17.425 31.4438 17.5125 31.3813C17.5312 31.3687 17.5312 31.3563 17.5437 31.3438L17.5937 31.3563C17.8125 31.4 18.0375 31.4312 18.2625 31.4438C18.3 31.4312 18.3437 31.425 18.3875 31.4125C18.5375 31.3813 18.5875 31.6063 18.5875 31.6063L18.6812 31.5625C18.7375 31.5625 18.7687 31.575 18.7687 31.575C18.7687 31.575 18.725 31.625 18.7687 31.6375C18.8125 31.65 18.8125 31.65 18.875 31.6C18.9375 31.55 18.825 31.5437 18.875 31.525C18.9437 31.5125 19.0125 31.5125 19.0812 31.525C19.1312 31.5312 19.1812 31.525 19.225 31.5125H19.2312C19.2437 31.5125 19.2562 31.525 19.2687 31.5312C19.2812 31.5375 19.2937 31.5188 19.3 31.5125C19.3312 31.5188 19.3687 31.5188 19.4 31.5125C19.4437 31.5 19.4875 31.4937 19.5312 31.4937H19.6125C19.7062 31.5063 19.8125 31.5437 19.8562 31.55C19.9 31.5562 20.0562 31.55 20.0687 31.6C20.075 31.65 20.1812 31.6687 20.2562 31.6187V31.6938H20.4187L20.5687 31.7125L20.5875 31.7188V31.8L20.7125 31.8375L20.7687 31.8125C20.8312 31.85 20.8875 31.8875 20.9437 31.9312L20.9687 32.0062C21.0812 31.925 21.2062 31.85 21.3312 31.8C21.4062 31.775 21.4875 31.75 21.5687 31.7375L21.6375 31.725C21.6812 31.7188 21.725 31.7062 21.7687 31.6875L21.8625 31.65C21.9187 31.65 21.95 31.6625 21.95 31.6625C21.95 31.6625 21.925 31.6938 21.9375 31.7125C21.9375 31.7188 21.9437 31.725 21.95 31.725C21.9687 31.7313 21.9812 31.7313 22 31.725C22.0187 31.7125 22.0437 31.7 22.0625 31.6812C22.125 31.6313 22.0125 31.625 22.0625 31.6063C22.1312 31.5938 22.2 31.5938 22.2625 31.6063C22.3125 31.6063 22.3625 31.6063 22.4062 31.5938C22.475 31.5812 22.525 31.6 22.5812 31.5938C22.625 31.5812 22.6687 31.575 22.7125 31.575H22.7937C22.8625 31.5875 22.9312 31.6 23 31.6187L23.0375 31.625C23.1062 31.625 23.1687 31.6375 23.2312 31.6562C23.2625 31.6375 23.2937 31.625 23.3312 31.6063C23.4062 31.5813 23.4875 31.5563 23.5687 31.5438C23.6375 31.5375 23.7 31.5187 23.7625 31.4937L23.8562 31.4562C23.9125 31.4562 23.9437 31.4688 23.9437 31.4688C23.9437 31.4688 23.9 31.5187 23.9437 31.5312C23.9875 31.5438 23.9875 31.5437 24.05 31.4937C24.1125 31.4438 24 31.4375 24.05 31.4188H24.0687C24.1312 31.4125 24.1937 31.4125 24.25 31.4188C24.3 31.425 24.35 31.4188 24.3937 31.4062C24.4625 31.3937 24.5125 31.4125 24.575 31.4062C24.6187 31.3937 24.6625 31.3875 24.7062 31.3875H24.7187H24.7375C24.8062 31.3813 24.8687 31.3625 24.9312 31.3375L25.025 31.2938C25.0812 31.2938 25.1125 31.3062 25.1125 31.3062C25.1125 31.3062 25.0687 31.3562 25.1125 31.3687C25.1562 31.3813 25.1562 31.3812 25.2187 31.3312C25.2812 31.2812 25.1687 31.275 25.2187 31.2563C25.2875 31.2437 25.3562 31.2437 25.4187 31.2563C25.4687 31.2625 25.5187 31.2563 25.5625 31.2437C25.6312 31.2312 25.6812 31.25 25.7437 31.2437C25.7875 31.2312 25.8312 31.225 25.8687 31.225H25.95C26.0437 31.2375 26.15 31.275 26.1937 31.2812C26.2375 31.2875 26.3937 31.2812 26.4062 31.3312C26.4125 31.3812 26.4812 31.3812 26.55 31.3625V31.3813C26.5625 31.3938 26.5812 31.4 26.5937 31.4125V31.425H26.6125C26.6437 31.45 26.675 31.4688 26.7125 31.4937L26.7687 31.5625L26.8875 31.6313L26.9062 31.6437C26.9625 31.5625 27.0812 31.7313 27.0812 31.7313C27.0812 31.7313 26.9875 31.8125 27.1187 31.8438C27.2125 31.8563 27.3 31.825 27.3687 31.7563C27.475 31.7375 27.5875 31.7563 27.6812 31.8125C27.7687 31.8625 27.875 31.8625 27.9625 31.8062C28.1062 31.7812 28.25 31.75 28.4 31.7125L28.5 31.6375L28.5125 31.7125L28.525 31.7188L28.5937 31.7313L28.6625 31.7188L28.675 31.7938C28.7 31.7438 28.7437 31.75 28.7625 31.7938C28.775 31.8375 28.85 31.825 28.8687 31.825C28.9125 31.8375 28.95 31.85 28.9937 31.8563L29.0312 31.85C29.05 31.8375 29.0687 31.825 29.0875 31.8125C29.1125 31.7938 29.1375 31.8125 29.1687 31.7875C29.2 31.7625 29.2 31.7563 29.2375 31.7563C29.2687 31.75 29.325 31.7437 29.3437 31.7188C29.3625 31.6875 29.3 31.7062 29.3187 31.65C29.3375 31.5938 29.3312 31.5938 29.3562 31.5938C29.3812 31.5938 29.3812 31.65 29.3812 31.65H29.4312L29.4625 31.5938C29.4812 31.5625 29.5062 31.5312 29.5375 31.5125C29.5687 31.4813 29.6 31.4438 29.625 31.4062L29.6562 31.3188C29.775 31.3062 29.8875 31.2812 30 31.2375L29.9562 31.1688L30.2187 31.05L30.25 31.0375C30.2687 30.9375 30.3062 30.85 30.3687 30.7687C30.3687 30.7687 30.3562 30.8375 30.3875 30.85L30.4125 30.7875C30.4125 30.75 30.425 30.7375 30.4437 30.7563L30.4625 30.775L30.475 30.7313C30.4687 30.7 30.4687 30.675 30.475 30.6437L30.5062 30.5812L30.5625 30.4438C30.5812 30.4438 30.6 30.4375 30.6125 30.4312C30.6437 30.4187 30.6 30.375 30.6 30.375L30.5375 30.4C30.5687 30.3375 30.6062 30.275 30.65 30.2188L30.725 30.2313C30.725 30.2313 30.75 30.275 30.7625 30.2563C30.7812 30.2375 30.7875 30.2062 30.775 30.175L30.7562 30.1625L30.7187 30.1313L30.8187 30H30.8812L30.9375 29.975L30.9937 29.9125C31.0187 29.9062 31.0437 29.9 31.0687 29.9062C31.0875 29.8875 31.1 29.8687 31.1125 29.8438V29.8L31.1312 29.7875L31.1625 29.7687C31.1812 29.75 31.1625 29.7313 31.1437 29.7188H31.1312L31.075 29.7687C31.0937 29.6937 31.025 29.625 31.0437 29.5562L31.0937 29.5438H31.1187C31.1187 29.5438 31.1562 29.575 31.1625 29.5562C31.175 29.5312 31.1687 29.5 31.15 29.475L31.125 29.4688L31.1062 29.4562L31.0812 29.4438C31.1 29.4 31.0562 29.3438 31.075 29.3L31.0812 29.275L31 29.1938L31.0437 29.1562L30.9687 29.0312C30.9875 29.0187 31.0125 29.0125 31.0375 29.0063C31.05 28.975 30.9562 28.9375 30.9625 28.9188L30.975 28.8813C30.8687 28.85 31.05 28.8563 30.95 28.8438C30.95 28.8438 30.9687 28.8187 30.8875 28.7687L30.9812 28.1625L31.0437 27.9438L31.1062 27.525L31.1187 27.4562C31.0375 27.2875 31.2 26.85 31.2 26.85C31.2 26.85 31.2875 27.15 31.3125 26.7062C31.325 26.4437 31.3 26.1812 31.225 25.9312C31.2062 25.6125 31.225 25.2875 31.2875 24.975C31.3437 24.7063 31.35 24.4312 31.3 24.1625L31.2687 22.9375L31.2187 22.6437H31.2937L31.3 22.625L31.325 22.4625V22.275H31.4C31.3562 22.1875 31.375 22.075 31.425 22.0688C31.475 22.0625 31.4812 21.8812 31.4875 21.8312C31.4937 21.7812 31.5375 21.6687 31.55 21.5562V21.4625C31.4875 21.4062 31.4875 21.3562 31.4812 21.3062ZM20.9187 4.88125L20.95 4.84375L20.9687 4.825L20.9812 4.8125L20.9 4.90625L20.9187 4.88125ZM8.71875 3.23125H8.725L8.75 3.21875V3.19375L8.81875 3.225C8.78125 3.2 8.8 3.19375 8.84375 3.225C8.8625 3.2375 8.88125 3.24375 8.9 3.25C8.91875 3.25625 8.9375 3.26875 8.95625 3.28125L8.95 3.26875C8.95 3.25625 8.94375 3.25 8.95 3.25625L8.91875 3.18125C8.90625 3.13125 8.90625 3.13125 8.91875 3.14375C8.925 3.1625 8.93125 3.18125 8.9375 3.20625L8.94375 3.21875V3.1875C8.94375 3.16875 8.94375 3.15625 8.95 3.1375C9.00625 3.1125 9.0625 3.09375 9.11875 3.075L9.25 3.0125C9.4625 3.05 9.68125 3.0875 9.9125 3.11875V3.0375L10.4625 3.1L10.525 3.1125C10.6875 3.04375 10.8625 3 11.0437 2.9875C11.0437 2.9875 10.9375 3.025 10.9687 3.05625L11.0875 3.025C11.15 3 11.1687 2.99375 11.175 3.025V3.05L11.2625 3.03125C11.3 3.00625 11.3375 2.98125 11.3812 2.96875L11.5125 2.95L11.7812 2.9C11.8062 2.9125 11.8375 2.925 11.8687 2.93125C11.8937 2.94375 11.925 2.925 11.9312 2.9C11.9312 2.89375 11.9312 2.8875 11.9375 2.88125L11.8187 2.85C11.9562 2.8375 12.0937 2.83125 12.2312 2.825L12.3 2.89375C12.3 2.89375 12.2625 2.9375 12.3 2.94375C12.3437 2.95 12.3937 2.9375 12.4312 2.90625V2.875L12.4437 2.825L12.7562 2.84375L12.8062 2.89375L12.8937 2.93125L13.0312 2.95C13.0562 2.9625 13.0812 2.9875 13.1 3.0125L13.225 3.025L13.3 3.0125L13.3312 3.025L13.3875 3.04375C13.4125 3.05625 13.4375 3.04375 13.45 3.01875C13.45 3.0125 13.45 3.0125 13.4562 3.00625V2.99375L13.3375 2.9625C13.475 2.95 13.55 2.85625 13.6875 2.85625L13.7375 2.9L13.7625 2.925C13.7625 2.925 13.725 2.96875 13.7625 2.975C13.8062 2.98125 13.8562 2.96875 13.8937 2.9375V2.9125L13.9 2.89375L13.9062 2.8625C13.9937 2.8625 14.075 2.8125 14.1625 2.81875H14.2062L14.325 2.725L14.4125 2.7625L14.5437 2.64375C14.5687 2.65625 14.5937 2.68125 14.6125 2.70625C14.675 2.71875 14.725 2.6125 14.7625 2.61875L14.8812 2.63125H14.9187L15.025 2.61875C15.2062 2.6 15.2437 2.81875 15.2437 2.81875L15.3562 2.78125L15.45 2.8C15.45 2.8 15.4 2.85 15.45 2.8625C15.5 2.875 15.5125 2.875 15.525 2.83125C15.5437 2.78125 15.5125 2.775 15.525 2.75625C15.5375 2.7375 15.5812 2.75625 15.6 2.75625C15.6187 2.75625 15.6312 2.75625 15.6562 2.75625C15.6812 2.75625 15.6937 2.775 15.725 2.775C15.7437 2.76875 15.7625 2.76875 15.7812 2.775L15.8 2.7875H15.8062C15.825 2.81875 15.8375 2.85 15.8375 2.8875C15.8375 2.9 15.8812 2.94375 15.8375 2.98125C15.7937 3.01875 15.7937 3.05 15.8375 3.04375L15.7687 3.0875L15.7812 3.125L15.7687 3.16875L15.7625 3.175L15.6875 3.2L15.65 3.23125H15.675C15.6375 3.25 15.6 3.2625 15.5562 3.26875L15.4812 3.28125C15.5812 3.38125 15.6562 3.5125 15.7 3.65C15.7312 3.74375 15.75 3.83125 15.7687 3.925L15.7812 4C15.7875 4.05 15.8 4.1 15.8187 4.14375C15.8312 4.1625 15.8437 4.1625 15.8562 4.16875C15.85 4.175 15.85 4.18125 15.8437 4.1875C15.825 4.18125 15.8125 4.18125 15.7937 4.18125H15.7812V4.1875L15.8187 4.20625C15.8687 4.23125 15.875 4.20625 15.8937 4.21875C15.9125 4.23125 15.8937 4.2625 15.8937 4.275V4.31875C15.8937 4.34375 15.875 4.34375 15.8812 4.3625C15.8875 4.375 15.8875 4.39375 15.8812 4.40625L15.8625 4.425C15.8375 4.43125 15.8125 4.43125 15.7875 4.425H15.7687C15.75 4.4375 15.725 4.4375 15.7062 4.425L15.7125 4.475C15.7062 4.5 15.6937 4.525 15.675 4.55C15.6562 4.56875 15.6437 4.5875 15.6312 4.60625L15.6062 4.65L15.5625 4.65625C15.5625 4.65625 15.5812 4.6 15.55 4.59375C15.5187 4.58125 15.5125 4.5875 15.4625 4.64375C15.4125 4.7 15.5125 4.69375 15.4687 4.71875H15.45C15.3875 4.73125 15.3187 4.73125 15.2562 4.71875C15.2 4.7125 15.1437 4.71875 15.0937 4.73125C15.0125 4.74375 14.9625 4.71875 14.8937 4.73125C14.8437 4.74375 14.7937 4.75 14.75 4.75H14.7375H14.7125C14.6375 4.75625 14.5625 4.775 14.4875 4.79375L14.3812 4.83125L14.275 4.81875C14.275 4.81875 14.325 4.76875 14.275 4.75625C14.225 4.74375 14.225 4.74375 14.1562 4.79375C14.0875 4.84375 14.2125 4.85 14.1562 4.86875C14.0812 4.88125 14 4.88125 13.9187 4.86875C13.8625 4.8625 13.8062 4.86875 13.75 4.88125C13.6687 4.89375 13.6187 4.875 13.55 4.88125C13.5 4.8875 13.45 4.9 13.4062 4.9H13.3125C13.2 4.8875 13.075 4.85 13.0312 4.84375C12.9875 4.8375 12.7937 4.84375 12.7875 4.7875C12.7812 4.73125 12.6625 4.71875 12.575 4.7625V4.6875H12.3875L12.2187 4.66875L12.2 4.6625V4.5625L12.0562 4.525L11.9937 4.54375C11.925 4.50625 11.8625 4.46875 11.8 4.425C11.725 4.44375 11.7687 4.475 11.6937 4.51875C11.625 4.58125 11.5687 4.65625 11.5375 4.7375C11.45 4.7125 11.3562 4.70625 11.2625 4.70625C11.0625 4.70625 11.2625 4.70625 11.0375 4.7625C10.8125 4.81875 10.875 4.9125 10.675 4.88125C10.65 4.875 10.6187 4.875 10.5937 4.86875C10.5875 4.84375 10.5687 4.825 10.5 4.775C10.425 4.7625 10.35 4.74375 10.2812 4.71875C10.2312 4.65625 10.1625 4.775 10.15 4.66875C10.0062 4.68125 9.85625 4.68125 9.7125 4.66875L9.60625 4.61875L9.35 4.56875L9.3125 4.5625C9.16875 4.64375 8.86875 4.45 8.9 4.45C8.89375 4.45 8.94375 4.43125 8.95625 4.4125C8.9875 4.39375 8.9 4.35625 8.9 4.34375C8.875 4.31875 8.775 4.4125 8.76875 4.40625C8.7625 4.4 8.65 4.3875 8.725 4.28125C8.79375 4.2 8.7125 4.19375 8.7125 4.1875V4.16875V4.04375V3.775V3.28125C8.7 3.25625 8.675 3.24375 8.6625 3.225L8.71875 3.23125ZM15.325 9.75C15.275 9.75 15.225 9.75 15.175 9.75L15.1312 9.7625C15.1062 9.775 15.0875 9.79375 15.0687 9.80625C15.0375 9.825 15.0062 9.825 14.9687 9.85C14.9312 9.875 14.925 9.8875 14.8875 9.9C14.85 9.9125 14.7812 9.93125 14.7687 9.9625C14.7562 9.99375 14.8187 9.96875 14.8062 10.0312C14.7937 10.0938 14.7875 10.0938 14.7562 10.1C14.725 10.1063 14.725 10.0437 14.725 10.0437L14.6625 10.0625L14.625 10.1313C14.6 10.175 14.5687 10.2125 14.5312 10.25C14.4937 10.2937 14.4562 10.3438 14.425 10.4L14.3937 10.5063L14.35 10.525C14.2187 10.5875 14.0937 10.6687 13.9812 10.7625L14.0437 10.8188C13.9437 10.9 13.85 10.9812 13.7625 11.075L13.7312 11.1C13.725 11.2188 13.7 11.3375 13.6562 11.45C13.6562 11.45 13.6562 11.3687 13.6187 11.375L13.6062 11.4563C13.6062 11.5 13.6062 11.5188 13.5812 11.5063L13.5562 11.4937V11.55C13.5687 11.5813 13.575 11.6125 13.5812 11.6438L13.5625 11.725L13.5437 11.9C13.525 11.9125 13.5125 11.925 13.4937 11.9375C13.4625 11.9688 13.5187 11.9937 13.5187 11.9937L13.575 11.9375L13.5125 12.1812L13.4375 12.2063C13.4375 12.2063 13.4 12.1688 13.3875 12.1938C13.375 12.225 13.3812 12.2563 13.4 12.2812L13.425 12.2875L13.4687 12.3125L13.4125 12.4937L13.3562 12.5125L13.3125 12.5562L13.275 12.6375C13.2562 12.6562 13.2312 12.6687 13.2062 12.675L13.1875 12.7563L13.1937 12.8062L13.1812 12.825L13.1625 12.8562C13.15 12.8875 13.175 12.8937 13.1937 12.9H13.2062L13.2437 12.825C13.2437 12.9125 13.3375 12.9688 13.3375 13.05L13.2875 13.0813L13.2625 13.0938C13.2625 13.0938 13.2187 13.0688 13.2125 13.0938C13.2062 13.125 13.2187 13.1625 13.25 13.175H13.275H13.2937H13.325C13.325 13.2312 13.3812 13.275 13.375 13.3313V13.3625L13.4812 13.425L13.4562 13.4812L13.5 13.5063L13.4937 13.5437C13.45 13.85 13.4187 14.1562 13.4062 14.4625L13.4312 14.6375C13.4437 14.7625 13.3625 14.875 13.2375 14.9062L13.275 15.0375L13.2625 15.1562C13.2625 15.1562 13.2125 15.0938 13.2 15.1562C13.1875 15.2188 13.1875 15.2188 13.2375 15.3062C13.2875 15.3937 13.2937 15.2437 13.3125 15.3062C13.325 15.4 13.325 15.4937 13.3125 15.5875C13.3062 15.6562 13.3125 15.725 13.325 15.7875C13.3375 15.8875 13.3187 15.9438 13.325 16.0312C13.3375 16.0875 13.3437 16.15 13.3437 16.2062V16.325C13.3312 16.4563 13.2937 16.6 13.2875 16.6562C13.2812 16.7125 13.2875 16.9375 13.2312 16.9438C13.175 16.9563 13.1625 17.0938 13.2125 17.2H13.1375V17.425L13.1187 17.625L13.1125 17.65H13.0312L12.9937 17.825L13.0187 17.9C12.9875 17.9812 12.9437 18.0625 12.9 18.1437L12.825 18.175C12.9062 18.3375 12.975 18.5125 13.0312 18.6875C13.05 18.7563 13.075 18.8812 13.0937 19.0187L13.1062 19.1125C13.1125 19.175 13.125 19.2313 13.1437 19.2938L13.1812 19.425L13.1687 19.5438C13.1687 19.5438 13.1375 19.5063 13.1187 19.525C13.1125 19.5312 13.1062 19.5375 13.1062 19.5438C13.1 19.5625 13.1 19.5875 13.1062 19.6125C13.1187 19.6437 13.1312 19.6688 13.15 19.6938C13.2 19.7812 13.2062 19.625 13.225 19.6938C13.2375 19.7875 13.2375 19.8813 13.225 19.975C13.2187 20.0438 13.225 20.1125 13.2375 20.175C13.25 20.2687 13.2312 20.3313 13.2375 20.4188C13.25 20.475 13.2562 20.5375 13.2562 20.5938V20.7125C13.2437 20.8188 13.225 20.925 13.2062 20.9937L13.2 21.0438C13.2 21.1313 13.1875 21.225 13.1687 21.3125L13.2187 21.45C13.2437 21.5563 13.2625 21.6688 13.2812 21.7812C13.2875 21.875 13.3062 21.9625 13.3312 22.05L13.3687 22.1812L13.3562 22.3C13.3562 22.3 13.3062 22.2375 13.2937 22.3C13.2812 22.3625 13.2812 22.3625 13.3312 22.45C13.3812 22.5375 13.3875 22.3813 13.4062 22.45V22.475C13.4187 22.5625 13.4187 22.6438 13.4062 22.7313C13.4 22.8 13.4062 22.8687 13.4187 22.9312C13.4312 23.025 13.4125 23.0875 13.4187 23.175C13.425 23.2375 13.4375 23.2812 13.4375 23.35V23.3687V23.4C13.4437 23.4937 13.4625 23.5813 13.4875 23.6688L13.525 23.8L13.5125 23.9188C13.5125 23.9188 13.4625 23.8563 13.45 23.9188C13.4375 23.9813 13.4375 23.9813 13.4875 24.0688C13.5375 24.1562 13.5437 24 13.5625 24.0688C13.575 24.1625 13.575 24.2563 13.5625 24.35C13.5562 24.4188 13.5625 24.4875 13.575 24.55C13.5875 24.6437 13.5687 24.7063 13.575 24.7938C13.5875 24.85 13.5937 24.9125 13.5937 24.975V25.0938C13.5812 25.225 13.5437 25.3687 13.5375 25.425C13.5312 25.4812 13.5375 25.7062 13.4812 25.7125C13.425 25.725 13.4125 25.8625 13.4625 25.9688H13.3875V26.2062L13.3687 26.4062L13.3625 26.4312H13.2812L13.2437 26.6063L13.2687 26.6812C13.2312 26.7625 13.1937 26.8375 13.15 26.9188C13.1687 27.0063 13.2 26.9625 13.25 27.05C13.3062 27.1312 13.3812 27.1937 13.4687 27.2375C13.4437 27.35 13.4375 27.4563 13.4437 27.5688C13.4437 27.8062 13.4437 27.5688 13.5 27.8438C13.5125 27.9188 13.5437 27.9937 13.5875 28.0625C13.5687 28.125 13.55 28.1812 13.5375 28.25L13.5687 28.3125C13.6 28.3875 13.3812 28.4312 13.3812 28.4312L13.425 28.4813L13.4375 28.5187C13.4375 28.5187 13.3875 28.5 13.375 28.5187C13.3625 28.5375 13.3625 28.5438 13.4125 28.5688C13.4625 28.6 13.4625 28.5375 13.4875 28.5625C13.5125 28.5875 13.5 28.6125 13.4937 28.6437C13.4812 28.6437 13.4687 28.6437 13.4562 28.6437C13.3812 28.6312 13.3062 28.6312 13.2375 28.6437C13.1812 28.675 13.3 28.6813 13.2312 28.7313C13.1625 28.7812 13.1625 28.7812 13.1125 28.7687C13.0625 28.7562 13.1125 28.7062 13.1125 28.7062C13.1125 28.7062 13.0812 28.7 13.0187 28.6938L12.9125 28.7375C12.8437 28.7625 12.775 28.7812 12.7 28.7875C12.6125 28.8 12.525 28.825 12.4375 28.85C12.3875 28.8687 12.3437 28.8938 12.2937 28.9188C12.0562 28.8813 11.825 28.85 11.5687 28.825V28.9062L10.9687 28.8563L10.9 28.8438C10.7187 28.9125 10.525 28.9625 10.3312 28.9813C10.3312 28.9813 10.45 28.9375 10.4125 28.9125L10.2812 28.9438C10.2125 28.9688 10.1875 28.975 10.1875 28.9438V28.9125L10.0937 28.9375C10.0562 28.9625 10.0125 28.9875 9.96875 29L9.825 29.0187L9.53125 29.075C9.5 29.0625 9.46875 29.05 9.4375 29.0438C9.40625 29.0312 9.375 29.05 9.36875 29.075C9.36875 29.0813 9.36875 29.0812 9.3625 29.0875L9.4875 29.1187C9.3375 29.1313 9.1875 29.1437 9.03125 29.15L8.95625 29.0812C8.95625 29.0812 8.99375 29.0375 8.95625 29.0312C8.90625 29.025 8.85625 29.0375 8.8125 29.0688V29.0938L8.79375 29.1437C8.675 29.1437 8.55625 29.1438 8.45625 29.1313L8.4 29.0812L8.30625 29.05L8.15625 29.0312C8.125 29.0187 8.1 28.9937 8.08125 28.9688C8.025 28.9625 7.98125 28.9625 7.94375 28.9562L7.8625 28.9688L7.83125 28.9562C7.8125 28.95 7.79375 28.9438 7.775 28.9438C7.75 28.9312 7.71875 28.9438 7.70625 28.975V28.9813V28.9937L7.83125 29.025C7.68125 29.0375 7.59375 29.1312 7.44375 29.1437L7.39375 29.1L7.36875 29.075C7.36875 29.075 7.40625 29.0312 7.36875 29.025C7.31875 29.0187 7.26875 29.0312 7.225 29.0625V29.0875L7.2125 29.1L7.2 29.1313C7.1 29.1313 7.01875 29.1875 6.925 29.1812H6.875L6.75 29.2812L6.65625 29.25L6.6125 29.2812C6.59375 29.2687 6.575 29.25 6.5625 29.2313C6.5375 29.1562 6.5 29.2625 6.5 29.1625C6.4125 29.1375 6.31875 29.1187 6.225 29.1L6.125 29.05L5.95 29.0063L5.925 28.9937C5.8625 29.0812 5.6875 28.9375 5.6875 28.9375C5.6875 28.9375 5.79375 28.8438 5.625 28.8312C5.525 28.8312 5.425 28.8687 5.35 28.9375C5.2375 28.9625 5.125 28.9375 5.025 28.8813C4.95625 28.825 4.85625 28.8125 4.775 28.8563C4.65625 28.8563 4.5375 28.85 4.425 28.8375L4.33125 28.8687L4.35625 28.7938V28.7812L4.31875 28.75L4.275 28.7375L4.3 28.6688C4.26875 28.7063 4.25 28.6812 4.2625 28.6313C4.28125 28.5813 4.24375 28.5688 4.24375 28.5562C4.24375 28.5312 4.2375 28.5125 4.23125 28.4875V28.475L4.2125 28.4875C4.2 28.4875 4.2125 28.475 4.19375 28.4813C4.175 28.4875 4.18125 28.4938 4.18125 28.4813C4.18125 28.4688 4.18125 28.4625 4.16875 28.4813C4.15625 28.5 4.15625 28.5063 4.125 28.5438C4.09375 28.5813 4.09375 28.5813 4.09375 28.5688C4.1 28.5562 4.13125 28.5125 4.13125 28.5125V28.5L4.1 28.525C4.0875 28.5375 4.075 28.5437 4.0625 28.55L4.00625 28.575L3.95 28.6063C3.96875 28.5625 3.98125 28.5187 3.99375 28.4688L3.93125 28.5125L3.94375 28.3875V28.3687C3.88125 28.3562 3.825 28.325 3.78125 28.2812C3.80625 28.2938 3.83125 28.2938 3.85625 28.2812C3.84375 28.275 3.83125 28.2625 3.81875 28.2563C3.7875 28.2437 3.7875 28.2375 3.8125 28.2313L3.8375 28.225L3.8125 28.2062C3.7875 28.2062 3.7625 28.2 3.74375 28.1875L3.7125 28.15C3.6875 28.125 3.66875 28.0938 3.64375 28.0688C3.65625 28.0562 3.6625 28.0438 3.66875 28.0312C3.68125 28.0063 3.61875 28.0187 3.61875 28.0187L3.59375 28.0688C3.56875 28.0188 3.55625 27.9688 3.54375 27.9188L3.60625 27.8813C3.60625 27.8813 3.65625 27.8875 3.65625 27.875C3.65625 27.8375 3.6125 27.8312 3.6125 27.8312H3.5875H3.54375C3.54375 27.7875 3.54375 27.75 3.54375 27.7062L3.59375 27.6812L3.625 27.6437L3.64375 27.5875C3.6625 27.575 3.68125 27.5625 3.70625 27.55L3.71875 27.5L3.70625 27.4688L3.71875 27.4562L3.73125 27.4312C3.74375 27.4125 3.7125 27.4062 3.69375 27.4062H3.68125L3.65625 27.4562C3.6375 27.4 3.5375 27.3813 3.5375 27.3188L3.58125 27.2938L3.60625 27.2812C3.60625 27.2812 3.65 27.2938 3.65625 27.2812C3.65625 27.2563 3.64375 27.2375 3.61875 27.225H3.56875H3.5625C3.5625 27.1875 3.5125 27.1562 3.5125 27.1187V27.1L3.4875 27.0875L3.525 26.8813L3.575 26.2938L3.5875 26.2C3.55625 25.9188 3.575 25.6312 3.65 25.3625C3.65 25.3625 3.74375 25.7687 3.75625 25.1562C3.7625 24.7938 3.725 24.4375 3.6375 24.0875C3.6125 23.6437 3.625 23.2 3.675 22.7563C3.725 22.3813 3.71875 22.0063 3.6625 21.6375L3.59375 19.95L3.53125 19.5438H3.60625L3.6125 19.5125L3.63125 19.275V19.0187H3.70625C3.6625 18.9 3.675 18.7375 3.725 18.7313C3.775 18.7188 3.775 18.4688 3.78125 18.4C3.7875 18.3312 3.825 18.175 3.8375 18.025V17.8937C3.8375 17.8187 3.825 17.7688 3.81875 17.6938C3.80625 17.5938 3.825 17.525 3.81875 17.4125C3.80625 17.3375 3.8 17.2562 3.80625 17.175C3.81875 17.0687 3.81875 16.9625 3.80625 16.8563C3.7875 16.7812 3.78125 16.9563 3.73125 16.8563C3.68125 16.7563 3.68125 16.7563 3.69375 16.6875C3.70625 16.6187 3.75625 16.6875 3.75625 16.6875L3.76875 16.55L3.73125 16.4C3.70625 16.3 3.69375 16.1938 3.68125 16.0938C3.66875 15.9688 3.64375 15.8438 3.61875 15.7188L3.55 15.5125C3.58125 15.1812 3.6125 14.8313 3.65 14.475H3.5625L3.61875 13.6062L3.63125 13.5125C3.5625 13.2437 3.51875 12.9688 3.5 12.6938C3.5 12.6938 3.54375 12.8687 3.56875 12.8125V12.8062L3.5375 12.6125C3.5125 12.5125 3.50625 12.4812 3.5375 12.4812H3.5625L3.5375 12.35C3.5125 12.2938 3.4875 12.2312 3.475 12.1687L3.45625 11.9625L3.4 11.5375C3.4125 11.4938 3.425 11.45 3.43125 11.4062C3.45 11.3125 3.3875 11.3 3.3875 11.3L3.35625 11.4812L3.325 10.8375L3.39375 10.7312C3.39375 10.7312 3.44375 10.7937 3.44375 10.7312C3.45 10.6625 3.4375 10.5875 3.40625 10.525H3.38125L3.325 10.5L3.3375 10.0125L3.3875 9.93125L3.41875 9.8L3.4375 9.58125C3.45 9.54375 3.46875 9.50625 3.5 9.475L3.5125 9.275L3.5 9.15625L3.5125 9.10625L3.53125 9.01875C3.54375 8.95 3.5125 8.91875 3.49375 8.9125H3.48125L3.45 9.09375C3.4375 8.88125 3.34375 8.75625 3.3375 8.53125L3.38125 8.45625L3.40625 8.41875C3.40625 8.41875 3.45 8.48125 3.45625 8.41875C3.4625 8.35 3.45 8.275 3.41875 8.2125H3.39375L3.375 8.2L3.34375 8.1875C3.34375 8.04375 3.29375 7.925 3.29375 7.7875V7.7125L3.20625 7.525L3.2375 7.39375L3.11875 7.175C3.13125 7.1375 3.15 7.1 3.18125 7.06875C3.1875 6.975 3.0875 6.8875 3.09375 6.83125V6.76875C3.15625 6.75625 3.225 6.725 3.24375 6.68125L3.275 6.60625C3.30625 6.5125 3.33125 6.41875 3.34375 6.325C3.33125 6.3125 3.325 6.29375 3.31875 6.275C3.29375 6.2125 3.5125 6.20625 3.5125 6.20625L3.475 6.16875L3.49375 6.1375C3.49375 6.1375 3.54375 6.15625 3.55625 6.1375C3.56875 6.11875 3.56875 6.125 3.525 6.09375C3.48125 6.0625 3.46875 6.10625 3.45 6.0875C3.43125 6.06875 3.45 6.03125 3.4625 6.00625C3.475 5.9875 3.4625 5.975 3.4625 5.95C3.4625 5.925 3.48125 5.90625 3.48125 5.88125C3.475 5.8625 3.475 5.84375 3.475 5.825L3.4875 5.79375C3.5125 5.76875 3.54375 5.74375 3.575 5.71875C3.5875 5.70625 3.60625 5.65 3.65625 5.66875C3.70625 5.6875 3.73125 5.65625 3.70625 5.6125L3.775 5.64375L3.8 5.59375L3.84375 5.5625H3.85625L3.925 5.6L3.98125 5.5875L3.96875 5.5625C4.0125 5.5625 4.05625 5.575 4.1 5.5875L4.16875 5.625C4.125 5.56875 4.0875 5.5 4.0625 5.425C4.05625 5.39375 4.05625 5.3625 4.0625 5.3375V5.3125C4.0625 5.29375 4.0625 5.275 4.0625 5.2625V5.21875L4.09375 5.20625C4.1 5.21875 4.1125 5.2375 4.125 5.25L4.1375 5.25625C4.14375 5.25625 4.15 5.25625 4.15 5.25C4.15 5.24375 4.15 5.23125 4.1375 5.20625C4.11875 5.1625 4.09375 5.175 4.0875 5.15C4.08125 5.125 4.10625 5.13125 4.11875 5.13125C4.13125 5.13125 4.125 5.125 4.13125 5.10625C4.1375 5.0875 4.16875 5.09375 4.18125 5.075C4.1875 5.0625 4.2 5.05 4.20625 5.0375C4.21875 5.0375 4.21875 5.03125 4.23125 5.025C4.2625 5.025 4.29375 5.025 4.33125 5.0375H4.35C4.36875 5.0375 4.40625 5.01875 4.4375 5.0375L4.4625 4.98125C4.4875 4.94375 4.5125 4.9125 4.54375 4.8875C4.575 4.86875 4.60625 4.84375 4.63125 4.8125L4.6625 4.7625H4.7125C4.7125 4.7625 4.7125 4.81875 4.73125 4.825C4.75 4.83125 4.75625 4.825 4.775 4.775C4.79375 4.725 4.7375 4.73125 4.75 4.7L4.75625 4.69375C4.7875 4.675 4.81875 4.66875 4.85 4.66875C4.88125 4.66875 4.8875 4.65625 4.91875 4.6375C4.95 4.61875 4.98125 4.63125 5.0125 4.6125C5.03125 4.6 5.05625 4.5875 5.075 4.58125L5.1 4.575C5.1375 4.55625 5.16875 4.5375 5.19375 4.50625L5.2375 4.45625H5.2875C5.2875 4.45625 5.275 4.5125 5.3 4.51875C5.325 4.525 5.325 4.525 5.35 4.475C5.375 4.425 5.30625 4.43125 5.33125 4.40625C5.35625 4.38125 5.4125 4.3875 5.44375 4.3875C5.475 4.3875 5.4875 4.375 5.525 4.3625C5.5625 4.35 5.5875 4.3625 5.625 4.35C5.64375 4.3375 5.66875 4.33125 5.69375 4.31875H5.7375C5.7875 4.33125 5.83125 4.34375 5.875 4.3625C5.9 4.3625 5.9875 4.3625 5.99375 4.4125C6 4.4625 6.05625 4.475 6.09375 4.43125V4.50625H6.18125L6.25625 4.525L6.26875 4.53125V4.5625L6.33125 4.60625L6.35625 4.58125V4.59375C6.35625 4.6875 6.375 4.78125 6.4 4.86875C6.41875 4.98125 6.44375 5.0875 6.475 5.19375L6.575 5.4125L6.6375 5.55C6.69375 5.69375 6.7625 5.825 6.84375 5.95625C6.8875 6.03125 7.1125 6.23125 7.09375 6.275C7.075 6.31875 7.21875 6.45625 7.38125 6.49375L7.35 6.56875C7.45 6.625 7.55 6.66875 7.65 6.7125C7.7375 6.75625 7.83125 6.79375 7.925 6.83125L7.95625 6.85L7.925 6.91875L8.175 7.025H8.29375C8.4 7.075 8.50625 7.13125 8.6125 7.19375C8.71875 7.19375 8.66875 7.15 8.76875 7.1125C8.8625 7.06875 8.9375 7 8.9875 6.9125C9.09375 6.95 9.20625 6.9625 9.3125 6.9625C9.575 6.96875 9.30625 6.9625 9.625 6.9125C9.9125 6.85 9.89375 6.78125 10.0625 6.7625C10.1062 6.78125 10.1437 6.80625 10.1812 6.83125C10.2125 6.90625 10.3062 6.80625 10.2937 6.90625L10.8375 6.99375L11.0312 7.05L11.3937 7.10625L11.4562 7.11875C11.6 7.03125 11.975 7.1875 11.975 7.1875C11.975 7.1875 11.725 7.275 12.1062 7.29375C12.3312 7.30625 12.5562 7.26875 12.7687 7.1875C13.0437 7.1625 13.3187 7.18125 13.5875 7.23125C13.8187 7.2875 14.0562 7.2875 14.2875 7.23125L15.3312 7.175L15.575 7.11875L15.5812 7.19375L15.6 7.2L15.7687 7.20625L15.9812 7.18125L15.9937 7.25625C16.125 7.19375 16.3062 7.175 16.3312 7.21875C16.3562 7.26875 16.6437 7.2 16.725 7.18125C16.875 7.15625 17.025 7.125 17.1687 7.075L17.3062 7.0125C17.375 6.975 17.4375 6.93125 17.5 6.88125C17.5937 6.825 17.6812 6.7625 17.7687 6.69375C17.8625 6.60625 17.8812 6.575 17.9625 6.5125C18.0625 6.4375 18.1437 6.34375 18.2125 6.2375C18.25 6.15625 18.1187 6.3125 18.15 6.1875C18.1812 6.0625 18.1812 6.06875 18.2312 6.0125C18.2875 5.95 18.2812 6.05 18.2812 6.05C18.3187 6.0125 18.3562 5.96875 18.3875 5.91875L18.4375 5.75L18.525 5.40625C18.5562 5.26875 18.575 5.125 18.575 4.975C18.5687 4.89375 18.5625 4.8125 18.5437 4.73125C18.5687 4.6125 18.5812 4.4875 18.5937 4.35625C18.6312 4.36875 18.675 4.3875 18.7125 4.4125C18.7125 4.4125 18.5625 4.5125 18.8 4.5125C18.9437 4.5125 19.0875 4.475 19.2062 4.39375C19.375 4.36875 19.5437 4.3875 19.7062 4.45C19.8312 4.5125 19.975 4.51875 20.1062 4.48125C20.2875 4.4875 20.4687 4.5 20.65 4.53125L20.7812 4.50625L20.7562 4.575V4.5875L20.8062 4.625L20.8625 4.64375L20.8312 4.7125C20.8812 4.68125 20.8937 4.7125 20.875 4.75625C20.8625 4.78125 20.875 4.81875 20.9 4.83125V4.9L20.9062 4.90625L20.9125 4.9C20.9187 4.9 20.925 4.89375 20.9187 4.9C20.9125 4.90625 20.9125 4.9125 20.925 4.9C20.9375 4.8875 20.9437 4.875 20.9812 4.85C21.0187 4.825 21.025 4.825 21.0125 4.8375C21 4.85 20.9812 4.86875 20.9625 4.875V4.8875C20.975 4.88125 20.9875 4.875 21 4.875C21.0187 4.86875 21.0375 4.86875 21.0562 4.875L21.1312 4.9H21.2062C21.1937 4.9875 21.1812 5.075 21.1812 5.16875L21.2562 5.15L21.25 5.41875L21.2437 5.45C21.3437 5.50625 21.4062 5.7125 21.4062 5.7125C21.4062 5.7125 21.3625 5.65625 21.3312 5.68125L21.3687 5.75C21.4 5.78125 21.4 5.79375 21.375 5.8H21.35L21.375 5.85C21.4 5.86875 21.425 5.8875 21.4437 5.9125L21.4687 5.9875L21.525 6.15C21.5125 6.16875 21.5062 6.1875 21.4937 6.20625C21.4812 6.24375 21.5437 6.25 21.5437 6.25L21.575 6.175C21.5937 6.2625 21.6 6.35 21.6062 6.4375L21.5375 6.4875C21.5375 6.4875 21.4937 6.4625 21.4875 6.4875C21.4812 6.51875 21.4937 6.55 21.525 6.56875H21.55L21.6 6.58125C21.6 6.65 21.5937 6.7125 21.5875 6.78125L21.5375 6.8125L21.5 6.86875L21.475 6.95625C21.4562 6.975 21.4375 6.99375 21.4125 7L21.4 7.08125L21.4125 7.13125L21.4 7.15L21.3812 7.1875C21.3687 7.21875 21.4 7.23125 21.4125 7.23125H21.425L21.4625 7.15625C21.475 7.24375 21.5625 7.3 21.5625 7.39375L21.5187 7.425L21.4937 7.4375C21.4937 7.4375 21.45 7.4125 21.4437 7.4375C21.4375 7.46875 21.45 7.50625 21.475 7.525H21.5L21.5187 7.53125L21.55 7.5375C21.55 7.56875 21.5562 7.60625 21.5687 7.63125H21.5187L21.475 7.69375L21.5 7.71875C21.4625 7.75 21.425 7.78125 21.3812 7.80625L21.3 7.81875C21.375 7.86875 21.4437 7.93125 21.5 8C21.525 8.0375 21.5437 8.075 21.5562 8.11875L21.5687 8.15C21.575 8.175 21.5875 8.19375 21.6 8.2125L21.6375 8.2625L21.625 8.30625C21.6062 8.3 21.5937 8.3 21.575 8.3L21.5625 8.30625C21.5625 8.31875 21.55 8.325 21.5625 8.33125C21.575 8.34375 21.5875 8.35 21.6062 8.3625C21.6562 8.39375 21.6625 8.3375 21.6812 8.3625C21.7 8.3875 21.6875 8.4375 21.6812 8.4625C21.675 8.49375 21.6812 8.5 21.6937 8.5375C21.7062 8.575 21.6812 8.59375 21.6937 8.625C21.7 8.64375 21.7062 8.66875 21.7125 8.6875V8.73125C21.7 8.76875 21.6812 8.8 21.6625 8.83125L21.6562 8.85C21.6562 8.86875 21.65 8.925 21.6187 8.94375L21.6687 8.99375C21.6937 9.03125 21.7125 9.06875 21.725 9.1125C21.7312 9.15 21.75 9.18125 21.7687 9.2125L21.8062 9.2625L21.7937 9.30625C21.7937 9.30625 21.7437 9.28125 21.7312 9.30625C21.7187 9.33125 21.7187 9.33125 21.7687 9.3625C21.8187 9.39375 21.825 9.3375 21.8437 9.3625V9.375C21.85 9.40625 21.85 9.4375 21.8437 9.46875C21.8437 9.5 21.8437 9.50625 21.8562 9.54375V9.575C21.8062 9.5625 21.7625 9.55625 21.7125 9.54375V9.625L21.2812 9.5625L21.2312 9.55C21.1062 9.6125 20.9687 9.65625 20.825 9.66875C20.825 9.66875 20.9125 9.63125 20.8875 9.6L20.7937 9.63125C20.7437 9.65625 20.725 9.65625 20.725 9.63125V9.6375L20.6562 9.65625C20.6312 9.68125 20.6 9.7 20.5687 9.71875L20.4687 9.7375L20.2562 9.7875C20.2312 9.775 20.2 9.7625 20.1687 9.75625C20.1187 9.7375 20.1125 9.8 20.1125 9.8L20.2 9.83125C20.0937 9.84375 19.9812 9.85 19.875 9.85L19.8187 9.78125C19.8187 9.78125 19.85 9.7375 19.8187 9.73125C19.7812 9.725 19.7437 9.7375 19.7187 9.7625V9.7875L19.7062 9.8375L19.4625 9.81875L19.425 9.7625L19.3562 9.725L19.25 9.7C19.225 9.68125 19.2062 9.6625 19.1937 9.6375L19.0937 9.625L19.0375 9.6375L19.0125 9.625L18.9687 9.60625C18.9312 9.59375 18.9187 9.625 18.9187 9.64375V9.65625L19.0062 9.6875C18.9 9.7 18.8437 9.79375 18.7312 9.79375L18.6937 9.75625L18.675 9.73125C18.675 9.73125 18.7062 9.6875 18.675 9.68125C18.6375 9.675 18.6 9.6875 18.575 9.7125V9.7375V9.75625L18.5687 9.7875C18.5 9.7875 18.4375 9.8375 18.3687 9.83125H18.3312L18.2625 9.90625C18.2437 9.9 18.225 9.8875 18.2062 9.875L18.1 9.79375L17.8937 9.7125L17.8625 9.7C17.775 9.775 17.575 9.6125 17.575 9.6125C17.575 9.6125 17.7187 9.525 17.5062 9.50625C17.3812 9.49375 17.25 9.53125 17.1562 9.6125C17.0187 9.64375 16.875 9.64375 16.7375 9.60625C16.6187 9.56875 16.4937 9.5875 16.3937 9.6625C16.225 9.7125 16.0625 9.7625 15.8937 9.825L15.7875 9.9125L15.7687 9.84375L15.7562 9.8375H15.675L15.5937 9.8625L15.5687 9.79375C15.5437 9.85 15.4875 9.85 15.4687 9.8C15.4312 9.725 15.35 9.75 15.325 9.75ZM28.7562 14.8687L28.7937 15L28.7812 15.1187C28.7812 15.1187 28.7312 15.0562 28.7187 15.1187C28.7062 15.1812 28.7062 15.1813 28.75 15.2688C28.7937 15.3562 28.8062 15.2 28.825 15.2688C28.8375 15.3625 28.8375 15.4563 28.825 15.55C28.8187 15.6188 28.825 15.6875 28.8312 15.75C28.8375 15.8438 28.8187 15.9062 28.8312 15.9937C28.8375 16.05 28.8437 16.1125 28.85 16.1688L28.8437 16.2812C28.8312 16.4125 28.7875 16.5562 28.7812 16.6125C28.775 16.6687 28.7687 16.8937 28.7187 16.9C28.6687 16.9062 28.65 17.05 28.6937 17.1562H28.6187V17.3813L28.5937 17.5812L28.5812 17.6063H28.5L28.4562 17.7812L28.475 17.8563C28.4375 17.9375 28.3937 18.0187 28.35 18.0938L28.275 18.125C28.3562 18.2875 28.4187 18.4563 28.4687 18.6313C28.4937 18.7375 28.5125 18.85 28.5187 18.9625L28.5312 19.0562C28.5375 19.1187 28.55 19.175 28.5625 19.2375L28.6 19.3687L28.5875 19.4875C28.5875 19.4875 28.5562 19.45 28.5375 19.4688C28.5312 19.475 28.525 19.4812 28.525 19.4875C28.5187 19.5062 28.5187 19.5312 28.5187 19.55C28.5312 19.5812 28.5437 19.6063 28.5562 19.6313C28.6062 19.7188 28.6125 19.5688 28.6312 19.6313C28.6437 19.725 28.6437 19.8188 28.6312 19.9125C28.625 19.9813 28.6312 20.0437 28.6375 20.1125C28.65 20.2062 28.625 20.2688 28.6375 20.3563C28.6375 20.4188 28.65 20.4625 28.65 20.5312L28.6437 20.65C28.6312 20.7437 28.6125 20.8375 28.5875 20.9312L28.575 20.9813C28.575 21.0688 28.5625 21.1562 28.5375 21.2437L28.5812 21.3813C28.6062 21.4875 28.625 21.6 28.6312 21.7125C28.6375 21.8062 28.65 21.8938 28.675 21.9813L28.7125 22.1125L28.7 22.2313C28.7 22.2313 28.65 22.1688 28.6375 22.2313C28.625 22.2938 28.625 22.2938 28.6687 22.3813C28.7125 22.4688 28.725 22.3188 28.7437 22.3813V22.4062C28.75 22.4937 28.75 22.575 28.7375 22.6625C28.7312 22.7313 28.7375 22.8 28.7437 22.8625C28.75 22.9562 28.7312 23.0188 28.7437 23.1063C28.75 23.1625 28.7562 23.225 28.7625 23.2812V23.3V23.3312C28.7687 23.425 28.7812 23.5125 28.8062 23.6L28.8437 23.7313L28.8312 23.85C28.8312 23.85 28.7812 23.7875 28.7687 23.85C28.7562 23.9125 28.7562 23.9125 28.8 24C28.8437 24.0875 28.8562 23.9375 28.875 24C28.8875 24.0938 28.8875 24.1875 28.875 24.2812C28.8687 24.35 28.875 24.4188 28.8812 24.4813C28.8875 24.575 28.8687 24.6375 28.8812 24.725C28.8875 24.7812 28.8937 24.8438 28.9 24.9L28.8937 25.0187C28.8812 25.15 28.8375 25.2938 28.8312 25.35C28.825 25.4062 28.8187 25.6313 28.7687 25.6375C28.7187 25.6438 28.7 25.7812 28.7437 25.8875H28.6687V26.1125L28.6437 26.3125L28.6312 26.3375H28.55L28.5062 26.5125L28.525 26.5875C28.4937 26.6625 28.45 26.7437 28.4062 26.8125C28.4187 26.9 28.4562 26.8563 28.5 26.9438C28.5562 27.025 28.6312 27.0938 28.7125 27.1437C28.6875 27.25 28.675 27.3625 28.6812 27.475C28.6812 27.7125 28.6812 27.475 28.7312 27.75C28.7812 28.025 28.8812 27.95 28.8375 28.1875C28.8062 28.3062 28.8125 28.4312 28.8437 28.55C28.875 28.5938 28.9062 28.6375 28.9312 28.6875C28.9187 28.7 28.9 28.7062 28.8812 28.7188L28.9 28.7437C28.9187 28.775 28.7062 28.7 28.7062 28.7L28.7375 28.725H28.7187C28.7 28.7125 28.6812 28.7063 28.6625 28.7C28.65 28.7 28.65 28.7 28.6937 28.725C28.7375 28.75 28.7437 28.7437 28.7625 28.7563C28.7812 28.7688 28.7625 28.7687 28.7562 28.7687C28.75 28.7687 28.7562 28.775 28.7562 28.7875C28.7562 28.8 28.7437 28.7875 28.7437 28.8062C28.75 28.8125 28.75 28.8187 28.75 28.8312H28.7375C28.7125 28.8312 28.6937 28.825 28.6687 28.8188C28.6625 28.8188 28.65 28.8312 28.6062 28.8C28.5625 28.7687 28.5437 28.7625 28.575 28.8L28.5187 28.75L28.5062 28.7625H28.4812H28.5L28.45 28.7062L28.4125 28.6875L28.425 28.7062L28.3312 28.6187L28.2812 28.5625C28.325 28.6187 28.3562 28.675 28.3812 28.7375C28.3875 28.7562 28.3937 28.775 28.3937 28.8V28.8125V28.85L28.4062 28.8875H28.3875L28.3625 28.8438L28.3562 28.8312H28.35L28.3625 28.8687C28.3812 28.9187 28.3937 28.9125 28.4 28.9375C28.4062 28.9562 28.3875 28.9563 28.375 28.95C28.3625 28.9438 28.3687 28.95 28.3625 28.9688C28.3562 28.9875 28.3437 28.9688 28.3437 28.9813C28.3437 28.9938 28.3437 29 28.3312 29.0063H28.3187C28.3062 28.9937 28.2875 28.9813 28.275 28.9688L28.2687 28.9625C28.2625 28.9625 28.2375 28.9625 28.225 28.9375V28.9875C28.2187 29.0062 28.2125 29.025 28.2062 29.0375C28.1812 29.0375 28.1625 29.025 28.1375 29.025L27.975 28.9688L27.6687 28.9188L27.6187 28.9062C27.5 28.9937 27.1812 28.8438 27.1812 28.8438C27.1812 28.8438 27.3937 28.75 27.0687 28.7375C26.875 28.7312 26.6875 28.7688 26.5125 28.8563C26.275 28.8938 26.025 28.8938 25.7875 28.85H25.7937C25.6 28.8 25.4 28.8062 25.2062 28.8625L24.325 28.9312C24.25 28.95 24.1812 28.975 24.1125 28.9937V28.9188L24.1 28.9125L23.9812 28.8937H23.8437V28.8188C23.7812 28.8625 23.7 28.85 23.6937 28.8C23.6875 28.75 23.5562 28.75 23.5187 28.7437C23.4812 28.7375 23.4 28.7 23.3187 28.6875H23.25C23.2125 28.6938 23.1812 28.7 23.1437 28.7062C23.0937 28.7188 23.0562 28.7 23 28.7062C22.9625 28.7188 22.925 28.725 22.8812 28.7188C22.825 28.7062 22.7687 28.7062 22.7125 28.7188C22.675 28.7375 22.7625 28.7438 22.7125 28.7938C22.6625 28.8438 22.6625 28.8438 22.625 28.8312C22.5875 28.8187 22.625 28.7687 22.625 28.7687C22.6 28.7625 22.575 28.7563 22.55 28.7563L22.475 28.7938C22.425 28.8188 22.3687 28.8312 22.3125 28.8438C22.2437 28.8563 22.1812 28.8813 22.1187 28.9062C22.0812 28.925 22.0437 28.95 22.0125 28.975C21.8375 28.9375 21.6625 28.9062 21.4625 28.875V28.9562L21.0062 28.9L20.9562 28.8875C20.8812 28.9375 20.7937 28.9688 20.7 28.9875L20.5687 28.9688C20.5687 28.9625 20.5812 28.9563 20.575 28.95L20.5375 28.9625C20.4812 28.9562 20.425 28.95 20.3687 28.9438L20.1562 28.8875L19.7562 28.8375L19.6875 28.8125C19.5312 28.9 19.1062 28.7563 19.1062 28.7563C19.1062 28.7563 19.3875 28.6625 18.9625 28.65C18.7125 28.6437 18.4625 28.6812 18.225 28.7687C17.9187 28.8 17.6062 28.7938 17.3 28.75C17.0437 28.7 16.7812 28.7062 16.525 28.7687L16.2125 28.7875V28.775L16.2375 28.7188L16.2625 28.6688L16.25 28.6875C16.25 28.6938 16.2375 28.7 16.2437 28.6938L16.1937 28.7563C16.1625 28.7938 16.1625 28.7938 16.1687 28.7812L16.2125 28.7313L16.2187 28.7188L16.1937 28.7437L16.1562 28.775L16.125 28.8H16.0937C16.1062 28.7875 16.1187 28.7688 16.1312 28.7563L16.0625 28.8C16.075 28.7812 16.0937 28.7625 16.1062 28.7437L16.1187 28.7375C16.0375 28.7687 16 28.7625 16 28.7563C16.025 28.7563 16.0437 28.75 16.0687 28.7437C16.0625 28.7437 16.05 28.7437 16.0375 28.7437C16.0125 28.7437 16.0062 28.7438 16.0375 28.7313L16.0625 28.725H16.0375C16.0187 28.725 15.9937 28.725 15.975 28.725L15.95 28.7125C15.9312 28.7 15.9062 28.6875 15.8937 28.6688C15.9062 28.6625 15.9125 28.6562 15.9187 28.6437C15.9312 28.625 15.8687 28.6437 15.8687 28.6437L15.8437 28.675C15.825 28.65 15.8125 28.6187 15.8062 28.5812L15.875 28.55C15.875 28.55 15.925 28.55 15.925 28.5438C15.925 28.5375 15.8875 28.5187 15.8875 28.5187H15.8625H15.8125C15.8125 28.4937 15.8125 28.4625 15.8187 28.4375L15.8687 28.4188L15.9 28.3937L15.9187 28.3563C15.9375 28.3438 15.9562 28.3375 15.9812 28.3312L15.9937 28.2938L15.9812 28.275L15.9937 28.2625L16.0062 28.2375C16.0187 28.225 15.9875 28.225 15.9687 28.225H15.9562L15.925 28.2563C15.9125 28.2188 15.8187 28.2063 15.8125 28.1688L15.8562 28.15L15.8812 28.1437C15.8812 28.1437 15.925 28.15 15.9312 28.1437C15.9375 28.1375 15.8937 28.1063 15.8937 28.1063H15.8187C15.8187 28.0813 15.7687 28.0562 15.775 28.0312V28.0187L15.7375 28.0063L15.775 27.8625L15.825 27.4438L15.8375 27.375C15.75 27.2125 15.9062 26.775 15.9062 26.775C15.9062 26.775 16 27.0625 16.0125 26.625C16.025 26.3625 15.9875 26.1062 15.9062 25.8625C15.8812 25.5437 15.8937 25.225 15.9437 24.9062C15.9937 24.6375 15.9937 24.3625 15.9312 24.1L15.875 22.875L15.8125 22.5875H15.8812L15.8875 22.5625L15.9062 22.4V22.2125H15.9812C15.9375 22.125 15.95 22.0125 16 22.0063C16.05 22 16.05 21.8187 16.0562 21.7687C16.0625 21.7188 16.1 21.6063 16.1125 21.5V21.4062C16.1062 21.3563 16.1 21.3063 16.0937 21.2625C16.0812 21.1938 16.1 21.1437 16.0937 21.0625C16.0812 21.0063 16.075 20.9562 16.0812 20.9C16.0937 20.825 16.0937 20.7438 16.0812 20.6688C16.0625 20.6188 16.0562 20.7375 16.0062 20.6688C15.9562 20.6 15.9562 20.6 15.9687 20.55C15.9812 20.5 16.0312 20.55 16.0312 20.55L16.0437 20.45L16.0062 20.3438C15.9812 20.275 15.9687 20.2 15.9562 20.125C15.9437 20.0312 15.9187 19.9438 15.8937 19.8563L15.825 19.7062C15.8625 19.4688 15.9 19.2188 15.925 18.9625H15.8437L15.9 18.3375L15.9125 18.2687C15.8437 18.0812 15.8 17.8813 15.7812 17.6812C15.7812 17.6812 15.8187 17.8062 15.85 17.7687V17.7625L15.8187 17.625C15.7937 17.5562 15.7875 17.5312 15.8187 17.5312H15.85L15.825 17.4375C15.8 17.4 15.775 17.3562 15.7625 17.3062L15.7437 17.1562L15.6937 16.85C15.7062 16.8188 15.7187 16.7875 15.725 16.7563C15.7375 16.725 15.7187 16.6938 15.6937 16.6812C15.6875 16.6812 15.6875 16.6812 15.6812 16.6812L15.65 16.8125C15.6375 16.6625 15.625 16.5 15.625 16.3438L15.6937 16.2625C15.6937 16.2625 15.7375 16.3063 15.7437 16.2625C15.75 16.2125 15.7375 16.1562 15.7062 16.1125H15.6812L15.6312 16.0938L15.6437 15.7437L15.6937 15.6875L15.725 15.5938L15.75 15.4375C15.7625 15.4062 15.7875 15.3812 15.8125 15.3562L15.825 15.2125L15.8125 15.1313L15.825 15.0938L15.8437 15.0312C15.8562 15 15.8437 14.9688 15.8125 14.9563C15.8125 14.9563 15.8125 14.9563 15.8062 14.9563H15.7937L15.7625 15.0875C15.75 14.9312 15.6562 14.8438 15.6562 14.6812L15.7 14.6313L15.725 14.6062C15.725 14.6062 15.7687 14.65 15.775 14.6062C15.7812 14.5562 15.7687 14.5 15.7375 14.4563H15.7125L15.6937 14.45L15.6625 14.4312C15.6625 14.3312 15.6125 14.2438 15.6187 14.1438V14.0938L15.525 13.9625L15.5562 13.8687L15.4375 13.7125C15.45 13.6812 15.475 13.6562 15.5 13.6375C15.5062 13.5687 15.4062 13.5063 15.4125 13.4688L15.425 13.3687C15.4062 13.3625 15.4 13.35 15.3937 13.3438C15.425 13.3375 15.45 13.3188 15.4687 13.3L15.5062 13.2563C15.5437 13.2063 15.5687 13.15 15.5875 13.0938C15.575 13.0875 15.5687 13.075 15.5625 13.0625C15.5375 13.025 15.7562 13.025 15.7562 13.025L15.7187 13.0063L15.7312 12.9875C15.75 12.9938 15.775 12.9938 15.7937 12.9875C15.8062 12.9812 15.8062 12.9812 15.7625 12.9625C15.7125 12.9437 15.7062 12.9625 15.6875 12.9563C15.6687 12.95 15.6875 12.925 15.6937 12.9125C15.7 12.9 15.6937 12.8938 15.6875 12.8813C15.6812 12.8625 15.7062 12.8625 15.7 12.8438C15.6937 12.8313 15.6875 12.825 15.6875 12.8125L15.7 12.8C15.725 12.7875 15.7437 12.775 15.7687 12.7688C15.7875 12.7438 15.8125 12.7375 15.8375 12.75C15.8875 12.7688 15.9062 12.7563 15.875 12.725L15.9437 12.7563L15.9562 12.7312L15.9875 12.7188H16L16.0687 12.7563L16.1125 12.7625L16.0937 12.7437C16.1312 12.7562 16.175 12.775 16.2125 12.7937L16.2812 12.8375C16.2312 12.7937 16.1812 12.7438 16.1375 12.6938L16.1062 12.6438V12.6313L16.0875 12.6L16.0687 12.5688H16.0812L16.1125 12.6062L16.1187 12.6125H16.125L16.1187 12.6L16.1062 12.5813C16.0812 12.5375 16.0687 12.5437 16.0562 12.525C16.0437 12.5062 16.0687 12.5125 16.075 12.5125C16.0875 12.5125 16.075 12.5062 16.075 12.4937C16.075 12.4812 16.0937 12.4937 16.0937 12.4812C16.0937 12.4688 16.0937 12.4625 16.0937 12.4563H16.1062C16.125 12.4625 16.1437 12.475 16.1625 12.4875H16.175C16.1937 12.4812 16.2125 12.4875 16.2312 12.5L16.2375 12.45C16.25 12.4187 16.2625 12.3937 16.2812 12.3687C16.3 12.35 16.3125 12.3312 16.325 12.3062L16.3437 12.2625H16.375C16.375 12.2625 16.375 12.3125 16.3937 12.325C16.4125 12.3313 16.4125 12.3313 16.4187 12.2812C16.425 12.2312 16.3875 12.2312 16.3937 12.2063C16.4062 12.1875 16.4375 12.1938 16.4562 12.1938C16.475 12.1938 16.4812 12.1875 16.5062 12.1687C16.525 12.15 16.5437 12.1687 16.5687 12.15C16.5812 12.1375 16.5937 12.1312 16.6125 12.1187L16.6187 12.1125C16.6437 12.1 16.6625 12.075 16.6812 12.05L16.7062 12.0063L16.7437 12.0125C16.7437 12.0125 16.7375 12.0625 16.7562 12.075C16.775 12.0875 16.775 12.0875 16.7875 12.0312C16.8 11.9812 16.7562 11.9812 16.775 11.9563C16.7875 11.9313 16.825 11.9375 16.85 11.9438C16.875 11.95 16.8812 11.9375 16.9 11.925C16.925 11.9125 16.9437 11.925 16.9687 11.9125C16.9812 11.9 17 11.8938 17.0125 11.8875H17.0437C17.075 11.9 17.1062 11.9187 17.1375 11.9375C17.1562 11.9438 17.2125 11.9375 17.2187 11.9875C17.225 12.0375 17.2625 12.05 17.2875 12.0063V12.0813H17.3437L17.3937 12.1V12.1062V12.1938L17.4312 12.2375L17.45 12.2188C17.4687 12.2563 17.4812 12.2937 17.4937 12.3375C17.5125 12.325 17.5062 12.2875 17.525 12.2437C17.5437 12.175 17.5625 12.1 17.575 12.0312C17.5875 12.05 17.6125 12.0688 17.6375 12.0625C17.6812 12.0625 17.6375 12.0625 17.6937 12.0125C17.75 11.9625 17.7562 11.8688 17.7875 11.9125C17.8 11.9375 17.8 11.9438 17.825 11.9125L17.9187 11.9438C18.125 11.9938 18.3375 12.025 18.5437 12.0437L18.6625 12.0188C18.8062 11.9938 18.8437 12.2125 18.8437 12.2125L18.9312 12.175L19.0187 12.1875C19.0187 12.1875 18.975 12.2375 19.0187 12.25C19.0625 12.2625 19.0625 12.2625 19.1187 12.2125C19.175 12.1625 19.075 12.1562 19.1187 12.1375C19.1812 12.125 19.25 12.125 19.3125 12.1375C19.3562 12.1438 19.4062 12.1375 19.45 12.125C19.5187 12.1125 19.5562 12.1375 19.6187 12.125C19.6562 12.1187 19.6937 12.1125 19.7375 12.1062H19.8125C19.9 12.1187 20 12.1562 20.0375 12.1687C20.075 12.175 20.2312 12.1688 20.2375 12.225C20.2437 12.2812 20.3375 12.2937 20.4125 12.25V12.325H20.5687L20.7062 12.3438L20.725 12.35V12.4312L20.8437 12.475L20.8937 12.45C20.95 12.4875 21.0062 12.5312 21.0562 12.575L21.075 12.65C21.1812 12.5687 21.3 12.5 21.425 12.45C21.5 12.425 21.575 12.4062 21.65 12.3938L21.7125 12.3813C21.75 12.375 21.7937 12.3625 21.8312 12.35L21.9187 12.3125L22 12.325C22 12.325 21.975 12.3562 21.9875 12.375C21.9875 12.3813 21.9937 12.3875 22 12.3875C22.0187 12.3938 22.0312 12.4 22.0437 12.3875C22.0625 12.375 22.0812 12.3625 22.1 12.3438C22.1625 12.2937 22.0562 12.2875 22.1 12.2688C22.1625 12.2563 22.2312 12.2563 22.2937 12.2688C22.3375 12.275 22.3875 12.2688 22.4312 12.2563C22.5 12.2438 22.5375 12.2688 22.6 12.2563C22.6375 12.25 22.675 12.2438 22.7187 12.2375H22.7937C22.8562 12.25 22.925 12.2688 22.9875 12.2875L23.0187 12.3C23.0812 12.3 23.1437 12.3125 23.2 12.3375L23.2937 12.2875C23.3687 12.2625 23.4437 12.2437 23.5187 12.2312C23.5812 12.225 23.6437 12.2063 23.7062 12.1875L23.7937 12.15L23.875 12.1625C23.875 12.1625 23.8312 12.2125 23.875 12.225C23.9187 12.2375 23.9187 12.2375 23.975 12.1875C24.0375 12.1375 23.9312 12.1313 23.975 12.1125H23.9937C24.05 12.1 24.1125 12.1 24.1687 12.1125C24.2125 12.1188 24.2625 12.1125 24.3062 12.1C24.375 12.0875 24.4125 12.1125 24.475 12.1C24.5125 12.0938 24.55 12.0875 24.5937 12.0813H24.6062H24.625C24.6875 12.075 24.75 12.0563 24.8125 12.0375L24.9 12L24.9875 12.0125C24.9875 12.0125 24.9437 12.0625 24.9875 12.075C25.0312 12.0875 25.0312 12.0875 25.0875 12.0375C25.15 11.9875 25.0437 11.9812 25.0875 11.9625C25.15 11.95 25.2187 11.95 25.2812 11.9625C25.325 11.9688 25.375 11.9625 25.4187 11.95C25.4875 11.9375 25.525 11.9625 25.5875 11.95C25.625 11.9437 25.6625 11.9375 25.7062 11.9312H25.7812C25.8687 11.9437 25.9687 11.9812 26.0062 11.9937C26.0437 12 26.2 11.9937 26.2 12.0562C26.2 12.1187 26.2937 12.1312 26.3625 12.0875V12.1812L26.5562 12.1938L26.6812 12.2188L26.7 12.2312V12.3125L26.8125 12.3625L26.8625 12.3438C26.9125 12.3813 26.9562 12.425 27.0062 12.4688C27.0625 12.4563 27.0375 12.425 27.0937 12.375C27.15 12.3125 27.2 12.2438 27.2312 12.1625C27.3 12.1875 27.3687 12.2 27.4437 12.2C27.5937 12.2063 27.45 12.2 27.6187 12.1562H27.6312C27.7062 12.2125 27.8062 12.225 27.8937 12.175C28.0062 12.175 28.1187 12.175 28.2312 12.1875C28.2625 12.1812 28.2625 12.1562 28.275 12.1438L28.25 12.2125V12.2188V12.2437H28.2625L28.2312 12.3125C28.2562 12.275 28.25 12.2937 28.2312 12.3375C28.2187 12.3562 28.2125 12.375 28.2062 12.3938L28.175 12.4438L28.1875 12.4312C28.1875 12.425 28.2 12.4187 28.1937 12.425L28.25 12.375C28.2875 12.3438 28.2875 12.3438 28.2812 12.3562L28.2312 12.4L28.2187 12.4125L28.25 12.3875C28.2625 12.3812 28.275 12.375 28.2937 12.3687L28.35 12.35L28.4125 12.325C28.3875 12.3562 28.3562 12.3813 28.325 12.4062L28.4062 12.3813C28.3875 12.4313 28.375 12.475 28.3687 12.525L28.3562 12.5437C28.45 12.5687 28.5 12.7063 28.5 12.7063C28.5 12.7063 28.4562 12.6687 28.425 12.6875L28.4562 12.7312C28.4812 12.75 28.4875 12.7562 28.4562 12.7625H28.425L28.45 12.7937C28.475 12.8 28.4937 12.8188 28.5187 12.8313L28.5375 12.8813L28.5937 12.9875C28.5812 13 28.575 13.0125 28.5625 13.025C28.5625 13.0625 28.625 13.0625 28.625 13.0625L28.6562 13.0125C28.6687 13.0687 28.6812 13.1313 28.6812 13.1938L28.6125 13.225C28.6125 13.225 28.5687 13.2125 28.5625 13.225C28.5625 13.25 28.575 13.275 28.6 13.2812H28.625L28.675 13.2875C28.675 13.3313 28.6687 13.3813 28.6562 13.425L28.6 13.45L28.5625 13.4875L28.5375 13.55C28.5187 13.5625 28.5 13.575 28.475 13.5813L28.4625 13.6375L28.475 13.6687L28.4625 13.6812L28.4437 13.7063C28.4312 13.725 28.4625 13.7375 28.475 13.7375H28.4875L28.5187 13.6812C28.5312 13.7437 28.6187 13.7812 28.6187 13.85L28.575 13.8687L28.55 13.8813C28.55 13.8813 28.5062 13.8625 28.5 13.8813C28.4937 13.9062 28.5062 13.9313 28.5312 13.9438H28.5562H28.575H28.6062C28.6062 13.9875 28.6562 14.025 28.6437 14.0625V14.0813L28.7375 14.1375L28.7 14.175L28.8187 14.2437C28.8 14.2562 28.7812 14.2687 28.7562 14.275C28.7437 14.3062 28.8437 14.3313 28.8375 14.35L28.825 14.3938C28.9312 14.4187 28.75 14.4187 28.85 14.4312C28.85 14.4312 28.825 14.4563 28.9312 14.5188L28.9437 14.5938C28.9625 14.7312 28.8812 14.8438 28.7562 14.8687Z" fill="#0041E6"/>
<path d="M8.95625 3.275C8.95625 3.2625 8.9625 3.275 8.95625 3.275V3.275Z" fill="#0041E6"/>
<path d="M16.25 28.6875L16.2437 28.6938C16.2437 28.6875 16.25 28.6875 16.25 28.6875Z" fill="#0041E6"/>
<path d="M18.55 17.5437L18.6563 17.5937C18.8 17.6437 18.95 17.6812 19.1063 17.7062L19.1938 17.6812C19.3 17.6562 19.325 17.8812 19.325 17.8812L19.3875 17.8437L19.45 17.8562C19.45 17.8562 19.4188 17.9062 19.45 17.9187C19.4813 17.9312 19.4813 17.9312 19.525 17.8812C19.5688 17.8312 19.4938 17.825 19.525 17.8062C19.5688 17.7937 19.6188 17.7937 19.6625 17.8062C19.6938 17.8125 19.7313 17.8062 19.7625 17.7937C19.8125 17.7812 19.8375 17.8062 19.8813 17.7937C19.9125 17.7875 19.9375 17.7812 19.9688 17.775H20.025C20.0813 17.7937 20.1313 17.8125 20.1875 17.8312C20.2188 17.8375 20.325 17.8375 20.3313 17.8875C20.3375 17.9375 20.4063 17.9562 20.4563 17.9125V17.9875H20.5688L20.6688 18.0062L20.6813 18.0125V18.0937L20.7688 18.1312L20.8063 18.1125C20.85 18.15 20.8875 18.1875 20.925 18.2312L20.9375 18.3062C21.0125 18.2312 21.0938 18.1625 21.1813 18.1062C21.2313 18.0812 21.2875 18.0625 21.3438 18.05L21.3875 18.0375C21.4188 18.0312 21.45 18.0187 21.475 18.0062L21.5375 17.9687L21.6 17.9812C21.6 17.9812 21.5813 18.0125 21.5938 18.0312C21.5938 18.0375 21.6 18.0375 21.6063 18.0437C21.6188 18.05 21.6313 18.0562 21.6375 18.0437C21.65 18.0312 21.6688 18.0187 21.675 18C21.7188 17.95 21.6438 17.9437 21.675 17.925C21.7188 17.9125 21.7688 17.9125 21.8125 17.925C21.8438 17.9312 21.8813 17.925 21.9125 17.9125C21.9563 17.9 21.9875 17.9187 22.0313 17.9125C22.0563 17.9062 22.0875 17.8937 22.1188 17.8937H22.175C22.225 17.9062 22.2688 17.9187 22.3125 17.9437L22.3375 17.95C22.3625 17.95 22.4375 17.9562 22.4688 17.9812L22.5313 17.9312C22.5813 17.9062 22.6375 17.8875 22.6875 17.8687C22.7313 17.8625 22.775 17.8437 22.8188 17.8187L22.8813 17.7812L22.9375 17.7937C22.9375 17.7937 22.9063 17.8437 22.9375 17.8562C22.9688 17.8687 22.9688 17.8687 23.0063 17.8187C23.05 17.7687 22.975 17.7625 23.0063 17.7437H23.0188C23.0563 17.7375 23.1 17.7375 23.1375 17.7437C23.1688 17.75 23.2063 17.7437 23.2375 17.7312C23.2813 17.7187 23.3125 17.7375 23.3563 17.7312C23.3813 17.7187 23.4125 17.7125 23.4438 17.7125H23.45H23.4625C23.5063 17.7062 23.55 17.6875 23.5938 17.6687L23.6563 17.6312L23.7125 17.6437C23.7125 17.6437 23.6813 17.6937 23.7125 17.7062C23.7438 17.7187 23.7438 17.7187 23.7813 17.6687C23.825 17.6187 23.75 17.6125 23.7813 17.5937C23.8125 17.575 23.875 17.5875 23.9125 17.5937C23.9438 17.6 23.9813 17.5937 24.0063 17.5812C24.05 17.5687 24.0813 17.5937 24.125 17.5812C24.15 17.5687 24.1813 17.5625 24.2125 17.5625H24.2688C24.3313 17.575 24.4 17.6125 24.425 17.6187C24.45 17.625 24.5563 17.625 24.5625 17.675C24.5688 17.725 24.6313 17.7437 24.6813 17.7V17.775H24.7875L24.8813 17.8L24.8938 17.8062V17.8875L24.975 17.9312L25.0125 17.9125C25.05 17.95 25.0875 17.9875 25.1188 18.0312C25.1625 18.0187 25.1375 17.9812 25.1813 17.9375C25.225 17.8687 25.2563 17.8 25.275 17.7187C25.325 17.7437 25.375 17.7562 25.4313 17.75C25.55 17.75 25.4313 17.75 25.5625 17.7C25.6938 17.65 25.6563 17.55 25.7688 17.5937C25.825 17.625 25.8875 17.6187 25.9375 17.5875C25.9625 17.5562 25.9813 17.525 26.0125 17.4937C26.0375 17.4687 26.0625 17.4375 26.0813 17.4062C26.0813 17.4062 26.1313 17.3875 26.125 17.2437C26.125 17.1 26.1813 17.2875 26.175 17.2C26.225 16.9812 26.2313 16.7625 26.1938 16.5437C26.1813 16.375 26.1313 16.425 26.1688 16.2437C26.1875 16.1437 26.1938 16.3187 26.2438 15.975C26.2625 15.8687 26.275 15.9 26.2188 15.7812C26.1813 15.75 26.1438 15.7125 26.1125 15.6687C26.1 15.5937 26.0375 15.6875 26.05 15.5875C25.95 15.55 25.8438 15.5187 25.7375 15.4875L25.6438 15.4375L25.4375 15.375L25.4063 15.3625C25.325 15.4437 25.1063 15.2875 25.1063 15.2875C25.1063 15.2875 25.25 15.2 25.0375 15.1812C24.9 15.1687 24.7688 15.2062 24.6563 15.2812C24.5 15.3 24.3375 15.2875 24.1875 15.2312C24.0625 15.175 23.9188 15.175 23.7938 15.2312L23.2 15.2875L23.0563 15.3437V15.2687L23.0438 15.2562L22.9625 15.2375H22.8688V15.1625C22.825 15.2062 22.7688 15.1937 22.7688 15.1375C22.7625 15.0875 22.675 15.0875 22.65 15.0812C22.6063 15.0625 22.5625 15.0437 22.5188 15.025H22.475C22.45 15.0312 22.425 15.0375 22.4063 15.0437C22.375 15.0562 22.35 15.0312 22.3063 15.0437C22.2688 15.0562 22.2563 15.0625 22.225 15.0562C22.1938 15.05 22.1375 15.0375 22.1125 15.0562C22.0875 15.075 22.15 15.0812 22.1125 15.1312C22.075 15.1812 22.0813 15.1812 22.0563 15.1687C22.0313 15.1562 22.0563 15.1062 22.0563 15.1062L22.0063 15.0937L21.9563 15.1312C21.925 15.1562 21.8875 15.1687 21.85 15.1812C21.8063 15.1937 21.7625 15.2125 21.7188 15.2375L21.65 15.3C21.5313 15.2562 21.4125 15.225 21.2875 15.1937V15.275L20.9875 15.2125L20.9563 15.2C20.875 15.2625 20.775 15.3062 20.675 15.325C20.675 15.325 20.7313 15.2875 20.7188 15.2562L20.65 15.2875C20.6188 15.3125 20.6063 15.3187 20.6063 15.2875V15.2625L20.5625 15.2812C20.5438 15.3062 20.525 15.325 20.5 15.3437L20.4313 15.3625L20.2875 15.4125C20.275 15.4 20.2563 15.3875 20.2438 15.3812C20.2125 15.3625 20.2063 15.425 20.2063 15.425L20.2688 15.4562C20.1938 15.4687 20.1188 15.475 20.0438 15.475L20.0063 15.4062C20.0063 15.4062 20.025 15.3625 20.0063 15.3562C19.975 15.35 19.95 15.3625 19.9375 15.3875V15.4125L19.925 15.4625C19.8688 15.4625 19.8125 15.4562 19.7563 15.4437L19.7313 15.3875L19.6875 15.35L19.6125 15.325C19.5938 15.3062 19.5813 15.2875 19.575 15.2625L19.5063 15.25L19.4688 15.2625L19.45 15.25L19.4188 15.2312C19.3938 15.2187 19.3875 15.25 19.3813 15.2687V15.2812L19.4438 15.3125C19.3688 15.325 19.325 15.4125 19.25 15.4125L19.225 15.3625L19.2125 15.3375C19.2125 15.3375 19.2313 15.2937 19.2125 15.2875C19.1813 15.2812 19.1563 15.2937 19.1438 15.3187V15.3437V15.3625V15.3937C19.0938 15.3937 19.0563 15.4437 19.0063 15.4312H18.9813L18.9188 15.525L18.875 15.4875L18.8 15.6062C18.7813 15.5875 18.775 15.5687 18.7625 15.5437C18.7313 15.5312 18.7 15.6312 18.6813 15.625L18.6375 15.6125C18.6125 15.7187 18.6063 15.5375 18.6 15.6375C18.6 15.6375 18.5688 15.6 18.4813 15.75C18.3938 15.9 18.4 15.925 18.4 15.925C18.3813 15.9562 18.3688 15.9937 18.3625 16.0312C18.3375 16.1187 18.3625 16.2125 18.4125 16.2187C18.4625 16.225 18.425 16.375 18.425 16.375C18.4313 16.4125 18.4625 16.4437 18.5 16.4437C18.5688 16.4437 18.475 16.5562 18.4125 16.6125C18.35 16.6687 18.3813 16.85 18.3813 16.8937C18.3813 16.9375 18.2875 17.2125 18.3625 17.25C18.4125 17.275 18.4688 17.2875 18.525 17.2687C18.5063 17.3 18.45 17.5 18.55 17.5437Z" fill="#0041E6"/>
<path d="M18.575 21.0125C18.625 21.0187 18.5937 21.175 18.5937 21.175C18.6062 21.2125 18.6375 21.2375 18.675 21.2375C18.7375 21.2375 18.6562 21.3562 18.6062 21.4125C18.5562 21.4687 18.6062 21.65 18.6062 21.7C18.6062 21.75 18.55 22.025 18.625 22.0562C18.675 22.0812 18.7312 22.0812 18.775 22.0562C18.775 22.0562 18.75 22.2562 18.85 22.2937L18.95 22.3312C19.0875 22.3687 19.2312 22.3937 19.3812 22.4062L19.4562 22.375C19.55 22.3437 19.5875 22.5625 19.5875 22.5625L19.6437 22.5187L19.7 22.5312C19.7 22.5312 19.675 22.5812 19.7 22.5937C19.725 22.6062 19.7312 22.6062 19.7687 22.5562C19.8062 22.5062 19.7375 22.5 19.7687 22.4812C19.8125 22.4687 19.8562 22.4625 19.9 22.475C19.9312 22.475 19.9625 22.475 19.9937 22.4625C20.0375 22.45 20.0687 22.4625 20.1125 22.4625C20.1375 22.45 20.1687 22.4437 20.1937 22.4375H20.2437C20.3062 22.45 20.375 22.4875 20.4 22.4875C20.425 22.4937 20.5312 22.4875 20.5375 22.5375C20.5437 22.5875 20.6062 22.6062 20.6562 22.5562V22.6312H20.7625L20.8562 22.65L20.8687 22.6562V22.7312L20.95 22.7687L20.9812 22.7437C21.025 22.7812 21.0625 22.8187 21.1 22.8625L21.1125 22.9375C21.1812 22.8562 21.2562 22.7875 21.3375 22.7312C21.3875 22.7062 21.4375 22.6875 21.4875 22.6687L21.5312 22.6562C21.5625 22.65 21.5875 22.6375 21.6125 22.6187L21.6687 22.5812L21.725 22.5937C21.7187 22.6125 21.7125 22.625 21.7187 22.6437L21.7312 22.6562C21.7437 22.6625 21.75 22.6625 21.7625 22.6562C21.775 22.65 21.7875 22.6437 21.8 22.6312C21.8375 22.5812 21.7687 22.575 21.8 22.5562C21.8312 22.5375 21.8937 22.5437 21.925 22.5562C21.9562 22.5625 21.9875 22.5562 22.0187 22.5437C22.0625 22.5312 22.0937 22.55 22.1375 22.5437C22.1625 22.5312 22.1937 22.525 22.2187 22.525H22.2687C22.3125 22.5375 22.3562 22.5562 22.4 22.575L22.425 22.5812C22.45 22.5812 22.5187 22.5812 22.5437 22.6187L22.6062 22.5687C22.6562 22.5437 22.7062 22.525 22.7562 22.5125C22.8 22.5062 22.8437 22.4875 22.8812 22.4687L22.9437 22.4312L23 22.4437C23 22.4437 22.975 22.4937 23 22.5062C23.025 22.5187 23.0312 22.5187 23.0687 22.4687C23.1062 22.4187 23.0375 22.4125 23.0687 22.3937H23.0812C23.1187 22.3875 23.1625 22.3875 23.2 22.3937C23.2312 22.4 23.2625 22.3937 23.2937 22.3812C23.3375 22.3687 23.3687 22.3937 23.4125 22.3812C23.4375 22.375 23.4687 22.3687 23.4937 22.3625H23.5H23.5125C23.5562 22.3562 23.6 22.3375 23.6375 22.3187L23.7 22.2812L23.7562 22.2937C23.7562 22.2937 23.725 22.3437 23.7562 22.3562C23.7875 22.3687 23.7875 22.3687 23.825 22.3187C23.8687 22.2687 23.7937 22.2625 23.825 22.2437C23.8562 22.225 23.9187 22.2375 23.9562 22.2437C23.9875 22.25 24.0187 22.2437 24.05 22.2312C24.0937 22.2187 24.125 22.2437 24.1687 22.2312C24.1937 22.225 24.225 22.2187 24.25 22.2125H24.3C24.3625 22.225 24.425 22.2687 24.45 22.275C24.475 22.2812 24.5812 22.2875 24.5812 22.3375C24.5875 22.3875 24.65 22.4062 24.7 22.3625V22.4375H24.8062L24.9 22.4625L24.9125 22.4687V22.55L24.9937 22.5937L25.0312 22.575C25.0687 22.6125 25.1062 22.65 25.1375 22.6937C25.1812 22.6812 25.1562 22.65 25.2 22.6C25.2437 22.5312 25.275 22.4625 25.2937 22.3812C25.3375 22.4062 25.3937 22.4187 25.4437 22.4187C25.5562 22.4187 25.4437 22.4187 25.575 22.3687C25.7062 22.3187 25.6687 22.2187 25.7812 22.2625C25.8312 22.2937 25.9 22.2937 25.95 22.2625C25.9687 22.2312 25.9937 22.2 26.025 22.1687C26.05 22.1437 26.075 22.1125 26.0937 22.0812C26.0937 22.0812 26.1375 22.0625 26.1437 21.9187C26.1437 21.775 26.2 21.9625 26.1937 21.875C26.2437 21.6562 26.2562 21.4375 26.2187 21.2187C26.2062 21.05 26.1562 21.1 26.2 20.9187C26.225 20.8187 26.2187 20.9937 26.275 20.65C26.2937 20.5437 26.3062 20.5812 26.2562 20.4562C26.2562 20.4375 26.1937 20.4125 26.1562 20.3375C26.1437 20.2625 26.0812 20.3562 26.1 20.2562C26 20.2187 25.9 20.1812 25.8 20.1562L25.6937 20.0937L25.4937 20.0312L25.4625 20.0187C25.3812 20.1 25.175 19.9375 25.175 19.9375C25.175 19.9375 25.3187 19.85 25.1062 19.825C24.975 19.8125 24.8437 19.8437 24.7312 19.9187C24.575 19.9375 24.4187 19.9187 24.275 19.8625C24.15 19.8062 24.0125 19.8062 23.8875 19.8625L23.3 19.9125L23.1625 19.9687V19.8937L23.15 19.8875L23.0562 19.8625H22.9687V19.7875C22.9312 19.8312 22.875 19.8187 22.8687 19.7625C22.8625 19.7062 22.7812 19.7125 22.75 19.7062C22.7187 19.7 22.6687 19.6625 22.6187 19.65H22.575C22.55 19.6562 22.525 19.6625 22.5062 19.6687C22.4687 19.6812 22.45 19.6625 22.4062 19.6687C22.3687 19.675 22.3562 19.6875 22.325 19.6812C22.2937 19.675 22.2375 19.6625 22.2125 19.6812C22.1875 19.7 22.25 19.7062 22.2125 19.7562C22.175 19.8062 22.1812 19.8062 22.1562 19.7937C22.1312 19.7812 22.1562 19.7312 22.1562 19.7312L22.1125 19.7187L22.0625 19.7562C22.0312 19.775 21.9937 19.7937 21.9562 19.8C21.9125 19.8125 21.8687 19.8375 21.825 19.8625L21.7562 19.9312C21.6375 19.8875 21.5187 19.8562 21.3937 19.8312V19.9125L21.0937 19.8562L21.0625 19.8437C20.9812 19.9125 20.8875 19.9562 20.7812 19.975C20.7812 19.975 20.8375 19.9312 20.8187 19.9062L20.75 19.9375C20.7187 19.9625 20.7062 19.9687 20.7062 19.9375V19.9062L20.6625 19.9312C20.6437 19.9562 20.625 19.9812 20.6 19.9937L20.5312 20.0125L20.3875 20.0687C20.375 20.0562 20.3562 20.0437 20.3375 20.0375C20.3062 20.025 20.3 20.0875 20.3 20.0875L20.3625 20.1187C20.2875 20.1312 20.2125 20.1437 20.1375 20.15L20.0937 20.0812C20.0937 20.0812 20.1125 20.0375 20.0937 20.0312C20.0625 20.0312 20.0375 20.0437 20.025 20.0687V20.0937L20.0187 20.1437C19.9625 20.1437 19.9062 20.1375 19.85 20.1312L19.8187 20.0812L19.7687 20.05L19.6937 20.0312C19.675 20.0125 19.6625 19.9937 19.65 19.9687L19.5812 19.9562L19.5437 19.9687L19.525 19.9562L19.4937 19.9437C19.4687 19.9312 19.4625 19.9625 19.4562 19.9812V19.9937L19.5187 20.025C19.4437 20.0375 19.4062 20.1312 19.3312 20.1437L19.3062 20.1L19.2937 20.075C19.2937 20.075 19.3125 20.025 19.2937 20.025C19.2625 20.025 19.2375 20.0375 19.225 20.0625V20.0875V20.1062V20.1375C19.175 20.1375 19.1375 20.1937 19.0875 20.1875H19.0625L19.0062 20.2875L18.9562 20.2562L18.8875 20.375C18.8687 20.3562 18.8562 20.3375 18.8437 20.3125C18.8125 20.3062 18.7875 20.4062 18.7687 20.4062L18.7187 20.4C18.7062 20.5062 18.6812 20.3312 18.6812 20.4312C18.6812 20.4312 18.6437 20.4 18.575 20.55C18.5062 20.7 18.5125 20.7312 18.5125 20.7312C18.5 20.7625 18.4875 20.8 18.4875 20.8375C18.4937 20.925 18.525 21.0125 18.575 21.0125Z" fill="#0041E6"/>
<path d="M26.4937 25.4313C26.4687 25.2625 26.4187 25.3125 26.45 25.1313C26.4687 25.0313 26.475 25.2063 26.5125 24.8625C26.525 24.7563 26.5375 24.7875 26.4812 24.6688C26.4375 24.6375 26.4 24.6063 26.3687 24.5625C26.35 24.4875 26.3 24.5875 26.3062 24.4875C26.2062 24.4563 26.1062 24.4313 25.9937 24.4063L25.8812 24.35L25.675 24.3L25.6375 24.2875C25.5562 24.375 25.3375 24.225 25.3375 24.225C25.3375 24.225 25.4812 24.1313 25.2625 24.1188C25.1312 24.1125 25 24.15 24.8875 24.2313C24.7312 24.2563 24.5687 24.2438 24.4187 24.1938C24.2937 24.1438 24.15 24.15 24.025 24.2063L23.4375 24.275C23.3875 24.2938 23.3437 24.3125 23.2937 24.3375V24.25L23.2812 24.2438L23.2 24.225H23.1125V24.15C23.0687 24.1938 23.0125 24.1813 23.0125 24.125C23.0062 24.075 22.9187 24.075 22.8937 24.0688C22.8687 24.0625 22.8125 24.025 22.7625 24.0125H22.7187C22.6937 24.0188 22.6687 24.025 22.65 24.0313C22.6125 24.0438 22.5875 24.025 22.55 24.0313C22.5125 24.0375 22.5 24.05 22.4687 24.0438C22.4375 24.0375 22.3812 24.025 22.3562 24.0438C22.3312 24.0625 22.3937 24.0688 22.3562 24.1188C22.3187 24.1688 22.325 24.1688 22.3 24.1563C22.275 24.1438 22.3 24.0938 22.3 24.0938C22.2812 24.0875 22.2687 24.0813 22.25 24.0813L22.2 24.1188C22.1687 24.1438 22.1312 24.1563 22.0937 24.1688C22.05 24.1813 22.0062 24.2063 21.9625 24.2313C21.9375 24.25 21.9125 24.275 21.8937 24.3C21.775 24.2625 21.65 24.225 21.525 24.2V24.2813L21.2187 24.225L21.1875 24.2125C21.1062 24.275 21.0062 24.325 20.9 24.3438C20.9 24.3438 20.9625 24.3063 20.9437 24.275L20.875 24.3063C20.8437 24.3313 20.825 24.3375 20.825 24.3063V24.2875L20.7812 24.3063C20.7625 24.3313 20.7437 24.35 20.7187 24.3688L20.6437 24.3875L20.4937 24.4375C20.4812 24.425 20.4625 24.4125 20.4437 24.4063C20.4062 24.3875 20.4062 24.45 20.4062 24.45L20.475 24.4813C20.4 24.4938 20.3187 24.5063 20.2375 24.5063L20.1937 24.4375C20.1937 24.4375 20.2125 24.3938 20.1937 24.3875C20.1625 24.3813 20.1375 24.4 20.125 24.425V24.45L20.1187 24.5C20.0625 24.5 20.0062 24.4938 19.9437 24.4875L19.9125 24.4375L19.8625 24.4063L19.7875 24.3813C19.7687 24.3625 19.7562 24.3438 19.75 24.3188C19.7187 24.3125 19.7 24.3063 19.6812 24.3063L19.6375 24.3188L19.6187 24.3063C19.6125 24.3 19.6 24.2938 19.5875 24.2875C19.5625 24.275 19.5562 24.3063 19.55 24.325V24.3375L19.6187 24.3688C19.5437 24.3813 19.5 24.475 19.425 24.475L19.4 24.4313L19.3875 24.4063C19.3875 24.4063 19.4062 24.3625 19.3875 24.3563C19.3562 24.35 19.3312 24.3688 19.3187 24.3938V24.4188V24.4375V24.4688C19.2687 24.4688 19.225 24.5188 19.1812 24.5125H19.1562L19.0937 24.6063L19.0437 24.575L18.975 24.6938C18.9562 24.675 18.9437 24.6563 18.9312 24.6313C18.9 24.625 18.8687 24.725 18.85 24.7188L18.8 24.7063C18.7812 24.8125 18.7625 24.6313 18.7625 24.7375C18.7625 24.7375 18.725 24.7 18.6437 24.8563C18.5625 25.0125 18.5687 25.0375 18.5687 25.0375C18.5562 25.0688 18.5437 25.1063 18.5375 25.1438C18.5187 25.2313 18.55 25.325 18.6 25.3313C18.6562 25.3375 18.6187 25.4875 18.6187 25.4875C18.625 25.525 18.6625 25.55 18.7 25.5563C18.7687 25.5563 18.6812 25.675 18.625 25.7313C18.5687 25.7875 18.6125 25.9688 18.6125 26.0188C18.6125 26.0688 18.5375 26.3375 18.6125 26.3813C18.6625 26.4063 18.7187 26.4125 18.775 26.3938C18.775 26.3938 18.7375 26.5938 18.8437 26.6375L18.95 26.6813C19.0937 26.725 19.25 26.7563 19.4 26.7688C19.425 26.7563 19.4562 26.75 19.4812 26.7375C19.5812 26.7125 19.6187 26.9313 19.6187 26.9313L19.6812 26.8938C19.7187 26.8938 19.7437 26.9063 19.7437 26.9063C19.7437 26.9063 19.7125 26.9563 19.7437 26.9688C19.775 26.9813 19.775 26.9813 19.8125 26.9313C19.85 26.8813 19.7812 26.875 19.8125 26.8563C19.8562 26.8438 19.9062 26.8438 19.95 26.8563C19.9812 26.8625 20.0187 26.8563 20.05 26.8438C20.0937 26.8313 20.125 26.85 20.1687 26.8438C20.2 26.8313 20.225 26.825 20.2562 26.825H20.3125C20.375 26.8375 20.45 26.875 20.475 26.8813C20.5 26.8875 20.6125 26.8813 20.6187 26.9375C20.625 26.9938 20.6937 27.0063 20.7437 26.9563V27.0313H20.8562L20.9562 27.05L20.9687 27.0563V27.1313L21.0562 27.1688L21.0937 27.1438C21.1375 27.1813 21.175 27.2188 21.2125 27.2625L21.2312 27.3375C21.3 27.2563 21.3875 27.1875 21.475 27.1313C21.525 27.1063 21.5812 27.0875 21.6375 27.0688L21.6812 27.0563C21.7125 27.05 21.7437 27.0375 21.7687 27.0188L21.8312 26.9813C21.8687 26.9875 21.8937 26.9938 21.8937 26.9938C21.8937 26.9938 21.875 27.025 21.8875 27.0438C21.9 27.0625 21.8875 27.05 21.9 27.0563C21.9125 27.0563 21.925 27.0688 21.9312 27.0563C21.95 27.0438 21.9625 27.0313 21.9687 27.0125C22.0125 26.9625 21.9375 26.9563 21.9687 26.9375C22.0125 26.925 22.0625 26.925 22.1062 26.9375C22.1375 26.9438 22.175 26.9375 22.2062 26.925C22.2562 26.9125 22.2812 26.9313 22.325 26.925C22.35 26.9125 22.3812 26.9063 22.4125 26.9063H22.4687C22.5187 26.9188 22.5625 26.9313 22.6062 26.9563L22.6312 26.9625C22.6562 26.9625 22.7312 26.9625 22.7625 26.9938C22.7812 26.9813 22.8062 26.9625 22.825 26.9438C22.875 26.9188 22.9312 26.9 22.9875 26.8813C23.0312 26.875 23.075 26.8563 23.1187 26.8313L23.1812 26.7938C23.2 26.7938 23.2187 26.8 23.2437 26.8063C23.2437 26.8063 23.2125 26.8563 23.2437 26.8688C23.275 26.8813 23.275 26.8813 23.3125 26.8313C23.3562 26.7813 23.2812 26.775 23.3125 26.7563H23.325C23.3687 26.75 23.4062 26.75 23.45 26.7563C23.4812 26.7625 23.5187 26.7563 23.55 26.7438C23.6 26.7313 23.625 26.75 23.6687 26.7438C23.6937 26.7313 23.725 26.725 23.7562 26.725H23.7625H23.775C23.8187 26.7188 23.8625 26.7 23.9062 26.675L23.9687 26.6375C23.9875 26.6375 24.0062 26.6438 24.0312 26.65C24.0312 26.65 24 26.7 24.0312 26.7125C24.0625 26.725 24.0625 26.725 24.1 26.675C24.1375 26.625 24.0687 26.6188 24.1 26.6C24.1437 26.5875 24.1937 26.5875 24.2375 26.6C24.2687 26.6063 24.3062 26.6 24.3375 26.5875C24.3875 26.575 24.4125 26.5938 24.4562 26.5875C24.4812 26.575 24.5125 26.5688 24.5437 26.5688H24.6C24.6625 26.5813 24.7375 26.6188 24.7625 26.625C24.7937 26.6313 24.9 26.625 24.9062 26.6813C24.9125 26.7375 24.9812 26.75 25.0312 26.7V26.775H25.1437L25.2437 26.7938L25.2562 26.8V26.8813L25.3437 26.9188L25.3812 26.8938C25.425 26.9313 25.4625 26.9688 25.5 27.0125C25.5437 26.9938 25.5187 26.9625 25.5625 26.9125C25.6062 26.8438 25.6375 26.7688 25.65 26.6938C25.7 26.7188 25.7562 26.725 25.8125 26.7188C25.9312 26.7188 25.8125 26.7188 25.9437 26.6625C26.075 26.6063 26.0375 26.5063 26.1562 26.5438C26.2125 26.5688 26.2812 26.5625 26.3312 26.525C26.35 26.4875 26.375 26.4563 26.4 26.425C26.425 26.4 26.45 26.3688 26.4687 26.3313C26.4687 26.3313 26.5187 26.3125 26.5062 26.1688C26.4937 26.025 26.575 26.1813 26.5625 26.0938C26.55 25.8688 26.5375 25.65 26.4937 25.4313Z" fill="#0041E6"/>
</g>
<defs>
<clipPath id="clip0_7664_50210">
<rect width="32" height="32" fill="white"/>
</clipPath>
</defs>
</svg>
