<svg width="32" height="32" viewBox="0 0 32 32" fill="none" xmlns="http://www.w3.org/2000/svg">
<g clip-path="url(#clip0_7664_50176)">
<path d="M30.6938 19.675C30.6813 19.4875 30.6188 19.8 30.625 19.6625V19.6063C30.6375 19.45 30.6625 19.2125 30.675 19.0625C30.6813 18.9125 30.6688 18.7688 30.65 18.625C30.6313 18.4438 30.6063 18.2625 30.5625 18.0875L30.4438 17.7125L30.4313 17.675L30.4063 17.6188C30.3375 17.4313 30.2438 17.2563 30.1188 17.1L29.95 16.875C29.9125 16.8 29.8625 16.725 29.8125 16.6563C29.8125 16.6563 29.925 16.7313 29.8625 16.6188C29.8125 16.525 29.7375 16.45 29.65 16.3938C29.5063 16.2813 29.6938 16.5313 29.5938 16.4375C29.4375 16.2625 29.2688 16.1063 29.0813 15.9625C28.9438 15.8563 28.7875 15.775 28.625 15.7188C28.4313 15.6375 28.225 15.5875 28.0188 15.5563C27.875 15.55 27.725 15.55 27.5813 15.5563L27.325 15.5688C27.0875 15.5813 26.8563 15.6125 26.625 15.6625C26.5 15.6875 26.1 15.8438 26.0688 15.8063C26.0375 15.7688 25.775 15.8625 25.625 15.9875L25.5938 15.925L25.225 16.125L24.9 16.2938L24.8563 16.3125L24.8188 16.25L24.5375 16.3813L24.4375 16.4688L24.0625 16.6063C23.95 16.7063 24.0313 16.6875 23.9375 16.8125C23.8625 16.925 23.8125 17.05 23.7938 17.1813C23.7063 17.2313 23.625 17.2813 23.5438 17.3375C23.5313 17.275 23.525 17.2313 23.525 17.2313L23.475 16.3563L23.4313 16.1438H23.5L23.5063 16.1313L23.525 16.0125V15.8813H23.5938C23.55 15.8188 23.5688 15.7375 23.6188 15.7313C23.6688 15.725 23.6688 15.6 23.675 15.5625C23.6813 15.525 23.7188 15.4438 23.7313 15.3688V15.3C23.725 15.2625 23.7188 15.2313 23.7125 15.1938C23.7 15.1438 23.7188 15.1063 23.7125 15.05C23.7 15.0125 23.7 14.9688 23.7 14.9313C23.7125 14.875 23.7125 14.8188 23.7 14.7688C23.6813 14.7313 23.675 14.8188 23.625 14.7688C23.5813 14.7188 23.5813 14.7188 23.5875 14.6813C23.6 14.6438 23.65 14.6813 23.65 14.6813L23.6625 14.6125L23.625 14.5375C23.6063 14.4875 23.5875 14.4313 23.5813 14.375C23.5688 14.3063 23.55 14.2438 23.525 14.1813L23.4625 14.0688C23.5 13.9 23.5375 13.7188 23.5625 13.5313H23.4875L23.5438 13.0875L23.5563 13.0375C23.4938 12.9063 23.4563 12.7625 23.4375 12.6125C23.4375 12.6125 23.475 12.7 23.5063 12.675L23.4813 12.575C23.4563 12.525 23.4563 12.5063 23.4813 12.5063H23.5063L23.4875 12.4375C23.4625 12.4125 23.4438 12.375 23.4313 12.3438L23.4125 12.2313L23.3625 12.0063C23.375 11.9875 23.3875 11.9625 23.3938 11.9375C23.4125 11.8875 23.35 11.8813 23.35 11.8813L23.3188 11.975C23.3063 11.8625 23.3 11.75 23.3 11.6375L23.3625 11.5813C23.3625 11.5813 23.4063 11.6125 23.4063 11.5813C23.4125 11.5438 23.4 11.5 23.375 11.4688H23.35L23.3063 11.45L23.325 11.2L23.375 11.1625L23.4063 11.0938L23.4313 10.9813C23.4438 10.9563 23.4688 10.9375 23.4875 10.925L23.5 10.8188L23.4875 10.7563L23.5 10.7313L23.5188 10.6875C23.525 10.6688 23.5188 10.6438 23.4938 10.6375C23.4875 10.6375 23.4875 10.6375 23.4813 10.6375H23.475L23.4438 10.7313C23.4438 10.725 23.4375 10.7188 23.4375 10.7125C23.4375 10.6813 23.45 10.65 23.4563 10.6125L23.5125 10.4563L23.5563 10.1563L23.5625 10.1063C23.475 9.99376 23.6 9.66251 23.6 9.66251C23.6 9.66251 23.7125 9.87501 23.6938 9.54376C23.6813 9.33751 23.625 9.13751 23.5125 8.96251C23.4438 8.71251 23.4 8.45626 23.3813 8.19376C23.3625 7.95626 23.2813 7.73126 23.1438 7.53751C22.9813 7.20001 22.7813 6.88751 22.5438 6.60001C22.475 6.53126 22.4 6.47501 22.3313 6.41876L22.3875 6.37501L22.3813 6.35626L22.2875 6.22501L22.1625 6.09376L22.2125 6.04376C22.1188 6.01251 22.0438 5.93126 22.075 5.88126C22.1 5.83126 21.9563 5.71876 21.9188 5.68126C21.8563 5.60001 21.7813 5.52501 21.7063 5.45626L21.6188 5.39376C21.5688 5.36876 21.5188 5.34376 21.4625 5.32501C21.3938 5.28126 21.325 5.24376 21.25 5.21251C21.1875 5.19376 21.1188 5.17501 21.0625 5.14376C20.975 5.10001 20.8813 5.06876 20.7813 5.05001C20.7125 5.05001 20.8625 5.10001 20.7625 5.11876C20.6625 5.13751 20.6625 5.13751 20.6063 5.11876C20.55 5.10001 20.6188 5.06251 20.6188 5.06251L20.4938 5.02501L20.3563 5.03751C20.3563 5.03751 20.2875 5.05001 20.075 5.05626C19.9625 5.06876 19.85 5.08751 19.7375 5.11876C19.675 5.14376 19.6188 5.16876 19.5625 5.20001C19.275 5.20626 18.9938 5.25001 18.7188 5.33126L18.75 5.40001C18.625 5.43751 18.525 5.48751 18.4125 5.53126C18.4125 5.51876 18.4063 5.50626 18.3938 5.50626L18.4188 5.44376L18.4625 5.14376L18.4688 5.09376C18.3813 4.98126 18.5063 4.65001 18.5063 4.65001C18.5063 4.65001 18.6125 4.86251 18.6 4.53126C18.5875 4.32501 18.5313 4.12501 18.4188 3.95001C18.3563 3.70001 18.3125 3.44376 18.2875 3.18751C18.2688 2.95001 18.1875 2.72501 18.05 2.53126C17.8875 2.19376 17.6875 1.88126 17.45 1.59376C17.3813 1.52501 17.3063 1.46876 17.2375 1.41251L17.2938 1.36876L17.2813 1.33751L17.1938 1.21251L17.0688 1.08126L17.1188 1.03126C17.025 1.00001 16.95 0.918762 16.975 0.868762C17 0.818762 16.8563 0.706262 16.8125 0.668762C16.75 0.587512 16.675 0.512512 16.6 0.443762L16.5125 0.381262C16.4625 0.356262 16.4125 0.331262 16.3563 0.312512C16.275 0.281262 16.2375 0.237512 16.1438 0.200012C16.0813 0.181262 16.0188 0.162512 15.9563 0.131262C15.8688 0.0812622 15.775 0.0500122 15.675 0.0375122C15.6063 0.0375122 15.7563 0.0875122 15.6563 0.106262C15.5563 0.125012 15.5563 0.125012 15.5 0.106262C15.4438 0.0875122 15.5125 0.0500122 15.5125 0.0500122L15.3875 0.0125122L15.25 0.0250122C15.25 0.0250122 15.1813 0.0375122 14.9688 0.0437622C14.8563 0.0562622 14.7438 0.0750122 14.6313 0.106262C14.5688 0.131262 14.5125 0.156262 14.4563 0.187512C14.1688 0.193762 13.8875 0.237512 13.6125 0.318762L13.6438 0.387512C13.4563 0.450012 13.275 0.518762 13.0938 0.600012H13C12.9063 0.731262 12.7938 0.843762 12.675 0.950012C12.675 0.950012 12.7313 0.868762 12.6938 0.856262L12.625 0.937512C12.6 0.981262 12.5813 1.00001 12.5688 0.975012L12.5563 0.956262L12.5125 1.01251C12.4938 1.06251 12.4625 1.10626 12.4313 1.14376L12.3 1.26251C12.2125 1.34376 12.1375 1.43751 12.0625 1.53126C12.025 1.55001 11.9938 1.56876 11.9625 1.59376C11.8938 1.64376 11.9375 1.68751 11.9375 1.68751L12.0625 1.59376C11.9438 1.72501 11.8438 1.87501 11.7688 2.03751L11.6813 2.09376C11.6813 2.09376 11.6625 2.02501 11.6438 2.06876C11.6188 2.12501 11.6063 2.18751 11.6188 2.25001L11.6375 2.25626L11.675 2.29376L11.525 2.66876L11.4563 2.71876L11.3875 2.81876L11.3438 2.91876C11.325 2.93751 11.3 2.95001 11.275 2.95626L11.2438 3.04376V3.10001L11.225 3.11876L11.2 3.15626C11.1875 3.17501 11.1938 3.20001 11.2125 3.20626C11.2125 3.20626 11.2188 3.20626 11.2188 3.21251H11.225L11.275 3.13751C11.2813 3.21251 11.2938 3.28751 11.3125 3.36251L11.275 3.43751C11.225 3.41251 11.1813 3.39376 11.1313 3.37501C11.05 3.34376 11.0125 3.30001 10.9188 3.26251C10.8563 3.24376 10.7938 3.22501 10.7313 3.19376C10.6438 3.14376 10.55 3.11251 10.45 3.10001C10.3813 3.10001 10.5313 3.15001 10.4313 3.16876C10.3313 3.18751 10.3313 3.18751 10.275 3.16876C10.2188 3.15001 10.2875 3.11251 10.2875 3.11251L10.1625 3.07501L10.025 3.08751C10.025 3.08751 9.95627 3.10001 9.74377 3.10626C9.63127 3.11876 9.51877 3.13751 9.40627 3.16876C9.34377 3.19376 9.28752 3.21876 9.23127 3.25001C8.94377 3.25626 8.66252 3.30001 8.38752 3.38126L8.41877 3.45001C8.23127 3.51251 8.05002 3.58126 7.86877 3.66251L7.81252 3.68126C7.71877 3.81251 7.60627 3.92501 7.48752 4.03126C7.48752 4.03126 7.54377 3.95001 7.50627 3.93751L7.43752 4.01876C7.41252 4.06251 7.39377 4.08126 7.38127 4.05626L7.36877 4.05001L7.32502 4.10626C7.30627 4.15626 7.27502 4.20001 7.24377 4.23751L7.11252 4.35626C7.02502 4.44376 6.95002 4.53126 6.87502 4.62501C6.83752 4.64376 6.80627 4.66251 6.77502 4.68751C6.70627 4.73751 6.75002 4.78126 6.75002 4.78126L6.87502 4.68751C6.75627 4.81876 6.65627 4.96876 6.58127 5.13126L6.49377 5.18751C6.49377 5.18751 6.47502 5.11876 6.45627 5.16876C6.43127 5.22501 6.41877 5.28751 6.43127 5.35001L6.45002 5.35626L6.48752 5.39376L6.33752 5.76876L6.26252 5.81876L6.19377 5.91876L6.15002 6.01876C6.13127 6.03751 6.10627 6.05001 6.08127 6.05626L6.05002 6.14376V6.18751L6.03752 6.20626L6.01252 6.24376C5.99377 6.27501 6.01877 6.29376 6.03752 6.30001H6.04377L6.08752 6.23126C6.07502 6.33126 6.15002 6.40626 6.13127 6.51251L6.08127 6.53126L6.05627 6.54376C6.05627 6.54376 6.01877 6.50626 6.01252 6.53751C6.00002 6.56876 6.00627 6.61251 6.02502 6.63751H6.05002L6.06877 6.64376L6.08752 6.65001V6.65626C6.03752 6.83751 6.00002 7.02501 5.97502 7.21251L6.00002 7.32501C6.01877 7.45626 5.81252 7.47501 5.81252 7.47501V7.56251L5.80002 7.63751C5.80002 7.63751 5.75627 7.59376 5.73752 7.63751C5.71877 7.68126 5.72502 7.67501 5.76877 7.73126C5.81252 7.78751 5.82502 7.69376 5.84377 7.73126C5.85627 7.78751 5.85627 7.84376 5.84377 7.90001C5.83752 7.94376 5.84377 7.98126 5.85002 8.02501C5.85627 8.08751 5.83752 8.11876 5.85002 8.17501C5.85627 8.21251 5.86252 8.25001 5.86252 8.28751L5.85627 8.35626C5.84377 8.43751 5.80627 8.51876 5.80002 8.55626C5.79377 8.58751 5.79377 8.72501 5.74377 8.73126C5.69377 8.73751 5.67502 8.81876 5.71877 8.88751L5.64377 8.88126V9.01876L5.61877 9.14376L5.61252 9.15626H5.54377H5.53752L5.50002 9.26251L5.50627 9.28126L5.37502 9.18751L5.35002 9.10001C5.08752 9.11876 4.83127 9.16251 4.58127 9.22501C4.42502 9.25626 4.27502 9.30001 4.11877 9.35001C4.07502 9.36251 4.03752 9.38126 3.99377 9.39376C3.91252 9.42501 3.83752 9.46251 3.76252 9.50626L3.60627 9.61876L3.45002 9.68751C3.45002 9.68751 3.48127 9.63126 3.45002 9.63126C3.43752 9.63126 3.43127 9.63126 3.41877 9.63126C3.38752 9.64376 3.36252 9.65626 3.33752 9.67501C3.30627 9.70626 3.28127 9.73751 3.25627 9.77501C3.18127 9.88751 3.35627 9.76876 3.29377 9.83751C3.23127 9.90626 3.06877 10.0063 2.98752 10.075C2.91252 10.1313 2.85002 10.1938 2.79377 10.2688C2.71877 10.3563 2.66252 10.3938 2.60627 10.475L2.49377 10.6375L2.41877 10.7375L2.21252 10.9625L2.17502 11.0063C2.12502 11.0875 2.06877 11.1625 2.00627 11.2375L1.98127 11.3875L1.89377 11.725C1.86252 11.825 1.84377 11.925 1.83127 12.025L1.81877 12.1938L1.77502 12.325C1.77502 12.325 1.73752 12.2563 1.71877 12.3125C1.69377 12.3688 1.69377 12.375 1.71877 12.4688C1.74377 12.5625 1.78127 12.4125 1.78752 12.4813V12.5063C1.78127 12.5875 1.76877 12.6688 1.75002 12.7438C1.73752 12.8063 1.73752 12.8625 1.73752 12.925C1.73752 13.0125 1.71877 13.0625 1.71877 13.1375C1.71877 13.1938 1.72502 13.2313 1.71877 13.2938V13.3063V13.3313C1.71877 13.4063 1.73127 13.4875 1.75002 13.5625L1.78127 13.675L1.76252 13.775C1.76252 13.775 1.71877 13.725 1.70002 13.775C1.68752 13.825 1.68752 13.825 1.73127 13.9C1.77502 13.975 1.78752 13.85 1.80627 13.9C1.81877 13.975 1.81252 14.0563 1.80002 14.1313C1.79377 14.1875 1.79377 14.2438 1.80627 14.2938C1.81252 14.3688 1.79377 14.4188 1.80627 14.4938C1.81252 14.5438 1.81877 14.5875 1.81877 14.6375V14.725C1.80627 14.8313 1.76877 14.95 1.76252 14.9875C1.75627 15.0313 1.76252 15.2125 1.70627 15.2188C1.65002 15.225 1.64377 15.3375 1.68127 15.425H1.61252V15.6063L1.59377 15.7688L1.58752 15.7875H1.51252L1.47502 15.925L1.49377 15.9875C1.46252 16.05 1.42502 16.1125 1.38127 16.175C1.40002 16.2438 1.42502 16.2063 1.47502 16.275C1.53127 16.3438 1.60627 16.3938 1.68752 16.425C1.66877 16.5125 1.65627 16.6 1.66252 16.6875C1.66252 16.875 1.66252 16.6875 1.71877 16.9063C1.74377 16.9875 1.78127 17.0625 1.83127 17.1313C1.83752 17.25 1.76252 17.3625 1.65002 17.4125L1.68752 17.5625L1.67502 17.7063C1.67502 17.7063 1.62502 17.6375 1.61252 17.7063C1.60002 17.775 1.60002 17.775 1.65002 17.875C1.69377 17.975 1.70002 17.8 1.72502 17.875C1.73752 17.9813 1.73752 18.0938 1.72502 18.2C1.72502 18.275 1.72502 18.3563 1.73752 18.4313C1.75002 18.5438 1.73127 18.6125 1.73752 18.7125L1.75627 18.9188V19.0625C1.74377 19.2125 1.71252 19.3813 1.70627 19.4438C1.70002 19.5063 1.70627 19.7688 1.65627 19.7813C1.60627 19.7938 1.59377 19.9563 1.64377 20.075H1.56877L1.57502 20.3375L1.56252 20.5688L1.55627 20.6H1.50002L1.46877 20.8L1.49377 20.8875C1.46252 20.9813 1.42502 21.0813 1.38127 21.1688L1.30627 21.2063C1.39377 21.3938 1.46252 21.5938 1.51877 21.7938C1.53752 21.875 1.56252 22.0188 1.58752 22.175L1.60002 22.2813C1.60627 22.35 1.61877 22.4188 1.63752 22.4875L1.68127 22.6375L1.67502 22.7813C1.67502 22.7813 1.64377 22.7375 1.62502 22.7625C1.61877 22.7688 1.61252 22.775 1.61252 22.7875C1.60627 22.8125 1.60627 22.8375 1.61252 22.8625C1.62502 22.9 1.63752 22.9313 1.65627 22.9625C1.70627 23.0625 1.70627 22.8875 1.73127 22.9625C1.75002 23.0688 1.75002 23.1813 1.74377 23.2875C1.74377 23.3688 1.75002 23.4438 1.76252 23.525C1.77502 23.6375 1.76252 23.7125 1.77502 23.8125L1.80627 24.0188V24.15C1.80627 24.275 1.78752 24.4063 1.78127 24.4938V24.5563C1.79377 24.675 1.79377 24.7875 1.78127 24.9063L1.85002 25.0813C1.88127 25.175 1.93127 25.3313 1.98127 25.5125C2.00627 25.6313 2.04377 25.75 2.08752 25.8625L2.15627 26.025L2.17502 26.1875C2.17502 26.1875 2.11252 26.1125 2.11252 26.1938C2.11252 26.275 2.11877 26.2688 2.19377 26.3625C2.26877 26.45 2.21877 26.2688 2.26252 26.3438L2.27502 26.375C2.31252 26.475 2.34377 26.575 2.36252 26.675C2.38752 26.7563 2.41252 26.8375 2.45002 26.9125C2.50002 27.025 2.50627 27.1063 2.56252 27.2063L2.66252 27.4188L2.66877 27.4375L2.68752 27.4688C2.74377 27.5813 2.80627 27.6875 2.87502 27.7875L2.99377 27.9375L3.06877 28.1C3.06877 28.1 2.98127 28.0438 3.01877 28.1313C3.05627 28.2188 3.05002 28.2063 3.15002 28.2813C3.25002 28.3563 3.15002 28.1813 3.21252 28.2438C3.28752 28.3375 3.35002 28.4375 3.40627 28.5438C3.45002 28.6188 3.50002 28.6875 3.55627 28.75C3.63127 28.8438 3.66877 28.9188 3.73752 29L3.88752 29.1688L3.97502 29.2813L4.20002 29.6313C4.24377 29.6938 4.42502 29.8938 4.40002 29.9375C4.37502 29.975 4.47502 30.1188 4.59377 30.1813L4.54377 30.2313L4.73752 30.4313L4.89377 30.6188L4.90627 30.6438L4.85002 30.7L4.99377 30.8938L5.08752 30.95L5.26252 31.25C5.37502 31.3188 5.33752 31.25 5.46252 31.2938C5.57502 31.325 5.69377 31.325 5.80627 31.2938C5.91252 31.4 6.03752 31.4938 6.16877 31.5688C6.45002 31.7375 6.16877 31.5688 6.52502 31.7125C6.88127 31.8563 6.82502 31.7063 7.10627 31.8688C7.25002 31.9563 7.40627 32.0125 7.57502 32.025C7.57502 32.025 7.75627 32 7.80002 31.9938C7.86877 31.9938 7.93752 31.9813 8.00002 31.9563C8.07502 31.9625 8.13752 31.9063 8.14377 31.8375V31.8313C8.15627 31.6875 8.29377 31.9 8.28752 31.8188C8.43127 31.6438 8.47502 31.4125 8.40627 31.2063C8.39377 31.0375 8.28127 31.0625 8.38752 30.9125C8.44377 30.8313 8.43127 30.9938 8.57502 30.6875C8.61877 30.5938 8.63752 30.6313 8.55002 30.4938C8.48127 30.4563 8.42502 30.4063 8.36877 30.35C8.35627 30.275 8.23127 30.3313 8.27502 30.25C8.10627 30.1688 7.93752 30.075 7.76252 29.975L7.60627 29.8375C7.50002 29.7688 7.40627 29.6875 7.30627 29.6063L7.26252 29.5625C7.08752 29.55 6.87502 29.1875 6.87502 29.1875C6.87502 29.1875 7.12502 29.2875 6.84377 29.025C6.65627 28.8438 6.44377 28.6813 6.21877 28.5438C5.98127 28.325 5.77502 28.0625 5.61252 27.7813C5.49377 27.5438 5.33752 27.325 5.15627 27.1313C5.05627 26.9938 4.96877 26.85 4.89377 26.6938C4.81252 26.5313 4.73752 26.35 4.66252 26.1563L4.51877 25.8875L4.58752 25.8688V25.8438L4.55627 25.6688C4.53752 25.6063 4.51877 25.5438 4.50627 25.4813L4.57502 25.4625C4.52502 25.3938 4.52502 25.2875 4.57502 25.2688C4.62502 25.25 4.59377 25.0938 4.59377 25.0438C4.59377 25 4.61252 24.8938 4.60627 24.7938L4.59377 24.7125L4.55002 24.5813C4.53752 24.5125 4.55002 24.4625 4.53127 24.3875C4.51252 24.3313 4.50627 24.275 4.50627 24.2188C4.51252 24.1375 4.50627 24.0563 4.48752 23.975C4.46252 23.9188 4.46877 24.0563 4.41252 23.975C4.36252 23.8938 4.36252 23.9 4.36877 23.8438C4.37502 23.7875 4.43127 23.8438 4.43127 23.8438L4.43752 23.7313L4.39377 23.6125C4.36877 23.5313 4.35002 23.45 4.33752 23.3688C4.31877 23.2688 4.30002 23.1688 4.26877 23.0688L4.20002 22.9L4.27502 22.0438H4.20002L4.23752 21.3313L4.24377 21.25C4.17502 21.0313 4.13127 20.8063 4.11252 20.5813C4.11252 20.5813 4.15002 20.725 4.18127 20.6813V20.675L4.15002 20.5188C4.12502 20.4375 4.11877 20.4063 4.15002 20.4063H4.17502L4.15002 20.2938C4.12502 20.25 4.10002 20.2 4.08752 20.1438L4.06877 19.975L4.01252 19.625C4.02502 19.5875 4.03127 19.55 4.03752 19.5125C4.05002 19.4313 3.99377 19.425 3.99377 19.425L3.96877 19.575C3.95627 19.4 3.94377 19.2188 3.93752 19.0313L4.00002 18.9375C4.00002 18.9375 4.04377 18.9875 4.04377 18.9375C4.05002 18.8813 4.03752 18.8188 4.00627 18.7688H3.98127L3.93752 18.75L3.95002 18.3438L4.00002 18.275L4.03127 18.1625L4.05002 17.9813C4.06252 17.95 4.08127 17.9188 4.10627 17.8938L4.11877 17.725L4.10627 17.6313L4.11877 17.5938L4.13127 17.525C4.14377 17.4688 4.11252 17.4438 4.10002 17.4375H4.08752L4.05627 17.5875C4.04377 17.4125 3.95627 17.3125 3.95002 17.125L3.99377 17.0625L4.01252 17.0313C4.01252 17.0313 4.05627 17.0813 4.05627 17.0313C4.06252 16.975 4.05002 16.9125 4.01877 16.8625H3.99377L3.97502 16.8563L3.95002 16.8313C3.95002 16.7125 3.90002 16.6063 3.90627 16.4938V16.4375L3.88127 16.4C3.89377 16.2875 3.92502 16.175 3.96252 16.075C3.96252 16.075 4.05002 16.3 4.06252 15.9625C4.06877 15.7625 4.03752 15.5563 3.96252 15.3688C3.93752 15.125 3.95627 14.8813 4.01252 14.6438C4.06252 14.45 4.06877 14.2438 4.02502 14.0438C4.01877 13.7438 4.02502 13.45 4.03127 13.1813L4.00002 12.9875L4.06877 13L4.08127 12.9875C4.09377 12.9563 4.10002 12.9313 4.11877 12.9063L4.13127 12.8125L4.20002 12.825C4.16877 12.7813 4.18752 12.7813 4.23127 12.7938C4.27502 12.8063 4.28752 12.7688 4.30627 12.7375C4.32502 12.7063 4.37502 12.6813 4.40627 12.6438L4.42502 12.6063C4.43127 12.5875 4.43752 12.5625 4.43752 12.5438C4.43752 12.5063 4.46877 12.5 4.48127 12.4688C4.49377 12.4375 4.48127 12.4188 4.50627 12.4063C4.53127 12.3875 4.56252 12.3563 4.55627 12.3313C4.55002 12.3063 4.51877 12.3375 4.50002 12.2875C4.48127 12.2375 4.48127 12.2375 4.50002 12.2313C4.51877 12.225 4.55002 12.2688 4.55002 12.2688L4.58127 12.2438V12.1938C4.58127 12.1625 4.58752 12.1375 4.60002 12.1125C4.59377 12.0938 4.58752 12.075 4.58127 12.0563L4.56252 12C4.60627 12.0125 4.64377 12.0313 4.67502 12.0625L4.66252 11.9875C4.68752 12 4.71252 12.025 4.72502 12.05V12.0625C4.73127 12.0188 4.76877 11.9813 4.81252 11.975C4.79377 11.9875 4.78127 12.0125 4.77502 12.0313L4.80002 12.0125C4.81877 12 4.82502 11.9938 4.81252 12.0125L4.80002 12.0375C4.81252 12.0375 4.80002 12.025 4.81877 12.025C4.84377 12.0125 4.87502 12.0063 4.90627 12.0125L4.98127 12.0438L5.16877 12.1188C5.17502 12.1438 5.18752 12.1625 5.20627 12.1813C5.23752 12.225 5.27502 12.1813 5.27502 12.1813L5.21877 12.1L5.39377 12.2125L5.35627 12.2688C5.35627 12.2688 5.31877 12.2938 5.31877 12.3C5.31877 12.3063 5.36252 12.2938 5.36252 12.2938L5.38127 12.275L5.41877 12.25C5.43127 12.2688 5.43752 12.2938 5.43752 12.3188L5.39377 12.35L5.36877 12.375L5.35002 12.4L5.29377 12.425C5.28752 12.425 5.29377 12.4438 5.29377 12.45C5.29377 12.4563 5.30627 12.45 5.31252 12.4688L5.30627 12.5L5.30002 12.55C5.29377 12.575 5.31252 12.5938 5.33127 12.6H5.34377H5.35002L5.36252 12.4875C5.39377 12.6063 5.49377 12.6563 5.51252 12.7813L5.47502 12.8313L5.45627 12.8563C5.45627 12.8563 5.40627 12.8313 5.41252 12.8625C5.41252 12.9063 5.43127 12.95 5.46252 12.975H5.48752H5.50627H5.53752C5.55002 13.0563 5.61252 13.1125 5.61877 13.1938V13.2313L5.73127 13.3188L5.71252 13.4L5.84377 13.5C5.83127 13.525 5.81877 13.55 5.79377 13.5688C5.79377 13.625 5.90002 13.6563 5.90002 13.6875V13.7625C5.90627 13.7625 5.91877 13.7688 5.92502 13.775V13.7875V13.8063C5.91877 13.8125 5.91252 13.8188 5.92502 13.8188C5.91252 13.8875 5.88127 13.9625 5.88127 13.9875C5.87502 14.0188 5.87502 14.1625 5.82502 14.1625C5.77502 14.1688 5.76252 14.2563 5.80002 14.3188H5.72502V14.4625L5.70627 14.5875L5.70002 14.6063H5.62502L5.58752 14.7188L5.60627 14.7688C5.57502 14.8188 5.53752 14.8688 5.49377 14.9125C5.50627 14.9688 5.53752 14.9375 5.58127 14.9938C5.64377 15.05 5.71252 15.0938 5.78752 15.1188C5.76252 15.1875 5.75627 15.2563 5.76252 15.325C5.76252 15.475 5.76252 15.325 5.81252 15.4938C5.86252 15.6625 5.95627 15.6188 5.92502 15.7688C5.90002 15.8438 5.90627 15.9188 5.93752 15.9938C5.96877 16.0188 6.00002 16.05 6.03127 16.0875C6.05627 16.1188 6.08127 16.15 6.11877 16.175C6.11877 16.175 6.13752 16.2375 6.27502 16.225C6.41252 16.2188 6.23752 16.3063 6.31877 16.2938C6.52502 16.35 6.73752 16.35 6.94377 16.2938C7.10627 16.2688 7.05627 16.2063 7.22502 16.25C7.31877 16.275 7.15002 16.2813 7.48127 16.3375C7.58127 16.3563 7.55002 16.3688 7.66252 16.3C7.69377 16.25 7.72502 16.2063 7.76252 16.1688C7.83127 16.15 7.73752 16.0813 7.83752 16.0938C7.86877 15.9688 7.90002 15.8438 7.92502 15.7125L7.98127 15.5813L8.03127 15.3313L8.04377 15.2875C7.96252 15.1875 8.11252 14.925 8.11252 14.925C8.11252 14.925 8.20002 15.1063 8.21252 14.8375C8.22502 14.675 8.18752 14.5125 8.11252 14.3688C8.09377 14.175 8.10627 13.9813 8.15627 13.7938C8.20627 13.6375 8.20627 13.4625 8.15627 13.3063L8.10627 12.5688L8.05002 12.3875H8.11877L8.12502 12.375L8.14377 12.275V12.1625H8.21252C8.16877 12.1063 8.18752 12.0375 8.23752 12.0375C8.28752 12.0375 8.28752 11.925 8.29377 11.9C8.31252 11.85 8.33127 11.7938 8.35002 11.7375V11.6813C8.34377 11.65 8.34377 11.6188 8.33127 11.5938C8.32502 11.55 8.33752 11.5188 8.33127 11.475C8.31877 11.4438 8.31877 11.4063 8.31877 11.375C8.33127 11.3313 8.33127 11.2813 8.31877 11.2375C8.30002 11.2063 8.29377 11.2813 8.25002 11.2375C8.20627 11.1938 8.20627 11.1938 8.21252 11.1625C8.22502 11.1313 8.27502 11.1625 8.27502 11.1625L8.28752 11.1063L8.25002 11.0375C8.23127 10.9938 8.21252 10.95 8.20627 10.9C8.19377 10.8438 8.17502 10.7875 8.15002 10.7313L8.08752 10.6375C8.13127 10.4938 8.16877 10.3438 8.20002 10.1875H8.18752L8.25627 9.80626L8.26877 9.76251C8.20627 9.64376 8.16877 9.51876 8.15627 9.38751C8.15627 9.38751 8.19377 9.46876 8.21877 9.44376L8.19377 9.35626C8.16877 9.31251 8.16877 9.29376 8.19377 9.30001H8.21877L8.20002 9.23751C8.17502 9.21251 8.15627 9.18126 8.14377 9.15001L8.12502 9.05626L8.08127 8.86251C8.09377 8.84376 8.10627 8.82501 8.11252 8.80626C8.13127 8.76251 8.06877 8.75626 8.06877 8.75626L8.03752 8.83126C8.03127 8.73751 8.02502 8.63751 8.02502 8.53751L8.09377 8.49376C8.09377 8.49376 8.13752 8.52501 8.13752 8.49376C8.14377 8.45626 8.13127 8.42501 8.10627 8.40001H8.08127L8.03752 8.38751L8.06252 8.16876L8.11252 8.13751L8.15002 8.08126L8.17502 7.98751C8.19377 7.96876 8.21252 7.95626 8.23752 7.94376L8.25002 7.85626L8.24377 7.80626L8.25627 7.78751L8.27502 7.75001C8.28752 7.71876 8.25627 7.70626 8.24377 7.70001H8.23127L8.20002 7.78126C8.19377 7.68751 8.10627 7.62501 8.10627 7.52501L8.15002 7.49376L8.17502 7.48126C8.17502 7.48126 8.21877 7.51251 8.21877 7.48126C8.22502 7.44376 8.21252 7.41251 8.18752 7.38751H8.16252L8.14377 7.38126L8.11877 7.37501C8.11877 7.36876 8.11877 7.36251 8.11877 7.35001C8.15002 7.26251 8.18127 7.17501 8.20627 7.09376V6.98126C8.21252 6.84376 8.43127 6.85001 8.43127 6.85001L8.41252 6.75626L8.44377 6.68126C8.44377 6.68126 8.48127 6.73126 8.50002 6.69376C8.51877 6.65626 8.51877 6.65626 8.48752 6.59376C8.45627 6.52501 8.42502 6.62501 8.41877 6.58126C8.41877 6.51876 8.43127 6.46251 8.45627 6.40626C8.46877 6.39376 8.46252 6.38751 8.45627 6.36251C8.45002 6.33751 8.47502 6.33126 8.46877 6.31251C8.46877 6.30001 8.46877 6.28126 8.46877 6.26876L8.48127 6.25001C8.50002 6.22501 8.55627 6.22501 8.56877 6.22501C8.59377 6.20626 8.62502 6.20626 8.65002 6.22501C8.68752 6.25626 8.71252 6.25626 8.70002 6.21876L8.74377 6.27501L8.77502 6.25626L8.88752 6.20001H8.90627L8.94377 6.25626L9.05002 6.23126L9.07502 6.19376C9.13127 6.20001 9.18752 6.20626 9.24377 6.22501L9.29377 6.28126C9.31252 6.18751 9.34377 6.09376 9.38752 6.00626C9.41252 5.96876 9.43752 5.93751 9.46252 5.91251L9.48127 5.89376C9.49377 5.88126 9.50627 5.86251 9.51252 5.85001L9.53127 5.80626C9.55002 5.80626 9.55002 5.81251 9.55002 5.81251L9.55627 5.86251V5.87501H9.56252V5.83751C9.56252 5.78751 9.54377 5.78751 9.55002 5.76876C9.55628 5.75001 9.58127 5.75626 9.59377 5.76876C9.60627 5.78126 9.60627 5.76876 9.62502 5.75626C9.63752 5.74376 9.65003 5.76876 9.66253 5.75626C9.67502 5.75001 9.68128 5.75001 9.69378 5.74376C9.70003 5.74376 9.70627 5.75001 9.71252 5.75001C9.72502 5.76876 9.73127 5.78751 9.74377 5.81251V5.82501C9.75002 5.83126 9.78127 5.85001 9.78127 5.88126C9.80002 5.87501 9.81252 5.86251 9.83127 5.85626C9.86878 5.85626 9.90627 5.85626 9.94378 5.86876C9.97503 5.88126 10.0063 5.88751 10.0438 5.89376H10.1063C10.1188 5.90626 10.125 5.91876 10.1313 5.93751C10.1313 5.93751 10.0813 5.95626 10.0875 5.98126C10.0938 6.00626 10.0938 6.00626 10.15 6.00001C10.2063 5.99376 10.1688 5.94376 10.2 5.95001H10.2125C10.2438 5.96251 10.2625 6.00626 10.2813 6.03126C10.2938 6.05626 10.3125 6.06251 10.3438 6.09376C10.375 6.12501 10.3813 6.15626 10.4063 6.18126C10.425 6.20001 10.4438 6.21876 10.4625 6.23751V6.24376L10.4813 6.26251C10.5125 6.29376 10.5438 6.32501 10.5813 6.35001L10.6438 6.38751L10.6563 6.44376C10.6563 6.44376 10.6 6.44376 10.6 6.46876C10.6 6.49376 10.6 6.50001 10.6625 6.51876C10.725 6.53751 10.7 6.46876 10.725 6.48751C10.7563 6.52501 10.775 6.56876 10.7813 6.61251C10.7875 6.65001 10.8063 6.68126 10.825 6.70626C10.8375 6.73126 10.85 6.76251 10.85 6.79376L10.8375 6.81876L10.8313 6.84376C10.825 6.86876 10.825 6.93751 10.7938 6.96251L10.8375 7.02501C10.8563 7.07501 10.875 7.12501 10.8875 7.17501C10.8938 7.20626 10.9 7.23751 10.9125 7.26251C10.9125 7.29376 10.9125 7.32501 10.8875 7.33126C10.85 7.34376 10.85 7.40001 10.8813 7.45001C10.8813 7.45626 10.8813 7.46251 10.8938 7.47501L10.825 7.48751L10.8438 7.61251V7.72501L10.8375 7.73751L10.7625 7.74376L10.7375 7.84376L10.7625 7.88126C10.7313 7.93126 10.7 7.97501 10.6625 8.01876C10.6813 8.06876 10.7063 8.03751 10.7625 8.08751C10.7875 8.10626 10.8125 8.11876 10.8438 8.13126C10.7938 8.16251 10.7375 8.18751 10.6813 8.19376L10.7188 8.26251L10.7063 8.32501C10.7063 8.32501 10.6563 8.29376 10.6438 8.32501C10.6313 8.35626 10.6313 8.35626 10.675 8.40001C10.7188 8.44376 10.7313 8.36876 10.75 8.40001C10.7625 8.44376 10.7625 8.49376 10.75 8.54376C10.7438 8.58126 10.75 8.61251 10.7625 8.64376C10.7688 8.69376 10.75 8.72501 10.7625 8.76876L10.7813 8.86251V8.91876C10.7688 8.98751 10.7313 9.05626 10.725 9.08751C10.7188 9.11876 10.7188 9.23126 10.6688 9.23126C10.6188 9.23126 10.6 9.30626 10.6438 9.36251H10.5625V9.47501L10.5438 9.58126L10.5375 9.59376H10.4625L10.425 9.68126L10.4438 9.71876C10.4063 9.76251 10.3688 9.80626 10.325 9.83751L10.25 9.85001C10.325 9.93126 10.3875 10.0188 10.4375 10.1125C10.4625 10.1688 10.4813 10.225 10.4938 10.2813L10.5063 10.325C10.5125 10.3563 10.525 10.3875 10.5375 10.4188L10.575 10.4875L10.5625 10.55C10.5625 10.55 10.5313 10.5313 10.5125 10.5375C10.5063 10.5375 10.5063 10.5438 10.5 10.55C10.4938 10.5625 10.4938 10.575 10.5 10.5813C10.5063 10.5938 10.5125 10.6 10.5375 10.625C10.5813 10.6688 10.5875 10.5938 10.6063 10.625C10.6188 10.6688 10.6188 10.7188 10.6063 10.7688C10.6 10.8063 10.6063 10.8375 10.6188 10.8688C10.625 10.9188 10.6063 10.95 10.6188 10.9938C10.625 11.025 10.6313 11.0563 10.6375 11.0875V11.1438C10.625 11.1938 10.6125 11.2375 10.5875 11.2875L10.5813 11.3125C10.575 11.3375 10.575 11.425 10.5438 11.45L10.5875 11.5188C10.6125 11.575 10.625 11.6313 10.6375 11.6875C10.6438 11.7375 10.6563 11.7813 10.6813 11.825L10.7188 11.8938L10.7063 11.9563C10.7063 11.9563 10.6563 11.925 10.6438 11.9563C10.6313 11.9875 10.6313 11.9875 10.675 12.0313C10.7188 12.075 10.725 12 10.75 12.0313V12.0438C10.7563 12.0875 10.7563 12.1313 10.75 12.175C10.7438 12.2125 10.75 12.2438 10.7625 12.275C10.7688 12.325 10.75 12.3563 10.7625 12.4C10.7688 12.4313 10.775 12.4625 10.7813 12.4938V12.5V12.5125C10.7875 12.5625 10.8 12.6063 10.825 12.65L10.8625 12.7188L10.85 12.7813C10.85 12.7813 10.8 12.75 10.7875 12.7813C10.775 12.8125 10.775 12.8125 10.8188 12.8563C10.8625 12.9 10.8688 12.825 10.8938 12.8563C10.9063 12.9 10.9063 12.95 10.8938 13C10.8875 13.0375 10.8938 13.0688 10.9063 13.1C10.9125 13.15 10.8938 13.1813 10.9063 13.225C10.9125 13.2563 10.9188 13.2875 10.925 13.3125V13.3688C10.9125 13.4375 10.875 13.5063 10.8688 13.5375C10.8625 13.5688 10.8625 13.6813 10.8125 13.6875C10.7625 13.6938 10.7438 13.7625 10.7875 13.8188H10.7188V13.9313L10.7 14.0313L10.6625 14.0563H10.5875L10.55 14.1438L10.5688 14.1813C10.5375 14.225 10.5 14.2625 10.4563 14.3C10.4688 14.3438 10.5 14.3188 10.5438 14.3688C10.6063 14.4125 10.675 14.4438 10.75 14.4688C10.725 14.525 10.7188 14.5813 10.7188 14.6375C10.7188 14.7563 10.7188 14.6375 10.7688 14.775C10.8188 14.9125 10.9125 14.875 10.8813 15C10.8563 15.0625 10.8563 15.1313 10.8938 15.1875C10.925 15.2125 10.9563 15.2375 10.9875 15.2625C11.0125 15.2938 11.0375 15.3125 11.075 15.3313C11.075 15.3313 11.0938 15.3813 11.2313 15.375C11.3688 15.3688 11.1938 15.4375 11.275 15.425C11.4813 15.4688 11.6938 15.4625 11.9 15.4188C12.0625 15.3938 12.0125 15.3438 12.1875 15.3813C12.2813 15.4 12.1125 15.4063 12.4438 15.45C12.5438 15.4625 12.5125 15.475 12.625 15.4188C12.6563 15.375 12.6875 15.3375 12.7313 15.3063C12.8 15.2875 12.7125 15.2313 12.8063 15.2375C12.8375 15.1375 12.8688 15.0313 12.8938 14.9188L12.95 14.8063L13.0063 14.5938L13.0188 14.5563C12.9375 14.475 13.0875 14.25 13.0875 14.25C13.0875 14.25 13.1688 14.4 13.1875 14.175C13.2 14.0375 13.1688 13.9 13.0938 13.7875C13.075 13.625 13.0938 13.4625 13.1438 13.3063C13.1938 13.175 13.1938 13.0313 13.1438 12.9L13.1 12.2875L13.05 12.1375H13.1188L13.125 12.125L13.1438 12.0438V11.9438H13.2188C13.175 11.9 13.1938 11.8438 13.2438 11.8375C13.2938 11.8313 13.2938 11.7438 13.3 11.7188C13.3063 11.6938 13.3438 11.6375 13.3563 11.5813V11.5375C13.3563 11.5125 13.35 11.4875 13.3375 11.4625C13.3313 11.425 13.35 11.4 13.3375 11.3625C13.325 11.3375 13.325 11.3063 13.325 11.2813C13.3313 11.25 13.3438 11.1938 13.325 11.1688C13.3063 11.1438 13.3 11.2063 13.2563 11.1688C13.2125 11.1313 13.2125 11.1313 13.225 11.1063C13.2375 11.0813 13.2813 11.1063 13.2813 11.1063L13.2938 11.0563L13.2563 11C13.2375 10.9625 13.225 10.925 13.2125 10.8875C13.2 10.8375 13.1813 10.7938 13.1563 10.75L13.0938 10.675C13.1375 10.55 13.1688 10.425 13.2 10.3H13.15C13.1688 10.2313 13.1875 10.1688 13.2 10.1L13.2563 9.98751L13.3 9.78751L13.3125 9.75626C13.225 9.68126 13.3688 9.47501 13.3688 9.47501C13.3688 9.47501 13.4563 9.60626 13.4688 9.40001C13.475 9.27501 13.4313 9.15626 13.3563 9.05626C13.3313 8.91876 13.3375 8.77501 13.3875 8.63751C13.4313 8.53126 13.4313 8.40626 13.3813 8.30001L13.3438 7.81251L13.3313 7.78751C13.3438 7.78751 13.3563 7.75626 13.3563 7.70001H13.3625L13.3688 7.69376L13.3938 7.63126V7.56251H13.4625C13.4188 7.52501 13.4375 7.46876 13.4875 7.47501C13.5375 7.47501 13.5375 7.39376 13.5438 7.37501C13.5625 7.33751 13.5875 7.30001 13.6 7.25626V7.18751C13.6 7.16251 13.5938 7.14376 13.5875 7.11876C13.5813 7.08751 13.6 7.06251 13.5875 7.03126C13.575 6.99376 13.575 6.98751 13.5813 6.95626C13.5875 6.92501 13.6 6.88126 13.5813 6.85626C13.5625 6.83126 13.5563 6.88751 13.5063 6.85626C13.4625 6.82501 13.4625 6.81876 13.475 6.80001C13.4875 6.77501 13.5313 6.80001 13.5313 6.80001L13.5438 6.75626L13.5063 6.70626C13.4875 6.67501 13.475 6.63751 13.4688 6.60001C13.4563 6.55626 13.4375 6.51251 13.4188 6.47501L13.3688 6.40626C13.4125 6.30001 13.45 6.18751 13.4813 6.06876H13.4063L13.475 5.79376L13.4875 5.76251C13.4313 5.68126 13.3938 5.58751 13.375 5.48751C13.375 5.48751 13.4125 5.54376 13.4438 5.53126L13.4188 5.46876C13.3938 5.43751 13.3938 5.42501 13.4188 5.42501H13.4438L13.425 5.38126C13.4 5.36251 13.3813 5.34376 13.3688 5.31876L13.3563 5.25001L13.3125 5.10626C13.325 5.09376 13.3375 5.08126 13.3438 5.06251C13.3625 5.03126 13.3 5.02501 13.3 5.02501L13.2688 5.08126C13.2563 5.01251 13.2563 4.93751 13.2563 4.86876L13.325 4.83751C13.325 4.83751 13.3688 4.86251 13.3688 4.83751C13.375 4.81251 13.3625 4.78126 13.3375 4.76876H13.3125L13.2688 4.75626C13.275 4.70626 13.2813 4.65001 13.2875 4.60001L13.3375 4.57501L13.375 4.53126L13.4 4.46251C13.4188 4.45001 13.4375 4.43751 13.4625 4.43126L13.475 4.36876L13.4563 4.33126L13.4688 4.31876L13.4875 4.29376C13.5 4.26876 13.475 4.26251 13.4563 4.25626H13.4375L13.4063 4.31251C13.3938 4.26251 13.3688 4.21876 13.3375 4.18126L13.3688 4.09376H13.375C13.375 4.09376 13.4188 4.11876 13.4188 4.09376C13.425 4.06876 13.4125 4.03751 13.3875 4.02501L13.3938 3.99376V3.88126C13.3938 3.74376 13.6125 3.75001 13.6125 3.75001L13.5938 3.65626L13.625 3.58126C13.625 3.58126 13.6625 3.63126 13.6813 3.59376C13.7 3.55626 13.7 3.55626 13.6688 3.49376C13.6375 3.43126 13.6063 3.52501 13.6 3.48126C13.6 3.41876 13.6125 3.36251 13.6375 3.30626C13.65 3.29376 13.6438 3.28751 13.6375 3.26251C13.6313 3.23751 13.6563 3.23126 13.65 3.21251C13.65 3.20001 13.65 3.18126 13.65 3.16876L13.6625 3.15001C13.6813 3.12501 13.7375 3.12501 13.75 3.12501C13.775 3.10626 13.8063 3.10626 13.8313 3.12501C13.8688 3.15626 13.8938 3.15626 13.8813 3.11876L13.925 3.17501L13.9563 3.15626L14.0688 3.10001H14.0875L14.125 3.15626L14.2375 3.13126L14.2625 3.09376C14.3188 3.10001 14.375 3.10626 14.4313 3.12501L14.4813 3.18126C14.5 3.08751 14.5313 2.99376 14.575 2.90626C14.6 2.86876 14.625 2.83751 14.65 2.81251L14.6688 2.79376C14.6813 2.78126 14.6938 2.76251 14.7 2.75001L14.7188 2.70626C14.7375 2.70626 14.7375 2.71251 14.7375 2.71251L14.7438 2.76251V2.77501H14.75V2.73751C14.75 2.68751 14.7313 2.68751 14.7375 2.66876C14.7438 2.65001 14.7688 2.65626 14.7813 2.66876C14.7938 2.68126 14.7938 2.66876 14.8125 2.65626C14.825 2.64376 14.8375 2.66876 14.85 2.65626C14.8625 2.65001 14.8688 2.65001 14.8813 2.64376C14.8875 2.64376 14.8938 2.65001 14.9 2.65001C14.9125 2.66876 14.9188 2.68751 14.9313 2.71251L14.9375 2.72501C14.9438 2.73126 14.975 2.75001 14.975 2.78126C14.9938 2.77501 15.0063 2.76251 15.025 2.75626C15.0625 2.75626 15.1 2.75626 15.1375 2.76876C15.1688 2.78126 15.2 2.78751 15.2375 2.79376H15.3C15.3125 2.80626 15.3188 2.81876 15.325 2.83751C15.325 2.83751 15.275 2.85626 15.2813 2.88126C15.2875 2.90626 15.2875 2.90626 15.3438 2.90001C15.4 2.89376 15.3625 2.84376 15.3938 2.85001H15.4063C15.4375 2.86251 15.4563 2.90626 15.475 2.93126C15.4875 2.95626 15.5063 2.96251 15.5375 2.99376C15.5688 3.02501 15.575 3.05626 15.6 3.08126C15.6188 3.10001 15.6375 3.11876 15.6563 3.13751V3.14376L15.6688 3.15001C15.7 3.18126 15.7313 3.21251 15.7688 3.23751L15.8313 3.27501L15.8438 3.33126C15.8438 3.33126 15.7875 3.33126 15.7875 3.35626C15.7875 3.38126 15.7875 3.38751 15.85 3.40626C15.9125 3.42501 15.8875 3.35626 15.9188 3.37501C15.95 3.41251 15.9688 3.45626 15.975 3.50001C15.9813 3.53751 16 3.56876 16.0188 3.59376C16.0438 3.63751 16.0375 3.67501 16.0625 3.71876C16.0813 3.74376 16.0938 3.77501 16.1063 3.80626L16.1188 3.86876C16.1188 3.93126 16.1188 3.99376 16.1125 4.05626C16.1125 4.08751 16.1375 4.20626 16.0938 4.22501C16.05 4.23751 16.0438 4.31876 16.0938 4.36876L16.025 4.38126L16.0438 4.50626V4.61876V4.63126L15.9688 4.64376L15.9438 4.74376L15.9688 4.78126C15.9375 4.83126 15.9063 4.87501 15.8688 4.91876C15.8875 4.96876 15.9125 4.93751 15.9688 4.98126C16 5.00626 16.0375 5.02501 16.075 5.03751C16.075 5.06876 16.0688 5.10626 16.0625 5.13751L16.0875 5.25001C16.1125 5.38751 15.9 5.42501 15.9 5.42501L15.9375 5.51251L15.925 5.59376C15.925 5.59376 15.875 5.55001 15.8625 5.59376C15.85 5.63751 15.85 5.63126 15.9 5.69376C15.95 5.75626 15.95 5.65001 15.975 5.69376C15.9875 5.75626 15.9875 5.81876 15.975 5.88126C15.975 5.92501 15.975 5.97501 15.9875 6.01876C16 6.08126 15.9813 6.12501 15.9875 6.18126C15.9938 6.21876 16 6.26251 16.0063 6.30001V6.37501C15.9938 6.46251 15.9563 6.55626 15.95 6.60001C15.9438 6.63751 15.9438 6.78751 15.8938 6.79376C15.8438 6.80001 15.8313 6.89376 15.8688 6.96251H15.8V7.13126L15.7813 7.26876L15.775 7.28751H15.7L15.6625 7.40001L15.6813 7.45001C15.65 7.50626 15.6125 7.56251 15.5688 7.61251L15.4938 7.63126C15.5688 7.73751 15.6375 7.85001 15.6875 7.97501C15.7125 8.05001 15.7313 8.12501 15.7438 8.20001L15.7563 8.26251C15.7625 8.30626 15.775 8.34376 15.7875 8.38126L15.825 8.46876L15.8125 8.55001C15.8125 8.55001 15.7813 8.52501 15.7625 8.53751C15.7563 8.54376 15.7563 8.54376 15.75 8.55001C15.7438 8.56251 15.7438 8.58126 15.75 8.59376C15.7625 8.61251 15.775 8.63126 15.7875 8.65001C15.8313 8.70626 15.8375 8.60626 15.8625 8.65001C15.875 8.71251 15.875 8.77501 15.8625 8.83751C15.8563 8.88126 15.8625 8.93126 15.875 8.97501C15.8813 9.03751 15.8688 9.08126 15.875 9.13751C15.8813 9.17501 15.8875 9.21876 15.8938 9.25626V9.33126C15.8813 9.39376 15.8688 9.45626 15.85 9.51876L15.8438 9.55626C15.8438 9.61876 15.8313 9.67501 15.8125 9.73126L15.8563 9.81876C15.8813 9.89376 15.9 9.96876 15.9125 10.0438C15.9188 10.1063 15.9313 10.1688 15.9563 10.225L15.9875 10.2938V10.3125L15.9813 10.325H15.9125L15.875 10.4L15.8938 10.4375C15.8563 10.475 15.8188 10.5063 15.775 10.5375L15.7 10.5438C15.775 10.6188 15.8375 10.7 15.8875 10.7875C15.9063 10.8375 15.925 10.8875 15.9375 10.9375L15.95 10.9813C15.9563 11.0125 15.9688 11.0375 15.9813 11.0625L16.0188 11.125L16.0063 11.1813C16.0063 11.1813 15.975 11.1625 15.9563 11.1688L15.9438 11.175C15.9438 11.1875 15.9375 11.1938 15.9438 11.2063C15.9563 11.225 15.9688 11.2375 15.9813 11.25C16.025 11.2938 16.0313 11.225 16.05 11.25C16.0625 11.2938 16.0625 11.3375 16.05 11.375C16.0438 11.4063 16.05 11.4375 16.0563 11.4688C16.0625 11.5125 16.0438 11.5375 16.0563 11.5813C16.0625 11.6063 16.0688 11.6375 16.0688 11.6625V11.7125C16.0563 11.7563 16.0375 11.7938 16.0188 11.8375L16.0125 11.8625C16.0063 11.8875 16.0063 11.9563 15.975 11.9813L16.0188 12.0438C16.0375 12.0938 16.0563 12.1438 16.0688 12.1938C16.075 12.2375 16.0875 12.2813 16.1063 12.3188L16.1438 12.3813L16.1313 12.4375C16.1313 12.4375 16.0875 12.4 16.0688 12.4375C16.05 12.475 16.0563 12.4688 16.1 12.5188C16.1438 12.5688 16.1563 12.4875 16.175 12.5188C16.175 12.575 16.1625 12.6688 16.125 12.675C16.0813 12.6813 16.0625 12.775 16.1063 12.8438H16.0313V12.9938L16.0125 13.1313L16.0063 13.15H15.9313L15.8938 13.2688L15.9125 13.3188C15.8813 13.375 15.8438 13.425 15.8 13.475C15.8125 13.5375 15.8438 13.5 15.8938 13.5625C15.95 13.6188 16.025 13.6625 16.1 13.6875C16.075 13.7625 16.0688 13.8375 16.075 13.9125C16.075 14.075 16.075 13.9125 16.1313 14.0938C16.1438 14.1375 16.1625 14.175 16.1875 14.2125H16.1563V14.3188L16.1438 14.4125L16.1375 14.425H16.0625L16.025 14.5063L16.05 14.5375C16.0125 14.575 15.9813 14.6125 15.9375 14.65C15.95 14.6875 15.9813 14.6688 16.0313 14.7063C16.1 14.7438 16.1688 14.7688 16.2438 14.7813C16.225 14.825 16.2125 14.875 16.2188 14.925C16.2188 15.0313 16.2188 14.925 16.275 15.0438C16.3313 15.1625 16.425 15.125 16.3875 15.2313C16.3625 15.2813 16.3688 15.3438 16.4 15.3875C16.4313 15.4063 16.4625 15.425 16.4938 15.45C16.5188 15.475 16.55 15.4938 16.5813 15.5063C16.5813 15.5063 16.6 15.55 16.7375 15.5438C16.875 15.5375 16.7 15.6 16.7813 15.5875C16.9875 15.625 17.2 15.625 17.4063 15.5875C17.5688 15.5688 17.5188 15.525 17.6938 15.5563C17.7875 15.575 17.6188 15.5813 17.95 15.6188C18.05 15.6313 18.0188 15.6438 18.1313 15.5938C18.1625 15.55 18.1938 15.5125 18.2313 15.4813C18.3 15.4625 18.2063 15.4125 18.3063 15.4188C18.3375 15.3188 18.3625 15.2188 18.3875 15.1125L18.4438 15L18.4875 14.8L18.5 14.7688C18.4125 14.6938 18.5563 14.4875 18.5563 14.4875C18.5563 14.4875 18.6438 14.6188 18.6563 14.4125C18.6625 14.2875 18.6188 14.1688 18.5438 14.0688C18.5188 13.9313 18.525 13.7875 18.575 13.65C18.6188 13.5438 18.6188 13.4188 18.5688 13.3125L18.525 12.8313L18.475 12.7188H18.5438L18.55 12.7125L18.575 12.65V12.5813H18.6438C18.6 12.5438 18.6188 12.4938 18.6688 12.4938C18.7188 12.4938 18.7188 12.4125 18.725 12.3938C18.7313 12.3688 18.7688 12.325 18.7813 12.275V12.2313C18.7813 12.2063 18.775 12.1875 18.7688 12.1625C18.7625 12.1313 18.7813 12.1063 18.7688 12.075C18.7563 12.0438 18.7563 12.0313 18.7625 12C18.7688 11.9688 18.7813 11.925 18.7625 11.8938C18.7438 11.8688 18.7375 11.925 18.6875 11.8938C18.6438 11.8625 18.6438 11.8563 18.6563 11.8375C18.6688 11.8125 18.7125 11.8375 18.7125 11.8375L18.725 11.7938L18.6875 11.7438C18.6688 11.7125 18.6563 11.675 18.65 11.6438C18.6375 11.6 18.6188 11.5563 18.6 11.5188L18.5438 11.4438C18.5875 11.3375 18.625 11.225 18.6563 11.1063L18.5813 11.1L18.65 10.825L18.6625 10.7938C18.6063 10.7125 18.5625 10.6188 18.55 10.5188C18.55 10.5188 18.5875 10.575 18.6188 10.5625L18.5938 10.5C18.5688 10.4688 18.5688 10.4563 18.5938 10.4563H18.6188L18.6 10.4125C18.575 10.3938 18.5563 10.375 18.5438 10.35L18.5313 10.2813L18.5188 10.2375C18.525 10.2188 18.5375 10.2 18.5563 10.2C18.6063 10.2 18.6063 10.075 18.6125 10.0438C18.6188 10.0125 18.6563 9.93126 18.6688 9.86251V9.80001C18.6625 9.76876 18.6563 9.73751 18.65 9.70626C18.6375 9.66251 18.6563 9.62501 18.65 9.57501C18.6375 9.53751 18.6313 9.50001 18.6375 9.46251C18.6375 9.45626 18.6375 9.44376 18.6375 9.43751L18.6438 9.40626L18.6375 9.38126V9.37501L18.6438 9.36251L18.6625 9.33751C18.675 9.31251 18.65 9.30626 18.6313 9.30001H18.625L18.6125 9.32501C18.6063 9.33126 18.5938 9.33751 18.575 9.32501C18.5625 9.30001 18.55 9.27501 18.5313 9.25001C18.5438 9.21876 18.5938 9.25001 18.5938 9.25001L18.6063 9.18126L18.5938 9.15001H18.6125C18.6188 9.12501 18.6063 9.09376 18.5813 9.08126L18.5875 9.05626V8.94376C18.5875 8.80626 18.8125 8.81251 18.8125 8.81251L18.7938 8.71876L18.825 8.64376C18.825 8.64376 18.8625 8.69376 18.8813 8.65626C18.9 8.61876 18.9 8.61876 18.8688 8.55626C18.8375 8.48751 18.8063 8.58751 18.8 8.54376C18.8 8.48126 18.8125 8.42501 18.8375 8.36876C18.85 8.35626 18.8375 8.35001 18.8375 8.32501C18.8375 8.30001 18.8563 8.29376 18.85 8.27501C18.85 8.26251 18.85 8.24376 18.85 8.23126L18.8625 8.20626C18.8813 8.18751 18.9375 8.18751 18.95 8.18126C18.975 8.16251 19.0063 8.16251 19.0313 8.18126C19.0688 8.21251 19.0938 8.21251 19.0813 8.17501L19.125 8.23126L19.1563 8.21251L19.2688 8.15626H19.2875L19.325 8.21251L19.4313 8.18751L19.4563 8.14376C19.5125 8.15001 19.5688 8.15626 19.625 8.17501L19.675 8.23126C19.6938 8.13751 19.725 8.04376 19.7688 7.95626C19.7938 7.91876 19.8188 7.88751 19.8438 7.86251L19.8625 7.84376C19.875 7.83126 19.8875 7.81876 19.8938 7.80001L19.9125 7.75626C19.9313 7.75626 19.9313 7.76251 19.9313 7.76251L19.9375 7.81251V7.82501H19.9438V7.78751C19.9438 7.73751 19.925 7.73751 19.9313 7.71876C19.9375 7.70001 19.9625 7.70626 19.975 7.71876C19.9875 7.73126 19.9875 7.71876 20.0063 7.70626C20.025 7.69376 20.0313 7.71876 20.0438 7.70626C20.0563 7.70001 20.0625 7.70001 20.075 7.69376C20.0813 7.69376 20.0875 7.70001 20.0938 7.70001C20.1063 7.71876 20.1125 7.73751 20.125 7.76251V7.77501C20.1313 7.78126 20.1625 7.80001 20.1625 7.83126C20.1813 7.82501 20.1938 7.81251 20.2125 7.80626C20.25 7.80626 20.2875 7.80626 20.325 7.81876C20.3563 7.83126 20.3875 7.83751 20.425 7.84376L20.4875 7.85001C20.5 7.86251 20.5063 7.87501 20.5125 7.89376C20.5125 7.89376 20.4625 7.91251 20.4688 7.93751C20.475 7.96251 20.475 7.96251 20.5313 7.95626C20.5875 7.95001 20.55 7.90001 20.5813 7.90626H20.5938C20.625 7.91876 20.6438 7.96251 20.6625 7.98751C20.675 8.01251 20.6938 8.01876 20.725 8.05001C20.7563 8.08126 20.7625 8.10626 20.7875 8.13751C20.8063 8.15626 20.825 8.17501 20.8438 8.19376V8.20001L20.8563 8.20626C20.8875 8.23751 20.9188 8.26876 20.9563 8.29376L21.0188 8.33126L21.0313 8.38751C21.0313 8.38751 20.975 8.38751 20.975 8.41251C20.975 8.43751 20.975 8.44376 21.0375 8.46251C21.1 8.48126 21.075 8.41251 21.1 8.43126C21.1313 8.46876 21.15 8.51251 21.1563 8.55626C21.1625 8.59376 21.1813 8.62501 21.2 8.65001C21.225 8.69376 21.2188 8.73126 21.2438 8.77501C21.2625 8.80001 21.275 8.83126 21.2875 8.86251L21.3 8.91876C21.3 8.98126 21.3 9.04376 21.2938 9.10626C21.2938 9.13751 21.3188 9.25626 21.275 9.27501C21.2313 9.28751 21.225 9.36251 21.275 9.41876L21.2063 9.43126L21.225 9.55626V9.66876V9.68126L21.15 9.69376L21.125 9.79376L21.15 9.83126C21.1188 9.88126 21.0875 9.92501 21.05 9.96876C21.0688 10.0188 21.0938 9.98751 21.15 10.0313C21.1813 10.0563 21.2188 10.0813 21.2625 10.0938C21.2563 10.1563 21.25 10.225 21.2438 10.2813L21.2688 10.4063C21.2938 10.5563 21.0813 10.5938 21.0813 10.5938L21.1188 10.6875L21.1063 10.775C21.1063 10.775 21.0563 10.7313 21.0438 10.775C21.0313 10.8188 21.0313 10.8188 21.0813 10.8875C21.125 10.9563 21.1313 10.8438 21.15 10.8875C21.1625 10.9563 21.1625 11.025 21.15 11.0875C21.1438 11.1375 21.15 11.1875 21.1625 11.2375C21.175 11.3063 21.1563 11.35 21.1625 11.4125C21.1688 11.4563 21.175 11.5 21.1813 11.5438V11.625C21.1688 11.7188 21.1313 11.825 21.125 11.8625C21.1188 11.9 21.125 12.0688 21.0688 12.075C21.0125 12.0813 21.0063 12.1875 21.0438 12.2563H20.975V12.4188L20.9563 12.5688L20.95 12.5875H20.875L20.8375 12.7125L20.8563 12.7688C20.8188 12.8313 20.7813 12.8875 20.7375 12.9438L20.6625 12.9625C20.7375 13.0813 20.8063 13.2063 20.8563 13.3313C20.8813 13.4125 20.9 13.4875 20.9125 13.575L20.925 13.6438C20.9313 13.6875 20.9438 13.7313 20.9563 13.775L20.9938 13.8688L20.9813 13.9563C20.9813 13.9563 20.95 13.9313 20.9313 13.9438C20.925 13.95 20.925 13.95 20.9188 13.9563C20.9125 13.9688 20.9125 13.9875 20.9188 14C20.9313 14.025 20.9438 14.0438 20.9563 14.0625C21 14.125 21.0063 14.0188 21.0313 14.0625C21.0438 14.1313 21.0438 14.2 21.0313 14.2625C21.025 14.3125 21.0313 14.3625 21.0438 14.4063C21.0563 14.475 21.0375 14.5188 21.0438 14.5875C21.05 14.6313 21.0563 14.675 21.0625 14.7188V14.8C21.05 14.875 21.025 14.9563 21.0188 15.0063L21.0125 15.0438C21.0125 15.1063 21 15.175 20.9813 15.2375L21.025 15.3375C21.05 15.4188 21.0688 15.4938 21.0813 15.575C21.0875 15.6438 21.1063 15.7063 21.125 15.775L21.1625 15.8688L21.15 15.9563C21.15 15.9563 21.1 15.9125 21.0875 15.9563C21.075 16 21.075 16 21.125 16.0688C21.1688 16.1375 21.175 16.0188 21.2 16.0688V16.0875C21.2063 16.15 21.2063 16.2125 21.2 16.275C21.1938 16.325 21.2 16.375 21.2125 16.4188C21.225 16.4875 21.2063 16.5313 21.2125 16.5938C21.2188 16.6375 21.225 16.6813 21.2313 16.725V16.7375V16.7563C21.2375 16.825 21.25 16.8875 21.275 16.95L21.3125 17.0438L21.3 17.1313C21.3 17.1313 21.25 17.0875 21.2438 17.1313C21.2375 17.175 21.2313 17.175 21.2813 17.2438C21.325 17.3125 21.3313 17.1938 21.35 17.2438C21.3625 17.3125 21.3625 17.3813 21.35 17.4438C21.3438 17.4938 21.35 17.5438 21.3625 17.5875C21.375 17.6563 21.3563 17.7 21.3625 17.7625C21.3688 17.8063 21.375 17.85 21.3813 17.8938V17.975C21.3688 18.0688 21.3313 18.175 21.325 18.2188C21.3188 18.2563 21.325 18.425 21.2688 18.4313C21.2125 18.4375 21.2063 18.5438 21.25 18.6188H21.175V18.7875L21.1563 18.9188L21.15 18.9375H21.075L21.0375 19.0688L21.0563 19.125C21.025 19.1813 20.9875 19.2438 20.9438 19.2938C20.9563 19.3563 20.9875 19.325 21.0375 19.3875C21.0938 19.45 21.1688 19.4938 21.2438 19.525C21.2188 19.6063 21.2125 19.6875 21.2188 19.7688C21.2188 19.9438 21.2188 19.7688 21.275 19.9688C21.3313 20.1688 21.4188 20.1063 21.3875 20.2813C21.3625 20.3688 21.3688 20.4625 21.4 20.5438C21.4313 20.575 21.4625 20.6125 21.4938 20.65C21.5188 20.6875 21.5438 20.7188 21.5813 20.75C21.5813 20.75 21.6 20.8188 21.7375 20.8063C21.875 20.7938 21.7 20.9 21.7813 20.8813C21.9875 20.9375 22.2063 20.9313 22.4063 20.8563C22.5688 20.8188 22.5188 20.75 22.6875 20.8C22.7813 20.825 22.6125 20.8375 22.9438 20.8938C23.0438 20.9063 23.0125 20.9313 23.125 20.8438C23.15 20.7875 23.1875 20.7313 23.225 20.6813C23.2938 20.6563 23.2 20.5688 23.3 20.5875C23.325 20.4563 23.3563 20.3188 23.375 20.1813L23.9375 19.8313L24.25 19.6688L24.8063 19.3125L24.9 19.2563C25.1375 19.0438 25.4063 18.8688 25.7 18.7375C25.7 18.7375 25.375 19.0813 25.9438 18.6875C26.2563 18.5 26.55 18.2875 26.8375 18.0625C26.8125 18.0625 27.5063 17.7125 27.7688 17.8188C27.8188 17.8625 27.875 17.8875 27.9375 17.8875C28.2 18.15 28.375 18.4938 28.425 18.8625C28.45 18.9563 28.4625 19.0438 28.475 19.1375L28.4063 19.1313L28.3938 19.15C28.3813 19.2063 28.3688 19.2563 28.3563 19.3063L28.3188 19.4938L28.25 19.475C28.2625 19.5688 28.2188 19.6875 28.1625 19.675C28.1063 19.6688 28.05 19.8438 28.0125 19.9L27.8313 20.1438L27.775 20.2313L27.7 20.3813C27.6625 20.4563 27.6125 20.4875 27.575 20.5625C27.5438 20.6188 27.5063 20.6688 27.4625 20.7063C27.375 20.7875 27.2938 20.8813 27.2188 20.9813C27.175 21.0563 27.3125 20.9125 27.275 21.0313C27.2313 21.15 27.2375 21.1438 27.175 21.2C27.1125 21.2563 27.1313 21.1625 27.1313 21.1625L27.0188 21.275L26.9313 21.425C26.8688 21.525 26.8 21.625 26.725 21.7188C26.6125 21.8625 26.525 22 26.475 22.075L26.3563 22.3L25.4625 23.1125L25.5188 23.1625L24.7875 23.85L24.7 23.925C24.5313 24.1938 24.3375 24.45 24.125 24.6938C24.125 24.6938 24.2375 24.525 24.175 24.5438V24.55L24.0375 24.7313C23.975 24.8313 23.95 24.8625 23.925 24.8438L23.9063 24.825L23.8125 24.95C23.7813 25.0188 23.7438 25.0813 23.7 25.1438L23.5438 25.325L23.2313 25.7125C23.1875 25.7375 23.1438 25.7688 23.1 25.8C23.0125 25.8688 23.0438 25.9188 23.0438 25.9188L23.2125 25.7875L22.6875 26.3438L22.55 26.3875C22.55 26.3875 22.5688 26.3063 22.5188 26.3563C22.4563 26.4063 22.4063 26.475 22.375 26.55L22.3875 26.5625L22.4 26.6188L21.9875 27.0188L21.8875 27.05L21.7563 27.1375L21.5625 27.3063C21.5188 27.3313 21.475 27.35 21.4313 27.3563L21.2563 27.5125L21.1688 27.625L21.1188 27.6563L21.0375 27.7188C20.9688 27.7688 20.9688 27.8125 20.975 27.8313V27.8438L21.15 27.7125C20.9813 27.9 20.9438 28.0625 20.7625 28.2563L20.6688 28.2875L20.625 28.3C20.625 28.3 20.6438 28.2188 20.5938 28.2688C20.5313 28.325 20.4813 28.3875 20.45 28.4688L20.4625 28.4813V28.5063L20.4688 28.5375C20.35 28.6563 20.2875 28.7938 20.1688 28.9063L20.1063 28.9688L20.0188 29.1938L19.8875 29.2875L19.7938 29.55C19.7563 29.575 19.7063 29.5938 19.6625 29.6063C19.575 29.6813 19.5813 29.8188 19.5313 29.8688L19.4125 29.9813C19.4375 30.1063 19.2813 30.0188 19.3375 30.1C19.3375 30.1 19.2313 30.1625 19.15 30.4688C19.0688 30.775 19.0938 30.7813 19.0938 30.7813C19.0813 30.8313 19.0813 30.8813 19.0938 30.9313C19.1125 31.0438 19.2375 31.0313 19.3625 30.9C19.4875 30.7688 19.5063 30.9625 19.5063 30.9625C19.5063 30.9625 19.5813 30.975 19.7313 30.8125C19.8813 30.65 19.7563 30.9438 19.6688 31.125C19.5875 31.3 19.7938 31.3313 19.8188 31.3625C19.8438 31.3938 19.8563 31.775 20.0563 31.6125C20.1938 31.5 20.3125 31.3688 20.425 31.2313C20.425 31.2313 20.475 31.4625 20.7375 31.2313L21 31.0063C21.3188 30.7313 21.725 30.3438 22.0875 30L22.2625 29.775C22.3563 29.6313 22.525 29.5563 22.6938 29.5938L22.8125 29.4188L22.9625 29.2875C22.9625 29.2875 22.925 29.3938 23.0063 29.3313C23.0813 29.2688 23.0813 29.2688 23.15 29.1375C23.2188 29.0063 23.0375 29.175 23.1 29.0875C23.1938 28.9688 23.3 28.8625 23.4188 28.7625C23.5 28.6875 23.575 28.6063 23.6438 28.525L23.9188 28.2438L24.1125 28.0188L24.2438 27.8875L24.6625 27.5438C24.7375 27.475 24.9875 27.2188 25.0313 27.2438C25.075 27.2688 25.25 27.1125 25.3375 26.9625L25.3875 27.0125L25.6438 26.7438L25.8875 26.5188L25.925 26.4938L25.975 26.5438L26.2 26.3625L26.275 26.2563C26.4 26.1813 26.525 26.1063 26.6313 26.0563L26.7188 26.075C26.85 25.8188 27 25.575 27.1563 25.3375L27.4938 24.9L27.5875 24.7813L27.7688 24.5438L27.8875 24.3625L28.0313 24.225C28.0313 24.225 28.0125 24.2938 28.0438 24.2813C28.0563 24.2813 28.0625 24.275 28.075 24.2625C28.1063 24.2438 28.1313 24.2125 28.15 24.1875C28.175 24.1438 28.1938 24.1063 28.2125 24.0563C28.275 23.9188 28.1 24.1 28.1625 24.0063C28.2563 23.8875 28.3625 23.7688 28.475 23.6625C28.55 23.5813 28.625 23.5 28.6875 23.4125C28.7875 23.2875 28.8688 23.225 28.9563 23.1125L29.1375 22.8813L29.2625 22.7438L29.6125 22.4188L29.6875 22.3438C29.7625 22.2625 29.9563 22.0063 30.0438 21.9188L30.1563 21.6625C30.2188 21.5313 30.3188 21.3063 30.4188 21.05C30.4938 20.8813 30.55 20.7 30.5875 20.5188C30.6063 20.4313 30.6188 20.3375 30.6313 20.25L30.7125 20.0063C30.7125 20.0063 30.7313 20.1438 30.7688 20.0188C30.6875 19.8875 30.7063 19.7813 30.6938 19.675Z" fill="#0041E6"/>
</g>
<defs>
<clipPath id="clip0_7664_50176">
<rect width="32" height="32" fill="white"/>
</clipPath>
</defs>
</svg>
