<svg width="32" height="32" viewBox="0 0 32 32" fill="none" xmlns="http://www.w3.org/2000/svg">
<g clip-path="url(#clip0_7664_50227)">
<path d="M31.975 16.075C31.9688 16.0375 31.8375 15.7937 31.775 15.5687C31.7875 15.4625 31.5563 15.2812 31.6625 15.2687C31.4188 14.8375 31.15 14.4062 30.8438 13.9687L30.5563 13.5062C30.3438 13.2312 30.1563 12.9562 29.9375 12.6875L29.8313 12.55C29.4813 12.2 29.1563 11.825 28.8563 11.4312C28.8563 11.4312 29.4313 11.8875 28.6625 11.1062C28.2063 10.6562 27.7063 10.2625 27.1563 9.925C27.1563 9.925 26.1375 9.1625 25.2375 8.53125C24.6875 8.1375 24.0875 7.8125 23.4563 7.575C22.5313 7.15 21.5688 6.8125 20.5875 6.55C20.3375 6.49375 20.1 6.4625 19.8688 6.41875L19.8813 6.35625L19.8313 6.3375L19.425 6.23125L18.9625 6.14375L18.975 6.075C18.7563 6.075 18.4688 6.01875 18.4625 5.96875C18.45 5.91875 18 5.8625 17.875 5.84375C17.75 5.825 17.4688 5.7625 17.1938 5.725L16.9625 5.70625H16.5938C16.4125 5.70625 16.2813 5.68125 16.0813 5.69375C15.8813 5.70625 15.825 5.7125 15.6625 5.70625C15.4688 5.69375 15.275 5.70625 15.0813 5.725C14.95 5.75 15.2625 5.74375 15.0813 5.79375C14.9813 5.83125 14.8813 5.85 14.775 5.84375C14.65 5.84375 14.775 5.7875 14.775 5.7875L14.5188 5.8L14.25 5.85625L13.6938 5.9625C13.4688 6 13.2438 6.05625 13.025 6.11875L12.6625 6.2375C12.0438 6.31875 11.4375 6.4375 10.8313 6.5875L10.85 6.65625C10.3563 6.78125 9.86252 6.925 9.38127 7.075L9.21877 7.11875C8.86252 7.31875 7.93752 7.7125 7.93752 7.7125C7.93752 7.7125 8.20002 7.575 8.10627 7.58125L8.09377 7.5875L7.80002 7.73125C7.65627 7.8125 7.59377 7.8375 7.58752 7.8125L7.57502 7.7875L7.36252 7.89375C7.27502 7.95625 7.18127 8.0125 7.08752 8.06875L6.75627 8.225C6.52502 8.34375 6.30002 8.4625 6.06877 8.59375C6.06877 8.59375 6.00002 8.6125 5.83127 8.6875C5.66252 8.7625 5.66252 8.825 5.66252 8.825L5.98752 8.68125C5.59377 8.89375 5.21877 9.14375 4.87502 9.425L4.66877 9.51875C4.66877 9.51875 4.71877 9.4125 4.63752 9.4875C4.54377 9.5625 4.46252 9.65 4.39377 9.75L4.40627 9.76875V9.83125L3.77502 10.4062L3.64377 10.4687L3.45627 10.6125L3.16877 10.875C3.11252 10.9187 3.05627 10.95 2.99377 10.9812L2.73752 11.2312L2.60627 11.3937L2.53752 11.45L2.42502 11.5562C2.33127 11.6437 2.31877 11.6937 2.31877 11.7187V11.7312L2.55627 11.5062C2.30627 11.7937 2.22502 12.0125 1.97502 12.325L1.86252 12.4L1.80627 12.4375C1.80627 12.4375 1.84377 12.3312 1.77502 12.4125C1.68752 12.5062 1.61877 12.6062 1.56877 12.725L1.58752 12.7375V12.7625V12.8C1.43127 12.9937 1.33752 13.2062 1.19377 13.4L1.11877 13.5062L1.00627 13.825L0.850018 14.0062L0.731268 14.3812C0.687518 14.4312 0.637518 14.475 0.581268 14.5125C0.487518 14.6562 0.487518 14.8312 0.431268 14.9125L0.318768 15.1C0.343768 15.2437 0.175018 15.2187 0.237518 15.2875C0.131268 15.4562 0.0687683 15.65 0.0500183 15.85C-0.0187317 16.275 0.0125183 16.2687 0.0125183 16.2687C1.82968e-05 16.3312 0.0062683 16.3937 0.0250183 16.4562C0.0500183 16.5687 0.156268 16.5062 0.268768 16.3312C0.331268 16.4625 0.400018 16.5875 0.481268 16.7125C0.481268 16.7125 0.218768 16.625 0.443768 17.0937L0.668768 17.5562C1.01252 18.2187 1.41252 18.85 1.85627 19.45L2.13127 19.7687C2.46877 20.15 2.41252 20.3812 2.41252 20.3812L2.65002 20.6L2.84377 20.8312C2.84377 20.8312 2.71252 20.75 2.80002 20.8687C2.87502 20.9687 2.96252 21.05 3.07502 21.1125C3.25002 21.2375 3.00002 20.9625 3.12502 21.0687C3.25002 21.1687 3.46877 21.4125 3.60002 21.5562C3.73127 21.6937 3.78127 21.7312 3.95627 21.8875L4.38752 22.2937L4.71252 22.5687L4.92502 22.7625C5.16252 22.975 5.41252 23.175 5.67502 23.35C5.90002 23.4687 6.11252 23.6 6.31877 23.75C6.48127 23.8937 6.68127 23.9875 6.88752 24.0312L6.86252 24.0937L7.38127 24.3062L7.82502 24.5L7.88127 24.5312L7.85627 24.5937L8.22502 24.775L8.40002 24.825L8.90002 25.1312L8.94377 25.2187C9.30002 25.275 9.71252 25.3562 10.175 25.4562L10.9625 25.6437L11.1813 25.6937C11.5 25.7625 11.6188 25.7812 11.6188 25.7812L11.9438 25.825L12.2375 25.9062C12.2375 25.9062 12.1438 25.9125 12.1813 25.9437C12.1938 25.95 12.2125 25.9625 12.225 25.9625C12.275 25.9812 12.3313 25.9937 12.3813 26C12.425 26 12.4875 26 12.5938 26.0062C12.8188 26.0062 12.4438 25.925 12.6063 25.9375C12.7688 25.95 13.1 26.0187 13.2938 26.0625C13.4563 26.0937 13.625 26.1125 13.7938 26.125C14.0313 26.15 14.1813 26.1812 14.4 26.1937L14.8438 26.2125L15.125 26.2312L15.825 26.2937L15.95 26.3C16.075 26.3125 16.4688 26.3 16.6125 26.3187L16.95 26.2625L17.7625 26.15C18.2813 26.0687 18.425 26.025 18.425 26.025L18.7438 25.9437L19.0438 25.9062C19.0438 25.9062 18.9 25.975 19.0563 25.9625C19.1813 25.95 19.3 25.9125 19.4125 25.8562C19.6188 25.7687 19.2438 25.8375 19.4 25.7875L19.4625 25.7687L20.075 25.6312C20.2375 25.6 20.4 25.5562 20.5563 25.5C20.7813 25.425 20.9313 25.4062 21.1375 25.3312L21.55 25.175L21.5875 25.1625L21.65 25.1375C22.1313 24.9437 22.2625 24.8687 22.2625 24.8687L22.55 24.7187L22.8313 24.6125C22.8313 24.6125 22.7125 24.7187 22.8563 24.6625C22.975 24.6312 23.0875 24.5687 23.1813 24.4875C23.3563 24.3562 23.0188 24.5125 23.15 24.425C23.2875 24.3437 23.5938 24.2125 23.7688 24.1312C23.9438 24.05 23.9938 24.0125 24.2 23.8937C24.4063 23.775 24.5375 23.7125 24.7188 23.6L25.0813 23.3625L25.3188 23.2187L26.0188 22.8187C26.2063 22.675 26.4125 22.55 26.6188 22.45C26.6688 22.475 26.95 22.2812 27.1188 22.0875L27.1625 22.1375C27.3063 22.025 27.4563 21.9062 27.5938 21.7812L27.9813 21.475L28.0313 21.4375L28.0813 21.4875L28.425 21.225L28.55 21.0812L29.0313 20.7562C29.1813 20.5875 29.075 20.65 29.2 20.4687C29.2938 20.3187 29.3563 20.1562 29.3875 19.9875C29.5875 19.8062 29.775 19.6125 29.9438 19.4062C30.3188 18.9625 29.9438 19.4062 30.3375 18.8625C30.7313 18.3187 30.525 18.4062 30.9063 17.9687C31.1 17.7437 31.2625 17.5062 31.4063 17.2437C31.4063 17.2437 31.5125 16.9562 31.5375 16.8937C31.5875 16.7875 31.625 16.6812 31.6563 16.5687C31.6563 16.5687 31.7625 16.3562 31.6375 16.3187C31.5875 16.3 31.6063 16.2625 31.6375 16.225C31.6688 16.2562 31.7375 16.2875 31.925 16.3C32.0125 16.2937 32.0188 16.3625 31.975 16.075ZM0.756268 15.9375L0.725018 15.9C0.762518 15.85 0.768768 15.875 0.756268 15.9375ZM11.575 23.1437L11.5563 23.2187C11.1188 23.0687 10.6875 22.9 10.2563 22.7312L10.1125 22.6687C9.67502 22.575 9.23752 22.45 8.81252 22.2937C8.81252 22.2937 9.10002 22.3687 9.02502 22.3125H9.01252L8.69377 22.2187C8.53752 22.1812 8.48127 22.1625 8.48752 22.1375L8.49377 22.1125L8.28127 22.05C8.18127 22.0375 8.08752 22.0187 7.99377 21.9937L7.68752 21.8812C7.47502 21.8062 7.27502 21.7312 7.08752 21.65L6.93127 21.5375C6.81877 21.4562 6.77502 21.4937 6.77502 21.4937L6.98752 21.6437C6.72502 21.525 6.47502 21.375 6.25002 21.1937C6.23127 21.1437 6.20627 21.0937 6.17502 21.05C6.17502 21.05 6.27502 21.0875 6.20627 21.0187C6.13127 20.9375 6.03752 20.8687 5.93752 20.8187L5.92502 20.8375H5.86252C5.66877 20.65 5.47502 20.4687 5.30002 20.2812L5.24377 20.1562L5.11252 19.9812L4.90002 19.7187C4.86252 19.6687 4.83752 19.6125 4.81877 19.5562L4.60627 19.3187L4.47502 19.1937L4.43127 19.1312L4.35627 19.025C4.28752 18.9312 4.24377 18.9187 4.22502 18.9187H4.21252L4.38127 19.1562C4.15002 18.9125 3.96252 18.8187 3.73127 18.5437L3.69377 18.4312L3.67502 18.375C3.67502 18.375 3.76252 18.4187 3.70627 18.35C3.64377 18.2625 3.56877 18.1812 3.48127 18.1125L3.46252 18.125H3.43752H3.40002C3.26252 17.95 3.11877 17.8187 2.99377 17.6375L2.93127 17.5437L2.69377 17.35L2.60002 17.1562L2.32502 16.925C2.30002 16.8687 2.28752 16.8062 2.28127 16.7437C2.21252 16.6062 2.06252 16.5437 2.01877 16.4625L1.91877 16.2687C1.78752 16.2312 1.89377 16.1 1.80627 16.1187C1.78752 16.0812 1.76877 16.0437 1.74377 16.0062C1.75002 16 1.75627 15.9875 1.76252 15.9812C1.85627 15.85 1.94377 15.725 2.03752 15.5937C2.36877 15.125 2.82502 14.5 3.26252 13.9687C3.32502 13.8687 3.40002 13.7687 3.48127 13.65C3.75627 13.275 3.99377 13.3125 3.99377 13.3125L4.15627 13.075L4.34377 12.8812C4.34377 12.8812 4.28752 13.0125 4.38752 12.9187C4.47502 12.85 4.54377 12.7562 4.58752 12.6562C4.69377 12.4875 4.45002 12.725 4.53752 12.6062C4.67502 12.45 4.81877 12.3 4.97502 12.1625C5.10627 12.0437 5.14377 12 5.29377 11.8375C5.44377 11.6812 5.55627 11.6 5.69377 11.4562L5.98127 11.175L6.16252 11.0187C6.32502 10.9062 6.50002 10.8125 6.67502 10.7312C6.78127 10.675 7.18127 10.4687 7.21877 10.5C7.25627 10.5375 7.52502 10.425 7.72502 10.2937L7.75002 10.3562L8.21252 10.1625L8.64377 10.0125L8.70002 10L8.72502 10.0625L9.11252 9.95L9.26877 9.86875C9.46252 9.83125 9.65002 9.8 9.81877 9.78125L9.90627 9.825C10.2313 9.625 10.575 9.44375 10.9188 9.28125C11.0625 9.21875 11.3125 9.11875 11.6 9.01875L11.7875 8.95625L12.1625 8.825L12.4313 8.71875L12.6938 8.66875C12.6938 8.66875 12.625 8.7125 12.6625 8.725H12.7063C12.75 8.71875 12.8 8.7125 12.8438 8.7C12.9 8.68125 12.9563 8.65625 13.0125 8.63125C13.1875 8.55 12.8625 8.6125 13 8.5625C13.1938 8.5125 13.3938 8.475 13.5938 8.45625L14.025 8.3875L14.075 8.38125C14.025 8.39375 13.9688 8.40625 13.9188 8.425L13.3063 8.60625L12.8188 8.80625C12.5875 8.88125 12.3625 8.9875 12.1563 9.125C12.0125 9.21875 12.3688 9.0375 12.1875 9.1875C12.0938 9.275 11.9875 9.35 11.8625 9.4C11.725 9.475 11.8313 9.35 11.8313 9.35C11.8313 9.35 11.7313 9.40625 11.5563 9.5125L11.2938 9.73125C11.2938 9.73125 11.1688 9.83125 10.7688 10.1937C10.5625 10.3875 10.3688 10.5937 10.1938 10.8187C10.1 10.9437 10.0125 11.075 9.93127 11.2062C9.40002 11.775 8.96877 12.4312 8.65627 13.1437L8.72502 13.1687C8.45627 13.7625 8.26252 14.3875 8.15002 15.025L8.11252 15.2375C8.11252 15.5 8.11877 15.9625 8.13752 16.3562L8.21877 17.075C8.21877 17.075 8.15002 16.6937 8.13127 16.8125V16.8312C8.15627 16.975 8.16877 17.1187 8.20002 17.2625C8.26252 17.475 8.28127 17.55 8.25627 17.5562H8.23127L8.30627 17.8437L8.45002 18.2062L8.57502 18.6125C8.67502 18.8875 8.78752 19.1625 8.89377 19.4375L8.97502 19.7062C9.03752 19.9 9.10002 19.9062 9.10002 19.9062L8.98127 19.5375C9.15627 19.9687 9.36252 20.3875 9.59377 20.7937L9.66877 21.0312C9.66877 21.0312 9.56252 20.9375 9.63127 21.0562C9.70627 21.1937 9.79377 21.3125 9.90627 21.425L9.92502 21.4125L10 21.4375C10.2125 21.7375 10.45 22.025 10.7125 22.2875L10.8063 22.45C10.8688 22.5312 10.9438 22.6062 11.025 22.6812L11.425 23.0125C11.4938 23.0812 11.5375 23.125 11.5688 23.15H11.575V23.1437ZM15.6313 21.9437C15.2688 21.9562 14.9125 21.9437 14.5563 21.9062C14.4313 21.9062 14.3063 21.9 14.175 21.8875C13.725 21.8062 13.6688 21.5875 13.6688 21.5875L13.4125 21.525C13.3375 21.4937 13.2563 21.4625 13.1875 21.4187C13.1875 21.4187 13.3188 21.4312 13.2125 21.3687C13.1313 21.3062 13.0438 21.2687 12.9438 21.25C12.7688 21.2 13.0313 21.3562 12.9063 21.3062C12.7375 21.225 12.5813 21.1125 12.4438 20.9812C12.3125 20.8875 12.2875 20.8312 12.1313 20.7C12.0063 20.5812 11.8938 20.4437 11.7938 20.3062C11.7063 20.2125 11.625 20.1125 11.5563 20L11.425 19.7875C11.3125 19.5625 11.2188 19.3312 11.1313 19.0937C11.0813 18.9625 10.8938 18.4937 10.9375 18.45C10.9813 18.4062 10.875 18.1062 10.7813 17.875L10.8438 17.8562C10.8 17.6875 10.7375 17.5 10.7125 17.3437L10.65 16.9125C10.65 16.8937 10.65 16.875 10.65 16.8562L10.7188 16.85L10.725 16.4812L10.6938 16.325L10.8125 15.8312L10.8875 15.775C10.8375 15.425 10.8438 15.0687 10.8938 14.7125C10.9375 14.4812 11 14.2625 11.0813 14.0437L11.1438 13.8625L11.3 13.5125C11.3313 13.425 11.3688 13.3375 11.4188 13.2562L11.575 13.0437C11.575 13.0437 11.5563 13.125 11.5875 13.1062C11.6 13.1 11.6125 13.0875 11.6188 13.075C11.65 13.0375 11.675 13 11.7 12.9625C11.7188 12.9312 11.7438 12.8875 11.7875 12.8062C11.875 12.6375 11.6563 12.8812 11.7313 12.7625C11.8438 12.5937 11.9813 12.4437 12.1375 12.3125C12.2625 12.1937 12.2938 12.1437 12.4563 12.0125C12.5875 11.8937 12.7313 11.7937 12.875 11.6937C12.975 11.6125 13.0813 11.5375 13.1938 11.4687L13.4125 11.3562C13.5938 11.2687 13.7813 11.2 13.9813 11.1437L14.0875 11.1125C14.2688 11.05 14.45 11.0062 14.6375 10.975C14.725 10.9375 14.8188 10.9 14.9125 10.8687C15.1375 10.7937 15.375 10.75 15.6125 10.725L16.2 10.675C16.2938 10.6625 16.3938 10.6625 16.4875 10.6625L16.75 10.7062C16.75 10.7062 16.6 10.7375 16.7313 10.7625C16.8375 10.7875 16.9438 10.8 17.0563 10.7937C17.25 10.7937 16.925 10.7187 17.0688 10.725L17.125 10.7312C17.3125 10.7625 17.4938 10.8125 17.6625 10.8812C17.825 10.9375 17.8813 10.95 18.0813 11.0312C18.25 11.0937 18.4125 11.175 18.5688 11.2687C18.6875 11.3187 18.8063 11.3812 18.9188 11.45L18.95 11.4687L19.0063 11.5C19.1438 11.575 19.2813 11.6625 19.4125 11.7562L19.5188 11.8312C19.6 11.8875 19.6875 11.9375 19.7688 11.9937L19.9563 12.2C19.9563 12.2 19.825 12.1375 19.9188 12.2375C20.0063 12.3437 20.0125 12.3312 20.1688 12.4562C20.325 12.5812 20.1125 12.3125 20.2188 12.4125C20.3688 12.5625 20.4938 12.7312 20.6063 12.9125C20.6938 13.0687 20.75 13.1 20.8625 13.2875C20.975 13.475 21.0313 13.6062 21.1188 13.7812L21.2875 14.15C21.3188 14.2312 21.3438 14.3125 21.3625 14.3937C21.425 14.6375 21.4688 14.8812 21.4938 15.1312C21.5438 15.3437 21.55 15.5625 21.525 15.7812C21.4813 15.9687 21.475 16.1562 21.5125 16.3437H21.4438C21.4375 16.5125 21.425 16.675 21.4 16.8375C21.3813 16.9812 21.35 17.125 21.3063 17.2687L21.2875 17.325L21.2188 17.3062C21.1875 17.425 21.1438 17.5437 21.0875 17.6562L21.0563 17.8187C20.9813 17.9687 20.8875 18.1062 20.7813 18.2375C20.7188 18.4187 20.7938 18.3437 20.7438 18.525C20.7063 18.6812 20.6938 18.8375 20.7125 18.9937L20.2688 19.575C19.925 19.975 20.2875 19.5937 19.9 20.0625C19.5063 20.5312 19.6688 20.4687 19.2188 20.7687C18.9688 20.9187 18.8375 21 18.5188 21.2C18.4375 21.2812 18.3438 21.3562 18.2438 21.4187C18.15 21.475 18.0563 21.5437 17.975 21.6187C17.975 21.6187 17.8563 21.6687 17.825 21.7437C17.6688 21.8 17.5625 21.8437 17.5625 21.8437C17.5625 21.8437 17.7063 21.625 17.1938 21.7125L16.6813 21.8C16.3563 21.8875 16 21.8937 15.6313 21.9437ZM16.7938 23.6437L16.55 23.6625L16.6313 23.6312C16.7125 23.6375 16.7563 23.6437 16.7938 23.6437ZM29.1938 17.0625L28.85 17.4187C28.6375 17.6437 28.4375 17.875 28.2188 18.0937L28.1125 18.2C27.8375 18.55 27.5125 18.8562 27.1563 19.1125C27.1563 19.1125 27.5563 18.6062 26.8563 19.2687C26.1563 19.9312 25.6438 20.4375 25.6438 20.4375C25.1063 20.8812 24.5313 21.2625 23.9188 21.5875C23.0688 22.0187 22.3813 22.4125 22.3813 22.4125C21.5938 22.8 20.775 23.1187 19.9375 23.3687L19.3375 23.575L19.3188 23.5125H19.275L18.925 23.5687L18.5313 23.6437L18.5188 23.575C18.3438 23.6437 18.1 23.6687 18.075 23.625C17.9063 23.6062 17.7375 23.6125 17.5688 23.6375C17.475 23.65 17.2188 23.6375 16.9938 23.6375H16.9188C17.0938 23.5875 17.225 23.4875 17.3313 23.4625L17.6 23.4062C17.7 23.2812 17.8125 23.425 17.8188 23.325C17.9625 23.2875 18.1 23.2312 18.225 23.1437L18.5563 23.0875C18.675 23.1125 18.9563 22.9 18.9375 23.0062C19.5313 22.7875 20.0938 22.4812 20.6063 22.1062C20.7875 21.975 20.9813 21.8562 21.15 21.7125C21.4688 21.4312 21.7688 21.125 22.0438 20.8C22.0938 20.75 22.1375 20.6937 22.175 20.6375C22.2938 20.4062 22.5563 20.0375 22.7625 19.6875C22.8938 19.4812 23.0188 19.2625 23.125 19.0437C23.1188 19.0375 22.8563 19.925 23.375 18.65C23.5688 18.1062 23.6813 17.5375 23.7 16.9687C23.725 16.7375 23.7188 16.5125 23.6875 16.2812C23.6938 15.9562 23.675 15.6375 23.6375 15.3187C23.5625 14.6562 23.425 14.0062 23.225 13.375C23.0438 12.8062 22.7813 12.2687 22.4313 11.7875C22.3 11.575 22.1375 11.3812 21.9625 11.2062C21.15 10.2375 20.1063 9.48125 18.9313 9.0125C18.65 8.90625 18.3563 8.825 18.0625 8.75625L18.0813 8.69375L18.025 8.66875C17.8625 8.60625 17.6938 8.575 17.525 8.53125C17.3375 8.4875 17.1438 8.45625 16.9563 8.43125L16.9625 8.3625C16.8438 8.3625 16.725 8.35625 16.6 8.34375L16.8063 8.31875C16.9563 8.31875 17.225 8.3125 17.525 8.33125L18.1125 8.3625L18.4 8.375L18.6625 8.43125C18.6625 8.43125 18.525 8.45625 18.65 8.4875C18.7563 8.525 18.8625 8.53125 18.975 8.51875C19.1688 8.51875 18.8438 8.44375 18.9875 8.45L19.0438 8.45625C19.225 8.4875 19.4063 8.525 19.5875 8.58125C19.75 8.63125 19.8125 8.63125 20.0188 8.6875L20.5313 8.8375L20.9063 8.94375L20.9438 8.95625L21 8.975L21.575 9.14375L21.8563 9.21875L22.1 9.3375C22.1 9.3375 21.9563 9.325 22.075 9.3875C22.175 9.44375 22.2813 9.48125 22.3938 9.49375C22.5875 9.5375 22.2875 9.3875 22.425 9.43125C22.6188 9.50625 22.8063 9.59375 22.9813 9.7C23.1125 9.775 23.2438 9.8375 23.3813 9.9C23.575 9.99375 23.6813 10.0812 23.8563 10.1687C23.975 10.225 24.0875 10.2875 24.2 10.3562L24.4125 10.4937C24.6563 10.6562 24.8938 10.875 24.9938 10.9437C25.0938 11.0125 25.4938 11.3125 25.4813 11.3625C25.4688 11.4125 25.7063 11.6062 25.9125 11.725L25.8688 11.775C26 11.8812 26.1313 11.9875 26.2563 12.0937L26.5813 12.4L26.6188 12.4437L26.5688 12.5L26.825 12.7875L26.9625 12.8875C27.0688 13.0375 27.175 13.1875 27.25 13.3187C27.4 13.45 27.3438 13.35 27.5125 13.4625C27.6438 13.55 27.7938 13.6125 27.95 13.6437C27.95 13.6437 28.075 13.8062 28.4188 14.2062C28.7688 14.6062 28.4188 14.2062 28.85 14.6437C29.2813 15.0812 29.2313 14.9062 29.525 15.35C29.6625 15.5812 29.825 15.8062 30 16.0062L30.0313 16.0375C29.7625 16.3687 29.4875 16.7062 29.1938 17.0625Z" fill="#0041E6"/>
<path d="M16.6875 19.9062C16.775 19.8812 16.8563 19.8687 16.9438 19.8625C17.0063 19.8562 17.0625 19.8375 17.1187 19.8062C17.2 19.7687 17.2562 19.775 17.3312 19.7375L17.4688 19.6687L17.5562 19.6312L17.8312 19.5562C17.8812 19.5375 18.0438 19.4437 18.0688 19.4812C18.0938 19.5187 18.2063 19.4625 18.2563 19.3812L18.2938 19.4375L18.45 19.325L18.5938 19.2312L18.6187 19.225L18.6625 19.2812L18.8125 19.2L18.85 19.1375L19.0875 19.05C19.1375 18.975 19.0875 18.9875 19.1125 18.8937C19.125 18.8 19.1187 18.7125 19.0812 18.625C19.1625 18.5562 19.2313 18.475 19.2875 18.3812C19.3688 18.2437 19.3438 18.2875 19.3438 18.25C19.3688 18.2375 19.3875 18.225 19.4062 18.2062C19.425 18.1625 19.4437 18.125 19.4625 18.0875C19.4875 18.0562 19.5063 18.0187 19.5125 17.975C19.5125 17.975 19.5687 17.925 19.5 17.8125C19.4313 17.7 19.5938 17.8 19.5438 17.7437C19.525 17.6875 19.5063 17.6375 19.475 17.5875C19.5125 17.4937 19.525 17.3937 19.5125 17.2937C19.5125 17.2937 19.45 17.1562 19.4438 17.1312C19.4313 17.075 19.4 17.0312 19.3625 16.9875C19.3625 16.9875 19.3437 16.8937 19.2125 16.9125C19.0812 16.9312 19.2375 16.7937 19.1625 16.8187C19.1125 16.8125 19.0687 16.8125 19.0187 16.8187L18.9937 16.7687C18.975 16.7125 18.9375 16.6625 18.8875 16.625C18.8563 16.6062 18.825 16.5875 18.8 16.5625C18.7625 16.5062 18.7687 16.6 18.7375 16.5125C18.6625 16.5062 18.5937 16.5062 18.5187 16.5125L18.425 16.4812L18.2625 16.4687H18.2375C18.1937 16.5562 18.0063 16.45 18.0063 16.45C18.0063 16.45 18.1 16.3562 17.9375 16.3625C17.8375 16.3687 17.7438 16.4125 17.6688 16.4812C17.5563 16.5062 17.4437 16.4937 17.3438 16.4437C17.2812 16.3937 17.1937 16.3812 17.1187 16.4187C17.0062 16.4062 16.9875 16.4187 16.9562 16.4125C16.9375 16.425 16.925 16.4312 16.9062 16.4437L16.9438 16.3875V16.3812V16.3562L16.925 16.3375L16.9688 16.2875C16.9125 16.2875 16.8875 16.2437 16.9188 16.2125C16.95 16.175 16.8938 16.125 16.8875 16.1062C16.875 16.0875 16.8688 16.0312 16.85 15.9937L16.8312 15.9625C16.8187 15.95 16.8 15.9437 16.7812 15.9375C16.7562 15.925 16.7563 15.9 16.7313 15.8875C16.7063 15.875 16.7 15.8687 16.6875 15.85C16.675 15.8312 16.6625 15.7937 16.6375 15.7937C16.6125 15.7937 16.6375 15.8125 16.5875 15.825C16.5375 15.8375 16.5375 15.8375 16.5375 15.8125C16.5375 15.7937 16.5812 15.775 16.5812 15.775L16.575 15.7437H16.5312C16.5062 15.7375 16.4812 15.7312 16.4625 15.7187C16.4375 15.7062 16.4125 15.6937 16.3813 15.6875H16.3125C16.3125 15.6312 16.325 15.5812 16.35 15.5312L16.2812 15.5562C16.2875 15.5312 16.3 15.5062 16.325 15.4937C16.3125 15.4937 16.3 15.4937 16.2875 15.4937C16.2563 15.45 16.2313 15.4 16.2188 15.35C16.2188 15.35 16.2562 15.3937 16.2812 15.3812L16.2563 15.3312C16.2313 15.3062 16.2313 15.3 16.2563 15.3H16.2812L16.2625 15.2687C16.2438 15.2562 16.2187 15.2375 16.2062 15.2187L16.1875 15.1687L16.1375 15.0562C16.15 15.05 16.1563 15.0375 16.1625 15.025C16.175 15 16.125 14.9937 16.125 14.9937C16.125 14.9937 16.1063 15.0187 16.1 15.0312C16.0875 14.9875 16.0875 14.9375 16.1 14.8937L16.1625 14.8875C16.1625 14.8875 16.2 14.9062 16.2062 14.9C16.2125 14.8937 16.1875 14.8562 16.1875 14.8562H16.1688L16.125 14.8375C16.1375 14.8062 16.15 14.775 16.1688 14.75H16.2188L16.2563 14.7375L16.2938 14.7062H16.3563L16.3813 14.675V14.65H16.3937L16.4125 14.6437C16.4313 14.6375 16.4125 14.6187 16.3937 14.6125H16.3875L16.3438 14.6312C16.3563 14.5875 16.2938 14.525 16.3188 14.4875L16.3625 14.4937H16.3875C16.3875 14.4937 16.4187 14.525 16.425 14.5187C16.4312 14.5062 16.425 14.4625 16.425 14.4625L16.4062 14.45L16.3937 14.4375H16.375C16.3937 14.4125 16.375 14.3625 16.3937 14.3375L16.4062 14.325L16.3625 14.2375L16.4062 14.2312L16.3563 14.125C16.375 14.125 16.4 14.1312 16.4188 14.1375C16.4375 14.125 16.3875 14.05 16.4 14.0437L16.4312 14.025C16.3687 13.95 16.5 14.05 16.4312 13.9875C16.4312 13.9875 16.475 13.9875 16.4188 13.85C16.4063 13.7937 16.3813 13.7437 16.35 13.6937C16.3375 13.6625 16.325 13.6312 16.3062 13.6062C16.2625 13.5375 16.1875 13.5 16.15 13.525C16.1125 13.55 16.0438 13.4375 16.0438 13.4375C16.0125 13.4187 15.975 13.425 15.95 13.45C15.9062 13.5 15.8938 13.3625 15.8938 13.2875C15.8938 13.2125 15.7562 13.1187 15.7312 13.0937C15.7062 13.0687 15.5938 12.825 15.5063 12.8625C15.45 12.8875 15.4 12.9312 15.3687 12.9875C15.3687 12.9875 15.2687 12.825 15.1562 12.9L15.0437 12.9687C14.95 13.0375 14.8625 13.1125 14.7875 13.2C14.7563 13.1875 14.7187 13.1875 14.6812 13.2L14.5 13.2687C14.2437 13.3937 14.0125 13.5687 13.8188 13.7812L13.7375 13.925C13.6813 14.025 13.5625 14.0687 13.4563 14.0375L13.425 14.1625L13.3562 14.2562C13.3562 14.2562 13.3375 14.1812 13.3062 14.2312C13.2687 14.2812 13.2687 14.2812 13.275 14.375C13.2812 14.4687 13.3437 14.3375 13.3375 14.4062C13.3125 14.4875 13.2813 14.5687 13.2375 14.6437C13.2125 14.7 13.1938 14.7562 13.1875 14.8187C13.1687 14.9 13.1375 14.95 13.1313 15.0312C13.125 15.0875 13.125 15.125 13.1125 15.1875L13.0875 15.2812L12.9937 15.55C12.9812 15.6 12.9625 15.7875 12.9187 15.7875C12.875 15.7875 12.8437 15.9125 12.8875 16H12.7937V16.1937L12.7812 16.3687L12.775 16.3937H12.7063L12.6812 16.55L12.7063 16.6125L12.625 16.8437L12.5625 16.8812C12.65 17.0062 12.7375 17.15 12.8313 17.3L12.9625 17.575L13 17.65C13.025 17.7 13.0562 17.75 13.0875 17.7937L13.1625 17.8937L13.2 18C13.2 18 13.1562 17.9812 13.15 18V18.0187C13.15 18.0375 13.1625 18.0562 13.175 18.075C13.1938 18.0937 13.2188 18.1125 13.2375 18.1312C13.3125 18.1812 13.2563 18.0562 13.3 18.1C13.35 18.1687 13.3938 18.2437 13.425 18.325C13.45 18.3812 13.4875 18.4312 13.5312 18.475C13.5875 18.5437 13.6 18.6 13.6562 18.6562L13.7688 18.775L13.8313 18.8562L13.9688 19.075L13.9937 19.1125C14.05 19.1687 14.1 19.2375 14.15 19.3L14.2688 19.35C14.325 19.3812 14.425 19.4312 14.5312 19.4937C14.6 19.5375 14.6688 19.575 14.75 19.6L14.8625 19.6312L14.9438 19.6937C14.9438 19.6937 14.875 19.7062 14.9125 19.7437C14.95 19.7812 14.95 19.7812 15.0375 19.7812C15.125 19.7812 15.0125 19.7125 15.0688 19.725L15.0875 19.7312C15.1437 19.75 15.2188 19.8062 15.3 19.8437C15.3688 19.8812 15.4375 19.9062 15.5125 19.9187C15.5937 19.95 15.6813 19.975 15.7688 19.9937L15.9625 20.0187H15.9812H16.0125C16.1063 20.0312 16.2062 20.025 16.3 20L16.4312 19.9687H16.55C16.55 19.9687 16.4937 20.0187 16.55 20.025C16.6062 20.0312 16.6125 20.0312 16.6938 19.9812C16.775 19.9187 16.625 19.9312 16.6875 19.9062Z" fill="#0041E6"/>
</g>
<defs>
<clipPath id="clip0_7664_50227">
<rect width="32" height="32" fill="white"/>
</clipPath>
</defs>
</svg>
