<svg width="32" height="32" viewBox="0 0 32 32" fill="none" xmlns="http://www.w3.org/2000/svg">
<g clip-path="url(#clip0_7664_50208)">
<path d="M16.025 15.9875L15.975 16.0125C15.9938 16.0062 16.0063 16 16.025 15.9875Z" fill="#0041E6"/>
<path d="M16.0062 16.0062C16.0062 16 16 15.9937 15.9937 15.9875L16.0062 16.0187V16.0062Z" fill="#0041E6"/>
<path d="M16.0188 15.9937C16.0063 16 15.9938 16 15.9875 16.0062H16L16.0188 15.9937Z" fill="#0041E6"/>
<path d="M31.975 11.05C31.9 10.975 32.0625 10.9875 31.975 10.95C31.975 10.95 32.0312 10.8813 31.9625 10.6562C31.8937 10.4313 31.8687 10.4312 31.8687 10.4312C31.8687 10.4312 31.8687 10.4 31.8062 10.3313C31.7437 10.2625 31.65 10.3 31.6063 10.4187C31.5625 10.5375 31.4625 10.4125 31.4625 10.4125H31.4562C31.4562 10.3938 31.4312 10.375 31.3375 10.3125C31.3062 10.3 31.275 10.2938 31.2437 10.2875C31.1938 10.2125 31.075 10.2312 31.0438 10.2188C31.0125 10.2063 30.8375 9.95 30.75 10.1125C30.7437 10.125 30.7375 10.1375 30.7313 10.15L29.875 10.0875L29.5438 10.0375L28.925 9.99375L28.825 9.98125C28.5563 10.0125 28.2812 10 28.0187 9.94375C28.0187 9.93125 28.0187 9.91875 28.0187 9.90625C28.075 9.8875 28.1062 9.86875 27.9937 9.85L27.9875 9.8375L27.9375 9.4875C27.925 9.45625 27.9062 9.43125 27.8875 9.40625H27.95L27.9562 9.4L27.975 9.35V9.3125H28.0438C28.0063 9.2875 28.0187 9.25625 28.0625 9.25C28.1063 9.24375 28.1062 9.19375 28.1125 9.18125C28.1312 9.15625 28.15 9.13125 28.1625 9.1V9.075C28.1625 9.0625 28.1562 9.04375 28.1437 9.03125C28.1375 9.0125 28.15 8.99375 28.1437 8.975C28.1375 8.95 28.125 8.95 28.1313 8.925C28.1375 8.90625 28.15 8.875 28.1313 8.8625C28.1125 8.85 28.1063 8.88125 28.0625 8.8625C28.0187 8.84375 28.0187 8.84375 28.0312 8.83125C28.0438 8.81875 28.0875 8.83125 28.0875 8.83125C28.0938 8.81875 28.0938 8.8125 28.1 8.8L28.0688 8.76875C28.05 8.75 28.0375 8.73125 28.025 8.70625C28.0125 8.68125 27.9937 8.65 27.975 8.63125C27.9563 8.61875 27.9375 8.60625 27.9188 8.5875C27.9563 8.51875 27.9875 8.44375 28.0125 8.36875H27.9438L28 8.1875L28.0125 8.16875C27.9625 8.125 27.9188 8.06875 27.9062 8C27.9062 8 27.9375 8.0375 27.9688 8.025L27.9438 7.9875C27.925 7.96875 27.9188 7.9625 27.9438 7.9625H27.9688L27.95 7.9375C27.9313 7.93125 27.9125 7.91875 27.8937 7.9L27.875 7.85625L27.8312 7.76875C27.8438 7.7625 27.85 7.75 27.8563 7.74375C27.8688 7.725 27.8188 7.71875 27.8188 7.71875L27.7938 7.75625C27.7812 7.7125 27.775 7.66875 27.775 7.61875L27.8375 7.59375C27.8375 7.59375 27.875 7.60625 27.8813 7.59375C27.8875 7.5625 27.85 7.55 27.85 7.55H27.8312H27.7875C27.7875 7.5125 27.7937 7.48125 27.8 7.45L27.8438 7.43125L27.875 7.4L27.8937 7.35625C27.9125 7.34375 27.9313 7.3375 27.95 7.33125C27.9563 7.3125 27.9562 7.3 27.9625 7.2875L27.95 7.2625L27.9625 7.25L27.975 7.23125C27.9875 7.21875 27.9563 7.2125 27.9438 7.2125H27.9375L27.9125 7.25C27.9 7.20625 27.8188 7.18125 27.8188 7.1375L27.8563 7.11875L27.875 7.1125C27.875 7.1125 27.9125 7.125 27.9188 7.1125C27.9188 7.08125 27.8875 7.06875 27.8875 7.06875H27.8687H27.85H27.8125C27.8125 7.0375 27.7687 7.0125 27.775 6.9875V6.975L27.6938 6.9375L27.725 6.90625L27.625 6.8625C27.6437 6.85 27.6625 6.84375 27.6812 6.8375C27.6875 6.81875 27.6 6.8 27.6063 6.7875L27.6125 6.7625C27.5187 6.75 27.675 6.74375 27.5875 6.7375C27.5875 6.7375 27.6125 6.71875 27.4937 6.675C27.4937 6.64375 27.5 6.6125 27.5187 6.58125C27.5562 6.49375 27.5688 6.65 27.6562 6.34375C27.6812 6.25 27.7063 6.28125 27.6 6.175C27.525 6.15 27.45 6.11875 27.3813 6.08125C27.35 6.01875 27.2375 6.1 27.2563 6.0125C27.0562 5.98125 26.85 5.95625 26.6375 5.93125L26.4188 5.88125L26.0063 5.83125L25.9375 5.81875C25.7375 5.84375 25.5375 5.825 25.3438 5.75625C25.3438 5.75625 25.6313 5.68125 25.2 5.6625C24.9438 5.65 24.6875 5.68125 24.4438 5.75C24.1313 5.76875 23.8188 5.75625 23.5063 5.70625C23.2437 5.6625 22.975 5.6625 22.7125 5.70625L21.5187 5.75C21.4187 5.7625 21.325 5.78125 21.2313 5.8V5.725L21.2125 5.71875L21.05 5.7H20.8687V5.63125C20.7875 5.66875 20.675 5.65625 20.6625 5.6125C20.6562 5.56875 20.4812 5.56875 20.4312 5.5625C20.3813 5.55625 20.2688 5.525 20.1625 5.5125H20.0625C20.0063 5.5125 19.975 5.51875 19.9188 5.525C19.85 5.53125 19.8 5.51875 19.7188 5.525C19.6625 5.5375 19.6125 5.5375 19.5562 5.5375C19.4812 5.525 19.4062 5.525 19.3312 5.5375C19.2812 5.55625 19.4 5.5625 19.3312 5.6C19.2625 5.64375 19.2625 5.64375 19.2125 5.63125C19.1625 5.61875 19.2125 5.575 19.2125 5.575C19.2125 5.575 19.175 5.56875 19.1125 5.5625L19.0125 5.59375C18.9438 5.6125 18.8688 5.625 18.7938 5.63125C18.7063 5.64375 18.6125 5.6625 18.525 5.68125C18.475 5.7 18.425 5.71875 18.375 5.7375C18.1437 5.7 17.9 5.66875 17.6375 5.64375V5.7125L17.025 5.65625L16.9562 5.64375C16.7687 5.7 16.5688 5.7375 16.375 5.74375C16.375 5.74375 16.5 5.7125 16.4625 5.68125H16.4562L16.3188 5.70625C16.25 5.725 16.225 5.73125 16.225 5.70625V5.68125L16.125 5.70625C16.0875 5.73125 16.0438 5.75 16 5.7625L15.8562 5.775L15.5562 5.81875C15.525 5.80625 15.4937 5.8 15.4625 5.79375C15.3937 5.78125 15.3875 5.83125 15.3875 5.83125L15.5188 5.8625C15.3688 5.86875 15.2125 5.88125 15.0562 5.88125L14.9812 5.81875C14.9812 5.81875 15.025 5.78125 14.9812 5.775C14.9312 5.76875 14.8812 5.78125 14.8375 5.80625V5.825L14.8125 5.875C14.6938 5.875 14.5813 5.86875 14.4688 5.85625L14.4125 5.8125L14.3188 5.78125L14.1625 5.7625C14.1313 5.75 14.1062 5.73125 14.0875 5.70625C14.0312 5.7 13.9875 5.7 13.9438 5.69375L13.8625 5.70625C13.85 5.7 13.8375 5.7 13.825 5.69375C13.8062 5.6875 13.7875 5.68125 13.7625 5.68125C13.7125 5.66875 13.6938 5.69375 13.6875 5.7125V5.71875L13.8188 5.75C13.6688 5.75625 13.5813 5.8375 13.425 5.8375L13.3687 5.8L13.3438 5.78125C13.3438 5.78125 13.3875 5.74375 13.3438 5.7375C13.3062 5.73125 13.2688 5.7375 13.2312 5.75C13.225 5.73125 13.2125 5.71875 13.2 5.70625C13.1375 5.6625 13.0562 5.65 12.9812 5.675C12.9 5.64375 12.8375 5.58125 12.8 5.5C12.775 5.425 12.7125 5.375 12.6313 5.375L12.3687 5.2125L12.2812 5.2L12.325 5.15V5.14375L12.3062 5.1L12.275 5.06875L12.3188 5.01875C12.275 5.03125 12.2625 5 12.2937 4.96875C12.325 4.9375 12.2938 4.90625 12.2875 4.8875C12.2875 4.85625 12.2812 4.83125 12.275 4.8L12.2625 4.78125C12.25 4.775 12.2375 4.76875 12.225 4.7625C12.2063 4.75625 12.2063 4.73125 12.1875 4.725C12.1687 4.71875 12.1562 4.71875 12.15 4.7C12.1437 4.68125 12.1312 4.65 12.1062 4.65625C12.0813 4.65625 12.1062 4.6875 12.0562 4.7C12.0062 4.7125 12.0125 4.7125 12.0125 4.7C12.0125 4.6875 12.05 4.6625 12.05 4.6625L12.0375 4.63125H11.9937C11.9688 4.63125 11.9438 4.625 11.925 4.6125C11.8938 4.6 11.8625 4.59375 11.8313 4.5875H11.7625C11.7437 4.50625 11.7125 4.425 11.6812 4.35L11.625 4.4L11.5312 4.2125L11.525 4.1875C11.45 4.18125 11.375 4.15625 11.3125 4.1125C11.3125 4.1125 11.3687 4.11875 11.375 4.09375L11.325 4.075C11.2937 4.075 11.2875 4.06875 11.3 4.05L11.3188 4.03125L11.2812 4.01875C11.2563 4.025 11.2312 4.025 11.2125 4.01875L11.1687 3.99375L11.0688 3.94375C11.0688 3.93125 11.0688 3.9125 11.0688 3.9C11.0625 3.875 11.0188 3.90625 11.0188 3.90625L11.0312 3.9625C10.9875 3.93125 10.9437 3.89375 10.9 3.85L10.9187 3.7875C10.9187 3.7875 10.9563 3.76875 10.95 3.75625C10.9375 3.7375 10.9125 3.73125 10.8875 3.7375L10.875 3.75L10.8375 3.775L10.7437 3.675L10.7625 3.625L10.7563 3.56875L10.725 3.5125C10.725 3.49375 10.7312 3.46875 10.7375 3.45L10.7063 3.40625L10.675 3.39375V3.375L10.6687 3.35C10.6625 3.33125 10.6375 3.34375 10.625 3.35L10.6187 3.35625L10.6375 3.4125C10.5875 3.38125 10.5125 3.41875 10.4625 3.38125L10.4688 3.3375V3.3125C10.4688 3.3125 10.5062 3.29375 10.4937 3.28125C10.475 3.2625 10.45 3.25625 10.4312 3.26875L10.4187 3.2875L10.4062 3.3L10.3875 3.31875C10.3562 3.29375 10.3062 3.30625 10.275 3.275L10.2625 3.26875L10.1687 3.30625L10.1562 3.2625L10.05 3.30625C10.05 3.2875 10.05 3.2625 10.0562 3.24375C10.0375 3.21875 9.96875 3.28125 9.9625 3.26875L9.9375 3.24375C9.875 3.3125 9.95 3.175 9.9 3.24375C9.9 3.24375 9.9 3.2 9.76875 3.275C9.75625 3.2875 9.75625 3.2875 9.74375 3.29375C9.7375 3.28125 9.7375 3.26875 9.74375 3.2625L9.2875 3.18125L9.125 3.125L8.81875 3.075L8.76875 3.0625C8.65 3.1375 8.3375 2.99375 8.3375 2.99375C8.3375 2.99375 8.55 2.91875 8.2375 2.9C8.05 2.8875 7.85625 2.91875 7.68125 2.98125C7.45 3 7.21875 2.98125 6.99375 2.93125C6.8 2.88125 6.6 2.88125 6.4125 2.93125L5.5375 2.96875L5.325 3.01875V2.9375L5.30625 2.93125L5.1875 2.9125H5.05625V2.85C4.99375 2.8875 4.9125 2.875 4.90625 2.83125C4.9 2.7875 4.775 2.7875 4.7375 2.775C4.7 2.76875 4.61875 2.7375 4.54375 2.725L4.475 2.71875C4.4375 2.71875 4.40625 2.725 4.375 2.73125C4.325 2.7375 4.2875 2.725 4.23125 2.73125C4.19375 2.74375 4.15 2.74375 4.1125 2.7375C4.05625 2.725 4 2.725 3.95 2.7375C3.9125 2.75625 4 2.7625 3.95 2.80625C3.9 2.85 3.9 2.85 3.8625 2.8375C3.825 2.825 3.8625 2.78125 3.8625 2.78125L3.7875 2.76875L3.7125 2.8C3.6625 2.81875 3.60625 2.83125 3.55 2.8375C3.48125 2.85 3.41875 2.8625 3.35625 2.8875L3.25 2.94375C2.925 2.89375 2.59375 2.8625 2.2625 2.85L2.2875 2.91875C2.025 2.91875 1.7625 2.95625 1.50625 3.03125L1.425 3.05625C1.25 3.2 1.0875 3.3625 0.94375 3.5375C0.94375 3.5375 1.01875 3.40625 0.96875 3.41875V3.425C0.9375 3.475 0.9 3.51875 0.875 3.5625C0.84375 3.6375 0.83125 3.6625 0.8125 3.65L0.79375 3.6375L0.75625 3.7375L0.75 3.89375L0.7125 4.05C0.6875 4.16875 0.675 4.29375 0.68125 4.41875C0.6625 4.45 0.65 4.4875 0.6375 4.51875C0.625 4.5625 0.64375 4.6125 0.675 4.6375C0.68125 4.5875 0.69375 4.53125 0.7125 4.48125L0.725 5.08125L0.6625 5.16875C0.6625 5.16875 0.625 5.10625 0.61875 5.1625C0.6125 5.23125 0.61875 5.29375 0.64375 5.35625H0.6625L0.70625 5.38125C0.7 5.46875 0.6875 5.55 0.675 5.6375L0.625 5.675L0.5875 5.7375L0.5625 5.8375C0.54375 5.85625 0.525 5.875 0.5 5.8875L0.48125 5.9875L0.4875 6.05L0.475 6.08125L0.4375 6.13125C0.425 6.15 0.43125 6.175 0.45 6.1875C0.45 6.1875 0.45625 6.1875 0.45625 6.19375H0.4625L0.5 6.09375C0.5 6.20625 0.575 6.275 0.56875 6.39375L0.53125 6.4375L0.5125 6.45625C0.5125 6.45625 0.475 6.41875 0.46875 6.45625C0.45625 6.49375 0.46875 6.5375 0.4875 6.56875H0.50625L0.525 6.575L0.55 6.5875C0.54375 6.6625 0.58125 6.73125 0.575 6.8125V6.85L0.6 6.8875C0.6 6.925 0.59375 6.95625 0.5875 6.99375C0.55 7.3375 0.525 7.8 0.50625 8.20625C0.5125 8.275 0.525 8.35 0.53125 8.43125C0.55625 8.575 0.4875 8.71875 0.35625 8.78125L0.39375 8.95625C0.39375 9.05625 0.38125 9.11875 0.38125 9.11875C0.38125 9.11875 0.3375 9.0375 0.325 9.11875C0.3125 9.1875 0.325 9.25625 0.35625 9.3125C0.4 9.43125 0.40625 9.225 0.41875 9.3125C0.43125 9.4375 0.43125 9.5625 0.41875 9.68125C0.4125 9.76875 0.41875 9.85625 0.43125 9.95C0.4375 10.075 0.425 10.1562 0.43125 10.275C0.4375 10.3625 0.44375 10.4187 0.45 10.5125V10.6625C0.4375 10.8375 0.40625 11.025 0.4 11.1C0.39375 11.175 0.4 11.4688 0.35 11.4812C0.3 11.4937 0.29375 11.6813 0.33125 11.8188H0.28125V12.1187L0.2625 12.3875L0.25625 12.425H0.1875L0.15 12.6562L0.16875 12.7563C0.1375 12.875 0.1 12.9812 0.06875 13.075L0 13.1187C0.075 13.3375 0.1375 13.5625 0.18125 13.7937C0.19375 13.8875 0.21875 14.05 0.2375 14.2312C0.2375 14.2812 0.24375 14.3125 0.25 14.35C0.26875 14.525 0.28125 14.5875 0.28125 14.5875L0.31875 14.7625C0.3125 14.8625 0.30625 14.925 0.30625 14.925C0.30625 14.925 0.275 14.875 0.25625 14.9C0.25 14.9062 0.25 14.9187 0.25 14.925C0.24375 14.9563 0.24375 14.9812 0.25 15.0125C0.25625 15.05 0.26875 15.0875 0.2875 15.125C0.33125 15.2437 0.3375 15.0375 0.35 15.125C0.3625 15.25 0.3625 15.375 0.35 15.4937C0.35 15.5812 0.35 15.6687 0.3625 15.7625C0.36875 15.8875 0.35625 15.9688 0.3625 16.0875C0.36875 16.175 0.375 16.2313 0.38125 16.325V16.475C0.375 16.6125 0.35 16.7563 0.3375 16.8438C0.3375 16.8687 0.33125 16.8938 0.33125 16.9125C0.33125 17.0312 0.325 17.15 0.3 17.2625C0.3125 17.325 0.33125 17.3813 0.34375 17.4438C0.35625 17.5375 0.38125 17.7 0.4 17.8813C0.40625 18 0.41875 18.1187 0.44375 18.2375L0.475 18.4125C0.475 18.5125 0.4625 18.575 0.4625 18.575C0.4625 18.575 0.41875 18.4938 0.40625 18.575C0.39375 18.6438 0.40625 18.7125 0.4375 18.7687C0.48125 18.8812 0.4875 18.6812 0.50625 18.7687V18.8C0.5125 18.9125 0.5125 19.025 0.50625 19.1375C0.50625 19.225 0.50625 19.3125 0.51875 19.4062C0.53125 19.5312 0.5125 19.6125 0.51875 19.7313C0.525 19.8188 0.53125 19.875 0.5375 19.9688V19.9875V20.025C0.54375 20.1437 0.55625 20.2625 0.58125 20.3813L0.61875 20.5562C0.61875 20.6562 0.60625 20.7188 0.60625 20.7188C0.60625 20.7188 0.5625 20.6375 0.55 20.7188C0.5375 20.7875 0.55 20.8563 0.58125 20.9125C0.625 21.0312 0.63125 20.825 0.64375 20.9125C0.65625 21.0375 0.65625 21.1625 0.64375 21.2812C0.64375 21.3687 0.64375 21.4562 0.65625 21.55C0.6625 21.675 0.65 21.7563 0.65625 21.875C0.6625 21.9625 0.66875 22.0187 0.675 22.1125V22.2625C0.6625 22.4375 0.63125 22.625 0.625 22.7C0.61875 22.775 0.625 23.0687 0.575 23.0812C0.525 23.0938 0.51875 23.2812 0.55625 23.4188H0.50625V23.7188L0.4875 23.9875L0.48125 24.0187H0.4125L0.375 24.25L0.39375 24.35C0.3625 24.4625 0.33125 24.5625 0.29375 24.6562C0.30625 24.775 0.3375 24.7125 0.38125 24.8312C0.425 24.9312 0.4875 25.0187 0.575 25.0875C0.55625 25.2312 0.55 25.3813 0.55 25.525C0.55 25.8438 0.55 25.525 0.6 25.8875C0.65 26.25 0.7375 26.1437 0.7 26.4625C0.675 26.625 0.68125 26.7875 0.7125 26.9438C0.74375 27.0063 0.775 27.075 0.8 27.1437C0.81875 27.2062 0.84375 27.2687 0.88125 27.3312C0.89375 27.3562 0.90625 27.3813 0.925 27.4C0.9 27.4438 0.88125 27.4938 0.86875 27.5438C0.84375 27.7625 0.9125 27.9812 1.0625 28.1437C1.125 28.2188 1.20625 28.2812 1.2875 28.3375C1.3625 28.3875 1.44375 28.4312 1.53125 28.4562C1.53125 28.4562 1.4625 28.475 1.45625 28.525C1.45 28.5625 1.51875 28.7125 1.94375 28.7375L2.275 28.7687C2.675 28.8 3.2125 28.8125 3.6875 28.8188L3.95 28.7938C4.275 28.7688 4.3625 28.9562 4.3625 28.9562L4.56875 28.9188L4.75625 28.925C4.75625 28.925 4.6625 28.975 4.75625 28.9813C4.83125 28.9938 4.9125 28.9813 4.9875 28.9438C5.11875 28.9 4.8875 28.9 4.9875 28.875C5.13125 28.8625 5.275 28.8562 5.41875 28.8687C5.51875 28.8687 5.625 28.8688 5.725 28.8563L6.1 28.85L6.375 28.8312H6.55L7.0625 28.875C7.15625 28.875 7.49375 28.875 7.50625 28.925C7.51875 28.975 7.7375 28.9813 7.89375 28.9438V29.0125H8.24375L8.55 29.0312L8.5875 29.0375V29.1063L8.85625 29.1375L8.975 29.1187C9.10625 29.15 9.2375 29.1875 9.34375 29.2188L9.4 29.2875C9.65625 29.2125 9.91875 29.15 10.1875 29.1063C10.2937 29.0938 10.4812 29.0688 10.7 29.0562L10.8375 29.0438L11.1125 29.0125L11.3188 28.9813L11.5063 28.9937C11.5063 28.9937 11.45 29.0188 11.475 29.0375C11.4813 29.0438 11.4938 29.05 11.5063 29.05C11.5375 29.0562 11.575 29.0562 11.6062 29.05C11.65 29.0437 11.6938 29.0312 11.7375 29.0125C11.875 28.9688 11.6375 28.9625 11.7375 28.95C11.8813 28.9375 12.025 28.9375 12.1687 28.95C12.2688 28.9563 12.375 28.95 12.475 28.9375H12.85L13.125 28.925H13.3L13.7312 28.9688L13.8062 28.975C13.9437 28.975 14.0813 28.9875 14.2188 29.0063L14.4312 28.9625C14.5437 28.95 14.7313 28.925 14.9438 28.9125C15.0813 28.9062 15.225 28.8937 15.3625 28.875L15.5688 28.8438L15.7563 28.8563C15.7563 28.8563 15.6625 28.9 15.7563 28.9125C15.8375 28.925 15.9125 28.9188 15.9875 28.8813C16.125 28.8375 15.8875 28.8312 15.9875 28.8125H16.025C16.1562 28.8062 16.2875 28.8062 16.4188 28.8125C16.5188 28.8188 16.625 28.8125 16.725 28.8062H17.1063L17.3813 28.7875H17.4062H17.45C17.775 28.7625 17.8687 28.75 17.8687 28.75L18.075 28.7188L18.2625 28.7313C18.2625 28.7313 18.1688 28.775 18.2625 28.7875C18.3438 28.8 18.4187 28.7875 18.4937 28.7563C18.6313 28.7125 18.3937 28.7063 18.4937 28.6938C18.6375 28.6812 18.7812 28.6812 18.925 28.6938C19.025 28.6938 19.1313 28.6938 19.2313 28.6812H19.6125L19.8875 28.6625H20.0625L20.575 28.7062C20.6688 28.7062 21.0063 28.7063 21.025 28.7563C21.0375 28.8062 21.2563 28.8125 21.4188 28.775V28.8438H21.775L22.0875 28.8563L22.125 28.8625V28.9312L22.3937 28.9625L22.5125 28.9438C22.6438 28.975 22.7625 29.0063 22.875 29.0438C23.0125 29.0312 22.9375 29 23.0812 28.9562C23.1937 28.9125 23.3 28.8438 23.3813 28.7625C23.55 28.7812 23.725 28.7875 23.8937 28.775C24.2625 28.7687 23.8938 28.775 24.3188 28.7188C24.7437 28.6625 24.625 28.5813 24.9937 28.6063C25.1812 28.625 25.3687 28.6187 25.5562 28.5812C25.6313 28.55 25.7063 28.5187 25.7875 28.4937C25.8625 28.475 25.9375 28.4438 26 28.4062C26 28.4062 26.15 28.3875 26.125 28.2625C26.1 28.1375 26.3188 28.2875 26.2875 28.2188C26.3 28.2 26.3062 28.1812 26.3125 28.1625C26.325 28.175 26.3312 28.175 26.3438 28.1875C26.4188 28.2437 26.3875 28.2625 26.525 28.175C26.575 28.1 26.6313 28.0312 26.6875 27.9625C26.7625 27.9438 26.7188 27.7938 26.7875 27.8438L27.075 27.1812L27.2 26.9562L27.3875 26.5187L27.4188 26.4438C27.4625 26.2125 27.55 26 27.6812 25.8062C27.6812 25.8062 27.6562 26.15 27.8188 25.675C27.9188 25.3937 27.975 25.1062 27.9937 24.8062C28.0812 24.4562 28.2063 24.1125 28.3563 23.7812C28.4938 23.5063 28.5812 23.2062 28.625 22.9L28.9937 21.5625L29.0438 21.2313L29.1063 21.25L29.1187 21.2313L29.1938 21.0562L29.2563 20.85L29.3188 20.8687C29.3125 20.7687 29.3625 20.6437 29.4062 20.65C29.45 20.6562 29.5063 20.4625 29.5312 20.4062C29.5562 20.35 29.625 20.2375 29.6688 20.125L29.7062 20.025C29.7188 19.9688 29.7312 19.9187 29.7375 19.8625C29.75 19.7812 29.7875 19.7312 29.8062 19.6437C29.8125 19.5812 29.8313 19.5187 29.85 19.4625C29.8875 19.3813 29.9125 19.3 29.925 19.2125C29.925 19.15 29.875 19.2812 29.8625 19.1938C29.8438 19.1 29.85 19.1062 29.875 19.05C29.9 18.9937 29.9312 19.0688 29.9312 19.0688L29.975 18.9688V18.8438C29.9813 18.7563 29.9938 18.675 30.0125 18.5875C30.0312 18.4875 30.05 18.3813 30.0562 18.2812V18.1C30.1687 17.85 30.2875 17.5875 30.4 17.3125L30.3312 17.2938L30.5938 16.6313L30.625 16.5625C30.6313 16.3375 30.6688 16.1062 30.7188 15.8875C30.7188 15.8875 30.7125 16.0312 30.75 16V15.9937L30.775 15.8313C30.775 15.75 30.7812 15.7188 30.8062 15.7312L30.8312 15.7375L30.8438 15.625C30.8375 15.575 30.8312 15.5188 30.8375 15.4688L30.875 15.3L30.9375 14.9563C30.9625 14.925 30.9812 14.8938 30.9937 14.8625C31.0312 14.7937 30.9813 14.7625 30.9813 14.7625L30.9125 14.9L31.0562 14.3813L31.1375 14.3125C31.1375 14.3125 31.1625 14.375 31.175 14.325C31.2 14.275 31.2063 14.2125 31.1938 14.1562L31.175 14.15L31.1375 14.1187L31.2687 13.7375L31.3312 13.6875L31.3937 13.5938L31.4625 13.4312C31.4812 13.4 31.5125 13.3813 31.5438 13.3625L31.6063 13.2063L31.625 13.1125L31.65 13.075L31.6875 13.0125C31.7125 12.9563 31.6938 12.9312 31.6875 12.9187L31.6812 12.9125L31.6125 13.05C31.6562 12.8813 31.6125 12.7625 31.6625 12.5875L31.7188 12.5437L31.75 12.5188C31.75 12.5188 31.775 12.575 31.7875 12.5312C31.8125 12.475 31.8188 12.4187 31.8062 12.3625L31.7875 12.3562L31.775 12.3438L31.7563 12.3188C31.7938 12.2063 31.7812 12.1 31.8188 11.9937L31.8375 11.9375L31.8 11.7688L31.8625 11.675L31.8188 11.475C31.8375 11.4438 31.8687 11.425 31.9 11.4062C31.9312 11.3313 31.8688 11.2437 31.8875 11.2L31.975 11.05ZM2.5375 6.56875C2.525 6.41875 2.725 6.39375 2.725 6.39375L2.7 6.3L2.71875 6.2125C2.71875 6.2125 2.75625 6.2625 2.775 6.2125C2.79375 6.1625 2.7875 6.16875 2.75 6.1C2.7125 6.03125 2.7 6.14375 2.6875 6.1C2.68125 6.03125 2.6875 5.9625 2.7 5.89375C2.70625 5.84375 2.70625 5.79375 2.7 5.74375C2.7 5.66875 2.71875 5.625 2.7125 5.55625C2.7125 5.51875 2.7 5.525 2.7 5.5V5.475C2.7125 5.44375 2.75 5.425 2.75625 5.4125C2.7625 5.4 2.7625 5.35625 2.80625 5.375C2.85 5.4 2.86875 5.38125 2.825 5.3375L2.8875 5.38125V5.34375C2.89375 5.3375 2.9 5.33125 2.9125 5.33125H2.91875L2.98125 5.3875L3.025 5.40625V5.39375C3.0625 5.425 3.1 5.45625 3.125 5.49375L3.175 5.55625C3.13125 5.50625 3.1 5.44375 3.0875 5.38125C3.0875 5.3625 3.09375 5.34375 3.1 5.33125L3.10625 5.31875C3.1125 5.30625 3.11875 5.3 3.11875 5.2875L3.13125 5.25625L3.15 5.26875V5.3125V5.325H3.15625C3.15625 5.325 3.15 5.3125 3.18125 5.2875C3.24375 5.24375 3.1375 5.2375 3.18125 5.21875C3.25 5.20625 3.31875 5.20625 3.3875 5.21875C3.4375 5.225 3.4875 5.21875 3.53125 5.2125C3.6 5.20625 3.64375 5.225 3.70625 5.2125C3.75 5.20625 3.79375 5.20625 3.83125 5.20625H3.9125C3.98125 5.21875 4.05 5.23125 4.11875 5.25L4.15625 5.25625C4.21875 5.2625 4.2875 5.275 4.34375 5.3L4.44375 5.2625C4.51875 5.24375 4.6 5.225 4.68125 5.2125C4.75 5.20625 4.8125 5.19375 4.875 5.175L4.96875 5.14375L5.05625 5.15625C5.05625 5.15625 5.0125 5.2 5.05625 5.2125C5.1 5.225 5.1 5.225 5.1625 5.18125C5.225 5.1375 5.11875 5.13125 5.1625 5.11875H5.18125C5.24375 5.1125 5.30625 5.1125 5.3625 5.11875C5.4125 5.125 5.4625 5.11875 5.50625 5.1125C5.575 5.10625 5.61875 5.11875 5.68125 5.1125C5.725 5.10625 5.76875 5.1 5.80625 5.1H5.81875H5.8375C5.90625 5.09375 5.96875 5.08125 6.03125 5.0625L6.125 5.03125L6.2125 5.04375C6.2125 5.04375 6.16875 5.0875 6.2125 5.1C6.25625 5.1125 6.25625 5.1125 6.31875 5.06875C6.38125 5.025 6.275 5.01875 6.31875 5.00625C6.3875 4.99375 6.45625 4.99375 6.525 5.00625C6.575 5.0125 6.625 5.00625 6.66875 5C6.7375 4.99375 6.78125 5.00625 6.84375 5C6.8875 4.99375 6.93125 4.9875 6.96875 4.9875H7.05C7.14375 5 7.25 5.0375 7.2875 5.04375C7.325 5.05 7.49375 5.05 7.49375 5.1C7.49375 5.14375 7.59375 5.1625 7.675 5.11875V5.1875H7.8375L7.98125 5.20625L7.99375 5.21875V5.2875L8.11875 5.325L8.175 5.30625C8.23125 5.3375 8.2875 5.36875 8.3375 5.40625C8.4 5.39375 8.36875 5.3625 8.43125 5.325C8.49375 5.275 8.5375 5.20625 8.575 5.1375C8.65 5.1625 8.73125 5.16875 8.8125 5.16875C8.9875 5.16875 8.8125 5.16875 9.0125 5.11875C9.05 5.1125 9.0875 5.09375 9.125 5.075L9.11875 5.0875H9.1625L9.175 5.11875C9.175 5.11875 9.1375 5.14375 9.1375 5.1625C9.14375 5.18125 9.1375 5.18125 9.1875 5.1625C9.2375 5.14375 9.20625 5.1125 9.23125 5.1125C9.25625 5.1125 9.275 5.14375 9.2875 5.1625C9.3 5.18125 9.30625 5.18125 9.33125 5.19375C9.35625 5.20625 9.35625 5.225 9.38125 5.2375C9.4 5.24375 9.4125 5.25 9.425 5.2625L9.44375 5.2875C9.45625 5.31875 9.4625 5.35625 9.46875 5.3875C9.475 5.40625 9.51875 5.45 9.4875 5.48125C9.45625 5.5125 9.475 5.55 9.51875 5.54375L9.46875 5.5875L9.5125 5.63125L9.5375 5.6875L9.4875 5.73125L9.49375 5.79375H9.525C9.51875 5.8375 9.50625 5.875 9.49375 5.91875L9.45 5.96875C9.525 5.95625 9.60625 5.95625 9.68125 5.96875C9.71875 5.98125 9.75 5.99375 9.78125 6.0125L9.80625 6.025C9.825 6.0375 9.84375 6.04375 9.86875 6.05L9.91875 6.05625L9.9375 6.09375C9.9375 6.09375 9.90625 6.10625 9.9 6.11875V6.13125C9.9 6.14375 9.9 6.15 9.9125 6.15H9.95625C10.0063 6.14375 9.975 6.1 10.0063 6.10625C10.0375 6.1125 10.0563 6.15 10.0688 6.175C10.0813 6.2 10.0938 6.2 10.1187 6.21875C10.1437 6.2375 10.15 6.2625 10.175 6.28125C10.1938 6.29375 10.2125 6.3 10.2312 6.3125L10.25 6.33125C10.2625 6.3625 10.275 6.4 10.2875 6.43125L10.2937 6.45C10.3 6.46875 10.3375 6.50625 10.3375 6.5375L10.4 6.54375C10.4437 6.55625 10.4812 6.575 10.5188 6.59375C10.55 6.6125 10.5875 6.625 10.6187 6.6375L10.675 6.65L10.7 6.6875C10.7 6.6875 10.65 6.70625 10.6625 6.725C10.6688 6.75 10.6688 6.75 10.725 6.7375C10.7812 6.725 10.7375 6.6875 10.7688 6.6875H10.775C10.8 6.70625 10.825 6.725 10.8375 6.75625C10.8562 6.78125 10.8687 6.78125 10.9 6.8C10.9312 6.81875 10.9375 6.84375 10.9688 6.8625C10.9875 6.86875 11.0063 6.88125 11.0312 6.89375H11.0437C11.075 6.9125 11.1125 6.925 11.1438 6.925H11.2L11.225 6.9625C11.225 6.9625 11.1812 6.98125 11.1875 7.00625C11.1938 7.03125 11.2 7.03125 11.25 7.0125C11.3 7 11.2625 6.9625 11.2937 6.9625C11.325 6.9625 11.3562 7 11.375 7.025C11.3938 7.04375 11.4062 7.04375 11.4375 7.0625C11.4688 7.08125 11.475 7.10625 11.5063 7.1125C11.525 7.11875 11.55 7.125 11.5688 7.1375L11.6 7.1625C11.6063 7.16875 11.6125 7.18125 11.6187 7.19375C11.575 7.28125 11.5063 7.425 11.625 7.45C11.675 7.4625 11.725 7.4625 11.7688 7.4625L11.75 7.49375L11.8188 7.5375L11.8687 7.59375V7.60625L11.8313 7.66875L11.8687 7.73125H11.9C11.9062 7.775 11.9125 7.81875 11.9187 7.8625C11.9563 7.8625 11.9563 7.8375 12 7.8125C12.0562 7.78125 12.1062 7.7375 12.15 7.69375H12.1625C12.1813 7.725 12.2125 7.75 12.2437 7.7625C12.3187 7.80625 12.2438 7.7625 12.35 7.76875C12.3875 7.76875 12.425 7.75625 12.4625 7.7375L12.5188 7.76875C12.525 7.76875 12.525 7.76875 12.5312 7.78125C12.5562 7.81875 12.6 7.84375 12.65 7.83125C12.6687 7.81875 12.6875 7.8 12.7063 7.7875C12.8625 7.8 13.025 7.8125 13.175 7.825C13.225 7.81875 13.2812 7.8125 13.3438 7.80625C13.4625 7.79375 13.5687 7.8625 13.6062 7.975L13.7312 7.94375C13.8062 7.95 13.85 7.95625 13.85 7.95625C13.85 7.95625 13.7875 8 13.85 8.0125C13.9125 8.025 13.9125 8.025 13.9937 7.98125C14.075 7.9375 13.9312 7.93125 13.9937 7.9125C14.0875 7.9 14.175 7.9 14.2688 7.9125C14.3375 7.91875 14.4 7.9125 14.4688 7.90625C14.5625 7.9 14.625 7.9125 14.7125 7.90625C14.775 7.9 14.8125 7.89375 14.8875 7.8875H15C15.1313 7.9 15.2688 7.93125 15.325 7.9375C15.3812 7.94375 15.6 7.94375 15.6062 7.9875C15.6125 8.03125 15.75 8.05 15.8562 8.00625V8.075H16.0812L16.2812 8.09375L16.3062 8.1V8.175L16.475 8.2125L16.55 8.19375C16.6312 8.225 16.7125 8.2625 16.7875 8.3L16.8188 8.36875C16.9813 8.29375 17.15 8.2375 17.3188 8.19375C17.3875 8.18125 17.5062 8.15625 17.6437 8.14375C17.6812 8.14375 17.7063 8.1375 17.7313 8.13125C17.7875 8.125 17.85 8.1125 17.9062 8.1L18.0375 8.06875C18.1125 8.075 18.1562 8.08125 18.1562 8.08125C18.1562 8.08125 18.1188 8.10625 18.1375 8.125C18.1438 8.13125 18.15 8.13125 18.1562 8.1375C18.175 8.14375 18.2 8.14375 18.2188 8.1375C18.25 8.13125 18.275 8.11875 18.3 8.1C18.3875 8.05625 18.2375 8.05 18.3 8.0375C18.3937 8.025 18.4813 8.025 18.575 8.0375C18.6438 8.04375 18.7062 8.0375 18.775 8.025C18.8687 8.01875 18.9312 8.03125 19.0187 8.025C19.0812 8.01875 19.1187 8.0125 19.1938 8.0125H19.3062C19.4062 8.01875 19.5125 8.04375 19.5812 8.05625L19.6313 8.0625C19.7188 8.0625 19.8062 8.075 19.8937 8.09375C19.9375 8.08125 19.9812 8.0625 20.025 8.05C20.0938 8.0375 20.2125 8.0125 20.35 8C20.4375 7.99375 20.5312 7.98125 20.6187 7.9625L20.75 7.93125C20.825 7.9375 20.8687 7.94375 20.8687 7.94375C20.8687 7.94375 20.8062 7.9875 20.8687 8C20.9312 8.0125 20.9313 8.0125 21.0125 7.96875C21.1 7.925 20.95 7.91875 21.0125 7.9H21.0375C21.1187 7.89375 21.2063 7.89375 21.2875 7.9C21.3563 7.90625 21.4187 7.9 21.4875 7.89375C21.5812 7.8875 21.6438 7.9 21.725 7.89375C21.7875 7.8875 21.825 7.88125 21.9 7.875H21.9188H21.9438C22.0312 7.86875 22.1187 7.85625 22.2062 7.8375L22.3375 7.80625C22.4125 7.8125 22.4562 7.81875 22.4562 7.81875C22.4562 7.81875 22.3937 7.8625 22.4562 7.875C22.5187 7.8875 22.5188 7.8875 22.6 7.84375C22.6875 7.8 22.5375 7.79375 22.6 7.78125C22.6938 7.76875 22.7812 7.76875 22.875 7.78125C22.9438 7.7875 23.0063 7.78125 23.075 7.76875C23.1688 7.7625 23.2313 7.775 23.3188 7.76875C23.3813 7.7625 23.4187 7.75625 23.4937 7.75H23.6063C23.7375 7.7625 23.875 7.79375 23.9312 7.8C23.9875 7.80625 24.2062 7.80625 24.2125 7.85C24.2188 7.89375 24.3562 7.9125 24.4625 7.86875V7.93125H24.6875L24.8875 7.95L24.9125 7.9625V8.03125L25.0812 8.06875L25.1562 8.05C25.2313 8.08125 25.3 8.1125 25.3625 8.14375C25.35 8.15 25.3438 8.15625 25.3312 8.1625L25.2625 8.175C25.325 8.2125 25.3875 8.2625 25.4438 8.31875C25.4625 8.35 25.4812 8.38125 25.4937 8.4125L25.5063 8.4375C25.5125 8.45625 25.525 8.475 25.5375 8.4875L25.5688 8.525C25.5688 8.5375 25.5625 8.55 25.5562 8.5625C25.5437 8.55625 25.525 8.55625 25.5125 8.55625L25.5 8.5625C25.5 8.56875 25.4937 8.575 25.5 8.58125C25.5125 8.5875 25.525 8.6 25.5375 8.60625C25.5813 8.63125 25.5875 8.5875 25.6063 8.60625C25.625 8.625 25.6125 8.6625 25.6063 8.6875C25.6 8.7125 25.6062 8.71875 25.6187 8.74375C25.6313 8.76875 25.6125 8.7875 25.6187 8.8125C25.625 8.83125 25.6313 8.84375 25.6375 8.8625V8.89375C25.625 8.925 25.6125 8.95 25.5938 8.975L25.5875 8.9875C25.5875 9 25.5875 9.05 25.5562 9.0625C25.5688 9.075 25.5875 9.0875 25.6 9.1C25.6187 9.13125 25.6375 9.1625 25.65 9.19375C25.6562 9.225 25.6688 9.25 25.6875 9.26875L25.7188 9.30625C25.7188 9.31875 25.7125 9.33125 25.7062 9.34375C25.7062 9.34375 25.6625 9.325 25.65 9.34375C25.6375 9.3625 25.6375 9.3625 25.6812 9.3875C25.725 9.4125 25.7313 9.36875 25.75 9.3875V9.39375C25.7563 9.41875 25.7563 9.44375 25.75 9.46875C25.7437 9.49375 25.75 9.5 25.7625 9.525C25.775 9.55 25.7563 9.56875 25.7625 9.59375C25.7688 9.6125 25.775 9.625 25.7812 9.64375V9.65C25.7875 9.68125 25.8063 9.70625 25.825 9.725L25.8563 9.7625C25.8563 9.775 25.85 9.7875 25.8438 9.8C25.8438 9.8 25.8 9.78125 25.7875 9.8C25.775 9.81875 25.775 9.81875 25.8188 9.84375C25.8625 9.86875 25.8687 9.825 25.8813 9.84375C25.9 9.8625 25.8875 9.9 25.8813 9.925C25.6438 9.925 25.3688 9.9125 25.1063 9.88125C24.7063 9.8375 24.3062 9.8375 23.9062 9.8875L22.1 9.94375L21.6625 9.99375V9.93125L21.6313 9.925L21.3875 9.90625H21.1125V9.85C20.9875 9.8875 20.8125 9.875 20.8062 9.83125C20.8 9.7875 20.5312 9.7875 20.4562 9.78125L20.05 9.73125H19.9125L19.6938 9.75C19.5938 9.75625 19.5125 9.74375 19.3937 9.75C19.3125 9.7625 19.2312 9.7625 19.15 9.7625C19.0375 9.75 18.925 9.75 18.8062 9.7625C18.725 9.78125 18.9062 9.7875 18.8062 9.825C18.7062 9.86875 18.7062 9.86875 18.625 9.85625C18.5438 9.84375 18.625 9.8 18.625 9.8L18.4813 9.79375L18.3188 9.83125C18.2125 9.85 18.1 9.86875 17.9875 9.875C17.8187 9.8875 17.6687 9.9125 17.5875 9.925L17.3625 9.98125L16.25 9.9V9.96875L15.325 9.91875L15.225 9.90625C14.9375 9.96875 14.6438 10.0063 14.3438 10.0188C14.3438 10.0188 14.5312 9.98125 14.475 9.95625H14.4688L14.2625 9.98125C14.1625 10 14.1187 10.0062 14.1187 9.98125V9.95625L13.975 9.975C13.9125 10 13.8438 10.0188 13.7812 10.0312L13.5625 10.05L13.1062 10.0938C13.0562 10.0813 13.0125 10.075 12.9625 10.0688C12.8625 10.0563 12.8438 10.1062 12.8438 10.1062L13.0375 10.1313L12.3375 10.15L12.2125 10.0938C12.2125 10.0938 12.275 10.0563 12.2125 10.05C12.1375 10.0438 12.0625 10.05 11.9937 10.0813V10.1L11.9625 10.1438L11.4375 10.1313L11.3562 10.0875L11.2125 10.0562L10.9812 10.0375C10.9375 10.025 10.9 10.0062 10.8625 9.98125L10.65 9.96875L10.525 9.98125L10.475 9.96875L10.3875 9.95625C10.3125 9.94375 10.2875 9.975 10.275 9.9875V9.99375L10.4688 10.0188C10.2375 10.0312 10.1062 10.1125 9.86875 10.1125L9.79375 10.075L9.75625 10.0562C9.75625 10.0562 9.81875 10.0187 9.75625 10.0125C9.68125 10.0062 9.60625 10.0187 9.5375 10.0437V10.0625L9.525 10.0813L9.50625 10.1062C9.35625 10.1062 9.225 10.15 9.075 10.1438H9L8.80625 10.2312L8.6625 10.2L8.43125 10.3C8.3875 10.2875 8.35 10.2687 8.3125 10.2437C8.2125 10.2375 8.11875 10.325 8.05625 10.3188L7.9125 10.3125C7.84375 10.4062 7.8125 10.25 7.7875 10.3375C7.7875 10.3375 7.6875 10.3063 7.43125 10.4375C7.175 10.5687 7.1875 10.5938 7.1875 10.5938C7.14375 10.6188 7.1125 10.65 7.0875 10.6875C7.06875 10.7125 7.0875 10.7313 7.0875 10.7563C7.06875 10.7625 7.05 10.7625 7.0375 10.7875C6.98125 10.8938 6.9375 11.0063 6.91875 11.125C6.91875 11.125 6.775 10.9875 6.66875 11.2L6.56875 11.4125C6.44375 11.6688 6.30625 12.025 6.1875 12.3438L6.15625 12.5312C6.1375 12.6562 6.03125 12.75 5.90625 12.7563L5.89375 12.9L5.84375 13.025C5.84375 13.025 5.81875 12.95 5.7875 13.0125C5.75625 13.075 5.75625 13.075 5.76875 13.175C5.78125 13.2812 5.8375 13.1188 5.83125 13.1938C5.8125 13.2938 5.78125 13.3938 5.74375 13.4875C5.71875 13.5563 5.7 13.625 5.6875 13.7C5.6625 13.8 5.63125 13.8625 5.60625 13.9563L5.5625 14.1438L5.525 14.2625C5.46875 14.3938 5.39375 14.5375 5.36875 14.5938C5.34375 14.65 5.275 14.8813 5.225 14.8813C5.18125 14.875 5.125 15.0188 5.125 15.1375L5.0625 15.1187L4.9875 15.3562L4.90625 15.5625L4.89375 15.5875L4.83125 15.5688L4.7375 15.7375L4.725 15.8188C4.66875 15.8938 4.60625 15.9688 4.54375 16.0375L4.46875 16.05C4.48125 16.2437 4.48125 16.4375 4.46875 16.6313C4.4625 16.7063 4.44375 16.8438 4.40625 16.9937L4.3875 17.0938L4.35625 17.2875L4.34375 17.4312L4.29375 17.5562C4.29375 17.5562 4.28125 17.5062 4.25625 17.525C4.25 17.5312 4.24375 17.5375 4.2375 17.5438C4.225 17.5625 4.21875 17.5875 4.2125 17.6125C4.2125 17.6437 4.2125 17.6812 4.21875 17.7125C4.23125 17.8125 4.2875 17.6563 4.28125 17.7313C4.2625 17.8313 4.23125 17.9312 4.19375 18.025C4.16875 18.0938 4.15 18.1625 4.1375 18.2375C4.1125 18.3375 4.075 18.4 4.05625 18.4937L4.0125 18.6812L3.975 18.8C3.93125 18.9 3.875 19.0062 3.84375 19.0812L3.81875 19.1313C3.7875 19.225 3.75 19.3125 3.7 19.4V19.5562C3.69375 19.6313 3.675 19.7625 3.6375 19.9125C3.6125 20.0125 3.6 20.1062 3.5875 20.2062L3.575 20.35L3.525 20.475C3.525 20.475 3.5 20.4 3.46875 20.4562C3.4375 20.5125 3.4375 20.5187 3.45 20.6187C3.4625 20.7188 3.51875 20.5625 3.5125 20.6375V20.6625C3.49375 20.7563 3.4625 20.8438 3.425 20.925C3.4 20.9937 3.38125 21.0625 3.36875 21.1375C3.34375 21.2375 3.3125 21.3 3.29375 21.3937L3.25 21.5812L3.24375 21.6L3.2375 21.6313C3.2125 21.725 3.2 21.825 3.1875 21.925L3.175 22.0625L3.125 22.1875C3.125 22.1875 3.1 22.1125 3.06875 22.1688C3.0375 22.2313 3.0375 22.2312 3.05 22.3312C3.0625 22.4375 3.11875 22.275 3.1125 22.35C3.09375 22.45 3.0625 22.55 3.025 22.6437C3 22.7125 2.98125 22.7812 2.96875 22.8563C2.94375 22.9563 2.9125 23.0187 2.8875 23.1125L2.84375 23.3L2.80625 23.4188C2.775 23.4875 2.74375 23.5625 2.7125 23.625C2.6875 23.4062 2.65 23.2687 2.65 23.2687C2.63125 22.8438 2.6375 22.425 2.68125 22.0063C2.725 21.65 2.725 21.2938 2.675 20.9375L2.61875 19.325C2.6 19.1938 2.5875 19.0625 2.56875 18.9375H2.63125L2.6375 18.9125L2.65625 18.6875V18.4375H2.725C2.6875 18.325 2.7 18.1688 2.74375 18.1625C2.7875 18.1562 2.7875 17.9125 2.79375 17.85C2.8 17.7875 2.83125 17.6312 2.84375 17.4875C2.84375 17.45 2.84375 17.4062 2.84375 17.3625C2.84375 17.2875 2.83125 17.2375 2.825 17.1688C2.81875 17.075 2.83125 17.0062 2.825 16.9C2.8125 16.825 2.8125 16.7562 2.8125 16.6812C2.825 16.5812 2.825 16.475 2.8125 16.375C2.79375 16.3062 2.7875 16.4688 2.74375 16.375C2.7 16.2812 2.7 16.2812 2.7125 16.2125C2.725 16.1437 2.76875 16.2125 2.76875 16.2125C2.76875 16.2125 2.76875 16.1625 2.78125 16.0812L2.75 15.9375C2.73125 15.8375 2.7125 15.7438 2.70625 15.6438C2.69375 15.4938 2.66875 15.3625 2.65625 15.2875C2.64375 15.2125 2.61875 15.1562 2.6 15.0875C2.63125 14.775 2.6625 14.4438 2.6875 14.0938H2.6125L2.6625 13.2688L2.675 13.175C2.6125 12.9187 2.575 12.6562 2.5625 12.3938C2.5625 12.3938 2.6 12.5562 2.625 12.5125V12.5063L2.6 12.3188C2.58125 12.225 2.575 12.1938 2.6 12.1938H2.625L2.60625 12.0688C2.58125 12.0125 2.5625 11.9563 2.55 11.8938L2.53125 11.7L2.4875 11.2875C2.5 11.2438 2.50625 11.2063 2.5125 11.1625C2.525 11.0688 2.475 11.0625 2.475 11.0625L2.45 11.2375C2.4375 11.0312 2.43125 10.825 2.425 10.6125L2.4875 10.5125C2.4875 10.5125 2.525 10.5687 2.53125 10.5125C2.5375 10.4437 2.525 10.375 2.5 10.3188H2.48125L2.4375 10.2937C2.4375 10.1375 2.44375 9.98125 2.45 9.825L2.49375 9.75L2.525 9.625L2.54375 9.41875C2.55625 9.38125 2.575 9.34375 2.6 9.31875C2.60625 9.2375 2.60625 9.18125 2.6125 9.125L2.6 9.0125C2.60625 8.99375 2.60625 8.98125 2.6125 8.9625C2.6125 8.94375 2.61875 8.91875 2.625 8.88125C2.6375 8.8125 2.60625 8.7875 2.59375 8.78125H2.5875L2.5625 8.95625C2.55 8.75 2.46875 8.6375 2.46875 8.41875L2.50625 8.35L2.525 8.3125C2.525 8.3125 2.5625 8.36875 2.56875 8.3125C2.575 8.24375 2.5625 8.175 2.5375 8.11875H2.51875L2.5 8.10625L2.48125 8.09375C2.48125 7.95625 2.4375 7.84375 2.44375 7.7125C2.44375 7.6875 2.44375 7.66875 2.44375 7.64375L2.3625 7.46875L2.39375 7.34375L2.4125 7.275C2.45625 7.10625 2.49375 6.875 2.53125 6.6625L2.5375 6.56875ZM7.58125 11.15L7.575 11.0938C7.6625 11.0938 7.64375 11.1125 7.58125 11.15ZM7.35 10.9438C7.3375 10.9313 7.31875 10.9187 7.30625 10.9062C7.34375 10.9125 7.3625 10.925 7.3625 10.9438H7.35ZM1.15625 27.6125C1.175 27.6187 1.19375 27.6313 1.20625 27.6313C1.2 27.6375 1.1875 27.65 1.18125 27.6437C1.18125 27.6437 1.175 27.6312 1.15625 27.6125ZM1.55625 27.7437C1.56875 27.8062 1.56875 27.8188 1.55625 27.7437C1.51875 27.725 1.48125 27.7062 1.45625 27.6812L1.425 27.6562C1.45 27.65 1.48125 27.6438 1.50625 27.6375C1.525 27.6625 1.54375 27.6875 1.55 27.7188C1.5375 27.6938 1.525 27.6625 1.5125 27.6375L1.5625 27.6187L1.5875 27.6125H1.575L1.65 27.5812C1.7 27.5625 1.7375 27.5312 1.76875 27.4875L1.775 27.5125C1.7375 27.5375 1.7 27.5625 1.6625 27.5812C1.775 27.525 1.7125 27.55 1.7 27.5688C1.68125 27.5813 1.6625 27.5875 1.6375 27.6C1.6375 27.6 1.56875 27.6375 1.7 27.7437C1.8125 27.7812 1.6875 27.7937 1.55625 27.7437ZM29.5875 12.175L29.575 12.325L29.5187 12.4563C29.5187 12.4563 29.5 12.375 29.4688 12.4375C29.4375 12.5 29.4375 12.5 29.45 12.6062C29.4625 12.7125 29.5188 12.55 29.5125 12.625C29.4938 12.7312 29.4625 12.8312 29.4188 12.9312C29.3938 13 29.375 13.075 29.3625 13.15C29.3375 13.25 29.3 13.3187 29.2812 13.4187L29.2375 13.6187L29.1938 13.7375C29.1375 13.875 29.0562 14.025 29.0312 14.0813C29.0063 14.1438 28.9313 14.3875 28.8875 14.3813C28.8438 14.375 28.7812 14.525 28.7875 14.65L28.725 14.6313L28.65 14.8813L28.5625 15.0938L28.5438 15.1187L28.4813 15.1L28.3875 15.2812L28.3813 15.3687C28.325 15.45 28.2625 15.525 28.1938 15.6L28.1125 15.6125C28.125 15.8125 28.125 16.0188 28.1125 16.2188C28.1 16.3 28.0812 16.4375 28.05 16.5938L28.0312 16.6938L28 16.9L27.9875 17.05L27.9375 17.1812C27.9375 17.1812 27.925 17.1312 27.9 17.1437C27.8937 17.15 27.8875 17.1562 27.8813 17.1625C27.8687 17.1813 27.8625 17.2063 27.8563 17.2313C27.8563 17.2625 27.8562 17.3 27.8625 17.3312C27.875 17.4312 27.9312 17.275 27.925 17.35C27.9062 17.4563 27.875 17.5562 27.8312 17.6562C27.8062 17.7312 27.7875 17.8 27.775 17.8813C27.75 17.9813 27.7125 18.05 27.6938 18.1437L27.65 18.3438L27.6063 18.4688C27.5625 18.575 27.5063 18.6875 27.4688 18.7625L27.4438 18.8125C27.4125 18.9062 27.375 19 27.325 19.0938L27.3188 19.2563C27.3062 19.3375 27.2875 19.475 27.2563 19.6313C27.2313 19.7313 27.2125 19.8375 27.2 19.9375L27.1875 20.0875L27.1375 20.2188C27.1375 20.2188 27.1125 20.1375 27.0812 20.2C27.05 20.2625 27.05 20.2625 27.0625 20.3687C27.075 20.475 27.1313 20.3125 27.125 20.3875L27.1187 20.4188C27.1 20.5125 27.0688 20.6063 27.0312 20.6938C27.0063 20.7625 26.9875 20.8375 26.975 20.9125C26.95 21.0188 26.9125 21.0812 26.8937 21.1812L26.85 21.3813L26.8438 21.4L26.8375 21.4312C26.8125 21.5312 26.7938 21.6375 26.7812 21.7375L26.7687 21.8875L26.7188 22.0187C26.7188 22.0187 26.7 21.9375 26.6688 22C26.6375 22.0625 26.6375 22.0625 26.65 22.1688C26.6625 22.275 26.7188 22.1125 26.7125 22.1875C26.6938 22.2938 26.6625 22.3937 26.6187 22.4937C26.5938 22.5688 26.575 22.6375 26.5625 22.7188C26.5375 22.8188 26.5 22.8875 26.4813 22.9813L26.4375 23.1812L26.3937 23.3062C26.3375 23.4438 26.2563 23.5938 26.2313 23.65C26.2063 23.7125 26.1313 23.9563 26.0875 23.95C26.0437 23.9438 25.9812 24.0938 25.9875 24.2188L25.925 24.2L25.85 24.45L25.7625 24.6625L25.75 24.6875L25.6812 24.6688L25.5875 24.85L25.5812 24.9375C25.5187 25.0187 25.4625 25.0938 25.4062 25.1562C25.3875 25.2563 25.4312 25.2125 25.4438 25.325C25.4625 25.425 25.5 25.5187 25.5625 25.5938C25.5063 25.7062 25.4625 25.825 25.425 25.9438C25.3438 26.2063 25.425 25.9438 25.375 26.2563C25.325 26.5688 25.4375 26.5063 25.325 26.7563C25.3188 26.7688 25.3188 26.7812 25.3125 26.7938L24.7812 26.7687L24.4375 26.725L23.7938 26.6875L23.6875 26.6812C23.375 26.7125 23.0625 26.7 22.7563 26.6375C22.7563 26.6375 23.2062 26.5563 22.5312 26.5438C22.1313 26.5375 21.7375 26.5687 21.3438 26.6437C20.85 26.6687 20.3625 26.6562 19.8687 26.6125C19.4562 26.5687 19.0375 26.5688 18.625 26.6187L16.7437 26.6688L16.2938 26.7188V26.6562L16.2625 26.65L16.0063 26.6313H15.7188V26.5562C15.5875 26.5938 15.4125 26.5813 15.4 26.5375C15.3875 26.4937 15.1125 26.4937 15.0312 26.4875L14.6125 26.4375H14.4688L14.2437 26.4562H13.9375C13.85 26.4688 13.7687 26.4688 13.6812 26.4625C13.5625 26.45 13.4437 26.45 13.325 26.4625C13.2437 26.4812 13.4375 26.4875 13.325 26.525C13.2125 26.5688 13.2125 26.5688 13.1375 26.5562C13.0625 26.5437 13.1375 26.5 13.1375 26.5L12.9812 26.4875L12.8125 26.5187C12.7 26.5375 12.5813 26.55 12.4688 26.5562C12.2937 26.5688 12.1375 26.5938 12.05 26.6063L11.8188 26.6625C11.45 26.625 11.0688 26.5938 10.6562 26.5688V26.6375L9.6875 26.5812L9.5625 26.5625C9.25625 26.625 8.95 26.6625 8.6375 26.675C8.6375 26.675 8.83125 26.6375 8.775 26.6125H8.76875L8.55 26.6375C8.44375 26.6562 8.4 26.6625 8.4 26.6375V26.6187L8.25 26.6375C8.18125 26.6625 8.1125 26.6812 8.04375 26.6938L7.8125 26.7125L7.3375 26.7563C7.2875 26.7437 7.2375 26.7375 7.1875 26.7313C7.08125 26.7188 7.0625 26.7687 7.0625 26.7687L7.26875 26.7938L6.5375 26.8188L6.4125 26.7625C6.4125 26.7625 6.48125 26.7188 6.4125 26.7188C6.33125 26.7125 6.25625 26.725 6.18125 26.75V26.7687L6.15 26.8125L5.6 26.8062L5.5125 26.7625L5.35625 26.7313L5.1125 26.7188C5.06875 26.7062 5.025 26.6938 4.9875 26.6688L4.7625 26.6625L4.63125 26.675L4.575 26.6625L4.48125 26.65C4.4 26.6437 4.375 26.6687 4.3625 26.6812V26.6875L4.56875 26.7125C4.33125 26.725 4.19375 26.8125 3.94375 26.8125L3.8625 26.775L3.81875 26.7563C3.81875 26.7563 3.8375 26.7375 3.83125 26.725L3.90625 26.5562L3.9375 26.4875C3.975 26.2687 4.0625 26.0562 4.19375 25.875C4.19375 25.875 4.175 26.2062 4.33125 25.75C4.425 25.4813 4.48125 25.2 4.49375 24.9188C4.58125 24.5813 4.69375 24.25 4.84375 23.9312C4.975 23.6625 5.0625 23.3813 5.10625 23.0875L5.4625 21.8062L5.5125 21.4875L5.575 21.5063L5.5875 21.4875L5.65625 21.3188L5.71875 21.125L5.78125 21.1437C5.775 21.0437 5.825 20.925 5.86875 20.9312C5.9125 20.9375 5.96875 20.75 5.99375 20.7C6.01875 20.65 6.08125 20.5375 6.13125 20.4312L6.1625 20.3375C6.18125 20.275 6.18125 20.2375 6.19375 20.1812C6.20625 20.1062 6.24375 20.0562 6.25625 19.9688C6.2625 19.9062 6.28125 19.85 6.3 19.7938C6.3375 19.7188 6.3625 19.6375 6.375 19.5562C6.375 19.4937 6.33125 19.625 6.3125 19.5375C6.29375 19.45 6.29375 19.45 6.31875 19.4C6.34375 19.35 6.375 19.4188 6.375 19.4188L6.41875 19.3188V19.1938C6.425 19.1125 6.4375 19.0312 6.45625 18.95C6.48125 18.825 6.4875 18.7188 6.49375 18.65L6.4875 18.475C6.6 18.2375 6.7125 17.9875 6.81875 17.7188L6.75625 17.7L7.0125 17.0625L7.04375 16.9937C7.05 16.775 7.08125 16.5562 7.13125 16.3438C7.13125 16.3438 7.125 16.4875 7.1625 16.4562V16.45L7.1875 16.3C7.1875 16.2187 7.19375 16.1938 7.21875 16.2L7.24375 16.2062L7.25625 16.1063C7.25 16.0563 7.24375 16.0063 7.25 15.9563L7.28125 15.7937L7.3375 15.4625C7.35625 15.4312 7.38125 15.4 7.39375 15.3687C7.43125 15.3 7.38125 15.275 7.38125 15.275L7.3125 15.4062C7.35 15.2437 7.39375 15.075 7.45 14.9062L7.53125 14.8438C7.53125 14.8438 7.55625 14.9 7.56875 14.8562C7.59375 14.8062 7.6 14.75 7.5875 14.6938L7.56875 14.6875L7.53125 14.6562L7.6625 14.2937L7.725 14.25L7.7875 14.1562L7.85625 14C7.875 13.9688 7.9 13.9438 7.93125 13.925L7.9875 13.775L8.00625 13.6875L8.03125 13.6562L8.0625 13.5938C8.0875 13.5437 8.06875 13.5188 8.0625 13.5063L8.05625 13.5L7.9875 13.6313C8.025 13.4688 7.98125 13.35 8.03125 13.1812L8.0875 13.1375L8.1125 13.1187C8.1125 13.1187 8.1375 13.175 8.15625 13.1313C8.18125 13.0813 8.1875 13.025 8.175 12.9688L8.15625 12.9625L8.14375 12.95L8.125 12.9312C8.1625 12.8312 8.14375 12.7188 8.18125 12.625L8.2 12.5688L8.1625 12.4062L8.225 12.3125L8.18125 12.1187C8.19375 12.1 8.2125 12.0875 8.225 12.075C8.60625 12.1125 9.125 12.1375 9.5875 12.15L9.84375 12.125C10.1562 12.1 10.2375 12.2937 10.2375 12.2937L10.4312 12.2563L10.6125 12.2688C10.6125 12.2688 10.5188 12.3125 10.6125 12.325C10.6875 12.3375 10.7625 12.325 10.8313 12.2937C10.9625 12.25 10.7375 12.2437 10.8313 12.2312C10.9688 12.2188 11.1125 12.2188 11.25 12.2312C11.35 12.2312 11.45 12.2312 11.55 12.2188H11.9125L12.175 12.2H12.3438L12.8375 12.25C12.9312 12.25 13.2563 12.25 13.2688 12.3C13.2812 12.35 13.4938 12.3563 13.6438 12.3188V12.3813H13.9812L14.2812 12.4L14.3188 12.4062V12.475L14.575 12.5063L14.6875 12.4875C14.8188 12.5188 14.9375 12.5562 15.0437 12.5875L15.0875 12.6562C15.3375 12.5813 15.5875 12.5188 15.8438 12.475C15.9438 12.4625 16.1313 12.4375 16.3375 12.4187L16.475 12.4062L16.7437 12.375L16.9375 12.3375L17.1187 12.35C17.1187 12.35 17.0625 12.3813 17.0875 12.3938C17.0938 12.4 17.1062 12.4 17.1187 12.4C17.15 12.4062 17.1812 12.4062 17.2125 12.4C17.2563 12.3937 17.2937 12.3813 17.3375 12.3625C17.4688 12.3188 17.2437 12.3125 17.3375 12.3C17.475 12.2875 17.6125 12.2875 17.7563 12.3C17.8563 12.3 17.9562 12.3 18.0562 12.2875H18.4188L18.6812 12.2688H18.85L19.2687 12.3125L19.3438 12.3188C19.475 12.3188 19.6062 12.3313 19.7375 12.35L19.9438 12.3062C20.0438 12.2937 20.2313 12.2688 20.4375 12.25C20.7437 12.225 20.8375 12.2063 20.8375 12.2063L21.0312 12.1687L21.2125 12.1812C21.2125 12.1812 21.1187 12.225 21.2125 12.2375C21.2875 12.25 21.3625 12.2375 21.4312 12.2063C21.5625 12.1625 21.3375 12.1562 21.4312 12.1375H21.4688C21.5938 12.1312 21.7188 12.1312 21.85 12.1375C21.95 12.1375 22.05 12.1375 22.15 12.125H22.5125L22.775 12.1062H22.8H22.8438C22.9813 12.1 23.1125 12.0875 23.2437 12.0625L23.4375 12.0312L23.6187 12.0437C23.6187 12.0437 23.5312 12.0875 23.6187 12.1C23.6938 12.1125 23.7687 12.1 23.8375 12.0688C23.9688 12.025 23.7437 12.0188 23.8375 12C23.975 11.9875 24.1125 11.9875 24.2563 12C24.3563 12 24.4562 12 24.5562 11.9875H24.9188L25.1812 11.9688H25.35L25.8438 12.0188C25.9375 12.0188 26.2625 12.0188 26.275 12.0688C26.2875 12.1188 26.4937 12.125 26.65 12.0875V12.1562H26.9875L27.2875 12.175L27.325 12.1812V12.25L27.5875 12.2875L27.7 12.2688C27.825 12.3 27.9438 12.3312 28.0438 12.3687C28.175 12.3562 28.1062 12.325 28.2375 12.2812C28.35 12.2375 28.4438 12.175 28.525 12.0875C28.6875 12.1062 28.85 12.1188 29.0187 12.1125C29.375 12.1125 29.0187 12.1125 29.4312 12.0625C29.5688 12.0437 29.7 12.0125 29.825 11.9688C29.8125 12.0813 29.7125 12.1687 29.5875 12.175Z" fill="#0041E6"/>
</g>
<defs>
<clipPath id="clip0_7664_50208">
<rect width="32" height="32" fill="white"/>
</clipPath>
</defs>
</svg>
