<svg width="32" height="32" viewBox="0 0 32 32" fill="none" xmlns="http://www.w3.org/2000/svg">
<g clip-path="url(#clip0_7664_50173)">
<path d="M31.975 16.25C31.975 16.15 31.9875 16.0625 31.975 15.9437C31.9688 15.8625 31.9625 15.775 31.9688 15.6875C31.975 15.5687 31.975 15.4562 31.9563 15.3375C31.9375 15.2562 31.9375 15.45 31.8938 15.3375C31.85 15.225 31.85 15.2375 31.8563 15.1562C31.8625 15.075 31.9125 15.1562 31.9125 15.1562V15L31.8688 14.8375C31.8688 14.8375 31.8438 14.7625 31.8 14.5062C31.775 14.3687 31.7438 14.2375 31.7063 14.1062L31.625 13.8875C31.6125 13.5125 31.5875 13.1375 31.5375 12.7625L31.4688 12.775C31.425 12.4687 31.375 12.1625 31.3188 11.85L31.3063 11.75C31.175 11.4812 31.0563 11.2062 30.9563 10.925C30.9563 10.925 31.0438 11.0937 31.0563 11.0312V11.025L30.9688 10.8312C30.9188 10.7375 30.9 10.7 30.925 10.6937L30.95 10.6875L30.8875 10.5562C30.8438 10.5 30.8063 10.4437 30.7688 10.3875L30.675 10.1812L30.4563 9.7625C30.45 9.7125 30.4375 9.6625 30.4188 9.61875C30.3875 9.51875 30.3313 9.525 30.3313 9.525L30.3875 9.71875L30.0625 9.08125V8.95C30.0625 8.95 30.1313 8.9875 30.1 8.93125C30.0688 8.8625 30.025 8.79375 29.9688 8.74375L29.95 8.75625H29.9L29.6438 8.2875V8.1875L29.5938 8.04375L29.4688 7.825C29.4563 7.78125 29.4438 7.7375 29.45 7.69375L29.3375 7.50625L29.2563 7.40625L29.2375 7.35625L29.1938 7.26875C29.1563 7.2 29.1188 7.19375 29.1 7.19375H29.0938L29.1875 7.375C29.0438 7.1875 28.9 7.13125 28.7438 6.9375L28.725 6.85L28.7188 6.80625C28.7188 6.80625 28.7875 6.83125 28.75 6.78125C28.7063 6.7125 28.65 6.6625 28.5813 6.625L28.5625 6.6375H28.5438H28.5125C28.4125 6.51875 28.2938 6.44375 28.2 6.33125L28.15 6.26875L27.95 6.175L27.875 6.0625L27.6375 5.9625C27.6125 5.925 27.6 5.88125 27.5938 5.84375C27.525 5.7625 27.4 5.7625 27.3563 5.71875L27.2563 5.61875C27.1438 5.64375 27.2188 5.5 27.15 5.55C27.15 5.55 27.0938 5.45625 26.8188 5.3875C26.5438 5.31875 26.5313 5.35625 26.5313 5.35625C26.4875 5.35 26.4375 5.35 26.4 5.3625C26.3063 5.38125 26.3188 5.49375 26.4313 5.6C26.55 5.70625 26.375 5.73125 26.375 5.73125C26.375 5.73125 26.3688 5.8 26.5125 5.925C26.6563 6.05 26.3938 5.95 26.2375 5.8875C26.0813 5.825 26.0625 6.0125 26.0313 6.0375C26.0063 6.0625 25.675 6.10625 25.8125 6.2625C25.9063 6.36875 26.0188 6.46875 26.1313 6.55625C26.1313 6.55625 25.9375 6.6125 26.1125 6.83125L26.2875 7.05C26.5 7.3125 26.7875 7.65625 27.025 7.96875L27.1813 8.125C27.2875 8.21875 27.3188 8.36875 27.2563 8.5L27.3813 8.61875L27.4625 8.75C27.4625 8.75 27.3813 8.7125 27.4188 8.78125C27.4563 8.85 27.4563 8.85 27.55 8.91875C27.65 8.9875 27.55 8.825 27.6063 8.88125C27.6813 8.975 27.75 9.075 27.8 9.18125C27.8438 9.25625 27.8875 9.325 27.9438 9.39375C28.0125 9.49375 28.0375 9.575 28.1 9.6625C28.1438 9.725 28.1875 9.7875 28.225 9.85625L28.2875 9.9875C28.35 10.1437 28.4 10.325 28.4313 10.3875C28.4563 10.4562 28.575 10.7125 28.5313 10.7437C28.4875 10.775 28.55 10.9312 28.6313 11.0437L28.5688 11.0687L28.6688 11.3375L28.7313 11.5812V11.6125L28.6688 11.6312L28.7 11.85L28.7438 11.9375C28.7438 12.0437 28.7375 12.15 28.725 12.2562L28.6688 12.3125C28.7938 12.4937 28.9063 12.6937 28.9938 12.9C29.0438 13.0312 29.0938 13.1687 29.1313 13.3062L29.1625 13.4187L29.2313 13.6437L29.2938 13.8062L29.3063 13.9625C29.3063 13.9625 29.2688 13.9187 29.2563 13.9437C29.25 13.95 29.25 13.9625 29.25 13.9687C29.25 13.9937 29.25 14.025 29.2563 14.05C29.2688 14.0875 29.2875 14.1187 29.3063 14.15C29.3625 14.25 29.3438 14.0625 29.3688 14.1437C29.3938 14.2625 29.4125 14.3812 29.4125 14.5C29.4188 14.5875 29.4313 14.6687 29.4438 14.7562C29.4625 14.8812 29.4563 14.9625 29.4688 15.0687L29.5 15.2937V15.4375C29.4938 15.5687 29.475 15.7062 29.4625 15.7937L29.4563 15.8562C29.4563 15.9687 29.4438 16.0812 29.4188 16.1937L29.4563 16.375C29.4688 16.4687 29.4813 16.6312 29.4875 16.8125C29.4938 17.0875 29.5063 17.1687 29.5063 17.1687L29.525 17.3437L29.5 17.5C29.5 17.5 29.4625 17.4187 29.4438 17.5C29.425 17.5625 29.4313 17.6312 29.4563 17.6937C29.4875 17.8125 29.5125 17.6125 29.5188 17.7V17.7312C29.5125 17.8437 29.5 17.95 29.475 18.0562C29.4625 18.1437 29.45 18.225 29.45 18.3125C29.4375 18.4375 29.4125 18.5187 29.4 18.6187L29.375 18.8437L29.3688 18.8625V18.9C29.3313 19.1687 29.3313 19.25 29.3313 19.25L29.325 19.4187L29.2688 19.5687C29.2688 19.5687 29.2438 19.4812 29.2125 19.5562C29.1813 19.6312 29.1813 19.6312 29.1938 19.75C29.2063 19.8687 29.2625 19.6812 29.2563 19.7687C29.2375 19.8875 29.2 20.0062 29.1563 20.1125C29.125 20.1937 29.1 20.275 29.0813 20.3625C29.05 20.4812 29.0063 20.55 28.9813 20.6625C28.9625 20.7375 28.9438 20.8125 28.9125 20.8812L28.8563 21.0187C28.7813 21.175 28.675 21.325 28.6438 21.3937C28.6125 21.4625 28.4875 21.725 28.4375 21.7125C28.3875 21.7 28.3 21.8625 28.275 22L28.2188 21.9687L28.0813 22.225L27.9375 22.4437L27.9125 22.4687L27.85 22.4375L27.7063 22.6125L27.675 22.7062C27.5938 22.775 27.5125 22.8437 27.4375 22.9C27.3875 23 27.4438 22.9625 27.4188 23.0812C27.4 23.1812 27.4125 23.2875 27.4375 23.3875C27.3438 23.4875 27.2563 23.5937 27.1688 23.7062C26.9875 23.9375 27.1688 23.7062 26.9938 24C26.8188 24.2937 26.9313 24.275 26.7063 24.4562C26.5875 24.5437 26.4875 24.6437 26.4 24.7562C26.375 24.8187 26.35 24.875 26.3188 24.9312C26.2813 24.9812 26.25 25.0312 26.2313 25.0937C26.1813 25.1437 26.1813 25.225 26.2313 25.2687C26.3188 25.3687 26.0813 25.325 26.1438 25.3687C26.1375 25.5812 26.2563 25.7687 26.45 25.8562C26.5813 25.95 26.6813 25.8375 26.675 26.025C26.6688 26.125 26.5813 26.0062 26.6125 26.3375C26.6188 26.4375 26.5688 26.4375 26.7813 26.4312C26.8063 26.4312 26.9875 26.35 27.1375 26.3062C27.2188 26.325 27.325 26.1437 27.35 26.2312C27.6375 26.0437 27.9063 25.8312 28.1563 25.6L28.4313 25.375C28.5875 25.2187 28.7375 25.0625 28.8813 24.9L28.9563 24.8187C29.1125 24.55 29.3063 24.3062 29.5313 24.0937C29.5313 24.0937 29.3563 24.5187 29.7375 23.95C29.95 23.625 30.1188 23.2625 30.225 22.8875C30.225 22.8875 30.5375 22.1875 30.85 21.5875C31.0438 21.225 31.1813 20.8312 31.2438 20.425C31.4 19.8312 31.5188 19.225 31.6 18.6125L31.6125 18.1687L31.675 18.175L31.6875 18.1437L31.7313 17.9L31.7563 17.625L31.825 17.6312C31.8 17.5 31.825 17.3312 31.875 17.325C31.925 17.3187 31.9375 17.05 31.95 16.975C31.9625 16.9 32 16.7375 32.0188 16.575L32.025 16.4375L31.975 16.25Z" fill="#0041E6"/>
<path d="M26.6062 19.1437C26.7125 18.7062 26.7937 18.2562 26.8437 17.8062C26.8437 17.6937 26.8437 17.5875 26.8375 17.4812L26.9 17.4875L26.9062 17.4625L26.9437 17.2812L26.9625 17.075H27.025C26.9937 16.975 27.0187 16.85 27.0625 16.8437C27.1062 16.8375 27.1187 16.6375 27.125 16.5812C27.1312 16.525 27.1687 16.4 27.1875 16.2812V16.1812C27.1875 16.125 27.1812 16.075 27.175 16.0187C27.1687 15.9375 27.1875 15.8812 27.175 15.7937C27.1625 15.7312 27.1562 15.675 27.1625 15.6125C27.175 15.525 27.1687 15.4437 27.15 15.3562C27.1312 15.3 27.1312 15.4375 27.0875 15.3562C27.0375 15.275 27.0375 15.2812 27.05 15.225C27.0562 15.1687 27.1062 15.225 27.1062 15.225V15.125L27.0625 15.0062C27.0375 14.925 27.0125 14.85 27 14.7687C26.9812 14.6687 26.95 14.575 26.9187 14.4812L26.8437 14.325C26.8437 14.05 26.8312 13.7812 26.8 13.5062L26.7312 13.5187C26.7062 13.2937 26.675 13.0687 26.6375 12.8375L26.6312 12.7625C26.5187 12.575 26.425 12.375 26.35 12.1687C26.35 12.1687 26.4187 12.2875 26.4375 12.2437V12.2375L26.3687 12.1C26.325 12.0312 26.3125 12.0062 26.3375 12L26.3625 11.9937L26.3125 11.9C26.275 11.8625 26.2375 11.825 26.2125 11.7812L26.1437 11.6312L25.9875 11.3312C25.9875 11.2937 25.9812 11.2562 25.975 11.225C25.9562 11.15 25.9062 11.1562 25.9062 11.1562L25.9375 11.3L25.7187 10.825L25.7375 10.725C25.7375 10.725 25.7937 10.75 25.775 10.7062C25.7562 10.65 25.7187 10.6 25.675 10.5687L25.6562 10.575H25.6062L25.4375 10.2125L25.4437 10.1312L25.4125 10.0187L25.3375 9.85C25.3312 9.81875 25.3312 9.78125 25.3375 9.75L25.2562 9.6L25.1875 9.525L25.175 9.475L25.1437 9.40625C25.1187 9.35 25.0812 9.35 25.0687 9.35H25.0625L25.1312 9.49375C25.0187 9.34375 24.8875 9.3125 24.7687 9.15625L24.7562 9.08125L24.75 9.04375C24.75 9.04375 24.8125 9.05625 24.7812 9.01875C24.7437 8.9625 24.7 8.925 24.6375 8.9L24.625 8.9125H24.6062L24.5812 8.91875C24.4937 8.825 24.3875 8.775 24.3 8.68125L24.25 8.63125L24.0687 8.58125L23.9937 8.48125L23.775 8.4375C23.75 8.40625 23.7312 8.375 23.7187 8.3375C23.6437 8.28125 23.5375 8.30625 23.4875 8.275L23.3812 8.2C23.2875 8.25625 23.325 8.1 23.275 8.16875C23.275 8.16875 23.2 8.09375 22.9437 8.125C22.6875 8.15625 22.6937 8.20625 22.6937 8.20625C22.65 8.21875 22.6187 8.2375 22.5875 8.26875C22.5187 8.33125 22.5625 8.425 22.6812 8.475C22.8 8.525 22.6687 8.6125 22.6687 8.6125C22.6687 8.6125 22.6812 8.66875 22.8125 8.73125C22.9437 8.7875 22.725 8.79375 22.6 8.80625C22.475 8.81875 22.5 8.99375 22.4812 9.025C22.4625 9.0625 22.2687 9.24375 22.375 9.31875C22.4437 9.3625 22.5187 9.4 22.6 9.41875C22.6 9.41875 22.475 9.55 22.5875 9.65625C22.625 9.69375 22.6625 9.725 22.6937 9.76875C22.8562 9.93125 23.0062 10.1062 23.15 10.2875L23.25 10.375C23.375 10.4937 23.25 10.65 23.25 10.65L23.3375 10.7187L23.3875 10.8062C23.3875 10.8062 23.325 10.7875 23.3437 10.8375C23.3625 10.8875 23.3625 10.8875 23.4375 10.925C23.5125 10.9625 23.45 10.8562 23.4937 10.8875C23.55 10.95 23.5875 11.0187 23.6187 11.0937C23.6437 11.1437 23.675 11.1937 23.7125 11.2375C23.7562 11.3062 23.7687 11.3625 23.8125 11.425C23.8562 11.4875 23.8687 11.5062 23.8937 11.5562L23.9312 11.65C23.9687 11.7625 23.9875 11.8875 24 11.9375C24.0125 11.9875 24.0875 12.1687 24.05 12.1937C24.0062 12.2187 24.0437 12.3375 24.1125 12.4125L24.05 12.4375L24.1187 12.6312L24.1562 12.8062V12.8312L24.0937 12.85L24.1062 13.0062L24.1437 13.0625C24.1375 13.1437 24.1187 13.2187 24.1 13.2937L24.0437 13.3375C24.15 13.4562 24.2437 13.5875 24.3187 13.7312C24.3625 13.8187 24.4 13.9125 24.425 14.0062L24.45 14.0812L24.5062 14.2375L24.5562 14.35L24.5625 14.4625C24.5625 14.4625 24.5312 14.4312 24.5125 14.45C24.5062 14.4562 24.5062 14.4625 24.5062 14.4687C24.5 14.4875 24.5 14.5062 24.5062 14.525C24.5187 14.55 24.5312 14.575 24.55 14.5937C24.6 14.6625 24.5875 14.5312 24.6125 14.5875C24.6375 14.6687 24.6437 14.75 24.6437 14.8375C24.6437 14.9 24.6562 14.9562 24.6687 15.0187C24.6875 15.1062 24.675 15.1625 24.6875 15.2375C24.7 15.2875 24.7062 15.3437 24.7125 15.3937V15.4937C24.7062 15.5812 24.6937 15.6625 24.6812 15.75L24.675 15.7937C24.675 15.875 24.6687 15.9562 24.6437 16.0312L24.6812 16.15C24.7 16.25 24.7187 16.3437 24.725 16.4437C24.7437 16.6312 24.75 16.6875 24.75 16.6875L24.775 16.8062L24.7562 16.9125C24.7562 16.9125 24.7187 16.8562 24.7 16.9125C24.6875 16.9687 24.6875 16.9687 24.7187 17.05C24.75 17.1312 24.775 16.9937 24.7875 17.0562V17.0812C24.7875 17.1562 24.775 17.2312 24.7562 17.3062C24.7437 17.3625 24.7375 17.425 24.7375 17.4875C24.7375 17.575 24.7125 17.625 24.7062 17.7062C24.7062 17.7562 24.7 17.8125 24.6937 17.8625V17.875V17.9C24.6812 18.0875 24.6812 18.1437 24.6812 18.1437L24.6875 18.2687L24.65 18.3687C24.65 18.3687 24.6187 18.3062 24.5937 18.3562C24.5687 18.4062 24.5687 18.4062 24.5937 18.4937C24.6187 18.5812 24.6562 18.45 24.6562 18.5125C24.6437 18.5937 24.625 18.6812 24.5875 18.7562C24.5625 18.8125 24.55 18.875 24.5375 18.9312C24.5187 19.0187 24.4875 19.0687 24.4687 19.1437C24.4562 19.2 24.45 19.2437 24.4312 19.3L24.3937 19.3937C24.3375 19.5 24.2562 19.6062 24.2312 19.6562C24.2062 19.7 24.1312 19.8875 24.0812 19.875C24.0312 19.8625 23.975 19.975 23.9687 20.075L23.9062 20.0437L23.8187 20.225L23.7187 20.375L23.7 20.3937L23.6375 20.3625L23.5375 20.4812L23.5187 20.55C23.4562 20.5937 23.3937 20.6312 23.325 20.6687C23.2937 20.7437 23.3437 20.7187 23.3375 20.8062C23.3437 20.8937 23.3625 20.975 23.4 21.05C23.3312 21.1187 23.2687 21.1937 23.2125 21.275C23.0875 21.4437 23.2125 21.275 23.1125 21.5C23.0125 21.725 23.1125 21.7187 22.9437 21.8562C22.8562 21.9187 22.7875 22.0062 22.7375 22.1C22.7312 22.15 22.725 22.2 22.7062 22.25C22.6875 22.2937 22.675 22.3437 22.675 22.3937C22.675 22.3937 22.625 22.4625 22.7187 22.55C22.8125 22.6375 22.6125 22.6062 22.675 22.6437C22.7312 22.8375 22.875 22.9937 23.0625 23.0687C23.1937 23.15 23.2375 23.05 23.2875 23.2125C23.3125 23.3 23.2062 23.2 23.3375 23.4875C23.375 23.575 23.3375 23.575 23.5 23.5687C23.5812 23.5312 23.6625 23.4937 23.7437 23.4687C23.8187 23.4875 23.8437 23.3375 23.8937 23.4125C24.0812 23.2687 24.2625 23.1062 24.4312 22.9375L24.625 22.775C24.7375 22.6625 24.8375 22.5437 24.9437 22.4312L25 22.375C25.1062 22.175 25.2437 21.9937 25.4187 21.8437C25.4187 21.8437 25.3187 22.1687 25.5875 21.75C25.7437 21.5062 25.85 21.2312 25.9125 20.9437C26.0437 20.6187 26.1937 20.2937 26.3625 19.9812C26.4875 19.7312 26.575 19.4437 26.6062 19.1437Z" fill="#0041E6"/>
<path d="M22.5687 16.1812C22.5625 16.1437 22.5562 16.1062 22.5625 16.0687C22.5687 16.0187 22.5687 15.9687 22.55 15.9187C22.5312 15.8812 22.525 15.9687 22.4875 15.9187C22.4437 15.8687 22.4437 15.8687 22.4562 15.8375C22.4687 15.8062 22.5125 15.8375 22.5125 15.8375L22.525 15.775L22.4937 15.7C22.475 15.65 22.4625 15.6 22.45 15.55C22.4375 15.4875 22.4187 15.425 22.3937 15.3625L22.3312 15.2625C22.3562 15.0812 22.3687 14.9 22.3687 14.7187L22.3 14.7312C22.3 14.5812 22.2875 14.425 22.2625 14.2687V14.2125C22.1687 14.0937 22.0937 13.9562 22.0312 13.8187C22.0312 13.8187 22.0937 13.8937 22.1125 13.8625L22.0562 13.7687C22.0187 13.725 22.0125 13.7062 22.0312 13.7L22.0562 13.6937L22.0125 13.6312C21.9812 13.6125 21.95 13.5875 21.925 13.5625L21.8687 13.4687L21.7375 13.2812C21.7375 13.2562 21.7375 13.2312 21.7312 13.2062C21.7312 13.1812 21.7062 13.1687 21.6812 13.1687C21.675 13.1687 21.675 13.1687 21.6687 13.175L21.6875 13.275L21.5187 12.9875L21.5437 12.9062C21.5437 12.9062 21.5937 12.9125 21.5812 12.8875C21.5687 12.85 21.5375 12.825 21.5 12.8125L21.4812 12.825L21.4375 12.8375L21.3062 12.6062L21.3187 12.5437L21.3 12.4625L21.2375 12.35C21.2312 12.325 21.2312 12.2937 21.2375 12.2625L21.1687 12.1625L21.1125 12.1187L21.1 12.0875L21.075 12.0312C21.0625 12.0062 21.0375 11.9937 21.0125 12.0062L21 12L21.0562 12.1C20.9625 12.0125 20.85 12.0125 20.7562 11.925L20.75 11.8687V11.8375C20.75 11.8375 20.8062 11.8375 20.775 11.8062C20.7437 11.7687 20.7062 11.75 20.6625 11.75L20.65 11.7625L20.6312 11.775L20.6062 11.7875C20.5437 11.7312 20.4562 11.725 20.3937 11.675L20.3625 11.65L20.2312 11.6625L20.1812 11.5937L20.0312 11.6187C20.0187 11.5937 20.0062 11.5687 20.0062 11.5437C19.9625 11.5125 19.8875 11.5687 19.8625 11.55L19.8062 11.5062C19.7375 11.575 19.7875 11.425 19.7437 11.5062C19.7437 11.5062 19.7125 11.4562 19.55 11.525C19.3875 11.5937 19.3875 11.625 19.3875 11.625C19.3875 11.625 19.3687 11.6312 19.3125 11.6937C19.2625 11.7375 19.2562 11.8125 19.3 11.8562C19.3062 11.8625 19.3125 11.8687 19.3187 11.875C19.3812 11.9062 19.2812 12.0062 19.2812 12.0062C19.2812 12.05 19.3062 12.0875 19.3437 12.1C19.4187 12.1375 19.275 12.175 19.1937 12.2C19.1125 12.2312 19.0937 12.3812 19.0687 12.4187C19.05 12.4562 18.875 12.6375 18.9375 12.7C18.975 12.7437 19.025 12.7687 19.0812 12.7812C19.0812 12.7812 18.9687 12.925 19.0437 13L19.1125 13.0812L19.3687 13.3562L19.4312 13.3812C19.5062 13.4187 19.3812 13.5687 19.3812 13.5687L19.4375 13.5812C19.4437 13.5937 19.45 13.6062 19.4562 13.6187C19.4562 13.6187 19.4062 13.6312 19.4125 13.6562C19.4187 13.6812 19.4125 13.6812 19.4687 13.675C19.525 13.675 19.4937 13.625 19.5187 13.6312C19.55 13.6375 19.5687 13.6875 19.5812 13.7125C19.5937 13.7375 19.6062 13.7437 19.6375 13.775C19.6687 13.8 19.6687 13.8375 19.6937 13.8625C19.7125 13.8812 19.7312 13.9 19.75 13.9187L19.7687 13.9625C19.7812 14.0125 19.7937 14.0687 19.7937 14.1187C19.8 14.1437 19.8437 14.2312 19.8062 14.25C19.7687 14.275 19.7812 14.3312 19.8312 14.35L19.7687 14.375L19.8062 14.4625L19.8187 14.5437V14.5562L19.7562 14.575L19.7437 14.65L19.7687 14.675C19.75 14.7187 19.7187 14.7562 19.6937 14.7937L19.6312 14.825C19.7125 14.8625 19.7875 14.9125 19.8437 14.9812C19.875 15.0187 19.9 15.0625 19.9187 15.1062L19.9312 15.1437C19.9437 15.1687 19.9562 15.1937 19.9687 15.2187L20.0062 15.275L20 15.3312C20 15.3312 19.9687 15.3187 19.9562 15.3312C19.95 15.3312 19.95 15.3375 19.95 15.3437C19.95 15.3562 19.9437 15.3625 19.95 15.375C19.9625 15.3875 19.975 15.4 19.9875 15.4125C20.0312 15.45 20.0312 15.3812 20.0562 15.4062C20.075 15.4312 20.0687 15.5 20.0625 15.5375C20.0625 15.5687 20.0625 15.6 20.075 15.6312C20.0875 15.675 20.0687 15.7062 20.075 15.75C20.0812 15.7812 20.0875 15.8062 20.0937 15.8375L20.0875 15.8937C20.075 15.9437 20.0625 15.9875 20.0375 16.0312L20.0312 16.0562C20.0312 16.0812 20.0187 16.1562 19.9937 16.1812L20.0312 16.25C20.05 16.3062 20.0625 16.3562 20.0687 16.4125C20.0687 16.4562 20.0812 16.5062 20.0937 16.55L20.1187 16.6187L20.1 16.675C20.1 16.675 20.0625 16.6375 20.0437 16.6687C20.0312 16.6937 20.0312 16.6937 20.0625 16.7437C20.1 16.7937 20.1125 16.7187 20.125 16.7562V16.7687C20.125 16.8125 20.1187 16.85 20.1 16.8875C20.0937 16.9187 20.0875 16.95 20.0937 16.9875C20.0937 17.0375 20.0687 17.0625 20.0687 17.1V17.1875V17.1937V17.2062C20.0625 17.25 20.0625 17.2937 20.0687 17.3375L20.0812 17.4062L20.05 17.4562C20.05 17.4562 20.0187 17.4125 20 17.4375C19.9812 17.4625 19.9812 17.4625 20.0062 17.5125C20.0312 17.5625 20.0625 17.5 20.0687 17.5312C20.0687 17.575 20.05 17.6187 20.025 17.6562C20.0125 17.6875 20 17.7187 20 17.75C19.9937 17.7937 19.9625 17.8125 19.9562 17.85C19.95 17.875 19.9437 17.9062 19.9375 17.9312L19.9125 17.975C19.875 18.0187 19.8375 18.0562 19.7937 18.0937C19.775 18.1187 19.725 18.2062 19.6875 18.1875C19.6437 18.1687 19.6 18.2187 19.6125 18.275L19.5562 18.2375L19.5062 18.3187L19.4437 18.375H19.4312L19.375 18.3375L19.3062 18.3687V18.4062C19.2625 18.4125 19.2187 18.4125 19.175 18.4062C19.1625 18.4375 19.1937 18.4437 19.2062 18.4937C19.225 18.5562 19.2562 18.6187 19.2937 18.675C19.25 18.6937 19.2125 18.7187 19.1812 18.75C19.1062 18.8187 19.1812 18.75 19.125 18.8625C19.0687 18.975 19.1437 19.0187 19.0312 19.0687C18.975 19.0812 18.925 19.125 18.9 19.1812C18.9 19.2187 18.8937 19.2562 18.8875 19.2937C18.875 19.325 18.8687 19.3625 18.875 19.3937C18.875 19.3937 18.8437 19.4375 18.9187 19.5375C18.9937 19.6375 18.8437 19.5437 18.8937 19.6C18.95 19.7875 19.0562 19.95 19.2 20.0812C19.3 20.1937 19.325 20.125 19.375 20.2812C19.4 20.3687 19.3125 20.2375 19.4312 20.525C19.4687 20.6125 19.4312 20.5937 19.55 20.6437C19.6062 20.6375 19.6625 20.6375 19.7187 20.6437C19.775 20.6875 19.7875 20.575 19.825 20.65C19.9625 20.5937 20.0937 20.5312 20.2187 20.4562L20.375 20.3937C20.4625 20.3375 20.55 20.2875 20.6375 20.2187L20.6812 20.1875C20.7187 20.05 21.0437 19.8812 21.0437 19.8812C21.0437 19.8812 20.9562 20.1125 21.1875 19.85C21.3187 19.7 21.4125 19.5125 21.45 19.3125C21.55 19.1062 21.6687 18.9125 21.8062 18.7312C21.9312 18.575 22.0062 18.3875 22.025 18.1875C22.1062 17.9125 22.1625 17.6312 22.2062 17.35L22.1937 17.1437L22.2562 17.1562L22.2687 17.1437L22.3062 17.0375L22.325 16.9125L22.3875 16.9187C22.3562 16.8562 22.3812 16.7812 22.425 16.7812C22.4687 16.7812 22.4812 16.6625 22.4937 16.625C22.5187 16.5687 22.5437 16.5062 22.5625 16.4437L22.5687 16.3812C22.5687 16.35 22.5625 16.3125 22.5625 16.2812C22.5562 16.2687 22.575 16.2312 22.5687 16.1812Z" fill="#0041E6"/>
<path d="M17.375 16.525C17.3625 16.4562 17.3625 16.3875 17.3687 16.3188C17.3813 16.225 17.3813 16.1313 17.3687 16.0375C17.35 15.975 17.3438 16.125 17.3062 16.0375C17.2625 15.95 17.2625 15.95 17.275 15.8875C17.2875 15.825 17.3312 15.8875 17.3312 15.8875L17.3438 15.7625L17.3062 15.625C17.2875 15.5312 17.275 15.4375 17.2625 15.3438C17.2438 15.2 17.2188 15.075 17.2062 15.0063L17.15 14.8188C17.175 14.5188 17.2 14.2062 17.2062 13.8687H17.1375L17.1437 13.075V12.9875C17.0687 12.75 17.0125 12.5 16.975 12.25C16.975 12.25 17.025 12.4063 17.0438 12.35V12.3438L17.0063 12.1687C16.975 12.0812 16.9688 12.05 16.9937 12.05H17.0187L16.9875 11.9312C16.9562 11.8812 16.9312 11.825 16.9125 11.7688L16.875 11.5813L16.7875 11.2063C16.7938 11.1625 16.8 11.125 16.8 11.0813C16.8 10.9938 16.75 10.9875 16.75 10.9875L16.7437 11.1562L16.6437 10.5688L16.6875 10.4625C16.6875 10.4625 16.7375 10.5125 16.7313 10.4563C16.7313 10.3938 16.7125 10.3312 16.675 10.275H16.6562L16.6125 10.2563L16.55 9.8125L16.5812 9.73125L16.6 9.6125L16.5812 9.40625C16.5875 9.36875 16.5938 9.33125 16.6187 9.3L16.5938 9.125L16.5625 9.025V8.98125V8.9C16.5625 8.83125 16.525 8.8125 16.5125 8.8125H16.5063L16.5125 8.98125C16.4625 8.79375 16.3563 8.7 16.3125 8.5L16.3375 8.425L16.35 8.3875C16.35 8.3875 16.4 8.43125 16.3937 8.375C16.3875 8.3125 16.3625 8.25 16.3188 8.2H16.3L16.2812 8.19375L16.2563 8.1875C16.225 8.0625 16.1562 7.9625 16.1313 7.8375L16.1125 7.775L15.9875 7.63125V7.50625L15.8375 7.34375C15.8375 7.30625 15.8438 7.26875 15.8625 7.23125C15.8438 7.14375 15.7375 7.09375 15.725 7.04375L15.6938 6.925C15.5938 6.9 15.7312 6.825 15.6375 6.83125C15.6375 6.83125 15.6375 6.73125 15.4438 6.56875C15.25 6.4125 15.2312 6.425 15.2312 6.425C15.2 6.4 15.1562 6.38125 15.1187 6.375C15.1 6.375 15.0938 6.3875 15.0813 6.39375C15.0688 6.3375 15.0563 6.2875 15.0375 6.2375C15.0063 6.15 15.0375 6.1625 14.9062 6.125C14.8375 6.1375 14.7688 6.14375 14.7 6.14375C14.6438 6.10625 14.6062 6.225 14.575 6.14375C14.4187 6.20625 14.2688 6.275 14.1062 6.35625L13.925 6.4125L13.6187 6.55625L13.5625 6.575C13.4937 6.7125 13.1187 6.79375 13.1187 6.79375C13.1187 6.79375 13.275 6.6 12.9688 6.78125C12.7875 6.8875 12.625 7.03125 12.5 7.2C12.2937 7.3625 12.075 7.49375 11.8375 7.6C11.6312 7.68125 11.45 7.80625 11.3 7.96875L10.5125 8.5625L10.35 8.7375L10.3125 8.68125H10.2937L10.175 8.74375L10.05 8.83125L10.0125 8.775C9.975 8.84375 9.89375 8.8875 9.8625 8.85625C9.83125 8.825 9.7125 8.90625 9.675 8.925C9.6375 8.94375 9.54375 8.96875 9.46875 9.0125L9.40625 9.05C9.375 9.075 9.34375 9.1 9.31875 9.13125C9.275 9.16875 9.23125 9.18125 9.1875 9.225C9.15625 9.25625 9.125 9.2875 9.0875 9.3125C9.03125 9.3375 8.98125 9.375 8.9375 9.41875C8.9125 9.45625 9 9.40625 8.975 9.475C8.95 9.54375 8.95 9.54375 8.9125 9.55625C8.875 9.56875 8.88125 9.5125 8.88125 9.5125L8.8 9.55L8.75 9.625C8.7125 9.675 8.675 9.71875 8.625 9.7625C8.56875 9.8125 8.51875 9.86875 8.475 9.93125L8.40625 10.0437C8.23125 10.125 8.04375 10.2188 7.85625 10.3188L7.9 10.375L7.45625 10.625L7.40625 10.65C7.3125 10.7875 7.20625 10.9125 7.08125 11.0188C7.08125 11.0188 7.14375 10.9313 7.1 10.925L7.025 11.0125C6.99375 11.0625 6.975 11.075 6.9625 11.0562L6.95 11.0375L6.9 11.1C6.8875 11.1375 6.86875 11.1687 6.84375 11.2L6.75625 11.2812L6.58125 11.4625C6.55625 11.4687 6.525 11.475 6.5 11.4875C6.475 11.4938 6.4625 11.5188 6.46875 11.55C6.46875 11.5563 6.46875 11.5563 6.475 11.5625L6.575 11.5188C6.48125 11.6 6.38125 11.6812 6.275 11.7625H6.1875C6.1875 11.7625 6.1875 11.7125 6.1625 11.7312C6.125 11.75 6.09375 11.7875 6.08125 11.825L6.09375 11.8438L6.10625 11.8875L5.86875 12.0437L5.80625 12.0312L5.725 12.05L5.6125 12.1125C5.5875 12.1188 5.55625 12.1125 5.53125 12.1062L5.43125 12.1687L5.38125 12.2188L5.35 12.225L5.3 12.2437C5.275 12.25 5.2625 12.275 5.26875 12.3V12.3062V12.3125L5.36875 12.2688C5.275 12.35 5.26875 12.4563 5.1625 12.5375L5.10625 12.5312H5.075C5.075 12.5312 5.075 12.475 5.05 12.5C5.0125 12.5188 4.98125 12.5563 4.96875 12.5938L4.98125 12.6125V12.6313L4.9875 12.6562C4.91875 12.7063 4.8875 12.7812 4.825 12.825L4.7875 12.85L4.75 12.9812L4.66875 13.0063V13.0125C4.59375 13.0062 4.5125 12.9938 4.44375 12.9875L4.2875 13.0063C4.175 13.0125 4.075 12.9437 4.05 12.8375L3.93125 12.8687L3.81875 12.8562C3.81875 12.8562 3.875 12.8125 3.81875 12.8C3.7625 12.7875 3.7625 12.7875 3.68125 12.8313C3.6 12.875 3.74375 12.8813 3.68125 12.8938C3.59375 12.9062 3.50625 12.9062 3.425 12.9C3.3625 12.9 3.3 12.9 3.2375 12.9187C3.15 12.9312 3.0875 12.9187 3.00625 12.9312C2.94375 12.9375 2.90625 12.95 2.8375 12.9563L2.7375 12.9625C2.60625 12.9625 2.48125 12.9375 2.4 12.9438C2.31875 12.95 1.99375 13.0125 1.96875 12.9688C1.94375 12.925 1.7375 12.9812 1.60625 13.0625L1.58125 13.0063L1.25625 13.1125C1.15625 13.1313 1.05625 13.1687 0.975 13.2312L0.9375 13.25L0.89375 13.2C0.8125 13.25 0.7375 13.3 0.6625 13.3625L0.6 13.4625C0.5 13.5437 0.4 13.625 0.30625 13.7188H0.2C0.13125 14.0062 0.09375 14.2937 0.08125 14.5875C0.075 14.6812 0.05625 14.9563 0.05625 15.0688V15.1562C0.05625 15.2125 0.05625 15.275 0.0625 15.3313L0.08125 15.4625L0.0625 15.5688C0.0625 15.5688 0.0375 15.5312 0.01875 15.5437C0.0125 15.55 0.00625 15.5562 0.00625 15.5625C0 15.5813 0 15.6062 0 15.625C0.00625 15.6562 0.01875 15.6813 0.03125 15.7063C0.06875 15.7937 0.08125 15.65 0.09375 15.7063C0.1 15.7937 0.09375 15.8875 0.075 15.975C0.06875 16.0375 0.06875 16.1063 0.075 16.1688C0.075 16.2625 0.0625 16.3188 0.06875 16.4062L0.08125 16.575V16.6812L0.04375 16.95L0.0375 17C0.0375 17.0875 0.03125 17.175 0.01875 17.2563L0.06875 17.3813L0.13125 17.7C0.14375 17.7875 0.1625 17.875 0.19375 17.9562L0.24375 18.075V18.1938C0.24375 18.1938 0.19375 18.1438 0.1875 18.2C0.1875 18.2563 0.1875 18.2625 0.2375 18.3375C0.2875 18.4125 0.275 18.2687 0.3 18.3312L0.30625 18.3563C0.325 18.4375 0.3375 18.5188 0.3375 18.6C0.35 18.6938 0.375 18.7938 0.4 18.8813C0.43125 19.0125 0.44375 19.1063 0.48125 19.225C0.50625 19.3063 0.53125 19.3812 0.56875 19.4562L0.575 19.475L0.59375 19.5125C0.64375 19.625 0.71875 19.725 0.8125 19.8062C0.85625 19.8438 0.90625 19.8813 0.95625 19.9125L1.075 20.0312C1.075 20.0312 0.98125 20.0125 1.0375 20.075C1.09375 20.1375 1.09375 20.1375 1.225 20.1688C1.35625 20.2 1.175 20.0875 1.2625 20.1125L1.6 20.275C1.6875 20.3125 1.775 20.3313 1.86875 20.3438C1.975 20.375 2.0875 20.3938 2.2 20.4125L2.45 20.4312L2.5625 20.4438L2.88125 20.5125C2.94375 20.5188 3.15 20.525 3.15625 20.5688C3.1625 20.6125 3.2875 20.6313 3.4 20.5938V20.6625H3.63125L3.825 20.675L3.85 20.6812V20.75L4.01875 20.775L4.0875 20.75C4.1625 20.775 4.2375 20.8062 4.30625 20.8375C4.3875 20.8187 4.34375 20.7937 4.41875 20.7437C4.4875 20.6875 4.54375 20.6188 4.58125 20.5375C4.68125 20.55 4.775 20.55 4.875 20.5375C5.08125 20.5188 4.875 20.5375 5.1125 20.4688C5.1375 20.4625 5.15625 20.45 5.175 20.4438L5.21875 20.4813L5.3375 20.5375C5.48125 20.6125 5.40625 20.7938 5.40625 20.7938L5.50625 20.825L5.575 20.8875C5.575 20.8875 5.5125 20.9 5.54375 20.9312C5.575 20.9688 5.575 20.9688 5.65625 20.9688C5.7375 20.975 5.64375 20.9 5.69375 20.9125C5.7625 20.9438 5.81875 20.9875 5.86875 21.0375C5.9125 21.0688 5.95625 21.0938 6 21.1187C6.0625 21.1562 6.09375 21.1938 6.15625 21.2188C6.2 21.2375 6.2375 21.2625 6.275 21.2812L6.34375 21.3375C6.41875 21.4062 6.49375 21.4937 6.525 21.525C6.55625 21.5562 6.7 21.65 6.68125 21.6938C6.6625 21.7375 6.74375 21.8063 6.83125 21.825L6.79375 21.8813L6.9375 21.9813L7.05625 22.0812L7.06875 22.1L7.03125 22.1562L7.125 22.2563L7.18125 22.275C7.21875 22.3375 7.25 22.4062 7.275 22.4688L7.25625 22.5375C7.4 22.55 7.54375 22.575 7.68125 22.6187C7.7625 22.65 7.84375 22.6812 7.91875 22.7188L7.98125 22.75C8.025 22.7687 8.06875 22.7875 8.1125 22.8062L8.2125 22.8375L8.28125 22.9C8.28125 22.9 8.24375 22.9062 8.24375 22.9312C8.24375 22.9375 8.25 22.9438 8.25 22.95C8.2625 22.9625 8.275 22.975 8.2875 22.9813C8.3125 22.9875 8.3375 22.9875 8.3625 22.9875C8.44375 22.9875 8.35 22.9187 8.4 22.9312C8.46875 22.9625 8.525 23.0063 8.58125 23.0562C8.61875 23.0875 8.66875 23.1188 8.7125 23.1375C8.775 23.175 8.80625 23.2125 8.86875 23.2437C8.9125 23.2625 8.95 23.2875 8.9875 23.3062L9.05625 23.3563C9.1125 23.4062 9.1625 23.4625 9.2125 23.5187L9.2375 23.5438C9.29375 23.5813 9.34375 23.6313 9.3875 23.6875L9.49375 23.7125C9.575 23.7437 9.65625 23.775 9.73125 23.8125C9.79375 23.85 9.85625 23.875 9.925 23.9L10.025 23.9312L10.0938 23.9937C10.0938 23.9937 10.0312 24.0063 10.0625 24.0375C10.0938 24.075 10.0938 24.075 10.175 24.075C10.2563 24.075 10.1625 24.0062 10.2125 24.0187L10.2312 24.025C10.2875 24.0562 10.3438 24.0938 10.3875 24.1375C10.4312 24.1688 10.475 24.2 10.5188 24.2188C10.5813 24.2563 10.6125 24.2938 10.675 24.325C10.7375 24.3563 10.75 24.3625 10.7937 24.3875L10.8062 24.3937L10.825 24.4C10.8875 24.4375 10.95 24.4625 11.0188 24.4875L11.1187 24.5187L11.1875 24.5812C11.1875 24.5812 11.125 24.5938 11.1562 24.625C11.1875 24.6625 11.1875 24.6625 11.2688 24.6625C11.35 24.6625 11.2562 24.5938 11.3062 24.6063C11.375 24.6375 11.4312 24.6813 11.4812 24.7313C11.525 24.7625 11.5688 24.7938 11.6125 24.8125C11.6813 24.85 11.7063 24.8875 11.7688 24.9188C11.8125 24.9375 11.85 24.9625 11.8875 24.9813L11.9563 25.0375C12.0312 25.1063 12.1062 25.1938 12.1375 25.225C12.1687 25.2563 12.3125 25.35 12.2937 25.3937C12.275 25.4375 12.3563 25.5063 12.4438 25.525L12.4062 25.5812L12.55 25.6812L12.6687 25.7812L12.6812 25.8L12.6438 25.8563L12.7375 25.9625L12.7937 25.9813C12.825 26.0438 12.8563 26.1063 12.8813 26.1688C12.9438 26.1938 12.9312 26.15 13.0125 26.1562C13.0938 26.15 13.1687 26.125 13.2375 26.0812C13.2937 26.1437 13.3625 26.2062 13.4312 26.25C13.5812 26.35 13.4312 26.25 13.6375 26.3312C13.8438 26.4125 13.8313 26.3062 13.9688 26.4375C14.0312 26.5063 14.1125 26.5625 14.2063 26.5875C14.25 26.5812 14.3 26.5812 14.3438 26.5875C14.3875 26.5938 14.4313 26.5938 14.475 26.5875C14.475 26.5875 14.5437 26.6125 14.6062 26.5063C14.6687 26.3938 14.6688 26.5875 14.6938 26.5187C14.8063 26.4375 14.8875 26.3312 14.9375 26.2062C14.9438 26.2375 14.9688 26.275 15.0688 26.3687C15.1375 26.4375 15.1 26.4562 15.25 26.3687C15.3125 26.2875 15.375 26.2125 15.4438 26.1375C15.5188 26.1188 15.4938 25.95 15.5688 26.0063C15.6875 25.7688 15.8063 25.5187 15.9125 25.25L16.0438 24.9875L16.2313 24.475L16.2625 24.3875C16.3 24.125 16.375 23.875 16.5 23.6375C16.5 23.6375 16.5 24.025 16.6313 23.4688C16.7063 23.1437 16.7375 22.8062 16.7188 22.475C16.7625 22.0688 16.825 21.6687 16.9188 21.2687C17 20.9375 17.0312 20.5875 17.0125 20.25C17.0375 19.7375 17.05 19.225 17.0562 18.7188L17.0187 18.35H17.0812L17.0875 18.325L17.1125 18.1187L17.1187 17.8875H17.1812C17.1437 17.7813 17.1625 17.6375 17.2062 17.6313C17.25 17.625 17.2563 17.4 17.2625 17.3375C17.2688 17.275 17.3062 17.1313 17.3188 17V16.8875C17.3188 16.8188 17.3125 16.775 17.3062 16.7062C17.3625 16.6812 17.3813 16.6187 17.375 16.525ZM14.2 24.2L14.2312 24.2062C14.225 24.2188 14.2312 24.2125 14.2375 24.25L14.2 24.2ZM14.9875 20.4C14.975 20.4812 14.975 20.5563 14.975 20.6375C14.975 20.75 14.95 20.825 14.95 20.925V21.1375L14.9312 21.2687C14.9 21.425 14.85 21.5875 14.8313 21.65C14.8125 21.7125 14.7812 21.975 14.7375 21.9813C14.6875 21.9813 14.6562 22.1437 14.675 22.275L14.6125 22.2625L14.5688 22.525L14.5125 22.75L14.5 22.7812L14.4312 22.7687L14.3562 22.9625V23.05C14.3062 23.1312 14.2562 23.2125 14.2 23.2875C14.1937 23.3875 14.2312 23.3438 14.25 23.45C14.275 23.5438 14.3187 23.6375 14.3875 23.7125C14.3375 23.8312 14.3 23.95 14.2688 24.075L14.2563 24.1313C14.2313 24.1 14.2 24.075 14.1687 24.05C14.0125 23.925 13.8313 23.8375 13.6375 23.7875V23.7938C13.425 23.6688 13.2312 23.5187 13.0562 23.3375C12.9125 23.1812 12.7375 23.0625 12.5437 22.9875L11.75 22.4937L11.5375 22.4062L11.575 22.35L11.5688 22.3375L11.475 22.25L11.3562 22.1688L11.3938 22.1125C11.3188 22.1125 11.2562 22.0438 11.275 22.0063C11.2937 21.9625 11.1812 21.8875 11.1562 21.8625C11.1313 21.8375 11.075 21.7625 11.0125 21.7L10.9563 21.6562C10.925 21.6375 10.8875 21.6188 10.8562 21.6063C10.8062 21.5813 10.7875 21.5437 10.7312 21.5187C10.6937 21.5062 10.6562 21.4812 10.625 21.4562C10.5813 21.4125 10.5375 21.3813 10.4812 21.3563C10.4375 21.35 10.5125 21.4062 10.4438 21.4125C10.375 21.4188 10.375 21.4125 10.35 21.3875C10.325 21.3625 10.3813 21.3438 10.3813 21.3438L10.325 21.2875L10.2375 21.2687C10.1813 21.2562 10.125 21.2312 10.075 21.2062C10.0125 21.175 9.94375 21.15 9.875 21.1313L9.75625 21.1C9.625 20.9688 9.4875 20.8313 9.3375 20.6938L9.3 20.75L8.9375 20.4312L8.875 20.375C8.725 20.3375 8.575 20.2812 8.44375 20.2062C8.44375 20.2062 8.54375 20.2313 8.53125 20.1938L8.43125 20.15C8.375 20.1375 8.35625 20.125 8.36875 20.1063L8.38125 20.0875L8.3125 20.0625C8.275 20.0625 8.2375 20.0625 8.2 20.05L8.1 20L7.88125 19.9C7.86875 19.875 7.85 19.8562 7.8375 19.8375C7.825 19.8187 7.79375 19.8125 7.775 19.8312C7.76875 19.8312 7.76875 19.8375 7.76875 19.8375L7.8375 19.9188C7.7375 19.8625 7.63125 19.8 7.53125 19.725L7.51875 19.6375C7.51875 19.6375 7.56875 19.625 7.54375 19.6063C7.5125 19.575 7.475 19.5625 7.43125 19.5625L7.41875 19.5812L7.38125 19.6063L7.16875 19.4375L7.1625 19.375L7.11875 19.3062L7.03125 19.2188C7.01875 19.1938 7.0125 19.1688 7.0125 19.1375L6.93125 19.0625L6.875 19.0375L6.85625 19.0125L6.825 18.975C6.8125 18.9563 6.7875 18.95 6.76875 18.9625L6.7625 18.9688L6.75625 18.975L6.825 19.0562C6.725 19 6.61875 19.025 6.51875 18.9562L6.50625 18.9V18.875C6.50625 18.875 6.55625 18.8625 6.53125 18.8375C6.5 18.8062 6.4625 18.7937 6.41875 18.8L6.40625 18.8188L6.39375 18.8312L6.375 18.8438C6.3375 18.8188 6.29375 18.8 6.24375 18.7812C6.23125 18.7688 6.21875 18.75 6.20625 18.7375C6.125 18.7187 6.05 18.6875 5.975 18.6562C5.9375 18.5938 5.83125 18.6812 5.85 18.5938C5.76875 18.5875 5.6875 18.5813 5.60625 18.575L5.56875 18.5375C5.4875 18.5938 5.5625 18.45 5.5 18.5187C5.5 18.5187 5.475 18.4625 5.29375 18.4937C5.24375 18.5 5.2 18.5125 5.15625 18.525L5.05625 18.5063L4.68125 18.4875L4.61875 18.4813C4.475 18.5688 4.1 18.4562 4.1 18.4562C4.1 18.4562 4.3375 18.3625 3.975 18.3687C3.775 18.3687 3.575 18.4062 3.39375 18.475C3.1625 18.4938 2.93125 18.4688 2.70625 18.4C2.68125 18.3187 2.625 18.3813 2.6125 18.3813C2.55 18.3813 2.525 18.3312 2.5 18.275C2.48125 18.25 2.46875 18.275 2.4375 18.1812L2.5 18.175V18.1562V18.025L2.48125 17.8813L2.55 17.875C2.5 17.8125 2.50625 17.725 2.55 17.7125C2.59375 17.7 2.58125 17.5625 2.58125 17.525L2.61875 17.3125V17.25C2.61875 17.2063 2.60625 17.1813 2.59375 17.1375C2.5875 17.0938 2.59375 17.0438 2.5875 16.9813C2.575 16.9375 2.575 16.9 2.575 16.8563C2.5875 16.8 2.5875 16.7375 2.575 16.6812C2.55625 16.6375 2.55 16.7375 2.50625 16.6812C2.4625 16.625 2.4625 16.625 2.475 16.5875C2.4875 16.55 2.53125 16.5875 2.53125 16.5875L2.54375 16.5125L2.5125 16.4312C2.49375 16.375 2.48125 16.3188 2.48125 16.2563C2.475 16.1875 2.45625 16.1125 2.44375 16.0438L2.4 15.925L2.55625 15.3562L2.4875 15.35C2.51875 15.2625 2.53125 15.2937 2.55625 15.2688H2.56875C2.525 15.2375 2.50625 15.1875 2.51875 15.1375C2.525 15.1625 2.5375 15.1813 2.55625 15.1938V15.1625C2.55 15.1375 2.55625 15.1375 2.56875 15.1562L2.5875 15.175V15.1562C2.58125 15.1375 2.575 15.1188 2.575 15.1L2.59375 15.0813C2.60625 15.0625 2.61875 15.0437 2.63125 15.0312L2.65625 15.0562C2.66875 15.0687 2.6625 15.0188 2.6625 15.0188L2.63125 14.9937C2.71875 14.9688 2.80625 14.9563 2.9 14.95L2.96875 15.0063C2.96875 15.0063 2.9375 15.05 2.96875 15.05C3.0125 15.0563 3.05 15.0375 3.08125 15.0125V14.9937L3.0625 14.9375H3.35L3.4 14.9812L3.48125 15.0063L3.6125 15.025C3.6375 15.0375 3.6625 15.0563 3.68125 15.0813L3.8 15.0938L3.86875 15.0813L3.9 15.0938L3.95 15.1062C3.975 15.1187 4 15.1062 4.0125 15.0813C4.0125 15.0813 4.0125 15.0813 4.0125 15.075V15.0625L3.90625 15.0375C4.03125 15.025 4.1125 14.95 4.24375 14.95L4.2875 14.9875L4.30625 15.0063C4.30625 15.0063 4.26875 15.0437 4.30625 15.05C4.35 15.0563 4.39375 15.05 4.43125 15.0188V15L4.4375 14.9812L4.44375 14.9563C4.53125 14.9563 4.60625 14.9187 4.69375 14.925H4.7375L4.85 14.8438L4.93125 14.875L5.06875 14.775C5.09375 14.7875 5.11875 14.8063 5.1375 14.8313C5.2 14.8375 5.25 14.7562 5.2875 14.7625L5.375 14.775C5.41875 14.6812 5.4375 14.8438 5.45 14.75C5.45 14.75 5.5125 14.7812 5.6625 14.6562C5.8125 14.5312 5.8125 14.5063 5.8125 14.5063C5.8125 14.5063 5.8375 14.4937 5.875 14.4187C5.875 14.4125 5.875 14.4125 5.875 14.4062C5.9875 14.3438 6.1 14.2688 6.20625 14.2L6.3 14.1C6.41875 13.9813 6.56875 14.1062 6.56875 14.1062L6.63125 14.0188L6.71875 13.9688C6.71875 13.9688 6.70625 14.0312 6.75 14.0125C6.79375 13.9937 6.79375 13.9937 6.825 13.9187C6.85625 13.8438 6.75625 13.9125 6.7875 13.8625C6.8375 13.8063 6.9 13.7625 6.96875 13.7312C7.0125 13.7 7.05625 13.6688 7.09375 13.6313C7.15 13.5813 7.19375 13.5625 7.25 13.5125C7.30625 13.4625 7.3125 13.45 7.35 13.4125L7.425 13.3625C7.51875 13.3125 7.63125 13.2688 7.66875 13.25C7.70625 13.225 7.85 13.125 7.88125 13.1562C7.9125 13.1875 8.0125 13.1312 8.05625 13.0562L8.1 13.125L8.24375 13.0188L8.3875 12.9375L8.40625 12.9312L8.44375 12.9875L8.575 12.9312L8.6125 12.8813C8.6875 12.8688 8.75625 12.8625 8.83125 12.8562L8.8875 12.9C8.95 12.7625 9.025 12.6375 9.1125 12.5125C9.16875 12.4437 9.23125 12.3813 9.3 12.3188L9.35 12.2688C9.3875 12.2375 9.41875 12.2 9.45 12.1625L9.51875 12.075L9.60625 12.025C9.60625 12.025 9.6 12.0688 9.61875 12.0688H9.6375C9.65625 12.0625 9.66875 12.0562 9.68125 12.0437C9.69375 12.025 9.70625 12 9.7125 11.975C9.74375 11.9 9.64375 11.9688 9.675 11.9187C9.725 11.8687 9.7875 11.825 9.85625 11.7875C9.9 11.7563 9.94375 11.725 9.98125 11.6875C10.0375 11.6375 10.0875 11.625 10.1438 11.575C10.1938 11.525 10.2062 11.5125 10.2437 11.4812L10.3188 11.4312C10.3938 11.3937 10.475 11.3625 10.525 11.3375L10.5625 11.3188C10.6187 11.275 10.6875 11.2438 10.7563 11.225L10.8188 11.1313C10.875 11.0625 10.9375 11 11.0063 10.9375C11.0625 10.8875 11.1125 10.8375 11.1625 10.7812L11.2312 10.6938L11.3188 10.6438C11.3188 10.6438 11.3063 10.7063 11.35 10.6875C11.4 10.6687 11.3937 10.6687 11.4312 10.5938C11.4625 10.5188 11.3625 10.5875 11.3938 10.5375L11.4062 10.525C11.4563 10.4812 11.5125 10.4438 11.575 10.4125C11.6187 10.3813 11.6625 10.35 11.7 10.3125C11.7562 10.2625 11.8063 10.25 11.8625 10.2C11.8938 10.1687 11.9312 10.1375 11.9688 10.1062L11.9812 10.1L12 10.0813C12.0562 10.0375 12.1062 9.98125 12.1562 9.925L12.225 9.8375L12.3125 9.79375C12.3125 9.79375 12.3 9.85625 12.3438 9.8375C12.3875 9.81875 12.3938 9.81875 12.425 9.74375C12.4563 9.66875 12.3562 9.73125 12.3875 9.6875C12.4437 9.6375 12.5063 9.59375 12.5688 9.5625C12.6188 9.53125 12.6562 9.5 12.6938 9.4625C12.75 9.4125 12.8 9.4 12.8562 9.35C12.8938 9.31875 12.925 9.2875 12.9625 9.25625L13.0375 9.20625C13.1313 9.15625 13.2438 9.11875 13.2875 9.10625C13.3313 9.0875 13.475 8.9875 13.5063 9.01875C13.5375 9.05 13.6375 9 13.6875 8.925L13.725 8.98125L13.875 8.88125L14.0188 8.80625L14.0375 8.8L14.075 8.85625L14.2125 8.80625L14.25 8.75625H14.3L14.3562 8.9C14.4062 9.025 14.3625 9.1625 14.2563 9.24375L14.3188 9.3875L14.3375 9.53125C14.3375 9.53125 14.2812 9.46875 14.2812 9.54375C14.2812 9.61875 14.2812 9.61875 14.3438 9.70625C14.4062 9.8 14.375 9.625 14.4062 9.69375C14.4375 9.8 14.4625 9.90625 14.4688 10.0188C14.4812 10.1 14.4938 10.175 14.5188 10.25C14.55 10.3625 14.5438 10.4313 14.5688 10.5312C14.5875 10.6062 14.6 10.6562 14.6187 10.7375L14.6375 10.8687C14.65 11.025 14.6375 11.1937 14.6438 11.2625C14.65 11.3312 14.6812 11.5875 14.6375 11.6062C14.5938 11.6187 14.6 11.7875 14.65 11.9062L14.5875 11.9125L14.6187 12.175L14.625 12.4125L14.6187 12.4438L14.5562 12.45L14.5375 12.6562L14.5625 12.7437C14.5437 12.8437 14.5125 12.9375 14.4812 13.0312L14.4187 13.0688C14.5062 13.2563 14.5813 13.45 14.6375 13.65C14.6562 13.7312 14.6875 13.875 14.7063 14.0375L14.725 14.1375L14.7625 14.35L14.8 14.5063L14.7937 14.65C14.7937 14.65 14.7625 14.6063 14.75 14.6313C14.7437 14.6375 14.7437 14.6438 14.7437 14.6562C14.7375 14.6812 14.7375 14.7063 14.7437 14.7312C14.7562 14.7688 14.7688 14.8 14.7812 14.8313C14.825 14.9313 14.8313 14.75 14.85 14.8313C14.8625 14.9438 14.8687 15.05 14.8562 15.1625C14.8562 15.2438 14.8562 15.3187 14.8687 15.4C14.8812 15.5125 14.8625 15.5875 14.8687 15.6875L14.8875 15.9V16.0375C14.875 16.1625 14.8562 16.2937 14.8438 16.375L14.8375 16.4375C14.8375 16.5437 14.825 16.65 14.8062 16.7563L14.8438 16.9188C14.8562 17.0063 14.875 17.15 14.8875 17.3188C14.8938 17.4313 14.9 17.5375 14.9187 17.6437L14.95 17.8L14.9375 17.95C14.9375 17.95 14.8938 17.875 14.8813 17.95C14.8688 18.025 14.8687 18.025 14.9062 18.1313C14.9438 18.2375 14.9563 18.0563 14.975 18.1313V18.1625C14.9813 18.2625 14.975 18.3687 14.9625 18.4688C14.9562 18.55 14.9562 18.6312 14.9625 18.7125C14.9625 18.825 14.95 18.9 14.95 19.0063L14.9563 19.2188V19.275C14.9563 19.3812 14.9625 19.4938 14.975 19.6L15 19.7563L14.9812 19.9C14.9812 19.9 14.9438 19.825 14.925 19.9C14.9125 19.975 14.9125 19.9688 14.9438 20.075C14.975 20.1813 15 20 15.0125 20.075C15.0125 20.1813 15.0063 20.2937 14.9875 20.4Z" fill="#0041E6"/>
</g>
<defs>
<clipPath id="clip0_7664_50173">
<rect width="32" height="32" fill="white"/>
</clipPath>
</defs>
</svg>
