<svg width="32" height="32" viewBox="0 0 32 32" fill="none" xmlns="http://www.w3.org/2000/svg">
<g clip-path="url(#clip0_7664_50205)">
<path d="M31.9875 20.6938C31.9812 20.6188 31.9937 20.5625 31.9875 20.475C31.975 20.4188 31.975 20.3563 31.9813 20.3C31.9938 20.2188 31.9938 20.1375 31.9813 20.05C31.9625 19.9938 31.9563 20.125 31.9125 20.05C31.8687 19.975 31.8687 19.975 31.8813 19.9188C31.8938 19.8625 31.9375 19.9188 31.9375 19.9188L31.95 19.8125L31.9188 19.6938C31.9 19.6125 31.8875 19.5375 31.8813 19.4563C31.8687 19.3563 31.8562 19.2625 31.8312 19.1625L31.775 19C31.8125 18.7438 31.8438 18.4813 31.8813 18.1938H31.8125L31.8687 17.525L31.8813 17.45C31.825 17.2438 31.7875 17.025 31.775 16.8125C31.775 16.8125 31.8062 16.95 31.8375 16.9063V16.9L31.8125 16.75C31.7938 16.675 31.7875 16.6438 31.8125 16.6438H31.8375L31.8188 16.5375C31.7938 16.4938 31.775 16.4438 31.7625 16.3938L31.75 16.2313L31.7062 15.9C31.7188 15.8688 31.7313 15.8313 31.7313 15.7938C31.7438 15.7188 31.6938 15.7063 31.6938 15.7063L31.6625 15.85C31.6562 15.6813 31.65 15.5188 31.65 15.3438L31.7125 15.2625C31.7125 15.2625 31.75 15.3063 31.7563 15.2625C31.7625 15.2063 31.7563 15.15 31.725 15.1H31.7062L31.6625 15.0813L31.6812 14.7L31.7313 14.6375L31.7625 14.5313L31.7812 14.3625C31.7938 14.3313 31.8125 14.3 31.8375 14.2813L31.85 14.125L31.8375 14.0375L31.85 14L31.8625 13.9375C31.875 13.8813 31.85 13.8625 31.8312 13.8563H31.825L31.7938 14C31.7875 13.8313 31.7062 13.7375 31.7062 13.5625L31.7437 13.5063L31.7625 13.4813C31.7625 13.4813 31.8 13.5313 31.8062 13.4813C31.8125 13.425 31.8062 13.3688 31.775 13.3188H31.7563L31.7437 13.3063L31.7188 13.2938C31.7188 13.1813 31.675 13.0875 31.6812 12.9813V12.925L31.6 12.7813L31.6313 12.675L31.525 12.5063C31.5375 12.475 31.5562 12.4438 31.5812 12.425C31.5875 12.35 31.5 12.2813 31.5063 12.2375L31.5187 12.1313C31.425 12.0813 31.5875 12.0563 31.4937 12.0438C31.4937 12.0438 31.525 11.9688 31.3875 11.7813C31.25 11.5938 31.2313 11.6063 31.2313 11.6063C31.2313 11.6063 31.2188 11.5813 31.1375 11.5313C31.0563 11.4875 30.9813 11.5438 30.9688 11.6625C30.9625 11.7813 30.8312 11.6938 30.8312 11.6938C30.8312 11.6938 30.775 11.7188 30.7687 11.8688L30.7188 11.8875C30.6812 11.825 30.65 11.7625 30.6187 11.6938C30.5688 11.5688 30.4125 11.6438 30.3687 11.6375C30.325 11.6313 30.0875 11.4438 30.05 11.6125C30.025 11.7313 30.0188 11.85 30.0375 11.9625C30.0375 11.9625 29.8625 11.8688 29.8188 12.1L29.8 12.1875C29.75 12.1938 29.7062 12.2 29.6562 12.2063C29.6562 12.2063 29.7625 12.05 29.5312 12.1688C29.3937 12.2375 29.275 12.35 29.1875 12.4813C29.0375 12.5938 28.8687 12.6813 28.6875 12.7375C28.5312 12.7813 28.3938 12.8625 28.2875 12.9875L27.7125 13.4L27.5938 13.5375L27.5562 13.4813H27.5438L27.45 13.5188L27.3563 13.575L27.3188 13.5188C27.3 13.5813 27.2312 13.6063 27.2062 13.5688C27.1812 13.5313 27.0875 13.5938 27.0625 13.6C27.0375 13.6125 26.9562 13.6188 26.9 13.6438L26.8563 13.6688C26.8313 13.6875 26.8125 13.7063 26.7938 13.7313C26.7625 13.7625 26.7313 13.7625 26.6938 13.7938C26.6562 13.825 26.6562 13.8375 26.6187 13.8563C26.5812 13.875 26.525 13.9 26.5063 13.9313C26.4875 13.9625 26.5563 13.9313 26.5438 13.9875C26.5312 14.0438 26.5312 14.0438 26.5 14.05C26.4688 14.0563 26.4688 14.0063 26.4688 14.0063L26.4125 14.0313L26.3813 14.0938C26.3563 14.1313 26.3312 14.1688 26.3 14.2C26.2625 14.2438 26.225 14.2875 26.1938 14.3313L26.1562 14.425C26.025 14.475 25.8813 14.5313 25.7437 14.5938L25.7812 14.65L25.45 14.8125L25.4125 14.825C25.3563 14.9313 25.2875 15.0313 25.1938 15.1125C25.1938 15.1125 25.2313 15.0438 25.2 15.0313L25.15 15.1C25.1313 15.1375 25.1188 15.15 25.1063 15.1313L25.0938 15.1125L25.0562 15.1625C25.05 15.1938 25.0437 15.225 25.025 15.25L24.9625 15.3125L24.8438 15.45C24.825 15.45 24.8 15.4563 24.7812 15.4625C24.7375 15.475 24.7687 15.5188 24.7687 15.5188L24.85 15.5C24.7812 15.5625 24.7125 15.6188 24.6437 15.675L24.5688 15.6563C24.5688 15.6563 24.5688 15.6125 24.5438 15.625C24.5125 15.6375 24.4937 15.6688 24.4937 15.7L24.5063 15.7188L24.525 15.7625L24.4 15.8438L24.375 15.4438L24.425 15.3375C24.425 15.3375 24.4688 15.3938 24.4688 15.3375C24.475 15.2688 24.4563 15.2 24.4188 15.1375H24.4L24.3563 15.1188L24.3062 14.6313L24.3375 14.5375V14.3938L24.3062 14.1563C24.3062 14.1125 24.3125 14.0625 24.325 14.025C24.3063 13.9375 24.2812 13.8625 24.2687 13.8L24.2125 13.675L24.2 13.6188L24.175 13.5125C24.1562 13.425 24.1125 13.4063 24.0938 13.4063H24.0812C24.1062 13.4813 24.125 13.55 24.1437 13.625C24.025 13.425 23.8937 13.2313 23.75 13.05L23.7313 12.9438L23.7188 12.8938C23.7188 12.8938 23.7938 12.9375 23.7563 12.8688C23.7125 12.7813 23.6437 12.7125 23.5625 12.6625L23.5438 12.675H23.5C23.3687 12.5438 23.2313 12.425 23.075 12.3188L23 12.2563C22.9188 12.225 22.825 12.2063 22.7437 12.1875L22.6 12.0688C22.4937 12.05 22.3938 12.0438 22.2875 12.0438C22.2437 12.0125 22.2 11.9813 22.1625 11.9375C22.0312 11.8875 21.9 11.95 21.825 11.9375C21.75 11.925 21.6875 11.9125 21.6437 11.9063C21.6375 11.9125 21.6313 11.9063 21.625 11.9125C21.3813 11.8625 21.125 11.8188 20.8625 11.775L20.5875 11.7L20.0688 11.6125L19.9813 11.6C19.7313 11.6125 19.475 11.5813 19.2375 11.4938C19.2375 11.4938 19.4375 11.4625 19.3188 11.425C19.425 11.35 19.525 11.2813 19.6063 11.225L19.6875 11.1625L19.8813 10.9813C19.9875 10.8813 20.0625 10.7938 20.1125 10.7563L20.25 10.5063L20.55 9.96876C20.6 9.87501 20.6812 9.73126 20.625 9.80626C20.7188 9.66876 20.7812 9.51251 20.8188 9.35001C20.8438 9.24376 20.8625 9.13751 20.875 9.03126L20.9375 8.79376C20.9375 8.79376 20.9625 8.91876 20.9937 8.80626C21.025 8.72501 21.025 8.64376 21.0063 8.56251C20.9875 8.43126 20.9438 8.64376 20.9438 8.55001V8.51251C20.9438 8.46251 21 8.18126 21.025 8.05001C21.0437 7.91251 21.05 7.77501 21.05 7.63751C21.05 7.44376 21.0563 7.31876 21.0438 7.13751L20.9875 6.78126V6.75001L20.975 6.69376C20.9438 6.51251 20.8938 6.34376 20.8188 6.17501L20.7125 5.93751L20.6437 5.71876C20.6437 5.71876 20.725 5.81251 20.6938 5.70001C20.675 5.60001 20.625 5.51251 20.5562 5.44376C20.4438 5.30626 20.5625 5.57501 20.4937 5.46876C20.425 5.36251 20.325 5.12501 20.25 4.98751C20.1938 4.87501 20.125 4.76251 20.0438 4.66251C19.9375 4.51251 19.875 4.41251 19.7625 4.28751C19.6813 4.19376 19.6125 4.13751 19.525 4.03751C19.475 3.98751 19.4312 3.92501 19.3813 3.88126C19.2375 3.71876 19.0875 3.56251 18.9312 3.41876C18.8438 3.33751 18.4812 3.10001 18.4875 3.05626C18.4937 3.01251 18.2563 2.85001 18.0438 2.80001L18.0688 2.73751C17.925 2.66876 17.7812 2.61251 17.6313 2.56876C17.5063 2.51876 17.375 2.46876 17.2375 2.43751L17.1875 2.41876L17.2062 2.35001C17.0938 2.30626 16.975 2.27501 16.8563 2.24376H16.7C16.5312 2.18126 16.375 2.15001 16.2313 2.10001C16.0438 2.10626 16.1437 2.13751 15.9563 2.18126C15.8125 2.21876 15.6813 2.28751 15.5688 2.38751C15.35 2.38126 15.1312 2.40626 14.9187 2.45626C14.4625 2.57501 14.9187 2.44376 14.4062 2.64376C13.9125 2.86876 14.0938 2.89376 13.6625 3.05626C13.4375 3.14376 13.2375 3.26876 13.0625 3.43126C13.0625 3.43126 12.9188 3.63126 12.8813 3.67501C12.8188 3.75001 12.7688 3.82501 12.7312 3.91251C12.7312 3.91251 12.6375 4.02501 12.7 4.10001C12.675 4.12501 12.6625 4.13751 12.6625 4.13751C12.6625 4.13751 12.6625 3.86876 12.3188 4.18126C12.2063 4.28751 12.1062 4.39376 12.0125 4.51251C11.6438 5.00001 11.3937 5.56876 11.275 6.16251L11.2437 6.48751C11.2188 6.88126 11.0312 6.98751 11.0312 6.98751L11.0562 7.24376L11.05 7.48126C11.05 7.48126 11 7.36251 10.9937 7.48126C10.9812 7.58126 11 7.68126 11.0437 7.77501C11.1 7.94376 11.0813 7.64376 11.1125 7.76876L11.1875 8.30626C11.2063 8.43751 11.2375 8.56251 11.2812 8.68751C11.3375 8.86876 11.3562 8.98751 11.425 9.14376L11.5688 9.46251L11.6562 9.66876C11.7375 9.87501 11.8375 10.075 11.9438 10.2688C12.0563 10.425 12.1625 10.5938 12.25 10.7625C12.2312 10.7938 12.325 10.925 12.4438 11.0438H12.3875C12.3 11.05 12.2375 11.0375 12.1375 11.0438C12.0687 11.05 12 11.0563 11.9312 11.05C11.8375 11.0375 11.7375 11.0375 11.6438 11.05C11.5813 11.0688 11.7312 11.075 11.6438 11.1188C11.5563 11.1625 11.5562 11.1625 11.4937 11.15C11.4312 11.1375 11.4937 11.0938 11.4937 11.0938L11.3687 11.0813L11.2375 11.1125C11.1438 11.1313 11.0562 11.15 10.9625 11.1563C10.8187 11.1688 10.7 11.1938 10.625 11.2063L10.4375 11.2625L9.7375 11.2063L9.98125 10.9938L10.0938 10.7938L10.4 10.3375C10.5 10.2063 10.575 10.0563 10.625 9.90001C10.65 9.81876 10.6687 9.74376 10.6875 9.66251L10.7688 9.46251C10.7688 9.46251 10.775 9.58126 10.8188 9.48126C10.8563 9.40001 10.875 9.31251 10.8562 9.22501C10.85 9.07501 10.7812 9.31876 10.7937 9.21251L10.8 9.16876L10.875 8.75626C10.8875 8.64376 10.8938 8.53126 10.8875 8.41876C10.875 8.26251 10.9 8.15626 10.8813 8.01251L10.8375 7.72501V7.70001L10.825 7.65626C10.8 7.51251 10.7563 7.37501 10.6938 7.24376C10.6625 7.18126 10.6375 7.11251 10.6062 7.05001L10.5562 6.86251C10.5562 6.86251 10.6312 6.93751 10.6062 6.84376C10.5875 6.75001 10.5813 6.74376 10.4875 6.63751C10.3938 6.52501 10.4875 6.75001 10.425 6.66251C10.3625 6.57501 10.2875 6.38126 10.2312 6.26876C10.1812 6.17501 10.1188 6.08126 10.05 6.00001C9.9625 5.88126 9.9125 5.79376 9.825 5.68751L9.6375 5.48751C9.6 5.44376 9.55625 5.40001 9.51875 5.35626C9.38125 5.20001 9.21875 5.03126 9.15625 4.96876C9.0875 4.90626 8.7875 4.70626 8.7875 4.66876C8.79375 4.63126 8.6 4.48751 8.41875 4.46251L8.44375 4.40001C8.325 4.34376 8.20625 4.30001 8.08125 4.26251C7.975 4.21876 7.86875 4.18126 7.7625 4.15001L7.725 4.13126L7.7375 4.06251C7.64375 4.02501 7.55 4.00001 7.45 3.97501H7.3125L6.925 3.83751C6.76875 3.85001 6.85 3.88126 6.7 3.92501C6.58125 3.96251 6.46875 4.03751 6.3875 4.13126C6.20625 4.12501 6.03125 4.13751 5.85625 4.18751C5.48125 4.28126 5.85625 4.17501 5.44375 4.35001C5.04375 4.54376 5.2 4.57501 4.84375 4.70626C4.6625 4.77501 4.49375 4.88126 4.35625 5.01876C4.3125 5.08751 4.26875 5.16251 4.21875 5.22501C4.16875 5.28751 4.13125 5.35626 4.10625 5.43126C4.10625 5.43126 4.03125 5.52501 4.1 5.60001L4.08125 5.61876C4.08125 5.62501 4.06875 5.37501 3.76875 5.62501C3.675 5.70626 3.5875 5.80001 3.50625 5.90001C3.2 6.29376 2.9875 6.75001 2.88125 7.24376L2.8625 7.51251C2.875 7.67501 2.79375 7.83126 2.65625 7.91251L2.68125 8.11876L2.66875 8.31251C2.66875 8.31251 2.61875 8.21876 2.6125 8.31251C2.6 8.39376 2.61875 8.47501 2.65625 8.55001C2.7125 8.68751 2.69375 8.44376 2.725 8.54376C2.75 8.64376 2.7625 8.85626 2.78125 8.98126C2.79375 9.08751 2.81875 9.19376 2.85625 9.29376C2.90625 9.43751 2.9125 9.53751 2.96875 9.66876L3.0875 9.93126L3.15625 10.1C3.21875 10.2688 3.29375 10.4375 3.375 10.6C3.41875 10.6875 3.6375 10.9813 3.6125 11.0125C3.59375 11.05 3.725 11.2438 3.875 11.3375L3.825 11.3813C3.91875 11.4688 4.00625 11.5625 4.10625 11.6438C4.13125 11.6688 4.1625 11.6938 4.19375 11.7188C4.15625 11.7313 4.11875 11.7438 4.08125 11.75L4.00625 11.7188L3.96875 11.7C3.96875 11.7 4.01875 11.6563 3.9625 11.6563C3.9 11.6563 3.83125 11.675 3.775 11.7125V11.7313L3.76875 11.75L3.75625 11.775C3.625 11.7875 3.51875 11.8563 3.39375 11.875L3.325 11.8813L3.16875 11.9938H3.04375L2.8625 12.1313C2.825 12.125 2.7875 12.1125 2.75 12.0938C2.6625 12.1 2.6 12.2 2.54375 12.2125L2.4125 12.2313C2.375 12.3375 2.30625 12.1938 2.30625 12.2813C2.30625 12.2813 2.2 12.275 2.01875 12.4563L2.0125 12.4688C1.98125 12.4813 1.95 12.4813 1.91875 12.4938C1.40625 12.725 1 13.1438 0.79375 13.6688L0.725 13.9313C0.6625 14.2375 0.46875 14.275 0.46875 14.275V14.4688L0.4625 14.6875C0.4625 14.6875 0.425 14.6 0.40625 14.6813C0.3875 14.7625 0.3875 14.7625 0.41875 14.8875C0.45 15.0125 0.475 14.8063 0.4875 14.8938C0.4875 15.0125 0.48125 15.1375 0.4625 15.2563C0.45625 15.3375 0.45625 15.425 0.4625 15.5063C0.46875 15.625 0.45 15.7 0.4625 15.8L0.48125 16V16.1313C0.46875 16.2813 0.4375 16.4438 0.43125 16.5063C0.425 16.575 0.43125 16.825 0.38125 16.8375C0.33125 16.85 0.31875 17.0063 0.3625 17.125H0.28125V17.3875L0.2625 17.625L0.25625 17.65H0.1875L0.15625 17.8563L0.175 17.9438C0.14375 18.0375 0.1125 18.1313 0.06875 18.2188L0 18.2563C0.075 18.4438 0.1375 18.6375 0.18125 18.8375C0.19375 18.9188 0.21875 19.0563 0.23125 19.2125L0.24375 19.3188L0.275 19.525L0.30625 19.675L0.2875 19.8125C0.2875 19.8125 0.25625 19.7688 0.24375 19.7938C0.2375 19.8 0.23125 19.8063 0.23125 19.8125C0.225 19.8375 0.225 19.8625 0.23125 19.8875C0.2375 19.9188 0.25 19.95 0.26875 19.9813C0.3125 20.0813 0.31875 19.9063 0.3375 19.9813C0.35 20.0875 0.35 20.1938 0.3375 20.3C0.3375 20.375 0.3375 20.4563 0.35 20.5313C0.3625 20.6438 0.34375 20.7125 0.35 20.8125L0.36875 21.0188V21.1438C0.3625 21.2625 0.3375 21.3875 0.33125 21.4625L0.325 21.5188C0.325 21.6188 0.3125 21.7188 0.29375 21.8188L0.3375 21.975C0.35 22.0563 0.375 22.1938 0.39375 22.35C0.4 22.4563 0.4125 22.5563 0.4375 22.6625L0.475 22.8125L0.46875 22.9438C0.46875 22.9438 0.425 22.875 0.4125 22.9438C0.4 23.0125 0.4 23.0125 0.44375 23.1125C0.4875 23.2125 0.49375 23.0375 0.5125 23.1125V23.1438C0.51875 23.2375 0.51875 23.3375 0.5125 23.4313C0.5125 23.5063 0.5125 23.5875 0.525 23.6625C0.53125 23.7688 0.51875 23.8438 0.525 23.9438L0.54375 24.1438V24.1625V24.1938C0.55 24.3 0.5625 24.4 0.5875 24.5063L0.625 24.6563L0.6125 24.7938C0.6125 24.7938 0.56875 24.725 0.55625 24.7938C0.54375 24.8625 0.54375 24.8625 0.5875 24.9625C0.63125 25.0625 0.6375 24.8875 0.65625 24.9625C0.66875 25.0688 0.66875 25.175 0.65625 25.2813C0.65625 25.3563 0.65625 25.4375 0.66875 25.5125C0.675 25.6188 0.6625 25.6938 0.66875 25.7938L0.6875 26V26.1313L0.65 26.5438C0.65 26.6188 0.675 26.9188 0.6375 26.9375C0.6 26.9563 0.60625 27.1625 0.68125 27.3125L0.61875 27.325C0.64375 27.45 0.68125 27.5688 0.725 27.6875C0.7625 27.8063 0.80625 27.925 0.85625 28.0438L0.875 28.0938L0.8125 28.125L0.8875 28.2875L0.975 28.4438L1.0875 28.55C1.16875 28.6938 1.25625 28.825 1.35625 28.9563C1.5125 29.0625 1.45 28.9813 1.625 29.05C1.76875 29.0938 1.925 29.1 2.075 29.0563C2.24375 29.1625 2.425 29.2313 2.61875 29.2625C3.00625 29.3313 2.625 29.275 3.06875 29.275C3.1875 29.275 3.30625 29.25 3.41875 29.2063C3.55625 29.2125 3.69375 29.225 3.825 29.2375L4.05 29.2188C4.19375 29.1938 4.3375 29.2688 4.4 29.4L4.575 29.3688L4.7375 29.3813C4.7375 29.3813 4.65625 29.425 4.7375 29.4375C4.81875 29.45 4.81875 29.45 4.9375 29.4063C5.05625 29.3625 4.85 29.3563 4.9375 29.3375C5.0625 29.325 5.1875 29.3313 5.30625 29.3438C5.39375 29.35 5.48125 29.35 5.575 29.3438L5.9 29.35L6.1375 29.3375L6.2875 29.3438L6.725 29.4063C6.80625 29.4125 7.09375 29.4188 7.10625 29.4688C7.11875 29.5125 7.3 29.5313 7.44375 29.4938V29.5625L7.74375 29.5688L8.0125 29.5938L8.04375 29.6V29.6688L8.275 29.7125L8.38125 29.6938C8.49375 29.7313 8.60625 29.7688 8.7 29.8125L8.73125 29.8813C8.95625 29.8125 9.18125 29.7563 9.4125 29.7188C9.50625 29.7063 9.66875 29.6875 9.85 29.675L9.96875 29.6688L10.2063 29.6438L10.3813 29.6125L10.5437 29.625C10.5437 29.625 10.4938 29.65 10.5188 29.6688C10.525 29.675 10.5375 29.6813 10.5437 29.6813C10.575 29.6875 10.6 29.6875 10.6313 29.6875C10.6688 29.6813 10.7062 29.6688 10.7437 29.6563C10.8625 29.6125 10.6562 29.6063 10.7437 29.5875C10.8687 29.575 10.9938 29.575 11.1125 29.5875C11.2 29.5938 11.2938 29.5875 11.3813 29.5813H11.7063L11.9438 29.575H12.0938C12.2312 29.5875 12.375 29.6063 12.4688 29.625L12.5375 29.6313C12.6562 29.6313 12.775 29.6438 12.8875 29.6688L13.0688 29.6313C13.1625 29.6188 13.325 29.6 13.5063 29.5875C13.625 29.5813 13.75 29.5688 13.8687 29.55L14.0437 29.5188L14.2063 29.5313C14.2063 29.5313 14.125 29.575 14.2063 29.5875C14.2875 29.6 14.2875 29.6 14.4062 29.5563C14.525 29.5125 14.3188 29.5063 14.4062 29.4875H14.4375C14.55 29.4813 14.6625 29.4813 14.775 29.4875C14.8625 29.4938 14.9563 29.4875 15.0437 29.4813H15.3687L15.6062 29.4625H15.625H15.6625C15.7812 29.4563 15.9062 29.4438 16.025 29.4188L16.2 29.3813L16.3625 29.3938C16.3625 29.3938 16.2812 29.4375 16.3625 29.45C16.4312 29.4625 16.5 29.45 16.5625 29.4188C16.675 29.375 16.475 29.3688 16.5625 29.35C16.6875 29.3375 16.8125 29.3313 16.9375 29.3438C17.025 29.3438 17.1187 29.3438 17.2062 29.3313H17.5312L17.7687 29.3125H17.9188L18.3625 29.35C18.4437 29.35 18.7375 29.35 18.75 29.3875C18.7625 29.425 18.95 29.4438 19.0875 29.4V29.4688L19.3937 29.4625L19.6625 29.4688L19.7 29.475V29.5438L19.9375 29.5688L20.0438 29.5438C20.1562 29.5688 20.2625 29.6 20.3563 29.6313C20.475 29.6125 20.4125 29.5875 20.5312 29.5375C20.625 29.4938 20.7063 29.4313 20.7625 29.3563C20.8938 29.375 21.0312 29.3813 21.1625 29.3813C21.2812 29.3875 21.4 29.3938 21.5187 29.3938C21.7687 29.375 22.0125 29.3313 22.25 29.25L22.3875 29.2C22.4375 29.1688 22.5 29.125 22.5688 29.0813C22.6 29.075 22.6187 29.075 22.65 29.0688C22.7125 29.0313 22.775 28.9938 22.8438 28.9625C22.9062 28.9375 22.9688 28.9063 23.025 28.8688C23.0938 28.8563 23.1438 28.7938 23.1313 28.725V28.7188C23.1313 28.7125 23.1313 28.7125 23.1313 28.7063C23.15 28.6938 23.1562 28.6813 23.1688 28.6688C23.2188 28.675 23.2812 28.7125 23.2625 28.6688C23.2812 28.6313 23.2937 28.5938 23.3 28.5563C23.3625 28.5 23.4062 28.45 23.4062 28.45C23.4062 28.45 23.0938 29.0063 23.65 28.25C23.8625 27.9125 24 27.5313 24.0375 27.1313L24.4 25.8875C24.4688 25.6688 24.5188 25.4375 24.5375 25.2063L24.6063 25.2938L24.6125 25.3125L24.5688 25.3625L24.6187 25.4688L24.6625 25.4875C24.675 25.55 24.6875 25.6063 24.6938 25.6688L24.6625 25.7313C24.7812 25.7438 24.8938 25.7688 25.0063 25.8063C25.0688 25.8313 25.1313 25.8625 25.1875 25.9L25.2375 25.925C25.2687 25.9438 25.3062 25.9625 25.3438 25.975L25.425 26L25.475 26.0563C25.475 26.0563 25.4375 26.0625 25.4375 26.0813V26.0938C25.45 26.1125 25.45 26.1188 25.4625 26.125C25.4812 26.1313 25.5063 26.1313 25.525 26.1313C25.5938 26.1313 25.525 26.0688 25.5688 26.0813C25.6187 26.1063 25.6625 26.15 25.6938 26.1938C25.725 26.225 25.7563 26.25 25.7938 26.2625C25.8438 26.2938 25.8563 26.3313 25.9062 26.3625C25.9375 26.3813 25.9688 26.4 26 26.4188L26.05 26.4625C26.0875 26.5063 26.125 26.5563 26.1562 26.6063L26.175 26.6313C26.1937 26.6563 26.2625 26.7188 26.2812 26.7563L26.3687 26.775C26.4312 26.8 26.4937 26.8313 26.5562 26.8625C26.6062 26.8938 26.6562 26.9188 26.7062 26.9375L26.7875 26.9625L26.8375 27.0188C26.8375 27.0188 26.7812 27.0313 26.8 27.0625C26.8187 27.0938 26.8188 27.0938 26.8875 27.0938C26.9563 27.0938 26.8875 27.0313 26.9312 27.0438L26.9438 27.05C26.9875 27.0813 27.0312 27.1125 27.0625 27.1563C27.0938 27.1875 27.125 27.2063 27.1688 27.225C27.2188 27.2563 27.2375 27.2875 27.2875 27.3188C27.3188 27.3375 27.35 27.35 27.3813 27.375L27.3875 27.3813L27.4 27.3875C27.45 27.4188 27.5 27.4375 27.5562 27.4563L27.6375 27.475L27.6875 27.5313C27.6875 27.5313 27.6313 27.5438 27.6562 27.575C27.6812 27.6063 27.6812 27.6063 27.75 27.6063C27.8188 27.6063 27.75 27.5438 27.7875 27.5563C27.8375 27.5813 27.8875 27.6188 27.925 27.6625C27.9562 27.6875 27.9937 27.7125 28.0312 27.725C28.0812 27.75 28.1 27.7875 28.15 27.8125C28.1812 27.825 28.2188 27.8438 28.25 27.8625L28.3062 27.9063C28.3625 27.9625 28.4125 28.0438 28.4438 28.0688C28.4688 28.0938 28.5812 28.175 28.5625 28.2125C28.5438 28.25 28.6 28.3188 28.6812 28.3188L28.6437 28.375L28.7625 28.45L28.8563 28.5375L28.8625 28.55L28.825 28.6063L28.8937 28.6938L28.9438 28.7063C28.9688 28.7625 28.9938 28.8188 29.0125 28.875C29.0688 28.8938 29.0562 28.8563 29.125 28.85C29.2 28.8313 29.2687 28.8 29.3312 28.75C29.375 28.8063 29.4312 28.85 29.4937 28.8813C29.6187 28.9563 29.4938 28.8813 29.6688 28.925C29.8438 28.9688 29.8438 28.8688 29.9562 28.975C29.9937 29.0063 30.0312 29.0375 30.075 29.05C30.075 29.0625 30.075 29.0688 30.0938 29.0625C30.275 29.1563 30.4937 29.1563 30.675 29.0625C30.825 29.0188 30.7812 28.9125 30.9438 28.9875C31.0312 29.0313 30.875 29.0438 31.1812 29.1438C31.275 29.175 31.2437 29.2 31.35 29.0813C31.375 29 31.4062 28.9188 31.4438 28.8438C31.5125 28.8063 31.425 28.6813 31.5125 28.7063L31.5938 28.025L31.65 27.7875L31.7 27.3375L31.7125 27.2625C31.6875 27.0438 31.7062 26.825 31.7812 26.6125C31.7812 26.6125 31.8563 26.925 31.8813 26.4563C31.8938 26.175 31.8625 25.9 31.7938 25.625C31.775 25.2813 31.7938 24.9375 31.8438 24.5938C31.8937 24.3063 31.8937 24.0125 31.8438 23.725L31.8062 22.4125L31.7563 22.1H31.825L31.8312 22.075L31.85 21.8938V21.6875H31.9188C31.8813 21.5938 31.8937 21.4688 31.9375 21.4625C31.9813 21.4563 31.9812 21.2625 31.9875 21.2063C31.9937 21.15 32.025 21.0313 32.0438 20.9125V20.8063C32 20.7938 31.9937 20.75 31.9875 20.6938ZM13.2563 6.74376L13.2812 6.71251C13.2812 6.71251 13.3125 6.76876 13.325 6.71876C13.3438 6.65626 13.3438 6.59376 13.325 6.53751H13.3062L13.2875 6.52501L13.2688 6.49376C13.275 6.37501 13.2938 6.26251 13.3188 6.15001L13.3375 6.09376L13.3125 5.91876L13.3875 5.83126L13.375 5.63126C13.4 5.60626 13.4312 5.59376 13.4688 5.58751C13.5125 5.53126 13.475 5.43126 13.5063 5.40001L13.575 5.33126C13.5375 5.23751 13.6687 5.33126 13.6125 5.25626C13.6125 5.25626 13.6625 5.23126 13.7063 5.08126C13.7312 5.06251 13.7625 5.05001 13.7937 5.04376C13.8687 5.06251 13.9187 4.90001 13.9563 4.99376C14.175 4.86251 14.4125 4.75001 14.6562 4.65626C14.75 4.63751 14.8375 4.61251 14.925 4.60626C15.0875 4.56876 15.2563 4.53751 15.425 4.52501H15.5063C15.7375 4.46251 15.9875 4.46876 16.2125 4.55626C16.2125 4.55626 15.8812 4.60626 16.3687 4.66876L17.2 4.81876C17.3063 4.86251 17.4062 4.91876 17.5 4.98126C17.7062 5.11876 17.8812 5.29376 18.0187 5.50001L18.5375 6.27501C18.75 6.67501 18.8687 7.12501 18.875 7.58126C18.8875 7.68751 18.8938 7.79376 18.8875 7.90001L18.825 7.88751L18.8125 7.90626L18.7437 8.16876L18.6938 8.44376L18.6313 8.43126C18.65 8.55001 18.6125 8.60001 18.575 8.56876C18.5438 8.56251 18.5312 8.56251 18.525 8.56876C18.5187 8.57501 18.4937 8.61251 18.4875 8.61876L18.2375 8.90001L18.1688 8.98751L18.0875 9.11876C18.05 9.18126 18.05 9.15626 17.975 9.23751C17.9375 9.28751 17.8938 9.33126 17.85 9.36876C17.775 9.41251 17.7125 9.46876 17.65 9.52501C17.6125 9.57501 17.7313 9.50001 17.6875 9.58126C17.65 9.66251 17.6437 9.66251 17.5875 9.68751C17.5312 9.70626 17.5562 9.64376 17.5562 9.64376L17.45 9.69376L17.3625 9.78751C17.3 9.85001 17.2313 9.90001 17.1562 9.94376L16.8813 10.1125L16.725 10.225C16.5813 10.25 16.4375 10.2688 16.2875 10.275C16.1688 10.2813 16.0562 10.275 15.9375 10.2563V10.325C15.725 10.2938 15.5125 10.2375 15.3125 10.15L15.2437 10.1125C15.0187 10.0875 14.8063 10.0188 14.6125 9.91251C14.6125 9.91251 14.75 9.95626 14.7312 9.91251H14.725C14.675 9.89376 14.625 9.86876 14.5813 9.84376C14.5063 9.81876 14.475 9.80001 14.4937 9.78126V9.75626L14.3938 9.70626C14.3438 9.69376 14.2937 9.67501 14.2437 9.65001L14.1062 9.54376C14.0125 9.46876 13.925 9.38751 13.8375 9.30001C13.825 9.26251 13.8125 9.23126 13.7937 9.19376C13.7562 9.11876 13.7063 9.14376 13.7063 9.14376C13.725 9.19376 13.75 9.23751 13.775 9.28751C13.65 9.14376 13.55 8.98751 13.4625 8.81876L13.475 8.70626C13.475 8.70626 13.5312 8.73751 13.5125 8.68751C13.4937 8.63126 13.4563 8.58126 13.4187 8.53751L13.4 8.54376H13.375C13.325 8.40626 13.2875 8.26876 13.2625 8.13126L13.2937 8.05001L13.3 7.93126C13.2937 7.86876 13.2938 7.80626 13.2875 7.73751C13.2938 7.70001 13.3063 7.66251 13.3313 7.63126V7.46251L13.3188 7.35626L13.3313 7.31251L13.3438 7.23751C13.3562 7.17501 13.325 7.15626 13.3125 7.14376H13.3062L13.275 7.30001C13.2375 7.13751 13.2125 6.96876 13.2125 6.80001L13.2563 6.74376ZM4.8375 7.84376L4.88125 7.80626L4.9 7.78751C4.9 7.78751 4.93125 7.83126 4.94375 7.79376C4.95625 7.75001 4.95625 7.70626 4.9375 7.66251H4.91875L4.9 7.65626L4.875 7.64376C4.9 7.55626 4.875 7.46876 4.9 7.40001L4.9125 7.36251L4.875 7.23126L4.93125 7.16876L4.89375 7.01876C4.91875 7.00626 4.94375 7.00001 4.96875 7.00001C5 6.96251 4.95 6.88126 4.96875 6.86251L5.01875 6.81876C4.96875 6.73126 5.09375 6.83126 5.03125 6.76876C5.03125 6.76876 5.0625 6.75001 5.06875 6.63126C5.09375 6.61876 5.125 6.60626 5.15625 6.60001C5.225 6.63126 5.24375 6.49376 5.2875 6.57501C5.45 6.48751 5.61875 6.41251 5.79375 6.35626L5.99375 6.33126C6.1125 6.30626 6.23125 6.29376 6.35 6.28751H6.40625C6.5375 6.18126 6.90625 6.31251 6.9 6.32501C6.89375 6.33751 6.675 6.38751 7.00625 6.43126C7.19375 6.46251 7.38125 6.48751 7.575 6.50001C7.8 6.58751 7.9875 6.75001 8.1125 6.95626C8.21875 7.13751 8.33125 7.31251 8.4625 7.48126C8.6125 7.76251 8.69375 8.07501 8.7 8.39376C8.70625 8.46876 8.725 8.54376 8.725 8.61876L8.65625 8.60626L8.65 8.61876C8.6375 8.65626 8.625 8.69376 8.6125 8.73126L8.58125 8.85001L8.51875 8.83126C8.5375 8.89376 8.5 8.94376 8.45625 8.92501C8.4125 8.90626 8.4 8.95626 8.34375 8.99376C8.28125 9.03126 8.225 9.06876 8.1625 9.11251L8.11875 9.16251C8.1 9.19376 8.08125 9.22501 8.0625 9.25626C8.04375 9.30001 7.96875 9.34376 7.925 9.40626C7.89375 9.45626 7.85 9.50001 7.80625 9.53751C7.74375 9.58126 7.6875 9.63126 7.6375 9.69376C7.6125 9.74376 7.70625 9.66876 7.68125 9.74376C7.65625 9.81876 7.65625 9.81876 7.6125 9.85001C7.56875 9.87501 7.575 9.80626 7.575 9.80626L7.5 9.85001L7.45 9.93126C7.4125 9.98126 7.375 10.025 7.325 10.0625L7.1875 10.2L7.125 10.2875C6.9875 10.3 6.85625 10.2875 6.725 10.25V10.3188C6.58125 10.2875 6.44375 10.2375 6.3125 10.175L6.26875 10.15C6.1125 10.15 5.9625 10.1063 5.825 10.0313C5.825 10.0313 5.93125 10.0563 5.91875 10.0188L5.8125 9.98126C5.75625 9.96876 5.7375 9.95626 5.75625 9.93751L5.76875 9.91876L5.6875 9.87501C5.65 9.86876 5.6125 9.86251 5.575 9.85001L5.48125 9.77501C5.4125 9.72501 5.35 9.66876 5.2875 9.61251C5.28125 9.58751 5.275 9.55626 5.2625 9.53126C5.25625 9.50626 5.23125 9.48751 5.20625 9.49376C5.2 9.49376 5.2 9.49376 5.19375 9.50001L5.23125 9.60626C5.14375 9.50626 5.075 9.39376 5.0125 9.27501L5.0375 9.18751C5.0375 9.18751 5.0875 9.20001 5.075 9.16876C5.0625 9.12501 5.0375 9.08751 5 9.06251L4.98125 9.06876H4.93125C4.9 8.97501 4.875 8.87501 4.85625 8.77501L4.89375 8.71876L4.90625 8.63126V8.50001C4.91875 8.47501 4.93125 8.45001 4.95625 8.43126V8.31251L4.94375 8.23751L4.95625 8.20626L4.96875 8.15626C4.98125 8.13126 4.96875 8.10001 4.94375 8.09376H4.9375L4.90625 8.20626C4.89375 8.06876 4.825 7.98751 4.8375 7.84376ZM22.4062 24.875C22.3937 24.95 22.3875 25.0188 22.3875 25.0938C22.3875 25.2 22.3563 25.2625 22.35 25.3563C22.35 25.4188 22.3438 25.4875 22.3312 25.55L22.3062 25.6688C22.2687 25.8063 22.1938 25.9438 22.1812 26C22.1625 26.0563 22.1 26.2813 22.05 26.275C22.0062 26.2688 21.9438 26.4 21.9438 26.5188L21.8813 26.5L21.8062 26.7125L21.7188 26.8813L21.7062 26.9L21.6437 26.8688C21.6187 26.9063 21.5875 26.9375 21.5562 26.975L21.55 27.025C21.5125 27.05 21.4625 27.05 21.425 27.025C21.425 27.0438 21.45 27.0563 21.4625 27.0938V27.1L21.525 27.2625L21 27.25L20.9125 27.2438C20.65 27.2813 20.3875 27.275 20.1313 27.2125C20.1313 27.2125 20.5125 27.1188 19.9375 27.125C19.6 27.1313 19.2625 27.175 18.9375 27.25C18.5187 27.2813 18.1 27.2813 17.6875 27.2438C17.3375 27.2 16.975 27.2063 16.625 27.2625L15.025 27.3188L14.6375 27.3688V27.3L14.6125 27.2938L14.3938 27.275H14.15V27.2125C14.0375 27.25 13.8875 27.2375 13.875 27.1938C13.8625 27.15 13.6313 27.15 13.5625 27.1438C13.4937 27.1375 13.35 27.1063 13.2063 27.0875L13.0875 27.0813L12.8938 27.0938C12.8 27.1 12.7313 27.0813 12.6313 27.0938C12.5563 27.1063 12.4875 27.1063 12.4125 27.1C12.3125 27.0875 12.2125 27.0875 12.1125 27.1C12.0437 27.1188 12.2063 27.125 12.1125 27.1688C12.0188 27.2125 12.0188 27.2125 11.95 27.2C11.8812 27.1875 11.95 27.1438 11.95 27.1438L11.8188 27.1313L11.675 27.1625C11.575 27.1813 11.4813 27.1938 11.3813 27.2C11.2313 27.2125 11.1 27.2313 11.025 27.2438L10.825 27.2938L9.8375 27.1813V27.25L9.0125 27.1813L8.91875 27.1688C8.6625 27.225 8.4 27.2563 8.13125 27.2625C8.13125 27.2625 8.3 27.2313 8.25 27.2H8.24375L8.05625 27.2188C7.9625 27.2375 7.925 27.2375 7.93125 27.2188V27.1938L7.80625 27.2063C7.75 27.2313 7.69375 27.2438 7.63125 27.2563L7.43125 27.2688L7.025 27.3C6.98125 27.2875 6.94375 27.275 6.9 27.2688C6.80625 27.25 6.79375 27.3063 6.79375 27.3063L6.96875 27.3375H6.34375L6.2375 27.275C6.2375 27.275 6.29375 27.2375 6.2375 27.2313C6.16875 27.225 6.1 27.2313 6.0375 27.2563V27.275L6.0125 27.3188L5.54375 27.2938L5.46875 27.2438L5.34375 27.2125L5.1375 27.1875C5.1 27.175 5.0625 27.1563 5.03125 27.1313L4.8375 27.1188L4.725 27.125L4.68125 27.1125L4.6 27.0938C4.53125 27.0813 4.50625 27.1063 4.49375 27.1188V27.125L4.6625 27.15C4.45625 27.1563 4.3375 27.2375 4.125 27.2313L4.05625 27.1875L4.025 27.1688C4.025 27.1688 4.08125 27.1313 4.025 27.125C3.95625 27.1125 3.8875 27.125 3.825 27.15V27.1688L3.8125 27.1875L3.8 27.2125C3.6625 27.2125 3.54375 27.25 3.4125 27.2438H3.34375L3.275 27.275C3.19375 27.2563 3.1125 27.2313 3.04375 27.1938L3 27.1875C2.875 27.2313 2.8875 27.0625 2.8875 27.0625C2.8875 27.0625 2.96875 27.0313 2.9375 26.9813C2.9375 26.975 2.93125 26.9688 2.925 26.9625C2.91875 26.9625 2.775 26.7813 2.78125 26.7938C2.71875 26.5125 2.7125 26.225 2.76875 25.9438C2.8125 25.6375 2.8125 25.325 2.75625 25.025L2.69375 23.6375L2.6375 23.3063H2.70625L2.7125 23.2813L2.73125 23.0938V22.875H2.8C2.7625 22.775 2.775 22.6438 2.81875 22.6375C2.8625 22.6313 2.8625 22.425 2.86875 22.3688C2.875 22.3125 2.90625 22.1813 2.91875 22.0563V21.95C2.91875 21.8875 2.90625 21.8438 2.9 21.7813C2.89375 21.7 2.90625 21.6438 2.9 21.55C2.8875 21.4875 2.8875 21.425 2.8875 21.3625C2.9 21.275 2.9 21.1875 2.8875 21.1C2.86875 21.0375 2.8625 21.1813 2.81875 21.1C2.775 21.0188 2.775 21.0188 2.7875 20.9625C2.8 20.9063 2.84375 20.9625 2.84375 20.9625L2.85625 20.85L2.825 20.7313C2.80625 20.65 2.7875 20.5625 2.78125 20.475C2.76875 20.3438 2.74375 20.2313 2.73125 20.1625L2.675 19.9938C2.7125 19.725 2.74375 19.4438 2.76875 19.1438H2.6875L2.7375 18.4375L2.75 18.3563C2.6875 18.1375 2.65 17.9125 2.6375 17.6875C2.6375 17.6875 2.675 17.8313 2.7 17.7938V17.7875L2.675 17.6313C2.65625 17.55 2.65 17.525 2.675 17.525H2.69375L2.675 17.4188C2.65 17.3688 2.63125 17.3188 2.61875 17.2688L2.6 17.1L2.55625 16.75C2.56875 16.7125 2.575 16.675 2.58125 16.6438C2.59375 16.5625 2.54375 16.5563 2.54375 16.5563L2.51875 16.7063C2.5125 16.5313 2.50625 16.35 2.5 16.1688L2.5625 16.0813C2.5625 16.0813 2.6 16.1313 2.60625 16.0813C2.6125 16.0188 2.60625 15.9625 2.575 15.9063H2.55L2.50625 15.8875C2.50625 15.75 2.5125 15.6313 2.525 15.5125L2.56875 15.4563L2.6 15.3625L2.63125 15.2125C2.64375 15.1875 2.66875 15.1625 2.69375 15.1438L2.71875 15.0188V14.95L2.73125 14.925L2.75625 14.8813C2.76875 14.8625 2.7625 14.8313 2.74375 14.8188C2.74375 14.8188 2.7375 14.8188 2.7375 14.8125H2.73125L2.6875 14.9188C2.69375 14.7938 2.63125 14.7125 2.6625 14.6063L2.7125 14.5875L2.7375 14.5813C2.7375 14.5813 2.76875 14.6188 2.775 14.5938C2.79375 14.5688 2.79375 14.5313 2.775 14.5063L2.75625 14.5L2.74375 14.4875L2.725 14.475C2.75 14.4313 2.725 14.3688 2.75 14.35V14.3125L2.7125 14.225C2.725 14.225 2.7375 14.2313 2.75 14.2313C2.73125 14.2 2.71875 14.1688 2.7125 14.1313C2.73125 14.1438 2.74375 14.1563 2.75625 14.1688C2.76875 14.1688 2.7375 14.0875 2.75 14.0875H2.76875C2.75625 13.9938 2.79375 14.15 2.775 14.0625C2.78125 14.0625 2.775 14.0875 2.81875 13.9563L2.825 13.9375L3.0625 13.9188C3.375 13.9125 3.775 13.8563 4.1375 13.825L4.3375 13.775C4.46875 13.7375 4.60625 13.7875 4.675 13.9063L4.825 13.8563L4.96875 13.85C4.96875 13.85 4.9 13.9063 4.975 13.9063C5.05 13.9063 5.05 13.9063 5.14375 13.85C5.24375 13.7938 5.0625 13.8125 5.1375 13.7813C5.25 13.7563 5.3625 13.75 5.475 13.75C5.55625 13.7438 5.6375 13.7375 5.7125 13.7188C5.825 13.7 5.9 13.7125 6.00625 13.6938L6.2125 13.6563L6.35 13.65C6.50625 13.65 6.68125 13.675 6.75 13.675C6.81875 13.675 7.0875 13.6625 7.1 13.7063C7.1125 13.75 7.28125 13.7563 7.40625 13.7063V13.775L7.68125 13.7563L7.925 13.7625L7.95625 13.7688V13.8375L8.16875 13.8625L8.2625 13.8375C8.3625 13.8625 8.4625 13.9 8.55625 13.9375L8.59375 14.0063C8.79375 13.925 8.99375 13.8563 9.2 13.8063C9.2875 13.7938 9.43125 13.7625 9.6 13.75L9.7125 13.7375L9.93125 13.7063L10.0875 13.6688L10.2375 13.675C10.2375 13.675 10.1937 13.7063 10.2125 13.7188C10.2188 13.725 10.225 13.7313 10.2375 13.725C10.2625 13.7313 10.2875 13.7313 10.3188 13.725C10.3563 13.7125 10.3875 13.7 10.425 13.6875C10.5312 13.6438 10.3438 13.6438 10.425 13.6188C10.5375 13.6063 10.65 13.6063 10.7625 13.6188C10.8438 13.6188 10.925 13.6188 11.0063 13.6063C11.125 13.6 11.2 13.6125 11.3062 13.6063L11.525 13.5875H11.6625C11.7875 13.5938 11.9188 13.6188 12.0063 13.6313L12.0688 13.6375C12.175 13.6375 12.2875 13.65 12.3938 13.6688L12.5562 13.625C12.6437 13.6125 12.7937 13.5938 12.9563 13.575C13.0688 13.5688 13.175 13.5563 13.2875 13.5375L13.45 13.5063L13.6 13.5188C13.6 13.5188 13.525 13.5625 13.6 13.575C13.675 13.5875 13.675 13.5875 13.7812 13.55C13.8875 13.5125 13.7 13.5 13.7812 13.4813H13.8125C13.9187 13.475 14.0188 13.4813 14.125 13.4875C14.2063 13.4938 14.2875 13.4875 14.3687 13.4813C14.4875 13.475 14.5625 13.4938 14.6687 13.4813L14.8875 13.4688H14.9062H14.9375C15.05 13.4625 15.1625 13.4563 15.2688 13.4375L15.4312 13.4063L15.5813 13.425C15.5813 13.425 15.5063 13.4688 15.5813 13.4813C15.6562 13.4938 15.6562 13.4938 15.7625 13.4563C15.8687 13.4188 15.6875 13.4063 15.7625 13.3875C15.875 13.3813 15.9938 13.3813 16.1063 13.4C16.1875 13.4063 16.2688 13.4063 16.35 13.4C16.4688 13.3938 16.5437 13.4125 16.65 13.4125L16.8687 13.4063L17.0063 13.4125L17.4062 13.4813C17.4813 13.4875 17.75 13.5 17.7563 13.5438C17.7625 13.5875 17.9375 13.6125 18.0688 13.5813V13.65L18.3438 13.6625L18.5875 13.6938L18.6187 13.7V13.7688L18.825 13.8125L18.9188 13.8C19.0188 13.8375 19.1125 13.8813 19.1938 13.9188C19.3062 13.9125 19.25 13.8813 19.3563 13.8438C19.45 13.8063 19.5375 13.7438 19.6063 13.6625C19.7375 13.6938 19.875 13.7125 20.0063 13.7125C20.3 13.7313 20.0063 13.7125 20.3438 13.6875C20.6812 13.6625 20.5938 13.5688 20.8813 13.625C21.025 13.6563 21.175 13.6688 21.325 13.65C21.3813 13.625 21.4375 13.6 21.5 13.5875C21.5312 13.6 21.5625 13.6188 21.5875 13.6375C21.7437 13.725 21.8813 13.85 21.9813 14C22.0125 14.025 22.0438 14.05 22.0688 14.0813C22.175 14.2 22.0125 14.3313 22.0125 14.3313C22.0375 14.3563 22.0625 14.3813 22.0812 14.4063L22.1063 14.5C22.1063 14.5 22.05 14.4688 22.0562 14.5188C22.0625 14.5688 22.0562 14.5688 22.125 14.625C22.1938 14.6813 22.1562 14.5563 22.1875 14.6063C22.2188 14.6813 22.2437 14.7625 22.25 14.85C22.2563 14.9125 22.275 14.975 22.2938 15.0375C22.3125 15.1313 22.3063 15.1875 22.325 15.275C22.3375 15.3313 22.35 15.3938 22.3563 15.4563V15.575C22.3563 15.7125 22.325 15.8688 22.325 15.9313C22.325 15.9938 22.325 16.2438 22.2812 16.25C22.2375 16.2563 22.225 16.4188 22.2625 16.5375H22.2062V16.8063L22.1875 17.0438L22.1812 17.075H22.1125L22.075 17.2813L22.0938 17.3688C22.0562 17.475 22.025 17.5688 21.9875 17.6563L21.9188 17.6938C21.9938 17.8875 22.0562 18.0875 22.1 18.2938C22.1125 18.375 22.1375 18.5188 22.15 18.6813L22.1625 18.7875L22.1938 18.9938L22.225 19.15L22.2125 19.2938C22.2125 19.2938 22.1813 19.25 22.1688 19.2688C22.1625 19.275 22.1562 19.2813 22.1562 19.2938C22.15 19.3188 22.15 19.3438 22.1562 19.3688C22.1625 19.4 22.175 19.4375 22.1938 19.4688C22.2375 19.575 22.2438 19.3938 22.2625 19.4688C22.275 19.5813 22.275 19.6875 22.2625 19.8C22.2563 19.8813 22.2625 19.9563 22.275 20.0375C22.2812 20.15 22.2687 20.225 22.275 20.325L22.2938 20.5313V20.6625C22.2875 20.7813 22.2625 20.9125 22.25 20.9938L22.2437 21.05C22.2437 21.1563 22.2312 21.2563 22.2125 21.3625L22.2563 21.525C22.2688 21.6063 22.2937 21.75 22.3062 21.9125C22.3125 22.0188 22.325 22.125 22.3438 22.2313L22.375 22.3875L22.3625 22.5313C22.3625 22.5313 22.3188 22.4625 22.3062 22.5313C22.2937 22.6 22.2937 22.6 22.3375 22.7063C22.3813 22.8063 22.3875 22.6313 22.4062 22.7063V22.7375C22.4125 22.8375 22.4125 22.9313 22.4 23.0313C22.3937 23.1063 22.3937 23.1875 22.4 23.2625C22.4062 23.375 22.3875 23.4438 22.3937 23.5438C22.3937 23.6188 22.4062 23.6688 22.4 23.7438V23.7625V23.7938C22.4125 24.0313 22.425 24.1 22.425 24.1L22.45 24.25L22.425 24.3875C22.425 24.3875 22.3875 24.3188 22.3687 24.3875C22.35 24.4563 22.35 24.4563 22.3875 24.5563C22.425 24.6563 22.4437 24.4875 22.4562 24.5625C22.4375 24.6688 22.4312 24.7688 22.4062 24.875ZM29.725 24.7438C29.7125 24.8875 29.675 25.0375 29.675 25.1C29.6687 25.1625 29.6688 25.4 29.625 25.4125C29.5812 25.425 29.5625 25.5688 29.6 25.6875H29.5312V25.9313L29.5125 26.15L29.5063 26.175H29.4375V26.1938C29.3438 26.0625 29.2062 25.9625 29.05 25.9125L28.4813 25.5313L28.3188 25.4688L28.3625 25.4188V25.4063L28.3 25.3313L28.2188 25.2625L28.2625 25.2125C28.2 25.2125 28.1562 25.1625 28.1875 25.1188C28.2188 25.075 28.1375 25.0125 28.1187 24.9938C28.0938 24.9438 28.0625 24.9 28.0312 24.8563L27.9937 24.8188C27.9688 24.8 27.9438 24.7875 27.9188 24.7813C27.8813 24.7625 27.875 24.7313 27.8312 24.7063C27.8 24.6938 27.775 24.675 27.7563 24.65C27.7313 24.625 27.6938 24.5688 27.6562 24.5688C27.625 24.5625 27.6687 24.6125 27.6125 24.6188C27.5562 24.625 27.5562 24.6188 27.5375 24.6C27.525 24.5813 27.575 24.5563 27.575 24.5563L27.5375 24.5125L27.4688 24.5C27.425 24.4875 27.3875 24.4688 27.35 24.45C27.3 24.425 27.25 24.4 27.2 24.3875L27.0938 24.375C27.0187 24.2563 26.9312 24.1375 26.8375 24.0188L26.7875 24.0688L26.5562 23.7813L26.5375 23.7438C26.4188 23.7125 26.3125 23.6625 26.2188 23.5875C26.2188 23.5875 26.2938 23.6125 26.2938 23.575L26.2188 23.5375C26.175 23.525 26.1625 23.5188 26.1812 23.5L26.2 23.4813L26.15 23.4563C26.1187 23.4563 26.0875 23.45 26.0562 23.4438L25.9813 23.3938L25.825 23.3C25.8188 23.2813 25.8125 23.2625 25.8062 23.2438C25.7875 23.2063 25.7437 23.2438 25.7437 23.2438L25.7812 23.3188C25.7062 23.2625 25.6375 23.2063 25.575 23.1438L25.5812 23.0688C25.5812 23.0688 25.625 23.0563 25.6125 23.0375C25.5938 23.0125 25.5625 22.9938 25.5312 23L25.5187 23.0125L25.4813 23.0375L25.3438 22.8813L25.35 22.825L25.3312 22.7625L25.2812 22.6875C25.275 22.6625 25.2812 22.6375 25.2875 22.6188L25.2375 22.55L25.1938 22.525L25.1875 22.5L25.175 22.4625C25.1625 22.4313 25.1375 22.4438 25.125 22.4563H25.1187L25.1562 22.5313C25.0875 22.475 24.9937 22.5 24.925 22.4375L24.9312 22.3875V22.3625C24.9312 22.3625 24.975 22.35 24.9625 22.3313C24.9438 22.3063 24.9125 22.2938 24.8813 22.2938L24.8687 22.3063L24.85 22.3125L24.8312 22.325C24.8 22.3 24.7625 22.275 24.725 22.2625L24.7313 22.25C24.775 22.2438 24.775 22.025 24.7812 21.9688C24.7875 21.9125 24.8187 21.775 24.8312 21.65V21.5438C24.8312 21.4875 24.825 21.4313 24.8125 21.3688C24.8062 21.2813 24.8188 21.225 24.8125 21.1313C24.8 21.0688 24.8 21 24.8 20.9375C24.8125 20.85 24.8125 20.7563 24.8 20.6688C24.7812 20.6063 24.775 20.75 24.7313 20.6688C24.6875 20.5875 24.6875 20.5875 24.7 20.525C24.7125 20.4625 24.7563 20.525 24.7563 20.525L24.7687 20.4063L24.7375 20.2813C24.7188 20.1938 24.7063 20.1063 24.7 20.0188C24.6875 19.8875 24.6625 19.7688 24.65 19.7L24.5938 19.525C24.6313 19.2438 24.6625 18.95 24.6875 18.6375H24.6187L24.6562 18.1063C24.775 18.05 24.9 17.9813 25.0187 17.9063L25.0812 17.8313C25.1625 17.7438 25.3062 17.875 25.3062 17.875L25.3438 17.8063L25.4062 17.775C25.4062 17.775 25.4062 17.8313 25.4375 17.8188C25.4688 17.8063 25.4688 17.8063 25.4875 17.7438C25.5 17.6813 25.4313 17.725 25.45 17.6938C25.4813 17.65 25.525 17.6188 25.575 17.6C25.6063 17.5813 25.6375 17.5563 25.6562 17.525C25.6938 17.4875 25.7312 17.4813 25.7687 17.4438C25.7875 17.4188 25.8125 17.3938 25.8375 17.3688L25.8875 17.3375C25.9563 17.3063 26.0375 17.2813 26.0688 17.2688C26.1 17.2563 26.2 17.1813 26.2313 17.2125C26.2625 17.2438 26.3375 17.2125 26.3563 17.1438L26.3937 17.2L26.5 17.125L26.6063 17.075H26.6187L26.6562 17.1313L26.7625 17.1063L26.7875 17.0688C26.8438 17.0688 26.9062 17.0688 26.9625 17.0813L27.0125 17.125C27.0438 17.0188 27.0875 16.9125 27.1437 16.8125C27.1812 16.7625 27.2188 16.7125 27.2625 16.6625L27.2938 16.625C27.3188 16.6 27.3375 16.575 27.3563 16.5438L27.4 16.475L27.4625 16.4438C27.4625 16.4438 27.4625 16.4813 27.4813 16.4875H27.4937C27.5125 16.4813 27.5187 16.4813 27.525 16.4688C27.5312 16.45 27.5375 16.4313 27.5438 16.4125C27.5563 16.35 27.4875 16.3938 27.5063 16.3563C27.5438 16.3188 27.5875 16.2875 27.6375 16.2688C27.6688 16.25 27.7 16.225 27.725 16.2C27.7625 16.1625 27.8 16.1563 27.8375 16.125C27.8625 16.1 27.8813 16.075 27.9125 16.0563L27.9688 16.025C28.0187 16.0063 28.0688 15.9875 28.125 15.975L28.15 15.9688C28.1938 15.9438 28.2438 15.9188 28.2938 15.9125L28.3312 15.8375C28.3687 15.7875 28.4125 15.7375 28.4562 15.6938C28.4937 15.6563 28.5312 15.6188 28.5625 15.575L28.6063 15.5063L28.6688 15.4813C28.6688 15.4813 28.6688 15.5375 28.7 15.525C28.7313 15.5188 28.7375 15.5188 28.75 15.4563C28.7687 15.3938 28.6938 15.4375 28.7125 15.4L28.7188 15.3875C28.7563 15.3563 28.7937 15.3313 28.8375 15.3125C28.8687 15.2938 28.9 15.2688 28.925 15.2438C28.9625 15.2063 29.0063 15.2 29.0375 15.1688C29.0625 15.1438 29.0875 15.1188 29.1125 15.1H29.1187L29.1313 15.0875C29.1688 15.0563 29.2062 15.0125 29.2375 14.975L29.2812 14.9063L29.3438 14.8813C29.3438 14.8813 29.3438 14.9375 29.375 14.9313C29.4062 14.925 29.4125 14.925 29.4312 14.8625C29.45 14.8 29.375 14.8438 29.3937 14.8063C29.4312 14.7688 29.475 14.7375 29.525 14.725C29.5562 14.7125 29.5813 14.6875 29.6063 14.6688C29.6063 14.6938 29.6062 14.725 29.6125 14.775C29.6187 14.8813 29.6062 14.9438 29.6125 15.0375L29.625 15.2313V15.35C29.6125 15.4938 29.575 15.6438 29.5688 15.7063C29.5625 15.7688 29.5625 16.0063 29.5187 16.0188C29.475 16.0313 29.4562 16.175 29.4937 16.2938H29.425V16.5375L29.4062 16.7563L29.4 16.7813H29.3312L29.2938 16.9688L29.3125 17.05C29.2812 17.1375 29.2438 17.225 29.2 17.3063L29.1313 17.3375C29.2063 17.5188 29.2625 17.7 29.3062 17.8875C29.3188 17.9625 29.3438 18.0938 29.3563 18.2438L29.3687 18.3438L29.3937 18.5375L29.425 18.6813L29.4125 18.8125C29.4125 18.8125 29.3813 18.775 29.3687 18.7938C29.3625 18.8 29.3563 18.8063 29.3563 18.8125C29.35 18.8375 29.35 18.8625 29.3563 18.8813C29.3625 18.9125 29.375 18.9438 29.3937 18.9688C29.4375 19.0625 29.4438 18.9 29.4625 18.9688C29.475 19.0688 29.475 19.1688 29.4625 19.2688C29.4562 19.3438 29.4625 19.4125 29.4688 19.4875C29.475 19.5938 29.4625 19.6563 29.4688 19.75L29.4813 19.9438V20.0625C29.4688 20.175 29.45 20.2875 29.4375 20.3625L29.4312 20.4188C29.4312 20.5125 29.4187 20.6125 29.4 20.7063L29.4375 20.8563C29.45 20.9313 29.475 21.0625 29.4875 21.2125C29.4937 21.3125 29.5063 21.4063 29.525 21.5063L29.5562 21.65L29.5438 21.7813C29.5438 21.7813 29.5 21.7125 29.4875 21.7813C29.475 21.85 29.475 21.8438 29.5187 21.9438C29.5625 22.0438 29.5688 21.875 29.5875 21.9438V21.9688C29.5938 22.0625 29.5938 22.15 29.5875 22.2438C29.5812 22.3188 29.5875 22.3875 29.5938 22.4625C29.6 22.5688 29.5875 22.6313 29.5938 22.725L29.6063 22.9188V22.9375V22.9688C29.6125 23.0688 29.625 23.1625 29.6437 23.2625L29.675 23.4063L29.6625 23.5375C29.6625 23.5375 29.6188 23.4688 29.6063 23.5375C29.5938 23.6063 29.5938 23.6 29.6375 23.7C29.6813 23.7938 29.6875 23.6313 29.7062 23.7C29.7188 23.8 29.7188 23.9 29.7062 24C29.7 24.075 29.7062 24.1438 29.7125 24.2188C29.7188 24.325 29.7062 24.3875 29.7125 24.4813L29.725 24.675V24.7438Z" fill="#0041E6"/>
<path d="M18.1187 19.3812C18.0812 19.3375 18.1187 19.45 18.05 19.3937C17.9812 19.3375 17.9813 19.3437 17.975 19.2875C17.9688 19.2375 18.0375 19.275 18.0375 19.275L18 19.1687L17.9062 19.075C17.9187 19.075 17.8625 19.0312 17.625 18.875C17.475 18.7687 17.3375 18.6875 17.2563 18.6437L17.025 18.5375C16.675 18.3312 16.2437 18.125 15.7937 17.9L15.7563 17.9625L15.2375 17.7062L14.9625 17.5562L14.9 17.5187C14.7 17.5 14.5 17.45 14.3125 17.3875C14.3125 17.3875 14.4437 17.4062 14.4187 17.3625H14.4062L14.2688 17.3312C14.1938 17.325 14.1687 17.3187 14.1812 17.2937L14.1875 17.275L14.0938 17.2562C14.0437 17.2625 14 17.2625 13.95 17.2562L13.8062 17.2125L13.5063 17.1312C13.4813 17.1062 13.4563 17.0875 13.425 17.0687C13.3688 17.025 13.3375 17.075 13.3375 17.075L13.45 17.15C13.3062 17.1 13.1563 17.0437 13.0063 16.9812L12.9563 16.8937C12.9563 16.8937 13.0125 16.875 12.975 16.8562C12.9313 16.8312 12.875 16.8187 12.825 16.825L12.8188 16.8437L12.7812 16.875L12.4625 16.7187L12.4312 16.6562L12.3562 16.5875L12.2188 16.5062C12.1937 16.4812 12.1812 16.4562 12.1687 16.425L12.0375 16.3562L11.9563 16.3375L11.9312 16.3125L11.8813 16.275C11.8563 16.2562 11.825 16.2562 11.8 16.275L11.7937 16.2812L11.9062 16.3625C11.7625 16.3125 11.6437 16.35 11.4937 16.2875L11.4625 16.2312L11.4438 16.2C11.4438 16.2 11.5 16.1812 11.4625 16.1625C11.4187 16.1375 11.3625 16.125 11.3125 16.1312L11.3062 16.15L11.2937 16.1625L11.275 16.1812C11.1812 16.1375 11.0812 16.1437 10.9937 16.1L10.95 16.075L10.7937 16.1L10.7188 16.0312L10.5312 16.0625C10.5062 16.0375 10.4937 16.0125 10.4812 15.9812C10.4187 15.9437 10.3312 16 10.2937 15.9812L10.1875 15.9375C10.1063 16.0062 10.15 15.85 10.1 15.925C10.1 15.925 10.05 15.8687 9.8375 15.925C9.625 15.9812 9.61875 16.0062 9.61875 16.0062C9.61875 16.0062 9.6 16.0125 9.575 16.025C9.51875 16.0125 9.30625 15.9187 9.26875 16.0062C9.24375 16.0625 9.2375 16.125 9.25 16.1875C9.25 16.1875 9.075 16.1312 9.03125 16.25L8.9875 16.3687C8.9375 16.5375 8.90625 16.7062 8.88125 16.875L8.9 16.975C8.91875 17.0937 8.71875 17.1187 8.71875 17.1187L8.75 17.1937L8.7375 17.2625C8.7375 17.2625 8.69375 17.225 8.68125 17.2625C8.66875 17.3 8.66875 17.2937 8.7125 17.3437C8.75625 17.3937 8.7625 17.3125 8.78125 17.3437C8.79375 17.3937 8.79375 17.45 8.78125 17.5C8.775 17.5375 8.78125 17.575 8.7875 17.6125C8.79375 17.6687 8.775 17.7 8.7875 17.75C8.79375 17.7812 8.8 17.8187 8.8 17.8562L8.79375 17.9187C8.78125 17.9937 8.74375 18.0687 8.7375 18.1C8.73125 18.1312 8.73125 18.2562 8.68125 18.2625C8.6375 18.2687 8.61875 18.3437 8.65625 18.4062H8.58125V18.5312L8.5625 18.6437L8.55625 18.6562H8.48125L8.44375 18.7562L8.4625 18.8C8.43125 18.85 8.39375 18.8937 8.35 18.9312L8.28125 18.9437C8.35 19.0312 8.40625 19.1312 8.45625 19.2312C8.475 19.2937 8.49375 19.3562 8.50625 19.4187L8.51875 19.4687C8.525 19.5062 8.53125 19.5375 8.54375 19.575L8.575 19.65L8.5625 19.7187C8.5625 19.7187 8.5375 19.7 8.51875 19.7062C8.5125 19.7062 8.5125 19.7125 8.5125 19.7187C8.50625 19.7375 8.50625 19.7437 8.50625 19.7562C8.51875 19.775 8.525 19.7875 8.54375 19.8C8.5875 19.85 8.59375 19.7625 8.6125 19.8C8.625 19.85 8.625 19.9062 8.6125 19.9562C8.60625 19.9937 8.6125 20.0312 8.61875 20.0687C8.625 20.125 8.6125 20.1562 8.61875 20.2062C8.625 20.2375 8.63125 20.275 8.63125 20.3125V20.375C8.61875 20.4312 8.60625 20.4812 8.5875 20.5312L8.58125 20.5562C8.58125 20.6062 8.56875 20.6562 8.55 20.7062L8.59375 20.7812C8.6125 20.8437 8.63125 20.9062 8.64375 20.9687C8.65 21.0187 8.6625 21.075 8.68125 21.1187L8.7125 21.1937L8.7 21.2625C8.7 21.2625 8.65625 21.2312 8.64375 21.2625C8.63125 21.2937 8.63125 21.2937 8.675 21.3437C8.71875 21.3937 8.725 21.3062 8.74375 21.3437V21.3562C8.75 21.4062 8.75 21.45 8.74375 21.5C8.74375 21.5375 8.74375 21.575 8.75625 21.6125C8.7625 21.6687 8.75 21.7 8.75625 21.75C8.7625 21.7812 8.76875 21.8187 8.775 21.8562V21.8625V21.8812C8.78125 21.9312 8.79375 21.9812 8.81875 22.0312L8.85625 22.1062L8.84375 22.175C8.84375 22.175 8.8 22.1437 8.7875 22.175C8.775 22.2062 8.775 22.2062 8.81875 22.2562C8.8625 22.3062 8.86875 22.2187 8.8875 22.2562C8.9 22.3062 8.9 22.3625 8.8875 22.4125C8.8875 22.45 8.8875 22.4875 8.9 22.525C8.9125 22.5812 8.89375 22.6125 8.9 22.6625C8.90625 22.6937 8.9125 22.725 8.91875 22.7625V22.825C8.90625 22.9 8.875 22.9812 8.875 23.0125C8.875 23.0437 8.875 23.1687 8.825 23.175C8.775 23.1812 8.76875 23.2562 8.80625 23.3187H8.7375V23.4437L8.725 23.5562L8.71875 23.5687H8.65L8.61875 23.6687L8.6375 23.7125C8.60625 23.7562 8.56875 23.8062 8.53125 23.8437C8.54375 23.8937 8.575 23.8625 8.61875 23.9125C8.675 23.9625 8.74375 23.9937 8.8125 24.0187C8.8 24.075 8.8 24.1375 8.80625 24.1937C8.8125 24.325 8.80625 24.1937 8.8625 24.3437C8.91875 24.4937 9 24.45 8.96875 24.5812C8.94375 24.65 8.95 24.725 8.9875 24.7875C9.01875 24.8125 9.05 24.8375 9.075 24.8687C9.1 24.9 9.125 24.925 9.15625 24.9437C9.15625 24.9437 9.175 24.9937 9.30625 24.9812C9.43125 24.9687 9.275 25.05 9.35 25.0375C9.54375 25.075 9.74375 25.0687 9.93125 25.0062C10.05 24.9812 10.05 24.9437 10.1187 24.95C10.1312 25.0437 10.0937 25.0312 10.2437 25.0812C10.325 25.0687 10.4062 25.0687 10.4937 25.0687C10.5562 25.1125 10.625 24.9875 10.6438 25.0687C10.85 25.0062 11.0563 24.9312 11.2688 24.85L11.5 24.7937L11.9125 24.6375L11.9812 24.6125C12.1562 24.4875 12.3563 24.4062 12.5688 24.3687C12.5688 24.3687 12.3375 24.5875 12.75 24.375C12.9938 24.25 13.2188 24.0875 13.4062 23.8937C13.6875 23.7062 13.9813 23.5437 14.2875 23.4062C14.55 23.2937 14.7937 23.1375 15 22.9437L16.25 22.0187L16.6375 21.6687L16.7 21.7062L16.7375 21.6875C16.825 21.6312 16.9125 21.575 16.9937 21.5062L17.2375 21.2875L17.3125 21.3125C17.3813 21.1937 17.55 21.0625 17.6125 21.0687C17.7187 21.0687 17.8125 20.8562 17.8625 20.7937C17.9125 20.7312 18.025 20.6 18.1125 20.4687C18.125 20.4375 18.1437 20.4 18.15 20.3625C18.1625 20.3062 18.1687 20.2437 18.175 20.1875C18.1937 20.1 18.2 20.0125 18.2 19.925L18.1812 19.6812C18.1875 19.5812 18.1625 19.475 18.1187 19.3812ZM14.75 20.1625L14.7375 20.175C14.7188 20.2 14.6875 20.2187 14.6562 20.225C14.675 20.2312 14.6875 20.2375 14.7063 20.2437C14.7188 20.2562 14.725 20.2812 14.7188 20.3C14.7125 20.3187 14.7125 20.3375 14.7188 20.3562L14.7312 20.3875L14.6875 20.4062C14.6687 20.3937 14.65 20.3812 14.625 20.3812C14.6 20.3875 14.6 20.3812 14.625 20.4187C14.65 20.4562 14.6938 20.4312 14.6938 20.45V20.4562C14.6875 20.475 14.6438 20.4937 14.625 20.5C14.6 20.5125 14.6 20.5187 14.5813 20.5437C14.5625 20.5687 14.5312 20.5687 14.5188 20.5875C14.5 20.6062 14.5 20.6187 14.4375 20.6687L14.425 20.675L14.4062 20.6937C14.3375 20.75 14.2688 20.8125 14.2063 20.8812L14.1187 20.9875L14.0125 21.0437C14.0125 21.0437 14.0375 20.975 13.9812 21C13.925 21.025 13.925 21.025 13.875 21.1062C13.825 21.1875 13.9563 21.1062 13.9125 21.1625C13.8438 21.225 13.7625 21.275 13.6812 21.3125C13.625 21.3437 13.5688 21.3875 13.5188 21.4312C13.4438 21.4875 13.3812 21.5062 13.3125 21.5625C13.2688 21.6 13.2188 21.6312 13.175 21.6687L13.0813 21.725C12.9625 21.7812 12.825 21.8312 12.775 21.8562C12.725 21.8812 12.5375 21.9937 12.5063 21.9625C12.475 21.9312 12.35 21.9875 12.2812 22.0687L12.2437 22.0125L12.05 22.125L11.8687 22.2062L11.8438 22.2125L11.8062 22.15L11.6375 22.2L11.5813 22.25C11.5 22.2625 11.4188 22.2687 11.3313 22.2687C11.2625 22.325 11.3187 22.325 11.2625 22.4062C11.2187 22.4875 11.1937 22.575 11.1875 22.6687C11.1875 22.6687 11.1125 22.6937 10.9937 22.75C11 22.7312 11 22.7062 11.0063 22.6812C11.05 22.5375 11.05 22.3812 11 22.2375L10.95 21.5687L10.8938 21.4125H10.9625L10.9688 21.4L10.9875 21.3125V21.2062H11.0562C11.0187 21.1562 11.0312 21.0937 11.075 21.0937C11.1187 21.0875 11.1188 20.9875 11.125 20.9625C11.1312 20.9375 11.1625 20.875 11.175 20.8125V20.7625C11.175 20.7375 11.1688 20.7062 11.1562 20.6812C11.15 20.6437 11.1625 20.6125 11.1562 20.5687C11.1437 20.5375 11.1438 20.5062 11.1438 20.4812C11.1563 20.4375 11.1563 20.3937 11.1438 20.3562C11.125 20.325 11.1187 20.3937 11.075 20.3562C11.0312 20.3187 11.0312 20.3187 11.0437 20.2875C11.0562 20.2625 11.1 20.2875 11.1 20.2875L11.1125 20.2312L11.0813 20.175C11.0625 20.1375 11.05 20.0937 11.0437 20.0562C11.0312 20.0062 11.0125 19.9562 10.9937 19.9062L10.9375 19.825C10.975 19.6937 11.0062 19.5562 11.0437 19.4187H10.975L11.0375 19.075L11.05 19.0375C10.9938 18.9375 10.9563 18.825 10.9438 18.7125C10.9438 18.7125 10.975 18.7812 11.0063 18.7625L10.9812 18.6875C10.9625 18.65 10.9562 18.6375 10.9812 18.6375H11.0063L10.9875 18.5875C10.9625 18.5687 10.95 18.5437 10.9312 18.5125L10.9187 18.4312L10.9062 18.375L10.975 18.3875L11.0875 18.45C11.0875 18.45 11.0125 18.4687 11.0688 18.5C11.125 18.5312 11.1188 18.5375 11.2188 18.5312C11.3187 18.525 11.175 18.4625 11.2437 18.4687C11.3375 18.4937 11.425 18.5312 11.5063 18.5812C11.5688 18.6125 11.6312 18.6375 11.7 18.65C11.7937 18.6812 11.8437 18.7187 11.9312 18.75C11.9937 18.7687 12.0375 18.7812 12.1062 18.8062L12.2125 18.8562C12.3312 18.9187 12.45 19.0125 12.5063 19.0375C12.5625 19.0625 12.7688 19.1562 12.7563 19.2C12.7438 19.2437 12.875 19.3187 12.9875 19.3187L12.9625 19.3812L13.175 19.475L13.3562 19.5812L13.375 19.6L13.35 19.6625L13.5 19.7687L13.5813 19.7812C13.65 19.8437 13.7063 19.9125 13.7688 19.9812V20.0562C13.95 20.0562 14.1312 20.0687 14.3125 20.0937C14.3313 20.0812 14.35 20.0687 14.375 20.0687H14.3938L14.4375 20.0562L14.4875 20.0437C14.4938 20.05 14.4938 20.0562 14.5 20.0625C14.4812 20.0687 14.4688 20.0812 14.4563 20.0937L14.45 20.1C14.45 20.1062 14.45 20.1062 14.4563 20.1062L14.5063 20.0875C14.5688 20.0687 14.5437 20.05 14.575 20.0437C14.6 20.0437 14.6188 20.05 14.6313 20.0687C14.6375 20.0812 14.6562 20.075 14.6875 20.0812C14.7188 20.0875 14.7063 20.1 14.7375 20.1062C14.7625 20.1062 14.7812 20.1125 14.8 20.1187L14.8188 20.1312C14.825 20.1062 14.775 20.15 14.75 20.1625Z" fill="#0041E6"/>
</g>
<defs>
<clipPath id="clip0_7664_50205">
<rect width="32" height="32" fill="white"/>
</clipPath>
</defs>
</svg>
