<svg width="32" height="32" viewBox="0 0 32 32" fill="none" xmlns="http://www.w3.org/2000/svg">
<g clip-path="url(#clip0_7664_50190)">
<path d="M31.9063 2.01251L31.8813 2.02501L31.8563 2.00626L31.8188 1.98126C31.7375 1.68126 31.5938 1.40626 31.4 1.16251C31.3688 1.11876 31.3375 1.07501 31.3063 1.03126C31.1938 0.943758 31.0688 0.862508 30.9375 0.800008C30.8688 0.731258 30.7938 0.662508 30.7125 0.600008C30.55 0.556258 30.3813 0.525008 30.2125 0.518758C30.1438 0.487508 30.075 0.450008 30.0125 0.400008C29.825 0.393758 29.6375 0.406257 29.4563 0.450007C29.3188 0.450007 29.2313 0.450008 29.15 0.462508C28.9875 0.600008 28.9313 0.418758 28.8813 0.531258C28.6063 0.575008 28.3438 0.687508 28.125 0.856257C28.0438 0.906258 28.0063 0.937508 27.9563 0.975008C27.575 1.11251 27.175 1.26876 26.7938 1.41876L26.4938 1.57501C26.125 1.76251 25.9375 1.60001 25.9375 1.60001L25.7188 1.73751L25.4938 1.81876C25.4938 1.81876 25.5813 1.72501 25.4688 1.75626C25.375 1.78126 25.2813 1.83126 25.2188 1.90626C25.0813 2.01876 25.3563 1.90626 25.25 1.97501C25.0875 2.06251 24.9188 2.13126 24.7438 2.19376C24.6188 2.24376 24.5 2.30001 24.3875 2.36251L23.9438 2.55001L23.6313 2.70001L23.425 2.78126L22.8063 2.98126C22.6938 3.02501 22.2938 3.18751 22.2625 3.14376C22.225 3.10001 21.9688 3.19376 21.7938 3.31251L21.75 3.25001L21.3313 3.43126L20.9563 3.56251L20.9063 3.57501L20.875 3.50626L20.5438 3.60001L20.4125 3.67501C20.2375 3.70001 20.075 3.72501 19.925 3.73751L19.8438 3.67501C19.5688 3.88126 19.2875 4.06876 18.9938 4.24376C18.875 4.31251 18.6625 4.42501 18.4188 4.54376L18.2563 4.62501L17.9375 4.78751L17.7125 4.91876L17.4813 4.99376C17.4813 4.99376 17.5375 4.93751 17.4938 4.93126C17.4813 4.92501 17.4688 4.92501 17.4563 4.93126C17.4125 4.94376 17.375 4.95626 17.3375 4.97501C17.2875 5.00626 17.2438 5.03751 17.2 5.07501C17.0563 5.18751 17.3375 5.07501 17.2313 5.14376C17.0688 5.22501 16.8938 5.29376 16.7188 5.35001C16.5938 5.39376 16.475 5.45001 16.3625 5.50626L15.9125 5.68751L15.5938 5.83751L15.3875 5.91251L14.8563 6.06876L14.7625 6.09376C14.6 6.15626 14.4313 6.21251 14.2625 6.25001L14.0313 6.39376C13.9125 6.46251 13.6938 6.56876 13.45 6.68751C13.075 6.86251 12.9688 6.92501 12.9688 6.92501L12.7438 7.05626L12.5125 7.13126C12.5125 7.13126 12.6063 7.03751 12.4875 7.06876C12.3875 7.08751 12.3 7.13751 12.225 7.20626C12.0813 7.31251 12.3625 7.20626 12.2563 7.27501L12.2125 7.30001C12.0625 7.36876 11.9063 7.42501 11.7438 7.48126C11.6188 7.52501 11.5 7.57501 11.3875 7.63751L10.9375 7.81251L10.6188 7.95626L10.5875 7.96876L10.5375 7.99376C10.1625 8.16876 10.0563 8.23126 10.0563 8.23126L9.83127 8.36251L9.60002 8.43751C9.60002 8.43751 9.69376 8.34376 9.57502 8.37501C9.47501 8.39376 9.38752 8.44376 9.31252 8.51251C9.16877 8.61876 9.45002 8.51251 9.34377 8.58126C9.17502 8.66251 9.00627 8.72501 8.83127 8.78126C8.70627 8.82501 8.58126 8.87501 8.46251 8.93751L8.01252 9.11251L7.68126 9.26251L7.47501 9.33751L6.84376 9.51876C6.72501 9.55626 6.32501 9.71251 6.29376 9.66876C6.25626 9.62501 5.99376 9.70626 5.81251 9.82501L5.78751 9.75626L5.36876 9.91876L4.98751 10.0375L4.93751 10.05L4.90626 9.97501L4.56876 10.0563L4.43751 10.1313C4.26876 10.1563 4.11251 10.175 3.96877 10.1813C3.80627 10.2625 3.90627 10.2563 3.76252 10.3625C3.64376 10.4563 3.55001 10.575 3.48751 10.7125C3.27501 10.7688 3.06877 10.8375 2.86877 10.9188C2.43127 11.0875 2.86876 10.9188 2.38126 11.1688C1.89376 11.4188 2.07502 11.45 1.61876 11.5813C1.38751 11.6438 1.16251 11.7313 0.956265 11.85C0.881265 11.9188 0.800015 11.9875 0.718765 12.05C0.637515 12.1 0.562515 12.1625 0.493765 12.2375C0.493765 12.2375 0.318765 12.325 0.400015 12.4563C0.481265 12.5875 0.156265 12.5125 0.225015 12.575C0.150015 12.75 0.187515 12.95 0.331265 13.075C0.318765 13.1438 0.306265 13.2188 0.300015 13.2938C0.275015 13.4688 0.381265 13.45 0.256265 13.6C0.187515 13.6813 0.237515 13.5125 0.031265 13.8125C-0.031235 13.9063 -0.043735 13.8625 0.012515 14.0125C0.068765 14.0625 0.125015 14.125 0.175015 14.1875C0.175015 14.2688 0.318765 14.2125 0.262515 14.3063L0.806265 14.5938L0.987515 14.725L1.34377 14.9125L1.40001 14.95C1.58126 14.925 1.91877 15.2125 1.91877 15.2125C1.91877 15.2125 1.61877 15.2 2.01252 15.3625C2.24377 15.4563 2.49377 15.5125 2.75002 15.5125C3.05001 15.5938 3.33126 15.7188 3.60001 15.8688C3.82501 16.0063 4.07502 16.0938 4.33751 16.125L5.46251 16.4688L5.75001 16.5125L5.72501 16.5813L5.74376 16.5938L5.88751 16.6688L6.05626 16.7313L6.03126 16.8063C6.12501 16.7938 6.22501 16.8438 6.21251 16.8938C6.20002 16.9438 6.36251 17.0063 6.40626 17.025C6.45001 17.05 6.53751 17.1188 6.63126 17.1688L6.71876 17.1938C6.76251 17.2063 6.81251 17.2188 6.85626 17.225C6.92501 17.2375 6.96251 17.275 7.03751 17.2875C7.09376 17.2938 7.14376 17.3063 7.19376 17.3313C7.25626 17.3688 7.33126 17.3938 7.40626 17.4063C7.46251 17.4063 7.35001 17.3563 7.43126 17.3313C7.51252 17.3063 7.51252 17.3063 7.55001 17.3313C7.58751 17.3563 7.53126 17.3938 7.53126 17.3938L7.61876 17.4375H7.73126C7.80626 17.4375 7.87501 17.45 7.95001 17.4688C8.03751 17.4875 8.12502 17.4938 8.21877 17.5L8.37502 17.4875C8.57502 17.6063 8.79377 17.7188 9.01877 17.8375L9.04377 17.7563L9.59377 18.0188L9.65627 18.0563C9.85002 18.0563 10.0438 18.0813 10.2313 18.1313C10.2313 18.1313 10.1063 18.1313 10.1313 18.1688H10.1375L10.275 18.1875C10.3438 18.1875 10.3688 18.1875 10.3625 18.2188L10.3563 18.2438L10.45 18.2563C10.4938 18.2438 10.5438 18.2375 10.5875 18.2375L10.7313 18.2688L11.025 18.3188C11.05 18.3438 11.075 18.3625 11.1 18.3813C11.125 18.4 11.1563 18.4 11.175 18.375C11.1813 18.3688 11.1813 18.3688 11.1813 18.3625L11.075 18.2875C11.2188 18.325 11.3625 18.3688 11.5125 18.4188L11.5625 18.5125C11.5625 18.5125 11.5063 18.5438 11.55 18.5563C11.5938 18.5813 11.65 18.5875 11.6938 18.5688L11.7 18.5438L11.7313 18.5L12.0438 18.6313L12.0813 18.7L12.1563 18.7688L12.2938 18.8438C12.3188 18.8688 12.3375 18.9 12.3438 18.9313L12.4688 18.9875L12.55 19L12.5813 19.025L12.6313 19.0625C12.65 19.0813 12.6875 19.0813 12.7063 19.0625L12.7125 19.0563L12.7188 19.05L12.6125 18.975C12.65 18.9813 12.6938 18.9813 12.7313 18.975C12.7688 19.0188 12.8063 19.0563 12.8438 19.1C12.8813 19.125 12.9188 19.15 12.9563 19.175C13.0875 19.2813 12.9438 19.4563 12.9438 19.4563L13.0313 19.5L13.075 19.5813C13.075 19.5813 13.0125 19.5813 13.025 19.6188C13.0375 19.6563 13.0375 19.6563 13.1063 19.6625C13.175 19.675 13.1313 19.6 13.1688 19.6188C13.2063 19.65 13.2313 19.6938 13.2438 19.7375C13.2563 19.775 13.2625 19.775 13.3 19.825C13.3313 19.8688 13.3438 19.9563 13.3813 20.0188C13.4125 20.0688 13.4375 20.1188 13.4625 20.1688L13.5 20.2688C13.5313 20.3875 13.55 20.5313 13.5625 20.5813C13.575 20.6313 13.6563 20.8313 13.6125 20.8563C13.5688 20.8813 13.6 21.0125 13.6813 21.0875L13.6125 21.1188L13.6938 21.3188L13.7438 21.5V21.525L13.675 21.5563L13.6938 21.725L13.7375 21.7813C13.7313 21.8688 13.7188 21.9563 13.7 22.0375L13.6375 22.0938C13.7688 22.2063 13.8875 22.3313 13.9938 22.4688C14.0563 22.5563 14.1125 22.6438 14.1563 22.7375L14.2 22.8125C14.225 22.8625 14.2563 22.9125 14.2938 22.9625L14.375 23.0625L14.4 23.1813C14.4 23.1813 14.3563 23.1625 14.3438 23.1813V23.2C14.3438 23.2188 14.35 23.2438 14.3625 23.2625C14.3813 23.2875 14.4063 23.3063 14.4313 23.325C14.5063 23.3875 14.4625 23.25 14.5 23.3C14.5438 23.375 14.575 23.4625 14.5938 23.55C14.6125 23.6125 14.6375 23.6688 14.6688 23.725C14.7125 23.8063 14.7125 23.8688 14.75 23.9438L14.825 24.0938L14.8563 24.1938C14.8813 24.2875 14.8875 24.3938 14.9 24.4625L14.9063 24.5125C14.9313 24.5938 14.95 24.675 14.9563 24.7625L15.0438 24.8688C15.1 24.9563 15.1563 25.05 15.2 25.1438C15.2375 25.225 15.2813 25.3 15.3313 25.375L15.4063 25.4813L15.4313 25.6C15.4313 25.6 15.3625 25.5625 15.3688 25.6188C15.375 25.675 15.375 25.6813 15.45 25.7375C15.525 25.7938 15.4813 25.6625 15.525 25.7125L15.5375 25.7313C15.5688 25.8063 15.5938 25.8813 15.6125 25.9625C15.6313 26.025 15.6563 26.0813 15.6813 26.1375C15.7188 26.2188 15.7188 26.2813 15.7563 26.3563C15.7813 26.4063 15.8063 26.4563 15.825 26.5125V26.525L15.8375 26.55C15.875 26.6313 15.9188 26.7063 15.9625 26.7813L16.0375 26.8875L16.0625 27.0063C16.0625 27.0063 15.9938 26.9688 16 27.025C16.0063 27.0813 16.0063 27.0875 16.0813 27.1438C16.1563 27.2063 16.1188 27.0688 16.1563 27.1188C16.2 27.2 16.225 27.2813 16.2438 27.375C16.2625 27.4375 16.2813 27.5 16.3125 27.5563C16.35 27.6438 16.35 27.7 16.3875 27.7813C16.4125 27.8313 16.4375 27.8813 16.4563 27.9375L16.4875 28.0375C16.5125 28.1563 16.5188 28.3063 16.5313 28.3563C16.5438 28.4063 16.6063 28.6125 16.5625 28.6375C16.5188 28.6625 16.5375 28.7938 16.6125 28.875L16.5375 28.9L16.6063 29.1063L16.6438 29.2938V29.3188L16.5688 29.3438L16.5813 29.5125L16.625 29.575C16.6125 29.6563 16.6 29.7375 16.5813 29.8188C16.625 29.8938 16.6375 29.8438 16.7125 29.9063C16.7938 29.9625 16.8813 30 16.9813 30.0188C16.9875 30.125 17.0125 30.2313 17.05 30.3313C17.1188 30.55 17.05 30.3313 17.1813 30.5688C17.3125 30.8063 17.3875 30.7 17.4188 30.925C17.4313 31.0438 17.4688 31.1563 17.5375 31.25C17.5875 31.2813 17.6313 31.3188 17.675 31.3563C17.7125 31.4 17.7563 31.4313 17.8063 31.4563C17.8063 31.4563 17.8563 31.5375 17.9875 31.4813C18.125 31.425 17.9875 31.6063 18.0625 31.5625C18.2938 31.575 18.525 31.5 18.7 31.3563C18.7438 31.3313 18.7813 31.2938 18.8063 31.2563C18.8688 31.3438 18.8375 31.375 19.0188 31.2313C19.0313 31.25 19.0625 31.2625 19.2688 31.2438C19.375 31.2375 19.3563 31.2688 19.4375 31.125C19.4438 31.0438 19.4563 30.9625 19.475 30.8875C19.5375 30.8313 19.4063 30.7563 19.5125 30.7438L19.4938 30.6188H19.5063L20.1375 29.45L20.3875 29.05L20.8063 28.275L20.8813 28.15C21.0313 27.7563 21.2313 27.3813 21.4813 27.0375C21.4813 27.0375 21.3 27.6375 21.7125 26.8063C21.9563 26.3188 22.1563 25.8125 22.3125 25.2938C22.5813 24.6813 22.8813 24.0813 23.2188 23.5C23.5125 23.0125 23.7563 22.4938 23.95 21.9625L25 19.6188C25.075 19.4188 25.1438 19.225 25.2125 19.0375L25.2813 19.0688L25.3063 19.0313L25.475 18.725L25.6438 18.3688L25.7125 18.4C25.75 18.2188 25.8688 18.0063 25.9188 18.0125C25.975 18.0188 26.1313 17.675 26.1813 17.5813L26.475 17.0875L26.5625 16.9125L26.675 16.625C26.7313 16.4813 26.7938 16.3938 26.8563 16.2375C26.8938 16.125 26.9375 16.0188 26.9875 15.9125C27.0688 15.7688 27.1375 15.625 27.1875 15.4688C27.2125 15.3563 27.1 15.5938 27.1188 15.4375C27.1188 15.35 27.1438 15.2625 27.1938 15.1875C27.25 15.0938 27.25 15.2125 27.25 15.2125L27.35 15.025L27.4063 14.8C27.4063 14.8 27.4313 14.6938 27.5563 14.35C27.6375 14.125 27.7 13.9188 27.7375 13.8L27.8063 13.4813C28.05 13.0375 28.3 12.5688 28.55 12.0688L28.475 12.0375L29.0625 10.8438L29.1313 10.7125C29.2313 10.3 29.35 9.90001 29.5 9.50001C29.5 9.50001 29.4313 9.76251 29.5 9.70001V9.68751L29.5875 9.40001C29.625 9.25001 29.6375 9.20001 29.6688 9.21251L29.6938 9.22501L29.75 9.02501C29.7563 8.93126 29.775 8.83751 29.7938 8.74376L29.8938 8.44376L30.0938 7.81876L30.2 7.63751C30.2688 7.50626 30.2188 7.46251 30.2188 7.46251L30.0813 7.71251L30.4313 6.76876L30.5563 6.63751C30.5563 6.63751 30.5688 6.73751 30.6 6.65626C30.65 6.56251 30.675 6.45626 30.6813 6.35001L30.6563 6.34376L30.625 6.28751L30.9125 5.59376L31 5.50001L31.1063 5.31876L31.2438 5.01251C31.275 4.96251 31.3188 4.91251 31.3625 4.87501L31.4813 4.58751L31.55 4.36876L31.6125 4.25001L31.7125 4.03126C31.7938 3.84376 31.7875 3.76876 31.775 3.74376L31.7688 3.73126L31.5625 4.21251C31.7188 3.75001 31.8063 3.26876 31.8313 2.78751L31.8875 2.60001L31.9125 2.50626C31.9125 2.50626 31.9625 2.63751 31.9625 2.49376C32.0125 2.33126 31.9813 2.16251 31.9063 2.01251ZM29.1063 3.45001L29.1188 3.53126L29.075 3.61876C29.075 3.60001 29.05 3.53126 29.0125 3.59376C28.9625 3.68751 28.9375 3.79376 28.9438 3.90001C28.9313 4.08751 29.0438 3.79376 29.0188 3.92501C28.9625 4.11251 28.9 4.29376 28.8188 4.47501C28.7563 4.62501 28.75 4.68126 28.6813 4.87501L28.5 5.35626L28.3813 5.70626L28.2938 5.92501L27.9875 6.55001C27.9313 6.66876 27.7625 7.08751 27.7063 7.08751C27.65 7.08751 27.525 7.35001 27.4875 7.56876L27.4188 7.53751L27.2438 7.97501L27.0625 8.35626L27.0313 8.40001L26.9625 8.36876L26.7813 8.68751L26.7375 8.84376C26.6313 8.99376 26.525 9.13751 26.425 9.25626L26.3313 9.28126C26.275 9.63751 26.2 9.99376 26.1063 10.3375L25.875 11L25.8125 11.1813L25.6938 11.5375L25.6188 11.8063L25.5 12.0375C25.5 12.0375 25.5 11.9563 25.4688 11.9813C25.4563 11.9875 25.45 12 25.4438 12.0125C25.4188 12.05 25.4 12.0875 25.3813 12.1313C25.3688 12.1688 25.3625 12.2125 25.35 12.3063C25.3188 12.4938 25.4563 12.2063 25.4188 12.3375C25.35 12.5188 25.2688 12.7 25.1813 12.875C25.1188 13 25.0688 13.1313 25.0188 13.2625C24.95 13.45 24.875 13.5563 24.8063 13.7313L24.6688 14.075L24.5688 14.2875L24.275 14.8L24.225 14.8938C24.15 15.0625 24.0625 15.225 23.9625 15.3875L23.8875 15.6688L23.65 16.325C23.4875 16.7375 23.45 16.8625 23.45 16.8625L23.3688 17.1313L23.25 17.3563C23.25 17.3563 23.2563 17.2188 23.1938 17.3313C23.1375 17.4188 23.1 17.525 23.0938 17.6313C23.0625 17.8188 23.2 17.5313 23.1625 17.6625L23.1438 17.7125C23.075 17.875 23 18.0375 22.9125 18.1938C22.85 18.3188 22.7938 18.45 22.7438 18.5813L22.525 19.05L22.3813 19.3938L22.3688 19.425L22.35 19.4813C22.1813 19.8875 22.15 20.0188 22.15 20.0188L22.0688 20.2875L21.95 20.5125C21.95 20.5125 21.9563 20.375 21.8938 20.4875C21.8313 20.575 21.8 20.6813 21.7938 20.7875C21.7563 20.975 21.9 20.6875 21.8625 20.8188C21.7938 21 21.7063 21.1813 21.6125 21.35C21.55 21.475 21.4875 21.6063 21.4438 21.7375L21.225 22.2L21.0813 22.55L20.975 22.7625L20.6188 23.3688C20.5563 23.4813 20.3563 23.9 20.3063 23.8938C20.25 23.8875 20.1063 24.15 20.0563 24.3688L19.9875 24.3375L19.7813 24.775L19.5813 25.15L19.55 25.1938L19.475 25.1563L19.2813 25.475L19.2313 25.6313C19.125 25.775 19.0188 25.9063 18.9188 26.0188C18.85 26.2 18.925 26.1188 18.8875 26.3125C18.8625 26.4688 18.875 26.6313 18.9125 26.7813C18.9125 26.7813 18.8563 26.8688 18.7438 27.0813C18.7063 26.8563 18.6313 26.6375 18.5125 26.4313L18.0875 25.3313L17.9375 25.0813L18.0125 25.0563V25.0313L17.9813 24.875L17.9188 24.7063L17.9938 24.6813C17.925 24.6188 17.9063 24.5063 17.95 24.4813C17.9938 24.4563 17.9375 24.2938 17.9313 24.2438C17.9188 24.1938 17.9188 24.0813 17.9 23.975L17.875 23.8875C17.8563 23.8438 17.8313 23.8 17.8125 23.7625C17.7813 23.7 17.7813 23.6438 17.7438 23.5813C17.7125 23.5375 17.6938 23.4875 17.6813 23.4313C17.6688 23.3563 17.6438 23.2875 17.6063 23.2188C17.5688 23.175 17.6063 23.2938 17.5313 23.2438C17.4563 23.1938 17.4625 23.1938 17.4563 23.1438C17.45 23.0938 17.5188 23.125 17.5188 23.125L17.5 23.025L17.4313 22.9375C17.3875 22.8813 17.3438 22.8188 17.3125 22.75C17.2688 22.6688 17.2188 22.5938 17.1688 22.525L17.0563 22.4063C17.0188 22.175 16.9688 21.9375 16.9063 21.6875L16.8313 21.7188L16.675 21.1188L16.6625 21.05C16.5313 20.9 16.425 20.7375 16.3375 20.5563C16.3375 20.5563 16.4188 20.6563 16.4375 20.6125L16.3625 20.4938C16.3125 20.4375 16.3 20.4188 16.325 20.4063L16.35 20.3938L16.2938 20.3125C16.2563 20.2875 16.2188 20.2563 16.1875 20.2188L16.1188 20.0938L15.9625 19.8375C15.9625 19.8063 15.9625 19.7688 15.9563 19.7375C15.9563 19.7063 15.9313 19.6813 15.9 19.6813C15.8938 19.6813 15.8938 19.6813 15.8875 19.6813L15.9063 19.8125C15.8375 19.675 15.775 19.5375 15.7125 19.3938L15.75 19.2938C15.75 19.2938 15.8063 19.3125 15.7938 19.275C15.7813 19.225 15.75 19.1813 15.7063 19.1563L15.6813 19.1688H15.625L15.4938 18.8125L15.5063 18.7125L15.4688 18.5625L15.3688 18.3438C15.3563 18.3 15.3563 18.2563 15.3563 18.2125L15.25 18.0375L15.2188 18.0063C15.2813 17.925 15.3375 17.8313 15.2563 17.775C15.1688 17.7125 15.0688 17.675 14.9625 17.6563C15.0313 17.5813 15.025 17.4625 14.95 17.3938C14.9438 17.3875 14.9313 17.3813 14.9188 17.375L14.7375 17.2625C14.4813 17.1188 14.2188 16.9875 13.9438 16.875L13.7813 16.8438C13.5813 16.8 13.6 16.5688 13.6 16.5688H13.4688L13.3625 16.5188C13.3625 16.5188 13.4313 16.4875 13.3813 16.4563C13.3313 16.425 13.3313 16.425 13.2375 16.4438C13.1438 16.4625 13.2813 16.5188 13.2125 16.5188C13.125 16.5063 13.0375 16.475 12.9625 16.4313C12.9 16.4063 12.8438 16.3875 12.775 16.375C12.6875 16.3563 12.6375 16.3188 12.5563 16.3C12.5 16.2938 12.45 16.2813 12.3938 16.2688L12.2938 16.225C12.175 16.1688 12.0625 16.0875 12.0125 16.0625C11.9625 16.0375 11.7625 15.9688 11.775 15.9125C11.7875 15.8563 11.6625 15.7938 11.5563 15.8063L11.5813 15.7313L11.375 15.6625L11.2 15.575L11.1813 15.5563L11.2063 15.4813L11.0625 15.3875H10.9875C10.925 15.325 10.8688 15.2625 10.8125 15.1938V15.1125C10.6375 15.1375 10.4625 15.15 10.2875 15.1438C10.1813 15.1313 10.075 15.1188 9.97502 15.0938L9.88752 15.0625C9.83127 15.05 9.77501 15.0438 9.71251 15.0375H9.58127L9.47502 14.9875C9.47502 14.9875 9.51877 14.9688 9.51252 14.9438C9.51252 14.9375 9.50627 14.9313 9.50002 14.925C9.48127 14.9125 9.46252 14.9063 9.44377 14.9C9.41252 14.9 9.38126 14.9063 9.35627 14.9125C9.26252 14.9313 9.39377 14.9875 9.33127 14.9875C9.24377 14.9688 9.15627 14.9438 9.08127 14.9C9.02502 14.875 8.96251 14.8563 8.90001 14.85C8.81252 14.8313 8.76252 14.7875 8.68126 14.775C8.61876 14.7625 8.57502 14.7563 8.51252 14.7375L8.41252 14.7C8.33127 14.6563 8.25002 14.6125 8.17502 14.5625L8.13127 14.5375C8.05002 14.5063 7.97501 14.4688 7.90626 14.4188H7.76876C7.66252 14.4063 7.55626 14.3938 7.45001 14.3688C7.36251 14.3438 7.28126 14.3313 7.19376 14.325H7.06251L6.95626 14.275C6.95626 14.275 7.03126 14.2438 6.97501 14.2125C6.92501 14.1813 6.92501 14.1813 6.83126 14.2C6.73751 14.2188 6.86876 14.275 6.80626 14.275H6.78126C6.70001 14.2563 6.62501 14.225 6.55626 14.1875C6.50001 14.1625 6.43751 14.1438 6.36876 14.1313C6.28126 14.1125 6.23127 14.0688 6.15001 14.0563C6.08751 14.0438 6.04376 14.0375 5.98126 14.0188H5.96876L5.95001 14C5.86251 13.9813 5.77501 13.9625 5.68751 13.9563H5.55626L5.45001 13.9063C5.45001 13.9063 5.52501 13.875 5.47501 13.8438C5.42501 13.8125 5.42501 13.8125 5.32501 13.8313C5.23126 13.85 5.36251 13.9063 5.30001 13.9C5.21251 13.8813 5.12501 13.8563 5.05001 13.8125C4.99376 13.7875 4.93126 13.7688 4.86876 13.7563C4.77501 13.7375 4.73127 13.7 4.65001 13.6813C4.58751 13.6688 4.55001 13.6625 4.48126 13.6438L4.38126 13.6C4.26876 13.5438 4.15001 13.4625 4.10626 13.4375C4.05626 13.4125 3.85627 13.3438 3.86877 13.2875C3.86877 13.2625 3.84377 13.2375 3.80627 13.2188L3.92501 13.1813L4.05626 13.1438C4.41251 12.9688 4.80001 12.85 5.19376 12.7875C5.19376 12.7875 4.68751 13.0813 5.50626 12.7875C5.98751 12.6188 6.45001 12.4 6.88751 12.1438C7.46876 11.8938 8.05627 11.6813 8.66252 11.5063C9.17502 11.3688 9.67501 11.175 10.15 10.9313L12.3688 10.0125L12.8875 9.75001L12.9125 9.81876L12.9563 9.81251L13.2688 9.71251L13.6125 9.57501L13.6438 9.64376C13.7875 9.53751 14 9.47501 14.0375 9.51876C14.075 9.56251 14.3938 9.43126 14.4938 9.40001L15.0125 9.25626L15.1813 9.19376L15.4438 9.07501L15.8125 8.93126C15.9063 8.88126 16.0063 8.83751 16.1125 8.80001C16.2563 8.75626 16.4 8.70001 16.5313 8.63126C16.6188 8.57501 16.3875 8.65626 16.5 8.56251C16.6125 8.46251 16.6188 8.46251 16.7125 8.44376C16.8063 8.42501 16.7375 8.50626 16.7375 8.50626L16.925 8.44376L17.1063 8.32501C17.2313 8.25001 17.3625 8.18126 17.5 8.11876C17.7 8.01876 17.875 7.92501 17.9813 7.86876L18.2313 7.70001L19.6438 7.25001L19.6063 7.18126L20.775 6.77501L20.9063 6.73751C21.2375 6.52501 21.5813 6.33751 21.9438 6.17501C21.9438 6.17501 21.7313 6.30626 21.8125 6.30626L21.825 6.30001L22.0625 6.16876C22.1813 6.09376 22.225 6.06876 22.2375 6.09376L22.25 6.11876L22.4188 6.02501C22.4875 5.96251 22.5625 5.90626 22.6375 5.86251L22.9 5.73126L23.4375 5.45626C23.5 5.44376 23.5625 5.43126 23.625 5.41251C23.7563 5.37501 23.75 5.31251 23.75 5.31251L23.5 5.38126L24.3563 5.00001H24.525C24.525 5.00001 24.4625 5.07501 24.5438 5.04376C24.6375 5.01251 24.725 4.96251 24.8 4.89376L24.7875 4.86876L24.8 4.80626L25.45 4.55001H25.5688L25.7563 4.50626L26.0563 4.41876C26.1125 4.40626 26.1688 4.40626 26.225 4.41876L26.4938 4.31876L26.6438 4.23751L26.7125 4.22501L26.8313 4.19376C26.9313 4.16251 26.95 4.12501 26.95 4.10001V4.08751L26.7 4.16251C26.975 4.03126 27.1 3.87501 27.3938 3.75001H27.5625C27.5625 3.75001 27.5 3.82501 27.5813 3.79376C27.675 3.76251 27.7625 3.71251 27.8375 3.64376L27.825 3.61876V3.56251L27.8313 3.52501C28.0188 3.45001 28.1563 3.32501 28.3375 3.25626L28.4313 3.21876L28.6313 3.02501L28.8188 2.98126L29.0563 2.75001C29.1125 2.73751 29.1688 2.73751 29.225 2.75001C29.2438 2.75001 29.25 2.73126 29.2688 2.71876C29.3813 2.82501 29.4313 2.98126 29.4 3.13126C29.4125 3.17501 29.4125 3.21876 29.4125 3.26251C29.3563 3.43126 29.1063 3.45001 29.1063 3.45001Z" fill="#0041E6"/>
</g>
<defs>
<clipPath id="clip0_7664_50190">
<rect width="32" height="32" fill="white"/>
</clipPath>
</defs>
</svg>
