<svg width="32" height="32" viewBox="0 0 32 32" fill="none" xmlns="http://www.w3.org/2000/svg">
<path d="M31.9875 22.8563C31.9812 22.8188 31.9812 22.775 31.9875 22.7375C32 22.6813 32 22.625 31.9875 22.575C31.9688 22.5375 31.9625 22.625 31.9125 22.575C31.8687 22.525 31.8687 22.5188 31.8813 22.4875C31.8938 22.45 31.9438 22.4875 31.9438 22.4875L31.9562 22.4125L31.925 22.3313C31.9062 22.2813 31.8938 22.225 31.8875 22.1688C31.8813 22.1 31.8687 22.0375 31.85 21.9688L31.7938 21.8563C31.8375 21.6875 31.875 21.5125 31.9125 21.3188H31.8375L31.9062 20.875L31.9188 20.825C31.8563 20.6875 31.8188 20.5438 31.8062 20.4C31.8062 20.4 31.8438 20.4938 31.8687 20.4625L31.8438 20.3625C31.8188 20.3125 31.8188 20.2938 31.8438 20.2938H31.8687L31.85 20.2188C31.825 20.1875 31.8063 20.1563 31.7938 20.125L31.7812 20.0125L31.7375 19.7875C31.75 19.7688 31.7562 19.7438 31.7687 19.7188C31.7875 19.6688 31.725 19.6625 31.725 19.6625L31.6938 19.7563C31.6812 19.6438 31.675 19.5313 31.675 19.4188L31.7375 19.3625C31.7375 19.3625 31.7812 19.3938 31.7812 19.3625C31.7875 19.325 31.775 19.2813 31.75 19.25H31.725L31.6812 19.2375L31.7 18.9813L31.75 18.9375L31.7812 18.8813L31.8062 18.7688C31.8188 18.7438 31.8438 18.725 31.8625 18.7125L31.875 18.6063L31.8625 18.5438L31.875 18.5188L31.8937 18.475C31.9 18.4563 31.8937 18.4313 31.8687 18.425C31.8625 18.425 31.8625 18.425 31.8563 18.425H31.8438L31.8125 18.5188C31.8 18.4063 31.7125 18.3438 31.7125 18.2313L31.7563 18.1938L31.775 18.175C31.775 18.175 31.8188 18.2063 31.8188 18.175C31.825 18.1375 31.8125 18.0938 31.7875 18.0625H31.7625H31.7437L31.7188 18.0563C31.7188 17.9813 31.6687 17.9188 31.675 17.85V17.8125L31.5812 17.7188L31.6125 17.65C31.6562 17.65 31.6562 17.65 31.7125 17.5375C31.7125 17.4563 31.7188 17.375 31.7313 17.2938C31.7875 17.2375 31.6625 17.1625 31.7563 17.15L31.625 16.5375L31.6063 16.3125L31.5187 15.9063L31.5063 15.8375C31.375 15.7125 31.375 15.2563 31.375 15.2563C31.375 15.2563 31.55 15.5 31.425 15.0875C31.35 14.8438 31.2375 14.6063 31.0938 14.4C30.975 14.1063 30.8937 13.8 30.8438 13.4938C30.8125 13.225 30.7313 12.9688 30.6 12.7375L30.2062 11.6063L30.075 11.3438L30.1437 11.325V11.3L30.1187 11.1375L30.0688 10.9625L30.1375 10.9438C30.075 10.875 30.0562 10.7625 30.1 10.7375C30.1438 10.7188 30.1 10.55 30.0875 10.5C30.075 10.45 30.0875 10.3313 30.0688 10.225L30.05 10.1375C30.0312 10.0813 30.0125 10.05 29.9937 10.0063C29.975 9.96251 29.9688 9.88751 29.9375 9.81876C29.9125 9.76876 29.8938 9.71876 29.8813 9.66251C29.875 9.58751 29.8563 9.51251 29.825 9.43751C29.7938 9.39376 29.8188 9.51251 29.7563 9.45626C29.6938 9.40001 29.6938 9.40001 29.6938 9.34376C29.6938 9.28751 29.75 9.33126 29.75 9.33126L29.7375 9.23126L29.675 9.13751C29.6375 9.07501 29.6 9.00626 29.575 8.93751C29.5375 8.85626 29.5 8.77501 29.4562 8.69376L29.3625 8.55626C29.3375 8.31876 29.3125 8.07501 29.275 7.81876L29.2 7.83751L29.1063 7.22501V7.15626C29 6.98751 28.9125 6.80626 28.8563 6.61876C28.8563 6.61876 28.9188 6.73126 28.9438 6.68751V6.68126L28.875 6.55626C28.8375 6.49376 28.825 6.46876 28.85 6.46251L28.875 6.45626L28.8312 6.36876C28.8 6.33751 28.7687 6.30001 28.7437 6.25626L28.6938 6.11876L28.5812 5.83751C28.5875 5.80626 28.5875 5.76876 28.5875 5.73751C28.5875 5.66876 28.5312 5.67501 28.5312 5.67501V5.80626C28.4875 5.66251 28.4438 5.51251 28.4062 5.35626L28.45 5.26876C28.45 5.26876 28.5 5.30001 28.4937 5.25626C28.4875 5.20626 28.4688 5.15626 28.4312 5.11876H28.4375L28.3813 5.11251L28.325 4.76876L28.3625 4.70001L28.375 4.60001L28.3625 4.44376C28.3687 4.41251 28.3813 4.38126 28.4062 4.35626L28.3875 4.22501L28.3563 4.14376L28.3625 4.10626V4.04376C28.3625 3.98751 28.3312 3.98126 28.3125 3.97501H28.3V4.11251C28.2562 3.96876 28.1562 3.90001 28.1187 3.74376L28.15 3.68751L28.1625 3.65626C28.1625 3.65626 28.2125 3.68751 28.2062 3.64376C28.2062 3.59376 28.1812 3.54376 28.1437 3.50626H28.125H28.1063H28.075C28.0563 3.40626 27.9875 3.33126 27.9813 3.23751L27.975 3.18751L27.8625 3.07501L27.875 2.97501L27.7375 2.85001C27.7437 2.81876 27.7625 2.78751 27.7812 2.76251C27.7812 2.69376 27.6688 2.65001 27.6688 2.61251L27.6625 2.51876C27.55 2.49376 27.7188 2.43751 27.6187 2.44376C27.6187 2.44376 27.6375 2.36876 27.4688 2.23126C27.2938 2.09376 27.2687 2.10626 27.2687 2.10626C27.2375 2.08126 27.2 2.06251 27.1562 2.05626C27.0625 2.03126 26.9937 2.10001 27.0063 2.21251C27.0188 2.32501 26.8687 2.26876 26.8687 2.26876C26.8687 2.26876 26.8125 2.30626 26.8375 2.43751C26.85 2.49376 26.825 2.48751 26.8 2.46876C26.7687 2.45001 26.775 2.39376 26.7563 2.35626C26.7 2.19376 26.5813 2.24376 26.6625 2.07501C26.7063 1.98126 26.725 2.14376 26.825 1.81251C26.8563 1.71251 26.8875 1.74376 26.75 1.63126C26.6562 1.60626 26.5625 1.57501 26.475 1.53751C26.4312 1.46876 26.2938 1.56251 26.3125 1.46876C26.0625 1.44376 25.8062 1.41876 25.5375 1.40001L25.2625 1.35001L24.7375 1.30001L24.65 1.28751C24.4 1.32501 24.15 1.30626 23.9062 1.23751C23.9062 1.23751 24.2625 1.14376 23.725 1.13751C23.4062 1.13126 23.0875 1.17501 22.7812 1.25626C22.3875 1.28751 22 1.28126 21.6063 1.23751C21.275 1.19376 20.9437 1.20001 20.6125 1.26251L19.1187 1.34376C18.9937 1.36251 18.875 1.38751 18.7625 1.40626V1.33751L18.7375 1.33126L18.5312 1.31876H18.3125V1.25001C18.2062 1.29376 18.0688 1.28126 18.0562 1.23126C18.0437 1.18126 17.825 1.18751 17.7625 1.18126C17.7 1.17501 17.5625 1.14376 17.4312 1.13126H17.3188C17.2563 1.13751 17.2 1.14376 17.1375 1.15626C17.05 1.16876 16.9875 1.15001 16.8937 1.15626C16.825 1.16876 16.7563 1.17501 16.6938 1.16876C16.6 1.15626 16.5063 1.16251 16.4125 1.17501C16.35 1.19376 16.5 1.20001 16.4125 1.24376C16.325 1.29376 16.325 1.29376 16.2625 1.28126C16.2 1.26876 16.2625 1.21876 16.2625 1.21876C16.2625 1.21876 16.2188 1.21876 16.1375 1.20626L16.0063 1.24376C15.9188 1.26876 15.825 1.28126 15.7375 1.29376C15.6 1.31251 15.475 1.33751 15.4062 1.35626C15.3313 1.37501 15.2812 1.40001 15.225 1.41876C14.9313 1.38751 14.625 1.35626 14.3062 1.33751V1.41251L13.5312 1.37501L13.4438 1.36251C13.2063 1.43126 12.9625 1.47501 12.7188 1.49376C12.7188 1.49376 12.875 1.45626 12.8313 1.42501H12.825L12.6562 1.45626C12.5688 1.48126 12.5375 1.48751 12.5375 1.45626V1.43751L12.4187 1.46251C12.3687 1.48751 12.3125 1.51251 12.2563 1.52501L12.075 1.54376L11.7 1.60001C11.6625 1.58751 11.6188 1.58126 11.5813 1.57501C11.4938 1.56251 11.4875 1.61876 11.4875 1.61876L11.65 1.64376C11.4625 1.65626 11.2688 1.66876 11.0688 1.67501L10.975 1.61251C10.975 1.61251 11.025 1.56876 10.975 1.56876C10.9125 1.56251 10.85 1.57501 10.7937 1.60626V1.63126L10.7688 1.67501C10.6188 1.67501 10.475 1.67501 10.3313 1.66876L10.2625 1.61876L10.1438 1.58751L9.95 1.56876C9.9125 1.55626 9.88125 1.53751 9.85 1.51251C9.775 1.50626 9.71875 1.50626 9.675 1.50001L9.575 1.51251C9.5625 1.50626 9.54375 1.50626 9.53125 1.50001L9.45625 1.48751C9.39375 1.47501 9.36875 1.50626 9.3625 1.52501V1.53751L9.525 1.56251C9.3375 1.57501 9.23125 1.66876 9.03125 1.67501L8.95625 1.63126L8.925 1.61251C8.925 1.61251 8.975 1.56876 8.925 1.56876C8.8625 1.56251 8.8 1.57501 8.74375 1.60626V1.63126L8.7375 1.65001L8.725 1.67501C8.6 1.67501 8.49375 1.72501 8.36875 1.72501H8.30625L8.14375 1.81876L8.025 1.78751C7.96875 1.75001 7.89375 1.76876 7.85625 1.82501C7.85 1.83751 7.84375 1.85001 7.8375 1.86251C7.83125 1.87501 7.81875 1.88751 7.80625 1.89376C7.78125 1.88126 7.75625 1.86876 7.73125 1.85001C7.71875 1.85001 7.7125 1.85626 7.7 1.86251L7.68125 1.84376C7.65625 1.85626 7.6375 1.86876 7.61875 1.88751C7.58125 1.91251 7.54375 1.93751 7.51875 1.93751H7.49375C7.48125 1.88126 7.475 1.81876 7.46875 1.76251C7.45625 1.62501 7.275 1.64376 7.23125 1.61876C7.19375 1.60001 7.00625 1.33751 6.91875 1.48126C6.85625 1.58126 6.80625 1.68751 6.78125 1.80001C6.725 1.73126 6.625 1.73126 6.55625 1.78751C6.5375 1.80626 6.525 1.82501 6.5125 1.85001L6.39375 2.04376C6.25625 2.28126 6.09375 2.61876 5.95625 2.91876L5.9125 3.10001C5.88125 3.22501 5.7625 3.30626 5.6375 3.29376L5.61875 3.44376L5.5625 3.55626C5.5625 3.55626 5.5375 3.48126 5.50625 3.53751C5.46875 3.59376 5.46875 3.59376 5.48125 3.69376C5.4875 3.79376 5.55625 3.65001 5.55 3.71876C5.525 3.81876 5.4875 3.90626 5.4375 3.99376C5.40625 4.05626 5.3875 4.12501 5.36875 4.19376C5.34375 4.29376 5.3 4.34376 5.275 4.43751C5.25625 4.50001 5.25 4.55001 5.21875 4.61876L5.175 4.72501C5.1125 4.85001 5.01875 4.97501 4.99375 5.03126C4.96875 5.08751 4.88125 5.30626 4.83125 5.29376C4.775 5.28126 4.7125 5.41876 4.7125 5.53751L4.64375 5.51251L4.55625 5.73751L4.45625 5.93126L4.4375 5.95626L4.36875 5.93126L4.2625 6.08751L4.25 6.16876C4.1875 6.23751 4.11875 6.30001 4.04375 6.36251H3.95625C3.9625 6.55626 3.95625 6.74376 3.93125 6.93751C3.91875 7.01251 3.8875 7.14376 3.85 7.28126L3.825 7.37501C3.80625 7.43751 3.79375 7.50001 3.78125 7.56251L3.7625 7.70626L3.7 7.81876C3.7 7.81876 3.6875 7.77501 3.6625 7.78751C3.65625 7.78751 3.65 7.79376 3.64375 7.80001C3.63125 7.81876 3.61875 7.83751 3.6125 7.86251C3.60625 7.89376 3.60625 7.92501 3.6125 7.95626C3.61875 8.06251 3.6875 7.91251 3.68125 7.98126C3.65625 8.07501 3.61875 8.16876 3.56875 8.25626C3.5375 8.31876 3.5125 8.38751 3.49375 8.45626C3.4625 8.55626 3.41875 8.60626 3.39375 8.69376C3.375 8.75626 3.3625 8.80626 3.3375 8.87501L3.2875 8.98751C3.2375 9.08126 3.16875 9.18126 3.13125 9.24376L3.10625 9.28751C3.06875 9.37501 3.01875 9.45626 2.9625 9.53126L2.94375 9.67501C2.91875 9.79376 2.89375 9.90626 2.85625 10.0188C2.825 10.1125 2.8 10.2063 2.78125 10.3L2.75625 10.4438L2.69375 10.5563C2.69375 10.5563 2.675 10.475 2.6375 10.5313C2.6 10.5875 2.6 10.5875 2.60625 10.6875C2.6125 10.7938 2.68125 10.6438 2.66875 10.7188L2.6625 10.7438C2.63125 10.8313 2.59375 10.9125 2.55 10.9875C2.51875 11.05 2.49375 11.1188 2.475 11.1875C2.44375 11.2875 2.4 11.3375 2.36875 11.425C2.35 11.4875 2.3375 11.5375 2.3125 11.6063L2.30625 11.6188L2.3 11.65C2.26875 11.7438 2.24375 11.8375 2.225 11.9313L2.2 12.075L2.1375 12.1875C2.1375 12.1875 2.11875 12.1063 2.08125 12.1625C2.04375 12.2188 2.04375 12.225 2.05625 12.3313C2.06875 12.4438 2.13125 12.2875 2.11875 12.3563C2.09375 12.45 2.05 12.5438 2 12.6313C1.96875 12.6938 1.94375 12.7625 1.925 12.8313C1.89375 12.925 1.85 12.9813 1.81875 13.0688C1.8 13.1313 1.7875 13.1813 1.75625 13.25L1.70625 13.3625C1.6375 13.4875 1.54375 13.6063 1.5125 13.6625C1.48125 13.7125 1.3875 13.9313 1.3375 13.9188C1.2875 13.9063 1.2125 14.0375 1.20625 14.1563L1.14375 14.1125L1.04375 14.3375L0.93125 14.525L0.9125 14.55L0.84375 14.5188L0.73125 14.675L0.71875 14.7563C0.65625 14.8188 0.5875 14.875 0.51875 14.9313C0.49375 15.025 0.54375 14.9875 0.54375 15.0938C0.55625 15.1938 0.59375 15.2875 0.64375 15.3688C0.575 15.4625 0.51875 15.5688 0.46875 15.675C0.3625 15.9063 0.46875 15.675 0.39375 15.9625C0.31875 16.25 0.4375 16.2125 0.3 16.425C0.225 16.5313 0.175 16.6563 0.15625 16.7875C0.16875 16.85 0.16875 16.9063 0.16875 16.9688C0.1625 17.025 0.16875 17.0813 0.18125 17.1375C0.18125 17.1375 0.15625 17.2375 0.2875 17.2875C0.41875 17.3313 0.2 17.4 0.28125 17.4063C0.34375 17.4875 0.425 17.55 0.51875 17.5938L0.5375 17.6875C0.5625 17.8625 0.35625 17.9125 0.35625 17.9125L0.39375 18.025C0.39375 18.0875 0.38125 18.125 0.38125 18.125C0.38125 18.125 0.33125 18.075 0.31875 18.125C0.30625 18.175 0.30625 18.175 0.35625 18.25C0.4 18.3188 0.40625 18.1938 0.425 18.25C0.4375 18.325 0.4375 18.4063 0.425 18.4813C0.41875 18.5375 0.425 18.5938 0.4375 18.65C0.45 18.7313 0.43125 18.7813 0.4375 18.8563C0.44375 18.9125 0.45625 18.9438 0.45625 19V19.0938C0.44375 19.2063 0.4125 19.325 0.40625 19.3688C0.4 19.4125 0.40625 19.6 0.35625 19.6125C0.30625 19.6188 0.29375 19.7375 0.3375 19.825H0.3V20.0125L0.28125 20.1813L0.275 20.1875H0.2L0.1625 20.3313L0.1875 20.3938C0.15625 20.4625 0.11875 20.5313 0.075 20.5938L0 20.6188C0.08125 20.75 0.14375 20.8938 0.19375 21.0375C0.21875 21.125 0.2375 21.2188 0.25 21.3125C0.25 21.3438 0.25625 21.3625 0.2625 21.3875C0.26875 21.4375 0.28125 21.4875 0.29375 21.5375L0.33125 21.65C0.33125 21.7125 0.31875 21.75 0.31875 21.75C0.31875 21.75 0.2875 21.7188 0.26875 21.7375C0.2625 21.7438 0.25625 21.75 0.25625 21.7563C0.25 21.775 0.25 21.7938 0.25625 21.8125C0.26875 21.8375 0.28125 21.8625 0.29375 21.8813C0.3375 21.95 0.34375 21.825 0.3625 21.8813C0.375 21.9563 0.375 22.0375 0.3625 22.1125C0.35625 22.1688 0.3625 22.225 0.375 22.2813C0.3875 22.3625 0.36875 22.4125 0.375 22.4875C0.38125 22.5438 0.39375 22.575 0.39375 22.6313V22.725C0.38125 22.8063 0.36875 22.8813 0.35 22.9563C0.35 22.975 0.34375 22.9875 0.34375 23C0.34375 23.075 0.33125 23.15 0.3125 23.225C0.325 23.2625 0.34375 23.3 0.35625 23.3375C0.38125 23.425 0.4 23.5188 0.4125 23.6125C0.41875 23.6875 0.4375 23.7625 0.45625 23.8375L0.49375 23.95C0.49375 24.0125 0.48125 24.05 0.48125 24.05C0.48125 24.05 0.43125 24 0.41875 24.05C0.40625 24.1 0.40625 24.1 0.45625 24.175C0.50625 24.25 0.50625 24.1188 0.53125 24.175V24.1938C0.5375 24.2625 0.5375 24.3375 0.53125 24.4063C0.525 24.4625 0.53125 24.5188 0.54375 24.575C0.55625 24.6563 0.5375 24.7063 0.54375 24.7813C0.55 24.8313 0.55625 24.8813 0.5625 24.9313V24.9438V24.9688C0.56875 25.0438 0.5875 25.1188 0.60625 25.1938L0.64375 25.3063C0.64375 25.3688 0.63125 25.4063 0.63125 25.4063C0.63125 25.4063 0.58125 25.3563 0.56875 25.4063C0.55625 25.4563 0.55625 25.4563 0.60625 25.5313C0.65 25.6063 0.65625 25.475 0.675 25.5313C0.6875 25.6063 0.6875 25.6875 0.675 25.7625C0.66875 25.8188 0.675 25.875 0.6875 25.9313C0.7 26.0125 0.68125 26.0625 0.6875 26.1375C0.69375 26.1938 0.70625 26.225 0.70625 26.2813V26.375C0.69375 26.4875 0.6625 26.6063 0.65625 26.65C0.65 26.6938 0.65625 26.8813 0.60625 26.8938C0.55625 26.9063 0.54375 27.0188 0.5875 27.1063H0.525V27.2938L0.50625 27.4625V27.475H0.44375L0.4125 27.6188L0.43125 27.6813C0.4 27.75 0.3625 27.8125 0.31875 27.875C0.33125 27.95 0.3625 27.9125 0.4125 27.9875C0.45625 28.05 0.51875 28.0938 0.5875 28.125C0.5875 28.1938 0.59375 28.2625 0.6 28.3313V28.4188C0.6 28.6188 0.6 28.4188 0.65625 28.65C0.65625 28.6625 0.6625 28.6688 0.66875 28.6813C0.60625 28.6563 0.44375 28.6313 0.6375 29.1375C0.78125 29.4438 1.03125 29.6875 1.35 29.8188C1.45625 29.8563 1.56875 29.8813 1.68125 29.8938L1.78125 29.9063L1.9875 29.9313L2.425 29.975L3.33125 30.05L3.65625 30.0375C4.05625 30.0313 4.15 30.2438 4.15 30.2438L4.4 30.2188L4.63125 30.2438C4.63125 30.2438 4.5125 30.2875 4.63125 30.3063C4.725 30.325 4.825 30.3188 4.91875 30.2813C5.0875 30.2438 4.8 30.225 4.91875 30.2063C5.09375 30.2 5.275 30.2063 5.45 30.225C5.575 30.2313 5.70625 30.2313 5.83125 30.225L6.29375 30.2438H6.625L6.8375 30.2563L7.4625 30.3375C7.575 30.35 7.99375 30.3625 8.00625 30.4125C8.01875 30.4625 8.2875 30.4875 8.4875 30.45V30.5188L8.91875 30.5313L9.3 30.5625L9.35 30.5688V30.6438L9.68125 30.6938L9.825 30.675C9.9875 30.7188 10.1438 30.7563 10.2812 30.8063L10.3375 30.8813C10.6625 30.8063 10.9875 30.7563 11.3125 30.7188L11.9438 30.675L12.1187 30.6688L12.4625 30.6438L12.7125 30.6125L12.9438 30.6313C12.9438 30.6313 12.875 30.6625 12.9062 30.6813C12.9187 30.6875 12.9313 30.6938 12.9438 30.6938C12.9875 30.7 13.025 30.7 13.0688 30.7C13.125 30.6938 13.175 30.6813 13.2312 30.6625C13.4 30.6188 13.1062 30.6063 13.2312 30.5938C13.4062 30.5813 13.5875 30.5813 13.7688 30.5938C13.8938 30.6 14.025 30.6 14.15 30.5938H14.6187L14.95 30.5813L15.1625 30.5875L15.7 30.6375L15.7937 30.6438C15.9625 30.6438 16.1312 30.6563 16.3 30.6813L16.5562 30.6375L17.1875 30.5813C17.5875 30.5563 17.7062 30.5375 17.7062 30.5375L17.9562 30.5L18.1875 30.5125C18.1875 30.5125 18.0688 30.5625 18.1875 30.5688C18.2812 30.5813 18.3813 30.575 18.4688 30.5313C18.6375 30.4875 18.3438 30.4813 18.4688 30.4563H18.5187C18.6812 30.45 18.8438 30.45 19.0063 30.4563C19.1313 30.4563 19.2625 30.45 19.3875 30.4438L19.8563 30.4375L20.1875 30.4125H20.2188H20.275C20.45 30.4063 20.6188 30.3875 20.7938 30.3625L21.0438 30.3188L21.2812 30.325C21.2812 30.325 21.1688 30.375 21.2812 30.3875C21.375 30.4 21.475 30.3875 21.5625 30.3438C21.725 30.2938 21.4375 30.2938 21.5625 30.275C21.7375 30.2563 21.9188 30.25 22.0938 30.2625C22.2188 30.2625 22.35 30.2563 22.475 30.2438L22.9438 30.225L23.275 30.1938H23.4875L24.1187 30.225C24.2375 30.225 24.65 30.2063 24.675 30.2563C24.7 30.3063 24.9625 30.3063 25.1625 30.2563V30.3313L25.6 30.3125H25.9875H26.0375V30.3875L26.3687 30.4063L26.5125 30.375C26.675 30.4 26.825 30.4313 26.9562 30.4625C27.125 30.4375 27.0312 30.4125 27.2 30.3563C27.3375 30.3063 27.4562 30.2313 27.5625 30.1313C27.775 30.1438 27.9875 30.1375 28.1938 30.1125C28.65 30.0813 28.1938 30.1125 28.7125 30.025C29.2312 29.9375 29.075 29.8563 29.5375 29.8563C29.7688 29.8625 30 29.8375 30.225 29.7875C30.225 29.7813 30.45 29.6875 30.5 29.675C30.5875 29.65 30.675 29.6125 30.7563 29.5625C30.7563 29.5625 30.9375 29.525 30.9 29.3938C30.8625 29.2563 31.1437 29.4063 31.0938 29.3313C31.2875 29.0375 31.1625 28.8938 31.0312 28.7125C30.9875 28.6563 30.9375 28.6125 30.8687 28.5875C30.9 28.5313 30.9437 28.4813 30.9875 28.4375C31.0625 28.4188 30.975 28.325 31.0688 28.35C31.0938 28.275 31.1125 28.2 31.1313 28.125C31.1438 28.1 31.15 28.0875 31.1437 28.075C31.1562 28.0188 31.175 27.9625 31.1938 27.9063L31.2625 27.75L31.3438 27.4563L31.3625 27.4063C31.2937 27.2813 31.4688 26.9813 31.4688 26.9813C31.4688 26.9813 31.5375 27.2063 31.5812 26.8813C31.6062 26.6938 31.5875 26.5063 31.525 26.325C31.5187 26.0938 31.5562 25.8625 31.6187 25.6438C31.6812 25.4563 31.6938 25.2563 31.6562 25.0625V24.1875L31.6125 23.975H31.6812L31.6875 23.9625L31.7125 23.8438L31.7188 23.7063H31.7875C31.75 23.6438 31.7688 23.5625 31.8188 23.5563C31.8687 23.55 31.875 23.425 31.8813 23.3875C31.8875 23.35 31.9312 23.275 31.9438 23.1938L31.95 23.1313C31.9563 23.0938 31.9562 23.0563 31.9562 23.0188C31.9812 22.95 32 22.9125 31.9875 22.8563ZM29.5 19.4063C29.4875 19.5 29.45 19.6 29.4438 19.6375C29.4375 19.675 29.4375 19.8313 29.3875 19.8375C29.3375 19.8438 29.325 19.9438 29.3625 20.0125H29.3V20.175L29.275 20.3188L29.2687 20.3375H29.1875L29.1437 20.4625L29.1625 20.5188C29.125 20.575 29.0875 20.6313 29.0438 20.6875L28.9688 20.7063C29.0438 20.8188 29.1062 20.9375 29.15 21.0688C29.175 21.1438 29.1875 21.225 29.2 21.3L29.2125 21.3625C29.2188 21.4063 29.225 21.45 29.2375 21.4875L29.2687 21.5813L29.2563 21.6688C29.2563 21.6688 29.225 21.6438 29.2062 21.6563C29.2 21.6625 29.2 21.6625 29.1938 21.6688C29.1875 21.6813 29.1875 21.7 29.1938 21.7125C29.2 21.7313 29.2125 21.7563 29.2313 21.7688C29.275 21.8313 29.2875 21.725 29.3062 21.7688C29.3188 21.8313 29.3188 21.9 29.3062 21.9625C29.3 22.0063 29.3 22.0563 29.3062 22.1063C29.3125 22.175 29.2937 22.2188 29.3062 22.275C29.3125 22.3188 29.3188 22.3563 29.3188 22.4L29.3125 22.475C29.3 22.5438 29.2812 22.6063 29.2563 22.6688L29.25 22.7063C29.2437 22.7688 29.2312 22.8313 29.2062 22.8938L29.25 22.9875C29.2687 23.0625 29.2812 23.1438 29.2938 23.225C29.3 23.2875 29.3125 23.3563 29.3312 23.4188L29.3625 23.5125L29.3438 23.6C29.3438 23.6 29.3 23.5563 29.2812 23.6C29.2625 23.6438 29.2687 23.6438 29.3125 23.7063C29.3563 23.7688 29.3687 23.6625 29.3813 23.7063V23.725C29.3875 23.7875 29.3813 23.8438 29.3687 23.9C29.3625 23.95 29.3625 23.9938 29.3687 24.0438C29.375 24.1125 29.3562 24.1563 29.3625 24.2125C29.3687 24.2563 29.375 24.2938 29.375 24.3375V24.35V24.3688C29.3813 24.4313 29.3875 24.5 29.4062 24.5625L29.4375 24.6563L29.4188 24.7438C29.4188 24.7438 29.375 24.7 29.3563 24.7438C29.3375 24.7875 29.3438 24.7875 29.3875 24.8563C29.4313 24.925 29.4437 24.8125 29.4562 24.8563C29.4625 24.9188 29.4625 24.9875 29.4438 25.05C29.4375 25.1 29.4375 25.1438 29.4438 25.1938C29.4438 25.2625 29.4312 25.3063 29.4312 25.3688C29.4375 25.4125 29.4375 25.45 29.4375 25.4938V25.5625C29.4188 25.6563 29.375 25.75 29.3687 25.7875C29.3625 25.8188 29.35 25.9813 29.3 25.9875C29.25 25.9938 29.225 26.0875 29.2625 26.1625H29.1938L29.1812 26.3188L29.15 26.4563L29.1375 26.475H29.0625L29.0125 26.5938L29.025 26.65C28.9875 26.7063 28.9438 26.7563 28.9 26.8C28.9062 26.8625 28.9438 26.8313 28.9813 26.9C29.0312 26.9625 29.1 27.0188 29.175 27.0563C29.1437 27.1313 29.1313 27.2063 29.125 27.2875C29.1125 27.4563 29.125 27.2875 29.1625 27.4875C29.2 27.6875 29.2937 27.6375 29.2437 27.8C29.2375 27.8188 29.2313 27.8438 29.2313 27.8625H29.1688L28.7375 27.8313H27.95H27.8188C27.4438 27.8875 27.0625 27.8875 26.6812 27.8313C26.6812 27.8313 27.225 27.7188 26.4 27.7438C25.9125 27.7625 25.4312 27.8188 24.9562 27.9188C24.3562 27.9688 23.7563 27.9813 23.1562 27.95C22.65 27.9188 22.1375 27.9375 21.6375 28L19.3438 28.0938L18.7875 28.1563V28.0875L18.75 28.0813L18.4375 28.0625H18.0875V27.9875C17.925 28.0313 17.7125 28.0188 17.6938 27.9688C17.6812 27.9188 17.3438 27.9188 17.25 27.9125L16.7375 27.8563H16.5625L16.2938 27.8688H15.9125C15.8063 27.8813 15.7063 27.8813 15.6 27.875C15.4563 27.8625 15.3125 27.8625 15.1687 27.875C15.0687 27.8938 15.3062 27.9 15.1687 27.9438C15.1 27.9813 15.0188 27.9938 14.9375 27.975C14.8438 27.9625 14.9375 27.9125 14.9375 27.9125L14.75 27.9L14.5437 27.9313C14.4062 27.95 14.2625 27.9625 14.125 27.9688C13.9125 27.9813 13.725 28.0063 13.6125 28.0188L13.325 28.075L11.9125 27.9438V28.0188L10.75 27.9375L10.6187 27.925C10.25 27.975 9.875 28 9.5 28C9.5 28 9.7375 27.9688 9.66875 27.9375H9.65625L9.39375 27.9563C9.2625 27.975 9.2125 27.975 9.2125 27.9563V27.9313L9.03125 27.9438C8.95 27.9688 8.86875 27.9813 8.78125 27.9938L8.5 28L7.91875 28.025L7.7375 27.9938C7.60625 27.975 7.5875 28.0313 7.5875 28.0313L7.8375 28.0688L6.94375 28.0563L6.8 27.9875C6.8 27.9875 6.88125 27.95 6.8 27.9438C6.70625 27.9313 6.60625 27.9375 6.51875 27.9688V27.9938L6.48125 28.0375L5.8125 27.9938L5.7 27.9375L5.525 27.8938L5.23125 27.8563C5.18125 27.8438 5.13125 27.8188 5.0875 27.7938L4.8125 27.7688L4.65 27.775L4.5875 27.7625L4.475 27.7438C4.375 27.7313 4.34375 27.7563 4.33125 27.7688V27.7813L4.58125 27.825C4.2875 27.825 4.11875 27.9063 3.8125 27.8938L3.7125 27.8438L3.6625 27.8188C3.6625 27.8188 3.74375 27.7813 3.6625 27.775C3.56875 27.7625 3.46875 27.7688 3.38125 27.7938V27.8188L3.36875 27.8375L3.34375 27.8625C3.1875 27.8563 3.05 27.875 2.90625 27.875C2.925 27.8063 2.94375 27.7563 2.94375 27.7563C2.94375 27.7563 3.03125 28 3.04375 27.6313C3.05 27.4125 3.01875 27.1938 2.9375 26.9938C2.9125 26.7313 2.925 26.4625 2.96875 26.2C3.01875 25.9813 3.0125 25.75 2.95625 25.5313L2.89375 24.5188C2.875 24.4313 2.85625 24.3563 2.8375 24.275H2.90625L2.9125 24.2563L2.93125 24.1188V23.9625H3.00625C2.9625 23.8938 2.975 23.7938 3.025 23.7875C3.075 23.7813 3.06875 23.6313 3.075 23.5875C3.08125 23.5438 3.11875 23.45 3.13125 23.3625C3.13125 23.3375 3.13125 23.3125 3.13125 23.2875C3.125 23.2438 3.11875 23.2063 3.1125 23.1688C3.1 23.1125 3.11875 23.0688 3.1125 23C3.1 22.9563 3.1 22.9063 3.1 22.8625C3.1125 22.8 3.1125 22.7375 3.1 22.6688C3.08125 22.625 3.075 22.7313 3.025 22.6688C2.98125 22.6063 2.98125 22.6125 2.9875 22.5688C3 22.525 3.05 22.5688 3.05 22.5688C3.05625 22.5438 3.0625 22.5125 3.0625 22.4875L3.025 22.4C3 22.3375 2.9875 22.2813 2.98125 22.2125C2.96875 22.1375 2.95 22.0625 2.925 21.9875C2.90625 21.9438 2.88125 21.9063 2.8625 21.8625C2.9 21.6625 2.93125 21.4563 2.95625 21.2375H2.86875L2.925 20.7188L2.9375 20.6625C2.875 20.5063 2.83125 20.3438 2.81875 20.175C2.81875 20.175 2.85625 20.2813 2.8875 20.25L2.8625 20.1375C2.8375 20.0813 2.8375 20.0563 2.8625 20.0563H2.8875L2.86875 19.975C2.84375 19.9438 2.825 19.9063 2.80625 19.8625L2.7875 19.7375L2.7375 19.4813C2.75 19.4563 2.75625 19.4313 2.7625 19.4C2.76875 19.375 2.75625 19.35 2.7375 19.3375C2.73125 19.3375 2.725 19.3375 2.725 19.3375L2.69375 19.45C2.68125 19.325 2.675 19.1938 2.66875 19.0563L2.73125 18.9938C2.73125 18.9938 2.775 19.0313 2.775 18.9938C2.78125 18.9563 2.775 18.9188 2.75625 18.8813C3.0375 18.9063 3.325 18.925 3.6 18.9375L3.925 18.925C4.325 18.9125 4.425 19.125 4.425 19.125L4.675 19.0938L4.90625 19.1125C4.90625 19.1125 4.7875 19.1563 4.90625 19.175C5 19.1938 5.1 19.1813 5.19375 19.15C5.3625 19.1063 5.06875 19.0938 5.19375 19.075C5.36875 19.0688 5.55 19.0688 5.725 19.0875C5.85 19.0938 5.98125 19.0938 6.10625 19.0875L6.56875 19.1L6.9 19.0875L7.1125 19.0938L7.7375 19.1625C7.85 19.1688 8.26875 19.1813 8.2875 19.225C8.3 19.275 8.56875 19.2938 8.76875 19.2563V19.3313L9.2 19.3375L9.5875 19.3625L9.6375 19.3688V19.4438L9.96875 19.4875L10.1125 19.4688C10.275 19.5063 10.4375 19.55 10.5688 19.5938L10.625 19.6688C10.9062 19.6 11.2313 19.5375 11.6 19.4875L12.2312 19.4438L12.4062 19.4313L12.75 19.4063L13 19.3688L13.2312 19.3813C13.2312 19.3813 13.1625 19.4125 13.1938 19.4313C13.2063 19.4375 13.2188 19.4438 13.2312 19.4438C13.275 19.45 13.3125 19.45 13.3562 19.4438C13.4125 19.4375 13.4625 19.425 13.5125 19.4063C13.6812 19.3625 13.3875 19.35 13.5125 19.3313C13.6875 19.3188 13.8687 19.3188 14.0437 19.3313C14.1687 19.3375 14.3 19.3313 14.425 19.325H14.8938L15.2312 19.3063H15.4438L15.9812 19.3563L16.075 19.3625C16.2438 19.3625 16.4125 19.375 16.5812 19.4L16.8375 19.3563L17.4688 19.3C17.8687 19.275 17.9813 19.2563 17.9813 19.2563L18.2313 19.2188L18.4625 19.2313C18.4625 19.2313 18.3438 19.2813 18.4625 19.2938C18.5562 19.3063 18.6562 19.2938 18.7437 19.2563C18.9125 19.2125 18.6187 19.2063 18.7437 19.1875H18.7938C18.9563 19.1813 19.1187 19.1813 19.2812 19.1875C19.4062 19.1938 19.5375 19.1875 19.6625 19.175H20.1313L20.4625 19.1563H20.4937H20.55C20.95 19.1313 21.0688 19.1125 21.0688 19.1125L21.3188 19.075L21.55 19.0875C21.55 19.0875 21.4312 19.1375 21.55 19.15C21.6437 19.1625 21.7437 19.15 21.8312 19.1125C21.9937 19.0688 21.7062 19.0625 21.8312 19.0438C22.0062 19.0313 22.1875 19.0313 22.3625 19.0438C22.4875 19.0438 22.6187 19.0375 22.7437 19.0313H23.2125L23.5438 19.0063H23.7563L24.3875 19.05C24.5063 19.05 24.9188 19.05 24.9375 19.0938C24.9562 19.1375 25.225 19.1563 25.4188 19.1063V19.1813L25.85 19.175L26.2375 19.1875L26.2875 19.1938V19.2688L26.6187 19.3L26.7625 19.275C26.9188 19.3063 27.0687 19.3375 27.2062 19.375C27.375 19.3563 27.2875 19.3313 27.4562 19.2813C27.5938 19.2375 27.7188 19.1625 27.825 19.0688C28.0375 19.0875 28.2437 19.0938 28.4562 19.0813C28.9125 19.0688 28.4563 19.0813 28.9813 19.0188C29.1375 19 29.2938 18.9688 29.4375 18.9125C29.4375 18.95 29.4438 18.9875 29.45 19.025C29.4625 19.0938 29.4375 19.1375 29.45 19.2C29.4563 19.2438 29.4625 19.2813 29.4688 19.325V19.4063H29.5ZM29.1187 16.8688L28.325 16.8313L28.1938 16.825C27.8125 16.8625 27.425 16.85 27.05 16.7813C27.05 16.7813 27.6062 16.6875 26.7687 16.6875C26.2812 16.6875 25.7875 16.725 25.3062 16.8125C24.7 16.8438 24.1 16.8375 23.4937 16.7938C22.9812 16.75 22.4688 16.7563 21.9625 16.8125L19.6562 16.875L19.1 16.9313V16.8625L19.0625 16.8563L18.75 16.8375H18.4125V16.7688C18.25 16.8125 18.0312 16.7938 18.0187 16.7438C18.0062 16.6938 17.6625 16.6938 17.575 16.6875L17.0625 16.625H16.8875L16.6125 16.6438H16.2313C16.125 16.6563 16.025 16.6563 15.9187 16.65C15.775 16.6375 15.6312 16.6375 15.4812 16.65C15.3812 16.6688 15.6187 16.675 15.4812 16.725C15.4125 16.7625 15.3313 16.775 15.25 16.7563C15.1562 16.7438 15.25 16.6938 15.25 16.6938L15.0625 16.6813L14.8562 16.7188C14.7188 16.7375 14.575 16.7563 14.4312 16.7625C14.2188 16.775 14.025 16.8 13.9187 16.8125L13.6313 16.8688L12.2125 16.7563V16.8313L11.0312 16.7563L10.9 16.7438C10.5312 16.8 10.15 16.8375 9.775 16.8438C9.775 16.8438 10.0125 16.8125 9.94375 16.7813H9.93125L9.66875 16.8063C9.5375 16.825 9.4875 16.8313 9.4875 16.8063V16.7813H9.29375C9.2125 16.8063 9.13125 16.825 9.04375 16.8375L8.7625 16.85L8.18125 16.8875L8 16.8563C7.86875 16.8375 7.85 16.8938 7.85 16.8938L8.1 16.9313H7.20625L7.05625 16.8625C7.05625 16.8625 7.1375 16.8188 7.05625 16.8188C6.9625 16.8063 6.8625 16.8188 6.775 16.8438V16.8688L6.7375 16.9125L6.0625 16.875L5.95 16.8188L5.76875 16.7813L5.46875 16.7563C5.41875 16.7438 5.36875 16.725 5.31875 16.6938L5.04375 16.675L4.8875 16.6813L4.825 16.6688L4.7125 16.65C4.6125 16.6375 4.58125 16.6625 4.56875 16.6813L4.5625 16.6875L4.8125 16.725C4.51875 16.725 4.35 16.8125 4.04375 16.8L3.94375 16.7563L3.89375 16.7313C3.89375 16.7313 3.975 16.6875 3.89375 16.6875C3.8 16.675 3.7 16.6813 3.6125 16.7125V16.7375L3.6 16.7563L3.58125 16.7813C3.3875 16.775 3.21875 16.8188 3.03125 16.8063H2.9375L2.68125 16.8875L2.5125 16.85C2.525 16.8313 2.54375 16.8125 2.55625 16.8C2.5625 16.7625 2.53125 16.7313 2.5 16.7L2.5875 16.5563L2.63125 16.4938C2.63125 16.3 2.9625 15.9375 2.9625 15.9375C2.9625 15.9375 2.90625 16.2625 3.11875 15.8375C3.24375 15.5875 3.33125 15.3188 3.375 15.0438C3.49375 14.725 3.65 14.4188 3.8375 14.125C4 13.8813 4.11875 13.6125 4.1875 13.3313L4.6625 12.1188L4.7375 11.8063L4.8 11.8313L4.81875 11.8125L4.90625 11.6563L4.98125 11.4688L5.05 11.5C5.05 11.4 5.1125 11.2938 5.1625 11.3063C5.2125 11.3188 5.2875 11.1438 5.3125 11.0938C5.3375 11.05 5.425 10.95 5.475 10.85L5.51875 10.7625C5.5375 10.7125 5.55 10.6625 5.5625 10.6125C5.58125 10.5375 5.61875 10.4938 5.64375 10.4125C5.65625 10.3563 5.675 10.3 5.7 10.2438C5.74375 10.175 5.775 10.0938 5.79375 10.0188C5.79375 9.95626 5.7375 10.0813 5.725 9.99376C5.7125 9.90626 5.7125 9.90626 5.74375 9.86251C5.775 9.81876 5.8 9.88751 5.8 9.88751L5.85625 9.79376L5.86875 9.67501C5.88125 9.59376 5.9 9.51251 5.925 9.43751C5.95 9.34376 5.975 9.24376 5.9875 9.15001L5.99375 8.97501C6.125 8.75001 6.2625 8.51876 6.39375 8.26876L6.325 8.23751L6.63125 7.63751L6.66875 7.57501C6.6875 7.36251 6.73125 7.15001 6.8 6.94376C6.8 6.94376 6.7875 7.08126 6.825 7.05626V7.05001L6.85 6.90001C6.85625 6.81876 6.8625 6.79376 6.8875 6.80626L6.9125 6.81876L6.93125 6.71251C6.925 6.66251 6.925 6.61251 6.93125 6.56251L6.975 6.40626L7.05625 6.08126C7.08125 6.05626 7.1 6.02501 7.11875 5.99376C7.1625 5.93126 7.1125 5.90001 7.1125 5.90001L7.03125 6.01876C7.08125 5.86251 7.1375 5.70001 7.2 5.54376L7.29375 5.49376C7.29375 5.49376 7.31875 5.55001 7.3375 5.51251C7.36875 5.46251 7.375 5.40626 7.3625 5.35001L7.34375 5.34376L7.30625 5.30626L7.4625 4.96251L7.53125 4.92501L7.6 4.84376L7.68125 4.69376C7.70625 4.66876 7.7375 4.65001 7.76875 4.63751L7.8375 4.50001L7.85625 4.41251L7.88125 4.38126L7.91875 4.32501C7.95 4.27501 7.93125 4.25001 7.91875 4.23751H7.9125L7.83125 4.35001C7.88125 4.19376 7.83125 4.07501 7.89375 3.91251L7.95625 3.87501L7.9875 3.85626C7.9875 3.85626 8.0125 3.91251 8.03125 3.87501C8.0375 3.86251 8.04375 3.84376 8.04375 3.83126C8.29375 3.85001 8.55625 3.86251 8.8125 3.86876C8.875 3.85626 8.94375 3.85001 9.025 3.83751C9.1625 3.81251 9.30625 3.88751 9.35625 4.01251L9.5125 3.97501C9.6125 3.97501 9.6625 3.98751 9.6625 3.98751C9.6625 3.98751 9.5875 4.03751 9.6625 4.05001C9.7375 4.06251 9.7375 4.06251 9.84375 4.01251C9.95 3.96251 9.7625 3.96251 9.84375 3.94376C9.95625 3.93126 10.075 3.92501 10.1875 3.93751C10.2688 3.93751 10.3562 3.93751 10.4375 3.92501C10.5562 3.91251 10.6313 3.92501 10.7375 3.91876C10.8188 3.91251 10.8687 3.90001 10.9625 3.89376H11.1C11.2625 3.90001 11.4313 3.93751 11.5063 3.93751C11.5813 3.94376 11.85 3.93751 11.8625 3.98126C11.875 4.02501 12.05 4.04376 12.175 3.99376V4.06251L12.4563 4.05626L12.7063 4.06876L12.7375 4.07501V4.15001L12.95 4.18751L13.0437 4.16251C13.1438 4.19376 13.2437 4.23126 13.3438 4.27501L13.3813 4.35001C13.5813 4.26876 13.7875 4.20001 14 4.14376C14.0875 4.12501 14.2375 4.10001 14.4062 4.08126L14.5188 4.06876C14.5938 4.06251 14.6687 4.05001 14.7437 4.03126L14.9062 3.99376C15 3.99376 15.0562 4.00001 15.0562 4.00001C15.0562 4.00001 15.0125 4.03126 15.0312 4.05001C15.0375 4.05626 15.0437 4.06251 15.0562 4.06251C15.0812 4.06876 15.1125 4.06876 15.1375 4.06251C15.175 4.05001 15.2063 4.03751 15.2375 4.02501C15.35 3.97501 15.1562 3.97501 15.2375 3.95001C15.35 3.93751 15.4688 3.93126 15.5813 3.94376C15.6625 3.94376 15.7437 3.93751 15.825 3.92501C15.9437 3.91251 16.0187 3.92501 16.125 3.91876C16.2062 3.91251 16.2563 3.90001 16.35 3.89376H16.4875C16.6125 3.90001 16.75 3.91876 16.8312 3.93126L16.8937 3.93751C17.0062 3.93751 17.1125 3.94376 17.2188 3.96251C17.275 3.95001 17.3313 3.93126 17.3813 3.91251C17.4688 3.89376 17.6187 3.86876 17.7875 3.85001C17.9 3.83751 18.0125 3.82501 18.1187 3.80001L18.2812 3.76251C18.375 3.76251 18.4312 3.77501 18.4312 3.77501C18.4312 3.77501 18.3562 3.82501 18.4312 3.83751C18.5063 3.85001 18.5062 3.85001 18.6125 3.80001C18.7188 3.75001 18.5312 3.75001 18.6125 3.73126H18.6437C18.75 3.72501 18.85 3.72501 18.9562 3.73126C19.0375 3.73126 19.1188 3.73126 19.2 3.71876C19.3188 3.70626 19.3937 3.71876 19.5 3.71251C19.5812 3.70626 19.6313 3.69376 19.725 3.68751H19.7437H19.7812C19.8937 3.68126 20.0062 3.66251 20.1125 3.63751L20.275 3.60001C20.3687 3.60001 20.425 3.60626 20.425 3.60626C20.425 3.60626 20.35 3.65626 20.425 3.66876C20.5 3.68126 20.5 3.68126 20.6063 3.63126C20.7125 3.58126 20.525 3.58126 20.6063 3.55626C20.7188 3.54376 20.8375 3.53751 20.95 3.55001C21.0312 3.55001 21.1125 3.54376 21.1938 3.53126C21.3125 3.51876 21.3875 3.53126 21.4937 3.52501C21.575 3.51876 21.625 3.50626 21.7188 3.50001H21.8563C22.0188 3.51251 22.1875 3.54376 22.2625 3.54376C22.3375 3.55001 22.6062 3.54376 22.6187 3.58751C22.6313 3.63126 22.8062 3.65001 22.9312 3.60001V3.67501L23.2125 3.66876L23.4625 3.68126L23.4937 3.68751V3.76251L23.7062 3.80001L23.8 3.77501C23.9 3.80626 23.9937 3.84376 24.0875 3.88751C24.2 3.86876 24.1375 3.84376 24.2437 3.79376C24.3375 3.74376 24.4188 3.66876 24.4813 3.58126C24.6188 3.60001 24.75 3.60626 24.8875 3.60001C25.1813 3.59376 24.8875 3.60001 25.2188 3.53751C25.55 3.47501 25.4562 3.38751 25.75 3.41876C25.8 3.42501 25.8563 3.42501 25.9125 3.42501C25.9312 3.61876 25.9563 3.82501 25.9813 4.02501L26.0375 4.18751C26.075 4.30626 26.0188 4.43126 25.9125 4.48751L25.975 4.61251L25.9875 4.73751C25.9875 4.73751 25.925 4.68751 25.9312 4.75001C25.9375 4.81251 25.9312 4.81251 25.9937 4.88751C26.0562 4.96251 26.0312 4.81251 26.0625 4.87501C26.0938 4.96251 26.1187 5.05626 26.125 5.15001C26.1375 5.21876 26.1562 5.28126 26.1812 5.34376C26.2125 5.43751 26.2062 5.50001 26.2375 5.58751C26.2562 5.65001 26.275 5.69376 26.2938 5.75626L26.3125 5.86876C26.3312 6.00001 26.325 6.15001 26.3312 6.20001C26.3375 6.25001 26.3875 6.47501 26.3438 6.49376C26.3 6.51251 26.3188 6.65626 26.3813 6.75001L26.3125 6.76876L26.3687 6.99376L26.3937 7.20001V7.22501L26.325 7.24376V7.42501L26.3625 7.49376C26.3438 7.58126 26.3188 7.66876 26.2875 7.75001L26.225 7.79376C26.3438 7.93751 26.4438 8.08751 26.5375 8.25001C26.5688 8.31251 26.625 8.43126 26.675 8.56251L26.7125 8.65001C26.7312 8.70626 26.7625 8.76251 26.7875 8.81876L26.8563 8.93751L26.875 9.06251C26.875 9.06251 26.8375 9.03751 26.825 9.05626C26.8188 9.06251 26.8188 9.06876 26.8188 9.08126C26.8188 9.10626 26.825 9.12501 26.8312 9.14376C26.85 9.16876 26.8688 9.19376 26.8875 9.21876C26.9563 9.29376 26.925 9.14376 26.9562 9.20001C26.9937 9.28751 27.0187 9.38126 27.025 9.47501C27.0375 9.54376 27.0625 9.60626 27.0875 9.66876C27.125 9.76251 27.1187 9.82501 27.15 9.90626C27.175 9.96251 27.1938 10.0188 27.2125 10.075L27.2375 10.1875C27.2562 10.2875 27.2625 10.4 27.2687 10.475V10.525C27.2937 10.6125 27.3062 10.7 27.3062 10.7938L27.3875 10.9125C27.4438 11.0125 27.4875 11.1125 27.5312 11.2188C27.5625 11.3063 27.6 11.3875 27.65 11.4688L27.7188 11.5875L27.7437 11.7125C27.7437 11.7125 27.6812 11.6688 27.6875 11.7313C27.6938 11.7938 27.6938 11.7938 27.7625 11.8688C27.8313 11.9375 27.7937 11.7938 27.8312 11.85L27.8438 11.875C27.875 11.9563 27.9 12.0375 27.9125 12.125C27.925 12.1938 27.95 12.2563 27.9813 12.3188C28.0188 12.4063 28.0187 12.475 28.05 12.5563C28.075 12.6188 28.0938 12.6563 28.1187 12.725V12.7375L28.1313 12.7625C28.1625 12.85 28.2062 12.9313 28.25 13.0125L28.325 13.125L28.35 13.2438C28.35 13.2438 28.2875 13.2 28.2938 13.2625C28.3 13.325 28.3 13.325 28.3687 13.3938C28.4375 13.4625 28.4 13.3188 28.4375 13.375C28.475 13.4625 28.5063 13.55 28.525 13.6438C28.5437 13.7125 28.5688 13.775 28.5938 13.8313C28.6313 13.9188 28.6313 13.9875 28.6688 14.0688C28.6938 14.1313 28.7188 14.1688 28.7375 14.2313L28.7687 14.3438C28.7937 14.475 28.8062 14.625 28.8188 14.675C28.8313 14.7313 28.9 14.9438 28.8563 14.9688C28.8125 14.9938 28.8438 15.1313 28.9125 15.2188L28.8438 15.2438L28.9188 15.4688L28.9625 15.6688V15.6938L28.8875 15.7188L28.9062 15.9L28.95 15.9625C28.9438 16.05 28.9313 16.1313 28.9188 16.2188C28.9625 16.3 28.975 16.2438 29.05 16.3125C29.125 16.375 29.2125 16.4125 29.3062 16.4313C29.3188 16.5438 29.35 16.65 29.3937 16.7563C29.4688 16.9625 29.4125 16.8063 29.5125 16.9625L29.1187 16.8688Z" fill="#0041E6"/>
<path d="M25.5062 12.6C25.4187 12.575 25.3375 12.5437 25.2562 12.5C25.2187 12.4313 25.0875 12.525 25.1125 12.4312L24.4062 12.3562L24.1562 12.3L23.6812 12.225L23.6 12.2125C23.375 12.2437 23.1437 12.225 22.925 12.15C22.925 12.15 23.2562 12.0625 22.7625 12.05C22.4687 12.0438 22.1812 12.075 21.9 12.1562C21.5437 12.1813 21.1812 12.1688 20.825 12.125C20.525 12.075 20.2187 12.0812 19.9187 12.1375L18.5562 12.2L18.2312 12.2563V12.1875L18.2062 12.1812L18.0187 12.1625H17.8125V12.0875C17.7187 12.1312 17.5875 12.1188 17.5812 12.0688C17.5687 12.0188 17.3687 12.025 17.3125 12.0188C17.2562 12.0125 17.1312 11.9813 17.0062 11.9688H16.9C16.8375 11.9688 16.7937 11.9813 16.7375 11.9875C16.6562 12 16.6 11.9813 16.5125 11.9875C16.45 12 16.3875 12.0063 16.325 12C16.2375 11.9875 16.15 11.9875 16.0687 12C16.0062 12.0188 16.15 12.025 16.0687 12.0688C15.9875 12.1125 15.9875 12.1125 15.9312 12.1062C15.875 12.0937 15.9312 12.05 15.9312 12.05L15.8187 12.0375L15.7 12.075C15.6187 12.1 15.5375 12.1125 15.45 12.1187C15.35 12.1312 15.2437 12.15 15.1437 12.175L14.975 12.2375C14.7062 12.2 14.4312 12.1688 14.1312 12.1438V12.2188L13.4312 12.1687L13.3562 12.1562C13.1375 12.225 12.9187 12.2625 12.6875 12.2812C12.6875 12.2812 12.825 12.2437 12.7875 12.2125H12.7812L12.625 12.2375C12.55 12.2625 12.5125 12.2625 12.5125 12.2375V12.2188L12.4 12.2375C12.3562 12.2625 12.3062 12.2813 12.2562 12.3L12.0875 12.3188L11.75 12.375C11.7125 12.3625 11.675 12.35 11.6375 12.35C11.5562 12.3375 11.55 12.3938 11.55 12.3938L11.7 12.425C11.525 12.4375 11.35 12.45 11.1687 12.45L11.0812 12.3875C11.0812 12.3875 11.1312 12.3438 11.0812 12.3438C11.025 12.3375 10.9625 12.35 10.9187 12.3813V12.4062L10.9 12.45L10.5062 12.4375L10.4437 12.3875L10.3312 12.3562L10.1562 12.3375C10.125 12.325 10.0937 12.3063 10.0687 12.2812L9.90623 12.2688L9.81248 12.2812L9.77498 12.2688L9.70623 12.2563C9.64998 12.2438 9.63123 12.275 9.61873 12.2937V12.3L9.76873 12.3313C9.59373 12.3438 9.49998 12.4312 9.31873 12.4312L9.25623 12.3875L9.22498 12.3687C9.22498 12.3687 9.27498 12.325 9.22498 12.325C9.16873 12.3187 9.10623 12.3313 9.06248 12.3625V12.3875L9.05623 12.4062L9.04373 12.4312C8.93123 12.4312 8.83123 12.4813 8.71873 12.475H8.66248L8.51873 12.5688L8.40623 12.5375L8.23123 12.65C8.19998 12.6375 8.16873 12.6187 8.14373 12.5938C8.06248 12.5875 7.99998 12.6813 7.95623 12.675L7.84373 12.6687C7.79373 12.7687 7.76248 12.6 7.74998 12.6938C7.74998 12.6938 7.66873 12.6625 7.48123 12.8062C7.29373 12.95 7.29998 12.9812 7.29998 12.9812C7.29998 12.9812 7.27498 12.9938 7.22498 13.0813C7.17498 13.1688 7.25623 13.25 7.38123 13.25C7.50623 13.25 7.41873 13.4 7.41873 13.4C7.41873 13.4 7.44998 13.4625 7.59998 13.4625C7.74998 13.4625 7.54373 13.575 7.41873 13.625C7.29373 13.675 7.37498 13.85 7.37498 13.8938C7.36873 13.9375 7.18748 14.2 7.36248 14.2312C7.48123 14.2562 7.60623 14.2563 7.73123 14.2375C7.73123 14.2375 7.64373 14.4313 7.88123 14.4688L8.11873 14.5063C8.40623 14.55 8.79998 14.5687 9.14373 14.5875L9.33748 14.5625C9.46873 14.5438 9.59373 14.6187 9.63748 14.7437L9.78123 14.7063L9.91873 14.7188C9.91873 14.7188 9.84998 14.7687 9.91873 14.7812C9.98748 14.7938 9.98748 14.7937 10.0812 14.7437C10.175 14.7 10.0062 14.6937 10.0812 14.6687C10.1875 14.6562 10.2875 14.6562 10.3937 14.6687C10.4687 14.6687 10.5437 14.6688 10.6187 14.6562C10.7312 14.6437 10.7937 14.6625 10.8937 14.6562L11.0937 14.6375H11.2187C11.3625 14.65 11.525 14.6813 11.5875 14.6875C11.65 14.6937 11.9 14.6875 11.9125 14.7375C11.925 14.7875 12.0812 14.8 12.1937 14.7563V14.8313H12.45L12.675 14.85L12.7062 14.8562V14.9312L12.9 14.9688L12.9875 14.95C13.0812 14.9812 13.1687 15.0187 13.2562 15.0625L13.2875 15.1375C13.4687 15.0562 13.6625 14.9938 13.8562 14.9375C13.9375 14.925 14.0687 14.8938 14.225 14.8813L14.325 14.8687C14.3937 14.8625 14.4625 14.85 14.525 14.8375L14.6687 14.8L14.8062 14.8125C14.8062 14.8125 14.7687 14.8438 14.7875 14.8625C14.7937 14.8688 14.8 14.875 14.8062 14.875C14.8312 14.8812 14.8562 14.8812 14.8812 14.875C14.9125 14.8625 14.9437 14.85 14.975 14.8375C15.075 14.7937 14.9 14.7875 14.975 14.7688C15.0812 14.7563 15.1812 14.7563 15.2875 14.7688C15.3625 14.775 15.4375 14.7688 15.5125 14.7563C15.625 14.7438 15.6875 14.7625 15.7875 14.7563L15.9875 14.7375H16.1125C16.225 14.7438 16.35 14.7687 16.425 14.7812L16.4812 14.7875C16.5812 14.7875 16.6812 14.8 16.775 14.8188L16.925 14.775C17.0062 14.7625 17.1375 14.7313 17.2937 14.7188C17.3937 14.7125 17.4937 14.6938 17.5937 14.675L17.7375 14.6375L17.875 14.65C17.875 14.65 17.8062 14.7 17.875 14.7125C17.9437 14.725 17.9437 14.725 18.0375 14.675C18.1312 14.625 17.9625 14.625 18.0375 14.6062H18.0687C18.1625 14.6 18.2562 14.6 18.3562 14.6062C18.4312 14.6125 18.5062 14.6063 18.5812 14.5938C18.6937 14.5812 18.7562 14.6 18.8562 14.5938L19.0562 14.575H19.0937H19.125C19.225 14.5687 19.3312 14.55 19.4312 14.5312L19.575 14.4937L19.7125 14.5063C19.7125 14.5063 19.6437 14.5563 19.7125 14.5688C19.7812 14.5813 19.7812 14.5812 19.8812 14.5312C19.9812 14.4875 19.8062 14.4813 19.8812 14.4563C19.9875 14.4438 20.0875 14.4438 20.1937 14.4563C20.2687 14.4563 20.3437 14.4563 20.4187 14.4438C20.5312 14.4313 20.5937 14.45 20.6937 14.4438L20.8937 14.425H21.0187C21.1625 14.4375 21.325 14.4688 21.3875 14.475C21.45 14.4813 21.7 14.475 21.7125 14.525C21.725 14.575 21.8812 14.5875 21.9937 14.5437V14.6187H22.25L22.475 14.6375L22.5062 14.6438V14.7188L22.7 14.7563L22.7875 14.7375C22.875 14.7688 22.9625 14.8063 23.0437 14.85C23.1437 14.8313 23.0875 14.8063 23.1875 14.7563C23.275 14.7063 23.3562 14.6313 23.4125 14.55C23.5375 14.575 23.6562 14.5812 23.7812 14.575C24.05 14.575 23.7812 14.575 24.0875 14.5188C24.3937 14.4625 24.3125 14.375 24.575 14.4062C24.7125 14.4313 24.85 14.425 24.9812 14.3938C25.0375 14.3563 25.0875 14.325 25.15 14.3C25.2062 14.2813 25.2625 14.25 25.3062 14.2125C25.375 14.1937 25.4187 14.125 25.4 14.0562C25.3875 13.9125 25.5437 14.0937 25.5187 14.0125C25.6187 13.8187 25.6187 13.5812 25.5187 13.3875C25.4687 13.225 25.3625 13.275 25.4437 13.1062C25.4875 13.0125 25.5 13.1813 25.6 12.85C25.6 12.6813 25.6312 12.7125 25.5062 12.6Z" fill="#0041E6"/>
<path d="M9.28128 7.95002C9.30003 7.95627 9.32503 7.96252 9.34378 7.95627C9.44378 7.95627 9.39378 8.10002 9.39378 8.10002C9.39378 8.10002 9.42503 8.16252 9.55003 8.14377C9.67503 8.12502 9.51878 8.25627 9.42503 8.32502C9.33128 8.39377 9.41878 8.55627 9.42503 8.60002C9.43128 8.64377 9.31253 8.91877 9.45628 8.93127C9.55628 8.94377 9.65003 8.93752 9.74378 8.90627C9.74378 8.90627 9.69378 9.10627 9.88753 9.12502L10.075 9.14377C10.3438 9.16252 10.6125 9.16252 10.8875 9.15002L11.0375 9.11252C11.2188 9.07502 11.2875 9.27502 11.2875 9.27502L11.4 9.23127H11.5125C11.5125 9.23127 11.4625 9.28127 11.5125 9.28752C11.5625 9.29377 11.5688 9.29377 11.6375 9.24377C11.7125 9.19377 11.575 9.19377 11.6375 9.17502C11.7188 9.15627 11.8 9.15002 11.8813 9.15627C11.9375 9.15627 12 9.15002 12.0563 9.13127C12.1375 9.11252 12.1938 9.13127 12.2688 9.11877C12.3188 9.10627 12.375 9.10002 12.425 9.09377H12.525C12.6375 9.09377 12.7688 9.13127 12.8188 9.13127C12.8688 9.13127 13.0688 9.13127 13.075 9.17502C13.0875 9.21877 13.2125 9.23127 13.3 9.18752V9.26252L13.5 9.25002L13.6813 9.26252L13.7063 9.26877V9.33752L13.8625 9.36877L13.9313 9.34377C14.0063 9.37502 14.075 9.41252 14.1438 9.45627L14.1688 9.53127C14.3125 9.45002 14.4563 9.38127 14.6125 9.33127C14.7063 9.30627 14.8063 9.28752 14.9 9.26877L14.9813 9.25627C15.0375 9.25002 15.0875 9.23752 15.1375 9.22502L15.25 9.18752L15.3625 9.20002C15.3625 9.20002 15.3313 9.23127 15.3438 9.25002C15.35 9.25627 15.3563 9.25627 15.3625 9.26252C15.3813 9.26877 15.4 9.26877 15.4188 9.26252C15.4438 9.25002 15.4688 9.23752 15.4938 9.22502C15.5688 9.18127 15.4375 9.17502 15.4938 9.15627C15.575 9.14377 15.6625 9.14377 15.7438 9.15627C15.8063 9.16252 15.8625 9.15627 15.925 9.14377C16.0125 9.13752 16.0625 9.15002 16.15 9.14377C16.2 9.13752 16.2563 9.13752 16.3063 9.13752H16.4063C16.4875 9.15002 16.575 9.16252 16.6563 9.18752L16.7 9.19377C16.7813 9.19377 16.8625 9.20627 16.9375 9.23127L17.0563 9.18752C17.1563 9.16252 17.25 9.15002 17.35 9.13752C17.4313 9.13127 17.5125 9.11877 17.5938 9.10002L17.7125 9.06252L17.825 9.07502C17.825 9.07502 17.7688 9.12502 17.825 9.13752C17.8813 9.15002 17.8813 9.15002 17.9563 9.10627C18.0313 9.06252 17.9 9.05002 17.9563 9.03752H17.9813C18.0563 9.03127 18.1313 9.03127 18.2063 9.04377C18.2688 9.05002 18.325 9.04377 18.3875 9.03752C18.475 9.03127 18.5313 9.05002 18.6125 9.03752C18.6688 9.03127 18.7125 9.02502 18.7688 9.02502H18.7813H18.8063C18.8875 9.01877 18.9688 9.00627 19.05 8.98752L19.1688 8.95002L19.2813 8.96252C19.2813 8.96252 19.225 9.00627 19.2813 9.01877C19.3375 9.03127 19.3375 9.03127 19.4125 8.98752C19.4938 8.94377 19.3563 8.93127 19.4125 8.91877C19.4938 8.90627 19.5813 8.90627 19.6625 8.91877C19.7188 8.92502 19.7813 8.92502 19.8375 8.91252C19.925 8.90627 19.9813 8.92502 20.0625 8.91252C20.1188 8.90627 20.1625 8.90002 20.225 8.90002L20.325 8.90627C20.4438 8.91877 20.5688 8.96252 20.6188 8.96877C20.6688 8.97502 20.8688 8.98752 20.875 9.03752C20.8813 9.08752 21.0063 9.10627 21.1 9.06877V9.13752L21.3063 9.15002L21.4875 9.18127L21.5125 9.18752V9.26252L21.6688 9.30627L21.7375 9.28752C21.8063 9.32502 21.875 9.36252 21.9438 9.41252C22.025 9.40002 21.9813 9.36877 22.0625 9.32502C22.1375 9.27502 22.2 9.20627 22.2438 9.12502C22.3375 9.15627 22.4375 9.16877 22.5375 9.16877C22.75 9.18127 22.5375 9.16877 22.7875 9.12502C23.0375 9.08127 22.9688 8.98752 23.1813 9.03752C23.2875 9.06877 23.4 9.06877 23.5063 9.03752C23.55 9.00627 23.5938 8.97502 23.6438 8.95002C23.6938 8.93127 23.7313 8.90627 23.7688 8.86877C23.7688 8.86877 23.8563 8.85627 23.85 8.71877C23.8438 8.58127 23.9625 8.76252 23.9438 8.68127C24.025 8.48127 24.0313 8.25627 23.9563 8.05627C23.9188 7.89377 23.8313 7.93752 23.9 7.76877C23.9375 7.67502 23.9438 7.84377 24.0313 7.51877C24.0563 7.41877 24.0813 7.45002 23.9813 7.33127C23.9125 7.30002 23.8438 7.26252 23.7875 7.21877C23.7563 7.14377 23.65 7.23127 23.675 7.13752L23.1063 7.02502L22.9063 6.95627L22.5313 6.89377L22.4688 6.88127C22.3188 6.95627 21.925 6.78752 21.925 6.78752C21.925 6.78752 22.1875 6.71252 21.7938 6.67502C21.5625 6.65002 21.325 6.67502 21.1 6.73752C20.8125 6.74377 20.525 6.71877 20.2375 6.66252C20 6.60627 19.75 6.60002 19.5063 6.65002L18.4 6.68127L18.1375 6.73127V6.66252L18.1188 6.65627L17.9688 6.63127H17.8V6.56252C17.7188 6.60627 17.6188 6.58752 17.6125 6.53752C17.6063 6.48752 17.4438 6.48752 17.4 6.48127C17.3563 6.47502 17.25 6.43752 17.1563 6.42502H17.0625C17.0188 6.42502 16.975 6.43127 16.9313 6.44377C16.8688 6.45002 16.8188 6.43127 16.75 6.44377C16.7 6.45627 16.65 6.45627 16.6 6.45627C16.5313 6.44377 16.4625 6.44377 16.3875 6.45627C16.3375 6.47502 16.45 6.48127 16.3875 6.52502C16.325 6.56877 16.325 6.56877 16.275 6.56252C16.2313 6.55002 16.275 6.50627 16.275 6.50627L16.1813 6.49377L16.0813 6.53127C16.0125 6.55002 15.95 6.56877 15.875 6.57502C15.7938 6.58752 15.7063 6.60627 15.6313 6.63127L15.4938 6.68127C15.2688 6.64377 15.05 6.61252 14.8063 6.58752V6.66252L14.2313 6.61877L14.1688 6.60627C13.9938 6.67502 13.8125 6.71877 13.6313 6.74377C13.6313 6.74377 13.7438 6.70627 13.7063 6.67502H13.7L13.575 6.70627C13.5125 6.73127 13.4875 6.73752 13.4875 6.70627V6.68127L13.4 6.70627C13.3625 6.73127 13.325 6.75627 13.2813 6.76877L13.1438 6.79377L12.8625 6.85002C12.8313 6.83752 12.8063 6.83127 12.775 6.82502C12.75 6.81877 12.7188 6.83127 12.7063 6.85627V6.86877L12.8313 6.89377L12.4 6.93752L12.325 6.87502C12.325 6.87502 12.3625 6.83127 12.325 6.83127C12.275 6.82502 12.225 6.84377 12.1875 6.87502V6.90002L12.175 6.95002H11.85L11.7938 6.90627L11.7 6.88127L11.55 6.86877C11.5188 6.85627 11.4938 6.83752 11.475 6.81252H11.3375L11.2625 6.83127L11.225 6.81877L11.1688 6.80627C11.1188 6.80002 11.1063 6.83127 11.1 6.84377V6.85627L11.225 6.87502C11.0813 6.90002 11.0125 6.99377 10.8625 7.00627L10.8063 6.96877L10.7813 6.95002C10.7813 6.95002 10.8188 6.90627 10.7813 6.90627C10.7313 6.90002 10.6813 6.91877 10.6438 6.95002V6.97502L10.6375 6.99377L10.6313 7.02502C10.5375 7.02502 10.4625 7.08752 10.3688 7.09377H10.3188L10.2063 7.20002L10.1125 7.17502L9.98128 7.30002C9.95003 7.28752 9.91878 7.27502 9.89378 7.25002C9.83128 7.25002 9.78128 7.35002 9.74378 7.35002H9.65003C9.61878 7.46252 9.57503 7.28752 9.57503 7.38752C9.57503 7.38752 9.50628 7.36252 9.36878 7.52502C9.23128 7.68752 9.24378 7.71252 9.24378 7.71252C9.24378 7.71252 9.22503 7.73127 9.19378 7.82502C9.18753 7.85627 9.21878 7.93127 9.28128 7.95002Z" fill="#0041E6"/>
</svg>
