<svg width="32" height="32" viewBox="0 0 32 32" fill="none" xmlns="http://www.w3.org/2000/svg">
<path d="M1.725 27.8938L1.74375 27.8813L1.7 27.9063L1.725 27.8938Z" fill="#0041E6"/>
<path d="M1.7 27.9062L1.66875 27.9188H1.68125L1.7 27.9062Z" fill="#0041E6"/>
<path d="M31.9875 19.2312C31.9812 19.1437 32 19.0812 31.9875 18.9875C31.975 18.9187 31.975 18.8562 31.9813 18.7875C31.9938 18.6937 31.9938 18.6 31.9813 18.5062C31.9625 18.4437 31.9563 18.5937 31.9125 18.5062C31.8687 18.4187 31.8687 18.4187 31.8813 18.3562C31.8938 18.2937 31.9375 18.3562 31.9375 18.3562L31.95 18.2312L31.9188 18.1C31.9 18.0125 31.8875 17.9187 31.8813 17.825C31.8687 17.7125 31.8562 17.6062 31.8312 17.4937L31.775 17.3062C31.8125 17.0187 31.85 16.7125 31.8813 16.3937H31.8062L31.8625 15.6312L31.875 15.55C31.8125 15.3125 31.775 15.0687 31.7625 14.825C31.7625 14.825 31.8 14.9812 31.825 14.9312V14.925L31.8 14.7562C31.775 14.6687 31.775 14.6375 31.8 14.6375H31.825L31.8062 14.5187C31.7812 14.4687 31.7625 14.4125 31.75 14.3562L31.7313 14.175L31.6875 13.8C31.7 13.7625 31.7062 13.725 31.7125 13.6812C31.725 13.5937 31.6688 13.5875 31.6688 13.5875L31.6437 13.75L31.6187 13.1687L31.6812 13.0687C31.6812 13.0687 31.725 13.1187 31.725 13.0687C31.7313 13.0062 31.7188 12.9437 31.6938 12.8875H31.675L31.6313 12.8625L31.6437 12.4312L31.6875 12.3625L31.7188 12.2437L31.7375 12.05C31.75 12.0125 31.7688 11.9812 31.7938 11.95L31.8062 11.775L31.7938 11.6687L31.8062 11.625L31.8188 11.55C31.8313 11.4875 31.8 11.4625 31.7875 11.4562H31.7812L31.7563 11.6187C31.7437 11.4312 31.6562 11.325 31.65 11.125L31.6875 11.0625L31.7062 11.0312C31.7062 11.0312 31.75 11.0812 31.75 11.0312C31.7563 10.9687 31.7437 10.9062 31.7125 10.85H31.6938L31.675 10.8375L31.65 10.825C31.65 10.7 31.6 10.5937 31.6 10.4687V10.4062L31.5375 10.2875C31.5375 10.275 31.5438 10.2687 31.5438 10.2562C31.5438 10.2187 31.5438 10.175 31.5375 10.1375V10.125C31.525 10.0375 31.5 9.95624 31.4625 9.87499L31.4813 9.84374C31.4813 9.79999 31.4688 9.76249 31.4438 9.73124C31.4375 9.60624 31.4562 9.47499 31.4937 9.35624C31.5437 9.21874 31.5437 9.06874 31.4937 8.93749C31.475 8.73124 31.4625 8.48749 31.4312 8.21249L31.3625 8.00624L31.4312 7.99999L31.4375 7.98124V7.84999L31.4062 7.68749L31.475 7.67499C31.4188 7.59999 31.4062 7.48749 31.4438 7.46249C31.4813 7.43749 31.4313 7.26874 31.4188 7.21874C31.4062 7.12499 31.3875 7.03124 31.3563 6.93749L31.3188 6.84999C31.2938 6.80624 31.2625 6.76249 31.2313 6.72499C31.1875 6.66874 31.1687 6.61249 31.1187 6.54999C31.0812 6.51249 31.0438 6.46874 31.0125 6.41874C30.9688 6.34999 30.9188 6.29374 30.8563 6.24374C30.8063 6.21874 30.8875 6.31249 30.8062 6.28749C30.725 6.26249 30.725 6.26874 30.6938 6.22499C30.6625 6.18124 30.7313 6.18124 30.7313 6.18124L30.6625 6.10624L30.5438 6.06249L30.3375 5.96249C30.2563 5.91874 30.1687 5.88749 30.0812 5.86874C30.0312 5.86249 29.975 5.85624 29.925 5.84999C29.725 5.71874 29.5125 5.61249 29.2812 5.53124L29.2687 5.59999C29.1187 5.54999 28.9625 5.50624 28.8 5.46874L28.75 5.44999C28.6125 5.49999 28.475 5.52499 28.3312 5.54374C28.3312 5.54374 28.4187 5.51249 28.3937 5.48124L28.3 5.50624C28.2562 5.53124 28.2375 5.53124 28.2375 5.50624V5.48749L28.175 5.50624C28.15 5.53124 28.125 5.54999 28.0938 5.56249C28.0688 5.56874 28.0437 5.57499 28.025 5.58124C27.9937 5.59374 27.9625 5.60624 27.925 5.61874L27.8937 5.61249C27.8875 5.60624 27.8813 5.59999 27.875 5.59999C27.8687 5.59999 27.8625 5.59999 27.8625 5.60624L27.8062 5.59374L27.6437 5.57499C27.6437 5.57499 27.6375 5.57499 27.6313 5.57499L27.3687 5.54374L27.2938 5.53124C27.2812 5.53124 27.2688 5.53124 27.2563 5.53124L27.2188 5.51874C27.2 5.49999 27.1875 5.48124 27.1812 5.46249L27.1063 5.44374L27.0625 5.45624L27.0438 5.44374L27.0125 5.43124C26.9813 5.41874 26.9688 5.44374 26.9688 5.46249V5.47499L27.0375 5.50624C27.0063 5.51249 26.975 5.51874 26.95 5.53749C26.8813 5.52499 26.8187 5.51249 26.7687 5.49999C26.7687 5.48749 26.7688 5.48124 26.7625 5.47499C26.7438 5.47499 26.7312 5.47499 26.7125 5.48124L26.6625 5.46874C26.6625 5.46874 26.9688 5.38749 26.5063 5.36874C26.2313 5.35624 25.9625 5.38749 25.6938 5.45624C25.3563 5.47499 25.025 5.46249 24.6875 5.41249C24.4062 5.36249 24.125 5.36249 23.8438 5.41249L22.5625 5.45624C22.4562 5.47499 22.35 5.48749 22.2563 5.50624V5.43749L22.2313 5.43124L22.0562 5.41249H21.8625V5.34374C21.7687 5.38749 21.65 5.36874 21.6437 5.32499C21.6375 5.28124 21.45 5.28124 21.3937 5.27499C21.3438 5.26874 21.2188 5.23749 21.1063 5.22499H21C20.9438 5.22499 20.9 5.23749 20.85 5.24374C20.775 5.25624 20.7188 5.23749 20.6375 5.24374C20.5813 5.25624 20.5187 5.25624 20.4625 5.25624C20.3813 5.24374 20.3 5.24374 20.225 5.25624C20.1688 5.27499 20.3 5.28124 20.225 5.32499C20.15 5.36874 20.15 5.36874 20.0938 5.35624C20.0438 5.34374 20.0938 5.29999 20.0938 5.29999C20.0938 5.29999 20.0562 5.29374 19.9875 5.28749L19.875 5.31874C19.8 5.33749 19.7188 5.34999 19.6437 5.35624C19.55 5.36874 19.45 5.38749 19.3563 5.40624C19.3 5.42499 19.25 5.44374 19.2 5.46249C18.95 5.42499 18.6875 5.39374 18.4125 5.36249V5.43124L17.7563 5.37499L17.6812 5.36249C17.4812 5.41874 17.2687 5.45624 17.0625 5.46874C17.0625 5.46874 17.1938 5.43749 17.1562 5.40624H17.1437L17 5.43124C16.925 5.44999 16.8937 5.45624 16.8937 5.43124V5.40624L16.7875 5.42499C16.7437 5.44999 16.7 5.46874 16.65 5.48124L16.4937 5.49374L16.175 5.53749C16.1437 5.52499 16.1063 5.51874 16.0688 5.51249C15.9938 5.49374 15.9875 5.54999 15.9875 5.54999L16.125 5.58124C15.9625 5.59374 15.8 5.59999 15.6313 5.59999L15.55 5.53749C15.55 5.53749 15.5938 5.49999 15.55 5.49374C15.4938 5.48749 15.4438 5.49999 15.3938 5.52499V5.54374L15.375 5.58749C15.25 5.58749 15.125 5.58124 15.0063 5.56874L14.95 5.51874L14.8438 5.48749L14.6812 5.46874C14.65 5.45624 14.625 5.43749 14.6 5.41249C14.5375 5.40624 14.4875 5.39999 14.45 5.39999L14.3625 5.41249C14.35 5.40624 14.3375 5.40624 14.325 5.39999C14.3062 5.39374 14.2812 5.38749 14.2625 5.38124C14.2063 5.36874 14.1875 5.39999 14.1812 5.41249L14.1875 5.42499L14.325 5.45624C14.1625 5.46874 14.0688 5.54999 13.9062 5.54999L13.85 5.50624L13.825 5.48749C13.825 5.48749 13.8687 5.44374 13.825 5.44374C13.7688 5.43749 13.7188 5.44999 13.6687 5.47499V5.49374L13.6625 5.51249L13.65 5.53749C13.6312 5.53749 13.6125 5.54374 13.5938 5.54374L13.5875 5.51249C13.5875 5.51249 13.6937 5.48749 13.6062 5.40624C13.5437 5.36249 13.4563 5.34999 13.3813 5.36874C13.3 5.33749 13.2313 5.26874 13.1938 5.18749C13.1688 5.11249 13.1 5.06249 13.025 5.06249L12.7563 4.89374L12.6687 4.88124L12.7125 4.83124V4.81874L12.6938 4.77499L12.6562 4.74374L12.7 4.69374C12.6562 4.70624 12.6438 4.67499 12.675 4.64374C12.7063 4.60624 12.675 4.57499 12.6687 4.56249C12.6687 4.53124 12.6625 4.50624 12.6562 4.47499L12.6438 4.45624C12.6313 4.44999 12.6187 4.44374 12.6062 4.43749C12.5875 4.43124 12.5875 4.40624 12.5688 4.39999C12.55 4.38749 12.5375 4.39374 12.5312 4.37499C12.525 4.35624 12.5125 4.32499 12.4875 4.32499C12.4625 4.32499 12.4875 4.35624 12.4375 4.36874C12.3875 4.38124 12.3938 4.38124 12.3875 4.36874C12.3875 4.35624 12.4312 4.33124 12.4312 4.33124L12.4187 4.29999H12.375C12.35 4.29999 12.325 4.29374 12.3 4.27499C12.2688 4.26249 12.2375 4.24999 12.2063 4.24999H12.1313C12.1063 4.16874 12.0813 4.08749 12.0437 4.00624L11.9875 4.05624L11.8938 3.86249L11.8875 3.83749C11.8062 3.83124 11.7312 3.80624 11.6687 3.75624C11.6687 3.75624 11.725 3.76874 11.7375 3.73749L11.6875 3.71874C11.6562 3.71874 11.6438 3.71249 11.6625 3.69374L11.6812 3.67499L11.6438 3.66249C11.6188 3.66874 11.5938 3.66874 11.5688 3.66249L11.5125 3.63749L11.4062 3.58749C11.4062 3.57499 11.4062 3.55624 11.4062 3.54374C11.4 3.51249 11.3562 3.54999 11.3562 3.54999L11.3687 3.60624C11.3187 3.56874 11.275 3.53124 11.2312 3.49374L11.2563 3.43124C11.2563 3.43124 11.2938 3.41249 11.2875 3.39999C11.275 3.38124 11.25 3.37499 11.225 3.38124L11.2125 3.39999L11.175 3.42499L11.0625 3.31249L11.0813 3.26249L11.075 3.20624L11.0437 3.14999C11.0437 3.13124 11.05 3.10624 11.0562 3.08749L11.0188 3.03749L10.9875 3.02499V3.00624L10.9812 2.98124C10.975 2.95624 10.95 2.97499 10.9375 2.98124L10.9312 2.98749L10.95 3.04374C10.8938 3.01249 10.8188 3.04999 10.7688 3.01249L10.7812 2.96874V2.94374C10.7812 2.94374 10.8187 2.92499 10.8062 2.91249C10.7875 2.89374 10.7625 2.88749 10.7375 2.89999L10.725 2.91874L10.7125 2.93124L10.6938 2.94999C10.6625 2.92499 10.6062 2.93749 10.5813 2.90624L10.5688 2.89374L10.475 2.93124L10.4625 2.88124L10.35 2.93124C10.35 2.91249 10.35 2.88749 10.3562 2.86874C10.3375 2.84374 10.2688 2.90624 10.2563 2.89374L10.2312 2.86249C10.1625 2.93124 10.2437 2.79374 10.1875 2.86249C10.1875 2.86249 10.1875 2.81874 10.0562 2.89374C10.0375 2.90624 10.0375 2.90624 10.025 2.91249C10.0187 2.89999 10.0187 2.88749 10.025 2.88124L9.55625 2.79374L9.39375 2.73749L9.08125 2.68749L9.03125 2.67499C8.90625 2.74999 8.58125 2.60624 8.58125 2.60624C8.58125 2.60624 8.8 2.53124 8.475 2.50624C8.28125 2.49374 8.0875 2.52499 7.9 2.59374C7.6625 2.61249 7.425 2.59374 7.19375 2.54374C7 2.49374 6.79375 2.49374 6.59375 2.54374L5.6875 2.58124L5.46875 2.63124V2.56249L5.45 2.55624L5.325 2.53749H5.1875V2.47499C5.125 2.51249 5.0375 2.49999 5.03125 2.44999C5.025 2.39999 4.89375 2.39999 4.85625 2.39374C4.81875 2.38749 4.7375 2.34999 4.65625 2.33749L4.5875 2.33124C4.55 2.33749 4.51875 2.33749 4.48125 2.34999C4.43125 2.35624 4.39375 2.33749 4.33125 2.34999C4.29375 2.36249 4.25 2.36249 4.20625 2.36249C4.15 2.34999 4.09375 2.34999 4.0375 2.36249C4 2.38124 4.0875 2.38749 4.0375 2.43124C3.9875 2.47499 3.9875 2.47499 3.94375 2.46249C3.90625 2.44999 3.94375 2.40624 3.94375 2.40624L3.86875 2.39374L3.7875 2.42499C3.7375 2.44374 3.68125 2.45624 3.625 2.46249C3.55625 2.47499 3.4875 2.49374 3.425 2.51249L3.3125 2.56874C2.975 2.51249 2.6375 2.48124 2.29375 2.46874L2.31875 2.53749C2.05 2.53749 1.775 2.57499 1.51875 2.64999L1.4375 2.67499C1.25625 2.82499 1.0875 2.98749 0.94375 3.16874C0.94375 3.16874 1.01875 3.03124 0.96875 3.04374V3.04999C0.9375 3.09999 0.9 3.14374 0.86875 3.19374C0.83125 3.27499 0.825 3.29999 0.80625 3.28749L0.7875 3.26874L0.7625 3.37499L0.75 3.53124L0.7125 3.69374C0.6875 3.81874 0.675 3.94374 0.68125 4.06874C0.6625 4.09999 0.65 4.13749 0.6375 4.17499C0.625 4.21874 0.64375 4.26874 0.68125 4.29374C0.6875 4.23749 0.7 4.18749 0.71875 4.13749L0.73125 4.75624L0.66875 4.84999C0.66875 4.84999 0.63125 4.78749 0.625 4.84374C0.61875 4.91249 0.625 4.98124 0.65 5.04374H0.66875L0.7125 5.07499C0.70625 5.16249 0.69375 5.24999 0.68125 5.33749L0.625 5.38124L0.5875 5.44374L0.5625 5.54999C0.54375 5.56874 0.525 5.58749 0.5 5.59999L0.48125 5.70624L0.4875 5.76874L0.46875 5.79999L0.45 5.84374C0.4375 5.86249 0.44375 5.88749 0.4625 5.89999C0.4625 5.89999 0.46875 5.89999 0.46875 5.90624H0.475L0.5125 5.81249C0.5125 5.93124 0.5875 5.99999 0.58125 6.12499L0.54375 6.16874L0.51875 6.18749C0.51875 6.18749 0.48125 6.14999 0.475 6.18749C0.4625 6.22499 0.475 6.26874 0.5 6.30624H0.51875L0.5375 6.31249L0.5625 6.32499C0.55625 6.40624 0.59375 6.47499 0.5875 6.55624V6.59999L0.6125 6.63749C0.6125 6.67499 0.6 6.71249 0.6 6.74999C0.55625 7.09999 0.5375 7.57499 0.51875 7.99999C0.525 8.06874 0.5375 8.14999 0.54375 8.23124C0.56875 8.38124 0.49375 8.52499 0.3625 8.59374L0.4 8.77499C0.4 8.88124 0.3875 8.94374 0.3875 8.94374C0.3875 8.94374 0.34375 8.86249 0.33125 8.94374C0.31875 9.01249 0.33125 9.08749 0.3625 9.14374C0.40625 9.26249 0.4125 9.05624 0.43125 9.14374C0.44375 9.26874 0.44375 9.39999 0.43125 9.52499C0.425 9.61874 0.43125 9.70624 0.44375 9.79999C0.45625 9.93124 0.4375 10.0125 0.44375 10.1312C0.45 10.2187 0.4625 10.2812 0.4625 10.375V10.5312C0.45 10.7125 0.41875 10.9062 0.4125 10.9812C0.40625 11.0562 0.4125 11.3625 0.3625 11.375C0.3125 11.3875 0.3 11.5812 0.34375 11.7187H0.2875V12.0312L0.26875 12.3062L0.2625 12.3437H0.19375L0.15 12.5625L0.16875 12.6687C0.13125 12.7875 0.1 12.9 0.0625 13L0 13.0375C0.075 13.2625 0.1375 13.4937 0.1875 13.7312C0.20625 13.825 0.225 13.9937 0.24375 14.1812C0.24375 14.2312 0.25 14.2687 0.25625 14.3062C0.275 14.4875 0.2875 14.55 0.2875 14.55L0.325 14.7312C0.31875 14.8375 0.3125 14.9 0.3125 14.9C0.3125 14.9 0.28125 14.85 0.2625 14.875C0.25 14.875 0.25 14.8812 0.25 14.8937C0.24375 14.925 0.24375 14.95 0.25 14.9812C0.2625 15.0187 0.275 15.0562 0.2875 15.0937C0.33125 15.2125 0.3375 15.0062 0.35625 15.0937C0.36875 15.2187 0.36875 15.35 0.35625 15.475C0.35 15.5687 0.35625 15.6562 0.36875 15.75C0.38125 15.8812 0.3625 15.9625 0.36875 16.0812C0.375 16.1687 0.3875 16.2312 0.3875 16.325V16.4812C0.38125 16.6187 0.35625 16.7687 0.34375 16.8625C0.34375 16.8875 0.3375 16.9125 0.3375 16.9312C0.3375 17.05 0.33125 17.175 0.30625 17.2937C0.31875 17.3562 0.3375 17.4125 0.35 17.4812C0.3625 17.575 0.3875 17.7437 0.40625 17.9312C0.4125 18.0562 0.425 18.1812 0.45 18.3L0.4875 18.4812C0.4875 18.5875 0.475 18.65 0.475 18.65C0.475 18.65 0.43125 18.5687 0.41875 18.65C0.40625 18.7187 0.41875 18.7937 0.45 18.85C0.49375 18.9687 0.5 18.7625 0.51875 18.85V18.8875C0.525 19 0.525 19.1187 0.51875 19.2375C0.51875 19.3312 0.51875 19.4187 0.53125 19.5125C0.54375 19.6437 0.525 19.725 0.53125 19.8437C0.5375 19.9312 0.55 19.9937 0.55 20.0875V20.1125V20.15C0.55625 20.275 0.575 20.4 0.59375 20.5187L0.625 20.6875C0.625 20.7937 0.6125 20.8562 0.6125 20.8562C0.6125 20.8562 0.56875 20.775 0.55625 20.8562C0.54375 20.925 0.55625 21 0.5875 21.0562C0.63125 21.175 0.6375 20.9687 0.65625 21.0562C0.66875 21.1812 0.66875 21.3125 0.65625 21.4375C0.65 21.5312 0.65625 21.6187 0.66875 21.7125C0.68125 21.8437 0.6625 21.925 0.66875 22.0437C0.675 22.1312 0.6875 22.1937 0.6875 22.2875V22.4437C0.675 22.625 0.64375 22.8187 0.6375 22.8937C0.63125 22.9687 0.6375 23.275 0.5875 23.2875C0.5375 23.3 0.525 23.4937 0.56875 23.6312H0.51875V23.9437L0.5 24.2187L0.49375 24.25H0.425L0.3875 24.4875L0.40625 24.5937C0.375 24.7062 0.3375 24.8125 0.3 24.9125C0.3125 25.0375 0.34375 24.9687 0.3875 25.0875C0.43125 25.1875 0.5 25.2812 0.5875 25.3562C0.56875 25.5062 0.55625 25.6562 0.5625 25.8062C0.5625 26.1312 0.5625 25.8062 0.6125 26.1812C0.6625 26.5562 0.75 26.45 0.71875 26.775C0.69375 26.9375 0.7 27.1062 0.73125 27.2687C0.76875 27.3312 0.79375 27.4 0.81875 27.475C0.8375 27.5437 0.8625 27.6062 0.9 27.6625C0.90625 27.6875 0.91875 27.7125 0.9375 27.7312C0.9 27.8187 0.88125 27.9125 0.8875 28.0062C0.9 28.225 1 28.425 1.15625 28.5687C1.2375 28.65 1.33125 28.7125 1.43125 28.7687C1.53125 28.825 1.64375 28.8562 1.75625 28.875C1.75625 28.875 1.6625 28.9 1.675 28.9562C1.68125 28.9812 1.7125 29.0187 1.8125 29.0625C1.875 29.0812 1.9375 29.0937 2 29.1C2.0375 29.1062 2.08125 29.1125 2.11875 29.1187L2.50625 29.15C2.975 29.1812 3.6 29.1875 4.15625 29.2L4.46875 29.1687C4.84375 29.1375 4.95 29.3375 4.95 29.3375L5.1875 29.3L5.40625 29.3062C5.40625 29.3062 5.3 29.3562 5.40625 29.3625C5.5 29.375 5.5875 29.3625 5.675 29.325C5.83125 29.2812 5.55625 29.275 5.675 29.2562C5.84375 29.2437 6.0125 29.2375 6.18125 29.25C6.3 29.25 6.425 29.25 6.54375 29.2375L6.9875 29.2312L7.30625 29.2125H7.50625L8.1 29.2625C8.20625 29.2625 8.60625 29.2625 8.61875 29.3125C8.63125 29.3625 8.8875 29.3687 9.075 29.3312V29.4H9.48125L9.84375 29.4187L9.8875 29.425V29.5L10.2063 29.5375L10.3438 29.5187C10.5 29.5562 10.65 29.5875 10.7812 29.625L10.8313 29.6937C11.1313 29.6187 11.4438 29.5562 11.75 29.5125L12.3438 29.4625L12.5063 29.45L12.8313 29.4187L13.0688 29.3875L13.2875 29.4C13.2875 29.4 13.2188 29.4312 13.25 29.4437C13.2625 29.45 13.275 29.4562 13.2875 29.4562C13.325 29.4625 13.3687 29.4625 13.4062 29.4562C13.4563 29.45 13.5062 29.4375 13.5562 29.4187C13.7125 29.375 13.4375 29.3687 13.5562 29.35C13.725 29.3375 13.8938 29.3375 14.0625 29.35C14.1812 29.3562 14.3063 29.35 14.425 29.3375H14.8687L15.1875 29.3187H15.3938L15.9 29.3625L15.9937 29.3687C16.1562 29.3687 16.3125 29.3812 16.475 29.4L16.7188 29.3562L17.3188 29.3062C17.7 29.2875 17.8062 29.2687 17.8062 29.2687L18.0438 29.2375L18.2625 29.25C18.2625 29.25 18.1562 29.2937 18.2625 29.3062C18.3563 29.3187 18.4438 29.3125 18.5312 29.275C18.6875 29.2312 18.4125 29.225 18.5312 29.2062H18.575C18.7313 29.2 18.8813 29.2 19.0375 29.2062C19.1562 29.2125 19.2812 29.2062 19.4 29.1937H19.8438L20.1625 29.175H20.1938H20.2437C20.625 29.15 20.7313 29.1312 20.7313 29.1312L20.9688 29.0937L21.1875 29.1062C21.1875 29.1062 21.0812 29.15 21.1875 29.1625C21.2812 29.175 21.3687 29.1625 21.4562 29.1312C21.6125 29.0875 21.3375 29.0812 21.4562 29.0625C21.625 29.05 21.7937 29.05 21.9625 29.0625C22.0812 29.0687 22.2063 29.0625 22.325 29.05H22.7687L23.0875 29.0312H23.2938L23.8937 29.0812C24.0062 29.0812 24.4 29.0812 24.4188 29.1312C24.4375 29.1812 24.6875 29.1875 24.8813 29.15V29.2187H25.2938L25.6625 29.2312L25.7125 29.2375V29.3062L26.0312 29.3375L26.1688 29.3125C26.3188 29.3437 26.4625 29.375 26.5875 29.4187C26.75 29.4 26.6625 29.375 26.825 29.3312C26.9563 29.2875 27.075 29.2187 27.175 29.1312C27.375 29.15 27.575 29.1562 27.775 29.1437C28.2062 29.1375 27.775 29.1437 28.275 29.0812C28.775 29.0187 28.6313 28.9375 29.0625 28.9625C29.2812 28.9812 29.5063 28.9687 29.7188 28.9312C29.8062 28.8937 29.8937 28.8625 29.9875 28.8375C30.0562 28.8187 30.1187 28.8 30.1812 28.775C30.2625 28.7625 30.3438 28.7375 30.4188 28.7062C30.575 28.6562 30.5312 28.5375 30.6938 28.6312C30.7812 28.6812 30.625 28.6937 30.9312 28.8062C31.025 28.8437 30.9938 28.875 31.1063 28.7375C31.1313 28.6437 31.1687 28.5562 31.2125 28.4687C31.2812 28.4312 31.1938 28.2875 31.2875 28.3125L31.3937 27.5437L31.4562 27.275L31.5187 26.7687L31.5312 26.6875C31.5063 26.4375 31.5375 26.1875 31.6125 25.95C31.6125 25.95 31.6812 26.3125 31.7188 25.775C31.7375 25.4562 31.7125 25.1437 31.65 24.8312C31.6375 24.4437 31.6625 24.0562 31.7188 23.6687C31.775 23.3437 31.7812 23.0125 31.7375 22.6812L31.7188 21.1937L31.675 20.8375H31.7437L31.75 20.8125L31.775 20.6125V20.3875H31.8438C31.8062 20.2812 31.825 20.1437 31.8687 20.1375C31.9125 20.1312 31.9187 19.9125 31.925 19.85C31.9312 19.7875 31.9688 19.65 31.9813 19.5187V19.4062C32.0063 19.3437 32 19.2937 31.9875 19.2312ZM2.60625 6.29374C2.59375 6.14374 2.79375 6.11249 2.79375 6.11249L2.76875 6.01249L2.7875 5.92499C2.7875 5.92499 2.83125 5.97499 2.84375 5.92499C2.85625 5.87499 2.85625 5.88124 2.81875 5.81249C2.78125 5.74374 2.76875 5.85624 2.75 5.81249C2.74375 5.74374 2.75 5.66874 2.76875 5.59999C2.775 5.54999 2.775 5.49374 2.76875 5.44374C2.76875 5.36874 2.7875 5.31874 2.78125 5.24999C2.78125 5.20624 2.76875 5.21874 2.76875 5.19374V5.16874C2.78125 5.13749 2.81875 5.11249 2.825 5.10624C2.83125 5.09374 2.83125 5.04374 2.875 5.06874C2.91875 5.09374 2.9375 5.07499 2.89375 5.03124L2.9625 5.07499V5.03749C2.96875 5.03124 2.98125 5.02499 2.9875 5.02499H3L3.0625 5.08124L3.10625 5.09999L3.1 5.08749C3.1375 5.11874 3.175 5.15624 3.20625 5.19374L3.2625 5.26249C3.21875 5.21249 3.1875 5.14999 3.175 5.08124C3.175 5.06249 3.18125 5.04374 3.1875 5.03124L3.19375 5.01874C3.2 5.00624 3.20625 4.99374 3.20625 4.98749L3.21875 4.95624L3.2375 4.96874V5.01249V5.02499H3.25C3.25 5.02499 3.24375 5.01249 3.275 4.98749C3.3375 4.94374 3.225 4.93749 3.275 4.91874C3.34375 4.90624 3.41875 4.90624 3.4875 4.91874C3.5375 4.92499 3.5875 4.91874 3.6375 4.90624C3.70625 4.89999 3.75625 4.91874 3.81875 4.90624C3.8625 4.89999 3.90625 4.89999 3.95 4.89999H4.03125C4.1 4.91249 4.175 4.92499 4.24375 4.94999L4.28125 4.95624C4.35 4.96249 4.4125 4.97499 4.475 4.99999L4.58125 4.95624C4.6625 4.93124 4.74375 4.91874 4.825 4.90624C4.89375 4.89999 4.9625 4.88749 5.025 4.86874L5.125 4.83749L5.21875 4.84999C5.21875 4.84999 5.175 4.89374 5.21875 4.90624C5.2625 4.91874 5.2625 4.91874 5.33125 4.87499C5.39375 4.83124 5.28125 4.82499 5.33125 4.80624H5.35C5.4125 4.79999 5.475 4.79999 5.5375 4.80624C5.5875 4.81249 5.6375 4.80624 5.6875 4.79999C5.75625 4.79374 5.80625 4.81249 5.86875 4.79999C5.9125 4.79374 5.95625 4.78749 6 4.78749H6.0125H6.03125C6.1 4.78124 6.16875 4.76874 6.23125 4.74999L6.33125 4.71874L6.425 4.73124C6.425 4.73124 6.38125 4.77499 6.425 4.78749C6.46875 4.79999 6.46875 4.79999 6.5375 4.75624C6.6 4.71249 6.4875 4.70624 6.5375 4.68749C6.60625 4.67499 6.68125 4.67499 6.75 4.68749C6.8 4.69374 6.85 4.68749 6.9 4.68124C6.96875 4.67499 7.01875 4.69374 7.08125 4.68124C7.125 4.67499 7.16875 4.66874 7.2125 4.66874H7.29375C7.39375 4.68124 7.5 4.71874 7.5375 4.72499C7.58125 4.73124 7.75 4.73124 7.75 4.78124C7.75 4.83124 7.85625 4.84374 7.9375 4.80624V4.87499H8.10625L8.25625 4.89374L8.26875 4.90624V4.97499L8.4 5.01249L8.45625 4.99374C8.5125 5.02499 8.56875 5.06249 8.625 5.09999C8.69375 5.08749 8.65625 5.05624 8.725 5.01874C8.7875 4.96249 8.8375 4.89999 8.86875 4.82499C8.95 4.84999 9.03125 4.85624 9.1125 4.85624C9.2875 4.85624 9.1125 4.85624 9.31875 4.80624C9.35625 4.79999 9.4 4.78124 9.43125 4.76249L9.425 4.77499H9.475L9.49375 4.80624C9.49375 4.80624 9.45 4.83124 9.45625 4.84999C9.4625 4.86874 9.45625 4.86874 9.50625 4.84999C9.55625 4.83124 9.525 4.79999 9.55 4.79999C9.575 4.79999 9.59375 4.83124 9.60625 4.84999C9.61875 4.86874 9.625 4.86874 9.65 4.88124C9.675 4.89374 9.675 4.91874 9.7 4.92499C9.71875 4.93124 9.73125 4.93749 9.75 4.94999L9.76875 4.97499C9.78125 5.01249 9.7875 5.04374 9.8 5.08124C9.80625 5.09999 9.85 5.14374 9.81875 5.18124C9.7875 5.21874 9.8 5.25624 9.85625 5.24999L9.80625 5.29999L9.85 5.34999L9.875 5.40624V5.41874L9.8125 5.43749L9.81875 5.49999H9.85C9.84375 5.54374 9.83125 5.58749 9.81875 5.63124L9.775 5.68749C9.85625 5.67499 9.9375 5.67499 10.0125 5.68749C10.05 5.69999 10.0875 5.71249 10.1187 5.73124L10.1438 5.74374C10.1625 5.75624 10.1813 5.76249 10.2063 5.76874L10.2625 5.78124L10.2812 5.81874C10.2812 5.81874 10.25 5.83124 10.2437 5.84374V5.85624C10.2437 5.86874 10.2438 5.87499 10.2563 5.87499H10.3C10.35 5.86874 10.325 5.82499 10.35 5.83124C10.3813 5.83749 10.4 5.88124 10.4125 5.89999C10.425 5.92499 10.4375 5.92499 10.4625 5.94374C10.4937 5.96249 10.4938 5.98749 10.5188 6.00624C10.5375 6.01874 10.5562 6.02499 10.575 6.04374L10.5938 6.06249C10.6062 6.09374 10.6188 6.13124 10.6313 6.16874L10.6375 6.18749C10.6438 6.20624 10.6875 6.24374 10.6812 6.28124L10.7437 6.28749C10.7875 6.29999 10.825 6.31874 10.8687 6.33749C10.9 6.35624 10.9375 6.37499 10.975 6.38124L11.0312 6.39374L11.0562 6.43124C11.0562 6.43124 11.0063 6.44999 11.0188 6.47499C11.0312 6.49999 11.0312 6.49999 11.0813 6.49374C11.1375 6.48749 11.1 6.44374 11.125 6.44374H11.1375C11.1625 6.46249 11.1875 6.48124 11.2063 6.51249C11.225 6.53749 11.2375 6.53749 11.2688 6.55624C11.3 6.57499 11.3062 6.59999 11.3375 6.61874C11.3562 6.62499 11.3812 6.63749 11.4 6.64999H11.4125C11.4438 6.66874 11.4812 6.68124 11.5188 6.68124H11.575L11.6062 6.71874C11.6062 6.71874 11.5625 6.73749 11.5688 6.76249C11.5813 6.78749 11.5813 6.78749 11.6313 6.76874C11.6813 6.75624 11.6438 6.71249 11.675 6.71874C11.7063 6.71874 11.7375 6.76249 11.7563 6.78124C11.775 6.80624 11.7875 6.80624 11.8188 6.81874C11.85 6.83124 11.8625 6.86249 11.8938 6.87499C11.9125 6.88124 11.9375 6.88749 11.9563 6.89999L11.9875 6.92499C11.9938 6.93749 12 6.94374 12.0063 6.95624C11.9625 7.04374 11.8938 7.18749 12.0188 7.21874C12.0688 7.22499 12.1187 7.23124 12.1687 7.23124L12.1438 7.26874L12.2125 7.31249L12.2625 7.36874V7.38124L12.225 7.44374L12.2625 7.50624H12.3C12.3063 7.54999 12.3125 7.59374 12.3188 7.64374C12.3563 7.64374 12.3562 7.61874 12.4062 7.59374C12.4625 7.56249 12.5188 7.51874 12.5625 7.46249H12.5688C12.5875 7.49999 12.6187 7.52499 12.6562 7.54374C12.7312 7.58749 12.6562 7.54374 12.7688 7.54999C12.8125 7.54999 12.8562 7.53749 12.8938 7.51249H12.9312C12.9375 7.51874 12.95 7.52499 12.9563 7.53124C12.9812 7.57499 13.0312 7.59374 13.075 7.58124C13.0938 7.56249 13.1188 7.54999 13.1438 7.53749C13.325 7.55624 13.5063 7.56874 13.6875 7.58124C13.7437 7.57499 13.8 7.56249 13.8687 7.55624C13.9937 7.53749 14.1062 7.61249 14.15 7.73124L14.2875 7.69374C14.3688 7.69999 14.4187 7.70624 14.4187 7.70624C14.4187 7.70624 14.3562 7.74999 14.4187 7.76249C14.4812 7.77499 14.4812 7.77499 14.575 7.73124C14.6687 7.68749 14.5062 7.68124 14.575 7.66249C14.675 7.64999 14.7687 7.64999 14.8687 7.66249C14.9375 7.66874 15.0125 7.66249 15.0813 7.64999C15.1875 7.63749 15.2437 7.65624 15.3375 7.64999C15.4062 7.64374 15.45 7.63749 15.525 7.63124H15.6438C15.7812 7.64374 15.9312 7.68124 15.9937 7.68124C16.05 7.68749 16.2875 7.68749 16.3 7.73124C16.3125 7.77499 16.4563 7.79374 16.5688 7.75624V7.84999H16.8062L17.0187 7.86874L17.0438 7.87499V7.94999L17.225 7.98749L17.3062 7.96874C17.3937 7.99999 17.475 8.03749 17.5562 8.08124L17.5875 8.14999C17.7625 8.07499 17.9375 8.01249 18.125 7.96874C18.2 7.95624 18.325 7.93124 18.475 7.91874L18.5688 7.90624C18.6313 7.89999 18.6938 7.88749 18.7563 7.87499L18.8937 7.84374C18.975 7.84999 19.0187 7.85624 19.0187 7.85624C19.0187 7.85624 18.9813 7.88749 19 7.89999C19.0063 7.90624 19.0125 7.91249 19.0187 7.91249C19.0437 7.91874 19.0625 7.91874 19.0875 7.91249C19.1187 7.90624 19.15 7.89374 19.175 7.87499C19.2687 7.83124 19.1062 7.82499 19.175 7.80624C19.275 7.79374 19.3687 7.79374 19.4688 7.80624C19.5375 7.81249 19.6125 7.80624 19.6812 7.79374C19.7812 7.78749 19.8438 7.80624 19.9375 7.79374C20.0063 7.78749 20.05 7.78124 20.125 7.77499H20.2437C20.35 7.78749 20.4625 7.80624 20.5375 7.81874L20.5875 7.82499C20.6812 7.82499 20.775 7.83749 20.8687 7.85624C20.9187 7.84374 20.9625 7.82499 21.0125 7.81249C21.0875 7.79999 21.2125 7.77499 21.3625 7.76249C21.4562 7.75624 21.5562 7.74374 21.65 7.72499L21.7875 7.68749C21.8687 7.69374 21.9188 7.69999 21.9188 7.69999C21.9188 7.69999 21.8563 7.74374 21.9188 7.75624C21.9813 7.76874 21.9813 7.76874 22.075 7.72499C22.1688 7.68124 22.0063 7.67499 22.075 7.65624H22.1C22.1875 7.64999 22.2812 7.64999 22.3687 7.65624C22.4375 7.66249 22.5125 7.65624 22.5812 7.64374C22.6875 7.63124 22.7437 7.64999 22.8375 7.64374C22.9062 7.63749 22.95 7.63124 23.025 7.62499H23.0438H23.075C23.1688 7.61874 23.2687 7.60624 23.3625 7.58124L23.5 7.54999C23.5812 7.55624 23.6313 7.56249 23.6313 7.56249C23.6313 7.56249 23.5688 7.60624 23.6313 7.61874C23.6938 7.63124 23.6938 7.63124 23.7875 7.58749C23.8813 7.54374 23.7188 7.53749 23.7875 7.51874C23.8875 7.50624 23.9812 7.50624 24.0812 7.51874C24.15 7.52499 24.225 7.51874 24.2938 7.50624C24.4 7.49374 24.4562 7.51249 24.55 7.50624C24.6187 7.49999 24.6625 7.49374 24.7375 7.48749H24.8563C24.9938 7.49999 25.1437 7.53749 25.2062 7.53749C25.2625 7.54374 25.5 7.54374 25.5063 7.58749C25.5125 7.63124 25.6625 7.64999 25.775 7.61249V7.68124H26.0125L26.225 7.69999L26.25 7.70624V7.77499L26.4312 7.81249L26.5125 7.79374C26.5938 7.82499 26.675 7.86249 26.7563 7.89999C26.85 7.88749 26.8 7.85624 26.8937 7.81249C26.9187 7.79999 26.9375 7.78124 26.9562 7.76249C26.9562 7.76874 26.9562 7.78124 26.9625 7.78124C26.9937 7.79374 26.9937 7.79374 27.0375 7.75624C27.0813 7.71249 27.025 7.70624 27.0375 7.69374C27.0875 7.68749 27.1313 7.68749 27.1812 7.69999C27.2188 7.70624 27.25 7.70624 27.2875 7.69999C27.3375 7.69374 27.3688 7.71249 27.4188 7.70624C27.45 7.69999 27.4812 7.69374 27.5187 7.69374L27.5812 7.69999L27.7687 7.76249C27.8 7.76874 27.9438 7.77499 27.95 7.81874C27.9563 7.86249 28.0562 7.88124 28.125 7.83749V7.90624H28.2313L28.3125 7.92499L28.325 7.93124V8.00624L28.3875 8.04374L28.4188 8.02499C28.45 8.06249 28.475 8.09999 28.4937 8.13749V8.20624C28.5437 8.14374 28.6 8.08749 28.6625 8.04374C28.6938 8.02499 28.725 8.01874 28.7563 8.01249L28.7812 8.00624C28.7938 7.99999 28.8 7.99374 28.8062 7.98124L28.8312 7.94999L28.8375 7.96874C28.8312 7.98124 28.825 7.99999 28.8188 8.01249V8.02499V8.03124L28.8438 7.99999C28.8687 7.96249 28.8563 7.94999 28.875 7.93749C28.8875 7.92499 28.9 7.93749 28.9062 7.94999C28.9125 7.96249 28.9187 7.94999 28.9312 7.94999C28.95 7.94999 28.9437 7.96874 28.9562 7.96874C28.9625 7.96249 28.975 7.96249 28.9813 7.96874L28.9875 7.98124C28.9875 7.99999 28.9813 8.01874 28.975 8.03749V8.04999C28.9813 8.06249 28.975 8.08124 28.9625 8.09374L29.0063 8.08749C29.025 8.08749 29.05 8.09374 29.0688 8.09999C29.0813 8.11249 29.1 8.11874 29.1187 8.12499L29.1562 8.13749L29.15 8.15624C29.15 8.15624 29.1063 8.15624 29.0938 8.16874C29.0812 8.18124 29.0813 8.17499 29.1313 8.19374C29.1812 8.21249 29.175 8.16249 29.2 8.18124V8.18749C29.2125 8.20624 29.2125 8.24999 29.2062 8.27499C29.2062 8.29999 29.2125 8.32499 29.225 8.34999C29.2375 8.38749 29.225 8.41249 29.2313 8.45624C29.2375 8.48124 29.25 8.50624 29.25 8.53124V8.53749V8.54999C29.2563 8.59374 29.275 8.63749 29.2938 8.67499L29.3312 8.73749L29.3188 8.79999C29.3188 8.79999 29.275 8.76874 29.2625 8.79999C29.25 8.83124 29.25 8.83124 29.2938 8.87499C29.3375 8.91874 29.3438 8.83749 29.3625 8.87499C29.375 8.92499 29.375 8.97499 29.3625 9.01874C29.3562 9.05624 29.3625 9.08749 29.375 9.12499C29.3875 9.17499 29.3687 9.20624 29.375 9.25624C29.3813 9.28749 29.3875 9.31874 29.3937 9.34999V9.40624C29.3812 9.47499 29.35 9.54999 29.3438 9.58124C29.3375 9.61249 29.3438 9.72499 29.2938 9.73124C29.2438 9.73749 29.2312 9.81249 29.275 9.86249H29.2062V9.98124L29.1875 10.0875L29.1812 10.1H29.1125L29.075 10.1937L29.0938 10.2312C29.0625 10.275 29.025 10.3125 28.9875 10.35C29 10.4 29.0312 10.375 29.075 10.4187C29.1313 10.4687 29.2 10.5 29.275 10.525C29.2687 10.5437 29.2625 10.5562 29.2625 10.575L29.1938 10.5312C29.1313 10.4875 29.0688 10.425 29.025 10.3875L29.0125 10.3562C28.95 10.325 28.8937 10.2812 28.8375 10.2375L28.725 10.2312L28.4625 10.1812C28.3937 10.1625 28.3188 10.1562 28.2437 10.15L28.15 10.1562L28.075 10.125C28.075 10.125 28.125 10.0937 28.0875 10.0687C28.05 10.05 28.05 10.0437 27.9813 10.075C27.9125 10.1 28.0125 10.1312 27.9625 10.1375H27.9562C27.9 10.1312 27.8438 10.1187 27.7938 10.0937C27.75 10.0812 27.7063 10.075 27.6625 10.075C27.6 10.075 27.5625 10.0437 27.5063 10.0437C27.4688 10.0437 27.4313 10.0437 27.3875 10.0375H27.3125H27.2938C27.2313 10.0312 27.175 10.0375 27.1125 10.05L27.025 10.0687L26.95 10.0437C26.95 10.0437 26.9937 10.0062 26.9562 9.98749C26.9187 9.96874 26.9188 9.96874 26.8563 10.0062C26.7938 10.0437 26.8875 10.0625 26.8438 10.075C26.7875 10.0812 26.725 10.0687 26.6688 10.05C26.6562 10.05 26.6438 10.0437 26.6313 10.0437C26.6125 10.0375 26.5938 10.0312 26.5812 10.025C26.5375 9.95624 26.3875 10.05 26.4125 9.95624L25.8687 9.90624C25.8562 9.89999 25.8375 9.89374 25.8375 9.88749C25.8375 9.84374 25.75 9.81874 25.6812 9.85624V9.78749L25.5438 9.78124L25.4188 9.75624L25.4062 9.74999V9.68124L25.3 9.63749L25.25 9.65624C25.2 9.62499 25.1562 9.58749 25.1125 9.54999C25.0562 9.56249 25.0875 9.59374 25.0312 9.63124C24.9813 9.68124 24.9438 9.73749 24.9188 9.79999L24.7375 9.78749L24.6437 9.77499C24.3812 9.80624 24.1125 9.78749 23.8563 9.71874C23.8563 9.71874 24.2375 9.63749 23.6625 9.62499C23.325 9.61874 22.9875 9.64999 22.6562 9.72499C22.2375 9.74999 21.8188 9.73749 21.4062 9.69374C21.0562 9.64999 20.7 9.64999 20.35 9.70624L18.7563 9.76249L18.375 9.81874V9.74999L18.35 9.74374L18.1313 9.72499H17.8875V9.65624C17.775 9.69999 17.625 9.68124 17.6125 9.63749C17.6 9.59374 17.3687 9.59374 17.3 9.58749C17.2375 9.58124 17.0875 9.54999 16.9438 9.53749H16.825L16.6375 9.55624C16.5438 9.56874 16.4813 9.54999 16.375 9.55624C16.3062 9.56874 16.2313 9.56874 16.1562 9.56874C16.0562 9.55624 15.9563 9.55624 15.8562 9.56874C15.7875 9.58749 15.95 9.59374 15.8562 9.63749C15.7625 9.68124 15.7625 9.68124 15.7 9.66874C15.6375 9.65624 15.7 9.61249 15.7 9.61249L15.5688 9.59999L15.4375 9.68749C15.3438 9.70624 15.2438 9.72499 15.1438 9.73124C14.9938 9.74999 14.8625 9.76874 14.7875 9.78749L14.5875 9.84374L13.6062 9.75624V9.83124L12.7875 9.78124L12.6938 9.76874C12.4375 9.83124 12.1812 9.86874 11.9187 9.88749C11.9187 9.88749 12.0813 9.84999 12.0312 9.82499H12.025L11.8438 9.84999C11.75 9.87499 11.7188 9.87499 11.7188 9.84999V9.82499L11.5938 9.84374C11.5375 9.86874 11.4812 9.88749 11.425 9.89999L11.2312 9.91874L10.8313 9.96874C10.7875 9.95624 10.75 9.94999 10.7063 9.94374C10.6125 9.93124 10.6 9.98749 10.6 9.98749L10.775 10.0125L10.1562 10.0375L10.05 9.97499C10.05 9.97499 10.1062 9.93124 10.05 9.93124C9.98125 9.92499 9.91875 9.93749 9.85625 9.96249V9.98124L9.83125 10.025L9.36875 10.0125L9.29375 9.96249L9.16875 9.93124L8.95625 9.91249C8.91875 9.89999 8.88125 9.88124 8.85 9.85624L8.6625 9.84374L8.55 9.85624L8.50625 9.84374L8.425 9.83124C8.35625 9.81874 8.33125 9.84999 8.325 9.86249V9.87499L8.49375 9.90624C8.29375 9.91874 8.175 9.99999 7.96875 10.0062L7.9 9.96874L7.8625 9.94999C7.8625 9.94999 7.91875 9.90624 7.8625 9.90624C7.79375 9.89999 7.73125 9.91249 7.66875 9.93749V9.94374L7.58125 9.92499L7.5375 9.91249C7.4375 9.98749 7.16875 9.85624 7.16875 9.85624C7.16875 9.85624 7.35 9.76874 7.075 9.76249C6.9125 9.75624 6.74375 9.79374 6.6 9.86874C6.4 9.89999 6.19375 9.89999 5.99375 9.86874C5.81875 9.83749 5.63125 9.85624 5.46875 9.93124C5.20625 9.98124 4.94375 10.0437 4.68125 10.1187L4.5 10.2125L4.48125 10.15H4.46875L4.35625 10.1562L4.2375 10.1875L4.21875 10.125C4.175 10.1812 4.09375 10.1812 4.075 10.1437C4.05625 10.1 3.9125 10.1437 3.8625 10.1562C3.78125 10.1625 3.70625 10.1687 3.625 10.1875L3.55 10.2125C3.5125 10.2312 3.475 10.25 3.44375 10.275C3.39375 10.3062 3.34375 10.3062 3.2875 10.3437C3.25625 10.375 3.2125 10.4 3.175 10.4187C3.1125 10.4375 3.05625 10.4687 3.0125 10.5062C2.98125 10.5437 3.075 10.5 3.04375 10.5625C3.0125 10.625 3.01875 10.625 2.975 10.6375C2.9375 10.65 2.94375 10.5875 2.94375 10.5875L2.86875 10.6187L2.8125 10.6937C2.775 10.7437 2.73125 10.7875 2.6875 10.825C2.6375 10.875 2.59375 10.925 2.55625 10.9812V10.9937L2.525 11.0562C2.51875 10.8812 2.50625 10.7 2.50625 10.5187L2.56875 10.4125C2.56875 10.4125 2.6125 10.4687 2.6125 10.4125C2.61875 10.3437 2.60625 10.275 2.58125 10.2125H2.5625L2.51875 10.175C2.51875 10.0125 2.525 9.84999 2.53125 9.69374L2.58125 9.61874L2.6125 9.48749L2.63125 9.27499C2.64375 9.23749 2.6625 9.19999 2.6875 9.16874C2.69375 9.08749 2.69375 9.02499 2.7 8.96874L2.6875 8.85624C2.69375 8.83749 2.69375 8.81874 2.7 8.80624C2.7 8.78749 2.7125 8.76249 2.7125 8.72499C2.725 8.65624 2.69375 8.63124 2.68125 8.61874H2.66875L2.64375 8.79999C2.63125 8.58749 2.55 8.46874 2.54375 8.24999L2.5875 8.17499L2.60625 8.13749C2.60625 8.13749 2.65 8.19374 2.65 8.13749C2.65625 8.06874 2.64375 7.99999 2.61875 7.93749H2.6L2.58125 7.92499L2.5625 7.91249C2.5625 7.77499 2.51875 7.64999 2.51875 7.51874C2.51875 7.49374 2.51875 7.46874 2.51875 7.44999L2.43125 7.26874L2.4625 7.13749L2.4875 7.06249C2.5375 6.88749 2.575 6.64999 2.6125 6.43124L2.60625 6.29374ZM1.1625 27.9437C1.20625 27.9687 1.25 27.9875 1.3 27.9937C1.26875 28.0187 1.24375 28.0562 1.23125 28.0562C1.21875 28.05 1.1875 28.0187 1.1625 27.9437ZM1.60625 28.1062C1.6125 28.1375 1.6125 28.1437 1.60625 28.1062C1.575 28.0937 1.5375 28.075 1.5125 28.0562C1.4875 28.0312 1.4625 28.0187 1.44375 28.0062C1.48125 28 1.5125 27.9937 1.55 27.9812L1.6125 27.9562C1.6375 27.95 1.66875 27.9375 1.69375 27.925C1.675 27.9312 1.66875 27.9312 1.65625 27.9375L1.7 27.9187C1.81875 27.875 1.81875 27.7812 1.89375 27.7937C1.85 27.8312 1.80625 27.8625 1.7625 27.8875C1.825 27.85 1.7875 27.8687 1.79375 27.8812C1.78125 27.8937 1.775 27.9062 1.75625 27.9125C1.7375 27.925 1.7125 27.9375 1.6875 27.9375C1.6875 27.9312 1.63125 28 1.79375 28.1C1.9375 28.1562 1.7625 28.1812 1.60625 28.1062ZM28.8062 27.075L28.4062 27.0312L27.65 26.9937L27.525 26.9875C27.1625 27.025 26.8 27.0062 26.4375 26.9375C26.4375 26.9375 26.9625 26.85 26.1688 26.8437C25.7063 26.8375 25.2375 26.875 24.7812 26.95C24.2062 26.975 23.6313 26.9625 23.0562 26.9187C22.5688 26.875 22.0813 26.875 21.6 26.925L19.4 26.975L18.875 27.025V26.9562L18.8375 26.95L18.5375 26.9312H18.2V26.8625C18.0438 26.9 17.8375 26.8875 17.825 26.8437C17.8125 26.8 17.4875 26.7937 17.4 26.7875L16.9125 26.7312H16.7437L16.4813 26.75H16.1187C16.0187 26.7625 15.9188 26.7625 15.8188 26.7625C15.6813 26.75 15.5437 26.75 15.4062 26.7625C15.3125 26.7812 15.5375 26.7875 15.4062 26.8312C15.3375 26.8687 15.2625 26.875 15.1875 26.8625C15.0938 26.85 15.1875 26.8062 15.1875 26.8062L15.0063 26.7937L14.8125 26.825C14.8125 26.825 14.7188 26.8437 14.4125 26.8625C14.2063 26.875 14.025 26.9 13.925 26.9125L13.65 26.9687L12.2937 26.8687V26.9437L11.1625 26.8875L11.0375 26.875C10.6813 26.9375 10.325 26.9687 9.96875 26.9812C9.96875 26.9812 10.1938 26.9437 10.125 26.9187H10.1125L9.85625 26.9437C9.73125 26.9687 9.68125 26.9687 9.68125 26.9437V26.9187L9.50625 26.9375C9.43125 26.9625 9.35 26.9812 9.26875 26.9937L9 27.0125L8.44375 27.0625L8.2625 27.0375C8.1375 27.025 8.11875 27.0812 8.11875 27.0812L8.35625 27.1062L7.5 27.1312L7.35625 27.0687C7.35625 27.0687 7.43125 27.025 7.35625 27.025C7.2625 27.0187 7.175 27.0312 7.0875 27.0625V27.0812L7.05625 27.125L6.41875 27.1187L6.3125 27.075L6.1375 27.0437L5.85 27.025C5.8 27.0125 5.75 26.9937 5.70625 26.9687L5.44375 26.9562L5.29375 26.975L5.23125 26.9625L5.11875 26.95C5.025 26.9375 4.99375 26.9687 4.98125 26.9812V26.9875L5.21875 27.0125C4.9375 27.0312 4.78125 27.1187 4.4875 27.1187L4.39375 27.0812L4.34375 27.0625C4.34375 27.0625 4.41875 27.0187 4.34375 27.0187C4.25 27.0125 4.1625 27.025 4.075 27.0562V27.075L4.0625 27.0937L4.04375 27.1187C3.85625 27.1187 3.7 27.1687 3.51875 27.1687H3.41875L3.18125 27.2625L3.00625 27.2375L2.725 27.3437C2.675 27.3375 2.625 27.3187 2.58125 27.2937C2.56875 27.2937 2.5625 27.3 2.55 27.3C2.575 27.0625 2.59375 26.825 2.6125 26.5625L2.6625 26.2625L2.70625 25.6937L2.71875 25.6C2.6875 25.325 2.70625 25.0437 2.775 24.775C2.775 24.775 2.85625 25.175 2.86875 24.575C2.875 24.2187 2.84375 23.8687 2.76875 23.5187C2.74375 23.0875 2.75625 22.65 2.8 22.2187C2.84375 21.8562 2.84375 21.4937 2.79375 21.1312L2.75 19.475C2.73125 19.3375 2.7125 19.2062 2.69375 19.075H2.7625L2.76875 19.0437L2.7875 18.8125V18.5625H2.85625C2.8125 18.4437 2.83125 18.2875 2.875 18.2812C2.91875 18.275 2.91875 18.025 2.925 17.9562C2.93125 17.8875 2.9625 17.7312 2.975 17.5875C2.975 17.5437 2.975 17.5062 2.975 17.4625C2.975 17.3875 2.9625 17.3375 2.95625 17.2625C2.94375 17.1625 2.9625 17.0937 2.95625 16.9875C2.94375 16.9125 2.9375 16.8375 2.94375 16.7625C2.95625 16.6562 2.95625 16.55 2.94375 16.4437C2.925 16.3687 2.91875 16.5437 2.875 16.4437C2.83125 16.3437 2.83125 16.3437 2.84375 16.2812C2.85625 16.2125 2.9 16.2812 2.9 16.2812C2.9 16.2812 2.9 16.2312 2.9125 16.1437L2.875 16C2.85625 15.9 2.8375 15.8 2.83125 15.7C2.81875 15.5437 2.79375 15.4125 2.775 15.3312C2.7625 15.25 2.7375 15.1937 2.71875 15.125C2.7375 14.975 2.74375 14.8062 2.7625 14.6562H2.8125L2.79375 14.6L2.825 14.55C2.825 14.55 2.8625 14.5875 2.88125 14.5687C2.9 14.5437 2.9 14.5437 2.86875 14.4937C2.8375 14.4437 2.8125 14.5062 2.80625 14.4687C2.80625 14.425 2.81875 14.3812 2.85 14.35C2.8625 14.325 2.875 14.2937 2.875 14.2625C2.88125 14.2187 2.9125 14.2 2.91875 14.1562C2.91875 14.125 2.925 14.1 2.9375 14.075L2.9625 14.0312C3 13.9812 3.0625 13.9375 3.075 13.925C3.0875 13.9125 3.14375 13.8187 3.18125 13.8375C3.21875 13.8562 3.26875 13.8125 3.25625 13.75L3.3125 13.7875C3.325 13.7562 3.34375 13.7312 3.3625 13.7062L3.43125 13.6437H3.44375L3.5 13.6812L3.56875 13.6437V13.6062C3.61875 13.6 3.66875 13.5937 3.71875 13.6L3.78125 13.6375C3.7625 13.55 3.7625 13.4562 3.78125 13.3625C3.79375 13.3187 3.8125 13.2687 3.8375 13.2312L3.85625 13.1937C3.86875 13.1687 3.88125 13.15 3.89375 13.125L3.9125 13.0625L3.95625 13.0375C3.95625 13.0375 3.9625 13.0687 3.98125 13.0812H4C4.0125 13.0812 4.01875 13.075 4.025 13.0687C4.025 13.05 4.025 13.0375 4.025 13.0187C4.025 12.9625 3.975 12.9937 3.98125 12.9687C3.99375 12.9375 4.04375 12.9125 4.075 12.9C4.10625 12.8875 4.10625 12.8687 4.1375 12.8437C4.16875 12.8125 4.19375 12.8187 4.21875 12.7875C4.23125 12.7687 4.25 12.75 4.26875 12.7312L4.3125 12.7125C4.35 12.7062 4.39375 12.7 4.43125 12.7H4.45C4.46875 12.6937 4.525 12.6687 4.55625 12.6875L4.5875 12.6312C4.6125 12.5937 4.65 12.5562 4.6875 12.5312C4.71875 12.5125 4.74375 12.4875 4.76875 12.4625L4.81875 12.4125H4.88125C4.88125 12.4125 4.8625 12.4625 4.89375 12.4687C4.925 12.4687 4.925 12.4687 4.95625 12.4187C4.9875 12.3687 4.9125 12.3812 4.9375 12.35L4.95 12.3437C4.9875 12.325 5.03125 12.3187 5.075 12.3187C5.1125 12.3125 5.14375 12.3062 5.175 12.2875C5.21875 12.2687 5.25625 12.2812 5.3 12.2625C5.325 12.25 5.35625 12.2375 5.3875 12.225H5.39375L5.40625 12.2187C5.45 12.2062 5.5 12.1812 5.5375 12.1562L5.6 12.1125H5.6625C5.6625 12.1125 5.6375 12.1625 5.66875 12.1687C5.7 12.175 5.7 12.175 5.74375 12.125C5.7875 12.075 5.7 12.0812 5.73125 12.0562C5.775 12.0375 5.83125 12.0312 5.88125 12.0375C5.91875 12.0375 5.95625 12.0312 5.9875 12.0125C6.0375 11.9937 6.06875 12.0125 6.11875 12C6.15 11.9875 6.18125 11.9812 6.2125 11.975H6.275C6.34375 11.9812 6.425 12.0125 6.45625 12.0125C6.4875 12.0125 6.60625 12.0125 6.6125 12.0562C6.61875 12.1 6.69375 12.1125 6.75 12.0687V12.1375L6.875 12.1312L6.9875 12.1437L7 12.15V12.2187L7.1 12.2562L7.14375 12.2375C7.1875 12.2687 7.23125 12.3062 7.275 12.3437C7.325 12.3312 7.3 12.3 7.34375 12.2562C7.39375 12.2 7.425 12.1312 7.45 12.0562C7.5125 12.075 7.575 12.0875 7.6375 12.0812C7.73125 12.0812 7.7 12.0812 7.71875 12.0625L7.9375 12.0375C8.08125 12.0062 8.225 12.0812 8.2875 12.2125L8.45625 12.175L8.61875 12.1875C8.61875 12.1875 8.5375 12.2312 8.61875 12.2437C8.7 12.2562 8.7 12.2562 8.8125 12.2062C8.925 12.1625 8.725 12.1562 8.8125 12.1375C8.93125 12.125 9.05625 12.125 9.18125 12.1375C9.26875 12.1375 9.35625 12.1375 9.44375 12.125H9.7625L9.99375 12.1062H10.1375L10.5688 12.1562C10.65 12.1625 10.9375 12.1562 10.95 12.2062C10.9625 12.2562 11.1438 12.2687 11.2812 12.225V12.2812H11.5813L11.8438 12.3L11.875 12.3062V12.375L12.1062 12.4125L12.2125 12.3937C12.325 12.4312 12.4375 12.4625 12.5312 12.5L12.5688 12.5687C12.7875 12.4937 13.0063 12.4312 13.2375 12.3812C13.3313 12.3687 13.4875 12.3437 13.6687 12.325L13.7875 12.3125L14.025 12.2812L14.1938 12.2437L14.3562 12.2562C14.3562 12.2562 14.3063 12.2875 14.3313 12.3062C14.3375 12.3125 14.35 12.3125 14.3562 12.3187C14.3875 12.325 14.4125 12.325 14.4438 12.3187C14.4813 12.3125 14.5125 12.3 14.55 12.2812C14.6625 12.2375 14.4625 12.2312 14.55 12.2125C14.6687 12.2 14.7937 12.2 14.9187 12.2125C15.0062 12.2125 15.0938 12.2125 15.1812 12.2H15.5L15.7312 12.1812H15.8813C16.0125 12.1937 16.1562 12.2125 16.25 12.225L16.3125 12.2312C16.4312 12.2312 16.5438 12.2375 16.6625 12.2625L16.8375 12.2187C16.9312 12.2062 17.0875 12.1812 17.2687 12.1625C17.3875 12.1562 17.5063 12.1375 17.625 12.1187L17.7938 12.0812L17.9562 12.0937C17.9562 12.0937 17.875 12.1375 17.9562 12.15C18.0375 12.1625 18.0375 12.1625 18.15 12.1187C18.2625 12.075 18.0625 12.0687 18.15 12.05H18.1812C18.2937 12.0437 18.4 12.0437 18.5125 12.05C18.6 12.0562 18.6875 12.05 18.775 12.0375H19.0938L19.325 12.0187H19.3438H19.3813C19.5 12.0125 19.6187 11.9937 19.7375 11.975L19.9062 11.9375L20.0688 11.95C20.0688 11.95 19.9875 11.9937 20.0688 12.0062C20.15 12.0187 20.15 12.0187 20.2625 11.975C20.375 11.9312 20.175 11.925 20.2625 11.9062C20.3875 11.8937 20.5063 11.8937 20.6313 11.9062C20.7188 11.9062 20.8062 11.9062 20.8937 11.8937H21.2125L21.4438 11.875H21.5938L22.025 11.925C22.1062 11.9312 22.3937 11.925 22.4062 11.975C22.4188 12.025 22.6 12.0312 22.7375 11.9937V12.0625H23.0375L23.3 12.0812L23.3312 12.0875V12.1562L23.5625 12.1937L23.6625 12.175C23.7688 12.2062 23.875 12.2437 23.9688 12.2812C24.0875 12.2687 24.025 12.2375 24.1375 12.1937C24.2375 12.15 24.325 12.0812 24.3937 11.9937C24.4812 12.0062 24.5688 12.0125 24.6562 12.0125L24.7062 12.025L24.7437 12.0375C24.7687 12.0187 24.8062 12.0125 24.8375 12.0187C24.925 12.0312 25.0062 12.0625 25.0812 12.1125C25.0812 12.1125 24.9188 12.1875 25.1562 12.2187C25.3 12.2312 25.45 12.2062 25.575 12.1437C25.7438 12.1312 25.9188 12.1625 26.075 12.225C26.2063 12.2875 26.35 12.3 26.4875 12.275C26.7 12.2875 26.8937 12.3125 27.0938 12.3375L27.2437 12.3187L27.225 12.3812L27.2313 12.3937L27.3062 12.4312L27.3937 12.4562L27.375 12.5187C27.425 12.4937 27.4812 12.5187 27.4625 12.5687C27.4438 12.6187 27.5 12.6312 27.5125 12.6437L27.5688 12.7187L27.5938 12.7375H27.6437C27.6687 12.7375 27.675 12.7625 27.7062 12.7625C27.7312 12.7687 27.7438 12.7625 27.7625 12.7812C27.7812 12.8 27.8062 12.825 27.8312 12.8187C27.8562 12.8125 27.8187 12.7875 27.8625 12.7625C27.9062 12.7375 27.9062 12.7375 27.9188 12.7625C27.9313 12.7875 27.8875 12.8125 27.8875 12.8125L27.9125 12.8437L27.9625 12.8375C27.9937 12.8375 28.025 12.8375 28.0562 12.85C28.0938 12.8625 28.1313 12.8687 28.1688 12.875L28.25 12.8687L28.4125 13.1437L28.4625 13.0937C28.5063 13.175 28.5562 13.2375 28.5938 13.3187L28.6063 13.35C28.6938 13.3687 28.7812 13.4125 28.8438 13.475C28.8438 13.475 28.7875 13.45 28.775 13.4812L28.8312 13.5125C28.8687 13.525 28.875 13.5312 28.8563 13.5437L28.8375 13.5562L28.875 13.5812C28.9 13.5812 28.9313 13.5875 28.95 13.5937L28.9937 13.6437L29.1 13.7375V13.7875C29.1 13.825 29.15 13.8 29.15 13.8V13.7375C29.1875 13.7937 29.225 13.8562 29.2563 13.9187L29.2188 13.975C29.2188 13.975 29.175 13.975 29.1812 13.9937C29.1875 14.0187 29.2125 14.0375 29.2375 14.0375L29.2563 14.0312L29.3 14.0187L29.3438 14.1687L29.3062 14.2125L29.2938 14.2625V14.3312C29.2812 14.35 29.2687 14.3687 29.25 14.3812L29.2563 14.4437L29.2812 14.475L29.275 14.4937L29.2687 14.525C29.2687 14.55 29.2937 14.55 29.3062 14.5437H29.3188L29.3312 14.4812C29.3312 14.4875 29.3438 14.4937 29.35 14.5V14.575L29.3312 14.8187L29.325 14.85H29.2812L29.2437 15.0625L29.2625 15.1562C29.225 15.2625 29.1938 15.3625 29.15 15.45L29.0812 15.4875C29.1562 15.6875 29.2188 15.8937 29.2625 16.1062C29.275 16.1937 29.3 16.3375 29.3125 16.5062L29.325 16.6187L29.3563 16.8375L29.3875 16.9937L29.375 17.1437C29.375 17.1437 29.3438 17.1 29.3312 17.1187C29.325 17.125 29.3188 17.1312 29.3188 17.1437C29.3125 17.1687 29.3125 17.1937 29.3188 17.225C29.325 17.2625 29.3375 17.2937 29.3563 17.3312C29.4 17.4375 29.4062 17.2562 29.425 17.3312C29.4375 17.4437 29.4375 17.5562 29.425 17.6687C29.4187 17.75 29.425 17.8312 29.4312 17.9125C29.4375 18.0312 29.4187 18.1062 29.4312 18.2125L29.4438 18.425L29.4375 18.5625C29.425 18.6875 29.4 18.8187 29.3875 18.9L29.3813 18.9625C29.3813 19.0687 29.3687 19.1812 29.3438 19.2812L29.3813 19.4437C29.3938 19.5312 29.4125 19.675 29.425 19.8437C29.4312 19.9562 29.4438 20.0625 29.4625 20.175L29.4937 20.3312L29.4813 20.4812C29.4813 20.4812 29.4375 20.4062 29.425 20.4812C29.4125 20.5562 29.4125 20.5562 29.4562 20.6625C29.5 20.7687 29.5063 20.5875 29.525 20.6625V20.6937C29.5312 20.7937 29.5312 20.9 29.5187 21C29.5125 21.0812 29.5125 21.1625 29.5187 21.2437C29.525 21.3625 29.5062 21.4375 29.5187 21.5437L29.5312 21.7562V21.775V21.8062C29.5375 21.9187 29.55 22.025 29.5625 22.1375L29.5938 22.3L29.5812 22.45C29.5812 22.45 29.5375 22.375 29.525 22.45C29.5125 22.525 29.5125 22.525 29.5562 22.6312C29.6 22.7375 29.6063 22.5562 29.625 22.6312C29.6375 22.7437 29.6313 22.8562 29.6187 22.9687C29.6125 23.05 29.6125 23.1312 29.625 23.2125C29.6313 23.3312 29.6125 23.4062 29.6187 23.5125L29.6313 23.7312L29.625 23.8687C29.6063 24.025 29.5688 24.2 29.5625 24.2687C29.5562 24.3375 29.55 24.6062 29.5 24.6187C29.4562 24.6312 29.4375 24.8 29.4688 24.925H29.4L29.3937 25.2L29.3687 25.4437L29.3625 25.475H29.2938L29.25 25.6875L29.2687 25.7812C29.2312 25.8812 29.1938 25.975 29.1562 26.0625C29.1688 26.1687 29.2 26.1125 29.2375 26.225C29.2812 26.3187 29.3438 26.4062 29.425 26.4687C29.4 26.6 29.3875 26.7375 29.3875 26.8687C29.3813 27.15 29.3875 26.9062 29.425 27.1875L28.8062 27.075Z" fill="#0041E6"/>
</svg>
