<svg width="32" height="32" viewBox="0 0 32 32" fill="none" xmlns="http://www.w3.org/2000/svg">
<g clip-path="url(#clip0_7664_50219)">
<path d="M31.6562 10.2125C31.5875 10.1063 31.5125 10.0063 31.425 9.90625L31.4875 9.86875L31.4813 9.84375L31.3813 9.65625L31.2437 9.46875L31.3 9.425C31.2 9.36875 31.125 9.25 31.1562 9.2125C31.1875 9.175 31.0438 9.00625 31 8.9625C30.9375 8.86875 30.875 8.78125 30.8 8.7L30.7188 8.625C30.6625 8.5875 30.625 8.56875 30.575 8.53125C30.5 8.4875 30.4625 8.4375 30.3875 8.39375C30.3313 8.3625 30.275 8.33125 30.225 8.29375C30.1562 8.23125 30.0812 8.1875 29.9937 8.15625C29.9312 8.14375 30.05 8.21875 29.9562 8.21875C29.8625 8.21875 29.8625 8.21875 29.8188 8.18125C29.775 8.14375 29.85 8.125 29.85 8.125L29.7563 8.0625L29.6313 8.0375C29.5438 8.01875 29.4562 7.99375 29.3687 7.9625C29.2563 7.93125 29.1375 7.90625 29.0187 7.89375C28.95 7.8875 28.875 7.8875 28.8062 7.89375C28.4688 7.76875 28.1188 7.7125 27.7625 7.7125L27.7687 7.79375C27.5062 7.8 27.2438 7.83125 26.9813 7.8875L26.9 7.9C26.7188 8.03125 26.525 8.15 26.3312 8.25625C26.3312 8.25625 26.4375 8.16875 26.3875 8.15625L26.2625 8.24375C26.2063 8.3 26.1875 8.3125 26.175 8.2875L26.1625 8.2625L26.0875 8.325C26.0625 8.36875 26.0312 8.40625 26 8.4375L25.8813 8.525L25.65 8.725C25.6187 8.73125 25.5875 8.7375 25.5562 8.75C25.4875 8.775 25.5187 8.83125 25.5187 8.83125L25.6437 8.7875L25.375 9C25.3125 8.93125 25.2625 8.86875 25.2 8.80625L24.975 8.53125L24.5187 8.05L24.4438 7.975C24.1812 7.7875 23.9562 7.55625 23.7687 7.2875C23.7687 7.2875 24.1812 7.525 23.6562 7.05625C23.35 6.78125 23.0125 6.54375 22.65 6.35C22.2437 6.05 21.85 5.725 21.4813 5.38125C21.175 5.08125 20.825 4.825 20.45 4.61875C19.9188 4.25625 19.375 3.9 18.8312 3.5625L18.4125 3.35625L18.45 3.29375L18.425 3.26875L18.2125 3.1125L17.9625 2.95L18 2.8875C17.8625 2.85 17.7125 2.74375 17.7313 2.69375C17.75 2.64375 17.5 2.49375 17.4375 2.45C17.375 2.40625 17.2375 2.275 17.0938 2.175L16.9688 2.09375L16.75 2C16.6437 1.95 16.5812 1.8875 16.4625 1.8375C16.3813 1.8 16.3 1.7625 16.2188 1.7125C16.1125 1.6375 16 1.58125 15.8813 1.53125C15.7938 1.50625 15.975 1.6125 15.8438 1.59375C15.7188 1.58125 15.7188 1.58125 15.65 1.53125C15.5812 1.48125 15.675 1.475 15.675 1.475L15.5312 1.3875L15.3625 1.34375C15.3625 1.34375 15.275 1.325 15 1.21875C14.8562 1.1625 14.7062 1.11875 14.5562 1.08125L14.2937 1.0375C13.9062 0.831253 13.5 0.656253 13.0875 0.512503L13.0688 0.587503C12.7125 0.462503 12.35 0.368753 11.9812 0.287503L11.8562 0.256253C11.6312 0.275003 11.4125 0.281253 11.1875 0.281253L10.7625 0.312503C10.7625 0.312503 10.9938 0.281253 10.925 0.243753H10.9125L10.6562 0.268753C10.525 0.287503 10.4812 0.293753 10.4812 0.268753V0.237503L10.3062 0.268753C10.2312 0.300003 10.15 0.325003 10.0688 0.343753C9.98125 0.356253 9.8875 0.362503 9.8 0.381253L9.25625 0.500003C9.2 0.493753 9.1375 0.493753 9.08125 0.500003C8.95625 0.506253 8.95 0.568753 8.95 0.568753L9.1875 0.556253C8.91875 0.618753 8.64375 0.681253 8.36875 0.762503L8.21875 0.743753C8.21875 0.743753 8.28125 0.681253 8.20625 0.700003C8.1125 0.712503 8.03125 0.750003 7.9625 0.812503L7.96875 0.837503L7.95 0.893753C7.75 0.962503 7.54375 1.01875 7.35625 1.1L7.24375 1.09375L7.075 1.125C6.9875 1.15625 6.89375 1.1875 6.80625 1.225C6.75625 1.2375 6.70625 1.2375 6.65 1.23125L6.4125 1.34375L6.28125 1.425L6.21875 1.44375L6.1125 1.4875C6.025 1.525 6.0125 1.56875 6.0125 1.5875V1.6L6.23125 1.50625C6 1.6625 5.90625 1.8125 5.66875 1.98125L5.56875 2L5.51875 2.00625C5.51875 2.00625 5.55625 1.925 5.49375 1.96875C5.4125 2.0125 5.34375 2.075 5.29375 2.15625L5.30625 2.175V2.2V2.2375C5.1625 2.35 5.06875 2.4875 4.93125 2.59375L4.8625 2.65625L4.75 2.8875L4.6 2.98125C4.58125 3.025 4.5625 3.06875 4.54375 3.1125L4.475 3.1L4.525 3.04375V3.0375L4.5 2.975L4.4625 2.9375L4.5125 2.88125C4.4625 2.89375 4.45 2.8625 4.48125 2.825C4.5125 2.7875 4.48125 2.75 4.46875 2.7375C4.4625 2.70625 4.45625 2.675 4.45 2.6375L4.4375 2.61875C4.425 2.6125 4.4125 2.60625 4.40625 2.60625C4.3875 2.6 4.3875 2.575 4.3625 2.5625C4.3375 2.55625 4.33125 2.55625 4.31875 2.5375C4.3125 2.51875 4.29375 2.48125 4.26875 2.49375C4.24375 2.5 4.26875 2.525 4.21875 2.55C4.16875 2.56875 4.16875 2.56875 4.16875 2.55C4.16875 2.53125 4.2125 2.50625 4.2125 2.50625L4.2 2.475H4.15C4.125 2.475 4.09375 2.46875 4.075 2.4625C4.04375 2.45 4.0125 2.45 3.98125 2.44375L3.90625 2.45625C3.8875 2.375 3.85625 2.3 3.825 2.225L3.775 2.28125L3.68125 2.10625V2.08125C3.60625 2.09375 3.53125 2.075 3.46875 2.0375C3.46875 2.0375 3.51875 2.0375 3.5375 2.00625L3.4875 1.99375C3.45625 1.99375 3.45 1.99375 3.46875 1.975L3.4875 1.95625L3.45625 1.95C3.43125 1.95625 3.4125 1.9625 3.3875 1.9625L3.34375 1.94375L3.24375 1.9125C3.24375 1.9 3.24375 1.88125 3.24375 1.86875C3.24375 1.84375 3.2 1.88125 3.2 1.88125V1.93125C3.15625 1.90625 3.11875 1.875 3.0875 1.84375L3.11875 1.78125C3.11875 1.78125 3.15625 1.7625 3.15 1.75C3.14375 1.7375 3.09375 1.74375 3.09375 1.74375V1.75625L3.05625 1.7875C3.03125 1.75625 3.0125 1.725 2.99375 1.69375L3.01875 1.64375V1.6L3.00625 1.55C3.0125 1.53125 3.025 1.50625 3.0375 1.49375L3 1.45L2.975 1.44375V1.425V1.40625C2.975 1.3875 2.95 1.40625 2.9375 1.4125L2.93125 1.41875V1.46875C2.89375 1.44375 2.80625 1.48125 2.775 1.45L2.8 1.40625L2.8125 1.3875C2.8125 1.3875 2.8625 1.36875 2.8625 1.35625C2.8625 1.34375 2.80625 1.35 2.80625 1.35L2.7875 1.3625L2.76875 1.375L2.74375 1.39375C2.725 1.36875 2.66875 1.3875 2.65625 1.35625L2.65 1.34375L2.55625 1.375V1.33125L2.4375 1.3625C2.44375 1.34375 2.45625 1.31875 2.46875 1.30625C2.4625 1.2875 2.375 1.3375 2.375 1.325L2.3625 1.29375C2.275 1.35 2.4 1.23125 2.325 1.29375C2.325 1.29375 2.3375 1.25625 2.19375 1.3125C2.1375 1.33125 2.08125 1.35625 2.03125 1.39375C2 1.40625 1.96875 1.425 1.94375 1.44375C1.86875 1.49375 1.81875 1.55625 1.83125 1.59375C1.84375 1.63125 1.725 1.70625 1.725 1.70625C1.725 1.70625 1.68125 1.75625 1.70625 1.7875C1.7375 1.81875 1.6125 1.85 1.55 1.8625C1.4875 1.875 1.375 2.00625 1.3375 2.03125C1.3 2.05625 1.06875 2.2 1.075 2.2625C1.075 2.3 1.1 2.3375 1.13125 2.35C1.13125 2.35 0.96875 2.4625 0.98125 2.54375L0.99375 2.625C1.01875 2.725 1.0625 2.81875 1.11875 2.90625L1.175 2.93125C1.2375 2.9625 1.09375 3.125 1.09375 3.125H1.15L1.16875 3.1625C1.16875 3.1625 1.11875 3.18125 1.125 3.20625C1.13125 3.23125 1.125 3.23125 1.18125 3.21875C1.2375 3.20625 1.20625 3.16875 1.2375 3.16875C1.26875 3.16875 1.2875 3.2125 1.3 3.23125C1.3125 3.25 1.325 3.25625 1.35 3.26875C1.375 3.2875 1.38125 3.3125 1.40625 3.325C1.425 3.33125 1.44375 3.34375 1.45625 3.35625L1.475 3.3875C1.4875 3.425 1.5 3.4625 1.50625 3.5C1.5125 3.51875 1.5625 3.56875 1.53125 3.60625C1.5 3.64375 1.51875 3.6875 1.56875 3.68125L1.5125 3.73125L1.5625 3.78125L1.59375 3.84375V3.86875L1.54375 3.91875L1.55625 3.9875H1.5875C1.58125 4.0375 1.56875 4.08125 1.55625 4.125L1.50625 4.1875C1.5875 4.16875 1.675 4.1625 1.7625 4.16875C1.8 4.175 1.8375 4.1875 1.875 4.20625L1.90625 4.21875C1.925 4.225 1.95 4.23125 1.96875 4.2375H2.025L2.04375 4.275C2.025 4.28125 2.0125 4.29375 2.00625 4.30625V4.31875C2.00625 4.33125 2.00625 4.3375 2.01875 4.3375C2.03125 4.3375 2.04375 4.3375 2.05625 4.33125C2.10625 4.31875 2.08125 4.28125 2.10625 4.28125C2.13125 4.28125 2.15625 4.325 2.16875 4.34375C2.18125 4.3625 2.19375 4.36875 2.225 4.38125C2.25625 4.39375 2.25625 4.425 2.28125 4.4375C2.3 4.44375 2.31875 4.45 2.33125 4.4625L2.35625 4.49375C2.36875 4.525 2.38125 4.55625 2.3875 4.59375V4.6125C2.39375 4.625 2.43125 4.6625 2.425 4.7H2.4875C2.525 4.70625 2.5625 4.71875 2.6 4.73125C2.63125 4.74375 2.6625 4.75625 2.69375 4.75625H2.75L2.76875 4.79375C2.76875 4.79375 2.71875 4.81875 2.725 4.8375C2.73125 4.85625 2.725 4.8625 2.78125 4.84375C2.8375 4.825 2.8 4.79375 2.83125 4.7875H2.8375C2.8625 4.79375 2.88125 4.825 2.89375 4.84375C2.90625 4.8625 2.91875 4.8625 2.95 4.88125C2.9625 4.8875 2.975 4.9 2.98125 4.9125C2.7375 5.1375 2.50625 5.375 2.29375 5.625L2.14375 5.88125C1.95 6.1875 1.725 6.1625 1.725 6.1625L1.64375 6.3875L1.51875 6.56875C1.51875 6.56875 1.53125 6.45625 1.4625 6.5375C1.40625 6.6125 1.375 6.7 1.36875 6.7875C1.3375 6.94375 1.46875 6.7125 1.4375 6.81875C1.40625 6.93125 1.275 7.13125 1.21875 7.2625C1.16875 7.36875 1.125 7.48125 1.0875 7.59375C1.03125 7.75 0.98125 7.85 0.9375 7.99375L0.85625 8.29375L0.8 8.48125C0.71875 8.7 0.625 8.9375 0.6 9.03125C0.56875 9.2 0.51875 9.36875 0.45 9.525C0.4 9.53125 0.35 9.78125 0.36875 9.975L0.29375 9.96875L0.26875 10.3813C0.25625 10.5 0.2375 10.625 0.2375 10.75L0.23125 10.7938H0.1625L0.125 11.1063L0.15 11.2438L0.06875 11.7L0 11.7625L0.34375 12.6563L0.54375 13.2188L0.6 13.3688L0.725 13.6625L0.8375 13.8688L0.89375 14.075C0.89375 14.075 0.84375 14.025 0.8375 14.0625C0.83125 14.075 0.83125 14.0875 0.8375 14.1C0.84375 14.1375 0.85625 14.175 0.875 14.2063C0.9 14.25 0.93125 14.2875 0.9625 14.325C1.0625 14.45 0.96875 14.2 1.03125 14.3C1.1 14.4438 1.1625 14.5875 1.2125 14.7375C1.25625 14.8438 1.30625 14.9438 1.3625 15.0438C1.4375 15.1813 1.46875 15.2875 1.5375 15.4125L1.6875 15.6688L1.76875 15.8313L1.94375 16.2563L1.975 16.3313C2.04375 16.4563 2.10625 16.5875 2.15625 16.7188L2.3125 16.875L2.63125 17.3C2.7125 17.4188 2.8 17.5313 2.89375 17.6438L3.03125 17.8L3.125 17.9688C3.125 17.9688 3.03125 17.9125 3.075 18C3.11875 18.0875 3.11875 18.0875 3.23125 18.1813C3.34375 18.275 3.225 18.0688 3.29375 18.1438L3.31875 18.175C3.39375 18.2875 3.46875 18.4 3.53125 18.5188C3.5875 18.6125 3.65 18.7 3.7125 18.7813C3.80625 18.9 3.8375 18.9938 3.925 19.1063L4.09375 19.325L4.10625 19.3438L4.13125 19.3813C4.21875 19.4938 4.30625 19.6063 4.40625 19.7063L4.55625 19.8563L4.65625 20.0188C4.65625 20.0188 4.5625 19.9688 4.60625 20.0563C4.65 20.1438 4.65 20.1438 4.76875 20.225C4.8875 20.3125 4.75 20.1125 4.83125 20.1813C4.925 20.2938 5.0125 20.4125 5.0875 20.5375C5.14375 20.625 5.2125 20.7063 5.28125 20.7875L5.5125 21.1L5.69375 21.3125L5.8 21.4563L6.06875 21.9063C6.125 21.9875 6.3375 22.2563 6.30625 22.3C6.275 22.3438 6.4 22.5313 6.5375 22.625L6.48125 22.6688L6.7125 22.95L6.9 23.2125L6.91875 23.25L6.8625 23.3L7.00625 23.5375L7.1 23.6188C7.15625 23.7438 7.20625 23.8625 7.25 23.975C7.35625 24.075 7.33125 23.9938 7.45625 24.0688C7.56875 24.125 7.69375 24.1625 7.81875 24.1625C7.9125 24.3125 8.025 24.45 8.14375 24.575C8.39375 24.8563 8.14375 24.575 8.475 24.8625C8.80625 25.15 8.79375 24.9875 9.01875 25.2938C9.05625 25.3375 9.0875 25.375 9.11875 25.4063L9.10625 25.4188L8.875 25.6375C8.8375 25.6813 8.71875 25.8563 8.675 25.8375C8.625 25.8188 8.5375 25.925 8.525 26.0375L8.4625 26L8.35 26.2L8.2375 26.375L8.21875 26.3938L8.15625 26.3625L8.04375 26.5188L8.03125 26.6063L7.81875 26.8188L7.7375 26.825L7.75625 27.4875V27.9188V28.0438C7.75625 28.125 7.76875 28.2125 7.7875 28.2875L7.8375 28.4625L7.84375 28.6313C7.84375 28.6313 7.80625 28.5875 7.7875 28.6125C7.78125 28.6188 7.78125 28.6313 7.78125 28.6438C7.78125 28.675 7.78125 28.7063 7.79375 28.7375C7.8125 28.775 7.83125 28.8125 7.85625 28.8438C7.93125 28.95 7.8875 28.7438 7.93125 28.825C7.96875 28.9375 8.00625 29.0563 8.03125 29.175C8.05625 29.2563 8.0875 29.3313 8.13125 29.4063C8.18125 29.5063 8.19375 29.575 8.24375 29.6563L8.35 29.8125L8.40625 29.9188L8.51875 30.2L8.54375 30.25C8.6 30.3313 8.65 30.4188 8.6875 30.5063L8.81875 30.5938L9.10625 30.8313C9.18125 30.9 9.2625 30.9625 9.35625 31.0125L9.49375 31.0813L9.59375 31.1813C9.59375 31.1813 9.50625 31.1813 9.55625 31.2313C9.60625 31.2813 9.60625 31.2875 9.71875 31.3063C9.83125 31.325 9.6875 31.2188 9.7625 31.2438L9.7875 31.2563C9.875 31.3063 9.95625 31.3563 10.0375 31.4188C10.1063 31.4625 10.1813 31.4938 10.2563 31.5188C10.35 31.5625 10.4438 31.6 10.5375 31.6313L10.7563 31.6813H10.775H10.8125C10.925 31.7063 11.0375 31.7125 11.1562 31.7C11.2125 31.6938 11.2688 31.6875 11.325 31.675L11.4812 31.6938C11.4812 31.6938 11.4 31.7438 11.4812 31.7563C11.5625 31.7688 11.5625 31.7688 11.6687 31.7125C11.775 31.6563 11.5813 31.6625 11.6625 31.6375C11.775 31.6188 11.8875 31.6 12.0063 31.5938C12.0875 31.5813 12.1625 31.5625 12.2375 31.5313C12.3313 31.5063 12.4188 31.475 12.5063 31.4438L12.6812 31.35L12.7937 31.3C12.925 31.25 13.0813 31.2 13.1375 31.175C13.1937 31.15 13.3812 31.0188 13.4187 31.05C13.4563 31.0813 13.5813 31.0125 13.6375 30.9125L13.6812 30.9688L13.8562 30.8188L14.0188 30.7063L14.0437 30.6938L14.0938 30.75L14.2437 30.6625L14.2812 30.5938C14.3625 30.5625 14.4438 30.5375 14.5188 30.5188C14.5688 30.4438 14.5188 30.4563 14.5375 30.3688C14.55 30.275 14.5312 30.1813 14.5 30.0938C14.575 30.0375 14.6438 29.9688 14.7063 29.8938C14.8375 29.7375 14.7063 29.8938 14.8188 29.675C14.9313 29.4563 14.8125 29.4438 14.9688 29.3188C15.0125 29.2813 15.05 29.2438 15.0813 29.2C15.1062 29.2063 15.1313 29.2063 15.1562 29.2L15.2688 29.1375C15.425 29.0438 15.575 28.9313 15.7188 28.8125L15.775 28.7188C15.8438 28.6125 16.0187 28.7375 16.0187 28.7375L16.05 28.6563L16.1063 28.6125C16.1063 28.6125 16.1125 28.675 16.15 28.6563C16.1812 28.6375 16.1812 28.6375 16.1875 28.5688C16.1938 28.5 16.125 28.5625 16.1375 28.5188C16.15 28.475 16.2188 28.425 16.25 28.3938C16.2812 28.3688 16.3125 28.3313 16.3312 28.2938C16.3625 28.2438 16.4062 28.2313 16.4312 28.1875C16.45 28.1563 16.4688 28.125 16.4937 28.1L16.5438 28.0563C16.6063 28.0125 16.6938 27.975 16.7188 27.9563C16.7437 27.9375 16.8375 27.8438 16.8813 27.8688C16.9188 27.9 16.9937 27.85 17.0063 27.775L17.0562 27.825L17.1437 27.725L17.2437 27.65H17.2625L17.3125 27.7L17.4125 27.65L17.4312 27.6C17.4937 27.5875 17.5562 27.5813 17.6187 27.5813L17.6875 27.6188C17.7 27.4938 17.7188 27.375 17.7625 27.2625C17.7875 27.2 17.825 27.1375 17.8625 27.0813L17.8937 27.0313C17.9125 27 17.9312 26.9688 17.9438 26.9313L17.975 26.85L18.0375 26.8063C18.0375 26.8063 18.0438 26.8438 18.0688 26.85H18.0875C18.1062 26.8438 18.1125 26.8375 18.1187 26.825C18.125 26.8063 18.125 26.7813 18.125 26.7625C18.125 26.6938 18.0562 26.7563 18.0688 26.7125C18.0813 26.6688 18.15 26.6188 18.1812 26.5938C18.2125 26.5688 18.2375 26.5375 18.2563 26.5C18.2875 26.45 18.3313 26.4375 18.3563 26.3938C18.375 26.3625 18.3938 26.3313 18.4188 26.3063L18.4688 26.2625C18.5187 26.2313 18.5688 26.2 18.6187 26.175L18.6437 26.1563C18.6687 26.1375 18.7375 26.0688 18.7812 26.0625L18.8062 25.975C18.8312 25.9125 18.8687 25.85 18.9062 25.7938C18.9375 25.75 18.9688 25.7 18.9875 25.6438L19.0125 25.5625L19.075 25.5188C19.075 25.5188 19.0875 25.5813 19.1187 25.5625C19.15 25.5438 19.15 25.5438 19.1562 25.475C19.1625 25.4063 19.0875 25.4688 19.1 25.425L19.1063 25.4125C19.1375 25.3688 19.175 25.3313 19.2125 25.3063C19.2437 25.2813 19.2625 25.2563 19.2812 25.2188C19.3563 25.325 19.4375 25.425 19.525 25.525L19.6875 25.6375C19.8 25.7125 19.8563 25.85 19.8125 25.9813L19.9625 26.0375L20.075 26.125C20.075 26.125 19.9875 26.125 20.0438 26.175C20.1 26.225 20.1 26.225 20.2125 26.2313C20.325 26.2438 20.175 26.1438 20.25 26.1688C20.35 26.2125 20.4438 26.2625 20.5375 26.3188C20.6063 26.3563 20.6812 26.3813 20.7563 26.4C20.8438 26.4375 20.9312 26.4688 21.025 26.5L21.225 26.5438L21.35 26.5813C21.4937 26.6375 21.6562 26.6938 21.7188 26.7125C21.7812 26.7313 22.05 26.75 22.0625 26.8063C22.075 26.8563 22.2375 26.8813 22.3625 26.8375V26.9125C22.45 26.9125 22.5438 26.9063 22.6313 26.9063C22.7188 26.9063 22.7937 26.9063 22.8687 26.9063H22.9L22.9062 26.9813L23.1187 26.9938L23.2062 26.9563L23.5125 27.0125L23.5625 27.0813L24.0875 26.7188L24.4188 26.525L24.5063 26.475C24.5625 26.4375 24.6187 26.4 24.675 26.3625L24.7875 26.2625L24.9125 26.2063C24.9125 26.2063 24.8938 26.25 24.9125 26.2625H24.9375C24.9625 26.2563 24.9813 26.2438 25.0063 26.2313C25.0312 26.2063 25.05 26.1813 25.0625 26.15C25.1187 26.0625 24.975 26.1438 25.025 26.0875C25.1062 26.025 25.1938 25.9688 25.2812 25.925C25.3438 25.8875 25.4 25.8438 25.4562 25.7875C25.5312 25.7188 25.6 25.6938 25.6688 25.625L25.8062 25.4875L25.9 25.4125L26.1562 25.2438L26.2 25.2125C26.2688 25.1438 26.35 25.0875 26.4312 25.0313L26.5063 24.8938L26.7 24.5688C26.7625 24.4813 26.8125 24.3813 26.85 24.2813L26.9 24.125L26.9875 24C26.9875 24 26.9938 24.0938 27.0438 24.0313C27.0938 23.9688 27.0938 23.9688 27.1 23.8438C27.1063 23.7188 27.0187 23.9 27.0312 23.8125L27.0375 23.7813C27.0688 23.6938 27.125 23.5625 27.1625 23.475C27.1938 23.3938 27.2188 23.3 27.225 23.2125C27.2437 23.0875 27.275 23.0125 27.2812 22.9063L27.2875 22.6875V22.6688V22.6313C27.2875 22.5313 27.2812 22.425 27.2563 22.325L27.2188 22.1875L27.225 22.0625C27.225 22.0625 27.275 22.125 27.2875 22.0625C27.2938 22 27.2937 22 27.2437 21.9125C27.1938 21.825 27.1938 21.9813 27.1688 21.9125C27.15 21.8188 27.1437 21.725 27.1437 21.6313C27.1375 21.5625 27.1312 21.4938 27.1125 21.4313C27.0875 21.3375 27.1 21.275 27.075 21.1875L27.025 21.025L27.0063 20.9125L26.9813 20.5688C26.975 20.5063 26.9125 20.2938 26.9562 20.275C27 20.25 26.975 20.1063 26.9 20.025L26.975 20.0063L26.8937 19.7875L26.8312 19.5875V19.5625L26.9062 19.5313L26.8687 19.35L26.8125 19.2875C26.8125 19.1938 26.8062 19.1 26.8125 19.0188C26.7563 18.9438 26.75 19 26.6625 18.9375C26.575 18.8875 26.4813 18.8625 26.3813 18.8625C26.3813 18.8625 26.3562 18.8 26.3062 18.7C26.3937 18.575 26.4875 18.4688 26.4875 18.4688C26.4875 18.4688 26.4312 18.575 26.475 18.575L26.55 18.4688C26.5812 18.4063 26.5938 18.3875 26.6125 18.4063L26.6313 18.425L26.6812 18.35C26.6875 18.3063 26.7063 18.2625 26.725 18.225L26.8125 18.1188L26.9813 17.8875C27.0125 17.875 27.0375 17.8625 27.0688 17.85C27.0938 17.8375 27.1063 17.8063 27.1 17.7813C27.1 17.775 27.0938 17.775 27.0938 17.7688L26.9813 17.8313C27.075 17.725 27.175 17.625 27.2812 17.5188H27.3813C27.3813 17.5188 27.3813 17.575 27.4125 17.55C27.45 17.525 27.475 17.4813 27.4875 17.4375L27.4688 17.4188L27.45 17.375L27.6938 17.1688H27.7687L27.8563 17.1313L27.975 17.05C28.0063 17.0438 28.0375 17.0438 28.0688 17.05L28.175 16.9688L28.2188 16.9063L28.25 16.8938L28.3 16.8688C28.325 16.8563 28.3375 16.8313 28.3312 16.8063C28.3312 16.8063 28.3313 16.8 28.325 16.8V16.7938L28.2125 16.8563C28.3062 16.75 28.3 16.625 28.4062 16.5313H28.475H28.5063C28.5063 16.5313 28.5063 16.5875 28.5375 16.5625C28.575 16.5375 28.6062 16.4938 28.6125 16.45L28.5938 16.4313L28.5875 16.4125L28.575 16.3875C28.6438 16.325 28.6687 16.2313 28.7375 16.175L28.775 16.1438L28.7938 15.9938L28.8813 15.9563L28.9062 15.7813C28.9375 15.775 28.9688 15.7688 29 15.775C29.05 15.7375 29.0187 15.6313 29.05 15.6125L29.125 15.5563C29.0812 15.4563 29.225 15.5563 29.1562 15.4875C29.1562 15.4875 29.2063 15.4688 29.225 15.3375C29.3062 15.2938 29.3813 15.25 29.4625 15.2L29.65 15.125L29.9625 14.9375L30.0187 14.9063C30.075 14.7625 30.475 14.6 30.475 14.6C30.475 14.6 30.3312 14.8563 30.65 14.575C30.85 14.3938 31.0063 14.175 31.1063 13.925C31.1063 13.925 31.425 13.4875 31.7313 13.0125C31.8688 12.7938 31.9625 12.55 32 12.2938C32.0187 12.175 32.025 12.05 32.0187 11.9313C32.0312 11.3 31.9188 10.725 31.6562 10.2125ZM10.1938 23.4563L9.81875 22.95L9.75625 22.8625C9.53125 22.6563 9.35 22.4063 9.2125 22.1313C9.2125 22.1313 9.5625 22.4125 9.15 21.8938C8.9125 21.5875 8.6375 21.3125 8.34375 21.0625C8.03125 20.7 7.74375 20.3125 7.5 19.9C7.3 19.5438 7.05625 19.2188 6.78125 18.9188C6.4125 18.4313 6.05625 17.9375 5.70625 17.4375L5.41875 17.0938L5.475 17.0625L5.4625 17.0313L5.35 16.8125L5.2 16.575L5.2625 16.5375C5.15625 16.45 5.08125 16.2938 5.11875 16.2625C5.15625 16.225 5.0125 16 4.98125 15.9313L4.81875 15.5563L4.75625 15.4438L4.63125 15.2688C4.56875 15.1813 4.55 15.1125 4.4875 15.0125C4.4375 14.95 4.4 14.8813 4.3625 14.8125C4.31875 14.7125 4.26875 14.6125 4.20625 14.525C4.15 14.4688 4.23125 14.625 4.14375 14.5563C4.05625 14.4875 4.05625 14.4875 4.03125 14.4188C4.00625 14.35 4.0875 14.3938 4.0875 14.3938L4.0375 14.2625L3.9375 14.15C3.875 14.0688 3.8125 13.9813 3.7625 13.8875L3.5625 13.5625L3.425 13.3938C3.3375 13.075 3.26875 12.75 3.20625 12.4125L3.13125 12.4313C3.08125 12.1688 3.04375 11.9 3.025 11.6313V11.5438C2.9625 11.4063 2.91875 11.2625 2.89375 11.1125C2.875 11.0125 2.8625 10.9188 2.85625 10.8188C2.85625 10.8188 2.89375 10.975 2.925 10.9313V10.925L2.89375 10.75C2.86875 10.6625 2.8625 10.6313 2.89375 10.6313H2.91875L2.90625 10.5125C2.88125 10.4563 2.8625 10.4 2.85 10.3438C2.84375 10.2813 2.84375 10.2188 2.85 10.1563V9.7625C2.86875 9.725 2.8875 9.6875 2.90625 9.65C2.9375 9.5625 2.8875 9.5375 2.8875 9.5375L2.81875 9.7C2.84375 9.49375 2.88125 9.29375 2.94375 9.1L3.0375 9.01875C3.0375 9.01875 3.0625 9.0875 3.08125 9.03125C3.10625 8.96875 3.1125 8.90625 3.10625 8.8375L3.0875 8.83125L3.05 8.79375C3.1 8.65 3.1625 8.50625 3.23125 8.36875L3.3125 8.3125L3.39375 8.2125C3.425 8.15 3.4625 8.09375 3.5 8.0375C3.53125 8.0125 3.5625 7.9875 3.6 7.975L3.69375 7.81875C3.70625 7.7875 3.71875 7.75 3.7375 7.71875L3.76875 7.6875L3.825 7.63125C3.86875 7.58125 3.85625 7.54375 3.84375 7.53125V7.525L3.73125 7.65C3.825 7.475 3.8 7.325 3.925 7.15625L3.99375 7.13125L4.03125 7.11875C4.03125 7.11875 4.03125 7.1875 4.06875 7.14375C4.1125 7.09375 4.1375 7.0375 4.15625 6.96875L4.1375 6.95625L4.13125 6.94375L4.11875 6.9125C4.20625 6.8125 4.23125 6.69375 4.325 6.59375L4.375 6.54375L4.425 6.35625L4.5375 6.2875C4.55625 6.2125 4.58125 6.1375 4.60625 6.05625C4.64375 6.0375 4.68125 6.03125 4.71875 6.03125C4.79375 5.975 4.78125 5.85 4.83125 5.8125L4.9375 5.7375C4.91875 5.625 5.05 5.7375 5.00625 5.65C5.00625 5.65 5.09375 5.6125 5.19375 5.36875C5.2375 5.2875 5.2625 5.2 5.275 5.10625C5.3 5.06875 5.325 5.0375 5.3625 5.0125C5.4125 4.9625 5.3625 5.025 5.44375 4.95625C5.475 4.94375 5.5 4.93125 5.51875 4.9125C5.5875 4.85 5.65625 4.78125 5.7375 4.71875C6.05 4.45 6.375 4.19375 6.7125 3.95625L6.8875 3.80625C6.99375 3.69375 7.1625 3.68125 7.2875 3.76875L7.41875 3.65625L7.5625 3.58125C7.5625 3.58125 7.51875 3.66875 7.59375 3.6375C7.66875 3.60625 7.66875 3.6125 7.75 3.525C7.83125 3.4375 7.65 3.51875 7.71875 3.45625C7.81875 3.3875 7.9375 3.33125 8.05625 3.29375C8.1375 3.2625 8.21875 3.225 8.3 3.18125C8.4125 3.11875 8.5 3.11875 8.60625 3.06875C8.675 3.03125 8.75 3 8.825 2.975L8.96875 2.9375C9.1125 2.9125 9.2625 2.89375 9.40625 2.8875C9.4875 2.875 9.76875 2.81875 9.7875 2.875C9.80625 2.93125 9.9875 2.91875 10.1187 2.85625L10.125 2.93125L10.4125 2.9125C10.5 2.9125 10.5813 2.91875 10.6687 2.925L10.7 2.93125V3.00625L10.9187 3.05L11.0125 3.03125C11.1062 3.075 11.2063 3.125 11.2937 3.18125L11.3188 3.25625C11.5312 3.19375 11.7563 3.16875 11.975 3.16875C12.1188 3.175 12.2625 3.19375 12.4062 3.21875L12.5188 3.2375L12.7563 3.28125L12.9375 3.3125L13.0875 3.38125C13.0875 3.38125 13.0312 3.39375 13.0437 3.41875C13.05 3.425 13.0562 3.43125 13.0625 3.4375C13.0875 3.45625 13.1125 3.46875 13.1438 3.475C13.1813 3.48125 13.225 3.48125 13.2625 3.475C13.3938 3.475 13.2 3.39375 13.2875 3.40625C13.4125 3.44375 13.5312 3.49375 13.6438 3.55625C13.725 3.6 13.8188 3.6375 13.9062 3.6625C14.0312 3.7125 14.1062 3.76875 14.2188 3.8125L14.4563 3.9125L14.6 3.99375C14.725 4.06875 14.85 4.16875 14.9375 4.23125L14.9937 4.275C15.1062 4.34375 15.2125 4.41875 15.3125 4.50625L15.5188 4.55C15.6188 4.5875 15.7875 4.6625 15.975 4.75625C16.0938 4.825 16.2188 4.88125 16.3438 4.93125L16.5312 5.00625L16.6812 5.11875C16.6812 5.11875 16.575 5.1125 16.65 5.16875C16.7188 5.225 16.725 5.23125 16.8563 5.2625C16.9875 5.29375 16.8 5.1625 16.8937 5.2L16.925 5.21875C17.0375 5.28125 17.1437 5.35 17.2437 5.43125C17.325 5.4875 17.4125 5.54375 17.5063 5.5875C17.6313 5.6625 17.7 5.725 17.8125 5.79375L18.0438 5.93125L18.0625 5.94375L18.1 5.9625C18.375 6.11875 18.4625 6.15625 18.4625 6.15625L18.6437 6.2375L18.7875 6.35C18.7875 6.35 18.6812 6.3375 18.75 6.4C18.8188 6.4625 18.8187 6.4625 18.9562 6.5C19.0938 6.5375 18.9062 6.4 19 6.44375C19.1187 6.5125 19.2375 6.6 19.3438 6.69375C19.425 6.75625 19.5063 6.8125 19.5938 6.8625L19.8937 7.08125L20.125 7.23125L20.2563 7.3375L20.6187 7.6875C20.6875 7.75 20.95 7.95625 20.925 8C20.9062 8.04375 21.0625 8.19375 21.2062 8.25625L21.1625 8.3125L21.4312 8.53125L21.65 8.7375L21.675 8.76875L21.625 8.83125L21.8 9.03125L21.9 9.0875C21.975 9.19375 22.0375 9.3 22.0938 9.4C22.2062 9.475 22.1687 9.40625 22.3 9.45625C22.4187 9.49375 22.5375 9.50625 22.6625 9.4875C22.7688 9.6125 22.8875 9.73125 23.0187 9.8375C23.2875 10.0813 23.0187 9.8375 23.3625 10.075C23.65 10.275 23.6875 10.2188 23.825 10.35C23.8125 10.375 23.8 10.4 23.7812 10.4188L23.75 10.45V10.4938C23.6688 10.5438 23.5875 10.5938 23.5 10.6438L23.3625 10.6938L23.1313 10.8375L23.0938 10.8563C23.075 10.9875 22.775 11.0625 22.775 11.0625C22.775 11.0625 22.85 10.8688 22.6375 11.05C22.5125 11.1563 22.4125 11.3 22.3563 11.4563C22.2313 11.6125 22.075 11.7375 21.9 11.8375C21.7437 11.9125 21.6187 12.0375 21.5375 12.1875L21.025 12.75L20.9312 12.9125L20.8813 12.8625H20.8625L20.775 12.9188L20.6938 13L20.6437 12.9438C20.6375 13.0125 20.5688 13.05 20.5312 13.0188C20.4875 12.9875 20.4188 13.0625 20.3875 13.0813C20.3313 13.1063 20.275 13.1313 20.225 13.1563L20.1812 13.1938C20.1625 13.2188 20.1438 13.2438 20.1313 13.2688C20.1063 13.3063 20.0688 13.3125 20.0438 13.3563C20.025 13.3875 20.0063 13.4125 19.975 13.4375C19.9438 13.4625 19.8813 13.5 19.875 13.5375C19.8625 13.575 19.925 13.525 19.925 13.5875C19.925 13.65 19.925 13.65 19.8937 13.6625C19.8625 13.675 19.85 13.6188 19.85 13.6188L19.7938 13.65L19.775 13.725C19.7563 13.7688 19.7312 13.8125 19.7062 13.85C19.675 13.9 19.6437 13.95 19.625 14.0063L19.6 14.1188C19.4688 14.1938 19.3312 14.275 19.1875 14.3688L19.2437 14.425L18.9188 14.6563L18.8813 14.675C18.8438 14.8 18.7812 14.9188 18.7 15.0188C18.7 15.0188 18.7313 14.9375 18.6938 14.9313L18.65 15.0125C18.6375 15.0563 18.625 15.075 18.6063 15.0563L18.5875 15.0375L18.5625 15.125C18.5625 15.1563 18.5563 15.1938 18.5438 15.225L18.4875 15.3L18.3813 15.4625C18.3563 15.4688 18.3375 15.475 18.3188 15.4813C18.275 15.5 18.3188 15.5438 18.3188 15.5438L18.4 15.5125C18.3375 15.5875 18.275 15.6625 18.2 15.7313L18.1187 15.7188C18.1187 15.7188 18.1062 15.6688 18.0875 15.6875C18.0562 15.7063 18.0438 15.7438 18.0438 15.775L18.0625 15.7938L18.0875 15.8375L17.9188 15.975L17.8563 15.9625L17.7875 15.9813L17.7 16.0313C17.675 16.0313 17.6437 16.0313 17.6187 16.025L17.5438 16.075L17.5125 16.1188H17.4875L17.45 16.1313C17.4188 16.1438 17.4312 16.175 17.4438 16.1875V16.1938L17.525 16.1563C17.4625 16.2313 17.4875 16.3313 17.4125 16.4L17.3563 16.3938H17.3312C17.3312 16.3938 17.3187 16.3438 17.3 16.3625C17.2687 16.3813 17.2563 16.4125 17.2563 16.45L17.275 16.4688L17.2875 16.4875L17.3 16.5125C17.25 16.5563 17.25 16.625 17.2 16.6688L17.175 16.6875L17.1812 16.8125L17.1125 16.8313L17.125 16.975C17.1 16.975 17.0688 16.975 17.0438 16.9688C17.0063 16.9938 17.05 17.0813 17.025 17.1L16.975 17.1313C17.0312 17.225 16.8875 17.1125 16.9562 17.1875C16.9562 17.1875 16.925 17.2125 16.9312 17.325C16.8188 17.4 16.7 17.4875 16.5875 17.5813L16.5312 17.675C16.4562 17.7875 16.2812 17.6563 16.2812 17.6563L16.25 17.7438L16.1875 17.7875C16.1875 17.7875 16.1812 17.725 16.1437 17.7438C16.1125 17.7625 16.1063 17.7625 16.1 17.8375C16.0938 17.9125 16.1687 17.8438 16.15 17.8875C16.1375 17.9313 16.0688 17.9813 16.0312 18.0125C16 18.0375 15.9688 18.075 15.95 18.1125C15.9125 18.1625 15.875 18.175 15.8438 18.225C15.825 18.2563 15.8 18.2875 15.7812 18.3188L15.7312 18.3625C15.6625 18.4125 15.575 18.45 15.55 18.4688C15.5188 18.4875 15.425 18.5875 15.3875 18.5563C15.35 18.525 15.275 18.575 15.2625 18.65L15.2125 18.6L15.1125 18.7L15.0125 18.775H14.9937L14.9438 18.725L14.8375 18.775L14.8188 18.825C14.7563 18.8375 14.6938 18.8438 14.625 18.85L14.5562 18.8063C14.5437 18.9313 14.5188 19.0563 14.475 19.175C14.4438 19.2375 14.4125 19.3 14.3687 19.3625L14.3375 19.4125C14.3187 19.4438 14.3 19.4813 14.2812 19.5125L14.25 19.6L14.1875 19.6438C14.1875 19.6438 14.1813 19.6063 14.1625 19.6C14.1562 19.6 14.15 19.6 14.1438 19.6C14.125 19.6063 14.1188 19.6125 14.1125 19.625C14.1062 19.6438 14.1062 19.6688 14.1062 19.6875C14.1062 19.7625 14.175 19.6938 14.1562 19.7375C14.1438 19.7813 14.075 19.8313 14.0375 19.8625C14.0063 19.8875 13.9812 19.925 13.9563 19.9625C13.9187 20.0125 13.8813 20.025 13.85 20.075C13.8313 20.1063 13.8063 20.1375 13.7875 20.1688L13.7375 20.2125C13.6875 20.2438 13.6375 20.275 13.5813 20.3063L13.55 20.325C13.525 20.3438 13.4563 20.4125 13.4125 20.4188L13.3875 20.5125C13.3562 20.575 13.325 20.6375 13.2875 20.7C13.25 20.75 13.225 20.8 13.2 20.85L13.1687 20.9375L13.1062 20.9813C13.1062 20.9813 13.1 20.9188 13.0625 20.9375C13.025 20.9563 13.025 20.9563 13.025 21.025C13.0187 21.0938 13.0938 21.0313 13.0813 21.075L13.075 21.0875C13.0437 21.1313 13.0062 21.1688 12.9625 21.2C12.9312 21.225 12.9062 21.2625 12.8813 21.3C12.85 21.35 12.8062 21.3625 12.775 21.4125C12.7562 21.4438 12.7375 21.475 12.7125 21.5063L12.7063 21.5125L12.6938 21.5313C12.6562 21.575 12.6312 21.6313 12.6062 21.6813L12.575 21.7625L12.5125 21.8063C12.5125 21.8063 12.5063 21.7438 12.4688 21.7625C12.4312 21.7813 12.4312 21.7813 12.4312 21.85C12.425 21.9188 12.5 21.8563 12.4875 21.9C12.475 21.9438 12.4062 21.9938 12.3687 22.025C12.3375 22.05 12.3125 22.0875 12.2875 22.125C12.25 22.175 12.2125 22.1875 12.1812 22.2313C12.1625 22.2625 12.1375 22.2938 12.1187 22.325L12.0688 22.3688C12 22.4188 11.9125 22.4563 11.8813 22.475C11.85 22.4938 11.7562 22.5938 11.7125 22.5625C11.6687 22.5313 11.6 22.5813 11.5875 22.6625L11.5312 22.6125L11.4312 22.7125L11.3313 22.7875H11.3125L11.2563 22.7375L11.15 22.7875L11.1313 22.8375C11.0688 22.85 11.0063 22.8563 10.9438 22.8625C10.9188 22.9125 10.9625 22.9125 10.9563 22.9875C10.9625 23.0688 10.9875 23.1438 11.025 23.2188C10.9625 23.25 10.9062 23.2938 10.8625 23.3438C10.7563 23.45 10.8625 23.3438 10.7812 23.5063C10.7 23.6688 10.8062 23.6938 10.6687 23.775C10.6062 23.8063 10.5562 23.8625 10.5312 23.925L10.3875 23.7375L10.1938 23.4563ZM24.825 22.7H24.8125L24.7687 22.7438L24.7375 22.8063L24.675 22.7688C24.7 22.8188 24.6562 22.8563 24.6125 22.825C24.5687 22.8 24.525 22.8625 24.5063 22.8813C24.4875 22.9 24.425 22.9188 24.375 22.9563L24.3375 22.9938C24.3188 23.0188 24.3063 23.0438 24.2938 23.0688C24.275 23.1063 24.2375 23.1125 24.2062 23.1563C24.1812 23.1938 24.175 23.2125 24.1437 23.2313C24.1125 23.25 24.05 23.2875 24.0438 23.325C24.0375 23.3625 24.0938 23.3125 24.0938 23.3813C24.0938 23.4438 24.0938 23.4438 24.0562 23.4563C24.0187 23.4688 24.0187 23.4125 24.0187 23.4125L23.9625 23.4438L23.9375 23.5125C23.9125 23.5563 23.8875 23.5938 23.8563 23.625C23.8188 23.6688 23.7812 23.7125 23.75 23.7625L23.7062 23.8625C23.5562 23.9063 23.4062 23.9438 23.2563 23.975L23.2875 24.05C23.1688 24.0813 23.05 24.1 22.925 24.1125H22.8813C22.8 24.1938 22.7 24.2563 22.5875 24.2875C22.5875 24.2875 22.65 24.2438 22.625 24.2125L22.55 24.25C22.5125 24.275 22.5 24.2813 22.5 24.2563V24.2313L22.45 24.2563C22.4313 24.2813 22.4062 24.3063 22.3813 24.3188L22.3 24.3375C22.2437 24.35 22.1875 24.3688 22.1375 24.375C22.125 24.3625 22.1125 24.35 22.0938 24.3438C22.0625 24.325 22.05 24.3813 22.05 24.3813L22.1125 24.4188C22.025 24.425 21.9437 24.4125 21.8625 24.3938L21.8375 24.3188C21.8375 24.3188 21.8687 24.2813 21.85 24.275C21.825 24.2625 21.7937 24.2688 21.7687 24.2875L21.7625 24.3063L21.7375 24.35C21.675 24.3313 21.6187 24.3 21.5625 24.2688L21.5562 24.2125L21.525 24.1563L21.4625 24.1C21.4562 24.075 21.45 24.05 21.4562 24.025L21.4 23.9813L21.3563 23.9688L21.35 23.95L21.3375 23.9188C21.325 23.8938 21.3 23.9188 21.2875 23.925L21.2812 23.9313L21.3188 23.9938C21.25 23.9625 21.1625 24.0063 21.0875 23.95L21.0938 23.9V23.875C21.0938 23.875 21.1375 23.8563 21.125 23.8375C21.1063 23.8125 21.075 23.8063 21.05 23.8125L21.0312 23.8313L21.0125 23.8438L20.9875 23.8625C20.9562 23.8375 20.9188 23.8188 20.8813 23.8C20.9125 23.7563 20.9375 23.7188 20.9562 23.6875C21.0062 23.675 21.0563 23.6688 21.1063 23.6688C21.1313 23.6188 21.0875 23.6188 21.0938 23.55C21.0938 23.5375 21.0875 23.525 21.0875 23.5188C21.2625 23.3313 21.4625 23.1688 21.6812 23.0313C21.8937 22.9 22.075 22.725 22.2188 22.525L22.9937 21.725L23.15 21.4938L23.2 21.55L23.2188 21.5438L23.3438 21.4563L23.4688 21.3438L23.5187 21.4C23.5437 21.3125 23.6312 21.2563 23.675 21.2875C23.7125 21.3188 23.8312 21.2063 23.8687 21.1813C23.9062 21.1563 24.0063 21.1125 24.0875 21.05L24.15 20.9938C24.1812 20.9625 24.2062 20.925 24.2375 20.8875C24.2812 20.8375 24.325 20.8188 24.3687 20.7625C24.3937 20.7188 24.4312 20.6813 24.4688 20.65L24.4875 20.6375C24.5312 20.7063 24.5875 20.7688 24.6375 20.8313C24.725 21.0313 24.7688 21.25 24.7625 21.4625C24.7438 21.6438 24.7687 21.825 24.8375 21.9938C24.875 22.2063 24.8813 22.4188 24.8687 22.6313L24.8937 22.7313L24.825 22.7ZM29.6812 11.725C29.6625 11.7563 29.675 11.7688 29.6688 11.8125C29.6625 11.8563 29.6438 11.875 29.6313 11.9188C29.6313 11.95 29.625 11.9813 29.6125 12.0063L29.5812 12.0563C29.5375 12.1 29.4937 12.1438 29.4438 12.1813C29.425 12.2063 29.35 12.3125 29.3062 12.2875C29.2625 12.2625 29.2 12.3188 29.1938 12.3938L29.1375 12.35L29.05 12.4563L28.95 12.5375L28.9312 12.5438L28.875 12.4875L28.7687 12.5375L28.75 12.5875C28.6875 12.6 28.625 12.6063 28.5562 12.6125C28.525 12.6688 28.5688 12.6688 28.5562 12.7438C28.55 12.8313 28.5625 12.9125 28.5938 12.9938C28.5125 13.025 28.4438 13.075 28.3813 13.1313C28.2375 13.2438 28.3813 13.1313 28.2563 13.3063C28.1313 13.4813 28.2375 13.5125 28.0688 13.6C27.9813 13.6375 27.9062 13.7 27.8625 13.7875C27.8562 13.8375 27.8438 13.8875 27.8312 13.9375C27.8125 13.9813 27.8 14.025 27.8 14.075C27.8 14.1063 27.8 14.1375 27.8125 14.1688C27.8 14.1688 27.7938 14.175 27.7812 14.175L27.6125 14.275C27.3812 14.4313 27.1562 14.5938 26.9438 14.775L26.85 14.9C26.7313 15.05 26.5375 14.9313 26.5375 14.9313L26.4813 15.0375L26.3937 15.1063C26.3937 15.1063 26.3938 15.0313 26.35 15.0625C26.3062 15.0938 26.3 15.0938 26.275 15.175C26.25 15.2563 26.3563 15.175 26.325 15.225C26.275 15.2938 26.2125 15.35 26.1437 15.4C26.1 15.4375 26.0562 15.4813 26.0187 15.5313C25.9625 15.6 25.9062 15.625 25.8563 15.6813C25.825 15.725 25.7875 15.7688 25.75 15.8063L25.675 15.875C25.5812 15.95 25.4563 16.0125 25.4188 16.0375C25.3813 16.0625 25.2313 16.2063 25.1875 16.175C25.15 16.1438 25.0438 16.2188 25.0063 16.3188L24.9562 16.2688L24.8062 16.4125L24.6562 16.525L24.6375 16.5375L24.5875 16.4875L24.4438 16.5688L24.4125 16.6313C24.3313 16.6563 24.25 16.6813 24.1688 16.6938L24.0875 16.6563C24.0375 16.8125 23.975 16.9688 23.8937 17.1125C23.8375 17.2 23.7812 17.2813 23.7188 17.3563L23.6688 17.4188C23.6313 17.4625 23.6 17.5063 23.575 17.5563L23.5125 17.6625L23.425 17.7313C23.425 17.7313 23.425 17.6875 23.4062 17.6813C23.4 17.6813 23.3938 17.6813 23.3875 17.6813C23.3688 17.6875 23.3563 17.7 23.3438 17.7188C23.3312 17.7438 23.325 17.7688 23.3188 17.8C23.2938 17.8875 23.4 17.8 23.3687 17.8563C23.3188 17.925 23.2563 17.9813 23.1875 18.0313C23.1437 18.0688 23.1 18.1125 23.0625 18.1625C23.0063 18.2313 22.95 18.2563 22.9 18.3125C22.8562 18.375 22.8438 18.3938 22.7938 18.4375L22.7188 18.5063C22.6437 18.5625 22.5562 18.6125 22.5 18.6438L22.4625 18.6688C22.4 18.725 22.3375 18.7688 22.2625 18.8063L22.2062 18.9188C22.15 19.0063 22.0938 19.0875 22.0312 19.1625C21.975 19.225 21.925 19.2938 21.8813 19.3625L21.825 19.4688L21.7375 19.5375C21.7375 19.5375 21.7437 19.4625 21.6938 19.4938C21.6438 19.525 21.6437 19.525 21.6187 19.6063C21.5938 19.6938 21.7 19.6063 21.6688 19.6625L21.6562 19.6813C21.6063 19.7375 21.55 19.7938 21.4875 19.8375C21.4375 19.875 21.4 19.9188 21.3625 19.9688C21.3062 20.0375 21.25 20.0563 21.2 20.1188C21.1562 20.1813 21.1375 20.2 21.0938 20.2438L21.0812 20.2563L21.0625 20.275C21.0063 20.3375 20.9563 20.4063 20.9125 20.475L20.85 20.5813L20.7625 20.65C20.7625 20.65 20.7625 20.575 20.7188 20.6063C20.675 20.6375 20.6687 20.6375 20.6437 20.7188C20.6187 20.8 20.725 20.7188 20.6938 20.775C20.6438 20.8438 20.5813 20.9 20.5125 20.95C20.4688 20.9875 20.425 21.0313 20.3875 21.0813C20.3313 21.15 20.2812 21.175 20.225 21.2313L20.2062 21.2563C20.1375 21.225 20.1625 21.3313 20.1 21.2563C19.9937 21.3188 19.8875 21.3875 19.775 21.4688L19.6437 21.525L19.4312 21.6688L19.3937 21.6875C19.3937 21.8125 19.0938 21.9 19.0938 21.9C19.0938 21.9 19.15 21.7188 18.9562 21.8938C18.875 21.9688 18.8063 22.0625 18.7625 22.1625C18.7 22.1813 18.6313 22.2 18.5688 22.2125C18.5188 22.2813 18.5688 22.275 18.5438 22.3625C18.5375 22.4 18.5375 22.4375 18.5438 22.475C18.4688 22.55 18.3875 22.6063 18.3 22.6563C18.1562 22.7313 18.0438 22.85 17.975 23L17.5187 23.55L17.4312 23.7313L17.375 23.6813H17.3625L17.2812 23.7375L17.2062 23.8188L17.15 23.7688C17.15 23.8375 17.0875 23.875 17.05 23.8438C17.0125 23.8125 16.9375 23.8875 16.9125 23.9063C16.8875 23.925 16.8125 23.9438 16.7625 23.9813L16.725 24.0188C16.7063 24.0438 16.6938 24.0688 16.6812 24.0938C16.6625 24.1313 16.625 24.1375 16.6 24.1813C16.575 24.225 16.5688 24.2375 16.5438 24.2563C16.5125 24.2813 16.4563 24.3188 16.45 24.3563C16.4438 24.3938 16.5 24.3438 16.5 24.4063C16.5063 24.4688 16.5063 24.4688 16.475 24.4813C16.4438 24.4938 16.4312 24.4375 16.4312 24.4375L16.3813 24.4688L16.3625 24.5375C16.35 24.5813 16.3312 24.625 16.3062 24.6625C16.275 24.7125 16.2562 24.7625 16.2375 24.8188L16.2188 24.925C16.0938 25 15.9688 25.0813 15.8375 25.1688L15.8938 25.225L15.5938 25.4438L15.5562 25.4625C15.525 25.5813 15.475 25.7 15.4 25.8C15.4 25.8 15.425 25.7188 15.3875 25.7125L15.35 25.7938C15.3375 25.8375 15.3313 25.85 15.3125 25.8375L15.2937 25.8188L15.2688 25.875C15.2688 25.9063 15.2688 25.9438 15.2563 25.975L15.2063 26.05L15.1125 26.2125C15.0938 26.2188 15.0687 26.225 15.0562 26.2313C15.0125 26.25 15.0562 26.2938 15.0562 26.2938L15.1313 26.2625C15.075 26.3375 15.0188 26.4063 14.9563 26.475L14.875 26.4625C14.875 26.4625 14.8625 26.4125 14.8438 26.4313C14.8188 26.45 14.8 26.4875 14.8062 26.5188L14.825 26.5375L14.85 26.5813L14.6938 26.7188L14.6313 26.7063L14.5688 26.725L14.4875 26.775C14.4625 26.775 14.4375 26.775 14.4125 26.7688L14.3438 26.8188L14.3188 26.8625H14.2937L14.2563 26.875C14.225 26.8875 14.2375 26.9188 14.25 26.9313V26.9375L14.325 26.9063C14.2688 26.9813 14.3 27.0813 14.2312 27.15L14.1812 27.1438H14.1562C14.1562 27.1438 14.1438 27.0938 14.125 27.1125C14.1 27.1313 14.0812 27.1688 14.0875 27.2L14.1062 27.2188L14.1187 27.2375L14.1375 27.2625C14.0938 27.3063 14.0938 27.375 14.05 27.4125L14.025 27.4313L14.0375 27.5563L13.975 27.575L13.9875 27.7188C13.9625 27.7188 13.9375 27.7188 13.9187 27.7125C13.9062 27.7125 13.9125 27.7375 13.9125 27.75C13.8813 27.7625 13.85 27.775 13.8125 27.7813C13.7375 27.7563 13.7563 27.8813 13.6875 27.8125C13.5625 27.9125 13.4375 28.0125 13.3125 28.1313L13.1625 28.225L12.9187 28.4313L12.875 28.4625C12.8562 28.625 12.5312 28.7375 12.5312 28.7375C12.5312 28.7375 12.6062 28.5375 12.3875 28.7313C12.2625 28.8375 12.1687 28.9688 12.1125 29.1125C12.1125 29.1125 11.9 29.3313 11.7188 29.3063C11.5375 29.2813 11.525 29.3563 11.5188 29.3625C11.4313 29.3938 11.3438 29.3938 11.2563 29.3625C11.2188 29.3625 11.1813 29.3625 11.1438 29.3625L11.1812 29.3V29.2875L11.1438 29.2375L11.0875 29.1938L11.1313 29.1375C11.0813 29.15 11.05 29.1063 11.0875 29.0688C11.1187 29.025 11.0687 28.9813 11.0562 28.9625C11.05 28.9375 11.0375 28.8875 11.0188 28.8375L11 28.8063C10.9812 28.7938 10.9688 28.775 10.9438 28.7688C10.9125 28.75 10.9187 28.7188 10.8875 28.6938C10.8562 28.6688 10.8438 28.6625 10.8375 28.6375C10.825 28.6063 10.8125 28.5563 10.7812 28.55C10.75 28.5438 10.7812 28.5938 10.7188 28.5875C10.6562 28.5813 10.6625 28.5875 10.6562 28.55C10.6562 28.5125 10.7125 28.5188 10.7125 28.5188L10.7 28.4688L10.6438 28.4438C10.6125 28.425 10.5875 28.4063 10.5688 28.3813C10.5438 28.3563 10.5188 28.3375 10.4875 28.325L10.4187 28.3063L10.5188 28.15L10.4375 28.1438C10.4625 28.0875 10.5 28.0188 10.5437 27.9375L10.5625 27.9125C10.5 27.825 10.5625 27.6 10.5625 27.6C10.5625 27.6 10.5625 27.675 10.6062 27.675L10.6125 27.5938C10.6125 27.55 10.6125 27.5313 10.6375 27.5438L10.6625 27.5563L10.6687 27.5C10.6562 27.4688 10.65 27.4375 10.65 27.4L10.6812 27.3125C10.7 27.25 10.7188 27.1875 10.7437 27.125C10.7625 27.1188 10.7812 27.1063 10.8 27.0938C10.8375 27.0688 10.7937 27.025 10.7937 27.025L10.7188 27.075C10.7625 26.9813 10.8188 26.8938 10.8813 26.8125H10.9688C10.9688 26.8125 10.9875 26.8625 11.0063 26.8438C11.0312 26.8188 11.0438 26.7813 11.0375 26.7438L11.0188 26.7313L10.9875 26.6938C11.0375 26.6313 11.1 26.575 11.1562 26.5188H11.2188L11.2875 26.4938L11.375 26.4313C11.4 26.425 11.4313 26.425 11.4563 26.4313L11.5375 26.3688L11.5688 26.3188L11.5938 26.3125L11.6375 26.2938C11.6562 26.2813 11.6687 26.2625 11.6562 26.2375L11.65 26.2313L11.6438 26.225L11.5562 26.2688C11.625 26.1813 11.6063 26.075 11.6938 25.9938H11.75H11.7812C11.7812 25.9938 11.7875 26.05 11.8125 26.025C11.8438 26.0063 11.8687 25.9688 11.8687 25.925L11.85 25.9063L11.8438 25.8875L11.8313 25.8625C11.8875 25.8125 11.9 25.7313 11.9625 25.6875L11.9937 25.6625L12.0063 25.525L12.0813 25.5L12.0938 25.3375C12.125 25.3313 12.15 25.3313 12.1812 25.3375C12.225 25.3063 12.2 25.2063 12.225 25.1875L12.2875 25.1438C12.2812 25.1313 12.2812 25.1188 12.2875 25.1125L12.3062 25.1063C12.325 25.1063 12.3375 25.1125 12.3313 25.0938L12.3625 25.0813L12.5813 24.9375L12.6187 24.9125C12.625 24.7813 12.925 24.6938 12.925 24.6938C12.925 24.6938 12.8625 24.8813 13.0625 24.7C13.1812 24.5938 13.275 24.45 13.3188 24.2938C13.4438 24.1375 13.5938 24.0063 13.7625 23.9063C13.9125 23.825 14.0312 23.7 14.1062 23.55L14.5938 22.9813L14.6812 22.8125L14.7312 22.8625H14.7437L14.8313 22.8063L14.9125 22.725L14.9625 22.775C14.9688 22.7063 15.0312 22.6688 15.0688 22.7C15.1063 22.7313 15.1812 22.6563 15.2125 22.6375C15.2375 22.6188 15.3125 22.5938 15.3687 22.5563L15.4125 22.5188C15.4313 22.4938 15.45 22.4688 15.4625 22.4438C15.4875 22.4063 15.5188 22.4 15.55 22.3563C15.575 22.3125 15.5813 22.3 15.6125 22.275C15.6438 22.25 15.7 22.2125 15.7125 22.175C15.725 22.1375 15.6625 22.1875 15.6625 22.125C15.6562 22.0625 15.6625 22.0625 15.6875 22.05C15.7125 22.0375 15.7312 22.0938 15.7312 22.0938L15.7812 22.0563L15.8 21.9813C15.8125 21.9375 15.8375 21.8938 15.8625 21.8563C15.8938 21.8063 15.9187 21.7563 15.9375 21.7L15.9563 21.5938C16.0875 21.5188 16.2188 21.4313 16.35 21.3375L16.2938 21.2813L16.6063 21.05L16.65 21.0375C16.6812 20.9125 16.7437 20.8 16.8188 20.6938C16.8188 20.6938 16.7937 20.775 16.8312 20.7813L16.8687 20.7C16.8813 20.65 16.8875 20.6375 16.9125 20.6563L16.9312 20.675L16.9562 20.6188C16.9562 20.5875 16.9625 20.55 16.9688 20.5188L17.0187 20.4438L17.1187 20.275C17.1437 20.2688 17.1625 20.2625 17.1812 20.2563C17.225 20.2375 17.1812 20.1938 17.1812 20.1938L17.1 20.2313C17.1562 20.1563 17.225 20.0813 17.2875 20.0125L17.3687 20.025C17.3687 20.025 17.3813 20.075 17.4 20.0563C17.4312 20.0375 17.4438 20 17.4375 19.9688L17.4188 19.95L17.3937 19.9063L17.5562 19.7625L17.6187 19.775L17.6812 19.7563L17.7625 19.7C17.7875 19.7 17.8125 19.7 17.8375 19.7063L17.9062 19.6563L17.9312 19.6125H17.9562L17.9937 19.6C18.025 19.5875 18.0125 19.5563 18 19.5438V19.5375L17.9188 19.5688C17.975 19.4938 17.95 19.3938 18.0187 19.3188L18.075 19.325H18.1C18.1 19.325 18.1125 19.375 18.1313 19.3563C18.1562 19.3375 18.175 19.3 18.1688 19.2688L18.15 19.25L18.1375 19.2313L18.1187 19.2C18.1625 19.1563 18.1687 19.0875 18.2125 19.0438L18.2375 19.025L18.2313 18.9L18.2938 18.8813L18.2812 18.7313C18.3062 18.7313 18.3313 18.7313 18.3563 18.7375C18.3938 18.7125 18.35 18.6188 18.3687 18.6L18.4188 18.5625C18.3688 18.4688 18.5 18.5813 18.4375 18.5063C18.4375 18.5063 18.4813 18.4938 18.4688 18.3625C18.6063 18.2813 18.7375 18.1875 18.8625 18.0875L18.9188 18C18.9938 17.8938 19.175 18.0188 19.175 18.0188L19.2062 17.9375L19.2687 17.8938C19.2687 17.8938 19.275 17.9563 19.3125 17.9375C19.35 17.9188 19.35 17.9188 19.3563 17.85C19.3625 17.7813 19.2875 17.8375 19.3062 17.8C19.3188 17.7563 19.3875 17.7063 19.4312 17.6813C19.4625 17.6563 19.4938 17.625 19.5125 17.5875C19.55 17.5375 19.5875 17.525 19.6187 17.4813C19.6375 17.45 19.6625 17.4188 19.6875 17.3938L19.7375 17.35C19.8062 17.3063 19.8937 17.2688 19.925 17.25C19.9562 17.2313 20.05 17.1375 20.0938 17.1688C20.1313 17.2 20.2063 17.15 20.225 17.075L20.275 17.125L20.375 17.025L20.4813 16.9563H20.5L20.55 17.0063L20.6562 16.9625L20.675 16.9125C20.7375 16.9 20.8 16.8938 20.8687 16.8938L20.9375 16.9375C20.95 16.8188 20.9812 16.6938 21.025 16.5813C21.0562 16.5188 21.0875 16.4563 21.1313 16.4L21.1625 16.3563C21.1875 16.325 21.2062 16.2938 21.2188 16.2563L21.25 16.175L21.3125 16.1313C21.3125 16.1313 21.3188 16.1688 21.3375 16.175H21.3563C21.375 16.1688 21.3813 16.1625 21.3875 16.15C21.3938 16.1313 21.4 16.1063 21.3937 16.0875C21.4 16.0188 21.325 16.075 21.3438 16.0375C21.3563 15.9938 21.425 15.95 21.4688 15.925C21.5 15.9 21.5312 15.8688 21.55 15.8313C21.5875 15.7813 21.625 15.7688 21.6562 15.725C21.675 15.6938 21.7 15.6625 21.725 15.6375L21.775 15.5938C21.825 15.5625 21.875 15.5313 21.9312 15.5063L21.9562 15.4938C21.9812 15.475 22.05 15.4125 22.1 15.4063L22.125 15.3188C22.1562 15.2563 22.1938 15.1938 22.2313 15.1375C22.2688 15.0938 22.2938 15.0438 22.3188 14.9875L22.35 14.9063L22.4125 14.8625C22.4125 14.8625 22.4187 14.925 22.4562 14.9063C22.4937 14.8875 22.4937 14.8875 22.5 14.8188C22.5063 14.75 22.4313 14.8063 22.45 14.7625L22.4562 14.75C22.4875 14.7063 22.525 14.675 22.5688 14.6438C22.6 14.6188 22.6313 14.5875 22.65 14.55C22.6875 14.5 22.725 14.4938 22.7563 14.4438C22.775 14.4125 22.8 14.3813 22.825 14.3563L22.8312 14.35L22.8438 14.3375C22.8813 14.2938 22.9062 14.2438 22.9312 14.1875L22.9625 14.1063L23.025 14.0625C23.025 14.0625 23.0312 14.125 23.0688 14.1063C23.1063 14.0875 23.1062 14.0875 23.1125 14.0188C23.1187 13.95 23.05 14.0063 23.0625 13.9625C23.075 13.9188 23.1437 13.8688 23.1875 13.8438C23.2188 13.8188 23.25 13.7875 23.2687 13.75C23.3062 13.7 23.3438 13.6875 23.375 13.6438C23.3937 13.6125 23.4188 13.5813 23.4438 13.5563L23.4937 13.5125C23.5625 13.4688 23.65 13.4313 23.6812 13.4125C23.7125 13.3938 23.8062 13.3 23.85 13.3313C23.8875 13.3625 23.9625 13.3188 23.975 13.2375L24.025 13.2938L24.125 13.1938L24.2313 13.125L24.25 13.1188L24.3062 13.175L24.4125 13.1313L24.4312 13.0813C24.4875 13.075 24.55 13.0688 24.6125 13.0688C24.6437 13.0188 24.6 13.0188 24.6125 12.9438C24.6062 12.8625 24.5875 12.7813 24.5562 12.7063C24.6187 12.6813 24.675 12.6375 24.7188 12.5875C24.825 12.4875 24.7188 12.5875 24.8062 12.4313C24.825 12.4 24.8375 12.3625 24.8438 12.3313C24.85 12.3313 24.8562 12.3313 24.8625 12.325L25.0063 12.225C25.175 12.1063 25.375 11.925 25.55 11.7688L25.625 11.6563C25.7188 11.525 25.9 11.65 25.9 11.65L25.9438 11.5563L26.0187 11.5063C26.0187 11.5063 26.0187 11.575 26.0625 11.55C26.1063 11.5313 26.1 11.5313 26.1187 11.45C26.1313 11.375 26.05 11.4438 26.0688 11.3938C26.1063 11.3375 26.1562 11.2938 26.2125 11.2563C26.25 11.2313 26.2875 11.1938 26.3125 11.1563C26.3563 11.1063 26.4 11.0938 26.4438 11.05C26.4688 11.0188 26.5 10.9875 26.5312 10.9625L26.5938 10.9188C26.6625 10.8875 26.7312 10.8563 26.8062 10.8313C26.8438 10.8125 26.9625 10.7375 26.9937 10.775C27.025 10.8125 27.1062 10.7813 27.1437 10.7125L27.1812 10.775L27.3062 10.7063L27.4188 10.6688H27.4375L27.4688 10.7375H27.5688L27.5938 10.7063C27.65 10.7188 27.7 10.7438 27.7437 10.775L27.7812 10.8438C27.8125 10.7563 27.8563 10.675 27.9125 10.6C27.9438 10.575 27.975 10.55 28.0063 10.5313L28.0312 10.5188C28.05 10.5125 28.0625 10.5 28.075 10.4875L28.1063 10.45C28.1188 10.4563 28.125 10.4625 28.1313 10.4688C28.125 10.4875 28.1187 10.5 28.1187 10.5188V10.5313H28.1313L28.1562 10.5C28.1875 10.4563 28.1562 10.4438 28.175 10.425C28.1937 10.4063 28.2313 10.4313 28.2625 10.45C28.2938 10.4688 28.3 10.4625 28.3438 10.4688C28.3875 10.475 28.4062 10.5063 28.45 10.5188C28.4813 10.525 28.5125 10.5375 28.5438 10.55L28.5938 10.5875C28.6313 10.625 28.6688 10.6625 28.6938 10.7063L28.7125 10.725C28.7312 10.7438 28.8 10.7938 28.8 10.8375L28.8813 10.8438C28.9375 10.8625 28.9938 10.8875 29.0438 10.9188C29.0813 10.9438 29.125 10.9688 29.1688 10.9875L29.2375 11.0125L29.2625 11.0688C29.2625 11.0688 29.2062 11.075 29.2125 11.1063C29.2188 11.1375 29.2125 11.1375 29.2812 11.1375C29.35 11.1375 29.3062 11.0813 29.3438 11.0938L29.3563 11.1C29.3813 11.125 29.4 11.1625 29.4125 11.2C29.4188 11.2313 29.4312 11.2375 29.4562 11.2688C29.4812 11.3 29.475 11.3313 29.4875 11.3563C29.5062 11.3813 29.5187 11.3875 29.525 11.4125V11.4188V11.425C29.5437 11.4563 29.5625 11.4813 29.5875 11.5063C29.6 11.5188 29.6125 11.5313 29.625 11.55C29.625 11.5625 29.6187 11.5813 29.6125 11.5938C29.6125 11.5938 29.5625 11.575 29.55 11.5938C29.5375 11.6125 29.5375 11.6125 29.5812 11.6438C29.625 11.675 29.6375 11.625 29.6562 11.6438C29.675 11.6625 29.6938 11.6938 29.6812 11.725Z" fill="#0041E6"/>
</g>
<defs>
<clipPath id="clip0_7664_50219">
<rect width="32" height="32" fill="white"/>
</clipPath>
</defs>
</svg>
