<svg width="210" height="219" viewBox="0 0 210 219" fill="none" xmlns="http://www.w3.org/2000/svg">
<path d="M111.202 0L30.7248 219H0L80.3213 0H111.202Z" fill="#06DAFF"/>
<path d="M139.492 172.16C131.979 168.721 126.188 164.189 121.806 158.406C117.423 152.624 115.076 146.216 114.606 139.182H143.718C144.344 143.559 146.378 147.31 150.291 150.123C154.047 152.936 158.743 154.499 164.534 154.499C170.012 154.499 174.394 153.405 177.524 151.217C180.654 149.029 182.22 146.216 182.22 142.777C182.22 139.026 180.341 136.213 176.585 134.337C172.829 132.462 166.725 130.43 158.43 128.242C149.822 126.21 142.935 124.022 137.457 121.834C131.979 119.646 127.284 116.208 123.371 111.675C119.458 107.143 117.423 101.047 117.423 93.2329C117.423 86.825 119.302 81.1985 122.901 75.8846C126.501 70.727 131.823 66.5072 138.553 63.5376C145.439 60.5681 153.421 59.0052 162.656 59.0052C176.272 59.0052 187.228 62.4436 195.367 69.1641C203.505 76.0409 208.044 85.1058 208.827 96.6713H181.124C180.654 92.1389 178.776 88.5442 175.49 85.8872C172.046 83.2303 167.664 81.8237 161.873 81.8237C156.552 81.8237 152.639 82.7614 149.822 84.6369C147.004 86.5124 145.596 89.3256 145.596 92.764C145.596 96.6713 147.474 99.4846 151.387 101.516C155.299 103.548 161.247 105.58 169.386 107.612C177.681 109.643 184.411 111.832 189.889 114.02C195.21 116.208 199.906 119.646 203.818 124.179C207.731 128.867 209.766 134.963 209.922 142.465C209.922 149.029 208.044 154.968 204.444 160.282C200.845 165.439 195.523 169.659 188.793 172.629C182.063 175.598 174.081 177.005 164.847 177.005C155.299 177.161 147.004 175.598 139.492 172.16Z" fill="#0000E1"/>
</svg>
