<svg width="120" height="29" viewBox="0 0 120 29" fill="none" xmlns="http://www.w3.org/2000/svg">
<g clip-path="url(#clip0_698_31343)">
<path d="M15.7413 -1.83728L4.30636 30.173H-0.0729675L11.3619 -1.83728H15.7413Z" fill="#06DAFF"/>
<path d="M19.8286 23.276C18.7825 22.7762 17.9309 22.1265 17.3227 21.2769C16.7144 20.4273 16.3738 19.5027 16.3008 18.4782H20.4369C20.5099 19.1279 20.8261 19.6526 21.3614 20.0774C21.8966 20.5022 22.5779 20.7021 23.3808 20.7021C24.1593 20.7021 24.7675 20.5522 25.2055 20.2274C25.6434 19.9025 25.8624 19.5027 25.8624 19.0029C25.8624 18.4532 25.5947 18.0534 25.0595 17.7785C24.5242 17.5036 23.6727 17.2038 22.5049 16.8789C21.2884 16.579 20.2909 16.2792 19.5367 15.9543C18.7581 15.6295 18.1012 15.1297 17.5417 14.48C16.9821 13.8053 16.7144 12.9307 16.7144 11.8062C16.7144 10.8817 16.9821 10.032 17.493 9.28239C18.0039 8.50775 18.7581 7.90802 19.7313 7.48322C20.7045 7.03343 21.848 6.83352 23.1375 6.83352C25.0838 6.83352 26.6166 7.33329 27.7601 8.33283C28.9036 9.33237 29.5361 10.6568 29.6578 12.356H25.7407C25.6921 11.6813 25.4244 11.1565 24.9378 10.7817C24.4513 10.3819 23.8187 10.207 23.0158 10.207C22.2616 10.207 21.702 10.3569 21.3127 10.6318C20.9235 10.9066 20.7045 11.3065 20.7045 11.8062C20.7045 12.356 20.9721 12.8058 21.5317 13.0806C22.067 13.3805 22.9185 13.6554 24.0863 13.9802C25.2541 14.2801 26.2273 14.6049 26.9815 14.9048C27.7357 15.2297 28.3926 15.7294 28.9522 16.4041C29.5118 17.0788 29.8038 17.9534 29.8281 19.0779C29.8281 20.0524 29.5605 20.902 29.0495 21.6767C28.5386 22.4513 27.7844 23.0261 26.8112 23.4759C25.838 23.9007 24.7189 24.1256 23.4294 24.1256C22.067 24.0006 20.8748 23.7757 19.8286 23.276Z" fill="white"/>
<path d="M36.9567 7.05842V23.7507H32.845V7.05842H36.9567Z" fill="white"/>
<path d="M59.8751 19.8525L63.9868 7.05842H68.3662L62.3568 23.7507H57.3692L51.3841 7.05842H55.7878L59.8751 19.8525Z" fill="white"/>
<path d="M85.2752 16.654H73.4024C73.4997 17.8535 73.9133 18.803 74.6432 19.4777C75.3731 20.1524 76.2489 20.5022 77.3194 20.5022C78.8522 20.5022 79.9227 19.8275 80.5796 18.4782H85.0076C84.5453 20.0774 83.6451 21.4018 82.307 22.4264C80.9689 23.4509 79.3388 23.9756 77.4168 23.9756C75.8597 23.9756 74.4485 23.6258 73.2077 22.9011C71.9669 22.2015 70.9938 21.1769 70.3125 19.8775C69.607 18.5781 69.2663 17.0788 69.2663 15.3546C69.2663 13.6304 69.607 12.1061 70.2882 10.8067C70.9694 9.50729 71.9183 8.50775 73.1591 7.78309C74.3999 7.08341 75.811 6.73357 77.4168 6.73357C78.9495 6.73357 80.3363 7.08341 81.5771 7.7581C82.7936 8.43279 83.7424 9.40734 84.4237 10.6568C85.1049 11.9062 85.4455 13.3555 85.4455 14.9798C85.3725 15.6295 85.3482 16.1792 85.2752 16.654ZM81.1392 13.8303C81.1149 12.7558 80.7499 11.8812 79.9957 11.2315C79.2415 10.5818 78.3413 10.2569 77.2708 10.2569C76.2489 10.2569 75.3974 10.5818 74.7162 11.2065C74.035 11.8312 73.597 12.7058 73.451 13.8303H81.1392Z" fill="white"/>
<path d="M92.3551 1.461V23.7507H88.2434V1.461H92.3551Z" fill="white"/>
<path d="M100.36 7.05842V23.7507H96.2479V7.05842H100.36Z" fill="white"/>
<path d="M104.155 10.8567C104.812 9.55727 105.688 8.55773 106.831 7.83306C107.95 7.13338 109.216 6.78354 110.602 6.78354C111.819 6.78354 112.865 7.03343 113.789 7.5332C114.69 8.03297 115.42 8.65768 115.979 9.43232V7.05842H120.115V23.7507H115.979V21.3019C115.444 22.0765 114.714 22.7262 113.789 23.251C112.865 23.7507 111.794 24.0256 110.578 24.0256C109.216 24.0256 107.975 23.6758 106.831 22.9511C105.712 22.2264 104.812 21.2019 104.155 19.9025C103.498 18.5781 103.182 17.0788 103.182 15.3796C103.182 13.6554 103.498 12.1561 104.155 10.8567ZM115.371 12.7558C114.982 12.0311 114.446 11.4564 113.789 11.0816C113.133 10.6817 112.403 10.5068 111.648 10.5068C110.894 10.5068 110.189 10.7067 109.532 11.0816C108.899 11.4564 108.364 12.0311 107.975 12.7558C107.585 13.4805 107.366 14.3551 107.366 15.3546C107.366 16.3541 107.561 17.2287 107.975 17.9784C108.364 18.728 108.899 19.3028 109.556 19.7026C110.213 20.1024 110.919 20.3023 111.648 20.3023C112.403 20.3023 113.133 20.1024 113.789 19.7276C114.446 19.3278 114.982 18.778 115.371 18.0534C115.76 17.3287 115.955 16.4541 115.955 15.4296C115.955 14.38 115.76 13.5055 115.371 12.7558Z" fill="white"/>
<path d="M48.6349 6.93348C47.9536 7.03344 47.3454 7.25833 46.7615 7.58318C45.91 8.08295 45.2287 8.78263 44.6935 9.65723V7.05843H40.5818L40.6061 23.7508H44.7178L44.6935 16.2042C44.6935 14.53 45.0098 13.5055 45.5937 12.8807C46.5182 11.8812 48.051 11.8562 48.7565 11.8562C49.5351 11.8562 50.265 11.8562 50.4109 11.8562L48.6349 6.93348Z" fill="white"/>
</g>
<defs>
<clipPath id="clip0_698_31343">
<rect width="120" height="29" fill="white"/>
</clipPath>
</defs>
</svg>
