<svg width="120" height="28" viewBox="0 0 120 28" fill="none" xmlns="http://www.w3.org/2000/svg">
<g clip-path="url(#clip0_698_31341)">
<path d="M15.7413 -1.77393L4.30636 29.1326H-0.0729675L11.3619 -1.77393H15.7413Z" fill="#05DAFF"/>
<path d="M19.8286 22.4733C18.7825 21.9908 17.9309 21.3635 17.3227 20.5432C16.7144 19.7229 16.3738 18.8302 16.3008 17.841H20.4369C20.5099 18.4683 20.8261 18.975 21.3614 19.3851C21.8966 19.7953 22.5779 19.9883 23.3808 19.9883C24.1593 19.9883 24.7675 19.8435 25.2055 19.5299C25.6434 19.2162 25.8624 18.8302 25.8624 18.3477C25.8624 17.8169 25.5947 17.4308 25.0595 17.1654C24.5242 16.9 23.6727 16.6105 22.5049 16.2969C21.2884 16.0074 20.2909 15.7178 19.5367 15.4042C18.7581 15.0905 18.1012 14.608 17.5417 13.9807C16.9821 13.3293 16.7144 12.4848 16.7144 11.3991C16.7144 10.5064 16.9821 9.68612 17.493 8.96232C18.0039 8.21438 18.7581 7.63534 19.7313 7.22518C20.7045 6.7909 21.848 6.59789 23.1375 6.59789C25.0838 6.59789 26.6166 7.08042 27.7601 8.0455C28.9036 9.01057 29.5361 10.2893 29.6578 11.9299H25.7407C25.6921 11.2785 25.4244 10.7718 24.9378 10.4099C24.4513 10.0239 23.8187 9.85501 23.0158 9.85501C22.2616 9.85501 21.702 9.99977 21.3127 10.2652C20.9235 10.5306 20.7045 10.9166 20.7045 11.3991C20.7045 11.9299 20.9721 12.3642 21.5317 12.6296C22.067 12.9191 22.9185 13.1845 24.0863 13.4982C25.2541 13.7877 26.2273 14.1013 26.9815 14.3909C27.7357 14.7045 28.3926 15.187 28.9522 15.8385C29.5118 16.4899 29.8038 17.3343 29.8281 18.42C29.8281 19.361 29.5605 20.1813 29.0495 20.9292C28.5386 21.6772 27.7844 22.2321 26.8112 22.6664C25.838 23.0765 24.7189 23.2937 23.4294 23.2937C22.067 23.173 20.8748 22.9559 19.8286 22.4733Z" fill="#0041E6"/>
<path d="M36.9566 6.81503V22.9318H32.8449V6.81503H36.9566Z" fill="#0041E6"/>
<path d="M59.8751 19.168L63.9868 6.81503H68.3661L62.3567 22.9318H57.3692L51.3841 6.81503H55.7877L59.8751 19.168Z" fill="#0041E6"/>
<path d="M85.2752 16.0797H73.4024C73.4997 17.2378 73.9133 18.1546 74.6432 18.8061C75.3731 19.4575 76.2489 19.7953 77.3194 19.7953C78.8522 19.7953 79.9227 19.1438 80.5796 17.841H85.0076C84.5453 19.3851 83.6451 20.6638 82.307 21.653C80.9689 22.6422 79.3388 23.1489 77.4168 23.1489C75.8597 23.1489 74.4486 22.8111 73.2077 22.1114C71.9669 21.4359 70.9938 20.4467 70.3125 19.1921C69.607 17.9375 69.2664 16.4899 69.2664 14.8251C69.2664 13.1604 69.607 11.6886 70.2882 10.434C70.9694 9.17945 71.9183 8.21438 73.1591 7.5147C74.3999 6.83915 75.811 6.50137 77.4168 6.50137C78.9495 6.50137 80.3363 6.83915 81.5771 7.49058C82.7936 8.142 83.7425 9.08295 84.4237 10.2893C85.1049 11.4956 85.4455 12.895 85.4455 14.4632C85.3725 15.0905 85.3482 15.6213 85.2752 16.0797ZM81.1392 13.3534C81.1149 12.3159 80.7499 11.4715 79.9957 10.8442C79.2415 10.2169 78.3413 9.90326 77.2708 9.90326C76.2489 9.90326 75.3974 10.2169 74.7162 10.8201C74.035 11.4232 73.597 12.2677 73.451 13.3534H81.1392Z" fill="#0041E6"/>
<path d="M92.3551 1.41061V22.9318H88.2434V1.41061H92.3551Z" fill="#0041E6"/>
<path d="M100.36 6.81503V22.9318H96.2479V6.81503H100.36Z" fill="#0041E6"/>
<path d="M104.155 10.4823C104.812 9.2277 105.688 8.26263 106.831 7.56295C107.95 6.8874 109.216 6.54962 110.602 6.54962C111.819 6.54962 112.865 6.79089 113.789 7.27343C114.69 7.75596 115.42 8.35913 115.979 9.10707V6.81502H120.115V22.9317H115.979V20.5673C115.444 21.3152 114.714 21.9425 113.789 22.4492C112.865 22.9317 111.794 23.1971 110.578 23.1971C109.216 23.1971 107.975 22.8594 106.831 22.1597C105.712 21.46 104.812 20.4708 104.155 19.2162C103.498 17.9375 103.182 16.4899 103.182 14.8493C103.182 13.1845 103.498 11.7369 104.155 10.4823ZM115.371 12.3159C114.982 11.6163 114.446 11.0613 113.789 10.6994C113.133 10.3134 112.403 10.1445 111.648 10.1445C110.894 10.1445 110.189 10.3375 109.532 10.6994C108.899 11.0613 108.364 11.6163 107.975 12.3159C107.585 13.0156 107.366 13.8601 107.366 14.8251C107.366 15.7902 107.561 16.6346 107.975 17.3584C108.364 18.0822 108.899 18.6372 109.556 19.0232C110.213 19.4092 110.919 19.6022 111.648 19.6022C112.403 19.6022 113.133 19.4092 113.789 19.0473C114.446 18.6613 114.982 18.1305 115.371 17.4308C115.76 16.7311 115.955 15.8867 115.955 14.8975C115.955 13.8842 115.76 13.0397 115.371 12.3159Z" fill="#0041E6"/>
<path d="M48.6349 6.6944C47.9536 6.7909 47.3454 7.00805 46.7615 7.32169C45.91 7.80423 45.2287 8.47978 44.6935 9.32422V6.81503H40.5818L40.6061 22.9318H44.7178L44.6935 15.6455C44.6935 14.029 45.0098 13.0398 45.5937 12.4366C46.5182 11.4715 48.051 11.4474 48.7565 11.4474C49.5351 11.4474 50.265 11.4474 50.4109 11.4474L48.6349 6.6944Z" fill="#0041E6"/>
</g>
<defs>
<clipPath id="clip0_698_31341">
<rect width="120" height="28" fill="white"/>
</clipPath>
</defs>
</svg>
