<svg width="121" height="15" viewBox="0 0 121 15" fill="none" xmlns="http://www.w3.org/2000/svg">
<g clip-path="url(#clip0_7660_32163)">
<path d="M12.501 0C9.1674 0 7.08394 1.66664 6.25064 5.00016C7.50082 3.33328 8.95944 2.70826 10.6263 3.1251C11.5772 3.36258 12.2569 4.05282 13.0094 4.81631C14.235 6.06021 15.6537 7.5 18.7522 7.5C22.0858 7.5 24.1693 5.83336 25.0028 2.49984C23.7526 4.16672 22.294 4.79174 20.6272 4.3749C19.6762 4.13742 18.9965 3.44718 18.2441 2.68369C17.0182 1.43979 15.5998 0 12.501 0ZM6.25064 7.5C2.917 7.5 0.833529 9.16664 0 12.5002C1.25018 10.8333 2.70856 10.2083 4.37538 10.6251C5.3266 10.8631 6.00604 11.5528 6.75851 12.3163C7.98411 13.5602 9.40302 15 12.5013 15C15.8352 15 17.9186 13.3334 18.7522 9.99984C17.502 11.6667 16.0434 12.2917 14.3765 11.8749C13.4256 11.6374 12.7459 10.9472 11.9934 10.1839C10.7678 8.93979 9.34914 7.5 6.25064 7.5Z" fill="#2B3550"/>
<path d="M37.502 6.32038H35.3204V10.5426C35.3204 11.6686 36.0592 11.6509 37.502 11.5805V13.287C34.5814 13.6389 33.4201 12.8296 33.4201 10.5426V6.32038H31.8013V4.49069H33.4201V2.12767L35.3202 1.5648V4.49069H37.502V6.32038ZM45.8188 4.49069H47.7189V13.2873H45.8188V12.0207C45.15 12.9529 44.1121 13.516 42.7395 13.516C40.3469 13.516 38.3587 11.4928 38.3587 8.88923C38.3587 6.26792 40.3469 4.26243 42.7397 4.26243C44.1121 4.26243 45.1503 4.8253 45.8188 5.74002V4.49069ZM43.0387 11.7041C44.6221 11.7041 45.8188 10.5251 45.8188 8.88923C45.8188 7.2533 44.6223 6.07439 43.0387 6.07439C41.455 6.07439 40.2587 7.25307 40.2587 8.88923C40.2587 10.5254 41.4553 11.7041 43.0387 11.7041ZM50.886 3.17118C50.2171 3.17118 49.6719 2.60807 49.6719 1.95706C49.6726 1.63531 49.8007 1.32692 50.0282 1.0994C50.2557 0.871891 50.5642 0.743799 50.886 0.743175C51.2077 0.743799 51.5162 0.871891 51.7437 1.0994C51.9712 1.32692 52.0993 1.63531 52.1 1.95706C52.1 2.60807 51.5545 3.17118 50.886 3.17118ZM49.9359 13.2868V4.49069H51.836V13.2873L49.9359 13.2868ZM54.0353 13.2868V0.444489H55.9356V13.287L54.0353 13.2868ZM68.2693 4.49046H70.275L67.5128 13.2873H65.6477L63.8178 7.35846L61.9704 13.2873H60.1056L57.3431 4.49093H59.3489L61.0556 10.5604L62.903 4.49093H64.7152L66.545 10.5604L68.2693 4.49046ZM72.6329 3.17118C71.9641 3.17118 71.4188 2.60807 71.4188 1.95706C71.4195 1.63531 71.5476 1.32692 71.7751 1.0994C72.0027 0.871891 72.3111 0.743799 72.6329 0.743175C72.9547 0.743799 73.2631 0.871891 73.4906 1.0994C73.7182 1.32692 73.8463 1.63531 73.8469 1.95706C73.8469 2.60807 73.3014 3.17118 72.6329 3.17118ZM71.6828 13.2868V4.49069H73.5829V13.2873L71.6828 13.2868ZM80.4095 4.26172C82.3802 4.26172 83.7878 5.59895 83.7878 7.88589V13.2868H81.8877V8.07965C81.8877 6.74265 81.1133 6.03895 79.9167 6.03895C78.6677 6.03895 77.6825 6.77786 77.6825 8.57211V13.2873H75.7824V4.49069H77.6825V5.61667C78.2631 4.70195 79.2132 4.26195 80.4097 4.26195L80.4095 4.26172ZM92.7964 0.972152H94.6965V13.2873H92.7964V12.0207C92.1276 12.9529 91.0896 13.516 89.7173 13.516C87.3244 13.516 85.3362 11.4928 85.3362 8.88923C85.3362 6.26792 87.3244 4.26243 89.7173 4.26243C91.0896 4.26243 92.1278 4.8253 92.7964 5.74002V0.972152ZM90.0162 11.7041C91.5996 11.7041 92.7961 10.5251 92.7961 8.88923C92.7961 7.2533 91.5996 6.07439 90.0162 6.07439C88.4328 6.07439 87.2363 7.25307 87.2363 8.88923C87.2363 10.5254 88.4326 11.7041 90.0162 11.7041ZM101.066 13.516C98.4087 13.516 96.4207 11.4928 96.4207 8.88923C96.4207 6.26792 98.4087 4.26243 101.066 4.26243C102.79 4.26243 104.285 5.15943 104.989 6.53164L103.353 7.48157C102.966 6.65499 102.104 6.12709 101.048 6.12709C99.4996 6.12709 98.3208 7.30576 98.3208 8.88923C98.3208 10.4727 99.4996 11.6511 101.048 11.6511C102.104 11.6511 102.966 11.1057 103.388 10.2966L105.024 11.2289C104.285 12.6188 102.79 13.516 101.066 13.516H101.066ZM108.156 6.9187C108.156 8.51965 112.889 7.55199 112.889 10.8068C112.889 12.5661 111.358 13.516 109.458 13.516C107.699 13.516 106.432 12.7244 105.869 11.4578L107.505 10.5077C107.787 11.2993 108.49 11.7742 109.458 11.7742C110.303 11.7742 110.954 11.493 110.954 10.7891C110.954 9.22336 106.221 10.1031 106.221 6.95391C106.221 5.30026 107.646 4.26243 109.441 4.26243C110.883 4.26243 112.08 4.93069 112.695 6.09188L111.095 6.98912C110.778 6.30313 110.162 5.98625 109.441 5.98625C108.754 5.98625 108.156 6.28541 108.156 6.9187ZM116.267 6.9187C116.267 8.51965 121 7.55199 121 10.8068C121 12.5661 119.47 13.516 117.569 13.516C115.81 13.516 114.543 12.7244 113.98 11.4578L115.616 10.5077C115.898 11.2993 116.602 11.7742 117.569 11.7742C118.414 11.7742 119.065 11.493 119.065 10.7891C119.065 9.22336 114.332 10.1031 114.332 6.95391C114.332 5.30026 115.757 4.26243 117.552 4.26243C118.994 4.26243 120.191 4.93069 120.807 6.09188L119.206 6.98912C118.889 6.30313 118.273 5.98625 117.552 5.98625C116.865 5.98625 116.267 6.28541 116.267 6.9187Z" fill="#2B3550"/>
</g>
<defs>
<clipPath id="clip0_7660_32163">
<rect width="121" height="15" fill="white"/>
</clipPath>
</defs>
</svg>
