<svg width="93" height="15" viewBox="0 0 93 15" fill="none" xmlns="http://www.w3.org/2000/svg">
<g clip-path="url(#clip0_7660_32164)">
<path d="M31.0201 11.1468L31.5709 9.36055H35.0638L35.6146 11.1468H38.157L34.9356 0.989453H31.8651L28.4551 11.1468H31.0201ZM34.5131 7.56675H32.1819L33.3664 3.85046L34.5131 7.56675ZM42.1177 11.1468V0.701839H39.7036V11.1468H42.1177ZM47.0969 14.7647L47.0968 10.8329L47.1043 10.8398C47.1801 10.91 47.2612 10.973 47.3475 11.0287L47.3911 11.056C47.7583 11.278 48.216 11.389 48.7642 11.389C49.3929 11.389 49.9826 11.2326 50.5333 10.9197C51.084 10.6069 51.5292 10.1553 51.8687 9.56491C52.2081 8.97454 52.3779 8.26055 52.3779 7.42294C52.3779 6.58028 52.2107 5.86377 51.8762 5.2734C51.5417 4.68303 51.1079 4.23143 50.5748 3.91858C50.0417 3.60574 49.4784 3.44932 48.8849 3.44932C48.4373 3.44932 48.0148 3.56411 47.6175 3.7937C47.3314 3.959 47.0851 4.19689 46.8785 4.50737L46.8488 4.55312L46.6518 3.69152H44.6828V14.7647H47.0969ZM48.3794 9.1789C48.1481 9.1789 47.9343 9.13601 47.7382 9.05023C47.542 8.96445 47.3861 8.84588 47.2704 8.6945C47.1548 8.54312 47.0969 8.36652 47.0969 8.16468H47.0968V6.93854L47.0977 6.88651C47.1042 6.66305 47.1532 6.46517 47.2448 6.29287L47.2667 6.25356C47.3798 6.05929 47.537 5.90918 47.7382 5.80321C47.9394 5.69725 48.1682 5.64427 48.4247 5.64427C48.7416 5.64427 49.0144 5.71744 49.2433 5.86377C49.4721 6.0101 49.6494 6.21698 49.7751 6.48441C49.9009 6.75184 49.9637 7.06468 49.9637 7.42294C49.9637 7.84679 49.8795 8.18739 49.711 8.44473C49.5425 8.70207 49.3363 8.88877 49.0924 9.00482C48.8484 9.12088 48.6108 9.1789 48.3794 9.1789ZM55.7351 2.73028C56.1777 2.73028 56.5272 2.61296 56.7837 2.37833C57.0402 2.1437 57.1685 1.81193 57.1685 1.38303C57.1685 0.964224 57.0402 0.629935 56.7837 0.380164C56.5272 0.130394 56.1777 0.00550842 55.7351 0.00550842C55.2774 0.00550842 54.9241 0.130394 54.6751 0.380164C54.4262 0.629935 54.3017 0.964224 54.3017 1.38303C54.3017 1.81193 54.4262 2.1437 54.6751 2.37833C54.9241 2.61296 55.2774 2.73028 55.7351 2.73028ZM56.9422 11.1468V3.6461H54.528V11.1468H56.9422ZM62.1326 11.1468V8.00574L62.133 7.92868C62.1387 7.41961 62.2016 7.00333 62.3216 6.67983L62.3401 6.632C62.4784 6.28636 62.6632 6.03533 62.8946 5.8789C63.1259 5.72248 63.3799 5.64427 63.6565 5.64427C63.9281 5.64427 64.1595 5.73888 64.3506 5.9281C64.5417 6.11732 64.6373 6.40872 64.6373 6.8023V11.1468H67.0665V6.8023C67.0665 6.15138 66.971 5.57363 66.7799 5.06904C66.5887 4.56445 66.2907 4.16835 65.8859 3.88074C65.481 3.59312 64.9592 3.44932 64.3204 3.44932C63.7622 3.44932 63.263 3.60574 62.8229 3.91858C62.5497 4.11276 62.3124 4.37595 62.111 4.70815L62.0902 4.74303L61.8459 3.69152H59.7184V11.1468H62.1326ZM72.4003 11.389C73.0139 11.389 73.5559 11.278 74.0261 11.056C74.4964 10.8339 74.8786 10.5337 75.1728 10.1553C75.4671 9.77684 75.6519 9.35551 75.7273 8.89129H73.3283C73.2629 9.08808 73.1472 9.23188 72.9812 9.32271C72.8153 9.41354 72.6216 9.45895 72.4003 9.45895C72.1287 9.45895 71.9037 9.39461 71.7251 9.26594C71.5466 9.13727 71.412 8.95689 71.3215 8.72477C71.231 8.49266 71.1857 8.21766 71.1857 7.89977L71.1858 7.91491H75.6519C75.771 7.37952 75.7942 6.85884 75.7215 6.35289L75.7085 6.2687C75.6205 5.73636 75.4344 5.25826 75.1502 4.83441C74.866 4.41055 74.4926 4.07374 74.0299 3.82397C73.5672 3.5742 73.024 3.44932 72.4003 3.44932C71.7716 3.44932 71.1832 3.60574 70.635 3.91858C70.0868 4.23143 69.6442 4.68177 69.3072 5.26961C68.9702 5.85746 68.8017 6.56262 68.8017 7.3851C68.8017 8.20757 68.9715 8.91904 69.311 9.5195C69.6504 10.12 70.0943 10.5817 70.6425 10.9046C71.1907 11.2275 71.7767 11.389 72.4003 11.389ZM73.5469 6.68877H71.1965L71.1967 6.68668C71.215 6.47969 71.2563 6.29568 71.3204 6.13466L71.3404 6.08704C71.4435 5.85241 71.5893 5.67328 71.7779 5.54966C71.9665 5.42604 72.1891 5.36422 72.4456 5.36422C72.6769 5.36422 72.8668 5.4109 73.0152 5.50425C73.1636 5.5976 73.278 5.72122 73.3584 5.87512C73.4389 6.02902 73.493 6.19679 73.5206 6.37844C73.5345 6.46927 73.543 6.55947 73.5461 6.64903L73.5469 6.68877ZM78.2924 11.283C78.7702 11.283 79.165 11.138 79.4768 10.8478C79.7887 10.5577 79.9446 10.1881 79.9446 9.73899C79.9446 9.28991 79.7887 8.91652 79.4768 8.61881C79.165 8.3211 78.7702 8.17225 78.2924 8.17225C77.8146 8.17225 77.4261 8.3211 77.1268 8.61881C76.8275 8.91652 76.6779 9.28991 76.6779 9.73899C76.6779 10.183 76.8275 10.5514 77.1268 10.844C77.4261 11.1367 77.8146 11.283 78.2924 11.283ZM82.9019 2.73028C83.3445 2.73028 83.6941 2.61296 83.9506 2.37833C84.2071 2.1437 84.3353 1.81193 84.3353 1.38303C84.3353 0.964224 84.2071 0.629935 83.9506 0.380164C83.6941 0.130394 83.3445 0.00550842 82.9019 0.00550842C82.4593 0.00550842 82.1073 0.130394 81.8457 0.380164C81.5842 0.629935 81.4534 0.964224 81.4534 1.38303C81.4534 1.81193 81.5842 2.1437 81.8457 2.37833C82.1073 2.61296 82.4593 2.73028 82.9019 2.73028ZM81.461 15.0296C82.3411 15.0296 83.0075 14.7887 83.4602 14.3068C83.9128 13.8249 84.1392 13.0112 84.1392 11.8658V3.66124H81.7099V11.8204C81.7099 12.2544 81.6332 12.5445 81.4798 12.6908C81.3264 12.8372 81.0938 12.9103 80.782 12.9103C80.5406 12.9103 80.279 12.875 79.9974 12.8044C79.7157 12.7337 79.4668 12.6555 79.2505 12.5697V14.6512C79.5975 14.747 79.9421 14.8341 80.2841 14.9123C80.6261 14.9905 81.0184 15.0296 81.461 15.0296ZM89.7823 11.389C90.4059 11.389 90.9642 11.2729 91.4571 11.0408C91.95 10.8087 92.3385 10.5072 92.6227 10.1364C92.9069 9.76549 93.0489 9.37317 93.0489 8.95941C93.0489 8.50528 92.9031 8.12684 92.6114 7.82409C92.3197 7.52133 91.9198 7.26904 91.4118 7.06721L89.3598 6.24221C89.0429 6.1312 88.8845 5.97982 88.8845 5.78808C88.8845 5.64679 88.96 5.53326 89.1108 5.44748C89.2617 5.3617 89.4679 5.31881 89.7295 5.31881C90.0463 5.31881 90.2726 5.3781 90.4084 5.49668C90.5442 5.61526 90.6121 5.75528 90.6121 5.91675H92.8226C92.8176 5.20023 92.5485 4.60987 92.0154 4.14565C91.4822 3.68143 90.7203 3.44932 89.7295 3.44932C88.6733 3.44932 87.8409 3.65367 87.2323 4.06239C86.6237 4.4711 86.3195 5.00597 86.3195 5.66698C86.3195 6.13624 86.4641 6.54117 86.7533 6.88177C87.0425 7.22237 87.4536 7.50367 87.9867 7.72569L89.7898 8.42959C89.9809 8.50528 90.1218 8.58097 90.2123 8.65666C90.3028 8.73234 90.3481 8.83326 90.3481 8.95941C90.3481 9.05528 90.3154 9.14484 90.25 9.2281C90.1846 9.31136 90.0866 9.37821 89.9558 9.42867C89.825 9.47913 89.659 9.50436 89.4579 9.50436C89.1259 9.50436 88.8631 9.4539 88.6695 9.35299C88.4759 9.25207 88.374 9.07042 88.364 8.80803H86.1837C86.1786 9.38831 86.3283 9.86893 86.6326 10.2499C86.9368 10.6309 87.3606 10.9159 87.9038 11.1052C88.4469 11.2944 89.0731 11.389 89.7823 11.389Z" fill="#2B3550"/>
<path fill-rule="evenodd" clip-rule="evenodd" d="M19.1376 0.316895L24.6068 5.77982L19.1376 11.2427L13.6685 5.77982L19.1376 0.316895Z" fill="#2B3550"/>
<path fill-rule="evenodd" clip-rule="evenodd" d="M5.46479 0.316895L16.8031 11.6422H5.86472L-0.00439453 5.77982L5.46479 0.316895Z" fill="#2B3550"/>
</g>
<defs>
<clipPath id="clip0_7660_32164">
<rect width="93" height="15" fill="white"/>
</clipPath>
</defs>
</svg>
