<svg width="69" height="15" viewBox="0 0 69 15" fill="none" xmlns="http://www.w3.org/2000/svg">
<g clip-path="url(#clip0_7660_32165)">
<path d="M16.6768 9.48461C16.7455 10.1769 17.3759 11.3538 19.1754 11.3538C20.7457 11.3538 21.5022 10.35 21.5022 9.36922C21.5022 8.48076 20.9062 7.76538 19.7256 7.51153L18.8774 7.32692C18.545 7.26922 18.3273 7.08461 18.3273 6.78461C18.3273 6.43845 18.6711 6.18461 19.0952 6.18461C19.7829 6.18461 20.0351 6.63461 20.0809 6.9923L21.4334 6.68076C21.3646 6.03461 20.7915 4.93845 19.0837 4.93845C17.7886 4.93845 16.8372 5.83845 16.8372 6.91153C16.8372 7.75384 17.3645 8.45768 18.5221 8.71153L19.313 8.89615C19.7714 8.99999 19.9548 9.21922 19.9548 9.48461C19.9548 9.80769 19.7027 10.0846 19.164 10.0846C18.4533 10.0846 18.1095 9.64615 18.0636 9.16153L16.6768 9.48461ZM26.6829 11.1692H28.2302C28.2073 10.9615 28.1729 10.5461 28.1729 10.0731V5.12307H26.5568V8.63076C26.5568 9.33461 26.1442 9.81922 25.4221 9.81922C24.6656 9.81922 24.3218 9.27692 24.3218 8.60769V5.12307H22.6942V8.9423C22.6942 10.2577 23.5194 11.3192 24.9751 11.3192C25.6055 11.3192 26.3047 11.0769 26.6371 10.5115C26.6256 10.7654 26.6485 11.0423 26.6829 11.1692ZM31.5198 13.5V10.5808C31.8178 10.9846 32.4253 11.3192 33.2505 11.3192C34.9469 11.3192 36.0816 9.96922 36.0816 8.13461C36.0816 6.34615 35.0729 4.99615 33.3193 4.99615C32.4138 4.99615 31.749 5.39999 31.4739 5.87307V5.13461H29.9037V13.5H31.5198ZM34.4769 8.14615C34.4769 9.23076 33.8236 9.85384 32.9869 9.85384C32.1616 9.85384 31.4854 9.21922 31.4854 8.14615C31.4854 7.07307 32.1502 6.44999 32.9869 6.44999C33.8121 6.44999 34.4769 7.07307 34.4769 8.14615ZM36.9871 9.51922C36.9871 10.4654 37.7665 11.3423 39.0502 11.3423C39.9442 11.3423 40.5173 10.9269 40.8153 10.4423C40.8153 10.6731 40.8382 11.0077 40.8726 11.1692H42.3626C42.3283 10.9615 42.2939 10.5346 42.2939 10.2115V7.23461C42.2939 6.02307 41.5832 4.93845 39.692 4.93845C38.0874 4.93845 37.2163 5.97692 37.1246 6.92307L38.5573 7.23461C38.6032 6.70384 38.9929 6.25384 39.7035 6.25384C40.3912 6.25384 40.7121 6.61153 40.7121 7.03845C40.7121 7.24615 40.5975 7.41922 40.2651 7.46538L38.7866 7.68461C37.7779 7.83461 36.9871 8.43461 36.9871 9.51922ZM39.394 10.1192C38.8668 10.1192 38.6146 9.77307 38.6146 9.41538C38.6146 8.95384 38.947 8.71153 39.3596 8.65384L40.7121 8.44615V8.71153C40.7007 9.79615 40.0703 10.1192 39.394 10.1192ZM45.4917 11.1692V10.4308C45.8126 10.95 46.443 11.3192 47.2683 11.3192C48.9761 11.3192 50.0994 9.95768 50.0994 8.12307C50.0994 6.33461 49.0907 4.96153 47.3371 4.96153C46.443 4.96153 45.7897 5.35384 45.5261 5.78076V2.27307H43.9329V11.1577H45.4917V11.1692ZM48.4832 8.13461C48.4832 9.2423 47.8299 9.85384 46.9932 9.85384C46.1794 9.85384 45.4917 9.23076 45.4917 8.13461C45.4917 7.02692 46.1794 6.42692 46.9932 6.42692C47.8185 6.42692 48.4832 7.02692 48.4832 8.13461ZM51.0163 9.51922C51.0163 10.4654 51.7957 11.3423 53.0794 11.3423C53.9734 11.3423 54.5465 10.9269 54.8445 10.4423C54.8445 10.6731 54.8675 11.0077 54.9018 11.1692H56.3919C56.3575 10.9615 56.3231 10.5346 56.3231 10.2115V7.23461C56.3231 6.02307 55.6125 4.93845 53.7213 4.93845C52.1166 4.93845 51.2455 5.97692 51.1538 6.92307L52.5866 7.23461C52.6324 6.70384 53.0221 6.25384 53.7327 6.25384C54.4204 6.25384 54.7414 6.61153 54.7414 7.03845C54.7414 7.24615 54.6268 7.41922 54.2944 7.46538L52.8158 7.68461C51.8072 7.83461 51.0163 8.43461 51.0163 9.51922ZM53.4118 10.1192C52.8846 10.1192 52.6324 9.77307 52.6324 9.41538C52.6324 8.95384 52.9648 8.71153 53.3774 8.65384L54.7299 8.44615V8.71153C54.7299 9.79615 54.0995 10.1192 53.4118 10.1192ZM57.4349 9.48461C57.5037 10.1769 58.1341 11.3538 59.9336 11.3538C61.5038 11.3538 62.2603 10.35 62.2603 9.36922C62.2603 8.48076 61.6643 7.76538 60.4837 7.51153L59.6356 7.32692C59.3032 7.26922 59.0854 7.08461 59.0854 6.78461C59.0854 6.43845 59.4293 6.18461 59.8533 6.18461C60.541 6.18461 60.7932 6.63461 60.8391 6.9923L62.1915 6.68076C62.1228 6.03461 61.5497 4.93845 59.8419 4.93845C58.5467 4.93845 57.5954 5.83845 57.5954 6.91153C57.5954 7.75384 58.1226 8.45768 59.2803 8.71153L60.0711 8.89615C60.5296 8.99999 60.713 9.21922 60.713 9.48461C60.713 9.80769 60.4608 10.0846 59.9221 10.0846C59.2115 10.0846 58.8676 9.64615 58.8218 9.16153L57.4349 9.48461ZM64.7246 7.45384C64.759 6.89999 65.2289 6.26538 66.0656 6.26538C66.994 6.26538 67.3837 6.85384 67.4067 7.45384H64.7246ZM67.5671 9.03461C67.3723 9.57691 66.9597 9.95768 66.2032 9.95768C65.4008 9.95768 64.7246 9.38076 64.6902 8.58461H68.9769C68.9769 8.56153 68.9999 8.31922 68.9999 8.07692C68.9999 6.13845 67.8881 4.94999 66.0427 4.94999C64.5068 4.94999 63.097 6.20768 63.097 8.13461C63.097 10.1769 64.5412 11.3654 66.1917 11.3654C67.6703 11.3654 68.6216 10.4885 68.9196 9.44999L67.5671 9.03461Z" fill="#2B3550"/>
<path d="M0.870864 9.15C0.515549 9.15 0.229004 8.86154 0.229004 8.50385C0.229004 8.36539 0.274851 8.22692 0.355084 8.12308L0.595781 7.77693L6.15475 0.219232C6.2006 0.16154 6.26937 0.115387 6.3496 0.115387C6.48714 0.115387 6.5903 0.219234 6.5903 0.357695V0.38077V9.13847H0.870864V9.15Z" fill="#2B3550"/>
<path d="M12.3327 5.88461C12.688 5.88461 12.9746 6.17308 12.9746 6.53077C12.9746 6.66923 12.9287 6.80769 12.8485 6.91154L12.6078 7.25769L7.04883 14.8154C7.00298 14.8731 6.93421 14.9192 6.85398 14.9192C6.71644 14.9192 6.61328 14.8154 6.61328 14.6769V14.6538V5.88461H12.3327Z" fill="#2B3550"/>
</g>
<defs>
<clipPath id="clip0_7660_32165">
<rect width="69" height="15" fill="white"/>
</clipPath>
</defs>
</svg>
