<svg width="66" height="15" viewBox="0 0 66 15" fill="none" xmlns="http://www.w3.org/2000/svg">
<g clip-path="url(#clip0_7660_32168)">
<path d="M38.2788 5.90423H35.6807V6.1803C36.4934 6.1803 36.6241 6.35476 36.6241 7.38706V9.24805C36.6241 10.2802 36.4935 10.4693 35.6807 10.4693C35.0568 10.3821 34.6357 10.0476 34.0552 9.40794L33.3876 8.6811C34.2874 8.52097 34.7663 7.95413 34.7663 7.31434C34.7663 6.51489 34.0843 5.90423 32.8069 5.90423H30.2525V6.1803C31.0651 6.1803 31.1958 6.35476 31.1958 7.38706V9.24805C31.1958 10.2802 31.0651 10.4693 30.2525 10.4693V10.7454H33.1407V10.4693C32.3281 10.4693 32.1974 10.2802 32.1974 9.24805V8.72481H32.4441L34.0552 10.7454H38.2788C40.3543 10.7454 41.2542 9.64067 41.2542 8.31749C41.2542 6.99456 40.3544 5.90423 38.2788 5.90423ZM32.1975 8.27379V6.34044H32.7925C33.4455 6.34044 33.7359 6.79109 33.7359 7.31446C33.7359 7.82338 33.4455 8.27391 32.7925 8.27391L32.1975 8.27379ZM38.3225 10.2948H38.2208C37.6984 10.2948 37.6258 10.164 37.6258 9.49523V6.34044C37.6258 6.34044 38.2644 6.34044 38.3225 6.34044C39.8319 6.34044 40.1075 7.44521 40.1075 8.30305C40.1075 9.18978 39.8318 10.2948 38.3225 10.2948Z" fill="#2B3550"/>
<path d="M22.1685 8.81197L23.17 5.84596C23.4604 4.98824 23.3297 4.74119 22.4008 4.74119V4.4503H25.1294V4.74119C24.2151 4.74119 23.9974 4.95923 23.6345 6.02054L21.9798 10.9926H21.7912L20.3106 6.44205L18.8012 10.9926H18.6125L17.0015 6.02054C16.6532 4.95923 16.421 4.74119 15.5791 4.74119V4.4503H18.8012V4.74119C17.9448 4.74119 17.7125 4.94466 18.0174 5.84596L18.9898 8.81197L20.4558 4.4503H20.7316L22.1685 8.81197Z" fill="#2B3550"/>
<path d="M27.1031 10.9344C25.5066 10.9344 24.2003 9.75686 24.2003 8.31737C24.2003 6.8927 25.5067 5.71496 27.1031 5.71496C28.6997 5.71496 30.0058 6.8927 30.0058 8.31737C30.0058 9.75686 28.6997 10.9344 27.1031 10.9344ZM27.1031 6.16598C25.7679 6.16598 25.3033 7.37249 25.3033 8.31749C25.3033 9.27719 25.7679 10.4693 27.1031 10.4693C28.453 10.4693 28.9175 9.27719 28.9175 8.31749C28.9175 7.37249 28.453 6.16598 27.1031 6.16598Z" fill="#2B3550"/>
<path d="M44.8388 10.4547V10.7454H41.5151V10.4547C42.4877 10.4547 42.6618 10.2076 42.6618 8.75358V6.4276C42.6618 4.97355 42.4877 4.74106 41.5151 4.74106V4.45018H44.5195C46.0144 4.45018 46.8419 5.22073 46.8419 6.25315C46.8419 7.25631 46.0144 8.0413 44.5195 8.0413H43.6922V8.75345C43.6922 10.2076 43.8663 10.4547 44.8388 10.4547ZM44.5195 4.97355H43.6922V7.50336H44.5195C45.3324 7.50336 45.7097 6.93641 45.7097 6.25315C45.7097 5.55532 45.3324 4.97355 44.5195 4.97355Z" fill="#2B3550"/>
<path d="M56.8128 9.37893L56.7402 9.64055C56.6097 10.1203 56.4498 10.2948 55.4194 10.2948H55.2161C54.4615 10.2948 54.3309 10.1203 54.3309 9.08817V8.41948C55.463 8.41948 55.5502 8.52109 55.5502 9.27719H55.8259V7.11086H55.5502C55.5502 7.86684 55.463 7.96858 54.3309 7.96858V6.34044H55.129C56.1597 6.34044 56.3192 6.51489 56.4498 6.99468L56.5226 7.27075H56.7547L56.6532 5.90423H52.3859V6.1803C53.1986 6.1803 53.3294 6.35476 53.3294 7.38706V9.24805C53.3294 10.1923 53.2184 10.4302 52.5776 10.4641C51.9686 10.3709 51.5504 10.0382 50.9783 9.40794L50.3106 8.6811C51.2105 8.52097 51.6895 7.95413 51.6895 7.31434C51.6895 6.51489 51.0074 5.90423 49.7302 5.90423H47.1757V6.1803C47.9884 6.1803 48.119 6.35476 48.119 7.38706V9.24805C48.119 10.2802 47.9885 10.4693 47.1757 10.4693V10.7454H50.0641V10.4693C49.2514 10.4693 49.1207 10.2802 49.1207 9.24805V8.72481H49.3674L50.9784 10.7454H56.9436L57.0308 9.37905L56.8128 9.37893ZM49.1205 8.27379V6.34044H49.7155C50.3687 6.34044 50.6591 6.79109 50.6591 7.31446C50.6591 7.82338 50.3687 8.27391 49.7155 8.27391L49.1205 8.27379Z" fill="#2B3550"/>
<path d="M59.7591 10.9344C59.1786 10.9344 58.6705 10.6291 58.4528 10.44C58.3802 10.5128 58.2497 10.7309 58.2207 10.9344H57.9449V8.92828H58.2351C58.3514 9.88773 59.0188 10.4547 59.8752 10.4547C60.3397 10.4547 60.7171 10.1931 60.7171 9.75698C60.7171 9.37905 60.3833 9.08817 59.7882 8.81197L58.9609 8.41948C58.3802 8.14304 57.9449 7.66325 57.9449 7.0237C57.9449 6.32587 58.598 5.7299 59.4979 5.7299C59.9769 5.7299 60.3832 5.90436 60.6301 6.10783C60.7026 6.04968 60.7752 5.88967 60.8188 5.71509H61.0945V7.43076H60.7897C60.688 6.74738 60.3107 6.18043 59.5416 6.18043C59.1352 6.18043 58.7576 6.41304 58.7576 6.77664C58.7576 7.15457 59.0625 7.35804 59.7592 7.67794L60.5574 8.07044C61.2541 8.40478 61.5298 8.94297 61.5298 9.37905C61.5298 10.2948 60.7315 10.9344 59.7591 10.9344Z" fill="#2B3550"/>
<path d="M64.2294 10.9344C63.6487 10.9344 63.1406 10.6291 62.9231 10.44C62.8505 10.5128 62.72 10.7309 62.691 10.9344H62.4151V8.92828H62.7054C62.8215 9.88773 63.4891 10.4547 64.3455 10.4547C64.81 10.4547 65.1874 10.1931 65.1874 9.75698C65.1874 9.37905 64.8536 9.08817 64.2584 8.81197L63.431 8.41948C62.8505 8.14304 62.415 7.66325 62.415 7.0237C62.415 6.32587 63.0682 5.7299 63.9681 5.7299C64.4471 5.7299 64.8533 5.90436 65.1002 6.10783C65.1727 6.04968 65.2453 5.88967 65.2887 5.71509H65.5646V7.43076H65.2599C65.1582 6.74738 64.7809 6.18043 64.0117 6.18043C63.6053 6.18043 63.2278 6.41304 63.2278 6.77664C63.2278 7.15457 63.5326 7.35804 64.2294 7.67794L65.0275 8.07044C65.7243 8.40478 65.9999 8.94297 65.9999 9.37905C65.9999 10.2948 65.2017 10.9344 64.2294 10.9344Z" fill="#2B3550"/>
<path d="M1.06445 7.49981C1.06445 10.0465 2.542 12.2474 4.68455 13.2903L1.62056 4.88136C1.26416 5.68154 1.06445 6.56705 1.06445 7.49981Z" fill="#2B3550"/>
<path d="M11.8236 7.17514C11.8236 6.37999 11.5384 5.82931 11.2939 5.4007C10.9683 4.87072 10.6631 4.42191 10.6631 3.89192C10.6631 3.30048 11.1109 2.74993 11.7417 2.74993C11.7702 2.74993 11.7972 2.75348 11.8249 2.75507C10.6822 1.70637 9.15963 1.06609 7.48738 1.06609C5.24338 1.06609 3.26913 2.21934 2.12061 3.96611C2.27131 3.97064 2.41333 3.97383 2.53396 3.97383C3.20582 3.97383 4.24581 3.89217 4.24581 3.89217C4.59206 3.87172 4.63288 4.38114 4.28699 4.42215C4.28699 4.42215 3.93903 4.46316 3.55183 4.48349L5.89092 11.4526L7.29659 7.22975L6.29584 4.48324C5.94995 4.46292 5.62227 4.4219 5.62227 4.4219C5.27614 4.40158 5.31672 3.87148 5.66285 3.89192C5.66285 3.89192 6.72362 3.97358 7.35477 3.97358C8.02651 3.97358 9.06662 3.89192 9.06662 3.89192C9.41312 3.87148 9.45382 4.38089 9.10781 4.4219C9.10781 4.4219 8.75911 4.46292 8.37264 4.48324L10.6939 11.3996L11.3346 9.25504C11.6123 8.36512 11.8236 7.72594 11.8236 7.17514Z" fill="#2B3550"/>
<path d="M7.60005 8.06261L5.67285 13.672C6.24827 13.8415 6.85682 13.9342 7.48736 13.9342C8.23536 13.9342 8.95268 13.8046 9.62038 13.5694C9.60315 13.5419 9.58751 13.5126 9.57467 13.4808L7.60005 8.06261Z" fill="#2B3550"/>
<path d="M13.124 4.41296C13.1516 4.6179 13.1672 4.8379 13.1672 5.07455C13.1672 5.72745 13.0455 6.4614 12.6788 7.3791L10.7168 13.0613C12.6264 11.9458 13.9108 9.87353 13.9108 7.49993C13.911 6.38133 13.6257 5.32944 13.124 4.41296Z" fill="#2B3550"/>
<path d="M7.48758 0C3.35903 0 0 3.36439 0 7.49982C0 11.6357 3.35903 15 7.48758 15C11.616 15 14.9755 11.6357 14.9755 7.49982C14.9754 3.36439 11.616 0 7.48758 0ZM7.48758 14.6562C3.54836 14.6562 0.343322 11.4459 0.343322 7.49982C0.343322 3.55403 3.54823 0.343895 7.48758 0.343895C11.4267 0.343895 14.6315 3.55403 14.6315 7.49982C14.6315 11.4459 11.4267 14.6562 7.48758 14.6562Z" fill="#2B3550"/>
</g>
<defs>
<clipPath id="clip0_7660_32168">
<rect width="66" height="15" fill="white"/>
</clipPath>
</defs>
</svg>
