<svg width="52" height="15" viewBox="0 0 52 15" fill="none" xmlns="http://www.w3.org/2000/svg">
<g clip-path="url(#clip0_7660_32167)">
<path fill-rule="evenodd" clip-rule="evenodd" d="M19.8123 3.44796V10.1971H22.2829V11.3612H18.4969V3.44796H19.8123ZM26.9262 6.80532V6.09355H28.1728V11.3612H26.926V10.6488C26.7584 10.9127 26.52 11.12 26.211 11.2706C25.9025 11.4212 25.5917 11.4965 25.2791 11.4965C24.8749 11.4965 24.505 11.423 24.1697 11.2762C23.8432 11.1357 23.5492 10.9299 23.306 10.6715C23.0656 10.415 22.8756 10.1159 22.7459 9.78973C22.611 9.45164 22.543 9.09083 22.5455 8.72708C22.5455 8.35796 22.6123 8.00561 22.7459 7.67002C22.8748 7.34184 23.0648 7.04087 23.306 6.78296C23.5493 6.52455 23.8432 6.31862 24.1697 6.17796C24.505 6.0309 24.8749 5.95737 25.2791 5.95737C25.5917 5.95737 25.9025 6.03296 26.2112 6.18384C26.52 6.33443 26.7584 6.54179 26.9262 6.80532ZM26.8116 9.37149C26.8884 9.16538 26.9272 8.94719 26.9262 8.72737C26.9262 8.5009 26.8878 8.2862 26.8116 8.08267C26.74 7.8869 26.6314 7.70659 26.4916 7.55149C26.3518 7.39897 26.1826 7.27595 25.9941 7.18973C25.7994 7.09943 25.584 7.05414 25.3476 7.05414C25.1113 7.05414 24.8977 7.09943 24.7071 7.18973C24.5165 7.28031 24.3525 7.4009 24.2155 7.55149C24.076 7.70584 23.9691 7.88646 23.9011 8.08267C23.8279 8.28965 23.7911 8.50765 23.7924 8.72708C23.7924 8.95326 23.8284 9.16826 23.9011 9.3712C23.9691 9.56753 24.076 9.74826 24.2155 9.90267C24.3538 10.0543 24.5209 10.1772 24.7071 10.2644C24.8977 10.355 25.1113 10.4 25.3476 10.4C25.584 10.4 25.7997 10.355 25.9941 10.2647C26.1826 10.1786 26.3518 10.0556 26.4916 9.90296C26.6314 9.7478 26.7401 9.56738 26.8116 9.37149ZM29.1563 11.3609V6.09326H32.542V7.30561H30.4029V11.3609H29.1563ZM37.0597 6.80532V6.09355H38.3063V11.3612H37.0595V10.6488C36.8916 10.9127 36.6535 11.12 36.3445 11.2706C36.036 11.4212 35.7252 11.4965 35.4126 11.4965C35.0081 11.4965 34.6385 11.423 34.3032 11.2762C33.9767 11.1357 33.6827 10.9299 33.4395 10.6715C33.1991 10.415 33.0091 10.1159 32.8794 9.78973C32.7445 9.45164 32.6765 9.09083 32.679 8.72708C32.679 8.35796 32.7455 8.00561 32.8794 7.67002C33.0083 7.34184 33.1983 7.04087 33.4395 6.78296C33.6828 6.52455 33.9767 6.31862 34.3032 6.17796C34.6385 6.0309 35.0081 5.95737 35.4126 5.95737C35.7252 5.95737 36.036 6.03296 36.3447 6.18384C36.6535 6.33443 36.8916 6.54179 37.0597 6.80532ZM36.9451 9.37149C37.0217 9.16536 37.0605 8.94717 37.0595 8.72737C37.0595 8.5009 37.021 8.2862 36.9451 8.08267C36.8734 7.88687 36.7647 7.70657 36.6248 7.55149C36.485 7.39897 36.3158 7.27595 36.1273 7.18973C35.9329 7.09943 35.7175 7.05414 35.4811 7.05414C35.2448 7.05414 35.0312 7.09943 34.8406 7.18973C34.65 7.28031 34.486 7.4009 34.349 7.55149C34.2094 7.70581 34.1024 7.88644 34.0343 8.08267C33.9611 8.28965 33.9243 8.50765 33.9256 8.72708C33.9256 8.95326 33.9616 9.16826 34.0343 9.3712C34.1023 9.56755 34.2094 9.74829 34.349 9.90267C34.4873 10.0543 34.6544 10.1772 34.8406 10.2644C35.0312 10.355 35.2448 10.4 35.4811 10.4C35.7175 10.4 35.9332 10.355 36.1273 10.2647C36.3158 10.1786 36.485 10.0556 36.6248 9.90296C36.7648 9.74782 36.8735 9.5674 36.9451 9.37149ZM43.3042 6.09326H44.567L42.5206 11.3609H40.9541L38.9078 6.09326H40.1706L41.7374 10.1271L43.3042 6.09326ZM47.2857 5.95796C48.9834 5.95796 50.141 7.44473 49.9235 9.18502H45.7878C45.7878 9.63943 46.2519 10.518 47.3543 10.518C48.3027 10.518 48.9379 9.69355 48.9385 9.69296L49.7805 10.3371C49.0277 11.1318 48.4111 11.4968 47.4456 11.4968C45.7201 11.4968 44.551 10.418 44.551 8.72737C44.551 7.19796 45.7594 5.95796 47.2857 5.95796ZM45.791 8.26943H48.7787C48.7695 8.16796 48.6076 6.93649 47.276 6.93649C45.9444 6.93649 45.8008 8.16796 45.791 8.26943ZM50.7355 11.3609V3.44796H51.9823V11.3609H50.7355ZM14.703 3.3862C14.7084 3.40614 14.7112 3.42671 14.7113 3.44737V6.66032C14.7112 6.70164 14.7002 6.74221 14.6792 6.7779C14.6583 6.8136 14.6283 6.84315 14.5922 6.86355L11.864 8.4162V11.4935C11.8639 11.5348 11.8528 11.5753 11.8319 11.611C11.811 11.6466 11.781 11.6761 11.7449 11.6965L6.05032 14.9374C6.03732 14.945 6.02284 14.9494 6.00895 14.9544C6.00334 14.9562 5.99832 14.9594 5.993 14.9609C5.9531 14.9713 5.91117 14.9713 5.87127 14.9609C5.86477 14.9591 5.85886 14.9556 5.85266 14.9533C5.83936 14.9488 5.82607 14.9444 5.81366 14.9374L0.118773 11.6971C0.0826857 11.6766 0.0526859 11.647 0.0318239 11.6113C0.0109619 11.5755 -1.82259e-05 11.5349 2.27094e-08 11.4935V1.85473C4.69236e-05 1.83406 0.00282843 1.81349 0.00827275 1.79355C0.0100455 1.78649 0.0141818 1.78032 0.0165455 1.77384C0.0212728 1.76149 0.0254091 1.74884 0.0319091 1.73737C0.0363409 1.72973 0.0428409 1.72355 0.0478637 1.71679C0.0549546 1.70737 0.0608637 1.69737 0.0691364 1.68914C0.0759318 1.68237 0.0847955 1.67737 0.0924773 1.67149C0.101045 1.66502 0.108727 1.65737 0.118477 1.65179L0.118773 1.65149L2.96636 0.0311975C3.00239 0.0108298 3.04311 0.00012207 3.08455 0.00012207C3.12598 0.00012207 3.1667 0.0108298 3.20273 0.0311975L6.05032 1.65149H6.05091C6.06036 1.65737 6.06805 1.66502 6.07691 1.67149C6.08459 1.67737 6.09316 1.68237 6.09995 1.68914C6.10823 1.69737 6.11414 1.70737 6.12123 1.71649C6.12655 1.72355 6.13305 1.72973 6.13748 1.73737C6.14398 1.74884 6.14811 1.76149 6.15284 1.77384C6.1552 1.78032 6.15905 1.78649 6.16111 1.79355C6.16646 1.81351 6.16914 1.83407 6.16909 1.85473V7.87502L8.54218 6.52473V3.44737C8.54213 3.42672 8.54481 3.40615 8.55016 3.3862C8.55223 3.37914 8.55607 3.37326 8.55873 3.36649C8.56316 3.35414 8.5673 3.34149 8.57379 3.33002C8.57823 3.32237 8.58473 3.3162 8.59004 3.30943C8.59714 3.30002 8.60305 3.29002 8.61132 3.28208C8.61811 3.27532 8.62668 3.27031 8.63436 3.26443C8.64323 3.25767 8.65091 3.24973 8.66066 3.24443V3.24414L11.5082 1.62384C11.5443 1.60337 11.5851 1.5926 11.6266 1.5926C11.6681 1.5926 11.7089 1.60337 11.7449 1.62384L14.5922 3.24414C14.6022 3.25002 14.6102 3.25767 14.6191 3.26414C14.6265 3.27002 14.6353 3.27532 14.6421 3.28179C14.6504 3.29002 14.6563 3.30002 14.6631 3.30914C14.6684 3.3162 14.6749 3.32237 14.6794 3.33002C14.6862 3.34149 14.69 3.35414 14.6947 3.36649C14.6974 3.37326 14.7012 3.37914 14.703 3.3862ZM14.2368 6.52473V3.85296L13.2402 4.42002L11.864 5.20326V7.87502L14.2368 6.52473ZM11.3895 11.358V8.68443L10.0351 9.44855L6.16909 11.6294V14.328L11.3895 11.3574V11.358ZM0.4745 2.26031V11.358L5.69459 14.3285V11.6303L2.96755 10.105L2.96695 10.1041L2.96577 10.1038C2.95632 10.0985 2.94893 10.0909 2.94036 10.0844C2.93268 10.0785 2.92441 10.0738 2.91761 10.0674L2.91702 10.0665C2.90934 10.0591 2.90402 10.05 2.89752 10.0418C2.89161 10.0341 2.88452 10.0274 2.8798 10.0191L2.8795 10.0183C2.87418 10.0094 2.87093 9.99884 2.86709 9.98884C2.86325 9.98032 2.85823 9.97208 2.85586 9.96267C2.85261 9.95149 2.85232 9.93943 2.85084 9.92796C2.84995 9.91914 2.8473 9.91061 2.8473 9.90149V3.61031L1.47136 2.82737L0.4745 2.26031ZM3.08455 0.505021L0.712932 1.85502L3.08455 3.20443L5.45645 1.85473L3.08455 0.505021ZM4.31836 8.92796L5.69459 8.14502V2.26031L4.69832 2.82737L3.3218 3.61061V9.49502L4.31836 8.92796ZM11.6267 2.09796L9.25482 3.44737L11.6267 4.79708L13.9983 3.44737L11.6267 2.09796ZM11.3895 5.20326L10.013 4.42002L9.01668 3.85296V6.52473L10.3929 7.30796L11.3895 7.87502V5.20326ZM5.93155 11.2238L9.41052 9.2609L11.1496 8.27973L8.77943 6.9309L6.05032 8.48384L3.56318 9.89914L5.93155 11.2238Z" fill="#2B3550"/>
</g>
<defs>
<clipPath id="clip0_7660_32167">
<rect width="52" height="15" fill="white"/>
</clipPath>
</defs>
</svg>
