<svg width="81" height="15" viewBox="0 0 81 15" fill="none" xmlns="http://www.w3.org/2000/svg">
<g clip-path="url(#clip0_7660_32166)">
<path d="M27.5317 3.4355H29.9288L35.0087 11.5036V3.4355H37.2214V14.8676H34.8408L29.7444 6.81628V14.8676H27.5317V3.4355Z" fill="#2B3550"/>
<path d="M47.1122 14.8676H45.0502V13.5906C44.5808 14.4893 43.6254 14.9953 42.4187 14.9953C40.5075 14.9953 39.2664 13.656 39.2664 11.7286V6.6359H41.3284V11.3072C41.3284 12.4341 42.0328 13.2179 43.0888 13.2179C44.2456 13.2179 45.0502 12.336 45.0502 11.1276V6.6359H47.1122V14.8676Z" fill="#2B3550"/>
<path d="M54.2871 14.7374L52.3091 11.9935L50.3306 14.7374H48.1341L51.1859 10.442L48.3692 6.50576H50.6156L52.3091 8.87453L53.9848 6.50576H56.2486L53.4149 10.442L56.4663 14.7374H54.2871Z" fill="#2B3550"/>
<path d="M60.6575 4.15361V6.63572H63.0048V8.31814H60.6575V12.4044C60.6575 12.5417 60.7133 12.6733 60.8131 12.7704C60.9125 12.8675 61.0474 12.9222 61.1886 12.9224H63.0048V14.8642H61.6465C59.8023 14.8642 58.5955 13.8187 58.5955 11.9911V8.31976H56.936V6.63572H57.9772C58.4628 6.63572 58.7456 6.35402 58.7456 5.88791V4.15361H60.6575Z" fill="#2B3550"/>
<path d="M68.2024 12.2785V3.4355H70.4145V11.6009C70.4145 13.8061 69.3249 14.8676 67.481 14.8676H64.906V12.9258H67.5383C67.7142 12.9258 67.8835 12.8576 68.008 12.7362C68.1326 12.6148 68.2024 12.4502 68.2024 12.2785Z" fill="#2B3550"/>
<path d="M71.7398 11.0293H73.8698C73.9877 12.3063 74.8596 13.1196 76.2677 13.1196C77.5251 13.1196 78.3977 12.6303 78.3977 11.6176C78.3977 9.16736 72.0898 10.8657 72.0898 6.4889C72.0913 4.61098 73.7512 3.30605 76.1358 3.30605C78.6173 3.30605 80.2934 4.69395 80.3958 6.83368H78.2772C78.1774 5.83765 77.3762 5.16803 76.1317 5.16803C74.9749 5.16803 74.2542 5.69079 74.2542 6.49052C74.2542 9.02212 80.6441 7.129 80.6441 11.5864C80.6441 13.7094 78.8497 14.9999 76.2685 14.9999C73.603 14.9999 71.8596 13.4316 71.7424 11.0309" fill="#2B3550"/>
<path fill-rule="evenodd" clip-rule="evenodd" d="M10.3151 1.14479C9.69618 0.087703 8.1489 0.087703 7.52998 1.14479L0.784724 12.6654C0.165807 13.7225 0.939452 15.0439 2.17729 15.0439H7.44301C6.91408 14.5847 6.7182 13.7904 7.11847 13.1088L12.227 4.41029L10.3151 1.14479Z" fill="#2B3550"/>
<path d="M14.5892 3.67182C15.1014 2.80692 16.3819 2.80692 16.8941 3.67182L22.4764 13.0978C22.9886 13.9627 22.3484 15.0438 21.3239 15.0438H10.1594C9.135 15.0438 8.49471 13.9627 9.00694 13.0978L14.5892 3.67182Z" fill="#2B3550"/>
</g>
<defs>
<clipPath id="clip0_7660_32166">
<rect width="81" height="15" fill="white"/>
</clipPath>
</defs>
</svg>
