<svg width="44" height="44" viewBox="0 0 44 44" fill="none" xmlns="http://www.w3.org/2000/svg">
<path d="M5.94599 21.8888L9.52679 25.4304C9.96533 25.864 11.3374 26.7864 11.5137 27.3957C11.6841 27.9828 11.2295 29.1718 11.1312 29.7521C10.8566 31.3799 10.5814 33.0077 10.3059 34.6356C10.0365 36.2366 8.81612 39.3733 9.46022 40.9407C9.51169 41.0785 9.63804 41.1743 9.78474 41.1863C11.4647 41.2982 13.4574 39.5853 14.8704 38.83L19.3206 36.4554C19.9265 36.1309 21.3155 35.0088 22.0221 35.014C23.2684 35.0242 26.8338 37.67 28.2228 38.4105C29.7529 39.2272 32.199 41.3102 34.0127 41.1891C34.225 41.1829 34.4182 41.0637 34.519 40.8766C35.1341 39.3801 34.0478 36.6354 33.7926 35.1179C33.5103 33.4518 33.2286 31.7852 32.9476 30.1182C32.8332 29.4451 32.281 27.964 32.5013 27.3036C32.7032 26.6977 33.8835 25.918 34.319 25.4856L37.8588 21.9849C39.0234 20.8329 41.5961 19.1807 41.9993 17.5125C42.0063 17.409 41.9595 17.3091 41.8754 17.2487C40.6442 16.212 37.7349 16.3957 36.2202 16.1713L31.8326 15.5251C31.0753 15.4135 29.2965 15.4976 28.653 15.0538C27.4896 14.2553 26.5315 10.9229 25.9176 9.66061L22.8139 3.27164C22.8083 3.22017 22.7846 3.1721 22.7467 3.13696C22.7041 3.05992 22.6305 3.00506 22.5448 2.98595L22.3716 2.87778C22.1907 2.76622 21.9642 2.75944 21.7771 2.86021C20.3777 3.73546 19.7385 6.34362 19.0518 7.75665C18.2681 9.36753 17.4847 10.9784 16.7016 12.5893C16.375 13.439 15.9965 14.2677 15.5684 15.0714C14.4664 15.9137 9.6476 15.9189 7.97323 16.1661C6.39163 16.3991 3.45217 16.212 2.16365 17.2977C2.04222 17.3812 1.98059 17.5276 2.00555 17.6728C2.37845 19.2211 4.86889 20.8227 5.94599 21.8888ZM3.52243 17.5745C4.78075 17.0715 6.56051 17.1261 7.89834 16.9288C10.0957 16.6049 13.7036 16.7942 15.6966 15.7784C17.1507 15.0378 17.7532 12.495 18.4244 11.1146L20.9154 5.99414C21.1848 5.43479 21.4412 4.86095 21.7334 4.31115C21.868 4.05782 21.9435 3.9139 21.9805 3.82699L24.8895 9.80792C25.5912 11.2502 26.4319 14.4748 27.7004 15.5109C28.9236 16.5115 31.8575 16.3269 33.3353 16.5445L37.7229 17.1914C38.0918 17.246 40.6987 17.3261 40.9024 17.6626C41.5247 18.6873 32.3411 25.3376 31.6403 27.0206C31.0806 28.3631 32.044 30.8144 32.2723 32.1575C32.5417 33.7483 32.811 35.3392 33.0801 36.93C33.2089 37.6897 33.9285 39.6017 33.6564 40.3422C33.6533 40.3539 33.6508 40.3656 33.649 40.3777C33.342 40.2248 33.0471 40.0485 32.7673 39.8507C31.4677 39.0947 30.1046 38.4299 28.7781 37.7227C27.0776 36.815 24.3893 34.6054 22.4579 34.3508C21.1395 34.1773 19.7339 35.3795 18.6278 35.97C16.2209 37.2539 13.4269 39.4318 10.7968 40.1481C10.6258 40.1854 10.4634 40.2538 10.3173 40.3502C10.4042 40.1847 10.4381 39.9967 10.415 39.8115C10.3632 38.5606 10.8754 37.0878 11.0834 35.8551C11.3528 34.2642 11.6221 32.6734 11.8915 31.0825C12.0542 30.121 12.6407 28.5535 12.4851 27.5714C12.302 26.4169 11.1022 25.6628 10.2757 24.8449C8.07216 22.6648 5.75338 20.5577 3.64478 18.2861C2.86723 17.4494 2.6626 17.9166 3.52243 17.5745Z" fill="#0041E6" stroke="#0041E6"/>
</svg>
