<svg width="42" height="42" viewBox="0 0 42 42" fill="none" xmlns="http://www.w3.org/2000/svg">
<path d="M32.0776 39.8214C31.9664 39.8214 31.8625 39.7666 31.7996 39.6751C31.7371 39.5832 31.7235 39.4664 31.7639 39.3629L32.179 38.2904L30.8739 39.0445C30.7336 39.1256 30.5555 39.0954 30.4498 38.9727C30.3444 38.85 30.341 38.6694 30.4421 38.5431L31.2656 37.5094L29.6957 38.4158C29.5511 38.4984 29.3681 38.4633 29.2648 38.3329C29.1613 38.2029 29.1684 38.0164 29.2815 37.8947L30.6279 36.4539L28.4136 37.7332C28.2614 37.8201 28.0675 37.7751 27.9686 37.6299C27.87 37.4851 27.8993 37.2882 28.0361 37.1781L28.4676 36.8364L27.6336 37.3178C27.4814 37.4022 27.29 37.3569 27.192 37.2136C27.094 37.07 27.1211 36.8752 27.2552 36.7643L28.4805 35.7799L26.689 36.8142C26.5349 36.9045 26.3368 36.8586 26.2381 36.7097C26.1392 36.5609 26.174 36.3608 26.3174 36.2539L27.4133 35.4273L25.8162 36.3488C25.6615 36.437 25.4649 36.3892 25.3678 36.2397C25.2708 36.0903 25.3068 35.8912 25.4501 35.7855L26.4338 35.0705L24.9863 35.902C24.8313 35.9876 24.6362 35.9383 24.5404 35.7895C24.4445 35.6403 24.4806 35.4428 24.6226 35.3371L25.7115 34.5654L24.1561 35.4622C24.0001 35.5469 23.805 35.4958 23.7104 35.3454C23.6161 35.195 23.6546 34.9971 23.7986 34.8933L23.8365 34.8671L23.454 35.088C23.299 35.1759 23.1024 35.1281 23.0053 34.9786C22.9082 34.8295 22.9443 34.6301 23.0879 34.5244L26.068 32.3511L22.3492 34.4988C22.1935 34.5872 21.9957 34.5379 21.8992 34.3869C21.8031 34.2359 21.8419 34.0359 21.9877 33.932L24.6975 32.0339L21.3507 33.9662C21.1963 34.0535 21.0002 34.0057 20.9035 33.8568C20.8064 33.7083 20.8415 33.5098 20.9839 33.4035L25.7907 29.8803L9.03468 39.5542C8.87658 39.6424 8.67688 39.59 8.58257 39.4353C8.48857 39.2803 8.53388 39.0787 8.6852 38.9792L20.3638 31.5541L9.30711 37.9363C9.1484 38.0213 8.95116 37.9662 8.85901 37.8115C8.76717 37.6564 8.8134 37.4567 8.96379 37.3581L10.4289 36.4665L9.46213 37.0256C9.30187 37.1202 9.09539 37.0672 9.00078 36.9069C8.90616 36.747 8.95917 36.5405 9.11943 36.4459L12.0555 34.6624L9.62084 36.0653C9.4609 36.1602 9.2541 36.1072 9.15949 35.9473C9.06457 35.7873 9.11758 35.5805 9.27753 35.4859L14.312 32.4272L9.79466 35.0353C9.63564 35.1232 9.43532 35.0692 9.34255 34.913C9.24948 34.7567 9.29756 34.5549 9.45073 34.4572L18.2916 29.0347L10.0033 33.8149C9.84489 33.9037 9.64427 33.8507 9.55058 33.695C9.45658 33.5391 9.50343 33.3372 9.65598 33.2386L21.8955 25.5688L10.2613 32.2866C10.1022 32.376 9.90067 32.3227 9.80699 32.1661C9.7133 32.0093 9.76168 31.8065 9.91578 31.7088L17.0974 27.2703L10.4619 31.1017C10.3025 31.1975 10.0954 31.1461 9.9996 30.9867C9.90376 30.8274 9.95522 30.6206 10.1146 30.5248L19.2482 24.7839L10.6939 29.7235C10.5349 29.8196 10.3281 29.7685 10.232 29.6094C10.1358 29.4501 10.187 29.2433 10.346 29.1472L18.6571 23.8914L10.9251 28.3554C10.7664 28.446 10.5648 28.3937 10.4702 28.2377C10.3756 28.0815 10.4227 27.8784 10.5762 27.7798L17.7356 23.23L11.1479 27.0339C10.9895 27.1246 10.7876 27.0722 10.693 26.9162C10.5984 26.76 10.6456 26.5569 10.799 26.4583L16.404 22.8901L10.8092 26.1217C10.6511 26.2086 10.4523 26.1553 10.3589 26.0009C10.2656 25.8465 10.3106 25.6459 10.4613 25.546L14.084 23.2571L10.1857 25.5069C10.0283 25.5904 9.83287 25.5362 9.74073 25.3836C9.64827 25.2311 9.6908 25.0332 9.83781 24.9321L13.4161 22.6611L9.55982 24.8868C9.4008 24.9787 9.1974 24.926 9.10309 24.7688C9.00848 24.6113 9.05748 24.4073 9.21312 24.3099L9.58941 24.0757L9.0507 24.3854C8.89353 24.4732 8.69475 24.4218 8.60014 24.2686C8.50522 24.1151 8.54805 23.9145 8.69722 23.8131L16.4881 18.6858L8.1545 23.4966C8.05219 23.5598 7.92398 23.5632 7.81796 23.5062C7.71226 23.4488 7.64507 23.3394 7.64168 23.2192C7.63829 23.099 7.69931 22.9863 7.80194 22.9231L15.305 18.0254L7.29343 22.6485C7.13626 22.7317 6.94149 22.6784 6.84872 22.5264C6.75596 22.3745 6.79757 22.1767 6.94334 22.075L13.6272 17.7662L6.50911 21.8728C6.35101 21.9612 6.1513 21.9085 6.05731 21.7538C5.96331 21.5991 6.00861 21.3976 6.15993 21.298L12.1517 17.4667L5.77932 21.1479C5.62523 21.2367 5.4283 21.1905 5.3303 21.0416C5.2323 20.8931 5.26681 20.694 5.40919 20.587L9.36104 17.6288L4.85046 20.2308C4.69883 20.3183 4.5056 20.2752 4.40575 20.1315C4.30589 19.9879 4.33271 19.7916 4.46738 19.68L7.31562 17.3338L3.91049 19.2991C3.76102 19.3842 3.5718 19.3429 3.47102 19.2036C3.37055 19.0643 3.3909 18.8714 3.51879 18.7564L5.05108 17.3973L3.11599 18.5133C2.97793 18.5931 2.80288 18.565 2.69656 18.4461C2.59054 18.3271 2.58253 18.1502 2.67714 18.022L3.43127 17.0013L2.26725 17.6747C2.15723 17.7379 2.02102 17.7342 1.91469 17.6648C1.80837 17.5955 1.75043 17.4722 1.7643 17.3462L1.81546 16.8876L1.66784 16.973C1.56367 17.0331 1.43516 17.0331 1.33099 16.973C1.22682 16.9126 1.16272 16.8013 1.16272 16.6811C1.16272 16.5606 1.22713 16.4494 1.3313 16.3893L2.05522 15.972C2.16555 15.9097 2.30146 15.9137 2.40779 15.9828C2.5138 16.0521 2.57174 16.1751 2.55787 16.3011L2.50671 16.7591L4.49358 15.6145C4.63134 15.5347 4.80639 15.5627 4.91271 15.6814C5.01903 15.8 5.02735 15.9769 4.93305 16.1051L4.17923 17.1258L7.58898 15.1574C7.73876 15.0708 7.92953 15.1115 8.03061 15.2517C8.1317 15.392 8.11043 15.5861 7.98099 15.7008L6.44932 17.0565L10.4847 14.7272C10.6363 14.6394 10.8302 14.6825 10.93 14.8265C11.0299 14.9707 11.0024 15.1673 10.8671 15.2786L8.02198 17.6248L13.9182 14.2236C14.0726 14.1346 14.2692 14.1811 14.3675 14.3297C14.4655 14.4782 14.431 14.6776 14.2886 14.7842L10.3386 17.7379L24.7015 9.4434C24.859 9.35926 25.055 9.41258 25.1481 9.56544C25.2409 9.71799 25.1983 9.91677 25.051 10.0179L19.0544 13.8554L25.1376 10.343C25.2951 10.2576 25.492 10.3103 25.5854 10.4632C25.6791 10.616 25.6363 10.8154 25.4886 10.9165L18.8038 15.2252L25.6036 11.299C25.7611 11.2124 25.9586 11.2645 26.0529 11.4176C26.1469 11.5708 26.1041 11.7705 25.9559 11.8719L18.458 16.7711L26.1152 12.3493C26.273 12.2596 26.4733 12.3111 26.5682 12.4655C26.6634 12.6199 26.6191 12.8217 26.4681 12.9222L18.6809 18.0482L26.6539 13.4473C26.8126 13.3598 27.0117 13.4137 27.1051 13.5691C27.1981 13.7244 27.1516 13.9253 27 14.0242L26.6141 14.2646L27.0182 14.0316C27.1763 13.9447 27.375 13.9981 27.4684 14.1525C27.5618 14.3069 27.5168 14.5075 27.3661 14.6073L23.7927 16.8756L28.2561 14.2982C28.4149 14.2076 28.6164 14.26 28.711 14.416C28.8056 14.5722 28.7585 14.7753 28.605 14.8739L24.9875 17.1588L29.5992 14.4961C29.7573 14.4079 29.957 14.4603 30.0513 14.6153C30.1453 14.7701 30.1 14.9716 29.9487 15.0712L24.336 18.6427L31.1281 14.7217C31.2862 14.6363 31.4834 14.6896 31.5765 14.8431C31.6696 14.9966 31.6258 15.1963 31.477 15.2967L24.3151 19.8477L32.7744 14.9642C32.9328 14.8736 33.1347 14.9257 33.2293 15.0819C33.3239 15.2382 33.2768 15.4413 33.123 15.5396L24.8146 20.7911L34.4775 15.2126C34.6362 15.1235 34.8365 15.1769 34.9305 15.3325C35.0242 15.4881 34.9776 15.69 34.8251 15.7889L25.6957 21.5261L36.1937 15.4669C36.3528 15.3775 36.5543 15.4308 36.6477 15.5877C36.7414 15.7442 36.6933 15.947 36.5392 16.0447L29.3468 20.49L37.6693 15.6851C37.8284 15.5935 38.0314 15.6459 38.1261 15.8034C38.2207 15.9606 38.1717 16.1646 38.016 16.262L25.7833 23.9274L39.5748 15.9658C39.7345 15.8706 39.941 15.923 40.0362 16.0826C40.1314 16.2423 40.079 16.449 39.9194 16.5443L31.0813 21.9699L40.0063 16.8167C40.1659 16.7258 40.3687 16.7797 40.4624 16.9375C40.5561 17.0956 40.5059 17.2993 40.3496 17.3958L35.2963 20.4659L37.7495 19.052C37.9097 18.957 38.1162 19.0101 38.2111 19.17C38.3057 19.3303 38.253 19.5367 38.0928 19.6317L35.1777 21.4028L35.6492 21.1304C35.8085 21.0395 36.0116 21.0931 36.1053 21.2512C36.199 21.409 36.1487 21.613 35.9925 21.7091L33.7612 23.0658C33.8984 23.043 34.0361 23.1052 34.1095 23.2232C34.2038 23.3798 34.1557 23.5832 34.0016 23.6812L22.3257 31.1044L30.8085 26.208C30.9632 26.1183 31.1611 26.1655 31.2588 26.3153C31.3565 26.465 31.3201 26.665 31.1762 26.7708L26.3685 30.2945L31.0434 27.5955C31.1993 27.507 31.3972 27.556 31.4933 27.7073C31.5898 27.8583 31.5509 28.0583 31.4049 28.1622L28.6984 30.0575L31.2138 28.6054C31.3688 28.5148 31.5676 28.5619 31.6656 28.7123C31.7633 28.8627 31.726 29.0636 31.5805 29.1687L28.6004 31.3405L31.403 29.725C31.5596 29.6369 31.7574 29.6871 31.853 29.8393C31.9485 29.9913 31.9078 30.1916 31.7605 30.2945L31.6003 30.4036C31.7574 30.3593 31.9238 30.4348 31.9944 30.5821C32.0653 30.7294 32.02 30.9063 31.8869 31.0012L30.799 31.7763L31.6656 31.2761C31.8203 31.188 32.0172 31.2357 32.1143 31.3852C32.2114 31.5347 32.175 31.7338 32.0317 31.8395L31.0501 32.5526L31.8077 32.1156C31.9614 32.0265 32.1581 32.0725 32.2567 32.2207C32.3553 32.3689 32.3214 32.5683 32.179 32.6756L31.0837 33.5024L31.959 32.9982C32.1112 32.9123 32.3038 32.9566 32.4025 33.1009C32.5011 33.2451 32.4733 33.4408 32.338 33.5514L31.1115 34.5364L32.1214 33.9542C32.2736 33.8689 32.4659 33.9142 32.5643 34.0587C32.6623 34.2029 32.6339 34.3986 32.4983 34.509L32.0659 34.8523L32.2545 34.7432C32.3988 34.6606 32.5818 34.6957 32.6854 34.8258C32.7889 34.9561 32.7818 35.1423 32.6687 35.2643L31.3223 36.7045L32.4727 36.0406C32.6126 35.9602 32.7902 35.9904 32.8955 36.1128C33.0006 36.2351 33.0043 36.4148 32.9042 36.5414L32.081 37.5748L32.6746 37.2321C32.7985 37.1609 32.9535 37.1754 33.062 37.2681C33.1705 37.3612 33.2084 37.5125 33.1566 37.6457L32.7415 38.7172L32.9097 38.6211C33.0694 38.5375 33.2669 38.5946 33.3572 38.7508C33.4475 38.9071 33.3985 39.1068 33.2463 39.2035L32.2505 39.7777C32.1978 39.8076 32.138 39.8227 32.0776 39.8214Z" fill="#0041E6"/>
<path d="M15.0452 14.3583C14.8976 14.358 14.7675 14.2616 14.7241 14.1207C14.6806 13.9796 14.7342 13.8267 14.856 13.7435L16.294 12.7647L15.8391 13.0267C15.6831 13.1163 15.4844 13.068 15.3873 12.9166C15.2905 12.7653 15.3293 12.5644 15.476 12.4602L17.5415 10.992L16.5485 11.5649C16.3938 11.6531 16.1969 11.605 16.0998 11.4558C16.0027 11.3064 16.0391 11.1073 16.1824 11.0013L17.846 9.78949L17.2401 10.139C17.0866 10.2259 16.8918 10.1793 16.7941 10.0326C16.6961 9.88595 16.7285 9.6884 16.8678 9.58023L18.3804 8.42824L17.9517 8.67602C17.7985 8.76293 17.6044 8.71731 17.5064 8.57124C17.408 8.42546 17.4386 8.22853 17.5766 8.11913L18.4848 7.41185C18.3351 7.44297 18.1834 7.36932 18.115 7.23248C18.0469 7.09596 18.0793 6.93015 18.1939 6.82938L19.271 5.88017C19.1262 5.93472 18.9628 5.88325 18.875 5.75566C18.7875 5.62807 18.798 5.45734 18.9009 5.34146L19.9922 4.12968C19.8683 4.12259 19.7583 4.04801 19.7059 3.93522C19.6538 3.82242 19.6677 3.69021 19.7425 3.59097L20.3484 2.77429C20.3401 2.76134 20.3324 2.74778 20.3253 2.73391C20.2326 2.57304 20.2877 2.36717 20.4486 2.2741L20.9873 1.96253C21.1251 1.88271 21.3001 1.91075 21.4064 2.0294C21.5124 2.14806 21.5211 2.32495 21.4268 2.45316L21.2493 2.69293L21.3839 2.6168C21.5272 2.53421 21.7094 2.56811 21.8135 2.69693C21.9177 2.82575 21.9128 3.01097 21.8018 3.13394L20.8317 4.21104L21.8684 3.61316C22.0182 3.5278 22.2083 3.5694 22.3088 3.70932C22.4093 3.84923 22.388 4.04277 22.2589 4.15711L21.1926 5.09091L22.278 4.4616C22.4308 4.37469 22.625 4.4203 22.7233 4.56638C22.8216 4.71215 22.7908 4.90908 22.6527 5.01849L21.8404 5.6518L22.6339 5.19323C22.7874 5.10817 22.9806 5.15501 23.0777 5.3014C23.1748 5.44748 23.1434 5.64348 23.0056 5.75227L21.4915 6.90735L23.0346 6.01731C23.1896 5.92917 23.3862 5.97725 23.4833 6.12672C23.5804 6.27588 23.5443 6.47527 23.4007 6.58098L21.738 7.79276L23.4223 6.81797C23.5782 6.72798 23.777 6.77637 23.8738 6.928C23.9708 7.07931 23.932 7.28025 23.7853 7.38411L21.7199 8.84983L23.8201 7.63805C23.977 7.54683 24.1776 7.59645 24.2741 7.74992C24.3706 7.9034 24.3283 8.10557 24.1786 8.20758L22.7384 9.1876L24.1718 8.36044C24.3326 8.26891 24.537 8.32438 24.6294 8.48464C24.7222 8.64489 24.6679 8.84983 24.5083 8.94321L15.211 14.3102C15.1608 14.3404 15.1038 14.3568 15.0452 14.3583Z" fill="#0041E6"/>
<path d="M4.94599 20.8888L8.52679 24.4304C8.96533 24.864 10.3374 25.7864 10.5137 26.3957C10.6841 26.9828 10.2295 28.1718 10.1312 28.7521C9.8566 30.3799 9.5814 32.0077 9.30588 33.6356C9.03653 35.2366 7.81612 38.3733 8.46022 39.9407C8.51169 40.0785 8.63804 40.1743 8.78474 40.1863C10.4647 40.2982 12.4574 38.5853 13.8704 37.83L18.3206 35.4554C18.9265 35.1309 20.3155 34.0088 21.0221 34.014C22.2684 34.0242 25.8338 36.67 27.2228 37.4105C28.7529 38.2272 31.199 40.3102 33.0127 40.1891C33.225 40.1829 33.4182 40.0637 33.519 39.8766C34.1341 38.3801 33.0478 35.6354 32.7926 34.1179C32.5103 32.4518 32.2286 30.7852 31.9476 29.1182C31.8332 28.4451 31.281 26.964 31.5013 26.3036C31.7032 25.6977 32.8835 24.918 33.319 24.4856L36.8588 20.9849C38.0234 19.8329 40.5961 18.1807 40.9993 16.5125C41.0063 16.409 40.9595 16.3091 40.8754 16.2487C39.6442 15.212 36.7349 15.3957 35.2202 15.1713L30.8326 14.5251C30.0753 14.4135 28.2965 14.4976 27.653 14.0538C26.4896 13.2553 25.5315 9.92293 24.9176 8.66061L21.8139 2.27164C21.8083 2.22017 21.7846 2.1721 21.7467 2.13696C21.7041 2.05992 21.6305 2.00506 21.5448 1.98595L21.3716 1.87778C21.1907 1.76622 20.9642 1.75944 20.7771 1.86021C19.3777 2.73546 18.7385 5.34362 18.0518 6.75665C17.2681 8.36753 16.4847 9.97841 15.7016 11.5893C15.375 12.439 14.9965 13.2677 14.5684 14.0714C13.4664 14.9137 8.6476 14.9189 6.97323 15.1661C5.39163 15.3991 2.45217 15.212 1.16365 16.2977C1.04222 16.3812 0.980586 16.5276 1.00555 16.6728C1.37845 18.2211 3.86889 19.8227 4.94599 20.8888ZM2.52243 16.5745C3.78075 16.0715 5.56051 16.1261 6.89834 15.9288C9.0957 15.6049 12.7036 15.7942 14.6966 14.7784C16.1507 14.0378 16.7532 11.495 17.4244 10.1146L19.9154 4.99414C20.1848 4.43479 20.4412 3.86095 20.7334 3.31115C20.868 3.05782 20.9435 2.9139 20.9805 2.82699L23.8895 8.80792C24.5912 10.2502 25.4319 13.4748 26.7004 14.5109C27.9236 15.5115 30.8575 15.3269 32.3353 15.5445L36.7229 16.1914C37.0918 16.246 39.6987 16.3261 39.9024 16.6626C40.5247 17.6873 31.3411 24.3376 30.6403 26.0206C30.0806 27.3631 31.044 29.8144 31.2723 31.1575C31.5417 32.7483 31.811 34.3392 32.0801 35.93C32.2089 36.6897 32.9285 38.6017 32.6564 39.3422C32.6533 39.3539 32.6508 39.3656 32.649 39.3777C32.342 39.2248 32.0471 39.0485 31.7673 38.8507C30.4677 38.0947 29.1046 37.4299 27.7781 36.7227C26.0776 35.815 23.3893 33.6054 21.4579 33.3508C20.1395 33.1773 18.7339 34.3795 17.6278 34.97C15.2209 36.2539 12.4269 38.4318 9.79682 39.1481C9.62577 39.1854 9.46336 39.2538 9.31728 39.3502C9.40419 39.1847 9.43809 38.9967 9.41498 38.8115C9.3632 37.5606 9.8754 36.0878 10.0834 34.8551C10.3528 33.2642 10.6221 31.6734 10.8915 30.0825C11.0542 29.121 11.6407 27.5535 11.4851 26.5714C11.302 25.4169 10.1022 24.6628 9.27568 23.8449C7.07216 21.6648 4.75338 19.5577 2.64478 17.2861C1.86723 16.4494 1.6626 16.9166 2.52243 16.5745Z" fill="#0041E6" stroke="#0041E6"/>
</svg>
