<svg width="165" height="33" viewBox="0 0 165 33" fill="none" xmlns="http://www.w3.org/2000/svg">
<path d="M22.6523 0.692383H45.1644L33.3712 16.763H22.6523V0.692383Z" fill="#7B9FFF"/>
<path d="M0 0.692383H34.9387L22.6769 16.763H4.58683C2.05359 16.763 0 14.8658 0 12.5255V0.692383Z" fill="#517FFD"/>
<path d="M24.6523 16.6216H44.7585V28.4547C44.7585 30.795 42.7049 32.6922 40.1717 32.6922H24.6523V16.6216Z" fill="#7B9FFF"/>
<path d="M11.7677 16.6216H36.4693V28.4547C36.4693 30.795 34.4157 32.6922 31.8825 32.6922H0L11.7677 16.6216Z" fill="#517FFD"/>
<path d="M63.4492 26.4123V30.0404H85.1968V25.7491H70.4591L84.8167 6.36002V2.73189H64.2516V7.02323H77.7646L63.4492 26.4123Z" fill="#283F7D"/>
<path d="M106.488 10.8074C104.503 9.8321 102.307 9.36396 99.6049 9.36396C95.9733 9.36396 92.5528 10.4173 89.8502 11.9388V30.0404H95.0865V14.2405C96.2689 13.6553 97.7891 13.3432 99.1404 13.3432C101.885 13.3432 104.166 13.9284 106.488 15.1378V10.8074Z" fill="#283F7D"/>
<path d="M111.043 30.0404H116.279V9.8321H111.043V30.0404ZM113.661 6.282C115.477 6.282 116.617 5.69681 116.617 4.29237V3.59016C116.617 2.1467 115.477 1.56152 113.661 1.56152C111.803 1.56152 110.705 2.1467 110.705 3.59016V4.29237C110.705 5.69681 111.803 6.282 113.661 6.282Z" fill="#283F7D"/>
<path d="M142.599 9.8321H137.236L132.127 26.0612H131.535L126.426 9.8321H121.063L127.735 30.0404H135.969L142.599 9.8321Z" fill="#283F7D"/>
<path d="M158.541 22.0039C162.552 22.0039 164.875 20.3654 164.875 16.4642C164.875 12.758 162.13 9.36396 155.5 9.36396C148.659 9.36396 144.943 12.875 144.943 18.9609V20.9116C144.943 26.9975 148.659 30.5086 156.345 30.5086C158.752 30.5086 161.117 30.0404 163.355 29.1431V25.0078C160.948 26.2562 158.752 26.6854 156.387 26.6854C152.84 26.6854 150.56 25.398 150.18 22.0039H158.541ZM155.458 13.1871C158.287 13.1871 159.596 14.6306 159.596 16.4642C159.596 18.0247 158.71 18.4148 156.936 18.4148H150.18C150.264 14.8647 152.291 13.1871 155.458 13.1871Z" fill="#283F7D"/>
</svg>
